<svg width="646" height="411" viewBox="0 0 646 411" fill="none" xmlns="http://www.w3.org/2000/svg">
<g filter="url(#filter0_n_311_677)">
<rect width="646" height="411" fill="url(#paint0_linear_311_677)"/>
</g>
<circle cx="123" cy="299" r="50" fill="url(#paint1_radial_311_677)"/>
<g filter="url(#filter1_n_311_677)">
<rect x="48" y="224" width="150" height="150" rx="15" fill="url(#paint2_linear_311_677)" fill-opacity="0.5"/>
<rect x="50.5" y="226.5" width="145" height="145" rx="12.5" stroke="#D2ECFF" stroke-width="5"/>
</g>
<path d="M138.814 292.636C138.814 296.28 138.105 299.353 136.689 301.857C135.272 304.35 133.359 306.241 130.952 307.53C128.544 308.808 125.859 309.447 122.898 309.447C119.915 309.447 117.219 308.803 114.812 307.514C112.415 306.214 110.508 304.318 109.091 301.825C107.685 299.321 106.982 296.259 106.982 292.636C106.982 288.993 107.685 285.925 109.091 283.432C110.508 280.928 112.415 279.037 114.812 277.759C117.219 276.47 119.915 275.825 122.898 275.825C125.859 275.825 128.544 276.47 130.952 277.759C133.359 279.037 135.272 280.928 136.689 283.432C138.105 285.925 138.814 288.993 138.814 292.636ZM129.673 292.636C129.673 290.676 129.412 289.025 128.89 287.683C128.379 286.33 127.617 285.307 126.605 284.614C125.604 283.911 124.368 283.56 122.898 283.56C121.428 283.56 120.186 283.911 119.174 284.614C118.173 285.307 117.411 286.33 116.889 287.683C116.378 289.025 116.122 290.676 116.122 292.636C116.122 294.597 116.378 296.253 116.889 297.606C117.411 298.949 118.173 299.971 119.174 300.674C120.186 301.367 121.428 301.713 122.898 301.713C124.368 301.713 125.604 301.367 126.605 300.674C127.617 299.971 128.379 298.949 128.89 297.606C129.412 296.253 129.673 294.597 129.673 292.636Z" fill="black"/>
<path d="M105.675 322.545C105.675 323.71 105.462 324.712 105.036 325.55C104.609 326.384 104.025 327.027 103.283 327.478C102.544 327.925 101.705 328.149 100.763 328.149C99.8189 328.149 98.9755 327.925 98.2333 327.478C97.4947 327.027 96.9123 326.382 96.4862 325.544C96.06 324.706 95.8469 323.707 95.8469 322.545C95.8469 321.381 96.06 320.381 96.4862 319.547C96.9123 318.708 97.4947 318.066 98.2333 317.618C98.9755 317.167 99.8189 316.942 100.763 316.942C101.705 316.942 102.544 317.167 103.283 317.618C104.025 318.066 104.609 318.708 105.036 319.547C105.462 320.381 105.675 321.381 105.675 322.545ZM104.045 322.545C104.045 321.658 103.901 320.91 103.613 320.303C103.329 319.692 102.939 319.23 102.441 318.918C101.948 318.602 101.388 318.444 100.763 318.444C100.135 318.444 99.5739 318.602 99.0803 318.918C98.5866 319.23 98.196 319.692 97.9084 320.303C97.6243 320.91 97.4822 321.658 97.4822 322.545C97.4822 323.433 97.6243 324.183 97.9084 324.793C98.196 325.401 98.5866 325.862 99.0803 326.178C99.5739 326.491 100.135 326.647 100.763 326.647C101.388 326.647 101.948 326.491 102.441 326.178C102.939 325.862 103.329 325.401 103.613 324.793C103.901 324.183 104.045 323.433 104.045 322.545ZM108.856 319.818L110.662 323.004L112.484 319.818H114.225L111.674 323.909L114.247 328H112.505L110.662 324.942L108.824 328H107.077L109.623 323.909L107.109 319.818H108.856ZM116.867 331.068C116.63 331.068 116.413 331.049 116.218 331.01C116.022 330.974 115.877 330.935 115.781 330.892L116.164 329.587C116.456 329.665 116.715 329.699 116.942 329.689C117.169 329.678 117.37 329.593 117.544 329.433C117.722 329.273 117.878 329.012 118.013 328.65L118.21 328.107L115.216 319.818H116.921L118.993 326.168H119.078L121.15 319.818H122.86L119.488 329.092C119.332 329.518 119.133 329.879 118.892 330.173C118.65 330.472 118.362 330.695 118.029 330.844C117.695 330.994 117.308 331.068 116.867 331.068ZM127.509 331.239C126.859 331.239 126.3 331.153 125.831 330.983C125.366 330.813 124.986 330.587 124.691 330.306C124.396 330.026 124.176 329.719 124.031 329.385L125.4 328.82C125.495 328.977 125.623 329.142 125.783 329.316C125.946 329.493 126.167 329.644 126.444 329.768C126.724 329.893 127.085 329.955 127.525 329.955C128.129 329.955 128.627 329.808 129.022 329.513C129.416 329.222 129.613 328.756 129.613 328.117V326.509H129.512C129.416 326.683 129.277 326.876 129.096 327.089C128.919 327.302 128.674 327.487 128.361 327.643C128.049 327.799 127.642 327.877 127.141 327.877C126.495 327.877 125.913 327.727 125.394 327.425C124.879 327.119 124.471 326.67 124.169 326.077C123.871 325.48 123.722 324.747 123.722 323.877C123.722 323.007 123.869 322.261 124.164 321.64C124.462 321.018 124.87 320.543 125.389 320.212C125.907 319.879 126.495 319.712 127.152 319.712C127.66 319.712 128.07 319.797 128.382 319.967C128.695 320.134 128.938 320.33 129.112 320.553C129.29 320.777 129.426 320.974 129.522 321.145H129.64V319.818H131.2V328.181C131.2 328.884 131.037 329.461 130.71 329.912C130.384 330.363 129.941 330.697 129.384 330.914C128.83 331.13 128.205 331.239 127.509 331.239ZM127.493 326.556C127.951 326.556 128.338 326.45 128.654 326.237C128.974 326.02 129.215 325.711 129.379 325.31C129.545 324.905 129.629 324.42 129.629 323.856C129.629 323.305 129.547 322.821 129.384 322.402C129.221 321.983 128.981 321.656 128.665 321.422C128.349 321.184 127.958 321.065 127.493 321.065C127.013 321.065 126.614 321.189 126.294 321.438C125.975 321.683 125.733 322.016 125.57 322.439C125.41 322.862 125.33 323.334 125.33 323.856C125.33 324.392 125.412 324.863 125.575 325.267C125.739 325.672 125.98 325.988 126.3 326.216C126.623 326.443 127.021 326.556 127.493 326.556ZM136.863 328.165C136.056 328.165 135.362 327.993 134.78 327.648C134.201 327.3 133.754 326.812 133.438 326.184C133.125 325.551 132.969 324.811 132.969 323.962C132.969 323.124 133.125 322.386 133.438 321.746C133.754 321.107 134.194 320.608 134.759 320.25C135.327 319.891 135.991 319.712 136.751 319.712C137.212 319.712 137.66 319.788 138.093 319.941C138.526 320.093 138.915 320.333 139.26 320.66C139.604 320.987 139.876 321.411 140.075 321.933C140.273 322.451 140.373 323.082 140.373 323.824V324.388H133.869V323.195H138.812C138.812 322.776 138.727 322.405 138.556 322.082C138.386 321.755 138.146 321.498 137.837 321.31C137.532 321.121 137.173 321.027 136.761 321.027C136.314 321.027 135.923 321.137 135.589 321.358C135.259 321.574 135.004 321.858 134.822 322.21C134.645 322.558 134.556 322.936 134.556 323.344V324.277C134.556 324.824 134.652 325.289 134.844 325.672C135.039 326.056 135.311 326.349 135.659 326.551C136.007 326.75 136.413 326.849 136.879 326.849C137.18 326.849 137.456 326.807 137.704 326.722C137.953 326.633 138.168 326.501 138.349 326.327C138.53 326.153 138.668 325.939 138.764 325.683L140.272 325.955C140.151 326.398 139.934 326.787 139.622 327.121C139.313 327.451 138.924 327.709 138.455 327.893C137.99 328.075 137.459 328.165 136.863 328.165ZM143.733 323.142V328H142.14V319.818H143.669V321.15H143.77C143.958 320.717 144.253 320.369 144.654 320.106C145.059 319.843 145.569 319.712 146.183 319.712C146.741 319.712 147.229 319.829 147.648 320.063C148.067 320.294 148.392 320.638 148.623 321.097C148.853 321.555 148.969 322.121 148.969 322.796V328H147.376V322.988C147.376 322.395 147.222 321.931 146.913 321.597C146.604 321.26 146.179 321.091 145.64 321.091C145.27 321.091 144.942 321.171 144.654 321.331C144.37 321.491 144.145 321.725 143.978 322.034C143.814 322.339 143.733 322.709 143.733 323.142Z" fill="black"/>
<path d="M65.5284 255.249C64.4867 255.249 63.5368 255.027 62.6786 254.583C61.8263 254.139 61.1457 253.544 60.6367 252.798C60.1336 252.053 59.8821 251.224 59.8821 250.312C59.8821 249.59 60.0449 248.904 60.3704 248.253C60.7018 247.602 61.1546 247.045 61.7287 246.584C62.3087 246.116 62.9716 245.797 63.7173 245.625V245.554C62.7763 245.228 62.0009 244.669 61.3913 243.876C60.7876 243.083 60.4858 242.186 60.4858 241.186C60.4858 240.322 60.7107 239.544 61.1605 238.851C61.6162 238.153 62.2259 237.599 62.9893 237.191C63.7528 236.777 64.5992 236.57 65.5284 236.57C66.4458 236.57 67.2862 236.774 68.0497 237.182C68.8132 237.591 69.4228 238.144 69.8786 238.842C70.3402 239.535 70.571 240.316 70.571 241.186C70.571 242.174 70.2721 243.071 69.6744 243.876C69.0766 244.675 68.2983 245.234 67.3395 245.554V245.625C68.0852 245.785 68.7451 246.098 69.3192 246.566C69.8993 247.034 70.352 247.596 70.6776 248.253C71.009 248.904 71.1747 249.59 71.1747 250.312C71.1747 251.224 70.9202 252.053 70.4112 252.798C69.9081 253.544 69.2275 254.139 68.3693 254.583C67.517 255.027 66.5701 255.249 65.5284 255.249ZM65.5284 254.68C66.4754 254.68 67.3306 254.482 68.0941 254.086C68.8635 253.683 69.4731 253.15 69.9229 252.488C70.3787 251.819 70.6065 251.082 70.6065 250.277C70.6065 249.472 70.3787 248.738 69.9229 248.075C69.4731 247.406 68.8635 246.874 68.0941 246.477C67.3306 246.075 66.4754 245.874 65.5284 245.874C64.5814 245.874 63.7232 246.075 62.9538 246.477C62.1903 246.874 61.5807 247.406 61.125 248.075C60.6752 248.738 60.4503 249.472 60.4503 250.277C60.4503 251.082 60.6752 251.819 61.125 252.488C61.5807 253.15 62.1933 253.683 62.9627 254.086C63.7321 254.482 64.5874 254.68 65.5284 254.68ZM65.5284 245.376C66.3511 245.376 67.0998 245.184 67.7745 244.799C68.4492 244.415 68.9878 243.906 69.3903 243.272C69.7987 242.633 70.0028 241.938 70.0028 241.186C70.0028 240.429 69.7987 239.745 69.3903 239.135C68.9878 238.52 68.4492 238.034 67.7745 237.679C67.0998 237.318 66.3511 237.138 65.5284 237.138C64.7116 237.138 63.9629 237.318 63.2823 237.679C62.6076 238.034 62.0661 238.52 61.6577 239.135C61.2552 239.745 61.054 240.429 61.054 241.186C61.054 241.938 61.2552 242.633 61.6577 243.272C62.0661 243.906 62.6076 244.415 63.2823 244.799C63.9629 245.184 64.7116 245.376 65.5284 245.376Z" fill="black"/>
<circle cx="123" cy="141" r="50" fill="url(#paint3_radial_311_677)"/>
<g filter="url(#filter2_n_311_677)">
<rect x="48" y="65" width="150" height="150" rx="15" fill="url(#paint4_linear_311_677)" fill-opacity="0.5"/>
<rect x="50.5" y="67.5" width="145" height="145" rx="12.5" stroke="#D2ECFF" stroke-width="5"/>
</g>
<path d="M137.663 136.545H128.651C128.587 135.8 128.416 135.123 128.139 134.516C127.873 133.909 127.5 133.387 127.021 132.95C126.552 132.502 125.982 132.162 125.311 131.927C124.64 131.682 123.878 131.56 123.026 131.56C121.534 131.56 120.272 131.922 119.238 132.646C118.216 133.371 117.438 134.409 116.905 135.762C116.383 137.115 116.122 138.74 116.122 140.636C116.122 142.639 116.388 144.317 116.921 145.67C117.464 147.012 118.248 148.025 119.27 148.706C120.293 149.377 121.523 149.713 122.962 149.713C123.782 149.713 124.517 149.612 125.167 149.409C125.817 149.196 126.381 148.893 126.861 148.499C127.34 148.104 127.729 147.63 128.027 147.076C128.336 146.512 128.544 145.878 128.651 145.175L137.663 145.239C137.557 146.624 137.168 148.035 136.497 149.473C135.826 150.901 134.872 152.222 133.636 153.436C132.411 154.64 130.893 155.61 129.082 156.345C127.271 157.08 125.167 157.447 122.77 157.447C119.766 157.447 117.07 156.803 114.684 155.514C112.308 154.225 110.428 152.328 109.043 149.825C107.669 147.321 106.982 144.259 106.982 140.636C106.982 136.993 107.685 133.925 109.091 131.432C110.497 128.928 112.393 127.037 114.78 125.759C117.166 124.47 119.83 123.825 122.77 123.825C124.837 123.825 126.738 124.108 128.475 124.672C130.211 125.237 131.735 126.062 133.045 127.149C134.355 128.225 135.41 129.551 136.209 131.128C137.008 132.705 137.493 134.511 137.663 136.545Z" fill="black"/>
<path d="M106.259 167.638H104.597C104.533 167.283 104.414 166.971 104.24 166.701C104.066 166.431 103.853 166.202 103.601 166.014C103.349 165.826 103.067 165.684 102.754 165.588C102.445 165.492 102.117 165.444 101.769 165.444C101.14 165.444 100.577 165.602 100.08 165.918C99.5866 166.234 99.196 166.697 98.9084 167.308C98.6243 167.919 98.4822 168.665 98.4822 169.545C98.4822 170.433 98.6243 171.183 98.9084 171.793C99.196 172.404 99.5884 172.866 100.086 173.178C100.583 173.491 101.142 173.647 101.763 173.647C102.108 173.647 102.435 173.601 102.744 173.509C103.056 173.413 103.338 173.272 103.591 173.088C103.843 172.903 104.056 172.678 104.23 172.411C104.407 172.141 104.53 171.832 104.597 171.484L106.259 171.49C106.17 172.026 105.998 172.52 105.743 172.971C105.49 173.418 105.165 173.805 104.768 174.132C104.374 174.455 103.923 174.705 103.415 174.883C102.907 175.06 102.353 175.149 101.753 175.149C100.808 175.149 99.9666 174.925 99.228 174.478C98.4893 174.027 97.907 173.382 97.4808 172.544C97.0582 171.706 96.8469 170.707 96.8469 169.545C96.8469 168.381 97.06 167.381 97.4862 166.547C97.9123 165.708 98.4947 165.066 99.2333 164.618C99.9719 164.167 100.812 163.942 101.753 163.942C102.332 163.942 102.871 164.025 103.372 164.192C103.876 164.355 104.329 164.597 104.73 164.917C105.132 165.233 105.464 165.62 105.727 166.078C105.989 166.532 106.167 167.053 106.259 167.638ZM110.482 175.181C109.964 175.181 109.495 175.085 109.076 174.893C108.657 174.698 108.325 174.416 108.08 174.047C107.838 173.677 107.717 173.224 107.717 172.688C107.717 172.227 107.806 171.847 107.984 171.548C108.161 171.25 108.401 171.014 108.703 170.84C109.005 170.666 109.342 170.534 109.715 170.446C110.088 170.357 110.468 170.289 110.855 170.243C111.345 170.186 111.743 170.14 112.048 170.105C112.353 170.066 112.575 170.004 112.714 169.918C112.852 169.833 112.922 169.695 112.922 169.503V169.466C112.922 169 112.79 168.64 112.527 168.384C112.268 168.129 111.881 168.001 111.366 168.001C110.83 168.001 110.407 168.12 110.098 168.358C109.793 168.592 109.582 168.853 109.465 169.141L107.968 168.8C108.145 168.303 108.405 167.901 108.745 167.596C109.09 167.287 109.486 167.063 109.933 166.925C110.381 166.783 110.851 166.712 111.345 166.712C111.672 166.712 112.018 166.751 112.384 166.829C112.753 166.903 113.097 167.042 113.417 167.244C113.74 167.447 114.005 167.736 114.211 168.113C114.417 168.485 114.52 168.97 114.52 169.567V175H112.964V173.881H112.9C112.797 174.087 112.643 174.29 112.437 174.489C112.231 174.687 111.966 174.853 111.643 174.984C111.32 175.115 110.933 175.181 110.482 175.181ZM110.828 173.903C111.269 173.903 111.645 173.816 111.957 173.642C112.274 173.468 112.513 173.24 112.677 172.96C112.843 172.676 112.927 172.372 112.927 172.049V170.994C112.87 171.051 112.76 171.104 112.597 171.154C112.437 171.2 112.254 171.241 112.048 171.277C111.842 171.309 111.641 171.339 111.446 171.367C111.251 171.392 111.087 171.413 110.956 171.431C110.647 171.47 110.365 171.536 110.109 171.628C109.857 171.721 109.655 171.854 109.502 172.028C109.353 172.198 109.278 172.425 109.278 172.71C109.278 173.104 109.424 173.402 109.715 173.604C110.006 173.803 110.377 173.903 110.828 173.903ZM116.641 175V166.818H118.18V168.118H118.266C118.415 167.678 118.678 167.331 119.054 167.079C119.434 166.824 119.864 166.696 120.343 166.696C120.442 166.696 120.56 166.699 120.695 166.706C120.833 166.713 120.941 166.722 121.02 166.733V168.256C120.956 168.239 120.842 168.219 120.679 168.198C120.515 168.173 120.352 168.161 120.189 168.161C119.812 168.161 119.477 168.24 119.182 168.4C118.891 168.556 118.66 168.775 118.489 169.055C118.319 169.332 118.234 169.648 118.234 170.004V175H116.641ZM122.526 175V164.091H124.118V168.145H124.214C124.307 167.974 124.44 167.777 124.614 167.553C124.788 167.33 125.029 167.134 125.338 166.967C125.647 166.797 126.055 166.712 126.563 166.712C127.224 166.712 127.813 166.879 128.332 167.212C128.85 167.546 129.257 168.027 129.552 168.656C129.85 169.284 129.999 170.041 129.999 170.925C129.999 171.809 129.852 172.567 129.557 173.2C129.262 173.828 128.857 174.313 128.342 174.654C127.828 174.991 127.24 175.16 126.579 175.16C126.082 175.16 125.676 175.076 125.359 174.909C125.047 174.743 124.802 174.547 124.624 174.324C124.447 174.1 124.31 173.901 124.214 173.727H124.081V175H122.526ZM124.086 170.909C124.086 171.484 124.17 171.989 124.337 172.422C124.504 172.855 124.745 173.194 125.061 173.439C125.377 173.681 125.764 173.801 126.222 173.801C126.698 173.801 127.096 173.675 127.416 173.423C127.735 173.168 127.977 172.821 128.14 172.385C128.307 171.948 128.39 171.456 128.39 170.909C128.39 170.369 128.309 169.885 128.145 169.455C127.986 169.025 127.744 168.686 127.421 168.438C127.101 168.189 126.702 168.065 126.222 168.065C125.761 168.065 125.37 168.184 125.051 168.422C124.734 168.659 124.495 168.991 124.331 169.418C124.168 169.844 124.086 170.341 124.086 170.909ZM135.234 175.165C134.467 175.165 133.797 174.989 133.226 174.638C132.654 174.286 132.21 173.794 131.894 173.162C131.578 172.53 131.42 171.792 131.42 170.946C131.42 170.098 131.578 169.355 131.894 168.72C132.21 168.084 132.654 167.591 133.226 167.239C133.797 166.887 134.467 166.712 135.234 166.712C136.001 166.712 136.67 166.887 137.242 167.239C137.814 167.591 138.258 168.084 138.574 168.72C138.89 169.355 139.048 170.098 139.048 170.946C139.048 171.792 138.89 172.53 138.574 173.162C138.258 173.794 137.814 174.286 137.242 174.638C136.67 174.989 136.001 175.165 135.234 175.165ZM135.239 173.828C135.736 173.828 136.148 173.697 136.475 173.434C136.802 173.171 137.043 172.821 137.199 172.385C137.359 171.948 137.439 171.467 137.439 170.941C137.439 170.419 137.359 169.94 137.199 169.503C137.043 169.062 136.802 168.709 136.475 168.443C136.148 168.176 135.736 168.043 135.239 168.043C134.738 168.043 134.323 168.176 133.993 168.443C133.666 168.709 133.423 169.062 133.263 169.503C133.107 169.94 133.029 170.419 133.029 170.941C133.029 171.467 133.107 171.948 133.263 172.385C133.423 172.821 133.666 173.171 133.993 173.434C134.323 173.697 134.738 173.828 135.239 173.828ZM142.418 170.142V175H140.826V166.818H142.354V168.15H142.456C142.644 167.717 142.938 167.369 143.34 167.106C143.745 166.843 144.254 166.712 144.869 166.712C145.426 166.712 145.914 166.829 146.333 167.063C146.752 167.294 147.077 167.638 147.308 168.097C147.539 168.555 147.654 169.121 147.654 169.796V175H146.062V169.988C146.062 169.395 145.907 168.931 145.598 168.597C145.289 168.26 144.865 168.091 144.325 168.091C143.956 168.091 143.627 168.171 143.34 168.331C143.056 168.491 142.83 168.725 142.663 169.034C142.5 169.339 142.418 169.709 142.418 170.142Z" fill="black"/>
<path d="M65.4219 103.249C64.6525 103.249 63.9393 103.074 63.2823 102.725C62.6254 102.376 62.0513 101.852 61.56 101.153C61.0747 100.449 60.6959 99.5643 60.4237 98.4989C60.1573 97.4336 60.0241 96.1877 60.0241 94.7614C60.0241 93.5362 60.11 92.3229 60.2816 91.1214C60.4592 89.9141 60.7551 88.8162 61.1694 87.8278C61.5837 86.8394 62.1519 86.0492 62.8739 85.4574C63.596 84.8655 64.5045 84.5696 65.5994 84.5696C66.4991 84.5696 67.2833 84.7738 67.9521 85.1822C68.6209 85.5846 69.1506 86.1469 69.5412 86.869C69.9318 87.5851 70.1567 88.4167 70.2159 89.3636H69.6477C69.5589 88.1148 69.1594 87.0998 68.4492 86.3185C67.7449 85.5314 66.795 85.1378 65.5994 85.1378C63.9422 85.1378 62.6934 85.9871 61.853 87.6857C61.0125 89.3784 60.5923 91.8198 60.5923 95.0099H60.6634C60.8587 94.4062 61.1871 93.8706 61.6488 93.4031C62.1164 92.9296 62.6697 92.5597 63.3089 92.2933C63.9482 92.0211 64.617 91.8849 65.3153 91.8849C66.2682 91.8849 67.1383 92.1335 67.9254 92.6307C68.7185 93.1278 69.3518 93.8055 69.8253 94.6637C70.2988 95.5219 70.5355 96.4896 70.5355 97.5668C70.5355 98.5729 70.3195 99.508 69.8874 100.372C69.4613 101.236 68.8635 101.932 68.0941 102.458C67.3306 102.985 66.4399 103.249 65.4219 103.249ZM65.4219 102.68C66.2978 102.68 67.0761 102.45 67.7567 101.988C68.4433 101.526 68.9819 100.908 69.3725 100.132C69.7691 99.3571 69.9673 98.5019 69.9673 97.5668C69.9673 96.608 69.7572 95.7438 69.337 94.9744C68.9227 94.1991 68.3604 93.5865 67.6502 93.1367C66.9459 92.681 66.1558 92.4531 65.2798 92.4531C64.5874 92.4531 63.9452 92.5981 63.3533 92.8881C62.7615 93.1722 62.2554 93.5658 61.8352 94.0689C61.4209 94.5661 61.125 95.1372 60.9474 95.7823C60.7699 96.4274 60.7462 97.1051 60.8764 97.8153C61.0777 98.8807 61.3913 99.7744 61.8175 100.496C62.2495 101.219 62.7704 101.763 63.38 102.13C63.9955 102.497 64.6761 102.68 65.4219 102.68Z" fill="black"/>
<circle cx="282" cy="141" r="25" fill="url(#paint5_radial_311_677)"/>
<g filter="url(#filter3_n_311_677)">
<rect x="207" y="65" width="150" height="150" rx="15" fill="url(#paint6_linear_311_677)" fill-opacity="0.5"/>
<rect x="209.5" y="67.5" width="145" height="145" rx="12.5" stroke="#D2ECFF" stroke-width="5"/>
</g>
<path d="M266.109 157V124.273H274.994V137.057H286.756V124.273H295.641V157H286.756V144.216H274.994V157H266.109Z" fill="black"/>
<path d="M247.199 174V163.091H248.844V167.832H254.283V163.091H255.934V174H254.283V169.243H248.844V174H247.199ZM259.21 177.068C258.972 177.068 258.756 177.049 258.56 177.01C258.365 176.974 258.219 176.935 258.124 176.892L258.507 175.587C258.798 175.665 259.058 175.699 259.285 175.689C259.512 175.678 259.713 175.593 259.887 175.433C260.064 175.273 260.221 175.012 260.355 174.65L260.553 174.107L257.559 165.818H259.263L261.336 172.168H261.421L263.493 165.818H265.203L261.831 175.092C261.675 175.518 261.476 175.879 261.234 176.173C260.993 176.472 260.705 176.695 260.371 176.844C260.038 176.994 259.651 177.068 259.21 177.068ZM269.484 174.16C268.824 174.16 268.234 173.991 267.716 173.654C267.201 173.313 266.796 172.828 266.501 172.2C266.21 171.567 266.064 170.809 266.064 169.925C266.064 169.041 266.212 168.284 266.506 167.656C266.805 167.027 267.213 166.546 267.732 166.212C268.25 165.879 268.838 165.712 269.495 165.712C270.003 165.712 270.411 165.797 270.72 165.967C271.032 166.134 271.274 166.33 271.444 166.553C271.618 166.777 271.753 166.974 271.849 167.145H271.945V163.091H273.538V174H271.982V172.727H271.849C271.753 172.901 271.615 173.1 271.434 173.324C271.256 173.547 271.011 173.743 270.699 173.909C270.386 174.076 269.981 174.16 269.484 174.16ZM269.836 172.801C270.294 172.801 270.681 172.681 270.997 172.439C271.316 172.194 271.558 171.855 271.721 171.422C271.888 170.989 271.972 170.484 271.972 169.909C271.972 169.341 271.89 168.844 271.727 168.418C271.563 167.991 271.324 167.659 271.008 167.422C270.691 167.184 270.301 167.065 269.836 167.065C269.356 167.065 268.957 167.189 268.637 167.438C268.318 167.686 268.076 168.025 267.913 168.455C267.753 168.885 267.673 169.369 267.673 169.909C267.673 170.456 267.755 170.948 267.918 171.385C268.081 171.821 268.323 172.168 268.642 172.423C268.966 172.675 269.363 172.801 269.836 172.801ZM275.811 174V165.818H277.35V167.118H277.436C277.585 166.678 277.847 166.331 278.224 166.079C278.604 165.824 279.034 165.696 279.513 165.696C279.612 165.696 279.73 165.699 279.865 165.706C280.003 165.713 280.111 165.722 280.189 165.733V167.256C280.126 167.239 280.012 167.219 279.849 167.198C279.685 167.173 279.522 167.161 279.358 167.161C278.982 167.161 278.646 167.24 278.352 167.4C278.061 167.556 277.83 167.775 277.659 168.055C277.489 168.332 277.404 168.648 277.404 169.004V174H275.811ZM284.721 174.165C283.954 174.165 283.285 173.989 282.713 173.638C282.141 173.286 281.697 172.794 281.381 172.162C281.065 171.53 280.907 170.792 280.907 169.946C280.907 169.098 281.065 168.355 281.381 167.72C281.697 167.084 282.141 166.591 282.713 166.239C283.285 165.887 283.954 165.712 284.721 165.712C285.488 165.712 286.158 165.887 286.729 166.239C287.301 166.591 287.745 167.084 288.061 167.72C288.377 168.355 288.535 169.098 288.535 169.946C288.535 170.792 288.377 171.53 288.061 172.162C287.745 172.794 287.301 173.286 286.729 173.638C286.158 173.989 285.488 174.165 284.721 174.165ZM284.726 172.828C285.224 172.828 285.636 172.697 285.962 172.434C286.289 172.171 286.53 171.821 286.687 171.385C286.847 170.948 286.926 170.467 286.926 169.941C286.926 169.419 286.847 168.94 286.687 168.503C286.53 168.062 286.289 167.709 285.962 167.443C285.636 167.176 285.224 167.043 284.726 167.043C284.226 167.043 283.81 167.176 283.48 167.443C283.153 167.709 282.91 168.062 282.75 168.503C282.594 168.94 282.516 169.419 282.516 169.941C282.516 170.467 282.594 170.948 282.75 171.385C282.91 171.821 283.153 172.171 283.48 172.434C283.81 172.697 284.226 172.828 284.726 172.828ZM293.743 177.239C293.093 177.239 292.534 177.153 292.065 176.983C291.6 176.813 291.22 176.587 290.925 176.306C290.631 176.026 290.411 175.719 290.265 175.385L291.634 174.82C291.73 174.977 291.858 175.142 292.017 175.316C292.181 175.493 292.401 175.644 292.678 175.768C292.958 175.893 293.319 175.955 293.759 175.955C294.363 175.955 294.862 175.808 295.256 175.513C295.65 175.222 295.847 174.756 295.847 174.117V172.509H295.746C295.65 172.683 295.512 172.876 295.331 173.089C295.153 173.302 294.908 173.487 294.596 173.643C294.283 173.799 293.876 173.877 293.376 173.877C292.729 173.877 292.147 173.727 291.629 173.425C291.114 173.119 290.705 172.67 290.403 172.077C290.105 171.48 289.956 170.747 289.956 169.877C289.956 169.007 290.103 168.261 290.398 167.64C290.696 167.018 291.105 166.543 291.623 166.212C292.142 165.879 292.729 165.712 293.386 165.712C293.894 165.712 294.304 165.797 294.617 165.967C294.929 166.134 295.173 166.33 295.347 166.553C295.524 166.777 295.661 166.974 295.757 167.145H295.874V165.818H297.435V174.181C297.435 174.884 297.271 175.461 296.945 175.912C296.618 176.363 296.176 176.697 295.618 176.914C295.064 177.13 294.439 177.239 293.743 177.239ZM293.727 172.556C294.185 172.556 294.572 172.45 294.888 172.237C295.208 172.02 295.45 171.711 295.613 171.31C295.78 170.905 295.863 170.42 295.863 169.856C295.863 169.305 295.782 168.821 295.618 168.402C295.455 167.983 295.215 167.656 294.899 167.422C294.583 167.184 294.192 167.065 293.727 167.065C293.248 167.065 292.848 167.189 292.529 167.438C292.209 167.683 291.968 168.016 291.804 168.439C291.645 168.862 291.565 169.334 291.565 169.856C291.565 170.392 291.646 170.863 291.81 171.267C291.973 171.672 292.214 171.988 292.534 172.216C292.857 172.443 293.255 172.556 293.727 172.556ZM303.097 174.165C302.291 174.165 301.597 173.993 301.014 173.648C300.435 173.3 299.988 172.812 299.672 172.184C299.359 171.551 299.203 170.811 299.203 169.962C299.203 169.124 299.359 168.386 299.672 167.746C299.988 167.107 300.428 166.608 300.993 166.25C301.561 165.891 302.225 165.712 302.985 165.712C303.447 165.712 303.894 165.788 304.327 165.941C304.761 166.093 305.15 166.333 305.494 166.66C305.838 166.987 306.11 167.411 306.309 167.933C306.508 168.451 306.607 169.082 306.607 169.824V170.388H300.103V169.195H305.047C305.047 168.776 304.961 168.405 304.791 168.082C304.62 167.755 304.381 167.498 304.072 167.31C303.766 167.121 303.408 167.027 302.996 167.027C302.548 167.027 302.158 167.137 301.824 167.358C301.494 167.574 301.238 167.858 301.057 168.21C300.879 168.558 300.79 168.936 300.79 169.344V170.277C300.79 170.824 300.886 171.289 301.078 171.672C301.273 172.056 301.545 172.349 301.893 172.551C302.241 172.75 302.648 172.849 303.113 172.849C303.415 172.849 303.69 172.807 303.939 172.722C304.187 172.633 304.402 172.501 304.583 172.327C304.764 172.153 304.903 171.939 304.999 171.683L306.506 171.955C306.385 172.398 306.169 172.787 305.856 173.121C305.547 173.451 305.158 173.709 304.69 173.893C304.224 174.075 303.694 174.165 303.097 174.165ZM309.967 169.142V174H308.374V165.818H309.903V167.15H310.004C310.193 166.717 310.487 166.369 310.889 166.106C311.293 165.843 311.803 165.712 312.417 165.712C312.975 165.712 313.463 165.829 313.882 166.063C314.301 166.294 314.626 166.638 314.857 167.097C315.088 167.555 315.203 168.121 315.203 168.796V174H313.611V168.988C313.611 168.395 313.456 167.931 313.147 167.597C312.838 167.26 312.414 167.091 311.874 167.091C311.505 167.091 311.176 167.171 310.889 167.331C310.604 167.491 310.379 167.725 310.212 168.034C310.049 168.339 309.967 168.709 309.967 169.142Z" fill="black"/>
<path d="M223.357 84.8182V103H222.788V85.4219H222.682L218.776 88.0142V87.3395L222.575 84.8182H223.357Z" fill="black"/>
<circle cx="441" cy="140" r="50" fill="url(#paint7_radial_311_677)"/>
<g filter="url(#filter4_n_311_677)">
<rect x="366" y="65" width="150" height="150" rx="15" fill="url(#paint8_linear_311_677)" fill-opacity="0.5"/>
<rect x="368.5" y="67.5" width="145" height="145" rx="12.5" stroke="#D2ECFF" stroke-width="5"/>
</g>
<path d="M454.426 124.273V157H447.011L435.186 139.805H434.994V157H426.109V124.273H433.652L445.286 141.403H445.541V124.273H454.426Z" fill="black"/>
<path d="M419.004 164.091V175H417.491L411.946 166.999H411.844V175H410.199V164.091H411.722L417.272 172.102H417.374V164.091H419.004ZM421.277 175V166.818H422.869V175H421.277ZM422.081 165.556C421.804 165.556 421.566 165.463 421.367 165.279C421.172 165.091 421.074 164.867 421.074 164.608C421.074 164.345 421.172 164.121 421.367 163.936C421.566 163.748 421.804 163.654 422.081 163.654C422.358 163.654 422.594 163.748 422.79 163.936C422.988 164.121 423.088 164.345 423.088 164.608C423.088 164.867 422.988 165.091 422.79 165.279C422.594 165.463 422.358 165.556 422.081 165.556ZM428.831 166.818V168.097H424.362V166.818H428.831ZM425.561 164.858H427.153V172.598C427.153 172.907 427.2 173.139 427.292 173.295C427.384 173.448 427.503 173.553 427.649 173.61C427.798 173.663 427.96 173.69 428.134 173.69C428.261 173.69 428.373 173.681 428.469 173.663C428.565 173.645 428.64 173.631 428.693 173.62L428.98 174.936C428.888 174.972 428.757 175.007 428.586 175.043C428.416 175.082 428.203 175.103 427.947 175.107C427.528 175.114 427.137 175.039 426.775 174.883C426.413 174.727 426.12 174.485 425.896 174.158C425.673 173.832 425.561 173.422 425.561 172.928V164.858ZM430.593 175V166.818H432.133V168.118H432.218C432.367 167.678 432.63 167.331 433.006 167.079C433.386 166.824 433.816 166.696 434.295 166.696C434.395 166.696 434.512 166.699 434.647 166.706C434.785 166.713 434.894 166.722 434.972 166.733V168.256C434.908 168.239 434.794 168.219 434.631 168.198C434.467 168.173 434.304 168.161 434.141 168.161C433.764 168.161 433.429 168.24 433.134 168.4C432.843 168.556 432.612 168.775 432.441 169.055C432.271 169.332 432.186 169.648 432.186 170.004V175H430.593ZM439.503 175.165C438.736 175.165 438.067 174.989 437.495 174.638C436.923 174.286 436.48 173.794 436.164 173.162C435.847 172.53 435.689 171.792 435.689 170.946C435.689 170.098 435.847 169.355 436.164 168.72C436.48 168.084 436.923 167.591 437.495 167.239C438.067 166.887 438.736 166.712 439.503 166.712C440.27 166.712 440.94 166.887 441.512 167.239C442.083 167.591 442.527 168.084 442.843 168.72C443.159 169.355 443.317 170.098 443.317 170.946C443.317 171.792 443.159 172.53 442.843 173.162C442.527 173.794 442.083 174.286 441.512 174.638C440.94 174.989 440.27 175.165 439.503 175.165ZM439.509 173.828C440.006 173.828 440.418 173.697 440.744 173.434C441.071 173.171 441.313 172.821 441.469 172.385C441.629 171.948 441.709 171.467 441.709 170.941C441.709 170.419 441.629 169.94 441.469 169.503C441.313 169.062 441.071 168.709 440.744 168.443C440.418 168.176 440.006 168.043 439.509 168.043C439.008 168.043 438.593 168.176 438.262 168.443C437.936 168.709 437.692 169.062 437.532 169.503C437.376 169.94 437.298 170.419 437.298 170.941C437.298 171.467 437.376 171.948 437.532 172.385C437.692 172.821 437.936 173.171 438.262 173.434C438.593 173.697 439.008 173.828 439.509 173.828ZM448.525 178.239C447.876 178.239 447.316 178.153 446.848 177.983C446.382 177.813 446.002 177.587 445.708 177.306C445.413 177.026 445.193 176.719 445.047 176.385L446.416 175.82C446.512 175.977 446.64 176.142 446.8 176.316C446.963 176.493 447.183 176.644 447.46 176.768C447.741 176.893 448.101 176.955 448.541 176.955C449.145 176.955 449.644 176.808 450.038 176.513C450.432 176.222 450.63 175.756 450.63 175.117V173.509H450.528C450.432 173.683 450.294 173.876 450.113 174.089C449.935 174.302 449.69 174.487 449.378 174.643C449.065 174.799 448.659 174.877 448.158 174.877C447.512 174.877 446.929 174.727 446.411 174.425C445.896 174.119 445.487 173.67 445.186 173.077C444.887 172.48 444.738 171.747 444.738 170.877C444.738 170.007 444.886 169.261 445.18 168.64C445.479 168.018 445.887 167.543 446.405 167.212C446.924 166.879 447.512 166.712 448.169 166.712C448.676 166.712 449.087 166.797 449.399 166.967C449.712 167.134 449.955 167.33 450.129 167.553C450.306 167.777 450.443 167.974 450.539 168.145H450.656V166.818H452.217V175.181C452.217 175.884 452.054 176.461 451.727 176.912C451.4 177.363 450.958 177.697 450.4 177.914C449.847 178.13 449.222 178.239 448.525 178.239ZM448.509 173.556C448.968 173.556 449.355 173.45 449.671 173.237C449.99 173.02 450.232 172.711 450.395 172.31C450.562 171.905 450.646 171.42 450.646 170.856C450.646 170.305 450.564 169.821 450.4 169.402C450.237 168.983 449.997 168.656 449.681 168.422C449.365 168.184 448.975 168.065 448.509 168.065C448.03 168.065 447.631 168.189 447.311 168.438C446.991 168.683 446.75 169.016 446.587 169.439C446.427 169.862 446.347 170.334 446.347 170.856C446.347 171.392 446.429 171.863 446.592 172.267C446.755 172.672 446.997 172.988 447.316 173.216C447.639 173.443 448.037 173.556 448.509 173.556ZM457.879 175.165C457.073 175.165 456.379 174.993 455.796 174.648C455.218 174.3 454.77 173.812 454.454 173.184C454.142 172.551 453.985 171.811 453.985 170.962C453.985 170.124 454.142 169.386 454.454 168.746C454.77 168.107 455.21 167.608 455.775 167.25C456.343 166.891 457.007 166.712 457.767 166.712C458.229 166.712 458.676 166.788 459.11 166.941C459.543 167.093 459.932 167.333 460.276 167.66C460.621 167.987 460.892 168.411 461.091 168.933C461.29 169.451 461.389 170.082 461.389 170.824V171.388H454.886V170.195H459.829C459.829 169.776 459.744 169.405 459.573 169.082C459.403 168.755 459.163 168.498 458.854 168.31C458.549 168.121 458.19 168.027 457.778 168.027C457.331 168.027 456.94 168.137 456.606 168.358C456.276 168.574 456.02 168.858 455.839 169.21C455.661 169.558 455.573 169.936 455.573 170.344V171.277C455.573 171.824 455.669 172.289 455.86 172.672C456.056 173.056 456.327 173.349 456.675 173.551C457.023 173.75 457.43 173.849 457.895 173.849C458.197 173.849 458.472 173.807 458.721 173.722C458.969 173.633 459.184 173.501 459.365 173.327C459.546 173.153 459.685 172.939 459.781 172.683L461.288 172.955C461.168 173.398 460.951 173.787 460.638 174.121C460.329 174.451 459.941 174.709 459.472 174.893C459.007 175.075 458.476 175.165 457.879 175.165ZM464.749 170.142V175H463.157V166.818H464.685V168.15H464.787C464.975 167.717 465.27 167.369 465.671 167.106C466.076 166.843 466.585 166.712 467.2 166.712C467.757 166.712 468.245 166.829 468.664 167.063C469.083 167.294 469.408 167.638 469.639 168.097C469.87 168.555 469.985 169.121 469.985 169.796V175H468.393V169.988C468.393 169.395 468.238 168.931 467.929 168.597C467.62 168.26 467.196 168.091 466.656 168.091C466.287 168.091 465.958 168.171 465.671 168.331C465.387 168.491 465.161 168.725 464.994 169.034C464.831 169.339 464.749 169.709 464.749 170.142Z" fill="black"/>
<path d="M378.734 103L387.328 85.4574V85.3864H377.456V84.8182H388.003V85.3864L379.374 103H378.734Z" fill="black"/>
<circle cx="441" cy="300" r="55" fill="url(#paint9_radial_311_677)"/>
<g filter="url(#filter5_n_311_677)">
<rect x="366" y="224" width="150" height="150" rx="15" fill="url(#paint10_linear_311_677)" fill-opacity="0.5"/>
<rect x="368.5" y="226.5" width="145" height="145" rx="12.5" stroke="#D2ECFF" stroke-width="5"/>
</g>
<path d="M445.751 293.5C445.666 292.435 445.267 291.604 444.553 291.007C443.85 290.411 442.779 290.112 441.341 290.112C440.425 290.112 439.674 290.224 439.088 290.448C438.512 290.661 438.086 290.954 437.809 291.327C437.532 291.7 437.388 292.126 437.378 292.605C437.357 292.999 437.426 293.356 437.586 293.676C437.756 293.985 438.022 294.267 438.385 294.523C438.747 294.768 439.21 294.991 439.775 295.194C440.339 295.396 441.011 295.577 441.788 295.737L444.473 296.312C446.284 296.696 447.834 297.202 449.123 297.831C450.412 298.459 451.467 299.2 452.287 300.052C453.108 300.893 453.71 301.842 454.093 302.896C454.487 303.951 454.69 305.102 454.7 306.348C454.69 308.5 454.152 310.322 453.086 311.813C452.021 313.305 450.498 314.439 448.516 315.217C446.545 315.995 444.175 316.384 441.405 316.384C438.56 316.384 436.078 315.963 433.958 315.121C431.849 314.279 430.208 312.985 429.036 311.238C427.875 309.48 427.289 307.232 427.278 304.494H435.716C435.769 305.496 436.02 306.337 436.467 307.019C436.914 307.701 437.543 308.218 438.353 308.569C439.173 308.921 440.148 309.097 441.277 309.097C442.225 309.097 443.019 308.979 443.658 308.745C444.297 308.511 444.782 308.186 445.112 307.77C445.442 307.355 445.613 306.881 445.624 306.348C445.613 305.847 445.448 305.411 445.128 305.038C444.819 304.654 444.308 304.313 443.594 304.015C442.88 303.706 441.916 303.418 440.702 303.152L437.442 302.449C434.544 301.82 432.259 300.771 430.586 299.301C428.924 297.82 428.099 295.801 428.109 293.244C428.099 291.167 428.653 289.35 429.771 287.795C430.901 286.229 432.461 285.009 434.453 284.136C436.456 283.262 438.752 282.825 441.341 282.825C443.983 282.825 446.268 283.267 448.196 284.152C450.125 285.036 451.611 286.282 452.655 287.891C453.71 289.489 454.242 291.359 454.253 293.5H445.751Z" fill="black"/>
<path d="M426.148 323.957C426.092 323.452 425.857 323.062 425.445 322.785C425.033 322.504 424.515 322.364 423.89 322.364C423.442 322.364 423.055 322.435 422.729 322.577C422.402 322.716 422.148 322.907 421.967 323.152C421.789 323.394 421.701 323.669 421.701 323.978C421.701 324.237 421.761 324.461 421.882 324.649C422.006 324.837 422.168 324.995 422.366 325.123C422.569 325.248 422.786 325.352 423.016 325.438C423.247 325.519 423.469 325.587 423.682 325.64L424.748 325.917C425.096 326.002 425.452 326.118 425.818 326.263C426.184 326.409 426.523 326.6 426.836 326.838C427.148 327.076 427.4 327.371 427.592 327.723C427.787 328.074 427.885 328.495 427.885 328.985C427.885 329.603 427.725 330.152 427.406 330.631C427.089 331.11 426.63 331.489 426.026 331.766C425.426 332.043 424.7 332.181 423.847 332.181C423.031 332.181 422.324 332.051 421.727 331.792C421.131 331.533 420.664 331.165 420.326 330.69C419.989 330.21 419.803 329.642 419.767 328.985H421.418C421.45 329.379 421.578 329.708 421.802 329.971C422.029 330.23 422.319 330.423 422.67 330.551C423.025 330.675 423.414 330.738 423.837 330.738C424.302 330.738 424.716 330.665 425.078 330.519C425.444 330.37 425.731 330.164 425.941 329.901C426.15 329.635 426.255 329.324 426.255 328.969C426.255 328.646 426.163 328.381 425.978 328.175C425.797 327.969 425.55 327.799 425.238 327.664C424.929 327.529 424.579 327.41 424.188 327.307L422.899 326.956C422.026 326.718 421.333 326.368 420.822 325.906C420.314 325.445 420.06 324.834 420.06 324.074C420.06 323.445 420.23 322.897 420.571 322.428C420.912 321.959 421.374 321.595 421.956 321.336C422.539 321.073 423.196 320.942 423.927 320.942C424.666 320.942 425.317 321.071 425.882 321.331C426.45 321.59 426.898 321.947 427.224 322.401C427.551 322.852 427.722 323.371 427.736 323.957H426.148ZM434.907 328.607V323.818H436.505V332H434.939V330.583H434.854C434.665 331.02 434.364 331.384 433.948 331.675C433.536 331.963 433.023 332.107 432.409 332.107C431.883 332.107 431.418 331.991 431.013 331.76C430.612 331.526 430.296 331.18 430.065 330.722C429.838 330.263 429.724 329.697 429.724 329.022V323.818H431.317V328.831C431.317 329.388 431.471 329.832 431.78 330.162C432.089 330.493 432.49 330.658 432.984 330.658C433.282 330.658 433.579 330.583 433.873 330.434C434.172 330.285 434.419 330.059 434.614 329.757C434.813 329.456 434.91 329.072 434.907 328.607ZM440.238 321.091V332H438.645V321.091H440.238ZM446.274 323.818V325.097H441.65V323.818H446.274ZM442.918 332V322.87C442.918 322.359 443.03 321.934 443.254 321.597C443.478 321.256 443.774 321.002 444.143 320.835C444.513 320.665 444.914 320.58 445.347 320.58C445.667 320.58 445.94 320.606 446.168 320.659C446.395 320.709 446.563 320.755 446.674 320.798L446.301 322.087C446.226 322.066 446.13 322.041 446.013 322.012C445.896 321.98 445.754 321.964 445.587 321.964C445.2 321.964 444.923 322.06 444.756 322.252C444.593 322.444 444.511 322.721 444.511 323.083V332H442.918ZM453.1 328.607V323.818H454.698V332H453.132V330.583H453.047C452.859 331.02 452.557 331.384 452.141 331.675C451.729 331.963 451.216 332.107 450.602 332.107C450.076 332.107 449.611 331.991 449.206 331.76C448.805 331.526 448.489 331.18 448.258 330.722C448.031 330.263 447.917 329.697 447.917 329.022V323.818H449.51V328.831C449.51 329.388 449.665 329.832 449.973 330.162C450.282 330.493 450.684 330.658 451.177 330.658C451.476 330.658 451.772 330.583 452.067 330.434C452.365 330.285 452.612 330.059 452.807 329.757C453.006 329.456 453.104 329.072 453.1 328.607ZM456.838 332V323.818H458.378V325.118H458.463C458.612 324.678 458.875 324.331 459.251 324.079C459.631 323.824 460.061 323.696 460.54 323.696C460.64 323.696 460.757 323.699 460.892 323.706C461.03 323.713 461.139 323.722 461.217 323.733V325.256C461.153 325.239 461.039 325.219 460.876 325.198C460.713 325.173 460.549 325.161 460.386 325.161C460.009 325.161 459.674 325.24 459.379 325.4C459.088 325.556 458.857 325.775 458.687 326.055C458.516 326.332 458.431 326.648 458.431 327.004V332H456.838Z" fill="black"/>
<path d="M382.357 243.818V262H381.788V244.422H381.682L377.776 247.014V246.339L381.575 243.818H382.357ZM393.603 262.249C392.833 262.249 392.12 262.074 391.463 261.725C390.806 261.376 390.232 260.852 389.741 260.153C389.255 259.449 388.877 258.564 388.604 257.499C388.338 256.434 388.205 255.188 388.205 253.761C388.205 252.536 388.291 251.323 388.462 250.121C388.64 248.914 388.936 247.816 389.35 246.828C389.764 245.839 390.333 245.049 391.055 244.457C391.777 243.866 392.685 243.57 393.78 243.57C394.68 243.57 395.464 243.774 396.133 244.182C396.802 244.585 397.331 245.147 397.722 245.869C398.112 246.585 398.337 247.417 398.397 248.364H397.828C397.74 247.115 397.34 246.1 396.63 245.319C395.926 244.531 394.976 244.138 393.78 244.138C392.123 244.138 390.874 244.987 390.034 246.686C389.193 248.378 388.773 250.82 388.773 254.01H388.844C389.039 253.406 389.368 252.871 389.829 252.403C390.297 251.93 390.85 251.56 391.49 251.293C392.129 251.021 392.798 250.885 393.496 250.885C394.449 250.885 395.319 251.134 396.106 251.631C396.899 252.128 397.532 252.806 398.006 253.664C398.479 254.522 398.716 255.49 398.716 256.567C398.716 257.573 398.5 258.508 398.068 259.372C397.642 260.236 397.044 260.932 396.275 261.458C395.511 261.985 394.621 262.249 393.603 262.249ZM393.603 261.68C394.478 261.68 395.257 261.45 395.937 260.988C396.624 260.526 397.163 259.908 397.553 259.132C397.95 258.357 398.148 257.502 398.148 256.567C398.148 255.608 397.938 254.744 397.518 253.974C397.103 253.199 396.541 252.587 395.831 252.137C395.127 251.681 394.336 251.453 393.46 251.453C392.768 251.453 392.126 251.598 391.534 251.888C390.942 252.172 390.436 252.566 390.016 253.069C389.602 253.566 389.306 254.137 389.128 254.782C388.951 255.427 388.927 256.105 389.057 256.815C389.258 257.881 389.572 258.774 389.998 259.496C390.43 260.219 390.951 260.763 391.561 261.13C392.176 261.497 392.857 261.68 393.603 261.68Z" fill="black"/>
<circle cx="282" cy="301" r="55" fill="url(#paint11_radial_311_677)"/>
<g filter="url(#filter6_n_311_677)">
<rect x="207" y="225" width="150" height="150" rx="15" fill="url(#paint12_linear_311_677)" fill-opacity="0.5"/>
<rect x="209.5" y="227.5" width="145" height="145" rx="12.5" stroke="#D2ECFF" stroke-width="5"/>
</g>
<path d="M269.109 317V284.273H283.236C285.665 284.273 287.79 284.752 289.612 285.711C291.434 286.67 292.85 288.017 293.863 289.754C294.875 291.49 295.381 293.52 295.381 295.842C295.381 298.186 294.859 300.216 293.815 301.931C292.781 303.646 291.327 304.967 289.452 305.894C287.588 306.821 285.409 307.284 282.916 307.284H274.479V300.381H281.126C282.17 300.381 283.06 300.2 283.795 299.837C284.541 299.464 285.111 298.937 285.505 298.255C285.91 297.574 286.112 296.769 286.112 295.842C286.112 294.905 285.91 294.106 285.505 293.445C285.111 292.774 284.541 292.263 283.795 291.911C283.06 291.549 282.17 291.368 281.126 291.368H277.994V317H269.109Z" fill="black"/>
<path d="M235.199 333V322.091H239.087C239.936 322.091 240.639 322.245 241.196 322.554C241.754 322.863 242.171 323.286 242.448 323.822C242.725 324.355 242.864 324.955 242.864 325.623C242.864 326.294 242.723 326.897 242.443 327.434C242.166 327.966 241.747 328.389 241.186 328.701C240.628 329.01 239.927 329.165 239.082 329.165H236.408V327.769H238.933C239.469 327.769 239.904 327.677 240.238 327.492C240.571 327.304 240.816 327.048 240.973 326.725C241.129 326.402 241.207 326.034 241.207 325.623C241.207 325.211 241.129 324.845 240.973 324.525C240.816 324.206 240.57 323.955 240.232 323.774C239.898 323.593 239.458 323.502 238.911 323.502H236.844V333H235.199ZM246.258 328.142V333H244.665V322.091H246.237V326.15H246.338C246.53 325.71 246.823 325.36 247.217 325.1C247.611 324.841 248.126 324.712 248.762 324.712C249.323 324.712 249.813 324.827 250.232 325.058C250.654 325.289 250.981 325.633 251.212 326.091C251.446 326.546 251.563 327.114 251.563 327.796V333H249.971V327.988C249.971 327.387 249.816 326.922 249.507 326.592C249.198 326.258 248.769 326.091 248.218 326.091C247.842 326.091 247.505 326.171 247.206 326.331C246.911 326.491 246.679 326.725 246.508 327.034C246.342 327.339 246.258 327.709 246.258 328.142ZM257.135 333.165C256.368 333.165 255.699 332.989 255.127 332.638C254.555 332.286 254.111 331.794 253.795 331.162C253.479 330.53 253.321 329.792 253.321 328.946C253.321 328.098 253.479 327.355 253.795 326.72C254.111 326.084 254.555 325.591 255.127 325.239C255.699 324.887 256.368 324.712 257.135 324.712C257.902 324.712 258.572 324.887 259.143 325.239C259.715 325.591 260.159 326.084 260.475 326.72C260.791 327.355 260.949 328.098 260.949 328.946C260.949 329.792 260.791 330.53 260.475 331.162C260.159 331.794 259.715 332.286 259.143 332.638C258.572 332.989 257.902 333.165 257.135 333.165ZM257.141 331.828C257.638 331.828 258.05 331.697 258.376 331.434C258.703 331.171 258.945 330.821 259.101 330.385C259.261 329.948 259.34 329.467 259.34 328.941C259.34 328.419 259.261 327.94 259.101 327.503C258.945 327.062 258.703 326.709 258.376 326.443C258.05 326.176 257.638 326.043 257.141 326.043C256.64 326.043 256.224 326.176 255.894 326.443C255.567 326.709 255.324 327.062 255.164 327.503C255.008 327.94 254.93 328.419 254.93 328.941C254.93 329.467 255.008 329.948 255.164 330.385C255.324 330.821 255.567 331.171 255.894 331.434C256.224 331.697 256.64 331.828 257.141 331.828ZM268.858 326.816L267.414 327.071C267.354 326.887 267.258 326.711 267.127 326.544C266.999 326.377 266.825 326.24 266.605 326.134C266.385 326.027 266.109 325.974 265.779 325.974C265.328 325.974 264.952 326.075 264.65 326.278C264.348 326.477 264.197 326.734 264.197 327.05C264.197 327.324 264.298 327.544 264.501 327.711C264.703 327.877 265.03 328.014 265.481 328.121L266.781 328.419C267.533 328.593 268.094 328.861 268.464 329.223C268.833 329.586 269.018 330.056 269.018 330.635C269.018 331.125 268.876 331.562 268.592 331.945C268.311 332.325 267.919 332.624 267.414 332.84C266.914 333.057 266.333 333.165 265.673 333.165C264.756 333.165 264.009 332.97 263.43 332.579C262.851 332.185 262.496 331.626 262.365 330.901L263.904 330.667C264 331.068 264.197 331.372 264.495 331.578C264.794 331.78 265.183 331.881 265.662 331.881C266.184 331.881 266.601 331.773 266.914 331.556C267.226 331.336 267.382 331.068 267.382 330.752C267.382 330.496 267.287 330.282 267.095 330.108C266.907 329.934 266.617 329.802 266.227 329.713L264.842 329.41C264.078 329.236 263.513 328.959 263.148 328.579C262.786 328.199 262.604 327.718 262.604 327.135C262.604 326.652 262.739 326.23 263.009 325.868C263.279 325.505 263.652 325.223 264.128 325.021C264.604 324.815 265.149 324.712 265.763 324.712C266.647 324.712 267.343 324.903 267.851 325.287C268.359 325.667 268.695 326.176 268.858 326.816ZM270.769 336.068V324.818H272.324V326.145H272.457C272.55 325.974 272.683 325.777 272.857 325.553C273.031 325.33 273.272 325.134 273.581 324.967C273.89 324.797 274.299 324.712 274.807 324.712C275.467 324.712 276.057 324.879 276.575 325.212C277.093 325.546 277.5 326.027 277.795 326.656C278.093 327.284 278.242 328.041 278.242 328.925C278.242 329.809 278.095 330.567 277.8 331.2C277.505 331.828 277.101 332.313 276.586 332.654C276.071 332.991 275.483 333.16 274.823 333.16C274.325 333.16 273.919 333.076 273.603 332.909C273.29 332.743 273.045 332.547 272.868 332.324C272.69 332.1 272.553 331.901 272.457 331.727H272.362V336.068H270.769ZM272.33 328.909C272.33 329.484 272.413 329.989 272.58 330.422C272.747 330.855 272.988 331.194 273.304 331.439C273.62 331.681 274.008 331.801 274.466 331.801C274.941 331.801 275.339 331.675 275.659 331.423C275.978 331.168 276.22 330.821 276.383 330.385C276.55 329.948 276.634 329.456 276.634 328.909C276.634 328.369 276.552 327.885 276.389 327.455C276.229 327.025 275.987 326.686 275.664 326.438C275.345 326.189 274.945 326.065 274.466 326.065C274.004 326.065 273.613 326.184 273.294 326.422C272.978 326.659 272.738 326.991 272.575 327.418C272.411 327.844 272.33 328.341 272.33 328.909ZM281.619 328.142V333H280.027V322.091H281.598V326.15H281.699C281.891 325.71 282.184 325.36 282.578 325.1C282.972 324.841 283.487 324.712 284.123 324.712C284.684 324.712 285.174 324.827 285.593 325.058C286.016 325.289 286.342 325.633 286.573 326.091C286.808 326.546 286.925 327.114 286.925 327.796V333H285.332V327.988C285.332 327.387 285.178 326.922 284.869 326.592C284.56 326.258 284.13 326.091 283.58 326.091C283.203 326.091 282.866 326.171 282.568 326.331C282.273 326.491 282.04 326.725 281.87 327.034C281.703 327.339 281.619 327.709 281.619 328.142ZM292.497 333.165C291.729 333.165 291.06 332.989 290.488 332.638C289.917 332.286 289.473 331.794 289.157 331.162C288.841 330.53 288.683 329.792 288.683 328.946C288.683 328.098 288.841 327.355 289.157 326.72C289.473 326.084 289.917 325.591 290.488 325.239C291.06 324.887 291.729 324.712 292.497 324.712C293.264 324.712 293.933 324.887 294.505 325.239C295.076 325.591 295.52 326.084 295.836 326.72C296.152 327.355 296.31 328.098 296.31 328.946C296.31 329.792 296.152 330.53 295.836 331.162C295.52 331.794 295.076 332.286 294.505 332.638C293.933 332.989 293.264 333.165 292.497 333.165ZM292.502 331.828C292.999 331.828 293.411 331.697 293.738 331.434C294.064 331.171 294.306 330.821 294.462 330.385C294.622 329.948 294.702 329.467 294.702 328.941C294.702 328.419 294.622 327.94 294.462 327.503C294.306 327.062 294.064 326.709 293.738 326.443C293.411 326.176 292.999 326.043 292.502 326.043C292.001 326.043 291.586 326.176 291.255 326.443C290.929 326.709 290.685 327.062 290.526 327.503C290.369 327.94 290.291 328.419 290.291 328.941C290.291 329.467 290.369 329.948 290.526 330.385C290.685 330.821 290.929 331.171 291.255 331.434C291.586 331.697 292.001 331.828 292.502 331.828ZM298.088 333V324.818H299.628V326.118H299.713C299.862 325.678 300.125 325.331 300.501 325.079C300.881 324.824 301.311 324.696 301.79 324.696C301.89 324.696 302.007 324.699 302.142 324.706C302.28 324.713 302.389 324.722 302.467 324.733V326.256C302.403 326.239 302.289 326.219 302.126 326.198C301.963 326.173 301.799 326.161 301.636 326.161C301.259 326.161 300.924 326.24 300.629 326.4C300.338 326.556 300.107 326.775 299.937 327.055C299.766 327.332 299.681 327.648 299.681 328.004V333H298.088ZM306.998 333.165C306.231 333.165 305.562 332.989 304.99 332.638C304.419 332.286 303.975 331.794 303.659 331.162C303.343 330.53 303.185 329.792 303.185 328.946C303.185 328.098 303.343 327.355 303.659 326.72C303.975 326.084 304.419 325.591 304.99 325.239C305.562 324.887 306.231 324.712 306.998 324.712C307.766 324.712 308.435 324.887 309.007 325.239C309.578 325.591 310.022 326.084 310.338 326.72C310.654 327.355 310.812 328.098 310.812 328.946C310.812 329.792 310.654 330.53 310.338 331.162C310.022 331.794 309.578 332.286 309.007 332.638C308.435 332.989 307.766 333.165 306.998 333.165ZM307.004 331.828C307.501 331.828 307.913 331.697 308.24 331.434C308.566 331.171 308.808 330.821 308.964 330.385C309.124 329.948 309.204 329.467 309.204 328.941C309.204 328.419 309.124 327.94 308.964 327.503C308.808 327.062 308.566 326.709 308.24 326.443C307.913 326.176 307.501 326.043 307.004 326.043C306.503 326.043 306.088 326.176 305.757 326.443C305.431 326.709 305.187 327.062 305.028 327.503C304.871 327.94 304.793 328.419 304.793 328.941C304.793 329.467 304.871 329.948 305.028 330.385C305.187 330.821 305.431 331.171 305.757 331.434C306.088 331.697 306.503 331.828 307.004 331.828ZM317.773 329.607V324.818H319.371V333H317.805V331.583H317.72C317.532 332.02 317.23 332.384 316.814 332.675C316.402 332.963 315.889 333.107 315.275 333.107C314.749 333.107 314.284 332.991 313.879 332.76C313.478 332.526 313.162 332.18 312.931 331.722C312.704 331.263 312.59 330.697 312.59 330.022V324.818H314.183V329.831C314.183 330.388 314.337 330.832 314.646 331.162C314.955 331.493 315.357 331.658 315.85 331.658C316.148 331.658 316.445 331.583 316.74 331.434C317.038 331.285 317.285 331.059 317.48 330.757C317.679 330.456 317.777 330.072 317.773 329.607ZM327.642 326.816L326.199 327.071C326.138 326.887 326.042 326.711 325.911 326.544C325.783 326.377 325.609 326.24 325.389 326.134C325.169 326.027 324.894 325.974 324.563 325.974C324.112 325.974 323.736 326.075 323.434 326.278C323.132 326.477 322.981 326.734 322.981 327.05C322.981 327.324 323.082 327.544 323.285 327.711C323.487 327.877 323.814 328.014 324.265 328.121L325.565 328.419C326.318 328.593 326.879 328.861 327.248 329.223C327.617 329.586 327.802 330.056 327.802 330.635C327.802 331.125 327.66 331.562 327.376 331.945C327.095 332.325 326.703 332.624 326.199 332.84C325.698 333.057 325.117 333.165 324.457 333.165C323.541 333.165 322.793 332.97 322.214 332.579C321.635 332.185 321.28 331.626 321.149 330.901L322.688 330.667C322.784 331.068 322.981 331.372 323.28 331.578C323.578 331.78 323.967 331.881 324.446 331.881C324.968 331.881 325.385 331.773 325.698 331.556C326.01 331.336 326.167 331.068 326.167 330.752C326.167 330.496 326.071 330.282 325.879 330.108C325.691 329.934 325.401 329.802 325.011 329.713L323.626 329.41C322.862 329.236 322.298 328.959 321.932 328.579C321.57 328.199 321.389 327.718 321.389 327.135C321.389 326.652 321.524 326.23 321.793 325.868C322.063 325.505 322.436 325.223 322.912 325.021C323.388 324.815 323.933 324.712 324.547 324.712C325.432 324.712 326.128 324.903 326.635 325.287C327.143 325.667 327.479 326.176 327.642 326.816Z" fill="black"/>
<path d="M223.357 244.818V263H222.788V245.422H222.682L218.776 248.014V247.339L222.575 244.818H223.357ZM234.07 263.249C233.129 263.249 232.297 263.044 231.575 262.636C230.853 262.228 230.288 261.662 229.88 260.94C229.471 260.218 229.27 259.39 229.276 258.455H229.844C229.838 259.697 230.223 260.712 230.998 261.5C231.779 262.287 232.803 262.68 234.07 262.68C235.023 262.68 235.863 262.447 236.591 261.979C237.319 261.511 237.887 260.875 238.296 260.07C238.704 259.265 238.905 258.36 238.899 257.354C238.893 256.277 238.666 255.344 238.216 254.557C237.772 253.77 237.18 253.163 236.44 252.737C235.706 252.311 234.904 252.098 234.034 252.098C233.318 252.098 232.67 252.234 232.09 252.506C231.51 252.779 231.01 253.128 230.59 253.554L229.737 253.412L230.803 244.818H238.864V245.386H231.3L230.377 252.915H230.448C230.903 252.495 231.433 252.16 232.037 251.912C232.641 251.657 233.306 251.53 234.034 251.53C235.011 251.53 235.911 251.772 236.733 252.258C237.562 252.737 238.225 253.415 238.722 254.291C239.225 255.161 239.474 256.182 239.468 257.354C239.462 258.478 239.228 259.484 238.766 260.372C238.305 261.26 237.668 261.961 236.858 262.476C236.047 262.991 235.117 263.249 234.07 263.249Z" fill="black"/>
<g clip-path="url(#clip0_311_677)">
<path d="M639 8H553.698V93.3022H639V8Z" fill="#0077CC"/>
<path d="M600.995 19.9424C603.351 19.9424 605.261 21.852 605.261 24.2075V48.5644L620.432 75.1972C622.051 78.0405 619.998 81.5732 616.726 81.5732H576.735C573.463 81.5731 571.41 78.0404 573.029 75.1972L588.2 48.5644V24.2075C588.2 21.852 590.11 19.9425 592.465 19.9424H600.995Z" fill="#0077CC"/>
<path d="M605.261 48.5644H603.128V49.1292L603.408 49.6199L605.261 48.5644ZM588.2 48.5644L590.053 49.6199L590.333 49.1292V48.5644H588.2ZM600.995 19.9424V22.0749C602.173 22.0749 603.128 23.0297 603.128 24.2075H605.261H607.393C607.393 20.6742 604.529 17.8098 600.995 17.8098V19.9424ZM605.261 24.2075H603.128V48.5644H605.261H607.393V24.2075H605.261ZM605.261 48.5644L603.408 49.6199L618.579 76.2527L620.432 75.1972L622.285 74.1418L607.114 47.5089L605.261 48.5644ZM620.432 75.1972L618.579 76.2527C619.388 77.6744 618.362 79.4407 616.726 79.4407V81.5732V83.7058C621.634 83.7058 624.714 78.4067 622.285 74.1418L620.432 75.1972ZM616.726 81.5732V79.4407H576.735V81.5732L576.735 83.7058H616.726V81.5732ZM576.735 81.5732V79.4407C575.099 79.4406 574.073 77.6741 574.882 76.2526L573.029 75.1972L571.176 74.1417C568.747 78.4066 571.827 83.7055 576.735 83.7058L576.735 81.5732ZM573.029 75.1972L574.882 76.2526L590.053 49.6199L588.2 48.5644L586.347 47.5089L571.176 74.1417L573.029 75.1972ZM588.2 48.5644H590.333V24.2075H588.2H586.068V48.5644H588.2ZM588.2 24.2075H590.333C590.333 23.0298 591.287 22.0749 592.465 22.0749L592.465 19.9424V17.8098C588.932 17.8099 586.068 20.6741 586.068 24.2075H588.2ZM592.465 19.9424L592.465 22.0749H600.995V19.9424V17.8098H592.465V19.9424Z" fill="white"/>
<path d="M603.345 50.2251C603.487 50.2251 603.627 50.2338 603.766 50.2476L618.58 76.2531C619.389 77.6746 618.362 79.4409 616.726 79.4411H576.736C575.1 79.4408 574.073 77.6748 574.883 76.2531L589.709 50.2251H603.345Z" fill="white"/>
<mask id="mask0_311_677" style="mask-type:luminance" maskUnits="userSpaceOnUse" x="574" y="50" width="45" height="30">
<path d="M603.345 50.2251C603.487 50.2251 603.627 50.2338 603.766 50.2476L618.58 76.2531C619.389 77.6746 618.362 79.4409 616.726 79.4411H576.736C575.1 79.4408 574.073 77.6748 574.883 76.2531L589.709 50.2251H603.345Z" fill="white"/>
</mask>
<g mask="url(#mask0_311_677)">
<path d="M603.766 50.2476L605.99 48.9809L605.335 47.8312L604.018 47.7009L603.766 50.2476ZM589.709 50.2251V47.666H588.222L587.486 48.9584L589.709 50.2251ZM603.345 50.2251V52.7841C603.382 52.7841 603.436 52.7864 603.514 52.7942L603.766 50.2476L604.018 47.7009C603.818 47.6812 603.591 47.666 603.345 47.666V50.2251ZM603.766 50.2476L601.542 51.5143L616.356 77.5197L618.58 76.2531L620.804 74.9869L605.99 48.9809L603.766 50.2476ZM618.58 76.2531L616.356 77.5197C616.194 77.2347 616.4 76.882 616.726 76.882L616.726 79.4411V82.0002C620.325 81.9997 622.585 78.1147 620.804 74.9869L618.58 76.2531ZM616.726 79.4411L616.726 76.882H576.736V79.4411L576.736 82.0002H616.726V79.4411ZM576.736 79.4411V76.882C577.063 76.882 577.269 77.2353 577.107 77.5197L574.883 76.2531L572.66 74.9864C570.878 78.1143 573.137 81.9996 576.736 82.0002L576.736 79.4411ZM574.883 76.2531L577.107 77.5197L591.933 51.4917L589.709 50.2251L587.486 48.9584L572.66 74.9864L574.883 76.2531ZM589.709 50.2251V52.7841H603.345V50.2251V47.666H589.709V50.2251Z" fill="#0077CC"/>
</g>
</g>
<path d="M240.655 34V18.5175H235.045V14.805H250.803V18.5175H245.193V34H240.655ZM263.821 34V24.595C263.821 23.7883 263.619 23.1467 263.216 22.67C262.812 22.1933 262.281 21.955 261.621 21.955C260.869 21.955 260.172 22.2117 259.531 22.725C258.907 23.22 258.247 24.0817 257.551 25.31L256.946 21.7075C257.642 20.4975 258.486 19.645 259.476 19.15C260.466 18.6367 261.474 18.38 262.501 18.38C263.674 18.38 264.673 18.6275 265.498 19.1225C266.342 19.6175 266.983 20.3142 267.423 21.2125C267.882 22.0925 268.111 23.1283 268.111 24.32V34H263.821ZM253.618 34V13.6225H257.908V34H253.618ZM278.846 34.33C277.196 34.33 275.776 34.0092 274.584 33.3675C273.411 32.7258 272.503 31.8092 271.861 30.6175C271.22 29.4258 270.899 28.005 270.899 26.355C270.899 24.6867 271.22 23.2567 271.861 22.065C272.503 20.8733 273.429 19.9658 274.639 19.3425C275.867 18.7008 277.343 18.38 279.066 18.38C281.761 18.38 283.714 19.15 284.924 20.69C286.152 22.2117 286.666 24.3108 286.464 26.9875H274.309L274.336 24.045H282.091C282.036 23.3483 281.725 22.7892 281.156 22.3675C280.588 21.9275 279.882 21.7075 279.039 21.7075C277.719 21.7075 276.747 22.12 276.124 22.945C275.501 23.77 275.189 24.9708 275.189 26.5475C275.189 27.3358 275.326 28.06 275.601 28.72C275.876 29.38 276.28 29.9117 276.811 30.315C277.361 30.7 278.04 30.8925 278.846 30.8925C279.708 30.8925 280.432 30.6817 281.019 30.26C281.624 29.8383 281.991 29.3067 282.119 28.665H286.409C286.226 30.4067 285.456 31.7908 284.099 32.8175C282.761 33.8258 281.01 34.33 278.846 34.33ZM314.59 34.33C313.014 34.33 311.657 34.0367 310.52 33.45C309.402 32.845 308.54 32.0017 307.935 30.92C307.349 29.82 307.055 28.5275 307.055 27.0425H311.51C311.51 28.1975 311.758 29.0867 312.253 29.71C312.766 30.315 313.545 30.6175 314.59 30.6175C315.415 30.6175 316.066 30.4433 316.543 30.095C317.038 29.7283 317.285 29.215 317.285 28.555C317.285 28.06 317.102 27.675 316.735 27.4C316.387 27.1067 315.91 26.8683 315.305 26.685C314.719 26.4833 314.068 26.3 313.353 26.135C312.656 25.9517 311.95 25.7317 311.235 25.475C310.539 25.2183 309.888 24.8792 309.283 24.4575C308.696 24.0358 308.22 23.4858 307.853 22.8075C307.505 22.1292 307.33 21.2675 307.33 20.2225C307.33 19.1408 307.624 18.1692 308.21 17.3075C308.815 16.4458 309.65 15.7583 310.713 15.245C311.776 14.7317 313.023 14.475 314.453 14.475C315.755 14.475 316.965 14.7317 318.083 15.245C319.201 15.74 320.109 16.4642 320.805 17.4175C321.502 18.3708 321.869 19.5442 321.905 20.9375H317.368C317.331 20.3142 317.166 19.8008 316.873 19.3975C316.598 18.9942 316.24 18.6917 315.8 18.49C315.379 18.2883 314.93 18.1875 314.453 18.1875C313.775 18.1875 313.197 18.3525 312.72 18.6825C312.244 18.9942 312.005 19.4617 312.005 20.085C312.005 20.5617 312.18 20.9375 312.528 21.2125C312.895 21.4875 313.371 21.7167 313.958 21.9C314.563 22.065 315.214 22.23 315.91 22.395C316.625 22.56 317.331 22.7708 318.028 23.0275C318.743 23.2658 319.394 23.605 319.98 24.045C320.585 24.485 321.062 25.0717 321.41 25.805C321.777 26.52 321.96 27.4367 321.96 28.555C321.96 29.6733 321.64 30.6725 320.998 31.5525C320.375 32.4142 319.504 33.0925 318.385 33.5875C317.285 34.0825 316.02 34.33 314.59 34.33ZM332.586 34.33C330.973 34.33 329.58 34.0092 328.406 33.3675C327.251 32.7258 326.362 31.8092 325.739 30.6175C325.134 29.4258 324.831 28.005 324.831 26.355C324.831 24.6683 325.152 23.2292 325.794 22.0375C326.454 20.8458 327.37 19.9383 328.544 19.315C329.717 18.6917 331.101 18.38 332.696 18.38C334.09 18.38 335.318 18.6275 336.381 19.1225C337.463 19.6175 338.315 20.3142 338.939 21.2125C339.58 22.0925 339.929 23.1467 339.984 24.375H335.694C335.547 23.5317 335.217 22.9083 334.704 22.505C334.209 22.0833 333.54 21.8725 332.696 21.8725C332 21.8725 331.376 22.0467 330.826 22.395C330.295 22.7433 329.873 23.2475 329.561 23.9075C329.268 24.5675 329.121 25.3833 329.121 26.355C329.121 27.8033 329.451 28.9217 330.111 29.71C330.79 30.4983 331.615 30.8925 332.586 30.8925C333.155 30.8925 333.65 30.7917 334.071 30.59C334.511 30.3883 334.878 30.1042 335.171 29.7375C335.465 29.3525 335.666 28.9217 335.776 28.445H340.066C339.956 29.6367 339.571 30.6725 338.911 31.5525C338.251 32.4325 337.38 33.12 336.299 33.615C335.217 34.0917 333.98 34.33 332.586 34.33ZM348.107 34V18.71H352.397V34H348.107ZM343.157 34V30.535H357.402V34H343.157ZM345.082 22.175V18.71H350.252V22.175H345.082ZM347.942 16.675V12.66H352.507V16.675H347.942ZM368.275 34.33C366.625 34.33 365.204 34.0092 364.013 33.3675C362.839 32.7258 361.932 31.8092 361.29 30.6175C360.649 29.4258 360.328 28.005 360.328 26.355C360.328 24.6867 360.649 23.2567 361.29 22.065C361.932 20.8733 362.858 19.9658 364.068 19.3425C365.296 18.7008 366.772 18.38 368.495 18.38C371.19 18.38 373.143 19.15 374.353 20.69C375.581 22.2117 376.094 24.3108 375.893 26.9875H363.738L363.765 24.045H371.52C371.465 23.3483 371.154 22.7892 370.585 22.3675C370.017 21.9275 369.311 21.7075 368.468 21.7075C367.148 21.7075 366.176 22.12 365.553 22.945C364.929 23.77 364.618 24.9708 364.618 26.5475C364.618 27.3358 364.755 28.06 365.03 28.72C365.305 29.38 365.709 29.9117 366.24 30.315C366.79 30.7 367.469 30.8925 368.275 30.8925C369.137 30.8925 369.861 30.6817 370.448 30.26C371.053 29.8383 371.419 29.3067 371.548 28.665H375.838C375.654 30.4067 374.884 31.7908 373.528 32.8175C372.189 33.8258 370.439 34.33 368.275 34.33ZM389.021 34V24.5675C389.021 23.7792 388.819 23.1467 388.416 22.67C388.013 22.1933 387.481 21.955 386.821 21.955C386.069 21.955 385.373 22.2117 384.731 22.725C384.108 23.22 383.448 24.0817 382.751 25.31L382.146 21.68C382.843 20.4883 383.686 19.645 384.676 19.15C385.666 18.6367 386.674 18.38 387.701 18.38C388.874 18.38 389.873 18.6275 390.698 19.1225C391.542 19.6175 392.183 20.305 392.623 21.185C393.082 22.065 393.311 23.1008 393.311 24.2925V34H389.021ZM378.818 34V18.71H382.971L383.108 21.4325V34H378.818ZM404.129 34.33C402.516 34.33 401.123 34.0092 399.949 33.3675C398.794 32.7258 397.905 31.8092 397.282 30.6175C396.677 29.4258 396.374 28.005 396.374 26.355C396.374 24.6683 396.695 23.2292 397.337 22.0375C397.997 20.8458 398.913 19.9383 400.087 19.315C401.26 18.6917 402.644 18.38 404.239 18.38C405.633 18.38 406.861 18.6275 407.924 19.1225C409.006 19.6175 409.858 20.3142 410.482 21.2125C411.123 22.0925 411.472 23.1467 411.527 24.375H407.237C407.09 23.5317 406.76 22.9083 406.247 22.505C405.752 22.0833 405.083 21.8725 404.239 21.8725C403.543 21.8725 402.919 22.0467 402.369 22.395C401.838 22.7433 401.416 23.2475 401.104 23.9075C400.811 24.5675 400.664 25.3833 400.664 26.355C400.664 27.8033 400.994 28.9217 401.654 29.71C402.333 30.4983 403.158 30.8925 404.129 30.8925C404.698 30.8925 405.193 30.7917 405.614 30.59C406.054 30.3883 406.421 30.1042 406.714 29.7375C407.008 29.3525 407.209 28.9217 407.319 28.445H411.609C411.499 29.6367 411.114 30.6725 410.454 31.5525C409.794 32.4325 408.923 33.12 407.842 33.615C406.76 34.0917 405.523 34.33 404.129 34.33ZM421.932 34.33C420.282 34.33 418.862 34.0092 417.67 33.3675C416.497 32.7258 415.589 31.8092 414.947 30.6175C414.306 29.4258 413.985 28.005 413.985 26.355C413.985 24.6867 414.306 23.2567 414.947 22.065C415.589 20.8733 416.515 19.9658 417.725 19.3425C418.953 18.7008 420.429 18.38 422.152 18.38C424.847 18.38 426.8 19.15 428.01 20.69C429.238 22.2117 429.752 24.3108 429.55 26.9875H417.395L417.422 24.045H425.177C425.122 23.3483 424.811 22.7892 424.242 22.3675C423.674 21.9275 422.968 21.7075 422.125 21.7075C420.805 21.7075 419.833 22.12 419.21 22.945C418.587 23.77 418.275 24.9708 418.275 26.5475C418.275 27.3358 418.412 28.06 418.687 28.72C418.962 29.38 419.366 29.9117 419.897 30.315C420.447 30.7 421.126 30.8925 421.932 30.8925C422.794 30.8925 423.518 30.6817 424.105 30.26C424.71 29.8383 425.077 29.3067 425.205 28.665H429.495C429.312 30.4067 428.542 31.7908 427.185 32.8175C425.847 33.8258 424.096 34.33 421.932 34.33ZM453.524 27.9775V24.265H457.896C458.776 24.265 459.482 23.9992 460.014 23.4675C460.546 22.9175 460.811 22.2025 460.811 21.3225C460.811 20.4792 460.546 19.8008 460.014 19.2875C459.482 18.7742 458.776 18.5175 457.896 18.5175H453.524V14.805H457.924C459.446 14.805 460.775 15.0708 461.911 15.6025C463.048 16.1342 463.928 16.895 464.551 17.885C465.175 18.8567 465.486 20.0025 465.486 21.3225C465.486 22.6608 465.175 23.8342 464.551 24.8425C463.928 25.8325 463.048 26.6025 461.911 27.1525C460.793 27.7025 459.464 27.9775 457.924 27.9775H453.524ZM450.279 34V14.805H454.816V34H450.279ZM478.725 26.355V24.2925C478.725 23.5958 478.541 23.0367 478.175 22.615C477.808 22.175 477.258 21.955 476.525 21.955C475.7 21.955 474.92 22.23 474.187 22.78C473.454 23.33 472.757 24.2833 472.097 25.64L471.657 22.0375C472.134 21.2308 472.656 20.5617 473.225 20.03C473.793 19.48 474.416 19.0675 475.095 18.7925C475.791 18.5175 476.552 18.38 477.377 18.38C479.009 18.38 480.356 18.8842 481.42 19.8925C482.483 20.8825 483.015 22.3492 483.015 24.2925V26.355H478.725ZM468.522 34V18.71H472.647L472.812 21.46V34H468.522ZM493.475 34.33C491.825 34.33 490.405 34.0092 489.213 33.3675C488.04 32.7258 487.132 31.8092 486.49 30.6175C485.849 29.4258 485.528 28.005 485.528 26.355C485.528 24.6867 485.849 23.2567 486.49 22.065C487.132 20.8733 488.058 19.9658 489.268 19.3425C490.496 18.7008 491.972 18.38 493.695 18.38C496.39 18.38 498.343 19.15 499.553 20.69C500.781 22.2117 501.295 24.3108 501.093 26.9875H488.938L488.965 24.045H496.72C496.665 23.3483 496.354 22.7892 495.785 22.3675C495.217 21.9275 494.511 21.7075 493.668 21.7075C492.348 21.7075 491.376 22.12 490.753 22.945C490.13 23.77 489.818 24.9708 489.818 26.5475C489.818 27.3358 489.955 28.06 490.23 28.72C490.505 29.38 490.909 29.9117 491.44 30.315C491.99 30.7 492.669 30.8925 493.475 30.8925C494.337 30.8925 495.061 30.6817 495.648 30.26C496.253 29.8383 496.62 29.3067 496.748 28.665H501.038C500.855 30.4067 500.085 31.7908 498.728 32.8175C497.39 33.8258 495.639 34.33 493.475 34.33ZM511.609 34.33C510.179 34.33 508.923 34.1008 507.841 33.6425C506.759 33.1658 505.916 32.4967 505.311 31.635C504.724 30.755 504.422 29.7192 504.404 28.5275H508.391C508.354 29.3708 508.62 30.0308 509.189 30.5075C509.775 30.9842 510.573 31.2225 511.581 31.2225C512.314 31.2225 512.901 31.1033 513.341 30.865C513.799 30.6083 514.029 30.26 514.029 29.82C514.029 29.435 513.854 29.1325 513.506 28.9125C513.176 28.6742 512.736 28.4908 512.186 28.3625C511.636 28.2158 511.031 28.0783 510.371 27.95C509.711 27.8033 509.042 27.6292 508.364 27.4275C507.704 27.2258 507.099 26.96 506.549 26.63C505.999 26.2817 505.549 25.8325 505.201 25.2825C504.871 24.7142 504.706 24.0083 504.706 23.165C504.706 22.1933 504.981 21.35 505.531 20.635C506.081 19.92 506.842 19.37 507.814 18.985C508.804 18.5817 509.94 18.38 511.224 18.38C513.185 18.38 514.771 18.8383 515.981 19.755C517.209 20.6533 517.888 21.9183 518.016 23.55H514.056C514.019 22.8717 513.744 22.3583 513.231 22.01C512.718 21.6617 512.058 21.4875 511.251 21.4875C510.573 21.4875 510.032 21.6067 509.629 21.845C509.225 22.0833 509.024 22.4408 509.024 22.9175C509.024 23.3025 509.189 23.605 509.519 23.825C509.867 24.0267 510.316 24.1917 510.866 24.32C511.416 24.4483 512.021 24.5675 512.681 24.6775C513.359 24.7875 514.029 24.9433 514.689 25.145C515.349 25.3283 515.954 25.585 516.504 25.915C517.054 26.245 517.494 26.685 517.824 27.235C518.172 27.785 518.346 28.4908 518.346 29.3525C518.346 30.9108 517.732 32.13 516.504 33.01C515.294 33.89 513.662 34.33 511.609 34.33ZM529.494 34.33C528.064 34.33 526.809 34.1008 525.727 33.6425C524.645 33.1658 523.802 32.4967 523.197 31.635C522.61 30.755 522.308 29.7192 522.289 28.5275H526.277C526.24 29.3708 526.506 30.0308 527.074 30.5075C527.661 30.9842 528.459 31.2225 529.467 31.2225C530.2 31.2225 530.787 31.1033 531.227 30.865C531.685 30.6083 531.914 30.26 531.914 29.82C531.914 29.435 531.74 29.1325 531.392 28.9125C531.062 28.6742 530.622 28.4908 530.072 28.3625C529.522 28.2158 528.917 28.0783 528.257 27.95C527.597 27.8033 526.928 27.6292 526.249 27.4275C525.589 27.2258 524.984 26.96 524.434 26.63C523.884 26.2817 523.435 25.8325 523.087 25.2825C522.757 24.7142 522.592 24.0083 522.592 23.165C522.592 22.1933 522.867 21.35 523.417 20.635C523.967 19.92 524.728 19.37 525.699 18.985C526.689 18.5817 527.826 18.38 529.109 18.38C531.071 18.38 532.657 18.8383 533.867 19.755C535.095 20.6533 535.774 21.9183 535.902 23.55H531.942C531.905 22.8717 531.63 22.3583 531.117 22.01C530.604 21.6617 529.944 21.4875 529.137 21.4875C528.459 21.4875 527.918 21.6067 527.514 21.845C527.111 22.0833 526.909 22.4408 526.909 22.9175C526.909 23.3025 527.074 23.605 527.404 23.825C527.753 24.0267 528.202 24.1917 528.752 24.32C529.302 24.4483 529.907 24.5675 530.567 24.6775C531.245 24.7875 531.914 24.9433 532.574 25.145C533.234 25.3283 533.839 25.585 534.389 25.915C534.939 26.245 535.379 26.685 535.709 27.235C536.058 27.785 536.232 28.4908 536.232 29.3525C536.232 30.9108 535.618 32.13 534.389 33.01C533.179 33.89 531.548 34.33 529.494 34.33Z" fill="#0077CC"/>
<defs>
<filter id="filter0_n_311_677" x="0" y="0" width="646" height="411" filterUnits="userSpaceOnUse" color-interpolation-filters="sRGB">
<feFlood flood-opacity="0" result="BackgroundImageFix"/>
<feBlend mode="normal" in="SourceGraphic" in2="BackgroundImageFix" result="shape"/>
<feTurbulence type="fractalNoise" baseFrequency="0.0099999997764825821 0.0099999997764825821" stitchTiles="stitch" numOctaves="3" result="noise" seed="7898" />
<feColorMatrix in="noise" type="luminanceToAlpha" result="alphaNoise" />
<feComponentTransfer in="alphaNoise" result="coloredNoise1">
<feFuncA type="discrete" tableValues="0 0 0 0 0 0 0 0 0 0 1 1 1 1 1 1 1 1 1 1 1 1 1 1 1 1 1 1 1 1 1 1 1 1 1 1 1 1 1 0 0 0 0 0 0 0 0 0 0 0 0 0 0 0 0 0 0 0 0 0 0 0 0 0 0 0 0 0 0 0 0 0 0 0 0 0 0 0 0 0 0 0 0 0 0 0 0 0 0 0 0 0 0 0 0 0 0 0 0 0 "/>
</feComponentTransfer>
<feComposite operator="in" in2="shape" in="coloredNoise1" result="noise1Clipped" />
<feFlood flood-color="#94B899" result="color1Flood" />
<feComposite operator="in" in2="noise1Clipped" in="color1Flood" result="color1" />
<feMerge result="effect1_noise_311_677">
<feMergeNode in="shape" />
<feMergeNode in="color1" />
</feMerge>
</filter>
<filter id="filter1_n_311_677" x="48" y="224" width="150" height="150" filterUnits="userSpaceOnUse" color-interpolation-filters="sRGB">
<feFlood flood-opacity="0" result="BackgroundImageFix"/>
<feBlend mode="normal" in="SourceGraphic" in2="BackgroundImageFix" result="shape"/>
<feTurbulence type="fractalNoise" baseFrequency="0.012836970388889313 0.012836970388889313" stitchTiles="stitch" numOctaves="3" result="noise" seed="3850" />
<feComponentTransfer in="noise" result="coloredNoise1">
<feFuncR type="linear" slope="2" intercept="-0.5" />
<feFuncG type="linear" slope="2" intercept="-0.5" />
<feFuncB type="linear" slope="2" intercept="-0.5" />
<feFuncA type="discrete" tableValues="1 1 1 1 1 1 1 1 1 1 1 1 1 1 1 1 1 1 1 1 1 1 1 1 1 1 1 1 1 1 1 1 1 1 1 1 1 1 1 1 1 1 1 1 1 1 1 1 1 1 1 0 0 0 0 0 0 0 0 0 0 0 0 0 0 0 0 0 0 0 0 0 0 0 0 0 0 0 0 0 0 0 0 0 0 0 0 0 0 0 0 0 0 0 0 0 0 0 0 0 "/>
</feComponentTransfer>
<feComposite operator="in" in2="shape" in="coloredNoise1" result="noise1Clipped" />
<feComponentTransfer in="noise1Clipped" result="color1">
<feFuncA type="table" tableValues="0 0.15" />
</feComponentTransfer>
<feMerge result="effect1_noise_311_677">
<feMergeNode in="shape" />
<feMergeNode in="color1" />
</feMerge>
</filter>
<filter id="filter2_n_311_677" x="48" y="65" width="150" height="150" filterUnits="userSpaceOnUse" color-interpolation-filters="sRGB">
<feFlood flood-opacity="0" result="BackgroundImageFix"/>
<feBlend mode="normal" in="SourceGraphic" in2="BackgroundImageFix" result="shape"/>
<feTurbulence type="fractalNoise" baseFrequency="0.0099999997764825821 0.0099999997764825821" stitchTiles="stitch" numOctaves="3" result="noise" seed="3850" />
<feComponentTransfer in="noise" result="coloredNoise1">
<feFuncR type="linear" slope="2" intercept="-0.5" />
<feFuncG type="linear" slope="2" intercept="-0.5" />
<feFuncB type="linear" slope="2" intercept="-0.5" />
<feFuncA type="discrete" tableValues="0 0 0 0 0 0 0 0 0 0 0 0 0 0 1 1 1 1 1 1 1 1 1 1 1 1 1 1 1 1 1 1 1 1 1 0 0 0 0 0 0 0 0 0 0 0 0 0 0 0 0 0 0 0 0 0 0 0 0 0 0 0 0 0 0 0 0 0 0 0 0 0 0 0 0 0 0 0 0 0 0 0 0 0 0 0 0 0 0 0 0 0 0 0 0 0 0 0 0 0 "/>
</feComponentTransfer>
<feComposite operator="in" in2="shape" in="coloredNoise1" result="noise1Clipped" />
<feComponentTransfer in="noise1Clipped" result="color1">
<feFuncA type="table" tableValues="0 0.15" />
</feComponentTransfer>
<feMerge result="effect1_noise_311_677">
<feMergeNode in="shape" />
<feMergeNode in="color1" />
</feMerge>
</filter>
<filter id="filter3_n_311_677" x="207" y="65" width="150" height="150" filterUnits="userSpaceOnUse" color-interpolation-filters="sRGB">
<feFlood flood-opacity="0" result="BackgroundImageFix"/>
<feBlend mode="normal" in="SourceGraphic" in2="BackgroundImageFix" result="shape"/>
<feTurbulence type="fractalNoise" baseFrequency="0.019342359155416489 0.019342359155416489" stitchTiles="stitch" numOctaves="3" result="noise" seed="3850" />
<feComponentTransfer in="noise" result="coloredNoise1">
<feFuncR type="linear" slope="2" intercept="-0.5" />
<feFuncG type="linear" slope="2" intercept="-0.5" />
<feFuncB type="linear" slope="2" intercept="-0.5" />
<feFuncA type="discrete" tableValues="0 0 1 1 1 1 1 1 1 1 1 1 1 1 1 1 1 1 1 1 1 1 1 1 1 1 1 1 1 1 1 1 1 1 1 1 1 1 1 1 1 1 1 1 1 1 1 1 0 0 0 0 0 0 0 0 0 0 0 0 0 0 0 0 0 0 0 0 0 0 0 0 0 0 0 0 0 0 0 0 0 0 0 0 0 0 0 0 0 0 0 0 0 0 0 0 0 0 0 0 "/>
</feComponentTransfer>
<feComposite operator="in" in2="shape" in="coloredNoise1" result="noise1Clipped" />
<feComponentTransfer in="noise1Clipped" result="color1">
<feFuncA type="table" tableValues="0 0.15" />
</feComponentTransfer>
<feMerge result="effect1_noise_311_677">
<feMergeNode in="shape" />
<feMergeNode in="color1" />
</feMerge>
</filter>
<filter id="filter4_n_311_677" x="366" y="65" width="150" height="150" filterUnits="userSpaceOnUse" color-interpolation-filters="sRGB">
<feFlood flood-opacity="0" result="BackgroundImageFix"/>
<feBlend mode="normal" in="SourceGraphic" in2="BackgroundImageFix" result="shape"/>
<feTurbulence type="fractalNoise" baseFrequency="0.0099999997764825821 0.0099999997764825821" stitchTiles="stitch" numOctaves="3" result="noise" seed="3850" />
<feComponentTransfer in="noise" result="coloredNoise1">
<feFuncR type="linear" slope="2" intercept="-0.5" />
<feFuncG type="linear" slope="2" intercept="-0.5" />
<feFuncB type="linear" slope="2" intercept="-0.5" />
<feFuncA type="discrete" tableValues="1 1 1 1 1 1 1 1 1 1 1 1 1 1 1 1 1 1 1 1 1 1 1 1 1 1 1 1 1 1 1 1 1 1 1 1 1 1 1 1 1 1 1 1 1 1 1 1 1 1 1 0 0 0 0 0 0 0 0 0 0 0 0 0 0 0 0 0 0 0 0 0 0 0 0 0 0 0 0 0 0 0 0 0 0 0 0 0 0 0 0 0 0 0 0 0 0 0 0 0 "/>
</feComponentTransfer>
<feComposite operator="in" in2="shape" in="coloredNoise1" result="noise1Clipped" />
<feComponentTransfer in="noise1Clipped" result="color1">
<feFuncA type="table" tableValues="0 0.15" />
</feComponentTransfer>
<feMerge result="effect1_noise_311_677">
<feMergeNode in="shape" />
<feMergeNode in="color1" />
</feMerge>
</filter>
<filter id="filter5_n_311_677" x="366" y="224" width="150" height="150" filterUnits="userSpaceOnUse" color-interpolation-filters="sRGB">
<feFlood flood-opacity="0" result="BackgroundImageFix"/>
<feBlend mode="normal" in="SourceGraphic" in2="BackgroundImageFix" result="shape"/>
<feTurbulence type="fractalNoise" baseFrequency="0.0099999997764825821 0.0099999997764825821" stitchTiles="stitch" numOctaves="3" result="noise" seed="3850" />
<feComponentTransfer in="noise" result="coloredNoise1">
<feFuncR type="linear" slope="2" intercept="-0.5" />
<feFuncG type="linear" slope="2" intercept="-0.5" />
<feFuncB type="linear" slope="2" intercept="-0.5" />
<feFuncA type="discrete" tableValues="1 1 1 1 1 1 1 1 1 1 1 1 1 1 1 1 1 1 1 1 1 1 1 1 1 1 1 1 1 1 1 1 1 1 1 1 1 1 1 1 1 1 1 1 1 1 1 1 1 1 1 0 0 0 0 0 0 0 0 0 0 0 0 0 0 0 0 0 0 0 0 0 0 0 0 0 0 0 0 0 0 0 0 0 0 0 0 0 0 0 0 0 0 0 0 0 0 0 0 0 "/>
</feComponentTransfer>
<feComposite operator="in" in2="shape" in="coloredNoise1" result="noise1Clipped" />
<feComponentTransfer in="noise1Clipped" result="color1">
<feFuncA type="table" tableValues="0 0.15" />
</feComponentTransfer>
<feMerge result="effect1_noise_311_677">
<feMergeNode in="shape" />
<feMergeNode in="color1" />
</feMerge>
</filter>
<filter id="filter6_n_311_677" x="207" y="225" width="150" height="150" filterUnits="userSpaceOnUse" color-interpolation-filters="sRGB">
<feFlood flood-opacity="0" result="BackgroundImageFix"/>
<feBlend mode="normal" in="SourceGraphic" in2="BackgroundImageFix" result="shape"/>
<feTurbulence type="fractalNoise" baseFrequency="0.0099999997764825821 0.0099999997764825821" stitchTiles="stitch" numOctaves="3" result="noise" seed="3850" />
<feComponentTransfer in="noise" result="coloredNoise1">
<feFuncR type="linear" slope="2" intercept="-0.5" />
<feFuncG type="linear" slope="2" intercept="-0.5" />
<feFuncB type="linear" slope="2" intercept="-0.5" />
<feFuncA type="discrete" tableValues="1 1 1 1 1 1 1 1 1 1 1 1 1 1 1 1 1 1 1 1 1 1 1 1 1 1 1 1 1 1 1 1 1 1 1 1 1 1 1 1 1 1 1 1 1 1 1 1 1 1 1 0 0 0 0 0 0 0 0 0 0 0 0 0 0 0 0 0 0 0 0 0 0 0 0 0 0 0 0 0 0 0 0 0 0 0 0 0 0 0 0 0 0 0 0 0 0 0 0 0 "/>
</feComponentTransfer>
<feComposite operator="in" in2="shape" in="coloredNoise1" result="noise1Clipped" />
<feComponentTransfer in="noise1Clipped" result="color1">
<feFuncA type="table" tableValues="0 0.15" />
</feComponentTransfer>
<feMerge result="effect1_noise_311_677">
<feMergeNode in="shape" />
<feMergeNode in="color1" />
</feMerge>
</filter>
<linearGradient id="paint0_linear_311_677" x1="323" y1="0" x2="323" y2="411" gradientUnits="userSpaceOnUse">
<stop stop-color="#94B899"/>
<stop offset="1" stop-color="#8D9B7B"/>
</linearGradient>
<radialGradient id="paint1_radial_311_677" cx="0" cy="0" r="1" gradientUnits="userSpaceOnUse" gradientTransform="translate(140.5 282) rotate(136.081) scale(74.9667)">
<stop stop-color="#F1775F"/>
<stop offset="1" stop-color="#BD2915"/>
</radialGradient>
<linearGradient id="paint2_linear_311_677" x1="123" y1="224" x2="123" y2="374" gradientUnits="userSpaceOnUse">
<stop stop-color="#F9F8F8"/>
<stop offset="1" stop-color="#E6F4FF"/>
</linearGradient>
<radialGradient id="paint3_radial_311_677" cx="0" cy="0" r="1" gradientUnits="userSpaceOnUse" gradientTransform="translate(140.5 124) rotate(136.081) scale(74.9667)">
<stop stop-color="#6B6B6B"/>
<stop offset="1" stop-color="#1A1A1A"/>
</radialGradient>
<linearGradient id="paint4_linear_311_677" x1="123" y1="65" x2="123" y2="215" gradientUnits="userSpaceOnUse">
<stop stop-color="#F9F8F8"/>
<stop offset="1" stop-color="#E6F4FF"/>
</linearGradient>
<radialGradient id="paint5_radial_311_677" cx="0" cy="0" r="1" gradientUnits="userSpaceOnUse" gradientTransform="translate(290.75 132.5) rotate(136.081) scale(37.4833)">
<stop stop-color="white"/>
<stop offset="1" stop-color="#E0E0E0"/>
</radialGradient>
<linearGradient id="paint6_linear_311_677" x1="282" y1="65" x2="282" y2="215" gradientUnits="userSpaceOnUse">
<stop stop-color="#F9F8F8"/>
<stop offset="1" stop-color="#E6F4FF"/>
</linearGradient>
<radialGradient id="paint7_radial_311_677" cx="0" cy="0" r="1" gradientUnits="userSpaceOnUse" gradientTransform="translate(458.5 123) rotate(136.081) scale(74.9667)">
<stop stop-color="#5FB4F1"/>
<stop offset="1" stop-color="#0077CC"/>
</radialGradient>
<linearGradient id="paint8_linear_311_677" x1="441" y1="65" x2="441" y2="215" gradientUnits="userSpaceOnUse">
<stop stop-color="#F9F8F8"/>
<stop offset="1" stop-color="#E6F4FF"/>
</linearGradient>
<radialGradient id="paint9_radial_311_677" cx="0" cy="0" r="1" gradientUnits="userSpaceOnUse" gradientTransform="translate(460.25 281.3) rotate(136.081) scale(82.4633)">
<stop stop-color="#FFF5C2"/>
<stop offset="1" stop-color="#FFE666"/>
</radialGradient>
<linearGradient id="paint10_linear_311_677" x1="441" y1="224" x2="441" y2="374" gradientUnits="userSpaceOnUse">
<stop stop-color="#F9F8F8"/>
<stop offset="1" stop-color="#E6F4FF"/>
</linearGradient>
<radialGradient id="paint11_radial_311_677" cx="0" cy="0" r="1" gradientUnits="userSpaceOnUse" gradientTransform="translate(301.25 282.3) rotate(136.081) scale(82.4633)">
<stop stop-color="#F1D85F"/>
<stop offset="1" stop-color="#CCAA00"/>
</radialGradient>
<linearGradient id="paint12_linear_311_677" x1="282" y1="225" x2="282" y2="375" gradientUnits="userSpaceOnUse">
<stop stop-color="#F9F8F8"/>
<stop offset="1" stop-color="#E6F4FF"/>
</linearGradient>
<clipPath id="clip0_311_677">
<rect width="85.3022" height="85.3022" fill="white" transform="translate(553.698 8)"/>
</clipPath>
</defs>
</svg>
