<svg width="564" height="383" viewBox="0 0 564 383" fill="none" xmlns="http://www.w3.org/2000/svg">
<rect width="564" height="383" fill="url(#paint0_linear_278_525)"/>
<g opacity="0.25" filter="url(#filter0_f_278_525)">
<path d="M168.015 78.3252L224.277 112.379L258.33 91.6505L279.058 119.782L313.112 65H364.932L394.544 91.6505L379.738 153.835L436 190.85L388.621 257.476L329.398 319.66L267.214 303.374L218.354 257.476L162.092 213.058L131 153.835L145.806 84.2476L168.015 78.3252Z" fill="url(#paint1_linear_278_525)"/>
<path d="M267.214 303.374L218.354 257.476L190.223 235.267L162.092 213.058L135.664 162.718L141.364 161.238L145.806 164.199L151.728 168.641L162.092 167.16L170.976 161.238L181.34 159.757L190.223 164.199L196.146 171.602L187.262 183.447L179.859 201.214L185.782 217.5L188.743 229.345L190.223 235.267L218.354 257.476L267.214 303.374L329.398 319.66L388.621 257.476V247.112L394.544 235.267L403.427 221.942V210.097L400.466 205.655L394.544 210.097L379.738 205.655L375.296 195.291L379.738 183.447L382.699 176.044L379.738 153.835L436 190.85L388.621 257.476L329.398 319.66L267.214 303.374Z" fill="url(#paint2_linear_278_525)"/>
<path d="M267.214 190.85L279.058 183.447L284.981 171.602H301.267L313.112 161.238L308.67 176.044L316.073 190.85L313.112 213.058L301.267 229.345L287.942 244.15V261.917H279.058L274.617 247.112L258.33 239.709L239.083 229.345L233.16 217.5V201.214L250.927 198.252L267.214 190.85Z" fill="url(#paint3_linear_278_525)"/>
<path d="M162.092 213.058L131 153.835L141.364 161.238L150.248 180.485L162.092 195.291L170.976 186.408V171.602L190.223 161.238L209.471 149.393H231.68L242.044 161.238L221.316 180.485L194.665 190.85L206.51 202.694L216.874 204.175L212.432 217.5V229.345L216.874 245.631L221.316 251.553L228.718 261.917L242.044 273.762L246.485 270.801L253.888 273.762H258.33L270.175 276.723L277.578 261.917L287.942 253.034L292.383 257.476L289.422 264.879L299.786 270.801L302.748 282.646L299.786 294.49L295.345 298.932L304.228 307.816L314.592 313.738H326.437L332.359 309.296L338.282 298.932L348.646 291.529L353.087 284.126L363.451 276.723L370.854 269.32L381.218 260.437L388.621 255.995L394.544 249.147L388.621 257.476L329.398 319.66L267.214 303.374L218.354 257.476L162.092 213.058Z" fill="url(#paint4_linear_278_525)"/>
<path d="M341.243 79.8058H347.165L351.607 75.3641L360.49 72.4029L373.816 75.3641L381.218 84.2476L379.738 88.6893H375.296L364.932 90.1699L356.049 93.1311L350.126 103.495L345.684 113.859H336.801V107.937L327.917 106.456L323.476 104.976V97.5728L330.879 93.1311L336.801 88.6893L339.762 84.2476L341.243 79.8058Z" fill="url(#paint5_linear_278_525)"/>
</g>
<circle cx="123.5" cy="112.5" r="57.5" fill="url(#paint6_radial_278_525)"/>
<g filter="url(#filter1_n_278_525)">
<rect x="48" y="37" width="150" height="150" rx="15" fill="url(#paint7_linear_278_525)" fill-opacity="0.5"/>
<rect x="50.5" y="39.5" width="145" height="145" rx="12.5" stroke="#D2ECFF" stroke-width="5"/>
</g>
<path d="M124.663 108.545H115.651C115.587 107.8 115.416 107.123 115.139 106.516C114.873 105.909 114.5 105.387 114.021 104.95C113.552 104.502 112.982 104.162 112.311 103.927C111.64 103.682 110.878 103.56 110.026 103.56C108.534 103.56 107.272 103.922 106.238 104.646C105.216 105.371 104.438 106.409 103.905 107.762C103.383 109.115 103.122 110.74 103.122 112.636C103.122 114.639 103.388 116.317 103.921 117.67C104.464 119.012 105.248 120.025 106.27 120.706C107.293 121.377 108.523 121.713 109.962 121.713C110.782 121.713 111.517 121.612 112.167 121.409C112.817 121.196 113.381 120.893 113.861 120.499C114.34 120.104 114.729 119.63 115.027 119.076C115.336 118.512 115.544 117.878 115.651 117.175L124.663 117.239C124.557 118.624 124.168 120.035 123.497 121.473C122.826 122.901 121.872 124.222 120.636 125.436C119.411 126.64 117.893 127.61 116.082 128.345C114.271 129.08 112.167 129.447 109.77 129.447C106.766 129.447 104.07 128.803 101.684 127.514C99.3082 126.225 97.4279 124.328 96.043 121.825C94.6687 119.321 93.9815 116.259 93.9815 112.636C93.9815 108.993 94.6847 105.925 96.0909 103.432C97.4972 100.928 99.3935 99.0373 101.78 97.7589C104.166 96.4698 106.83 95.8253 109.77 95.8253C111.837 95.8253 113.738 96.1076 115.475 96.6722C117.211 97.2369 118.735 98.0625 120.045 99.1491C121.355 100.225 122.41 101.551 123.209 103.128C124.008 104.705 124.493 106.511 124.663 108.545ZM135.662 129.384C134.096 129.384 132.711 129.128 131.507 128.616C130.314 128.094 129.376 127.306 128.694 126.251C128.013 125.197 127.672 123.854 127.672 122.224C127.672 120.882 127.901 119.737 128.359 118.789C128.817 117.83 129.456 117.047 130.276 116.44C131.097 115.832 132.05 115.369 133.137 115.049C134.234 114.73 135.417 114.522 136.684 114.426C138.059 114.32 139.161 114.192 139.992 114.043C140.834 113.883 141.441 113.664 141.814 113.387C142.187 113.1 142.373 112.722 142.373 112.253V112.189C142.373 111.55 142.128 111.06 141.638 110.719C141.148 110.378 140.52 110.207 139.753 110.207C138.911 110.207 138.224 110.394 137.691 110.767C137.169 111.129 136.855 111.688 136.748 112.445H128.63C128.737 110.953 129.211 109.579 130.053 108.322C130.905 107.054 132.146 106.042 133.776 105.286C135.406 104.518 137.441 104.135 139.88 104.135C141.638 104.135 143.215 104.343 144.611 104.758C146.006 105.163 147.194 105.733 148.174 106.468C149.154 107.192 149.9 108.045 150.411 109.025C150.933 109.994 151.194 111.049 151.194 112.189V129H142.949V125.548H142.757C142.267 126.464 141.67 127.205 140.967 127.77C140.275 128.334 139.481 128.744 138.586 129C137.702 129.256 136.727 129.384 135.662 129.384ZM138.538 123.822C139.209 123.822 139.838 123.684 140.424 123.407C141.02 123.13 141.505 122.73 141.878 122.208C142.251 121.686 142.437 121.053 142.437 120.307V118.261C142.203 118.357 141.953 118.448 141.686 118.533C141.43 118.618 141.153 118.698 140.855 118.773C140.568 118.847 140.259 118.917 139.928 118.98C139.609 119.044 139.273 119.103 138.922 119.156C138.24 119.263 137.68 119.439 137.244 119.684C136.818 119.918 136.498 120.211 136.285 120.562C136.082 120.903 135.981 121.287 135.981 121.713C135.981 122.395 136.221 122.917 136.7 123.279C137.18 123.641 137.792 123.822 138.538 123.822Z" fill="black"/>
<path d="M104.259 138.638H102.597C102.533 138.283 102.414 137.971 102.24 137.701C102.066 137.431 101.853 137.202 101.601 137.014C101.349 136.826 101.067 136.684 100.754 136.588C100.445 136.492 100.117 136.444 99.7688 136.444C99.1403 136.444 98.5774 136.602 98.0803 136.918C97.5866 137.234 97.196 137.697 96.9084 138.308C96.6243 138.919 96.4822 139.665 96.4822 140.545C96.4822 141.433 96.6243 142.183 96.9084 142.793C97.196 143.404 97.5884 143.866 98.0856 144.178C98.5827 144.491 99.142 144.647 99.7635 144.647C100.108 144.647 100.435 144.601 100.744 144.509C101.056 144.413 101.338 144.272 101.591 144.088C101.843 143.903 102.056 143.678 102.23 143.411C102.407 143.141 102.53 142.832 102.597 142.484L104.259 142.49C104.17 143.026 103.998 143.52 103.743 143.971C103.49 144.418 103.165 144.805 102.768 145.132C102.374 145.455 101.923 145.705 101.415 145.883C100.907 146.06 100.353 146.149 99.7528 146.149C98.8082 146.149 97.9666 145.925 97.228 145.478C96.4893 145.027 95.907 144.382 95.4808 143.544C95.0582 142.706 94.8469 141.707 94.8469 140.545C94.8469 139.381 95.06 138.381 95.4862 137.547C95.9123 136.708 96.4947 136.066 97.2333 135.618C97.9719 135.167 98.8118 134.942 99.7528 134.942C100.332 134.942 100.871 135.025 101.372 135.192C101.876 135.355 102.329 135.597 102.73 135.917C103.132 136.233 103.464 136.62 103.727 137.078C103.989 137.532 104.167 138.053 104.259 138.638ZM108.482 146.181C107.964 146.181 107.495 146.085 107.076 145.893C106.657 145.698 106.325 145.416 106.08 145.047C105.838 144.677 105.717 144.224 105.717 143.688C105.717 143.227 105.806 142.847 105.984 142.548C106.161 142.25 106.401 142.014 106.703 141.84C107.005 141.666 107.342 141.534 107.715 141.446C108.088 141.357 108.468 141.289 108.855 141.243C109.345 141.186 109.743 141.14 110.048 141.105C110.353 141.066 110.575 141.004 110.714 140.918C110.852 140.833 110.922 140.695 110.922 140.503V140.466C110.922 140 110.79 139.64 110.527 139.384C110.268 139.129 109.881 139.001 109.366 139.001C108.83 139.001 108.407 139.12 108.098 139.358C107.793 139.592 107.582 139.853 107.465 140.141L105.968 139.8C106.145 139.303 106.405 138.901 106.745 138.596C107.09 138.287 107.486 138.063 107.933 137.925C108.381 137.783 108.851 137.712 109.345 137.712C109.672 137.712 110.018 137.751 110.384 137.829C110.753 137.903 111.097 138.042 111.417 138.244C111.74 138.447 112.005 138.736 112.211 139.113C112.417 139.485 112.52 139.97 112.52 140.567V146H110.964V144.881H110.9C110.797 145.087 110.643 145.29 110.437 145.489C110.231 145.687 109.966 145.853 109.643 145.984C109.32 146.115 108.933 146.181 108.482 146.181ZM108.828 144.903C109.269 144.903 109.645 144.816 109.957 144.642C110.274 144.468 110.513 144.24 110.677 143.96C110.843 143.676 110.927 143.372 110.927 143.049V141.994C110.87 142.051 110.76 142.104 110.597 142.154C110.437 142.2 110.254 142.241 110.048 142.277C109.842 142.309 109.641 142.339 109.446 142.367C109.251 142.392 109.087 142.413 108.956 142.431C108.647 142.47 108.365 142.536 108.109 142.628C107.857 142.721 107.655 142.854 107.502 143.028C107.353 143.198 107.278 143.425 107.278 143.71C107.278 144.104 107.424 144.402 107.715 144.604C108.006 144.803 108.377 144.903 108.828 144.903ZM116.234 135.091V146H114.641V135.091H116.234ZM121.823 146.165C121.031 146.165 120.349 145.986 119.777 145.627C119.209 145.265 118.772 144.766 118.467 144.13C118.161 143.495 118.009 142.767 118.009 141.946C118.009 141.115 118.165 140.382 118.478 139.746C118.79 139.107 119.23 138.608 119.799 138.25C120.367 137.891 121.036 137.712 121.807 137.712C122.428 137.712 122.982 137.827 123.469 138.058C123.955 138.285 124.348 138.605 124.646 139.017C124.948 139.429 125.127 139.91 125.184 140.46H123.634C123.549 140.077 123.353 139.746 123.048 139.469C122.746 139.192 122.341 139.054 121.833 139.054C121.389 139.054 121.001 139.171 120.667 139.406C120.337 139.636 120.079 139.967 119.894 140.396C119.71 140.822 119.617 141.327 119.617 141.909C119.617 142.506 119.708 143.021 119.889 143.454C120.07 143.887 120.326 144.223 120.656 144.461C120.99 144.699 121.382 144.817 121.833 144.817C122.135 144.817 122.409 144.762 122.654 144.652C122.902 144.539 123.11 144.377 123.277 144.168C123.447 143.958 123.566 143.706 123.634 143.411H125.184C125.127 143.94 124.955 144.413 124.667 144.828C124.38 145.244 123.994 145.57 123.511 145.808C123.032 146.046 122.469 146.165 121.823 146.165ZM126.887 146V137.818H128.48V146H126.887ZM127.691 136.556C127.414 136.556 127.176 136.463 126.978 136.279C126.782 136.091 126.685 135.867 126.685 135.608C126.685 135.345 126.782 135.121 126.978 134.936C127.176 134.748 127.414 134.654 127.691 134.654C127.968 134.654 128.205 134.748 128.4 134.936C128.599 135.121 128.698 135.345 128.698 135.608C128.698 135.867 128.599 136.091 128.4 136.279C128.205 136.463 127.968 136.556 127.691 136.556ZM135.805 142.607V137.818H137.403V146H135.837V144.583H135.752C135.564 145.02 135.262 145.384 134.847 145.675C134.435 145.963 133.921 146.107 133.307 146.107C132.782 146.107 132.316 145.991 131.911 145.76C131.51 145.526 131.194 145.18 130.963 144.722C130.736 144.263 130.622 143.697 130.622 143.022V137.818H132.215V142.831C132.215 143.388 132.37 143.832 132.679 144.162C132.987 144.493 133.389 144.658 133.882 144.658C134.181 144.658 134.477 144.583 134.772 144.434C135.07 144.285 135.317 144.059 135.512 143.757C135.711 143.456 135.809 143.072 135.805 142.607ZM139.543 146V137.818H141.072V139.15H141.173C141.344 138.699 141.623 138.347 142.01 138.095C142.397 137.839 142.86 137.712 143.4 137.712C143.947 137.712 144.405 137.839 144.774 138.095C145.147 138.351 145.422 138.702 145.6 139.15H145.685C145.88 138.713 146.191 138.365 146.617 138.106C147.043 137.843 147.551 137.712 148.141 137.712C148.883 137.712 149.488 137.944 149.957 138.409C150.429 138.875 150.665 139.576 150.665 140.513V146H149.073V140.663C149.073 140.109 148.922 139.707 148.62 139.459C148.318 139.21 147.958 139.086 147.539 139.086C147.02 139.086 146.617 139.246 146.33 139.565C146.042 139.881 145.898 140.288 145.898 140.785V146H144.311V140.561C144.311 140.118 144.172 139.761 143.895 139.491C143.618 139.221 143.258 139.086 142.814 139.086C142.512 139.086 142.233 139.166 141.978 139.326C141.725 139.482 141.521 139.7 141.365 139.981C141.212 140.261 141.136 140.586 141.136 140.956V146H139.543Z" fill="black"/>
<path d="M60.3082 75V74.5384L66.1321 67.6491C67.0436 66.572 67.7538 65.6723 68.2628 64.9503C68.7718 64.2223 69.1299 63.5772 69.337 63.0149C69.5442 62.4467 69.6477 61.8608 69.6477 61.2571C69.6477 60.464 69.4643 59.7567 69.0973 59.1353C68.7363 58.5138 68.2391 58.0256 67.6058 57.6705C66.9785 57.3153 66.2623 57.1378 65.4574 57.1378C64.617 57.1378 63.8771 57.3301 63.2379 57.7148C62.5987 58.0936 62.0986 58.6026 61.7376 59.2418C61.3765 59.881 61.196 60.5883 61.196 61.3636H60.6278C60.6278 60.4818 60.832 59.6798 61.2404 58.9577C61.6547 58.2298 62.2229 57.6497 62.945 57.2177C63.6729 56.7856 64.5104 56.5696 65.4574 56.5696C66.3688 56.5696 67.1826 56.7738 67.8988 57.1822C68.6149 57.5846 69.1802 58.141 69.5945 58.8512C70.0088 59.5555 70.2159 60.3575 70.2159 61.2571C70.2159 61.9259 70.1035 62.5651 69.8786 63.1747C69.6596 63.7843 69.2837 64.465 68.7511 65.2166C68.2243 65.9683 67.4934 66.8975 66.5582 68.0043L61.196 74.3608V74.4318H71.2812V75H60.3082ZM80.9137 75.2486C79.7596 75.2486 78.7653 74.8728 77.9308 74.1211C77.1022 73.3694 76.4629 72.2952 76.0131 70.8984C75.5633 69.5017 75.3384 67.8385 75.3384 65.9091C75.3384 63.9796 75.5633 62.3165 76.0131 60.9197C76.4629 59.523 77.1022 58.4487 77.9308 57.6971C78.7653 56.9454 79.7596 56.5696 80.9137 56.5696C82.0678 56.5696 83.0592 56.9454 83.8878 57.6971C84.7223 58.4487 85.3645 59.523 85.8143 60.9197C86.2641 62.3165 86.489 63.9796 86.489 65.9091C86.489 67.8385 86.2641 69.5017 85.8143 70.8984C85.3645 72.2952 84.7223 73.3694 83.8878 74.1211C83.0592 74.8728 82.0678 75.2486 80.9137 75.2486ZM80.9137 74.6804C82.4644 74.6804 83.6866 73.9021 84.5803 72.3455C85.474 70.7889 85.9208 68.6435 85.9208 65.9091C85.9208 64.0862 85.7166 62.5207 85.3082 61.2127C84.9058 59.8988 84.3317 58.8926 83.5859 58.1942C82.8402 57.4899 81.9495 57.1378 80.9137 57.1378C79.363 57.1378 78.1409 57.9161 77.2472 59.4727C76.3535 61.0292 75.9066 63.1747 75.9066 65.9091C75.9066 67.732 76.1078 69.3004 76.5103 70.6143C76.9187 71.9223 77.4957 72.9285 78.2415 73.6328C78.9931 74.3312 79.8839 74.6804 80.9137 74.6804Z" fill="black"/>
<circle cx="282" cy="113" r="54" fill="url(#paint8_radial_278_525)"/>
<g filter="url(#filter2_n_278_525)">
<rect x="207" y="37" width="150" height="150" rx="15" fill="url(#paint9_linear_278_525)" fill-opacity="0.5"/>
<rect x="209.5" y="39.5" width="145" height="145" rx="12.5" stroke="#D2ECFF" stroke-width="5"/>
</g>
<path d="M248.109 96.2727H259.168L266.774 114.81H267.158L274.764 96.2727H285.822V129H277.129V110.08H276.874L269.587 128.744H264.345L257.058 109.952H256.803V129H248.109V96.2727ZM301.986 138.716C299.525 138.716 297.416 138.364 295.658 137.661C293.911 136.969 292.553 136.01 291.583 134.785C290.624 133.57 290.086 132.175 289.969 130.598H298.471C298.556 131.12 298.769 131.541 299.11 131.86C299.451 132.18 299.888 132.409 300.42 132.548C300.964 132.697 301.571 132.771 302.242 132.771C303.382 132.771 304.325 132.494 305.07 131.94C305.827 131.386 306.205 130.385 306.205 128.936V124.781H305.949C305.63 125.612 305.14 126.321 304.479 126.907C303.819 127.482 303.025 127.924 302.098 128.233C301.171 128.531 300.154 128.68 299.046 128.68C297.299 128.68 295.69 128.276 294.22 127.466C292.76 126.656 291.589 125.373 290.704 123.615C289.831 121.857 289.394 119.561 289.394 116.727C289.394 113.766 289.852 111.358 290.768 109.504C291.695 107.651 292.888 106.292 294.348 105.429C295.818 104.566 297.363 104.135 298.982 104.135C300.197 104.135 301.262 104.348 302.178 104.774C303.094 105.19 303.861 105.749 304.479 106.452C305.097 107.145 305.566 107.906 305.885 108.737H306.077V104.455H314.898V128.936C314.898 131.013 314.36 132.777 313.284 134.225C312.219 135.685 310.717 136.798 308.778 137.565C306.839 138.332 304.575 138.716 301.986 138.716ZM302.306 122.416C303.116 122.416 303.808 122.192 304.383 121.745C304.969 121.287 305.417 120.637 305.726 119.795C306.045 118.943 306.205 117.92 306.205 116.727C306.205 115.513 306.045 114.474 305.726 113.611C305.417 112.738 304.969 112.072 304.383 111.614C303.808 111.145 303.116 110.911 302.306 110.911C301.496 110.911 300.804 111.145 300.229 111.614C299.664 112.072 299.227 112.738 298.918 113.611C298.62 114.474 298.471 115.513 298.471 116.727C298.471 117.942 298.62 118.975 298.918 119.827C299.227 120.669 299.664 121.314 300.229 121.761C300.804 122.198 301.496 122.416 302.306 122.416Z" fill="black"/>
<path d="M241.199 135.091H243.196L246.669 143.571H246.797L250.27 135.091H252.267V146H250.701V138.106H250.6L247.383 145.984H246.083L242.866 138.1H242.765V146H241.199V135.091ZM256.914 146.181C256.395 146.181 255.926 146.085 255.507 145.893C255.088 145.698 254.756 145.416 254.511 145.047C254.27 144.677 254.149 144.224 254.149 143.688C254.149 143.227 254.238 142.847 254.415 142.548C254.593 142.25 254.833 142.014 255.134 141.84C255.436 141.666 255.774 141.534 256.147 141.446C256.519 141.357 256.899 141.289 257.286 141.243C257.777 141.186 258.174 141.14 258.48 141.105C258.785 141.066 259.007 141.004 259.146 140.918C259.284 140.833 259.353 140.695 259.353 140.503V140.466C259.353 140 259.222 139.64 258.959 139.384C258.7 139.129 258.313 139.001 257.798 139.001C257.262 139.001 256.839 139.12 256.53 139.358C256.225 139.592 256.013 139.853 255.896 140.141L254.399 139.8C254.577 139.303 254.836 138.901 255.177 138.596C255.522 138.287 255.918 138.063 256.365 137.925C256.812 137.783 257.283 137.712 257.777 137.712C258.103 137.712 258.449 137.751 258.815 137.829C259.185 137.903 259.529 138.042 259.849 138.244C260.172 138.447 260.436 138.736 260.642 139.113C260.848 139.485 260.951 139.97 260.951 140.567V146H259.396V144.881H259.332C259.229 145.087 259.074 145.29 258.869 145.489C258.663 145.687 258.398 145.853 258.075 145.984C257.752 146.115 257.365 146.181 256.914 146.181ZM257.26 144.903C257.7 144.903 258.077 144.816 258.389 144.642C258.705 144.468 258.945 144.24 259.108 143.96C259.275 143.676 259.359 143.372 259.359 143.049V141.994C259.302 142.051 259.192 142.104 259.028 142.154C258.869 142.2 258.686 142.241 258.48 142.277C258.274 142.309 258.073 142.339 257.878 142.367C257.682 142.392 257.519 142.413 257.388 142.431C257.079 142.47 256.796 142.536 256.541 142.628C256.289 142.721 256.086 142.854 255.934 143.028C255.784 143.198 255.71 143.425 255.71 143.71C255.71 144.104 255.855 144.402 256.147 144.604C256.438 144.803 256.809 144.903 257.26 144.903ZM266.503 149.239C265.853 149.239 265.294 149.153 264.825 148.983C264.36 148.813 263.98 148.587 263.685 148.306C263.39 148.026 263.17 147.719 263.025 147.385L264.394 146.82C264.49 146.977 264.617 147.142 264.777 147.316C264.941 147.493 265.161 147.644 265.438 147.768C265.718 147.893 266.079 147.955 266.519 147.955C267.123 147.955 267.622 147.808 268.016 147.513C268.41 147.222 268.607 146.756 268.607 146.117V144.509H268.506C268.41 144.683 268.271 144.876 268.09 145.089C267.913 145.302 267.668 145.487 267.355 145.643C267.043 145.799 266.636 145.877 266.135 145.877C265.489 145.877 264.907 145.727 264.388 145.425C263.873 145.119 263.465 144.67 263.163 144.077C262.865 143.48 262.716 142.747 262.716 141.877C262.716 141.007 262.863 140.261 263.158 139.64C263.456 139.018 263.865 138.543 264.383 138.212C264.901 137.879 265.489 137.712 266.146 137.712C266.654 137.712 267.064 137.797 267.377 137.967C267.689 138.134 267.932 138.33 268.106 138.553C268.284 138.777 268.421 138.974 268.517 139.145H268.634V137.818H270.194V146.181C270.194 146.884 270.031 147.461 269.704 147.912C269.378 148.363 268.936 148.697 268.378 148.914C267.824 149.13 267.199 149.239 266.503 149.239ZM266.487 144.556C266.945 144.556 267.332 144.45 267.648 144.237C267.968 144.02 268.209 143.711 268.373 143.31C268.54 142.905 268.623 142.42 268.623 141.856C268.623 141.305 268.541 140.821 268.378 140.402C268.215 139.983 267.975 139.656 267.659 139.422C267.343 139.184 266.952 139.065 266.487 139.065C266.008 139.065 265.608 139.189 265.289 139.438C264.969 139.683 264.727 140.016 264.564 140.439C264.404 140.862 264.324 141.334 264.324 141.856C264.324 142.392 264.406 142.863 264.569 143.267C264.733 143.672 264.974 143.988 265.294 144.216C265.617 144.443 266.015 144.556 266.487 144.556ZM273.923 141.142V146H272.33V137.818H273.859V139.15H273.96C274.149 138.717 274.443 138.369 274.845 138.106C275.249 137.843 275.759 137.712 276.373 137.712C276.931 137.712 277.419 137.829 277.838 138.063C278.257 138.294 278.582 138.638 278.813 139.097C279.044 139.555 279.159 140.121 279.159 140.796V146H277.567V140.988C277.567 140.395 277.412 139.931 277.103 139.597C276.794 139.26 276.37 139.091 275.83 139.091C275.461 139.091 275.132 139.171 274.845 139.331C274.561 139.491 274.335 139.725 274.168 140.034C274.005 140.339 273.923 140.709 273.923 141.142ZM284.822 146.165C284.015 146.165 283.321 145.993 282.739 145.648C282.16 145.3 281.713 144.812 281.396 144.184C281.084 143.551 280.928 142.811 280.928 141.962C280.928 141.124 281.084 140.386 281.396 139.746C281.713 139.107 282.153 138.608 282.718 138.25C283.286 137.891 283.95 137.712 284.71 137.712C285.171 137.712 285.619 137.788 286.052 137.941C286.485 138.093 286.874 138.333 287.219 138.66C287.563 138.987 287.835 139.411 288.034 139.933C288.232 140.451 288.332 141.082 288.332 141.824V142.388H281.828V141.195H286.771C286.771 140.776 286.686 140.405 286.515 140.082C286.345 139.755 286.105 139.498 285.796 139.31C285.491 139.121 285.132 139.027 284.72 139.027C284.273 139.027 283.882 139.137 283.548 139.358C283.218 139.574 282.963 139.858 282.781 140.21C282.604 140.558 282.515 140.936 282.515 141.344V142.277C282.515 142.824 282.611 143.289 282.803 143.672C282.998 144.056 283.27 144.349 283.618 144.551C283.966 144.75 284.372 144.849 284.838 144.849C285.139 144.849 285.415 144.807 285.663 144.722C285.912 144.633 286.127 144.501 286.308 144.327C286.489 144.153 286.627 143.939 286.723 143.683L288.231 143.955C288.11 144.398 287.893 144.787 287.581 145.121C287.272 145.451 286.883 145.709 286.414 145.893C285.949 146.075 285.418 146.165 284.822 146.165ZM296.23 139.816L294.786 140.071C294.726 139.887 294.63 139.711 294.499 139.544C294.371 139.377 294.197 139.24 293.977 139.134C293.757 139.027 293.481 138.974 293.151 138.974C292.7 138.974 292.324 139.075 292.022 139.278C291.72 139.477 291.569 139.734 291.569 140.05C291.569 140.324 291.67 140.544 291.873 140.711C292.075 140.877 292.402 141.014 292.853 141.121L294.153 141.419C294.905 141.593 295.467 141.861 295.836 142.223C296.205 142.586 296.39 143.056 296.39 143.635C296.39 144.125 296.248 144.562 295.964 144.945C295.683 145.325 295.291 145.624 294.786 145.84C294.286 146.057 293.705 146.165 293.045 146.165C292.128 146.165 291.381 145.97 290.802 145.579C290.223 145.185 289.868 144.626 289.737 143.901L291.276 143.667C291.372 144.068 291.569 144.372 291.867 144.578C292.166 144.78 292.555 144.881 293.034 144.881C293.556 144.881 293.973 144.773 294.286 144.556C294.598 144.336 294.755 144.068 294.755 143.752C294.755 143.496 294.659 143.282 294.467 143.108C294.279 142.934 293.989 142.802 293.599 142.713L292.214 142.41C291.45 142.236 290.886 141.959 290.52 141.579C290.158 141.199 289.976 140.718 289.976 140.135C289.976 139.652 290.111 139.23 290.381 138.868C290.651 138.505 291.024 138.223 291.5 138.021C291.976 137.815 292.521 137.712 293.135 137.712C294.019 137.712 294.715 137.903 295.223 138.287C295.731 138.667 296.067 139.176 296.23 139.816ZM298.141 146V137.818H299.734V146H298.141ZM298.945 136.556C298.668 136.556 298.43 136.463 298.232 136.279C298.036 136.091 297.939 135.867 297.939 135.608C297.939 135.345 298.036 135.121 298.232 134.936C298.43 134.748 298.668 134.654 298.945 134.654C299.222 134.654 299.458 134.748 299.654 134.936C299.853 135.121 299.952 135.345 299.952 135.608C299.952 135.867 299.853 136.091 299.654 136.279C299.458 136.463 299.222 136.556 298.945 136.556ZM307.059 142.607V137.818H308.657V146H307.091V144.583H307.006C306.818 145.02 306.516 145.384 306.1 145.675C305.688 145.963 305.175 146.107 304.561 146.107C304.035 146.107 303.57 145.991 303.165 145.76C302.764 145.526 302.448 145.18 302.217 144.722C301.99 144.263 301.876 143.697 301.876 143.022V137.818H303.469V142.831C303.469 143.388 303.623 143.832 303.932 144.162C304.241 144.493 304.643 144.658 305.136 144.658C305.435 144.658 305.731 144.583 306.026 144.434C306.324 144.285 306.571 144.059 306.766 143.757C306.965 143.456 307.063 143.072 307.059 142.607ZM310.797 146V137.818H312.326V139.15H312.427C312.598 138.699 312.876 138.347 313.263 138.095C313.651 137.839 314.114 137.712 314.654 137.712C315.201 137.712 315.659 137.839 316.028 138.095C316.401 138.351 316.676 138.702 316.854 139.15H316.939C317.134 138.713 317.445 138.365 317.871 138.106C318.297 137.843 318.805 137.712 319.395 137.712C320.137 137.712 320.742 137.944 321.211 138.409C321.683 138.875 321.919 139.576 321.919 140.513V146H320.327V140.663C320.327 140.109 320.176 139.707 319.874 139.459C319.572 139.21 319.212 139.086 318.793 139.086C318.274 139.086 317.871 139.246 317.583 139.565C317.296 139.881 317.152 140.288 317.152 140.785V146H315.565V140.561C315.565 140.118 315.426 139.761 315.149 139.491C314.872 139.221 314.512 139.086 314.068 139.086C313.766 139.086 313.487 139.166 313.232 139.326C312.979 139.482 312.775 139.7 312.619 139.981C312.466 140.261 312.39 140.586 312.39 140.956V146H310.797Z" fill="black"/>
<path d="M223.357 56.8182V75H222.788V57.4219H222.682L218.776 60.0142V59.3395L222.575 56.8182H223.357ZM229.489 75V74.5384L235.313 67.6491C236.224 66.572 236.934 65.6723 237.443 64.9503C237.952 64.2223 238.311 63.5772 238.518 63.0149C238.725 62.4467 238.828 61.8608 238.828 61.2571C238.828 60.464 238.645 59.7567 238.278 59.1353C237.917 58.5138 237.42 58.0256 236.786 57.6705C236.159 57.3153 235.443 57.1378 234.638 57.1378C233.798 57.1378 233.058 57.3301 232.419 57.7148C231.779 58.0936 231.279 58.6026 230.918 59.2418C230.557 59.881 230.377 60.5883 230.377 61.3636H229.809C229.809 60.4818 230.013 59.6798 230.421 58.9577C230.835 58.2298 231.404 57.6497 232.126 57.2177C232.854 56.7856 233.691 56.5696 234.638 56.5696C235.55 56.5696 236.363 56.7738 237.079 57.1822C237.796 57.5846 238.361 58.141 238.775 58.8512C239.189 59.5555 239.397 60.3575 239.397 61.2571C239.397 61.9259 239.284 62.5651 239.059 63.1747C238.84 63.7843 238.464 64.465 237.932 65.2166C237.405 65.9683 236.674 66.8975 235.739 68.0043L230.377 74.3608V74.4318H240.462V75H229.489Z" fill="black"/>
<circle cx="439.5" cy="112.5" r="57.5" fill="url(#paint10_radial_278_525)"/>
<g filter="url(#filter3_n_278_525)">
<rect x="366" y="37" width="150" height="150" rx="15" fill="url(#paint11_linear_278_525)" fill-opacity="0.5"/>
<rect x="368.5" y="39.5" width="145" height="145" rx="12.5" stroke="#D2ECFF" stroke-width="5"/>
</g>
<path d="M426.109 129V96.2727H434.994V109.504H435.442L445.286 96.2727H455.641L444.582 110.847L455.896 129H445.286L437.935 116.727L434.994 120.562V129H426.109Z" fill="black"/>
<path d="M403.199 150V139.091H407.087C407.936 139.091 408.639 139.245 409.196 139.554C409.754 139.863 410.171 140.286 410.448 140.822C410.725 141.355 410.864 141.955 410.864 142.623C410.864 143.294 410.723 143.897 410.443 144.434C410.166 144.966 409.747 145.389 409.186 145.701C408.628 146.01 407.927 146.165 407.082 146.165H404.408V144.769H406.933C407.469 144.769 407.904 144.677 408.238 144.492C408.571 144.304 408.816 144.048 408.973 143.725C409.129 143.402 409.207 143.034 409.207 142.623C409.207 142.211 409.129 141.845 408.973 141.525C408.816 141.206 408.57 140.955 408.232 140.774C407.898 140.593 407.458 140.502 406.911 140.502H404.844V150H403.199ZM416.009 150.165C415.242 150.165 414.573 149.989 414.001 149.638C413.429 149.286 412.985 148.794 412.669 148.162C412.353 147.53 412.195 146.792 412.195 145.946C412.195 145.098 412.353 144.355 412.669 143.72C412.985 143.084 413.429 142.591 414.001 142.239C414.573 141.887 415.242 141.712 416.009 141.712C416.776 141.712 417.446 141.887 418.017 142.239C418.589 142.591 419.033 143.084 419.349 143.72C419.665 144.355 419.823 145.098 419.823 145.946C419.823 146.792 419.665 147.53 419.349 148.162C419.033 148.794 418.589 149.286 418.017 149.638C417.446 149.989 416.776 150.165 416.009 150.165ZM416.015 148.828C416.512 148.828 416.924 148.697 417.25 148.434C417.577 148.171 417.819 147.821 417.975 147.385C418.135 146.948 418.214 146.467 418.214 145.941C418.214 145.419 418.135 144.94 417.975 144.503C417.819 144.062 417.577 143.709 417.25 143.443C416.924 143.176 416.512 143.043 416.015 143.043C415.514 143.043 415.098 143.176 414.768 143.443C414.441 143.709 414.198 144.062 414.038 144.503C413.882 144.94 413.804 145.419 413.804 145.941C413.804 146.467 413.882 146.948 414.038 147.385C414.198 147.821 414.441 148.171 414.768 148.434C415.098 148.697 415.514 148.828 416.015 148.828ZM425.42 141.818V143.097H420.951V141.818H425.42ZM422.15 139.858H423.742V147.598C423.742 147.907 423.788 148.139 423.881 148.295C423.973 148.448 424.092 148.553 424.238 148.61C424.387 148.663 424.548 148.69 424.722 148.69C424.85 148.69 424.962 148.681 425.058 148.663C425.154 148.645 425.228 148.631 425.282 148.62L425.569 149.936C425.477 149.972 425.346 150.007 425.175 150.043C425.005 150.082 424.792 150.103 424.536 150.107C424.117 150.114 423.726 150.039 423.364 149.883C423.002 149.727 422.709 149.485 422.485 149.158C422.261 148.832 422.15 148.422 422.15 147.928V139.858ZM429.563 150.181C429.045 150.181 428.576 150.085 428.157 149.893C427.738 149.698 427.406 149.416 427.161 149.047C426.919 148.677 426.798 148.224 426.798 147.688C426.798 147.227 426.887 146.847 427.065 146.548C427.242 146.25 427.482 146.014 427.784 145.84C428.086 145.666 428.423 145.534 428.796 145.446C429.169 145.357 429.549 145.289 429.936 145.243C430.426 145.186 430.824 145.14 431.129 145.105C431.434 145.066 431.656 145.004 431.795 144.918C431.933 144.833 432.003 144.695 432.003 144.503V144.466C432.003 144 431.871 143.64 431.608 143.384C431.349 143.129 430.962 143.001 430.447 143.001C429.911 143.001 429.488 143.12 429.18 143.358C428.874 143.592 428.663 143.853 428.546 144.141L427.049 143.8C427.226 143.303 427.486 142.901 427.827 142.596C428.171 142.287 428.567 142.063 429.014 141.925C429.462 141.783 429.932 141.712 430.426 141.712C430.753 141.712 431.099 141.751 431.465 141.829C431.834 141.903 432.178 142.042 432.498 142.244C432.821 142.447 433.086 142.736 433.292 143.113C433.498 143.485 433.601 143.97 433.601 144.567V150H432.045V148.881H431.981C431.878 149.087 431.724 149.29 431.518 149.489C431.312 149.687 431.047 149.853 430.724 149.984C430.401 150.115 430.014 150.181 429.563 150.181ZM429.909 148.903C430.35 148.903 430.726 148.816 431.039 148.642C431.355 148.468 431.594 148.24 431.758 147.96C431.925 147.676 432.008 147.372 432.008 147.049V145.994C431.951 146.051 431.841 146.104 431.678 146.154C431.518 146.2 431.335 146.241 431.129 146.277C430.923 146.309 430.722 146.339 430.527 146.367C430.332 146.392 430.169 146.413 430.037 146.431C429.728 146.47 429.446 146.536 429.19 146.628C428.938 146.721 428.736 146.854 428.583 147.028C428.434 147.198 428.359 147.425 428.359 147.71C428.359 148.104 428.505 148.402 428.796 148.604C429.087 148.803 429.458 148.903 429.909 148.903ZM441.853 143.816L440.41 144.071C440.349 143.887 440.253 143.711 440.122 143.544C439.994 143.377 439.82 143.24 439.6 143.134C439.38 143.027 439.104 142.974 438.774 142.974C438.323 142.974 437.947 143.075 437.645 143.278C437.343 143.477 437.192 143.734 437.192 144.05C437.192 144.324 437.293 144.544 437.496 144.711C437.698 144.877 438.025 145.014 438.476 145.121L439.776 145.419C440.528 145.593 441.09 145.861 441.459 146.223C441.828 146.586 442.013 147.056 442.013 147.635C442.013 148.125 441.871 148.562 441.587 148.945C441.306 149.325 440.914 149.624 440.41 149.84C439.909 150.057 439.328 150.165 438.668 150.165C437.752 150.165 437.004 149.97 436.425 149.579C435.846 149.185 435.491 148.626 435.36 147.901L436.899 147.667C436.995 148.068 437.192 148.372 437.491 148.578C437.789 148.78 438.178 148.881 438.657 148.881C439.179 148.881 439.596 148.773 439.909 148.556C440.221 148.336 440.378 148.068 440.378 147.752C440.378 147.496 440.282 147.282 440.09 147.108C439.902 146.934 439.612 146.802 439.222 146.713L437.837 146.41C437.073 146.236 436.509 145.959 436.143 145.579C435.781 145.199 435.6 144.718 435.6 144.135C435.6 143.652 435.734 143.23 436.004 142.868C436.274 142.505 436.647 142.223 437.123 142.021C437.599 141.815 438.144 141.712 438.758 141.712C439.642 141.712 440.339 141.903 440.846 142.287C441.354 142.667 441.69 143.176 441.853 143.816ZM449.895 143.816L448.452 144.071C448.391 143.887 448.295 143.711 448.164 143.544C448.036 143.377 447.862 143.24 447.642 143.134C447.422 143.027 447.146 142.974 446.816 142.974C446.365 142.974 445.989 143.075 445.687 143.278C445.385 143.477 445.234 143.734 445.234 144.05C445.234 144.324 445.335 144.544 445.538 144.711C445.74 144.877 446.067 145.014 446.518 145.121L447.818 145.419C448.57 145.593 449.132 145.861 449.501 146.223C449.87 146.586 450.055 147.056 450.055 147.635C450.055 148.125 449.913 148.562 449.629 148.945C449.348 149.325 448.956 149.624 448.452 149.84C447.951 150.057 447.37 150.165 446.71 150.165C445.794 150.165 445.046 149.97 444.467 149.579C443.888 149.185 443.533 148.626 443.402 147.901L444.941 147.667C445.037 148.068 445.234 148.372 445.532 148.578C445.831 148.78 446.22 148.881 446.699 148.881C447.221 148.881 447.638 148.773 447.951 148.556C448.263 148.336 448.42 148.068 448.42 147.752C448.42 147.496 448.324 147.282 448.132 147.108C447.944 146.934 447.654 146.802 447.264 146.713L445.879 146.41C445.115 146.236 444.551 145.959 444.185 145.579C443.823 145.199 443.642 144.718 443.642 144.135C443.642 143.652 443.776 143.23 444.046 142.868C444.316 142.505 444.689 142.223 445.165 142.021C445.641 141.815 446.186 141.712 446.8 141.712C447.684 141.712 448.381 141.903 448.888 142.287C449.396 142.667 449.732 143.176 449.895 143.816ZM451.806 150V141.818H453.399V150H451.806ZM452.61 140.556C452.333 140.556 452.095 140.463 451.897 140.279C451.701 140.091 451.604 139.867 451.604 139.608C451.604 139.345 451.701 139.121 451.897 138.936C452.095 138.748 452.333 138.654 452.61 138.654C452.887 138.654 453.123 138.748 453.319 138.936C453.518 139.121 453.617 139.345 453.617 139.608C453.617 139.867 453.518 140.091 453.319 140.279C453.123 140.463 452.887 140.556 452.61 140.556ZM460.724 146.607V141.818H462.322V150H460.756V148.583H460.671C460.483 149.02 460.181 149.384 459.765 149.675C459.354 149.963 458.84 150.107 458.226 150.107C457.7 150.107 457.235 149.991 456.83 149.76C456.429 149.526 456.113 149.18 455.882 148.722C455.655 148.263 455.541 147.697 455.541 147.022V141.818H457.134V146.831C457.134 147.388 457.289 147.832 457.597 148.162C457.906 148.493 458.308 148.658 458.801 148.658C459.1 148.658 459.396 148.583 459.691 148.434C459.989 148.285 460.236 148.059 460.431 147.757C460.63 147.456 460.728 147.072 460.724 146.607ZM464.462 150V141.818H465.991V143.15H466.092C466.263 142.699 466.541 142.347 466.929 142.095C467.316 141.839 467.779 141.712 468.319 141.712C468.866 141.712 469.324 141.839 469.693 142.095C470.066 142.351 470.341 142.702 470.519 143.15H470.604C470.799 142.713 471.11 142.365 471.536 142.106C471.962 141.843 472.47 141.712 473.06 141.712C473.802 141.712 474.407 141.944 474.876 142.409C475.348 142.875 475.584 143.576 475.584 144.513V150H473.992V144.663C473.992 144.109 473.841 143.707 473.539 143.459C473.237 143.21 472.877 143.086 472.458 143.086C471.939 143.086 471.536 143.246 471.248 143.565C470.961 143.881 470.817 144.288 470.817 144.785V150H469.23V144.561C469.23 144.118 469.091 143.761 468.814 143.491C468.537 143.221 468.177 143.086 467.733 143.086C467.431 143.086 467.152 143.166 466.897 143.326C466.644 143.482 466.44 143.7 466.284 143.981C466.131 144.261 466.055 144.586 466.055 144.956V150H464.462Z" fill="black"/>
<path d="M382.357 56.8182V75H381.788V57.4219H381.682L377.776 60.0142V59.3395L381.575 56.8182H382.357ZM393.318 56.5696C394.094 56.5696 394.807 56.7442 395.458 57.0934C396.115 57.4367 396.686 57.9575 397.171 58.6559C397.663 59.3484 398.041 60.2243 398.308 61.2837C398.58 62.3432 398.716 63.589 398.716 65.0213C398.716 66.2464 398.63 67.4627 398.459 68.6701C398.287 69.8775 397.994 70.9783 397.58 71.9727C397.166 72.967 396.597 73.763 395.875 74.3608C395.153 74.9527 394.242 75.2486 393.141 75.2486C392.241 75.2486 391.457 75.0444 390.788 74.636C390.119 74.2217 389.59 73.6535 389.199 72.9315C388.809 72.2035 388.584 71.366 388.524 70.419H389.093C389.181 71.6619 389.581 72.6829 390.291 73.4819C391.001 74.2809 391.951 74.6804 393.141 74.6804C394.792 74.6804 396.038 73.8281 396.878 72.1236C397.725 70.419 398.148 67.9687 398.148 64.7727H398.077C397.888 65.3764 397.559 65.915 397.092 66.3885C396.624 66.8561 396.071 67.226 395.431 67.4982C394.792 67.7646 394.123 67.8977 393.425 67.8977C392.466 67.8977 391.59 67.6491 390.797 67.152C390.01 66.6548 389.38 65.9772 388.906 65.119C388.439 64.2608 388.205 63.2931 388.205 62.2159C388.205 61.2098 388.418 60.2776 388.844 59.4194C389.276 58.5612 389.874 57.8717 390.637 57.3509C391.407 56.83 392.3 56.5696 393.318 56.5696ZM393.318 57.1378C392.443 57.1378 391.661 57.3656 390.975 57.8214C390.294 58.2771 389.755 58.8897 389.359 59.6591C388.968 60.4285 388.773 61.2808 388.773 62.2159C388.773 63.1747 388.98 64.0418 389.394 64.8171C389.815 65.5865 390.377 66.1991 391.081 66.6548C391.791 67.1046 392.585 67.3295 393.46 67.3295C394.153 67.3295 394.795 67.1875 395.387 66.9034C395.979 66.6134 396.482 66.2169 396.896 65.7138C397.316 65.2107 397.615 64.6396 397.793 64.0004C397.976 63.3552 398 62.6776 397.864 61.9673C397.663 60.902 397.346 60.0112 396.914 59.2951C396.488 58.579 395.967 58.0404 395.351 57.6793C394.742 57.3183 394.064 57.1378 393.318 57.1378Z" fill="black"/>
<circle cx="203" cy="272" r="55" fill="url(#paint12_radial_278_525)"/>
<g filter="url(#filter4_n_278_525)">
<rect x="127" y="197" width="150" height="150" rx="15" fill="url(#paint13_linear_278_525)" fill-opacity="0.5"/>
<rect x="129.5" y="199.5" width="145" height="145" rx="12.5" stroke="#D2ECFF" stroke-width="5"/>
</g>
<path d="M203.426 248.273V281H196.011L184.186 263.805H183.994V281H175.109V248.273H182.652L194.286 265.403H194.541V248.273H203.426ZM214.596 281.384C213.03 281.384 211.645 281.128 210.441 280.616C209.248 280.094 208.311 279.306 207.629 278.251C206.947 277.197 206.606 275.854 206.606 274.224C206.606 272.882 206.835 271.737 207.293 270.789C207.751 269.83 208.391 269.047 209.211 268.44C210.031 267.832 210.985 267.369 212.071 267.049C213.169 266.73 214.351 266.522 215.619 266.426C216.993 266.32 218.096 266.192 218.927 266.043C219.768 265.883 220.376 265.664 220.749 265.387C221.121 265.1 221.308 264.722 221.308 264.253V264.189C221.308 263.55 221.063 263.06 220.573 262.719C220.083 262.378 219.454 262.207 218.687 262.207C217.846 262.207 217.158 262.394 216.626 262.767C216.104 263.129 215.789 263.688 215.683 264.445H207.565C207.672 262.953 208.146 261.579 208.987 260.322C209.839 259.054 211.081 258.042 212.711 257.286C214.341 256.518 216.375 256.135 218.815 256.135C220.573 256.135 222.15 256.343 223.545 256.758C224.941 257.163 226.129 257.733 227.109 258.468C228.089 259.192 228.835 260.045 229.346 261.025C229.868 261.994 230.129 263.049 230.129 264.189V281H221.883V277.548H221.691C221.201 278.464 220.605 279.205 219.902 279.77C219.209 280.334 218.415 280.744 217.521 281C216.636 281.256 215.662 281.384 214.596 281.384ZM217.473 275.822C218.144 275.822 218.772 275.684 219.358 275.407C219.955 275.13 220.44 274.73 220.812 274.208C221.185 273.686 221.372 273.053 221.372 272.307V270.261C221.137 270.357 220.887 270.448 220.621 270.533C220.365 270.618 220.088 270.698 219.79 270.773C219.502 270.847 219.193 270.917 218.863 270.98C218.543 271.044 218.208 271.103 217.856 271.156C217.174 271.263 216.615 271.439 216.178 271.684C215.752 271.918 215.433 272.211 215.219 272.562C215.017 272.903 214.916 273.287 214.916 273.713C214.916 274.395 215.156 274.917 215.635 275.279C216.114 275.641 216.727 275.822 217.473 275.822Z" fill="black"/>
<path d="M183.148 292.957C183.092 292.452 182.857 292.062 182.445 291.785C182.033 291.504 181.515 291.364 180.89 291.364C180.442 291.364 180.055 291.435 179.729 291.577C179.402 291.716 179.148 291.907 178.967 292.152C178.789 292.394 178.701 292.669 178.701 292.978C178.701 293.237 178.761 293.461 178.882 293.649C179.006 293.837 179.168 293.995 179.366 294.123C179.569 294.248 179.786 294.352 180.016 294.438C180.247 294.519 180.469 294.587 180.682 294.64L181.748 294.917C182.096 295.002 182.452 295.118 182.818 295.263C183.184 295.409 183.523 295.6 183.836 295.838C184.148 296.076 184.4 296.371 184.592 296.723C184.787 297.074 184.885 297.495 184.885 297.985C184.885 298.603 184.725 299.152 184.406 299.631C184.089 300.11 183.63 300.489 183.026 300.766C182.426 301.043 181.7 301.181 180.847 301.181C180.031 301.181 179.324 301.051 178.727 300.792C178.131 300.533 177.664 300.165 177.326 299.69C176.989 299.21 176.803 298.642 176.767 297.985H178.418C178.45 298.379 178.578 298.708 178.802 298.971C179.029 299.23 179.319 299.423 179.67 299.551C180.025 299.675 180.414 299.738 180.837 299.738C181.302 299.738 181.716 299.665 182.078 299.519C182.444 299.37 182.731 299.164 182.941 298.901C183.15 298.635 183.255 298.324 183.255 297.969C183.255 297.646 183.163 297.381 182.978 297.175C182.797 296.969 182.55 296.799 182.238 296.664C181.929 296.529 181.579 296.41 181.188 296.307L179.899 295.956C179.026 295.718 178.333 295.368 177.822 294.906C177.314 294.445 177.06 293.834 177.06 293.074C177.06 292.445 177.23 291.897 177.571 291.428C177.912 290.959 178.374 290.595 178.956 290.336C179.539 290.073 180.196 289.942 180.927 289.942C181.666 289.942 182.317 290.071 182.882 290.331C183.45 290.59 183.898 290.947 184.224 291.401C184.551 291.852 184.722 292.371 184.736 292.957H183.148ZM190.17 301.165C189.403 301.165 188.734 300.989 188.162 300.638C187.59 300.286 187.147 299.794 186.831 299.162C186.514 298.53 186.356 297.792 186.356 296.946C186.356 296.098 186.514 295.355 186.831 294.72C187.147 294.084 187.59 293.591 188.162 293.239C188.734 292.887 189.403 292.712 190.17 292.712C190.937 292.712 191.607 292.887 192.179 293.239C192.75 293.591 193.194 294.084 193.51 294.72C193.826 295.355 193.984 296.098 193.984 296.946C193.984 297.792 193.826 298.53 193.51 299.162C193.194 299.794 192.75 300.286 192.179 300.638C191.607 300.989 190.937 301.165 190.17 301.165ZM190.176 299.828C190.673 299.828 191.085 299.697 191.411 299.434C191.738 299.171 191.98 298.821 192.136 298.385C192.296 297.948 192.376 297.467 192.376 296.941C192.376 296.419 192.296 295.94 192.136 295.503C191.98 295.062 191.738 294.709 191.411 294.443C191.085 294.176 190.673 294.043 190.176 294.043C189.675 294.043 189.259 294.176 188.929 294.443C188.603 294.709 188.359 295.062 188.199 295.503C188.043 295.94 187.965 296.419 187.965 296.941C187.965 297.467 188.043 297.948 188.199 298.385C188.359 298.821 188.603 299.171 188.929 299.434C189.259 299.697 189.675 299.828 190.176 299.828ZM198.825 301.16C198.164 301.16 197.575 300.991 197.056 300.654C196.542 300.313 196.137 299.828 195.842 299.2C195.551 298.567 195.405 297.809 195.405 296.925C195.405 296.041 195.553 295.284 195.847 294.656C196.146 294.027 196.554 293.546 197.072 293.212C197.591 292.879 198.179 292.712 198.836 292.712C199.343 292.712 199.752 292.797 200.061 292.967C200.373 293.134 200.615 293.33 200.785 293.553C200.959 293.777 201.094 293.974 201.19 294.145H201.286V290.091H202.879V301H201.323V299.727H201.19C201.094 299.901 200.956 300.1 200.775 300.324C200.597 300.547 200.352 300.743 200.039 300.909C199.727 301.076 199.322 301.16 198.825 301.16ZM199.176 299.801C199.635 299.801 200.022 299.681 200.338 299.439C200.657 299.194 200.899 298.855 201.062 298.422C201.229 297.989 201.312 297.484 201.312 296.909C201.312 296.341 201.231 295.844 201.067 295.418C200.904 294.991 200.664 294.659 200.348 294.422C200.032 294.184 199.642 294.065 199.176 294.065C198.697 294.065 198.298 294.189 197.978 294.438C197.658 294.686 197.417 295.025 197.254 295.455C197.094 295.885 197.014 296.369 197.014 296.909C197.014 297.456 197.096 297.948 197.259 298.385C197.422 298.821 197.664 299.168 197.983 299.423C198.306 299.675 198.704 299.801 199.176 299.801ZM205.152 301V292.818H206.744V301H205.152ZM205.956 291.556C205.679 291.556 205.441 291.463 205.242 291.279C205.047 291.091 204.949 290.867 204.949 290.608C204.949 290.345 205.047 290.121 205.242 289.936C205.441 289.748 205.679 289.654 205.956 289.654C206.233 289.654 206.469 289.748 206.665 289.936C206.863 290.121 206.963 290.345 206.963 290.608C206.963 290.867 206.863 291.091 206.665 291.279C206.469 291.463 206.233 291.556 205.956 291.556ZM214.07 297.607V292.818H215.668V301H214.102V299.583H214.017C213.828 300.02 213.527 300.384 213.111 300.675C212.699 300.963 212.186 301.107 211.572 301.107C211.046 301.107 210.581 300.991 210.176 300.76C209.775 300.526 209.459 300.18 209.228 299.722C209.001 299.263 208.887 298.697 208.887 298.022V292.818H210.48V297.831C210.48 298.388 210.634 298.832 210.943 299.162C211.252 299.493 211.653 299.658 212.147 299.658C212.445 299.658 212.742 299.583 213.037 299.434C213.335 299.285 213.582 299.059 213.777 298.757C213.976 298.456 214.074 298.072 214.07 297.607ZM217.808 301V292.818H219.337V294.15H219.438C219.608 293.699 219.887 293.347 220.274 293.095C220.661 292.839 221.125 292.712 221.665 292.712C222.211 292.712 222.669 292.839 223.039 293.095C223.412 293.351 223.687 293.702 223.864 294.15H223.95C224.145 293.713 224.456 293.365 224.882 293.106C225.308 292.843 225.816 292.712 226.405 292.712C227.147 292.712 227.753 292.944 228.222 293.409C228.694 293.875 228.93 294.576 228.93 295.513V301H227.337V295.663C227.337 295.109 227.187 294.707 226.885 294.459C226.583 294.21 226.222 294.086 225.803 294.086C225.285 294.086 224.882 294.246 224.594 294.565C224.307 294.881 224.163 295.288 224.163 295.785V301H222.575V295.561C222.575 295.118 222.437 294.761 222.16 294.491C221.883 294.221 221.522 294.086 221.079 294.086C220.777 294.086 220.498 294.166 220.242 294.326C219.99 294.482 219.786 294.7 219.63 294.981C219.477 295.261 219.401 295.586 219.401 295.956V301H217.808Z" fill="black"/>
<path d="M143.357 209.818V228H142.788V210.422H142.682L138.776 213.014V212.339L142.575 209.818H143.357ZM153.537 209.818V228H152.969V210.422H152.862L148.956 213.014V212.339L152.756 209.818H153.537Z" fill="black"/>
<circle cx="361" cy="273" r="55" fill="url(#paint14_radial_278_525)"/>
<g filter="url(#filter5_n_278_525)">
<rect x="286" y="197" width="150" height="150" rx="15" fill="url(#paint15_linear_278_525)" fill-opacity="0.5"/>
<rect x="288.5" y="199.5" width="145" height="145" rx="12.5" stroke="#D2ECFF" stroke-width="5"/>
</g>
<path d="M369.663 268.545H360.651C360.587 267.8 360.416 267.123 360.139 266.516C359.873 265.909 359.5 265.387 359.021 264.95C358.552 264.502 357.982 264.162 357.311 263.927C356.64 263.682 355.878 263.56 355.026 263.56C353.534 263.56 352.272 263.922 351.238 264.646C350.216 265.371 349.438 266.409 348.905 267.762C348.383 269.115 348.122 270.74 348.122 272.636C348.122 274.639 348.388 276.317 348.921 277.67C349.464 279.012 350.248 280.025 351.27 280.706C352.293 281.377 353.523 281.713 354.962 281.713C355.782 281.713 356.517 281.612 357.167 281.409C357.817 281.196 358.381 280.893 358.861 280.499C359.34 280.104 359.729 279.63 360.027 279.076C360.336 278.512 360.544 277.878 360.651 277.175L369.663 277.239C369.557 278.624 369.168 280.035 368.497 281.473C367.826 282.901 366.872 284.222 365.636 285.436C364.411 286.64 362.893 287.61 361.082 288.345C359.271 289.08 357.167 289.447 354.77 289.447C351.766 289.447 349.07 288.803 346.684 287.514C344.308 286.225 342.428 284.328 341.043 281.825C339.669 279.321 338.982 276.259 338.982 272.636C338.982 268.993 339.685 265.925 341.091 263.432C342.497 260.928 344.393 259.037 346.78 257.759C349.166 256.47 351.83 255.825 354.77 255.825C356.837 255.825 358.738 256.108 360.475 256.672C362.211 257.237 363.735 258.062 365.045 259.149C366.355 260.225 367.41 261.551 368.209 263.128C369.008 264.705 369.493 266.511 369.663 268.545ZM382.643 256.273V289H373.822V256.273H382.643Z" fill="black"/>
<path d="M340.259 297.638H338.597C338.533 297.283 338.414 296.971 338.24 296.701C338.066 296.431 337.853 296.202 337.601 296.014C337.349 295.826 337.067 295.684 336.754 295.588C336.445 295.492 336.117 295.444 335.769 295.444C335.14 295.444 334.577 295.602 334.08 295.918C333.587 296.234 333.196 296.697 332.908 297.308C332.624 297.919 332.482 298.665 332.482 299.545C332.482 300.433 332.624 301.183 332.908 301.793C333.196 302.404 333.588 302.866 334.086 303.178C334.583 303.491 335.142 303.647 335.763 303.647C336.108 303.647 336.435 303.601 336.744 303.509C337.056 303.413 337.338 303.272 337.591 303.088C337.843 302.903 338.056 302.678 338.23 302.411C338.407 302.141 338.53 301.832 338.597 301.484L340.259 301.49C340.17 302.026 339.998 302.52 339.743 302.971C339.49 303.418 339.165 303.805 338.768 304.132C338.374 304.455 337.923 304.705 337.415 304.883C336.907 305.06 336.353 305.149 335.753 305.149C334.808 305.149 333.967 304.925 333.228 304.478C332.489 304.027 331.907 303.382 331.481 302.544C331.058 301.706 330.847 300.707 330.847 299.545C330.847 298.381 331.06 297.381 331.486 296.547C331.912 295.708 332.495 295.066 333.233 294.618C333.972 294.167 334.812 293.942 335.753 293.942C336.332 293.942 336.871 294.025 337.372 294.192C337.876 294.355 338.329 294.597 338.73 294.917C339.132 295.233 339.464 295.62 339.727 296.078C339.989 296.532 340.167 297.053 340.259 297.638ZM343.694 300.142V305H342.101V294.091H343.672V298.15H343.774C343.965 297.71 344.258 297.36 344.652 297.1C345.047 296.841 345.562 296.712 346.197 296.712C346.758 296.712 347.248 296.827 347.667 297.058C348.09 297.289 348.417 297.633 348.647 298.091C348.882 298.546 348.999 299.114 348.999 299.796V305H347.406V299.988C347.406 299.387 347.252 298.922 346.943 298.592C346.634 298.258 346.204 298.091 345.654 298.091C345.277 298.091 344.94 298.171 344.642 298.331C344.347 298.491 344.114 298.725 343.944 299.034C343.777 299.339 343.694 299.709 343.694 300.142ZM352.717 294.091V305H351.124V294.091H352.717ZM358.306 305.165C357.539 305.165 356.87 304.989 356.298 304.638C355.726 304.286 355.282 303.794 354.966 303.162C354.65 302.53 354.492 301.792 354.492 300.946C354.492 300.098 354.65 299.355 354.966 298.72C355.282 298.084 355.726 297.591 356.298 297.239C356.87 296.887 357.539 296.712 358.306 296.712C359.073 296.712 359.743 296.887 360.314 297.239C360.886 297.591 361.33 298.084 361.646 298.72C361.962 299.355 362.12 300.098 362.12 300.946C362.12 301.792 361.962 302.53 361.646 303.162C361.33 303.794 360.886 304.286 360.314 304.638C359.743 304.989 359.073 305.165 358.306 305.165ZM358.311 303.828C358.809 303.828 359.221 303.697 359.547 303.434C359.874 303.171 360.115 302.821 360.272 302.385C360.431 301.948 360.511 301.467 360.511 300.941C360.511 300.419 360.431 299.94 360.272 299.503C360.115 299.062 359.874 298.709 359.547 298.443C359.221 298.176 358.809 298.043 358.311 298.043C357.811 298.043 357.395 298.176 357.065 298.443C356.738 298.709 356.495 299.062 356.335 299.503C356.179 299.94 356.101 300.419 356.101 300.941C356.101 301.467 356.179 301.948 356.335 302.385C356.495 302.821 356.738 303.171 357.065 303.434C357.395 303.697 357.811 303.828 358.311 303.828ZM363.898 305V296.818H365.437V298.118H365.522C365.672 297.678 365.934 297.331 366.311 297.079C366.691 296.824 367.12 296.696 367.6 296.696C367.699 296.696 367.816 296.699 367.951 296.706C368.09 296.713 368.198 296.722 368.276 296.733V298.256C368.212 298.239 368.099 298.219 367.935 298.198C367.772 298.173 367.609 298.161 367.445 298.161C367.069 298.161 366.733 298.24 366.439 298.4C366.147 298.556 365.917 298.775 365.746 299.055C365.576 299.332 365.491 299.648 365.491 300.004V305H363.898ZM369.655 305V296.818H371.247V305H369.655ZM370.459 295.556C370.182 295.556 369.944 295.463 369.745 295.279C369.55 295.091 369.452 294.867 369.452 294.608C369.452 294.345 369.55 294.121 369.745 293.936C369.944 293.748 370.182 293.654 370.459 293.654C370.736 293.654 370.972 293.748 371.167 293.936C371.366 294.121 371.466 294.345 371.466 294.608C371.466 294.867 371.366 295.091 371.167 295.279C370.972 295.463 370.736 295.556 370.459 295.556ZM374.983 300.142V305H373.39V296.818H374.919V298.15H375.02C375.208 297.717 375.503 297.369 375.904 297.106C376.309 296.843 376.819 296.712 377.433 296.712C377.991 296.712 378.479 296.829 378.898 297.063C379.317 297.294 379.642 297.638 379.873 298.097C380.103 298.555 380.219 299.121 380.219 299.796V305H378.626V299.988C378.626 299.395 378.472 298.931 378.163 298.597C377.854 298.26 377.429 298.091 376.89 298.091C376.52 298.091 376.192 298.171 375.904 298.331C375.62 298.491 375.395 298.725 375.228 299.034C375.064 299.339 374.983 299.709 374.983 300.142ZM385.881 305.165C385.075 305.165 384.381 304.993 383.798 304.648C383.22 304.3 382.772 303.812 382.456 303.184C382.144 302.551 381.987 301.811 381.987 300.962C381.987 300.124 382.144 299.386 382.456 298.746C382.772 298.107 383.212 297.608 383.777 297.25C384.345 296.891 385.009 296.712 385.769 296.712C386.231 296.712 386.678 296.788 387.112 296.941C387.545 297.093 387.934 297.333 388.278 297.66C388.623 297.987 388.894 298.411 389.093 298.933C389.292 299.451 389.391 300.082 389.391 300.824V301.388H382.888V300.195H387.831C387.831 299.776 387.745 299.405 387.575 299.082C387.405 298.755 387.165 298.498 386.856 298.31C386.551 298.121 386.192 298.027 385.78 298.027C385.332 298.027 384.942 298.137 384.608 298.358C384.278 298.574 384.022 298.858 383.841 299.21C383.663 299.558 383.575 299.936 383.575 300.344V301.277C383.575 301.824 383.671 302.289 383.862 302.672C384.058 303.056 384.329 303.349 384.677 303.551C385.025 303.75 385.432 303.849 385.897 303.849C386.199 303.849 386.474 303.807 386.723 303.722C386.971 303.633 387.186 303.501 387.367 303.327C387.548 303.153 387.687 302.939 387.783 302.683L389.29 302.955C389.169 303.398 388.953 303.787 388.64 304.121C388.331 304.451 387.943 304.709 387.474 304.893C387.009 305.075 386.478 305.165 385.881 305.165Z" fill="black"/>
<path d="M302.357 216.818V235H301.788V217.422H301.682L297.776 220.014V219.339L301.575 216.818H302.357ZM308.915 235L317.509 217.457V217.386H307.637V216.818H318.184V217.386L309.554 235H308.915Z" fill="black"/>
<defs>
<filter id="filter0_f_278_525" x="127" y="61" width="313" height="262.66" filterUnits="userSpaceOnUse" color-interpolation-filters="sRGB">
<feFlood flood-opacity="0" result="BackgroundImageFix"/>
<feBlend mode="normal" in="SourceGraphic" in2="BackgroundImageFix" result="shape"/>
<feGaussianBlur stdDeviation="2" result="effect1_foregroundBlur_278_525"/>
</filter>
<filter id="filter1_n_278_525" x="48" y="37" width="150" height="150" filterUnits="userSpaceOnUse" color-interpolation-filters="sRGB">
<feFlood flood-opacity="0" result="BackgroundImageFix"/>
<feBlend mode="normal" in="SourceGraphic" in2="BackgroundImageFix" result="shape"/>
<feTurbulence type="fractalNoise" baseFrequency="0.0099999997764825821 0.0099999997764825821" stitchTiles="stitch" numOctaves="3" result="noise" seed="3850" />
<feComponentTransfer in="noise" result="coloredNoise1">
<feFuncR type="linear" slope="2" intercept="-0.5" />
<feFuncG type="linear" slope="2" intercept="-0.5" />
<feFuncB type="linear" slope="2" intercept="-0.5" />
<feFuncA type="discrete" tableValues="0 0 0 0 0 0 0 0 0 0 0 0 0 0 1 1 1 1 1 1 1 1 1 1 1 1 1 1 1 1 1 1 1 1 1 0 0 0 0 0 0 0 0 0 0 0 0 0 0 0 0 0 0 0 0 0 0 0 0 0 0 0 0 0 0 0 0 0 0 0 0 0 0 0 0 0 0 0 0 0 0 0 0 0 0 0 0 0 0 0 0 0 0 0 0 0 0 0 0 0 "/>
</feComponentTransfer>
<feComposite operator="in" in2="shape" in="coloredNoise1" result="noise1Clipped" />
<feComponentTransfer in="noise1Clipped" result="color1">
<feFuncA type="table" tableValues="0 0.15" />
</feComponentTransfer>
<feMerge result="effect1_noise_278_525">
<feMergeNode in="shape" />
<feMergeNode in="color1" />
</feMerge>
</filter>
<filter id="filter2_n_278_525" x="207" y="37" width="150" height="150" filterUnits="userSpaceOnUse" color-interpolation-filters="sRGB">
<feFlood flood-opacity="0" result="BackgroundImageFix"/>
<feBlend mode="normal" in="SourceGraphic" in2="BackgroundImageFix" result="shape"/>
<feTurbulence type="fractalNoise" baseFrequency="0.019342359155416489 0.019342359155416489" stitchTiles="stitch" numOctaves="3" result="noise" seed="3850" />
<feComponentTransfer in="noise" result="coloredNoise1">
<feFuncR type="linear" slope="2" intercept="-0.5" />
<feFuncG type="linear" slope="2" intercept="-0.5" />
<feFuncB type="linear" slope="2" intercept="-0.5" />
<feFuncA type="discrete" tableValues="0 0 1 1 1 1 1 1 1 1 1 1 1 1 1 1 1 1 1 1 1 1 1 1 1 1 1 1 1 1 1 1 1 1 1 1 1 1 1 1 1 1 1 1 1 1 1 1 0 0 0 0 0 0 0 0 0 0 0 0 0 0 0 0 0 0 0 0 0 0 0 0 0 0 0 0 0 0 0 0 0 0 0 0 0 0 0 0 0 0 0 0 0 0 0 0 0 0 0 0 "/>
</feComponentTransfer>
<feComposite operator="in" in2="shape" in="coloredNoise1" result="noise1Clipped" />
<feComponentTransfer in="noise1Clipped" result="color1">
<feFuncA type="table" tableValues="0 0.15" />
</feComponentTransfer>
<feMerge result="effect1_noise_278_525">
<feMergeNode in="shape" />
<feMergeNode in="color1" />
</feMerge>
</filter>
<filter id="filter3_n_278_525" x="366" y="37" width="150" height="150" filterUnits="userSpaceOnUse" color-interpolation-filters="sRGB">
<feFlood flood-opacity="0" result="BackgroundImageFix"/>
<feBlend mode="normal" in="SourceGraphic" in2="BackgroundImageFix" result="shape"/>
<feTurbulence type="fractalNoise" baseFrequency="0.0099999997764825821 0.0099999997764825821" stitchTiles="stitch" numOctaves="3" result="noise" seed="3850" />
<feComponentTransfer in="noise" result="coloredNoise1">
<feFuncR type="linear" slope="2" intercept="-0.5" />
<feFuncG type="linear" slope="2" intercept="-0.5" />
<feFuncB type="linear" slope="2" intercept="-0.5" />
<feFuncA type="discrete" tableValues="1 1 1 1 1 1 1 1 1 1 1 1 1 1 1 1 1 1 1 1 1 1 1 1 1 1 1 1 1 1 1 1 1 1 1 1 1 1 1 1 1 1 1 1 1 1 1 1 1 1 1 0 0 0 0 0 0 0 0 0 0 0 0 0 0 0 0 0 0 0 0 0 0 0 0 0 0 0 0 0 0 0 0 0 0 0 0 0 0 0 0 0 0 0 0 0 0 0 0 0 "/>
</feComponentTransfer>
<feComposite operator="in" in2="shape" in="coloredNoise1" result="noise1Clipped" />
<feComponentTransfer in="noise1Clipped" result="color1">
<feFuncA type="table" tableValues="0 0.15" />
</feComponentTransfer>
<feMerge result="effect1_noise_278_525">
<feMergeNode in="shape" />
<feMergeNode in="color1" />
</feMerge>
</filter>
<filter id="filter4_n_278_525" x="127" y="197" width="150" height="150" filterUnits="userSpaceOnUse" color-interpolation-filters="sRGB">
<feFlood flood-opacity="0" result="BackgroundImageFix"/>
<feBlend mode="normal" in="SourceGraphic" in2="BackgroundImageFix" result="shape"/>
<feTurbulence type="fractalNoise" baseFrequency="0.012836970388889313 0.012836970388889313" stitchTiles="stitch" numOctaves="3" result="noise" seed="3850" />
<feComponentTransfer in="noise" result="coloredNoise1">
<feFuncR type="linear" slope="2" intercept="-0.5" />
<feFuncG type="linear" slope="2" intercept="-0.5" />
<feFuncB type="linear" slope="2" intercept="-0.5" />
<feFuncA type="discrete" tableValues="1 1 1 1 1 1 1 1 1 1 1 1 1 1 1 1 1 1 1 1 1 1 1 1 1 1 1 1 1 1 1 1 1 1 1 1 1 1 1 1 1 1 1 1 1 1 1 1 1 1 1 0 0 0 0 0 0 0 0 0 0 0 0 0 0 0 0 0 0 0 0 0 0 0 0 0 0 0 0 0 0 0 0 0 0 0 0 0 0 0 0 0 0 0 0 0 0 0 0 0 "/>
</feComponentTransfer>
<feComposite operator="in" in2="shape" in="coloredNoise1" result="noise1Clipped" />
<feComponentTransfer in="noise1Clipped" result="color1">
<feFuncA type="table" tableValues="0 0.15" />
</feComponentTransfer>
<feMerge result="effect1_noise_278_525">
<feMergeNode in="shape" />
<feMergeNode in="color1" />
</feMerge>
</filter>
<filter id="filter5_n_278_525" x="286" y="197" width="150" height="150" filterUnits="userSpaceOnUse" color-interpolation-filters="sRGB">
<feFlood flood-opacity="0" result="BackgroundImageFix"/>
<feBlend mode="normal" in="SourceGraphic" in2="BackgroundImageFix" result="shape"/>
<feTurbulence type="fractalNoise" baseFrequency="0.0099999997764825821 0.0099999997764825821" stitchTiles="stitch" numOctaves="3" result="noise" seed="3850" />
<feComponentTransfer in="noise" result="coloredNoise1">
<feFuncR type="linear" slope="2" intercept="-0.5" />
<feFuncG type="linear" slope="2" intercept="-0.5" />
<feFuncB type="linear" slope="2" intercept="-0.5" />
<feFuncA type="discrete" tableValues="1 1 1 1 1 1 1 1 1 1 1 1 1 1 1 1 1 1 1 1 1 1 1 1 1 1 1 1 1 1 1 1 1 1 1 1 1 1 1 1 1 1 1 1 1 1 1 1 1 1 1 0 0 0 0 0 0 0 0 0 0 0 0 0 0 0 0 0 0 0 0 0 0 0 0 0 0 0 0 0 0 0 0 0 0 0 0 0 0 0 0 0 0 0 0 0 0 0 0 0 "/>
</feComponentTransfer>
<feComposite operator="in" in2="shape" in="coloredNoise1" result="noise1Clipped" />
<feComponentTransfer in="noise1Clipped" result="color1">
<feFuncA type="table" tableValues="0 0.15" />
</feComponentTransfer>
<feMerge result="effect1_noise_278_525">
<feMergeNode in="shape" />
<feMergeNode in="color1" />
</feMerge>
</filter>
<linearGradient id="paint0_linear_278_525" x1="282" y1="0" x2="282" y2="383" gradientUnits="userSpaceOnUse">
<stop stop-color="#94AAB8"/>
<stop offset="1" stop-color="#7B8E9B"/>
</linearGradient>
<linearGradient id="paint1_linear_278_525" x1="283.5" y1="65" x2="283.5" y2="319.66" gradientUnits="userSpaceOnUse">
<stop stop-color="#F1C862"/>
<stop offset="1" stop-color="#BF8D29"/>
</linearGradient>
<linearGradient id="paint2_linear_278_525" x1="283.5" y1="65" x2="283.5" y2="319.66" gradientUnits="userSpaceOnUse">
<stop stop-color="#F1CE77"/>
<stop offset="1" stop-color="#AF7D19"/>
</linearGradient>
<linearGradient id="paint3_linear_278_525" x1="283.5" y1="65" x2="283.5" y2="319.66" gradientUnits="userSpaceOnUse">
<stop stop-color="#F1CE77"/>
<stop offset="1" stop-color="#AF7D19"/>
</linearGradient>
<linearGradient id="paint4_linear_278_525" x1="283.5" y1="65" x2="283.5" y2="319.66" gradientUnits="userSpaceOnUse">
<stop stop-color="#A6530A"/>
<stop offset="1" stop-color="#6E4B04"/>
</linearGradient>
<linearGradient id="paint5_linear_278_525" x1="283.5" y1="65" x2="283.5" y2="319.66" gradientUnits="userSpaceOnUse">
<stop stop-color="#A6530A"/>
<stop offset="1" stop-color="#6E4B04"/>
</linearGradient>
<radialGradient id="paint6_radial_278_525" cx="0" cy="0" r="1" gradientUnits="userSpaceOnUse" gradientTransform="translate(143.625 92.95) rotate(136.081) scale(86.2117)">
<stop stop-color="#6BD070"/>
<stop offset="1" stop-color="#618A55"/>
</radialGradient>
<linearGradient id="paint7_linear_278_525" x1="123" y1="37" x2="123" y2="187" gradientUnits="userSpaceOnUse">
<stop stop-color="#F9F8F8"/>
<stop offset="1" stop-color="#E6F4FF"/>
</linearGradient>
<radialGradient id="paint8_radial_278_525" cx="0" cy="0" r="1" gradientUnits="userSpaceOnUse" gradientTransform="translate(300.9 94.64) rotate(136.081) scale(80.964)">
<stop stop-color="#F15FC7"/>
<stop offset="1" stop-color="#BD1563"/>
</radialGradient>
<linearGradient id="paint9_linear_278_525" x1="282" y1="37" x2="282" y2="187" gradientUnits="userSpaceOnUse">
<stop stop-color="#F9F8F8"/>
<stop offset="1" stop-color="#E6F4FF"/>
</linearGradient>
<radialGradient id="paint10_radial_278_525" cx="0" cy="0" r="1" gradientUnits="userSpaceOnUse" gradientTransform="translate(459.625 92.95) rotate(136.081) scale(86.2117)">
<stop stop-color="#F1C35F"/>
<stop offset="1" stop-color="#CC8B00"/>
</radialGradient>
<linearGradient id="paint11_linear_278_525" x1="441" y1="37" x2="441" y2="187" gradientUnits="userSpaceOnUse">
<stop stop-color="#F9F8F8"/>
<stop offset="1" stop-color="#E6F4FF"/>
</linearGradient>
<radialGradient id="paint12_radial_278_525" cx="0" cy="0" r="1" gradientUnits="userSpaceOnUse" gradientTransform="translate(222.25 253.3) rotate(136.081) scale(82.4633)">
<stop stop-color="#C05FF1"/>
<stop offset="1" stop-color="#8515BD"/>
</radialGradient>
<linearGradient id="paint13_linear_278_525" x1="202" y1="197" x2="202" y2="347" gradientUnits="userSpaceOnUse">
<stop stop-color="#F9F8F8"/>
<stop offset="1" stop-color="#E6F4FF"/>
</linearGradient>
<radialGradient id="paint14_radial_278_525" cx="0" cy="0" r="1" gradientUnits="userSpaceOnUse" gradientTransform="translate(380.25 254.3) rotate(136.081) scale(82.4633)">
<stop stop-color="#5FF17C"/>
<stop offset="1" stop-color="#00CC36"/>
</radialGradient>
<linearGradient id="paint15_linear_278_525" x1="361" y1="197" x2="361" y2="347" gradientUnits="userSpaceOnUse">
<stop stop-color="#F9F8F8"/>
<stop offset="1" stop-color="#E6F4FF"/>
</linearGradient>
</defs>
</svg>
