<svg width="646" height="411" viewBox="0 0 646 411" fill="none" xmlns="http://www.w3.org/2000/svg">
<rect width="646" height="411" fill="url(#paint0_linear_311_692)"/>
<g opacity="0.25" filter="url(#filter0_f_311_692)">
<path d="M168.015 106.325L224.277 140.379L258.33 119.65L279.058 147.782L313.112 93H364.932L394.544 119.65L379.738 181.835L436 218.85L388.621 285.476L329.398 347.66L267.214 331.374L218.354 285.476L162.092 241.058L131 181.835L145.806 112.248L168.015 106.325Z" fill="url(#paint1_linear_311_692)"/>
<path d="M267.214 331.374L218.354 285.476L190.223 263.267L162.092 241.058L135.664 190.718L141.364 189.238L145.806 192.199L151.728 196.641L162.092 195.16L170.976 189.238L181.34 187.757L190.223 192.199L196.146 199.602L187.262 211.447L179.859 229.214L185.782 245.5L188.743 257.345L190.223 263.267L218.354 285.476L267.214 331.374L329.398 347.66L388.621 285.476V275.112L394.544 263.267L403.427 249.942V238.097L400.466 233.655L394.544 238.097L379.738 233.655L375.296 223.291L379.738 211.447L382.699 204.044L379.738 181.835L436 218.85L388.621 285.476L329.398 347.66L267.214 331.374Z" fill="url(#paint2_linear_311_692)"/>
<path d="M267.214 218.85L279.058 211.447L284.981 199.602H301.267L313.112 189.238L308.67 204.044L316.073 218.85L313.112 241.058L301.267 257.345L287.942 272.15V289.917H279.058L274.617 275.112L258.33 267.709L239.083 257.345L233.16 245.5V229.214L250.927 226.252L267.214 218.85Z" fill="url(#paint3_linear_311_692)"/>
<path d="M162.092 241.058L131 181.835L141.364 189.238L150.248 208.485L162.092 223.291L170.976 214.408V199.602L190.223 189.238L209.471 177.393H231.68L242.044 189.238L221.316 208.485L194.665 218.85L206.51 230.694L216.874 232.175L212.432 245.5V257.345L216.874 273.631L221.316 279.553L228.718 289.917L242.044 301.762L246.485 298.801L253.888 301.762H258.33L270.175 304.723L277.578 289.917L287.942 281.034L292.383 285.476L289.422 292.879L299.786 298.801L302.748 310.646L299.786 322.49L295.345 326.932L304.228 335.816L314.592 341.738H326.437L332.359 337.296L338.282 326.932L348.646 319.529L353.087 312.126L363.451 304.723L370.854 297.32L381.218 288.437L388.621 283.995L394.544 277.147L388.621 285.476L329.398 347.66L267.214 331.374L218.354 285.476L162.092 241.058Z" fill="url(#paint4_linear_311_692)"/>
<path d="M341.243 107.806H347.165L351.607 103.364L360.49 100.403L373.816 103.364L381.218 112.248L379.738 116.689H375.296L364.932 118.17L356.049 121.131L350.126 131.495L345.684 141.859H336.801V135.937L327.917 134.456L323.476 132.976V125.573L330.879 121.131L336.801 116.689L339.762 112.248L341.243 107.806Z" fill="url(#paint5_linear_311_692)"/>
</g>
<circle cx="123.5" cy="140.5" r="57.5" fill="url(#paint6_radial_311_692)"/>
<g filter="url(#filter1_n_311_692)">
<rect x="48" y="65" width="150" height="150" rx="15" fill="url(#paint7_linear_311_692)" fill-opacity="0.5"/>
<rect x="50.5" y="67.5" width="145" height="145" rx="12.5" stroke="#D2ECFF" stroke-width="5"/>
</g>
<path d="M124.663 136.545H115.651C115.587 135.8 115.416 135.123 115.139 134.516C114.873 133.909 114.5 133.387 114.021 132.95C113.552 132.502 112.982 132.162 112.311 131.927C111.64 131.682 110.878 131.56 110.026 131.56C108.534 131.56 107.272 131.922 106.238 132.646C105.216 133.371 104.438 134.409 103.905 135.762C103.383 137.115 103.122 138.74 103.122 140.636C103.122 142.639 103.388 144.317 103.921 145.67C104.464 147.012 105.248 148.025 106.27 148.706C107.293 149.377 108.523 149.713 109.962 149.713C110.782 149.713 111.517 149.612 112.167 149.409C112.817 149.196 113.381 148.893 113.861 148.499C114.34 148.104 114.729 147.63 115.027 147.076C115.336 146.512 115.544 145.878 115.651 145.175L124.663 145.239C124.557 146.624 124.168 148.035 123.497 149.473C122.826 150.901 121.872 152.222 120.636 153.436C119.411 154.64 117.893 155.61 116.082 156.345C114.271 157.08 112.167 157.447 109.77 157.447C106.766 157.447 104.07 156.803 101.684 155.514C99.3082 154.225 97.4279 152.328 96.043 149.825C94.6687 147.321 93.9815 144.259 93.9815 140.636C93.9815 136.993 94.6847 133.925 96.0909 131.432C97.4972 128.928 99.3935 127.037 101.78 125.759C104.166 124.47 106.83 123.825 109.77 123.825C111.837 123.825 113.738 124.108 115.475 124.672C117.211 125.237 118.735 126.062 120.045 127.149C121.355 128.225 122.41 129.551 123.209 131.128C124.008 132.705 124.493 134.511 124.663 136.545ZM135.662 157.384C134.096 157.384 132.711 157.128 131.507 156.616C130.314 156.094 129.376 155.306 128.694 154.251C128.013 153.197 127.672 151.854 127.672 150.224C127.672 148.882 127.901 147.737 128.359 146.789C128.817 145.83 129.456 145.047 130.276 144.44C131.097 143.832 132.05 143.369 133.137 143.049C134.234 142.73 135.417 142.522 136.684 142.426C138.059 142.32 139.161 142.192 139.992 142.043C140.834 141.883 141.441 141.664 141.814 141.387C142.187 141.1 142.373 140.722 142.373 140.253V140.189C142.373 139.55 142.128 139.06 141.638 138.719C141.148 138.378 140.52 138.207 139.753 138.207C138.911 138.207 138.224 138.394 137.691 138.767C137.169 139.129 136.855 139.688 136.748 140.445H128.63C128.737 138.953 129.211 137.579 130.053 136.322C130.905 135.054 132.146 134.042 133.776 133.286C135.406 132.518 137.441 132.135 139.88 132.135C141.638 132.135 143.215 132.343 144.611 132.758C146.006 133.163 147.194 133.733 148.174 134.468C149.154 135.192 149.9 136.045 150.411 137.025C150.933 137.994 151.194 139.049 151.194 140.189V157H142.949V153.548H142.757C142.267 154.464 141.67 155.205 140.967 155.77C140.275 156.334 139.481 156.744 138.586 157C137.702 157.256 136.727 157.384 135.662 157.384ZM138.538 151.822C139.209 151.822 139.838 151.684 140.424 151.407C141.02 151.13 141.505 150.73 141.878 150.208C142.251 149.686 142.437 149.053 142.437 148.307V146.261C142.203 146.357 141.953 146.448 141.686 146.533C141.43 146.618 141.153 146.698 140.855 146.773C140.568 146.847 140.259 146.917 139.928 146.98C139.609 147.044 139.273 147.103 138.922 147.156C138.24 147.263 137.68 147.439 137.244 147.684C136.818 147.918 136.498 148.211 136.285 148.562C136.082 148.903 135.981 149.287 135.981 149.713C135.981 150.395 136.221 150.917 136.7 151.279C137.18 151.641 137.792 151.822 138.538 151.822Z" fill="black"/>
<path d="M104.259 166.638H102.597C102.533 166.283 102.414 165.971 102.24 165.701C102.066 165.431 101.853 165.202 101.601 165.014C101.349 164.826 101.067 164.684 100.754 164.588C100.445 164.492 100.117 164.444 99.7688 164.444C99.1403 164.444 98.5774 164.602 98.0803 164.918C97.5866 165.234 97.196 165.697 96.9084 166.308C96.6243 166.919 96.4822 167.665 96.4822 168.545C96.4822 169.433 96.6243 170.183 96.9084 170.793C97.196 171.404 97.5884 171.866 98.0856 172.178C98.5827 172.491 99.142 172.647 99.7635 172.647C100.108 172.647 100.435 172.601 100.744 172.509C101.056 172.413 101.338 172.272 101.591 172.088C101.843 171.903 102.056 171.678 102.23 171.411C102.407 171.141 102.53 170.832 102.597 170.484L104.259 170.49C104.17 171.026 103.998 171.52 103.743 171.971C103.49 172.418 103.165 172.805 102.768 173.132C102.374 173.455 101.923 173.705 101.415 173.883C100.907 174.06 100.353 174.149 99.7528 174.149C98.8082 174.149 97.9666 173.925 97.228 173.478C96.4893 173.027 95.907 172.382 95.4808 171.544C95.0582 170.706 94.8469 169.707 94.8469 168.545C94.8469 167.381 95.06 166.381 95.4862 165.547C95.9123 164.708 96.4947 164.066 97.2333 163.618C97.9719 163.167 98.8118 162.942 99.7528 162.942C100.332 162.942 100.871 163.025 101.372 163.192C101.876 163.355 102.329 163.597 102.73 163.917C103.132 164.233 103.464 164.62 103.727 165.078C103.989 165.532 104.167 166.053 104.259 166.638ZM108.482 174.181C107.964 174.181 107.495 174.085 107.076 173.893C106.657 173.698 106.325 173.416 106.08 173.047C105.838 172.677 105.717 172.224 105.717 171.688C105.717 171.227 105.806 170.847 105.984 170.548C106.161 170.25 106.401 170.014 106.703 169.84C107.005 169.666 107.342 169.534 107.715 169.446C108.088 169.357 108.468 169.289 108.855 169.243C109.345 169.186 109.743 169.14 110.048 169.105C110.353 169.066 110.575 169.004 110.714 168.918C110.852 168.833 110.922 168.695 110.922 168.503V168.466C110.922 168 110.79 167.64 110.527 167.384C110.268 167.129 109.881 167.001 109.366 167.001C108.83 167.001 108.407 167.12 108.098 167.358C107.793 167.592 107.582 167.853 107.465 168.141L105.968 167.8C106.145 167.303 106.405 166.901 106.745 166.596C107.09 166.287 107.486 166.063 107.933 165.925C108.381 165.783 108.851 165.712 109.345 165.712C109.672 165.712 110.018 165.751 110.384 165.829C110.753 165.903 111.097 166.042 111.417 166.244C111.74 166.447 112.005 166.736 112.211 167.113C112.417 167.485 112.52 167.97 112.52 168.567V174H110.964V172.881H110.9C110.797 173.087 110.643 173.29 110.437 173.489C110.231 173.687 109.966 173.853 109.643 173.984C109.32 174.115 108.933 174.181 108.482 174.181ZM108.828 172.903C109.269 172.903 109.645 172.816 109.957 172.642C110.274 172.468 110.513 172.24 110.677 171.96C110.843 171.676 110.927 171.372 110.927 171.049V169.994C110.87 170.051 110.76 170.104 110.597 170.154C110.437 170.2 110.254 170.241 110.048 170.277C109.842 170.309 109.641 170.339 109.446 170.367C109.251 170.392 109.087 170.413 108.956 170.431C108.647 170.47 108.365 170.536 108.109 170.628C107.857 170.721 107.655 170.854 107.502 171.028C107.353 171.198 107.278 171.425 107.278 171.71C107.278 172.104 107.424 172.402 107.715 172.604C108.006 172.803 108.377 172.903 108.828 172.903ZM116.234 163.091V174H114.641V163.091H116.234ZM121.823 174.165C121.031 174.165 120.349 173.986 119.777 173.627C119.209 173.265 118.772 172.766 118.467 172.13C118.161 171.495 118.009 170.767 118.009 169.946C118.009 169.115 118.165 168.382 118.478 167.746C118.79 167.107 119.23 166.608 119.799 166.25C120.367 165.891 121.036 165.712 121.807 165.712C122.428 165.712 122.982 165.827 123.469 166.058C123.955 166.285 124.348 166.605 124.646 167.017C124.948 167.429 125.127 167.91 125.184 168.46H123.634C123.549 168.077 123.353 167.746 123.048 167.469C122.746 167.192 122.341 167.054 121.833 167.054C121.389 167.054 121.001 167.171 120.667 167.406C120.337 167.636 120.079 167.967 119.894 168.396C119.71 168.822 119.617 169.327 119.617 169.909C119.617 170.506 119.708 171.021 119.889 171.454C120.07 171.887 120.326 172.223 120.656 172.461C120.99 172.699 121.382 172.817 121.833 172.817C122.135 172.817 122.409 172.762 122.654 172.652C122.902 172.539 123.11 172.377 123.277 172.168C123.447 171.958 123.566 171.706 123.634 171.411H125.184C125.127 171.94 124.955 172.413 124.667 172.828C124.38 173.244 123.994 173.57 123.511 173.808C123.032 174.046 122.469 174.165 121.823 174.165ZM126.887 174V165.818H128.48V174H126.887ZM127.691 164.556C127.414 164.556 127.176 164.463 126.978 164.279C126.782 164.091 126.685 163.867 126.685 163.608C126.685 163.345 126.782 163.121 126.978 162.936C127.176 162.748 127.414 162.654 127.691 162.654C127.968 162.654 128.205 162.748 128.4 162.936C128.599 163.121 128.698 163.345 128.698 163.608C128.698 163.867 128.599 164.091 128.4 164.279C128.205 164.463 127.968 164.556 127.691 164.556ZM135.805 170.607V165.818H137.403V174H135.837V172.583H135.752C135.564 173.02 135.262 173.384 134.847 173.675C134.435 173.963 133.921 174.107 133.307 174.107C132.782 174.107 132.316 173.991 131.911 173.76C131.51 173.526 131.194 173.18 130.963 172.722C130.736 172.263 130.622 171.697 130.622 171.022V165.818H132.215V170.831C132.215 171.388 132.37 171.832 132.679 172.162C132.987 172.493 133.389 172.658 133.882 172.658C134.181 172.658 134.477 172.583 134.772 172.434C135.07 172.285 135.317 172.059 135.512 171.757C135.711 171.456 135.809 171.072 135.805 170.607ZM139.543 174V165.818H141.072V167.15H141.173C141.344 166.699 141.623 166.347 142.01 166.095C142.397 165.839 142.86 165.712 143.4 165.712C143.947 165.712 144.405 165.839 144.774 166.095C145.147 166.351 145.422 166.702 145.6 167.15H145.685C145.88 166.713 146.191 166.365 146.617 166.106C147.043 165.843 147.551 165.712 148.141 165.712C148.883 165.712 149.488 165.944 149.957 166.409C150.429 166.875 150.665 167.576 150.665 168.513V174H149.073V168.663C149.073 168.109 148.922 167.707 148.62 167.459C148.318 167.21 147.958 167.086 147.539 167.086C147.02 167.086 146.617 167.246 146.33 167.565C146.042 167.881 145.898 168.288 145.898 168.785V174H144.311V168.561C144.311 168.118 144.172 167.761 143.895 167.491C143.618 167.221 143.258 167.086 142.814 167.086C142.512 167.086 142.233 167.166 141.978 167.326C141.725 167.482 141.521 167.7 141.365 167.981C141.212 168.261 141.136 168.586 141.136 168.956V174H139.543Z" fill="black"/>
<path d="M60.3082 103V102.538L66.1321 95.6491C67.0436 94.572 67.7538 93.6723 68.2628 92.9503C68.7718 92.2223 69.1299 91.5772 69.337 91.0149C69.5442 90.4467 69.6477 89.8608 69.6477 89.2571C69.6477 88.464 69.4643 87.7567 69.0973 87.1353C68.7363 86.5138 68.2391 86.0256 67.6058 85.6705C66.9785 85.3153 66.2623 85.1378 65.4574 85.1378C64.617 85.1378 63.8771 85.3301 63.2379 85.7148C62.5987 86.0936 62.0986 86.6026 61.7376 87.2418C61.3765 87.881 61.196 88.5883 61.196 89.3636H60.6278C60.6278 88.4818 60.832 87.6798 61.2404 86.9577C61.6547 86.2298 62.2229 85.6497 62.945 85.2177C63.6729 84.7856 64.5104 84.5696 65.4574 84.5696C66.3688 84.5696 67.1826 84.7738 67.8988 85.1822C68.6149 85.5846 69.1802 86.141 69.5945 86.8512C70.0088 87.5555 70.2159 88.3575 70.2159 89.2571C70.2159 89.9259 70.1035 90.5651 69.8786 91.1747C69.6596 91.7843 69.2837 92.465 68.7511 93.2166C68.2243 93.9683 67.4934 94.8975 66.5582 96.0043L61.196 102.361V102.432H71.2812V103H60.3082ZM80.9137 103.249C79.7596 103.249 78.7653 102.873 77.9308 102.121C77.1022 101.369 76.4629 100.295 76.0131 98.8984C75.5633 97.5017 75.3384 95.8385 75.3384 93.9091C75.3384 91.9796 75.5633 90.3165 76.0131 88.9197C76.4629 87.523 77.1022 86.4487 77.9308 85.6971C78.7653 84.9454 79.7596 84.5696 80.9137 84.5696C82.0678 84.5696 83.0592 84.9454 83.8878 85.6971C84.7223 86.4487 85.3645 87.523 85.8143 88.9197C86.2641 90.3165 86.489 91.9796 86.489 93.9091C86.489 95.8385 86.2641 97.5017 85.8143 98.8984C85.3645 100.295 84.7223 101.369 83.8878 102.121C83.0592 102.873 82.0678 103.249 80.9137 103.249ZM80.9137 102.68C82.4644 102.68 83.6866 101.902 84.5803 100.346C85.474 98.7889 85.9208 96.6435 85.9208 93.9091C85.9208 92.0862 85.7166 90.5207 85.3082 89.2127C84.9058 87.8988 84.3317 86.8926 83.5859 86.1942C82.8402 85.4899 81.9495 85.1378 80.9137 85.1378C79.363 85.1378 78.1409 85.9161 77.2472 87.4727C76.3535 89.0292 75.9066 91.1747 75.9066 93.9091C75.9066 95.732 76.1078 97.3004 76.5103 98.6143C76.9187 99.9223 77.4957 100.929 78.2415 101.633C78.9931 102.331 79.8839 102.68 80.9137 102.68Z" fill="black"/>
<circle cx="282" cy="141" r="54" fill="url(#paint8_radial_311_692)"/>
<g filter="url(#filter2_n_311_692)">
<rect x="207" y="65" width="150" height="150" rx="15" fill="url(#paint9_linear_311_692)" fill-opacity="0.5"/>
<rect x="209.5" y="67.5" width="145" height="145" rx="12.5" stroke="#D2ECFF" stroke-width="5"/>
</g>
<path d="M248.109 124.273H259.168L266.774 142.81H267.158L274.764 124.273H285.822V157H277.129V138.08H276.874L269.587 156.744H264.345L257.058 137.952H256.803V157H248.109V124.273ZM301.986 166.716C299.525 166.716 297.416 166.364 295.658 165.661C293.911 164.969 292.553 164.01 291.583 162.785C290.624 161.57 290.086 160.175 289.969 158.598H298.471C298.556 159.12 298.769 159.541 299.11 159.86C299.451 160.18 299.888 160.409 300.42 160.548C300.964 160.697 301.571 160.771 302.242 160.771C303.382 160.771 304.325 160.494 305.07 159.94C305.827 159.386 306.205 158.385 306.205 156.936V152.781H305.949C305.63 153.612 305.14 154.321 304.479 154.907C303.819 155.482 303.025 155.924 302.098 156.233C301.171 156.531 300.154 156.68 299.046 156.68C297.299 156.68 295.69 156.276 294.22 155.466C292.76 154.656 291.589 153.373 290.704 151.615C289.831 149.857 289.394 147.561 289.394 144.727C289.394 141.766 289.852 139.358 290.768 137.504C291.695 135.651 292.888 134.292 294.348 133.429C295.818 132.566 297.363 132.135 298.982 132.135C300.197 132.135 301.262 132.348 302.178 132.774C303.094 133.19 303.861 133.749 304.479 134.452C305.097 135.145 305.566 135.906 305.885 136.737H306.077V132.455H314.898V156.936C314.898 159.013 314.36 160.777 313.284 162.225C312.219 163.685 310.717 164.798 308.778 165.565C306.839 166.332 304.575 166.716 301.986 166.716ZM302.306 150.416C303.116 150.416 303.808 150.192 304.383 149.745C304.969 149.287 305.417 148.637 305.726 147.795C306.045 146.943 306.205 145.92 306.205 144.727C306.205 143.513 306.045 142.474 305.726 141.611C305.417 140.738 304.969 140.072 304.383 139.614C303.808 139.145 303.116 138.911 302.306 138.911C301.496 138.911 300.804 139.145 300.229 139.614C299.664 140.072 299.227 140.738 298.918 141.611C298.62 142.474 298.471 143.513 298.471 144.727C298.471 145.942 298.62 146.975 298.918 147.827C299.227 148.669 299.664 149.314 300.229 149.761C300.804 150.198 301.496 150.416 302.306 150.416Z" fill="black"/>
<path d="M241.199 163.091H243.196L246.669 171.571H246.797L250.27 163.091H252.267V174H250.701V166.106H250.6L247.383 173.984H246.083L242.866 166.1H242.765V174H241.199V163.091ZM256.914 174.181C256.395 174.181 255.926 174.085 255.507 173.893C255.088 173.698 254.756 173.416 254.511 173.047C254.27 172.677 254.149 172.224 254.149 171.688C254.149 171.227 254.238 170.847 254.415 170.548C254.593 170.25 254.833 170.014 255.134 169.84C255.436 169.666 255.774 169.534 256.147 169.446C256.519 169.357 256.899 169.289 257.286 169.243C257.777 169.186 258.174 169.14 258.48 169.105C258.785 169.066 259.007 169.004 259.146 168.918C259.284 168.833 259.353 168.695 259.353 168.503V168.466C259.353 168 259.222 167.64 258.959 167.384C258.7 167.129 258.313 167.001 257.798 167.001C257.262 167.001 256.839 167.12 256.53 167.358C256.225 167.592 256.013 167.853 255.896 168.141L254.399 167.8C254.577 167.303 254.836 166.901 255.177 166.596C255.522 166.287 255.918 166.063 256.365 165.925C256.812 165.783 257.283 165.712 257.777 165.712C258.103 165.712 258.449 165.751 258.815 165.829C259.185 165.903 259.529 166.042 259.849 166.244C260.172 166.447 260.436 166.736 260.642 167.113C260.848 167.485 260.951 167.97 260.951 168.567V174H259.396V172.881H259.332C259.229 173.087 259.074 173.29 258.869 173.489C258.663 173.687 258.398 173.853 258.075 173.984C257.752 174.115 257.365 174.181 256.914 174.181ZM257.26 172.903C257.7 172.903 258.077 172.816 258.389 172.642C258.705 172.468 258.945 172.24 259.108 171.96C259.275 171.676 259.359 171.372 259.359 171.049V169.994C259.302 170.051 259.192 170.104 259.028 170.154C258.869 170.2 258.686 170.241 258.48 170.277C258.274 170.309 258.073 170.339 257.878 170.367C257.682 170.392 257.519 170.413 257.388 170.431C257.079 170.47 256.796 170.536 256.541 170.628C256.289 170.721 256.086 170.854 255.934 171.028C255.784 171.198 255.71 171.425 255.71 171.71C255.71 172.104 255.855 172.402 256.147 172.604C256.438 172.803 256.809 172.903 257.26 172.903ZM266.503 177.239C265.853 177.239 265.294 177.153 264.825 176.983C264.36 176.813 263.98 176.587 263.685 176.306C263.39 176.026 263.17 175.719 263.025 175.385L264.394 174.82C264.49 174.977 264.617 175.142 264.777 175.316C264.941 175.493 265.161 175.644 265.438 175.768C265.718 175.893 266.079 175.955 266.519 175.955C267.123 175.955 267.622 175.808 268.016 175.513C268.41 175.222 268.607 174.756 268.607 174.117V172.509H268.506C268.41 172.683 268.271 172.876 268.09 173.089C267.913 173.302 267.668 173.487 267.355 173.643C267.043 173.799 266.636 173.877 266.135 173.877C265.489 173.877 264.907 173.727 264.388 173.425C263.873 173.119 263.465 172.67 263.163 172.077C262.865 171.48 262.716 170.747 262.716 169.877C262.716 169.007 262.863 168.261 263.158 167.64C263.456 167.018 263.865 166.543 264.383 166.212C264.901 165.879 265.489 165.712 266.146 165.712C266.654 165.712 267.064 165.797 267.377 165.967C267.689 166.134 267.932 166.33 268.106 166.553C268.284 166.777 268.421 166.974 268.517 167.145H268.634V165.818H270.194V174.181C270.194 174.884 270.031 175.461 269.704 175.912C269.378 176.363 268.936 176.697 268.378 176.914C267.824 177.13 267.199 177.239 266.503 177.239ZM266.487 172.556C266.945 172.556 267.332 172.45 267.648 172.237C267.968 172.02 268.209 171.711 268.373 171.31C268.54 170.905 268.623 170.42 268.623 169.856C268.623 169.305 268.541 168.821 268.378 168.402C268.215 167.983 267.975 167.656 267.659 167.422C267.343 167.184 266.952 167.065 266.487 167.065C266.008 167.065 265.608 167.189 265.289 167.438C264.969 167.683 264.727 168.016 264.564 168.439C264.404 168.862 264.324 169.334 264.324 169.856C264.324 170.392 264.406 170.863 264.569 171.267C264.733 171.672 264.974 171.988 265.294 172.216C265.617 172.443 266.015 172.556 266.487 172.556ZM273.923 169.142V174H272.33V165.818H273.859V167.15H273.96C274.149 166.717 274.443 166.369 274.845 166.106C275.249 165.843 275.759 165.712 276.373 165.712C276.931 165.712 277.419 165.829 277.838 166.063C278.257 166.294 278.582 166.638 278.813 167.097C279.044 167.555 279.159 168.121 279.159 168.796V174H277.567V168.988C277.567 168.395 277.412 167.931 277.103 167.597C276.794 167.26 276.37 167.091 275.83 167.091C275.461 167.091 275.132 167.171 274.845 167.331C274.561 167.491 274.335 167.725 274.168 168.034C274.005 168.339 273.923 168.709 273.923 169.142ZM284.822 174.165C284.015 174.165 283.321 173.993 282.739 173.648C282.16 173.3 281.713 172.812 281.396 172.184C281.084 171.551 280.928 170.811 280.928 169.962C280.928 169.124 281.084 168.386 281.396 167.746C281.713 167.107 282.153 166.608 282.718 166.25C283.286 165.891 283.95 165.712 284.71 165.712C285.171 165.712 285.619 165.788 286.052 165.941C286.485 166.093 286.874 166.333 287.219 166.66C287.563 166.987 287.835 167.411 288.034 167.933C288.232 168.451 288.332 169.082 288.332 169.824V170.388H281.828V169.195H286.771C286.771 168.776 286.686 168.405 286.515 168.082C286.345 167.755 286.105 167.498 285.796 167.31C285.491 167.121 285.132 167.027 284.72 167.027C284.273 167.027 283.882 167.137 283.548 167.358C283.218 167.574 282.963 167.858 282.781 168.21C282.604 168.558 282.515 168.936 282.515 169.344V170.277C282.515 170.824 282.611 171.289 282.803 171.672C282.998 172.056 283.27 172.349 283.618 172.551C283.966 172.75 284.372 172.849 284.838 172.849C285.139 172.849 285.415 172.807 285.663 172.722C285.912 172.633 286.127 172.501 286.308 172.327C286.489 172.153 286.627 171.939 286.723 171.683L288.231 171.955C288.11 172.398 287.893 172.787 287.581 173.121C287.272 173.451 286.883 173.709 286.414 173.893C285.949 174.075 285.418 174.165 284.822 174.165ZM296.23 167.816L294.786 168.071C294.726 167.887 294.63 167.711 294.499 167.544C294.371 167.377 294.197 167.24 293.977 167.134C293.757 167.027 293.481 166.974 293.151 166.974C292.7 166.974 292.324 167.075 292.022 167.278C291.72 167.477 291.569 167.734 291.569 168.05C291.569 168.324 291.67 168.544 291.873 168.711C292.075 168.877 292.402 169.014 292.853 169.121L294.153 169.419C294.905 169.593 295.467 169.861 295.836 170.223C296.205 170.586 296.39 171.056 296.39 171.635C296.39 172.125 296.248 172.562 295.964 172.945C295.683 173.325 295.291 173.624 294.786 173.84C294.286 174.057 293.705 174.165 293.045 174.165C292.128 174.165 291.381 173.97 290.802 173.579C290.223 173.185 289.868 172.626 289.737 171.901L291.276 171.667C291.372 172.068 291.569 172.372 291.867 172.578C292.166 172.78 292.555 172.881 293.034 172.881C293.556 172.881 293.973 172.773 294.286 172.556C294.598 172.336 294.755 172.068 294.755 171.752C294.755 171.496 294.659 171.282 294.467 171.108C294.279 170.934 293.989 170.802 293.599 170.713L292.214 170.41C291.45 170.236 290.886 169.959 290.52 169.579C290.158 169.199 289.976 168.718 289.976 168.135C289.976 167.652 290.111 167.23 290.381 166.868C290.651 166.505 291.024 166.223 291.5 166.021C291.976 165.815 292.521 165.712 293.135 165.712C294.019 165.712 294.715 165.903 295.223 166.287C295.731 166.667 296.067 167.176 296.23 167.816ZM298.141 174V165.818H299.734V174H298.141ZM298.945 164.556C298.668 164.556 298.43 164.463 298.232 164.279C298.036 164.091 297.939 163.867 297.939 163.608C297.939 163.345 298.036 163.121 298.232 162.936C298.43 162.748 298.668 162.654 298.945 162.654C299.222 162.654 299.458 162.748 299.654 162.936C299.853 163.121 299.952 163.345 299.952 163.608C299.952 163.867 299.853 164.091 299.654 164.279C299.458 164.463 299.222 164.556 298.945 164.556ZM307.059 170.607V165.818H308.657V174H307.091V172.583H307.006C306.818 173.02 306.516 173.384 306.1 173.675C305.688 173.963 305.175 174.107 304.561 174.107C304.035 174.107 303.57 173.991 303.165 173.76C302.764 173.526 302.448 173.18 302.217 172.722C301.99 172.263 301.876 171.697 301.876 171.022V165.818H303.469V170.831C303.469 171.388 303.623 171.832 303.932 172.162C304.241 172.493 304.643 172.658 305.136 172.658C305.435 172.658 305.731 172.583 306.026 172.434C306.324 172.285 306.571 172.059 306.766 171.757C306.965 171.456 307.063 171.072 307.059 170.607ZM310.797 174V165.818H312.326V167.15H312.427C312.598 166.699 312.876 166.347 313.263 166.095C313.651 165.839 314.114 165.712 314.654 165.712C315.201 165.712 315.659 165.839 316.028 166.095C316.401 166.351 316.676 166.702 316.854 167.15H316.939C317.134 166.713 317.445 166.365 317.871 166.106C318.297 165.843 318.805 165.712 319.395 165.712C320.137 165.712 320.742 165.944 321.211 166.409C321.683 166.875 321.919 167.576 321.919 168.513V174H320.327V168.663C320.327 168.109 320.176 167.707 319.874 167.459C319.572 167.21 319.212 167.086 318.793 167.086C318.274 167.086 317.871 167.246 317.583 167.565C317.296 167.881 317.152 168.288 317.152 168.785V174H315.565V168.561C315.565 168.118 315.426 167.761 315.149 167.491C314.872 167.221 314.512 167.086 314.068 167.086C313.766 167.086 313.487 167.166 313.232 167.326C312.979 167.482 312.775 167.7 312.619 167.981C312.466 168.261 312.39 168.586 312.39 168.956V174H310.797Z" fill="black"/>
<path d="M223.357 84.8182V103H222.788V85.4219H222.682L218.776 88.0142V87.3395L222.575 84.8182H223.357ZM229.489 103V102.538L235.313 95.6491C236.224 94.572 236.934 93.6723 237.443 92.9503C237.952 92.2223 238.311 91.5772 238.518 91.0149C238.725 90.4467 238.828 89.8608 238.828 89.2571C238.828 88.464 238.645 87.7567 238.278 87.1353C237.917 86.5138 237.42 86.0256 236.786 85.6705C236.159 85.3153 235.443 85.1378 234.638 85.1378C233.798 85.1378 233.058 85.3301 232.419 85.7148C231.779 86.0936 231.279 86.6026 230.918 87.2418C230.557 87.881 230.377 88.5883 230.377 89.3636H229.809C229.809 88.4818 230.013 87.6798 230.421 86.9577C230.835 86.2298 231.404 85.6497 232.126 85.2177C232.854 84.7856 233.691 84.5696 234.638 84.5696C235.55 84.5696 236.363 84.7738 237.079 85.1822C237.796 85.5846 238.361 86.141 238.775 86.8512C239.189 87.5555 239.397 88.3575 239.397 89.2571C239.397 89.9259 239.284 90.5651 239.059 91.1747C238.84 91.7843 238.464 92.465 237.932 93.2166C237.405 93.9683 236.674 94.8975 235.739 96.0043L230.377 102.361V102.432H240.462V103H229.489Z" fill="black"/>
<circle cx="439.5" cy="140.5" r="57.5" fill="url(#paint10_radial_311_692)"/>
<g filter="url(#filter3_n_311_692)">
<rect x="366" y="65" width="150" height="150" rx="15" fill="url(#paint11_linear_311_692)" fill-opacity="0.5"/>
<rect x="368.5" y="67.5" width="145" height="145" rx="12.5" stroke="#D2ECFF" stroke-width="5"/>
</g>
<path d="M426.109 157V124.273H434.994V137.504H435.442L445.286 124.273H455.641L444.582 138.847L455.896 157H445.286L437.935 144.727L434.994 148.562V157H426.109Z" fill="black"/>
<path d="M403.199 178V167.091H407.087C407.936 167.091 408.639 167.245 409.196 167.554C409.754 167.863 410.171 168.286 410.448 168.822C410.725 169.355 410.864 169.955 410.864 170.623C410.864 171.294 410.723 171.897 410.443 172.434C410.166 172.966 409.747 173.389 409.186 173.701C408.628 174.01 407.927 174.165 407.082 174.165H404.408V172.769H406.933C407.469 172.769 407.904 172.677 408.238 172.492C408.571 172.304 408.816 172.048 408.973 171.725C409.129 171.402 409.207 171.034 409.207 170.623C409.207 170.211 409.129 169.845 408.973 169.525C408.816 169.206 408.57 168.955 408.232 168.774C407.898 168.593 407.458 168.502 406.911 168.502H404.844V178H403.199ZM416.009 178.165C415.242 178.165 414.573 177.989 414.001 177.638C413.429 177.286 412.985 176.794 412.669 176.162C412.353 175.53 412.195 174.792 412.195 173.946C412.195 173.098 412.353 172.355 412.669 171.72C412.985 171.084 413.429 170.591 414.001 170.239C414.573 169.887 415.242 169.712 416.009 169.712C416.776 169.712 417.446 169.887 418.017 170.239C418.589 170.591 419.033 171.084 419.349 171.72C419.665 172.355 419.823 173.098 419.823 173.946C419.823 174.792 419.665 175.53 419.349 176.162C419.033 176.794 418.589 177.286 418.017 177.638C417.446 177.989 416.776 178.165 416.009 178.165ZM416.015 176.828C416.512 176.828 416.924 176.697 417.25 176.434C417.577 176.171 417.819 175.821 417.975 175.385C418.135 174.948 418.214 174.467 418.214 173.941C418.214 173.419 418.135 172.94 417.975 172.503C417.819 172.062 417.577 171.709 417.25 171.443C416.924 171.176 416.512 171.043 416.015 171.043C415.514 171.043 415.098 171.176 414.768 171.443C414.441 171.709 414.198 172.062 414.038 172.503C413.882 172.94 413.804 173.419 413.804 173.941C413.804 174.467 413.882 174.948 414.038 175.385C414.198 175.821 414.441 176.171 414.768 176.434C415.098 176.697 415.514 176.828 416.015 176.828ZM425.42 169.818V171.097H420.951V169.818H425.42ZM422.15 167.858H423.742V175.598C423.742 175.907 423.788 176.139 423.881 176.295C423.973 176.448 424.092 176.553 424.238 176.61C424.387 176.663 424.548 176.69 424.722 176.69C424.85 176.69 424.962 176.681 425.058 176.663C425.154 176.645 425.228 176.631 425.282 176.62L425.569 177.936C425.477 177.972 425.346 178.007 425.175 178.043C425.005 178.082 424.792 178.103 424.536 178.107C424.117 178.114 423.726 178.039 423.364 177.883C423.002 177.727 422.709 177.485 422.485 177.158C422.261 176.832 422.15 176.422 422.15 175.928V167.858ZM429.563 178.181C429.045 178.181 428.576 178.085 428.157 177.893C427.738 177.698 427.406 177.416 427.161 177.047C426.919 176.677 426.798 176.224 426.798 175.688C426.798 175.227 426.887 174.847 427.065 174.548C427.242 174.25 427.482 174.014 427.784 173.84C428.086 173.666 428.423 173.534 428.796 173.446C429.169 173.357 429.549 173.289 429.936 173.243C430.426 173.186 430.824 173.14 431.129 173.105C431.434 173.066 431.656 173.004 431.795 172.918C431.933 172.833 432.003 172.695 432.003 172.503V172.466C432.003 172 431.871 171.64 431.608 171.384C431.349 171.129 430.962 171.001 430.447 171.001C429.911 171.001 429.488 171.12 429.18 171.358C428.874 171.592 428.663 171.853 428.546 172.141L427.049 171.8C427.226 171.303 427.486 170.901 427.827 170.596C428.171 170.287 428.567 170.063 429.014 169.925C429.462 169.783 429.932 169.712 430.426 169.712C430.753 169.712 431.099 169.751 431.465 169.829C431.834 169.903 432.178 170.042 432.498 170.244C432.821 170.447 433.086 170.736 433.292 171.113C433.498 171.485 433.601 171.97 433.601 172.567V178H432.045V176.881H431.981C431.878 177.087 431.724 177.29 431.518 177.489C431.312 177.687 431.047 177.853 430.724 177.984C430.401 178.115 430.014 178.181 429.563 178.181ZM429.909 176.903C430.35 176.903 430.726 176.816 431.039 176.642C431.355 176.468 431.594 176.24 431.758 175.96C431.925 175.676 432.008 175.372 432.008 175.049V173.994C431.951 174.051 431.841 174.104 431.678 174.154C431.518 174.2 431.335 174.241 431.129 174.277C430.923 174.309 430.722 174.339 430.527 174.367C430.332 174.392 430.169 174.413 430.037 174.431C429.728 174.47 429.446 174.536 429.19 174.628C428.938 174.721 428.736 174.854 428.583 175.028C428.434 175.198 428.359 175.425 428.359 175.71C428.359 176.104 428.505 176.402 428.796 176.604C429.087 176.803 429.458 176.903 429.909 176.903ZM441.853 171.816L440.41 172.071C440.349 171.887 440.253 171.711 440.122 171.544C439.994 171.377 439.82 171.24 439.6 171.134C439.38 171.027 439.104 170.974 438.774 170.974C438.323 170.974 437.947 171.075 437.645 171.278C437.343 171.477 437.192 171.734 437.192 172.05C437.192 172.324 437.293 172.544 437.496 172.711C437.698 172.877 438.025 173.014 438.476 173.121L439.776 173.419C440.528 173.593 441.09 173.861 441.459 174.223C441.828 174.586 442.013 175.056 442.013 175.635C442.013 176.125 441.871 176.562 441.587 176.945C441.306 177.325 440.914 177.624 440.41 177.84C439.909 178.057 439.328 178.165 438.668 178.165C437.752 178.165 437.004 177.97 436.425 177.579C435.846 177.185 435.491 176.626 435.36 175.901L436.899 175.667C436.995 176.068 437.192 176.372 437.491 176.578C437.789 176.78 438.178 176.881 438.657 176.881C439.179 176.881 439.596 176.773 439.909 176.556C440.221 176.336 440.378 176.068 440.378 175.752C440.378 175.496 440.282 175.282 440.09 175.108C439.902 174.934 439.612 174.802 439.222 174.713L437.837 174.41C437.073 174.236 436.509 173.959 436.143 173.579C435.781 173.199 435.6 172.718 435.6 172.135C435.6 171.652 435.734 171.23 436.004 170.868C436.274 170.505 436.647 170.223 437.123 170.021C437.599 169.815 438.144 169.712 438.758 169.712C439.642 169.712 440.339 169.903 440.846 170.287C441.354 170.667 441.69 171.176 441.853 171.816ZM449.895 171.816L448.452 172.071C448.391 171.887 448.295 171.711 448.164 171.544C448.036 171.377 447.862 171.24 447.642 171.134C447.422 171.027 447.146 170.974 446.816 170.974C446.365 170.974 445.989 171.075 445.687 171.278C445.385 171.477 445.234 171.734 445.234 172.05C445.234 172.324 445.335 172.544 445.538 172.711C445.74 172.877 446.067 173.014 446.518 173.121L447.818 173.419C448.57 173.593 449.132 173.861 449.501 174.223C449.87 174.586 450.055 175.056 450.055 175.635C450.055 176.125 449.913 176.562 449.629 176.945C449.348 177.325 448.956 177.624 448.452 177.84C447.951 178.057 447.37 178.165 446.71 178.165C445.794 178.165 445.046 177.97 444.467 177.579C443.888 177.185 443.533 176.626 443.402 175.901L444.941 175.667C445.037 176.068 445.234 176.372 445.532 176.578C445.831 176.78 446.22 176.881 446.699 176.881C447.221 176.881 447.638 176.773 447.951 176.556C448.263 176.336 448.42 176.068 448.42 175.752C448.42 175.496 448.324 175.282 448.132 175.108C447.944 174.934 447.654 174.802 447.264 174.713L445.879 174.41C445.115 174.236 444.551 173.959 444.185 173.579C443.823 173.199 443.642 172.718 443.642 172.135C443.642 171.652 443.776 171.23 444.046 170.868C444.316 170.505 444.689 170.223 445.165 170.021C445.641 169.815 446.186 169.712 446.8 169.712C447.684 169.712 448.381 169.903 448.888 170.287C449.396 170.667 449.732 171.176 449.895 171.816ZM451.806 178V169.818H453.399V178H451.806ZM452.61 168.556C452.333 168.556 452.095 168.463 451.897 168.279C451.701 168.091 451.604 167.867 451.604 167.608C451.604 167.345 451.701 167.121 451.897 166.936C452.095 166.748 452.333 166.654 452.61 166.654C452.887 166.654 453.123 166.748 453.319 166.936C453.518 167.121 453.617 167.345 453.617 167.608C453.617 167.867 453.518 168.091 453.319 168.279C453.123 168.463 452.887 168.556 452.61 168.556ZM460.724 174.607V169.818H462.322V178H460.756V176.583H460.671C460.483 177.02 460.181 177.384 459.765 177.675C459.354 177.963 458.84 178.107 458.226 178.107C457.7 178.107 457.235 177.991 456.83 177.76C456.429 177.526 456.113 177.18 455.882 176.722C455.655 176.263 455.541 175.697 455.541 175.022V169.818H457.134V174.831C457.134 175.388 457.289 175.832 457.597 176.162C457.906 176.493 458.308 176.658 458.801 176.658C459.1 176.658 459.396 176.583 459.691 176.434C459.989 176.285 460.236 176.059 460.431 175.757C460.63 175.456 460.728 175.072 460.724 174.607ZM464.462 178V169.818H465.991V171.15H466.092C466.263 170.699 466.541 170.347 466.929 170.095C467.316 169.839 467.779 169.712 468.319 169.712C468.866 169.712 469.324 169.839 469.693 170.095C470.066 170.351 470.341 170.702 470.519 171.15H470.604C470.799 170.713 471.11 170.365 471.536 170.106C471.962 169.843 472.47 169.712 473.06 169.712C473.802 169.712 474.407 169.944 474.876 170.409C475.348 170.875 475.584 171.576 475.584 172.513V178H473.992V172.663C473.992 172.109 473.841 171.707 473.539 171.459C473.237 171.21 472.877 171.086 472.458 171.086C471.939 171.086 471.536 171.246 471.248 171.565C470.961 171.881 470.817 172.288 470.817 172.785V178H469.23V172.561C469.23 172.118 469.091 171.761 468.814 171.491C468.537 171.221 468.177 171.086 467.733 171.086C467.431 171.086 467.152 171.166 466.897 171.326C466.644 171.482 466.44 171.7 466.284 171.981C466.131 172.261 466.055 172.586 466.055 172.956V178H464.462Z" fill="black"/>
<path d="M382.357 84.8182V103H381.788V85.4219H381.682L377.776 88.0142V87.3395L381.575 84.8182H382.357ZM393.318 84.5696C394.094 84.5696 394.807 84.7442 395.458 85.0934C396.115 85.4367 396.686 85.9575 397.171 86.6559C397.663 87.3484 398.041 88.2243 398.308 89.2837C398.58 90.3432 398.716 91.589 398.716 93.0213C398.716 94.2464 398.63 95.4627 398.459 96.6701C398.287 97.8775 397.994 98.9783 397.58 99.9727C397.166 100.967 396.597 101.763 395.875 102.361C395.153 102.953 394.242 103.249 393.141 103.249C392.241 103.249 391.457 103.044 390.788 102.636C390.119 102.222 389.59 101.654 389.199 100.931C388.809 100.203 388.584 99.366 388.524 98.419H389.093C389.181 99.6619 389.581 100.683 390.291 101.482C391.001 102.281 391.951 102.68 393.141 102.68C394.792 102.68 396.038 101.828 396.878 100.124C397.725 98.419 398.148 95.9687 398.148 92.7727H398.077C397.888 93.3764 397.559 93.915 397.092 94.3885C396.624 94.8561 396.071 95.226 395.431 95.4982C394.792 95.7646 394.123 95.8977 393.425 95.8977C392.466 95.8977 391.59 95.6491 390.797 95.152C390.01 94.6548 389.38 93.9772 388.906 93.119C388.439 92.2608 388.205 91.2931 388.205 90.2159C388.205 89.2098 388.418 88.2776 388.844 87.4194C389.276 86.5612 389.874 85.8717 390.637 85.3509C391.407 84.83 392.3 84.5696 393.318 84.5696ZM393.318 85.1378C392.443 85.1378 391.661 85.3656 390.975 85.8214C390.294 86.2771 389.755 86.8897 389.359 87.6591C388.968 88.4285 388.773 89.2808 388.773 90.2159C388.773 91.1747 388.98 92.0418 389.394 92.8171C389.815 93.5865 390.377 94.1991 391.081 94.6548C391.791 95.1046 392.585 95.3295 393.46 95.3295C394.153 95.3295 394.795 95.1875 395.387 94.9034C395.979 94.6134 396.482 94.2169 396.896 93.7138C397.316 93.2107 397.615 92.6396 397.793 92.0004C397.976 91.3552 398 90.6776 397.864 89.9673C397.663 88.902 397.346 88.0112 396.914 87.2951C396.488 86.579 395.967 86.0404 395.351 85.6793C394.742 85.3183 394.064 85.1378 393.318 85.1378Z" fill="black"/>
<circle cx="203" cy="300" r="55" fill="url(#paint12_radial_311_692)"/>
<g filter="url(#filter4_n_311_692)">
<rect x="127" y="225" width="150" height="150" rx="15" fill="url(#paint13_linear_311_692)" fill-opacity="0.5"/>
<rect x="129.5" y="227.5" width="145" height="145" rx="12.5" stroke="#D2ECFF" stroke-width="5"/>
</g>
<path d="M203.426 276.273V309H196.011L184.186 291.805H183.994V309H175.109V276.273H182.652L194.286 293.403H194.541V276.273H203.426ZM214.596 309.384C213.03 309.384 211.645 309.128 210.441 308.616C209.248 308.094 208.311 307.306 207.629 306.251C206.947 305.197 206.606 303.854 206.606 302.224C206.606 300.882 206.835 299.737 207.293 298.789C207.751 297.83 208.391 297.047 209.211 296.44C210.031 295.832 210.985 295.369 212.071 295.049C213.169 294.73 214.351 294.522 215.619 294.426C216.993 294.32 218.096 294.192 218.927 294.043C219.768 293.883 220.376 293.664 220.749 293.387C221.121 293.1 221.308 292.722 221.308 292.253V292.189C221.308 291.55 221.063 291.06 220.573 290.719C220.083 290.378 219.454 290.207 218.687 290.207C217.846 290.207 217.158 290.394 216.626 290.767C216.104 291.129 215.789 291.688 215.683 292.445H207.565C207.672 290.953 208.146 289.579 208.987 288.322C209.839 287.054 211.081 286.042 212.711 285.286C214.341 284.518 216.375 284.135 218.815 284.135C220.573 284.135 222.15 284.343 223.545 284.758C224.941 285.163 226.129 285.733 227.109 286.468C228.089 287.192 228.835 288.045 229.346 289.025C229.868 289.994 230.129 291.049 230.129 292.189V309H221.883V305.548H221.691C221.201 306.464 220.605 307.205 219.902 307.77C219.209 308.334 218.415 308.744 217.521 309C216.636 309.256 215.662 309.384 214.596 309.384ZM217.473 303.822C218.144 303.822 218.772 303.684 219.358 303.407C219.955 303.13 220.44 302.73 220.812 302.208C221.185 301.686 221.372 301.053 221.372 300.307V298.261C221.137 298.357 220.887 298.448 220.621 298.533C220.365 298.618 220.088 298.698 219.79 298.773C219.502 298.847 219.193 298.917 218.863 298.98C218.543 299.044 218.208 299.103 217.856 299.156C217.174 299.263 216.615 299.439 216.178 299.684C215.752 299.918 215.433 300.211 215.219 300.562C215.017 300.903 214.916 301.287 214.916 301.713C214.916 302.395 215.156 302.917 215.635 303.279C216.114 303.641 216.727 303.822 217.473 303.822Z" fill="black"/>
<path d="M183.148 320.957C183.092 320.452 182.857 320.062 182.445 319.785C182.033 319.504 181.515 319.364 180.89 319.364C180.442 319.364 180.055 319.435 179.729 319.577C179.402 319.716 179.148 319.907 178.967 320.152C178.789 320.394 178.701 320.669 178.701 320.978C178.701 321.237 178.761 321.461 178.882 321.649C179.006 321.837 179.168 321.995 179.366 322.123C179.569 322.248 179.786 322.352 180.016 322.438C180.247 322.519 180.469 322.587 180.682 322.64L181.748 322.917C182.096 323.002 182.452 323.118 182.818 323.263C183.184 323.409 183.523 323.6 183.836 323.838C184.148 324.076 184.4 324.371 184.592 324.723C184.787 325.074 184.885 325.495 184.885 325.985C184.885 326.603 184.725 327.152 184.406 327.631C184.089 328.11 183.63 328.489 183.026 328.766C182.426 329.043 181.7 329.181 180.847 329.181C180.031 329.181 179.324 329.051 178.727 328.792C178.131 328.533 177.664 328.165 177.326 327.69C176.989 327.21 176.803 326.642 176.767 325.985H178.418C178.45 326.379 178.578 326.708 178.802 326.971C179.029 327.23 179.319 327.423 179.67 327.551C180.025 327.675 180.414 327.738 180.837 327.738C181.302 327.738 181.716 327.665 182.078 327.519C182.444 327.37 182.731 327.164 182.941 326.901C183.15 326.635 183.255 326.324 183.255 325.969C183.255 325.646 183.163 325.381 182.978 325.175C182.797 324.969 182.55 324.799 182.238 324.664C181.929 324.529 181.579 324.41 181.188 324.307L179.899 323.956C179.026 323.718 178.333 323.368 177.822 322.906C177.314 322.445 177.06 321.834 177.06 321.074C177.06 320.445 177.23 319.897 177.571 319.428C177.912 318.959 178.374 318.595 178.956 318.336C179.539 318.073 180.196 317.942 180.927 317.942C181.666 317.942 182.317 318.071 182.882 318.331C183.45 318.59 183.898 318.947 184.224 319.401C184.551 319.852 184.722 320.371 184.736 320.957H183.148ZM190.17 329.165C189.403 329.165 188.734 328.989 188.162 328.638C187.59 328.286 187.147 327.794 186.831 327.162C186.514 326.53 186.356 325.792 186.356 324.946C186.356 324.098 186.514 323.355 186.831 322.72C187.147 322.084 187.59 321.591 188.162 321.239C188.734 320.887 189.403 320.712 190.17 320.712C190.937 320.712 191.607 320.887 192.179 321.239C192.75 321.591 193.194 322.084 193.51 322.72C193.826 323.355 193.984 324.098 193.984 324.946C193.984 325.792 193.826 326.53 193.51 327.162C193.194 327.794 192.75 328.286 192.179 328.638C191.607 328.989 190.937 329.165 190.17 329.165ZM190.176 327.828C190.673 327.828 191.085 327.697 191.411 327.434C191.738 327.171 191.98 326.821 192.136 326.385C192.296 325.948 192.376 325.467 192.376 324.941C192.376 324.419 192.296 323.94 192.136 323.503C191.98 323.062 191.738 322.709 191.411 322.443C191.085 322.176 190.673 322.043 190.176 322.043C189.675 322.043 189.259 322.176 188.929 322.443C188.603 322.709 188.359 323.062 188.199 323.503C188.043 323.94 187.965 324.419 187.965 324.941C187.965 325.467 188.043 325.948 188.199 326.385C188.359 326.821 188.603 327.171 188.929 327.434C189.259 327.697 189.675 327.828 190.176 327.828ZM198.825 329.16C198.164 329.16 197.575 328.991 197.056 328.654C196.542 328.313 196.137 327.828 195.842 327.2C195.551 326.567 195.405 325.809 195.405 324.925C195.405 324.041 195.553 323.284 195.847 322.656C196.146 322.027 196.554 321.546 197.072 321.212C197.591 320.879 198.179 320.712 198.836 320.712C199.343 320.712 199.752 320.797 200.061 320.967C200.373 321.134 200.615 321.33 200.785 321.553C200.959 321.777 201.094 321.974 201.19 322.145H201.286V318.091H202.879V329H201.323V327.727H201.19C201.094 327.901 200.956 328.1 200.775 328.324C200.597 328.547 200.352 328.743 200.039 328.909C199.727 329.076 199.322 329.16 198.825 329.16ZM199.176 327.801C199.635 327.801 200.022 327.681 200.338 327.439C200.657 327.194 200.899 326.855 201.062 326.422C201.229 325.989 201.312 325.484 201.312 324.909C201.312 324.341 201.231 323.844 201.067 323.418C200.904 322.991 200.664 322.659 200.348 322.422C200.032 322.184 199.642 322.065 199.176 322.065C198.697 322.065 198.298 322.189 197.978 322.438C197.658 322.686 197.417 323.025 197.254 323.455C197.094 323.885 197.014 324.369 197.014 324.909C197.014 325.456 197.096 325.948 197.259 326.385C197.422 326.821 197.664 327.168 197.983 327.423C198.306 327.675 198.704 327.801 199.176 327.801ZM205.152 329V320.818H206.744V329H205.152ZM205.956 319.556C205.679 319.556 205.441 319.463 205.242 319.279C205.047 319.091 204.949 318.867 204.949 318.608C204.949 318.345 205.047 318.121 205.242 317.936C205.441 317.748 205.679 317.654 205.956 317.654C206.233 317.654 206.469 317.748 206.665 317.936C206.863 318.121 206.963 318.345 206.963 318.608C206.963 318.867 206.863 319.091 206.665 319.279C206.469 319.463 206.233 319.556 205.956 319.556ZM214.07 325.607V320.818H215.668V329H214.102V327.583H214.017C213.828 328.02 213.527 328.384 213.111 328.675C212.699 328.963 212.186 329.107 211.572 329.107C211.046 329.107 210.581 328.991 210.176 328.76C209.775 328.526 209.459 328.18 209.228 327.722C209.001 327.263 208.887 326.697 208.887 326.022V320.818H210.48V325.831C210.48 326.388 210.634 326.832 210.943 327.162C211.252 327.493 211.653 327.658 212.147 327.658C212.445 327.658 212.742 327.583 213.037 327.434C213.335 327.285 213.582 327.059 213.777 326.757C213.976 326.456 214.074 326.072 214.07 325.607ZM217.808 329V320.818H219.337V322.15H219.438C219.608 321.699 219.887 321.347 220.274 321.095C220.661 320.839 221.125 320.712 221.665 320.712C222.211 320.712 222.669 320.839 223.039 321.095C223.412 321.351 223.687 321.702 223.864 322.15H223.95C224.145 321.713 224.456 321.365 224.882 321.106C225.308 320.843 225.816 320.712 226.405 320.712C227.147 320.712 227.753 320.944 228.222 321.409C228.694 321.875 228.93 322.576 228.93 323.513V329H227.337V323.663C227.337 323.109 227.187 322.707 226.885 322.459C226.583 322.21 226.222 322.086 225.803 322.086C225.285 322.086 224.882 322.246 224.594 322.565C224.307 322.881 224.163 323.288 224.163 323.785V329H222.575V323.561C222.575 323.118 222.437 322.761 222.16 322.491C221.883 322.221 221.522 322.086 221.079 322.086C220.777 322.086 220.498 322.166 220.242 322.326C219.99 322.482 219.786 322.7 219.63 322.981C219.477 323.261 219.401 323.586 219.401 323.956V329H217.808Z" fill="black"/>
<path d="M143.357 237.818V256H142.788V238.422H142.682L138.776 241.014V240.339L142.575 237.818H143.357ZM153.537 237.818V256H152.969V238.422H152.862L148.956 241.014V240.339L152.756 237.818H153.537Z" fill="black"/>
<circle cx="361" cy="301" r="55" fill="url(#paint14_radial_311_692)"/>
<g filter="url(#filter5_n_311_692)">
<rect x="286" y="225" width="150" height="150" rx="15" fill="url(#paint15_linear_311_692)" fill-opacity="0.5"/>
<rect x="288.5" y="227.5" width="145" height="145" rx="12.5" stroke="#D2ECFF" stroke-width="5"/>
</g>
<path d="M369.663 296.545H360.651C360.587 295.8 360.416 295.123 360.139 294.516C359.873 293.909 359.5 293.387 359.021 292.95C358.552 292.502 357.982 292.162 357.311 291.927C356.64 291.682 355.878 291.56 355.026 291.56C353.534 291.56 352.272 291.922 351.238 292.646C350.216 293.371 349.438 294.409 348.905 295.762C348.383 297.115 348.122 298.74 348.122 300.636C348.122 302.639 348.388 304.317 348.921 305.67C349.464 307.012 350.248 308.025 351.27 308.706C352.293 309.377 353.523 309.713 354.962 309.713C355.782 309.713 356.517 309.612 357.167 309.409C357.817 309.196 358.381 308.893 358.861 308.499C359.34 308.104 359.729 307.63 360.027 307.076C360.336 306.512 360.544 305.878 360.651 305.175L369.663 305.239C369.557 306.624 369.168 308.035 368.497 309.473C367.826 310.901 366.872 312.222 365.636 313.436C364.411 314.64 362.893 315.61 361.082 316.345C359.271 317.08 357.167 317.447 354.77 317.447C351.766 317.447 349.07 316.803 346.684 315.514C344.308 314.225 342.428 312.328 341.043 309.825C339.669 307.321 338.982 304.259 338.982 300.636C338.982 296.993 339.685 293.925 341.091 291.432C342.497 288.928 344.393 287.037 346.78 285.759C349.166 284.47 351.83 283.825 354.77 283.825C356.837 283.825 358.738 284.108 360.475 284.672C362.211 285.237 363.735 286.062 365.045 287.149C366.355 288.225 367.41 289.551 368.209 291.128C369.008 292.705 369.493 294.511 369.663 296.545ZM382.643 284.273V317H373.822V284.273H382.643Z" fill="black"/>
<path d="M340.259 325.638H338.597C338.533 325.283 338.414 324.971 338.24 324.701C338.066 324.431 337.853 324.202 337.601 324.014C337.349 323.826 337.067 323.684 336.754 323.588C336.445 323.492 336.117 323.444 335.769 323.444C335.14 323.444 334.577 323.602 334.08 323.918C333.587 324.234 333.196 324.697 332.908 325.308C332.624 325.919 332.482 326.665 332.482 327.545C332.482 328.433 332.624 329.183 332.908 329.793C333.196 330.404 333.588 330.866 334.086 331.178C334.583 331.491 335.142 331.647 335.763 331.647C336.108 331.647 336.435 331.601 336.744 331.509C337.056 331.413 337.338 331.272 337.591 331.088C337.843 330.903 338.056 330.678 338.23 330.411C338.407 330.141 338.53 329.832 338.597 329.484L340.259 329.49C340.17 330.026 339.998 330.52 339.743 330.971C339.49 331.418 339.165 331.805 338.768 332.132C338.374 332.455 337.923 332.705 337.415 332.883C336.907 333.06 336.353 333.149 335.753 333.149C334.808 333.149 333.967 332.925 333.228 332.478C332.489 332.027 331.907 331.382 331.481 330.544C331.058 329.706 330.847 328.707 330.847 327.545C330.847 326.381 331.06 325.381 331.486 324.547C331.912 323.708 332.495 323.066 333.233 322.618C333.972 322.167 334.812 321.942 335.753 321.942C336.332 321.942 336.871 322.025 337.372 322.192C337.876 322.355 338.329 322.597 338.73 322.917C339.132 323.233 339.464 323.62 339.727 324.078C339.989 324.532 340.167 325.053 340.259 325.638ZM343.694 328.142V333H342.101V322.091H343.672V326.15H343.774C343.965 325.71 344.258 325.36 344.652 325.1C345.047 324.841 345.562 324.712 346.197 324.712C346.758 324.712 347.248 324.827 347.667 325.058C348.09 325.289 348.417 325.633 348.647 326.091C348.882 326.546 348.999 327.114 348.999 327.796V333H347.406V327.988C347.406 327.387 347.252 326.922 346.943 326.592C346.634 326.258 346.204 326.091 345.654 326.091C345.277 326.091 344.94 326.171 344.642 326.331C344.347 326.491 344.114 326.725 343.944 327.034C343.777 327.339 343.694 327.709 343.694 328.142ZM352.717 322.091V333H351.124V322.091H352.717ZM358.306 333.165C357.539 333.165 356.87 332.989 356.298 332.638C355.726 332.286 355.282 331.794 354.966 331.162C354.65 330.53 354.492 329.792 354.492 328.946C354.492 328.098 354.65 327.355 354.966 326.72C355.282 326.084 355.726 325.591 356.298 325.239C356.87 324.887 357.539 324.712 358.306 324.712C359.073 324.712 359.743 324.887 360.314 325.239C360.886 325.591 361.33 326.084 361.646 326.72C361.962 327.355 362.12 328.098 362.12 328.946C362.12 329.792 361.962 330.53 361.646 331.162C361.33 331.794 360.886 332.286 360.314 332.638C359.743 332.989 359.073 333.165 358.306 333.165ZM358.311 331.828C358.809 331.828 359.221 331.697 359.547 331.434C359.874 331.171 360.115 330.821 360.272 330.385C360.431 329.948 360.511 329.467 360.511 328.941C360.511 328.419 360.431 327.94 360.272 327.503C360.115 327.062 359.874 326.709 359.547 326.443C359.221 326.176 358.809 326.043 358.311 326.043C357.811 326.043 357.395 326.176 357.065 326.443C356.738 326.709 356.495 327.062 356.335 327.503C356.179 327.94 356.101 328.419 356.101 328.941C356.101 329.467 356.179 329.948 356.335 330.385C356.495 330.821 356.738 331.171 357.065 331.434C357.395 331.697 357.811 331.828 358.311 331.828ZM363.898 333V324.818H365.437V326.118H365.522C365.672 325.678 365.934 325.331 366.311 325.079C366.691 324.824 367.12 324.696 367.6 324.696C367.699 324.696 367.816 324.699 367.951 324.706C368.09 324.713 368.198 324.722 368.276 324.733V326.256C368.212 326.239 368.099 326.219 367.935 326.198C367.772 326.173 367.609 326.161 367.445 326.161C367.069 326.161 366.733 326.24 366.439 326.4C366.147 326.556 365.917 326.775 365.746 327.055C365.576 327.332 365.491 327.648 365.491 328.004V333H363.898ZM369.655 333V324.818H371.247V333H369.655ZM370.459 323.556C370.182 323.556 369.944 323.463 369.745 323.279C369.55 323.091 369.452 322.867 369.452 322.608C369.452 322.345 369.55 322.121 369.745 321.936C369.944 321.748 370.182 321.654 370.459 321.654C370.736 321.654 370.972 321.748 371.167 321.936C371.366 322.121 371.466 322.345 371.466 322.608C371.466 322.867 371.366 323.091 371.167 323.279C370.972 323.463 370.736 323.556 370.459 323.556ZM374.983 328.142V333H373.39V324.818H374.919V326.15H375.02C375.208 325.717 375.503 325.369 375.904 325.106C376.309 324.843 376.819 324.712 377.433 324.712C377.991 324.712 378.479 324.829 378.898 325.063C379.317 325.294 379.642 325.638 379.873 326.097C380.103 326.555 380.219 327.121 380.219 327.796V333H378.626V327.988C378.626 327.395 378.472 326.931 378.163 326.597C377.854 326.26 377.429 326.091 376.89 326.091C376.52 326.091 376.192 326.171 375.904 326.331C375.62 326.491 375.395 326.725 375.228 327.034C375.064 327.339 374.983 327.709 374.983 328.142ZM385.881 333.165C385.075 333.165 384.381 332.993 383.798 332.648C383.22 332.3 382.772 331.812 382.456 331.184C382.144 330.551 381.987 329.811 381.987 328.962C381.987 328.124 382.144 327.386 382.456 326.746C382.772 326.107 383.212 325.608 383.777 325.25C384.345 324.891 385.009 324.712 385.769 324.712C386.231 324.712 386.678 324.788 387.112 324.941C387.545 325.093 387.934 325.333 388.278 325.66C388.623 325.987 388.894 326.411 389.093 326.933C389.292 327.451 389.391 328.082 389.391 328.824V329.388H382.888V328.195H387.831C387.831 327.776 387.745 327.405 387.575 327.082C387.405 326.755 387.165 326.498 386.856 326.31C386.551 326.121 386.192 326.027 385.78 326.027C385.332 326.027 384.942 326.137 384.608 326.358C384.278 326.574 384.022 326.858 383.841 327.21C383.663 327.558 383.575 327.936 383.575 328.344V329.277C383.575 329.824 383.671 330.289 383.862 330.672C384.058 331.056 384.329 331.349 384.677 331.551C385.025 331.75 385.432 331.849 385.897 331.849C386.199 331.849 386.474 331.807 386.723 331.722C386.971 331.633 387.186 331.501 387.367 331.327C387.548 331.153 387.687 330.939 387.783 330.683L389.29 330.955C389.169 331.398 388.953 331.787 388.64 332.121C388.331 332.451 387.943 332.709 387.474 332.893C387.009 333.075 386.478 333.165 385.881 333.165Z" fill="black"/>
<path d="M302.357 244.818V263H301.788V245.422H301.682L297.776 248.014V247.339L301.575 244.818H302.357ZM308.915 263L317.509 245.457V245.386H307.637V244.818H318.184V245.386L309.554 263H308.915Z" fill="black"/>
<g clip-path="url(#clip0_311_692)">
<path d="M637 7H551.908V92.0916H637V7Z" fill="#0077CC"/>
<path d="M599.089 18.9128C601.439 18.9128 603.344 20.8177 603.344 23.1674V47.4642L618.478 74.0313C620.093 76.8675 618.045 80.3915 614.781 80.3915H574.889C571.625 80.3913 569.577 76.8674 571.192 74.0313L586.326 47.4642V23.1674C586.326 20.8177 588.231 18.9129 590.58 18.9128H599.089Z" fill="#0077CC"/>
<path d="M603.344 47.4641H601.217V48.0275L601.496 48.517L603.344 47.4641ZM586.326 47.4641L588.174 48.517L588.453 48.0275V47.4641H586.326ZM599.089 18.9127V21.04C600.264 21.04 601.217 21.9924 601.217 23.1673H603.344H605.471C605.471 19.6427 602.614 16.7854 599.089 16.7854V18.9127ZM603.344 23.1673H601.217V47.4641H603.344H605.471V23.1673H603.344ZM603.344 47.4641L601.496 48.517L616.629 75.084L618.478 74.0311L620.326 72.9783L605.192 46.4111L603.344 47.4641ZM618.478 74.0311L616.629 75.084C617.437 76.5022 616.413 78.2641 614.781 78.2641V80.3914V82.5186C619.677 82.5186 622.749 77.2327 620.326 72.9783L618.478 74.0311ZM614.781 80.3914V78.2641H574.889V80.3914L574.889 82.5186H614.781V80.3914ZM574.889 80.3914V78.2641C573.257 78.264 572.233 76.5019 573.041 75.0839L571.192 74.0311L569.344 72.9782C566.921 77.2326 569.993 82.5184 574.889 82.5186L574.889 80.3914ZM571.192 74.0311L573.041 75.0839L588.174 48.517L586.326 47.4641L584.477 46.4111L569.344 72.9782L571.192 74.0311ZM586.326 47.4641H588.453V23.1673H586.326H584.198V47.4641H586.326ZM586.326 23.1673H588.453C588.453 21.9925 589.405 21.04 590.58 21.04L590.58 18.9127V16.7854C587.056 16.7855 584.198 19.6426 584.198 23.1673H586.326ZM590.58 18.9127L590.58 21.04H599.089V18.9127V16.7854H590.58V18.9127Z" fill="white"/>
<path d="M601.433 49.1208C601.574 49.1208 601.714 49.1295 601.853 49.1433L616.63 75.0846C617.438 76.5026 616.413 78.2645 614.781 78.2647H574.89C573.258 78.2645 572.234 76.5028 573.042 75.0846L587.831 49.1208H601.433Z" fill="white"/>
<mask id="mask0_311_692" style="mask-type:luminance" maskUnits="userSpaceOnUse" x="572" y="49" width="45" height="30">
<path d="M601.433 49.1208C601.574 49.1208 601.714 49.1295 601.853 49.1433L616.63 75.0846C617.438 76.5026 616.413 78.2645 614.781 78.2647H574.89C573.258 78.2645 572.234 76.5028 573.042 75.0846L587.831 49.1208H601.433Z" fill="white"/>
</mask>
<g mask="url(#mask0_311_692)">
<path d="M601.853 49.1433L604.071 47.8798L603.418 46.7329L602.104 46.6029L601.853 49.1433ZM587.831 49.1209V46.5681H586.347L585.613 47.8573L587.831 49.1209ZM601.433 49.1209V51.6736C601.47 51.6736 601.524 51.6759 601.602 51.6836L601.853 49.1433L602.104 46.6029C601.905 46.5833 601.678 46.5681 601.433 46.5681V49.1209ZM601.853 49.1433L599.635 50.4069L614.412 76.3481L616.63 75.0846L618.848 73.8215L604.071 47.8798L601.853 49.1433ZM616.63 75.0846L614.412 76.3481C614.25 76.0638 614.455 75.712 614.781 75.712L614.781 78.2647V80.8175C618.371 80.817 620.625 76.9416 618.848 73.8215L616.63 75.0846ZM614.781 78.2647L614.781 75.712H574.89V78.2647L574.889 80.8175H614.781V78.2647ZM574.89 78.2647V75.712C575.216 75.712 575.421 76.0643 575.26 76.348L573.041 75.0846L570.823 73.8211C569.046 76.9412 571.3 80.817 574.889 80.8175L574.89 78.2647ZM573.041 75.0846L575.26 76.348L590.049 50.3844L587.831 49.1209L585.613 47.8573L570.823 73.8211L573.041 75.0846ZM587.831 49.1209V51.6736H601.433V49.1209V46.5681H587.831V49.1209Z" fill="#0077CC"/>
</g>
</g>
<path d="M239.655 33V17.5175H234.045V13.805H249.803V17.5175H244.193V33H239.655ZM262.821 33V23.595C262.821 22.7883 262.619 22.1467 262.216 21.67C261.812 21.1933 261.281 20.955 260.621 20.955C259.869 20.955 259.172 21.2117 258.531 21.725C257.907 22.22 257.247 23.0817 256.551 24.31L255.946 20.7075C256.642 19.4975 257.486 18.645 258.476 18.15C259.466 17.6367 260.474 17.38 261.501 17.38C262.674 17.38 263.673 17.6275 264.498 18.1225C265.342 18.6175 265.983 19.3142 266.423 20.2125C266.882 21.0925 267.111 22.1283 267.111 23.32V33H262.821ZM252.618 33V12.6225H256.908V33H252.618ZM277.846 33.33C276.196 33.33 274.776 33.0092 273.584 32.3675C272.411 31.7258 271.503 30.8092 270.861 29.6175C270.22 28.4258 269.899 27.005 269.899 25.355C269.899 23.6867 270.22 22.2567 270.861 21.065C271.503 19.8733 272.429 18.9658 273.639 18.3425C274.867 17.7008 276.343 17.38 278.066 17.38C280.761 17.38 282.714 18.15 283.924 19.69C285.152 21.2117 285.666 23.3108 285.464 25.9875H273.309L273.336 23.045H281.091C281.036 22.3483 280.725 21.7892 280.156 21.3675C279.588 20.9275 278.882 20.7075 278.039 20.7075C276.719 20.7075 275.747 21.12 275.124 21.945C274.501 22.77 274.189 23.9708 274.189 25.5475C274.189 26.3358 274.326 27.06 274.601 27.72C274.876 28.38 275.28 28.9117 275.811 29.315C276.361 29.7 277.04 29.8925 277.846 29.8925C278.708 29.8925 279.432 29.6817 280.019 29.26C280.624 28.8383 280.991 28.3067 281.119 27.665H285.409C285.226 29.4067 284.456 30.7908 283.099 31.8175C281.761 32.8258 280.01 33.33 277.846 33.33ZM313.59 33.33C312.014 33.33 310.657 33.0367 309.52 32.45C308.402 31.845 307.54 31.0017 306.935 29.92C306.349 28.82 306.055 27.5275 306.055 26.0425H310.51C310.51 27.1975 310.758 28.0867 311.253 28.71C311.766 29.315 312.545 29.6175 313.59 29.6175C314.415 29.6175 315.066 29.4433 315.543 29.095C316.038 28.7283 316.285 28.215 316.285 27.555C316.285 27.06 316.102 26.675 315.735 26.4C315.387 26.1067 314.91 25.8683 314.305 25.685C313.719 25.4833 313.068 25.3 312.353 25.135C311.656 24.9517 310.95 24.7317 310.235 24.475C309.539 24.2183 308.888 23.8792 308.283 23.4575C307.696 23.0358 307.22 22.4858 306.853 21.8075C306.505 21.1292 306.33 20.2675 306.33 19.2225C306.33 18.1408 306.624 17.1692 307.21 16.3075C307.815 15.4458 308.65 14.7583 309.713 14.245C310.776 13.7317 312.023 13.475 313.453 13.475C314.755 13.475 315.965 13.7317 317.083 14.245C318.201 14.74 319.109 15.4642 319.805 16.4175C320.502 17.3708 320.869 18.5442 320.905 19.9375H316.368C316.331 19.3142 316.166 18.8008 315.873 18.3975C315.598 17.9942 315.24 17.6917 314.8 17.49C314.379 17.2883 313.93 17.1875 313.453 17.1875C312.775 17.1875 312.197 17.3525 311.72 17.6825C311.244 17.9942 311.005 18.4617 311.005 19.085C311.005 19.5617 311.18 19.9375 311.528 20.2125C311.895 20.4875 312.371 20.7167 312.958 20.9C313.563 21.065 314.214 21.23 314.91 21.395C315.625 21.56 316.331 21.7708 317.028 22.0275C317.743 22.2658 318.394 22.605 318.98 23.045C319.585 23.485 320.062 24.0717 320.41 24.805C320.777 25.52 320.96 26.4367 320.96 27.555C320.96 28.6733 320.64 29.6725 319.998 30.5525C319.375 31.4142 318.504 32.0925 317.385 32.5875C316.285 33.0825 315.02 33.33 313.59 33.33ZM331.586 33.33C329.973 33.33 328.58 33.0092 327.406 32.3675C326.251 31.7258 325.362 30.8092 324.739 29.6175C324.134 28.4258 323.831 27.005 323.831 25.355C323.831 23.6683 324.152 22.2292 324.794 21.0375C325.454 19.8458 326.37 18.9383 327.544 18.315C328.717 17.6917 330.101 17.38 331.696 17.38C333.09 17.38 334.318 17.6275 335.381 18.1225C336.463 18.6175 337.315 19.3142 337.939 20.2125C338.58 21.0925 338.929 22.1467 338.984 23.375H334.694C334.547 22.5317 334.217 21.9083 333.704 21.505C333.209 21.0833 332.54 20.8725 331.696 20.8725C331 20.8725 330.376 21.0467 329.826 21.395C329.295 21.7433 328.873 22.2475 328.561 22.9075C328.268 23.5675 328.121 24.3833 328.121 25.355C328.121 26.8033 328.451 27.9217 329.111 28.71C329.79 29.4983 330.615 29.8925 331.586 29.8925C332.155 29.8925 332.65 29.7917 333.071 29.59C333.511 29.3883 333.878 29.1042 334.171 28.7375C334.465 28.3525 334.666 27.9217 334.776 27.445H339.066C338.956 28.6367 338.571 29.6725 337.911 30.5525C337.251 31.4325 336.38 32.12 335.299 32.615C334.217 33.0917 332.98 33.33 331.586 33.33ZM347.107 33V17.71H351.397V33H347.107ZM342.157 33V29.535H356.402V33H342.157ZM344.082 21.175V17.71H349.252V21.175H344.082ZM346.942 15.675V11.66H351.507V15.675H346.942ZM367.275 33.33C365.625 33.33 364.204 33.0092 363.013 32.3675C361.839 31.7258 360.932 30.8092 360.29 29.6175C359.649 28.4258 359.328 27.005 359.328 25.355C359.328 23.6867 359.649 22.2567 360.29 21.065C360.932 19.8733 361.858 18.9658 363.068 18.3425C364.296 17.7008 365.772 17.38 367.495 17.38C370.19 17.38 372.143 18.15 373.353 19.69C374.581 21.2117 375.094 23.3108 374.893 25.9875H362.738L362.765 23.045H370.52C370.465 22.3483 370.154 21.7892 369.585 21.3675C369.017 20.9275 368.311 20.7075 367.468 20.7075C366.148 20.7075 365.176 21.12 364.553 21.945C363.929 22.77 363.618 23.9708 363.618 25.5475C363.618 26.3358 363.755 27.06 364.03 27.72C364.305 28.38 364.709 28.9117 365.24 29.315C365.79 29.7 366.469 29.8925 367.275 29.8925C368.137 29.8925 368.861 29.6817 369.448 29.26C370.053 28.8383 370.419 28.3067 370.548 27.665H374.838C374.654 29.4067 373.884 30.7908 372.528 31.8175C371.189 32.8258 369.439 33.33 367.275 33.33ZM388.021 33V23.5675C388.021 22.7792 387.819 22.1467 387.416 21.67C387.013 21.1933 386.481 20.955 385.821 20.955C385.069 20.955 384.373 21.2117 383.731 21.725C383.108 22.22 382.448 23.0817 381.751 24.31L381.146 20.68C381.843 19.4883 382.686 18.645 383.676 18.15C384.666 17.6367 385.674 17.38 386.701 17.38C387.874 17.38 388.873 17.6275 389.698 18.1225C390.542 18.6175 391.183 19.305 391.623 20.185C392.082 21.065 392.311 22.1008 392.311 23.2925V33H388.021ZM377.818 33V17.71H381.971L382.108 20.4325V33H377.818ZM403.129 33.33C401.516 33.33 400.123 33.0092 398.949 32.3675C397.794 31.7258 396.905 30.8092 396.282 29.6175C395.677 28.4258 395.374 27.005 395.374 25.355C395.374 23.6683 395.695 22.2292 396.337 21.0375C396.997 19.8458 397.913 18.9383 399.087 18.315C400.26 17.6917 401.644 17.38 403.239 17.38C404.633 17.38 405.861 17.6275 406.924 18.1225C408.006 18.6175 408.858 19.3142 409.482 20.2125C410.123 21.0925 410.472 22.1467 410.527 23.375H406.237C406.09 22.5317 405.76 21.9083 405.247 21.505C404.752 21.0833 404.083 20.8725 403.239 20.8725C402.543 20.8725 401.919 21.0467 401.369 21.395C400.838 21.7433 400.416 22.2475 400.104 22.9075C399.811 23.5675 399.664 24.3833 399.664 25.355C399.664 26.8033 399.994 27.9217 400.654 28.71C401.333 29.4983 402.158 29.8925 403.129 29.8925C403.698 29.8925 404.193 29.7917 404.614 29.59C405.054 29.3883 405.421 29.1042 405.714 28.7375C406.008 28.3525 406.209 27.9217 406.319 27.445H410.609C410.499 28.6367 410.114 29.6725 409.454 30.5525C408.794 31.4325 407.923 32.12 406.842 32.615C405.76 33.0917 404.523 33.33 403.129 33.33ZM420.932 33.33C419.282 33.33 417.862 33.0092 416.67 32.3675C415.497 31.7258 414.589 30.8092 413.947 29.6175C413.306 28.4258 412.985 27.005 412.985 25.355C412.985 23.6867 413.306 22.2567 413.947 21.065C414.589 19.8733 415.515 18.9658 416.725 18.3425C417.953 17.7008 419.429 17.38 421.152 17.38C423.847 17.38 425.8 18.15 427.01 19.69C428.238 21.2117 428.752 23.3108 428.55 25.9875H416.395L416.422 23.045H424.177C424.122 22.3483 423.811 21.7892 423.242 21.3675C422.674 20.9275 421.968 20.7075 421.125 20.7075C419.805 20.7075 418.833 21.12 418.21 21.945C417.587 22.77 417.275 23.9708 417.275 25.5475C417.275 26.3358 417.412 27.06 417.687 27.72C417.962 28.38 418.366 28.9117 418.897 29.315C419.447 29.7 420.126 29.8925 420.932 29.8925C421.794 29.8925 422.518 29.6817 423.105 29.26C423.71 28.8383 424.077 28.3067 424.205 27.665H428.495C428.312 29.4067 427.542 30.7908 426.185 31.8175C424.847 32.8258 423.096 33.33 420.932 33.33ZM452.524 26.9775V23.265H456.896C457.776 23.265 458.482 22.9992 459.014 22.4675C459.546 21.9175 459.811 21.2025 459.811 20.3225C459.811 19.4792 459.546 18.8008 459.014 18.2875C458.482 17.7742 457.776 17.5175 456.896 17.5175H452.524V13.805H456.924C458.446 13.805 459.775 14.0708 460.911 14.6025C462.048 15.1342 462.928 15.895 463.551 16.885C464.175 17.8567 464.486 19.0025 464.486 20.3225C464.486 21.6608 464.175 22.8342 463.551 23.8425C462.928 24.8325 462.048 25.6025 460.911 26.1525C459.793 26.7025 458.464 26.9775 456.924 26.9775H452.524ZM449.279 33V13.805H453.816V33H449.279ZM477.725 25.355V23.2925C477.725 22.5958 477.541 22.0367 477.175 21.615C476.808 21.175 476.258 20.955 475.525 20.955C474.7 20.955 473.92 21.23 473.187 21.78C472.454 22.33 471.757 23.2833 471.097 24.64L470.657 21.0375C471.134 20.2308 471.656 19.5617 472.225 19.03C472.793 18.48 473.416 18.0675 474.095 17.7925C474.791 17.5175 475.552 17.38 476.377 17.38C478.009 17.38 479.356 17.8842 480.42 18.8925C481.483 19.8825 482.015 21.3492 482.015 23.2925V25.355H477.725ZM467.522 33V17.71H471.647L471.812 20.46V33H467.522ZM492.475 33.33C490.825 33.33 489.405 33.0092 488.213 32.3675C487.04 31.7258 486.132 30.8092 485.49 29.6175C484.849 28.4258 484.528 27.005 484.528 25.355C484.528 23.6867 484.849 22.2567 485.49 21.065C486.132 19.8733 487.058 18.9658 488.268 18.3425C489.496 17.7008 490.972 17.38 492.695 17.38C495.39 17.38 497.343 18.15 498.553 19.69C499.781 21.2117 500.295 23.3108 500.093 25.9875H487.938L487.965 23.045H495.72C495.665 22.3483 495.354 21.7892 494.785 21.3675C494.217 20.9275 493.511 20.7075 492.668 20.7075C491.348 20.7075 490.376 21.12 489.753 21.945C489.13 22.77 488.818 23.9708 488.818 25.5475C488.818 26.3358 488.955 27.06 489.23 27.72C489.505 28.38 489.909 28.9117 490.44 29.315C490.99 29.7 491.669 29.8925 492.475 29.8925C493.337 29.8925 494.061 29.6817 494.648 29.26C495.253 28.8383 495.62 28.3067 495.748 27.665H500.038C499.855 29.4067 499.085 30.7908 497.728 31.8175C496.39 32.8258 494.639 33.33 492.475 33.33ZM510.609 33.33C509.179 33.33 507.923 33.1008 506.841 32.6425C505.759 32.1658 504.916 31.4967 504.311 30.635C503.724 29.755 503.422 28.7192 503.404 27.5275H507.391C507.354 28.3708 507.62 29.0308 508.189 29.5075C508.775 29.9842 509.573 30.2225 510.581 30.2225C511.314 30.2225 511.901 30.1033 512.341 29.865C512.799 29.6083 513.029 29.26 513.029 28.82C513.029 28.435 512.854 28.1325 512.506 27.9125C512.176 27.6742 511.736 27.4908 511.186 27.3625C510.636 27.2158 510.031 27.0783 509.371 26.95C508.711 26.8033 508.042 26.6292 507.364 26.4275C506.704 26.2258 506.099 25.96 505.549 25.63C504.999 25.2817 504.549 24.8325 504.201 24.2825C503.871 23.7142 503.706 23.0083 503.706 22.165C503.706 21.1933 503.981 20.35 504.531 19.635C505.081 18.92 505.842 18.37 506.814 17.985C507.804 17.5817 508.94 17.38 510.224 17.38C512.185 17.38 513.771 17.8383 514.981 18.755C516.209 19.6533 516.888 20.9183 517.016 22.55H513.056C513.019 21.8717 512.744 21.3583 512.231 21.01C511.718 20.6617 511.058 20.4875 510.251 20.4875C509.573 20.4875 509.032 20.6067 508.629 20.845C508.225 21.0833 508.024 21.4408 508.024 21.9175C508.024 22.3025 508.189 22.605 508.519 22.825C508.867 23.0267 509.316 23.1917 509.866 23.32C510.416 23.4483 511.021 23.5675 511.681 23.6775C512.359 23.7875 513.029 23.9433 513.689 24.145C514.349 24.3283 514.954 24.585 515.504 24.915C516.054 25.245 516.494 25.685 516.824 26.235C517.172 26.785 517.346 27.4908 517.346 28.3525C517.346 29.9108 516.732 31.13 515.504 32.01C514.294 32.89 512.662 33.33 510.609 33.33ZM528.494 33.33C527.064 33.33 525.809 33.1008 524.727 32.6425C523.645 32.1658 522.802 31.4967 522.197 30.635C521.61 29.755 521.308 28.7192 521.289 27.5275H525.277C525.24 28.3708 525.506 29.0308 526.074 29.5075C526.661 29.9842 527.459 30.2225 528.467 30.2225C529.2 30.2225 529.787 30.1033 530.227 29.865C530.685 29.6083 530.914 29.26 530.914 28.82C530.914 28.435 530.74 28.1325 530.392 27.9125C530.062 27.6742 529.622 27.4908 529.072 27.3625C528.522 27.2158 527.917 27.0783 527.257 26.95C526.597 26.8033 525.928 26.6292 525.249 26.4275C524.589 26.2258 523.984 25.96 523.434 25.63C522.884 25.2817 522.435 24.8325 522.087 24.2825C521.757 23.7142 521.592 23.0083 521.592 22.165C521.592 21.1933 521.867 20.35 522.417 19.635C522.967 18.92 523.728 18.37 524.699 17.985C525.689 17.5817 526.826 17.38 528.109 17.38C530.071 17.38 531.657 17.8383 532.867 18.755C534.095 19.6533 534.774 20.9183 534.902 22.55H530.942C530.905 21.8717 530.63 21.3583 530.117 21.01C529.604 20.6617 528.944 20.4875 528.137 20.4875C527.459 20.4875 526.918 20.6067 526.514 20.845C526.111 21.0833 525.909 21.4408 525.909 21.9175C525.909 22.3025 526.074 22.605 526.404 22.825C526.753 23.0267 527.202 23.1917 527.752 23.32C528.302 23.4483 528.907 23.5675 529.567 23.6775C530.245 23.7875 530.914 23.9433 531.574 24.145C532.234 24.3283 532.839 24.585 533.389 24.915C533.939 25.245 534.379 25.685 534.709 26.235C535.058 26.785 535.232 27.4908 535.232 28.3525C535.232 29.9108 534.618 31.13 533.389 32.01C532.179 32.89 530.548 33.33 528.494 33.33Z" fill="#0077CC"/>
<defs>
<filter id="filter0_f_311_692" x="127" y="89" width="313" height="262.66" filterUnits="userSpaceOnUse" color-interpolation-filters="sRGB">
<feFlood flood-opacity="0" result="BackgroundImageFix"/>
<feBlend mode="normal" in="SourceGraphic" in2="BackgroundImageFix" result="shape"/>
<feGaussianBlur stdDeviation="2" result="effect1_foregroundBlur_311_692"/>
</filter>
<filter id="filter1_n_311_692" x="48" y="65" width="150" height="150" filterUnits="userSpaceOnUse" color-interpolation-filters="sRGB">
<feFlood flood-opacity="0" result="BackgroundImageFix"/>
<feBlend mode="normal" in="SourceGraphic" in2="BackgroundImageFix" result="shape"/>
<feTurbulence type="fractalNoise" baseFrequency="0.0099999997764825821 0.0099999997764825821" stitchTiles="stitch" numOctaves="3" result="noise" seed="3850" />
<feComponentTransfer in="noise" result="coloredNoise1">
<feFuncR type="linear" slope="2" intercept="-0.5" />
<feFuncG type="linear" slope="2" intercept="-0.5" />
<feFuncB type="linear" slope="2" intercept="-0.5" />
<feFuncA type="discrete" tableValues="0 0 0 0 0 0 0 0 0 0 0 0 0 0 1 1 1 1 1 1 1 1 1 1 1 1 1 1 1 1 1 1 1 1 1 0 0 0 0 0 0 0 0 0 0 0 0 0 0 0 0 0 0 0 0 0 0 0 0 0 0 0 0 0 0 0 0 0 0 0 0 0 0 0 0 0 0 0 0 0 0 0 0 0 0 0 0 0 0 0 0 0 0 0 0 0 0 0 0 0 "/>
</feComponentTransfer>
<feComposite operator="in" in2="shape" in="coloredNoise1" result="noise1Clipped" />
<feComponentTransfer in="noise1Clipped" result="color1">
<feFuncA type="table" tableValues="0 0.15" />
</feComponentTransfer>
<feMerge result="effect1_noise_311_692">
<feMergeNode in="shape" />
<feMergeNode in="color1" />
</feMerge>
</filter>
<filter id="filter2_n_311_692" x="207" y="65" width="150" height="150" filterUnits="userSpaceOnUse" color-interpolation-filters="sRGB">
<feFlood flood-opacity="0" result="BackgroundImageFix"/>
<feBlend mode="normal" in="SourceGraphic" in2="BackgroundImageFix" result="shape"/>
<feTurbulence type="fractalNoise" baseFrequency="0.019342359155416489 0.019342359155416489" stitchTiles="stitch" numOctaves="3" result="noise" seed="3850" />
<feComponentTransfer in="noise" result="coloredNoise1">
<feFuncR type="linear" slope="2" intercept="-0.5" />
<feFuncG type="linear" slope="2" intercept="-0.5" />
<feFuncB type="linear" slope="2" intercept="-0.5" />
<feFuncA type="discrete" tableValues="0 0 1 1 1 1 1 1 1 1 1 1 1 1 1 1 1 1 1 1 1 1 1 1 1 1 1 1 1 1 1 1 1 1 1 1 1 1 1 1 1 1 1 1 1 1 1 1 0 0 0 0 0 0 0 0 0 0 0 0 0 0 0 0 0 0 0 0 0 0 0 0 0 0 0 0 0 0 0 0 0 0 0 0 0 0 0 0 0 0 0 0 0 0 0 0 0 0 0 0 "/>
</feComponentTransfer>
<feComposite operator="in" in2="shape" in="coloredNoise1" result="noise1Clipped" />
<feComponentTransfer in="noise1Clipped" result="color1">
<feFuncA type="table" tableValues="0 0.15" />
</feComponentTransfer>
<feMerge result="effect1_noise_311_692">
<feMergeNode in="shape" />
<feMergeNode in="color1" />
</feMerge>
</filter>
<filter id="filter3_n_311_692" x="366" y="65" width="150" height="150" filterUnits="userSpaceOnUse" color-interpolation-filters="sRGB">
<feFlood flood-opacity="0" result="BackgroundImageFix"/>
<feBlend mode="normal" in="SourceGraphic" in2="BackgroundImageFix" result="shape"/>
<feTurbulence type="fractalNoise" baseFrequency="0.0099999997764825821 0.0099999997764825821" stitchTiles="stitch" numOctaves="3" result="noise" seed="3850" />
<feComponentTransfer in="noise" result="coloredNoise1">
<feFuncR type="linear" slope="2" intercept="-0.5" />
<feFuncG type="linear" slope="2" intercept="-0.5" />
<feFuncB type="linear" slope="2" intercept="-0.5" />
<feFuncA type="discrete" tableValues="1 1 1 1 1 1 1 1 1 1 1 1 1 1 1 1 1 1 1 1 1 1 1 1 1 1 1 1 1 1 1 1 1 1 1 1 1 1 1 1 1 1 1 1 1 1 1 1 1 1 1 0 0 0 0 0 0 0 0 0 0 0 0 0 0 0 0 0 0 0 0 0 0 0 0 0 0 0 0 0 0 0 0 0 0 0 0 0 0 0 0 0 0 0 0 0 0 0 0 0 "/>
</feComponentTransfer>
<feComposite operator="in" in2="shape" in="coloredNoise1" result="noise1Clipped" />
<feComponentTransfer in="noise1Clipped" result="color1">
<feFuncA type="table" tableValues="0 0.15" />
</feComponentTransfer>
<feMerge result="effect1_noise_311_692">
<feMergeNode in="shape" />
<feMergeNode in="color1" />
</feMerge>
</filter>
<filter id="filter4_n_311_692" x="127" y="225" width="150" height="150" filterUnits="userSpaceOnUse" color-interpolation-filters="sRGB">
<feFlood flood-opacity="0" result="BackgroundImageFix"/>
<feBlend mode="normal" in="SourceGraphic" in2="BackgroundImageFix" result="shape"/>
<feTurbulence type="fractalNoise" baseFrequency="0.012836970388889313 0.012836970388889313" stitchTiles="stitch" numOctaves="3" result="noise" seed="3850" />
<feComponentTransfer in="noise" result="coloredNoise1">
<feFuncR type="linear" slope="2" intercept="-0.5" />
<feFuncG type="linear" slope="2" intercept="-0.5" />
<feFuncB type="linear" slope="2" intercept="-0.5" />
<feFuncA type="discrete" tableValues="1 1 1 1 1 1 1 1 1 1 1 1 1 1 1 1 1 1 1 1 1 1 1 1 1 1 1 1 1 1 1 1 1 1 1 1 1 1 1 1 1 1 1 1 1 1 1 1 1 1 1 0 0 0 0 0 0 0 0 0 0 0 0 0 0 0 0 0 0 0 0 0 0 0 0 0 0 0 0 0 0 0 0 0 0 0 0 0 0 0 0 0 0 0 0 0 0 0 0 0 "/>
</feComponentTransfer>
<feComposite operator="in" in2="shape" in="coloredNoise1" result="noise1Clipped" />
<feComponentTransfer in="noise1Clipped" result="color1">
<feFuncA type="table" tableValues="0 0.15" />
</feComponentTransfer>
<feMerge result="effect1_noise_311_692">
<feMergeNode in="shape" />
<feMergeNode in="color1" />
</feMerge>
</filter>
<filter id="filter5_n_311_692" x="286" y="225" width="150" height="150" filterUnits="userSpaceOnUse" color-interpolation-filters="sRGB">
<feFlood flood-opacity="0" result="BackgroundImageFix"/>
<feBlend mode="normal" in="SourceGraphic" in2="BackgroundImageFix" result="shape"/>
<feTurbulence type="fractalNoise" baseFrequency="0.0099999997764825821 0.0099999997764825821" stitchTiles="stitch" numOctaves="3" result="noise" seed="3850" />
<feComponentTransfer in="noise" result="coloredNoise1">
<feFuncR type="linear" slope="2" intercept="-0.5" />
<feFuncG type="linear" slope="2" intercept="-0.5" />
<feFuncB type="linear" slope="2" intercept="-0.5" />
<feFuncA type="discrete" tableValues="1 1 1 1 1 1 1 1 1 1 1 1 1 1 1 1 1 1 1 1 1 1 1 1 1 1 1 1 1 1 1 1 1 1 1 1 1 1 1 1 1 1 1 1 1 1 1 1 1 1 1 0 0 0 0 0 0 0 0 0 0 0 0 0 0 0 0 0 0 0 0 0 0 0 0 0 0 0 0 0 0 0 0 0 0 0 0 0 0 0 0 0 0 0 0 0 0 0 0 0 "/>
</feComponentTransfer>
<feComposite operator="in" in2="shape" in="coloredNoise1" result="noise1Clipped" />
<feComponentTransfer in="noise1Clipped" result="color1">
<feFuncA type="table" tableValues="0 0.15" />
</feComponentTransfer>
<feMerge result="effect1_noise_311_692">
<feMergeNode in="shape" />
<feMergeNode in="color1" />
</feMerge>
</filter>
<linearGradient id="paint0_linear_311_692" x1="323" y1="0" x2="323" y2="411" gradientUnits="userSpaceOnUse">
<stop stop-color="#94AAB8"/>
<stop offset="1" stop-color="#7B8E9B"/>
</linearGradient>
<linearGradient id="paint1_linear_311_692" x1="283.5" y1="93" x2="283.5" y2="347.66" gradientUnits="userSpaceOnUse">
<stop stop-color="#F1C862"/>
<stop offset="1" stop-color="#BF8D29"/>
</linearGradient>
<linearGradient id="paint2_linear_311_692" x1="283.5" y1="93" x2="283.5" y2="347.66" gradientUnits="userSpaceOnUse">
<stop stop-color="#F1CE77"/>
<stop offset="1" stop-color="#AF7D19"/>
</linearGradient>
<linearGradient id="paint3_linear_311_692" x1="283.5" y1="93" x2="283.5" y2="347.66" gradientUnits="userSpaceOnUse">
<stop stop-color="#F1CE77"/>
<stop offset="1" stop-color="#AF7D19"/>
</linearGradient>
<linearGradient id="paint4_linear_311_692" x1="283.5" y1="93" x2="283.5" y2="347.66" gradientUnits="userSpaceOnUse">
<stop stop-color="#A6530A"/>
<stop offset="1" stop-color="#6E4B04"/>
</linearGradient>
<linearGradient id="paint5_linear_311_692" x1="283.5" y1="93" x2="283.5" y2="347.66" gradientUnits="userSpaceOnUse">
<stop stop-color="#A6530A"/>
<stop offset="1" stop-color="#6E4B04"/>
</linearGradient>
<radialGradient id="paint6_radial_311_692" cx="0" cy="0" r="1" gradientUnits="userSpaceOnUse" gradientTransform="translate(143.625 120.95) rotate(136.081) scale(86.2117)">
<stop stop-color="#6BD070"/>
<stop offset="1" stop-color="#618A55"/>
</radialGradient>
<linearGradient id="paint7_linear_311_692" x1="123" y1="65" x2="123" y2="215" gradientUnits="userSpaceOnUse">
<stop stop-color="#F9F8F8"/>
<stop offset="1" stop-color="#E6F4FF"/>
</linearGradient>
<radialGradient id="paint8_radial_311_692" cx="0" cy="0" r="1" gradientUnits="userSpaceOnUse" gradientTransform="translate(300.9 122.64) rotate(136.081) scale(80.964)">
<stop stop-color="#F15FC7"/>
<stop offset="1" stop-color="#BD1563"/>
</radialGradient>
<linearGradient id="paint9_linear_311_692" x1="282" y1="65" x2="282" y2="215" gradientUnits="userSpaceOnUse">
<stop stop-color="#F9F8F8"/>
<stop offset="1" stop-color="#E6F4FF"/>
</linearGradient>
<radialGradient id="paint10_radial_311_692" cx="0" cy="0" r="1" gradientUnits="userSpaceOnUse" gradientTransform="translate(459.625 120.95) rotate(136.081) scale(86.2117)">
<stop stop-color="#F1C35F"/>
<stop offset="1" stop-color="#CC8B00"/>
</radialGradient>
<linearGradient id="paint11_linear_311_692" x1="441" y1="65" x2="441" y2="215" gradientUnits="userSpaceOnUse">
<stop stop-color="#F9F8F8"/>
<stop offset="1" stop-color="#E6F4FF"/>
</linearGradient>
<radialGradient id="paint12_radial_311_692" cx="0" cy="0" r="1" gradientUnits="userSpaceOnUse" gradientTransform="translate(222.25 281.3) rotate(136.081) scale(82.4633)">
<stop stop-color="#C05FF1"/>
<stop offset="1" stop-color="#8515BD"/>
</radialGradient>
<linearGradient id="paint13_linear_311_692" x1="202" y1="225" x2="202" y2="375" gradientUnits="userSpaceOnUse">
<stop stop-color="#F9F8F8"/>
<stop offset="1" stop-color="#E6F4FF"/>
</linearGradient>
<radialGradient id="paint14_radial_311_692" cx="0" cy="0" r="1" gradientUnits="userSpaceOnUse" gradientTransform="translate(380.25 282.3) rotate(136.081) scale(82.4633)">
<stop stop-color="#5FF17C"/>
<stop offset="1" stop-color="#00CC36"/>
</radialGradient>
<linearGradient id="paint15_linear_311_692" x1="361" y1="225" x2="361" y2="375" gradientUnits="userSpaceOnUse">
<stop stop-color="#F9F8F8"/>
<stop offset="1" stop-color="#E6F4FF"/>
</linearGradient>
<clipPath id="clip0_311_692">
<rect width="85.0916" height="85.0916" fill="white" transform="translate(551.908 7)"/>
</clipPath>
</defs>
</svg>
