<svg width="646" height="411" viewBox="0 0 646 411" fill="none" xmlns="http://www.w3.org/2000/svg">
<g filter="url(#filter0_n_311_706)">
<rect width="646" height="411" fill="url(#paint0_linear_311_706)"/>
</g>
<g filter="url(#filter1_i_311_706)">
<circle cx="202.5" cy="141.156" r="57.4302" fill="url(#paint1_radial_311_706)"/>
</g>
<g filter="url(#filter2_n_311_706)">
<rect x="127" y="65.8398" width="150" height="149.636" rx="15" fill="url(#paint2_linear_311_706)" fill-opacity="0.5"/>
<rect x="129.5" y="68.3398" width="145" height="144.636" rx="12.5" stroke="#D2ECFF" stroke-width="5"/>
</g>
<path d="M175.109 157.721V124.994H198.121V132.153H183.994V137.778H196.714V144.937H183.994V157.721H175.109ZM211.476 158.168C208.855 158.168 206.597 157.668 204.701 156.666C202.815 155.654 201.361 154.205 200.338 152.32C199.326 150.423 198.82 148.154 198.82 145.512C198.82 142.977 199.331 140.761 200.354 138.864C201.377 136.968 202.82 135.493 204.685 134.438C206.549 133.383 208.749 132.856 211.284 132.856C213.138 132.856 214.816 133.144 216.318 133.719C217.82 134.294 219.104 135.13 220.169 136.228C221.235 137.314 222.055 138.635 222.63 140.191C223.206 141.746 223.493 143.499 223.493 145.448V147.494H201.568V142.636H215.375C215.365 141.933 215.184 141.315 214.832 140.782C214.491 140.239 214.028 139.818 213.442 139.52C212.866 139.211 212.211 139.056 211.476 139.056C210.762 139.056 210.107 139.211 209.511 139.52C208.914 139.818 208.435 140.233 208.072 140.766C207.721 141.299 207.534 141.922 207.513 142.636V147.877C207.513 148.666 207.678 149.369 208.008 149.987C208.339 150.604 208.813 151.089 209.431 151.441C210.049 151.792 210.794 151.968 211.668 151.968C212.275 151.968 212.829 151.883 213.33 151.712C213.841 151.542 214.278 151.297 214.64 150.977C215.002 150.647 215.269 150.253 215.439 149.795H223.493C223.216 151.499 222.561 152.98 221.528 154.237C220.494 155.484 219.125 156.453 217.421 157.146C215.727 157.827 213.745 158.168 211.476 158.168Z" fill="black"/>
<path d="M187.844 162.702V173.612H186.199V162.702H187.844ZM190.114 173.612V165.43H191.653V166.729H191.738C191.887 166.289 192.15 165.943 192.527 165.691C192.907 165.435 193.336 165.307 193.816 165.307C193.915 165.307 194.032 165.311 194.167 165.318C194.306 165.325 194.414 165.334 194.492 165.345V166.868C194.428 166.85 194.315 166.831 194.151 166.809C193.988 166.785 193.825 166.772 193.661 166.772C193.285 166.772 192.949 166.852 192.654 167.012C192.363 167.168 192.132 167.386 191.962 167.667C191.792 167.944 191.706 168.26 191.706 168.615V173.612H190.114ZM199.024 173.777C198.257 173.777 197.587 173.601 197.016 173.249C196.444 172.898 196 172.406 195.684 171.774C195.368 171.142 195.21 170.403 195.21 169.558C195.21 168.709 195.368 167.967 195.684 167.331C196 166.696 196.444 166.202 197.016 165.851C197.587 165.499 198.257 165.323 199.024 165.323C199.791 165.323 200.46 165.499 201.032 165.851C201.604 166.202 202.048 166.696 202.364 167.331C202.68 167.967 202.838 168.709 202.838 169.558C202.838 170.403 202.68 171.142 202.364 171.774C202.048 172.406 201.604 172.898 201.032 173.249C200.46 173.601 199.791 173.777 199.024 173.777ZM199.029 172.44C199.526 172.44 199.938 172.308 200.265 172.046C200.592 171.783 200.833 171.433 200.989 170.996C201.149 170.559 201.229 170.078 201.229 169.553C201.229 169.031 201.149 168.551 200.989 168.114C200.833 167.674 200.592 167.321 200.265 167.054C199.938 166.788 199.526 166.655 199.029 166.655C198.528 166.655 198.113 166.788 197.783 167.054C197.456 167.321 197.213 167.674 197.053 168.114C196.897 168.551 196.819 169.031 196.819 169.553C196.819 170.078 196.897 170.559 197.053 170.996C197.213 171.433 197.456 171.783 197.783 172.046C198.113 172.308 198.528 172.44 199.029 172.44ZM206.208 168.754V173.612H204.616V165.43H206.144V166.761H206.246C206.434 166.328 206.729 165.98 207.13 165.717C207.535 165.455 208.044 165.323 208.659 165.323C209.216 165.323 209.704 165.44 210.123 165.675C210.542 165.906 210.867 166.25 211.098 166.708C211.329 167.166 211.444 167.733 211.444 168.407V173.612H209.852V168.599C209.852 168.006 209.697 167.543 209.388 167.209C209.079 166.872 208.655 166.703 208.115 166.703C207.746 166.703 207.417 166.783 207.13 166.943C206.846 167.102 206.62 167.337 206.453 167.646C206.29 167.951 206.208 168.32 206.208 168.754Z" fill="black"/>
<path d="M139.308 103.806V103.344L145.132 96.4551C146.044 95.3779 146.754 94.4783 147.263 93.7562C147.772 93.0282 148.13 92.3831 148.337 91.8208C148.544 91.2526 148.648 90.6667 148.648 90.063C148.648 89.2699 148.464 88.5627 148.097 87.9412C147.736 87.3198 147.239 86.8315 146.606 86.4764C145.978 86.1212 145.262 85.9437 144.457 85.9437C143.617 85.9437 142.877 86.136 142.238 86.5208C141.599 86.8995 141.099 87.4085 140.738 88.0477C140.377 88.6869 140.196 89.3942 140.196 90.1695H139.628C139.628 89.2877 139.832 88.4857 140.24 87.7636C140.655 87.0357 141.223 86.4556 141.945 86.0236C142.673 85.5915 143.51 85.3755 144.457 85.3755C145.369 85.3755 146.183 85.5797 146.899 85.9881C147.615 86.3905 148.18 86.9469 148.594 87.6571C149.009 88.3614 149.216 89.1634 149.216 90.063C149.216 90.7318 149.103 91.371 148.879 91.9806C148.66 92.5902 148.284 93.2709 147.751 94.0225C147.224 94.7742 146.493 95.7034 145.558 96.8102L140.196 103.167V103.238H150.281V103.806H139.308ZM159.949 104.054C159.18 104.054 158.467 103.88 157.81 103.531C157.153 103.182 156.579 102.658 156.087 101.959C155.602 101.255 155.223 100.37 154.951 99.3048C154.685 98.2395 154.551 96.9936 154.551 95.5673C154.551 94.3421 154.637 93.1288 154.809 91.9274C154.987 90.72 155.282 89.6221 155.697 88.6337C156.111 87.6453 156.679 86.8552 157.401 86.2633C158.123 85.6714 159.032 85.3755 160.127 85.3755C161.026 85.3755 161.811 85.5797 162.479 85.9881C163.148 86.3905 163.678 86.9528 164.069 87.6749C164.459 88.391 164.684 89.2226 164.743 90.1695H164.175C164.086 88.9207 163.687 87.9057 162.977 87.1244C162.272 86.3373 161.322 85.9437 160.127 85.9437C158.47 85.9437 157.221 86.793 156.38 88.4916C155.54 90.1843 155.12 92.6257 155.12 95.8159H155.191C155.386 95.2122 155.714 94.6765 156.176 94.209C156.644 93.7355 157.197 93.3656 157.836 93.0992C158.475 92.827 159.144 92.6909 159.843 92.6909C160.796 92.6909 161.666 92.9394 162.453 93.4366C163.246 93.9337 163.879 94.6114 164.353 95.4696C164.826 96.3278 165.063 97.2955 165.063 98.3727C165.063 99.3788 164.847 100.314 164.415 101.178C163.989 102.042 163.391 102.738 162.621 103.264C161.858 103.791 160.967 104.054 159.949 104.054ZM159.949 103.486C160.825 103.486 161.603 103.255 162.284 102.794C162.971 102.332 163.509 101.714 163.9 100.938C164.296 100.163 164.495 99.3078 164.495 98.3727C164.495 97.4139 164.285 96.5498 163.864 95.7803C163.45 95.005 162.888 94.3924 162.178 93.9426C161.473 93.4869 160.683 93.259 159.807 93.259C159.115 93.259 158.473 93.404 157.881 93.694C157.289 93.9781 156.783 94.3717 156.363 94.8748C155.948 95.372 155.652 95.9431 155.475 96.5882C155.297 97.2333 155.274 97.911 155.404 98.6212C155.605 99.6866 155.919 100.58 156.345 101.302C156.777 102.024 157.298 102.569 157.907 102.936C158.523 103.303 159.203 103.486 159.949 103.486Z" fill="black"/>
<g filter="url(#filter3_gn_311_706)">
<circle cx="361" cy="141.564" r="74.9089" fill="url(#paint3_radial_311_706)"/>
</g>
<g filter="url(#filter4_n_311_706)">
<rect x="286" y="65.8398" width="150" height="149.636" rx="15" fill="url(#paint4_linear_311_706)" fill-opacity="0.5"/>
<rect x="288.5" y="68.3398" width="145" height="144.636" rx="12.5" stroke="#D2ECFF" stroke-width="5"/>
</g>
<path d="M364.994 124.994V157.721H356.109V124.994H364.994Z" fill="black"/>
<path d="M341.844 162.702V173.612H340.199V162.702H341.844ZM347.56 173.777C346.793 173.777 346.124 173.601 345.552 173.249C344.98 172.898 344.536 172.406 344.22 171.774C343.904 171.142 343.746 170.403 343.746 169.558C343.746 168.709 343.904 167.967 344.22 167.331C344.536 166.696 344.98 166.202 345.552 165.851C346.124 165.499 346.793 165.323 347.56 165.323C348.327 165.323 348.996 165.499 349.568 165.851C350.14 166.202 350.584 166.696 350.9 167.331C351.216 167.967 351.374 168.709 351.374 169.558C351.374 170.403 351.216 171.142 350.9 171.774C350.584 172.406 350.14 172.898 349.568 173.249C348.996 173.601 348.327 173.777 347.56 173.777ZM347.565 172.44C348.063 172.44 348.474 172.308 348.801 172.046C349.128 171.783 349.369 171.433 349.526 170.996C349.685 170.559 349.765 170.078 349.765 169.553C349.765 169.031 349.685 168.551 349.526 168.114C349.369 167.674 349.128 167.321 348.801 167.054C348.474 166.788 348.063 166.655 347.565 166.655C347.065 166.655 346.649 166.788 346.319 167.054C345.992 167.321 345.749 167.674 345.589 168.114C345.433 168.551 345.355 169.031 345.355 169.553C345.355 170.078 345.433 170.559 345.589 170.996C345.749 171.433 345.992 171.783 346.319 172.046C346.649 172.308 347.065 172.44 347.565 172.44ZM356.215 173.771C355.554 173.771 354.965 173.603 354.446 173.265C353.931 172.924 353.526 172.44 353.232 171.811C352.94 171.179 352.795 170.421 352.795 169.537C352.795 168.652 352.942 167.896 353.237 167.267C353.535 166.639 353.944 166.158 354.462 165.824C354.981 165.49 355.568 165.323 356.225 165.323C356.733 165.323 357.141 165.408 357.45 165.579C357.763 165.746 358.004 165.941 358.175 166.165C358.349 166.389 358.484 166.586 358.58 166.756H358.676V162.702H360.268V173.612H358.713V172.338H358.58C358.484 172.512 358.345 172.711 358.164 172.935C357.987 173.159 357.742 173.354 357.429 173.521C357.117 173.688 356.712 173.771 356.215 173.771ZM356.566 172.413C357.024 172.413 357.411 172.292 357.727 172.051C358.047 171.806 358.288 171.467 358.452 171.033C358.619 170.6 358.702 170.096 358.702 169.521C358.702 168.952 358.62 168.455 358.457 168.029C358.294 167.603 358.054 167.271 357.738 167.033C357.422 166.795 357.031 166.676 356.566 166.676C356.087 166.676 355.687 166.8 355.368 167.049C355.048 167.298 354.807 167.637 354.643 168.066C354.483 168.496 354.403 168.981 354.403 169.521C354.403 170.068 354.485 170.559 354.649 170.996C354.812 171.433 355.053 171.779 355.373 172.035C355.696 172.287 356.094 172.413 356.566 172.413ZM362.541 173.612V165.43H364.134V173.612H362.541ZM363.346 164.167C363.069 164.167 362.831 164.075 362.632 163.89C362.437 163.702 362.339 163.478 362.339 163.219C362.339 162.956 362.437 162.733 362.632 162.548C362.831 162.36 363.069 162.266 363.346 162.266C363.623 162.266 363.859 162.36 364.054 162.548C364.253 162.733 364.352 162.956 364.352 163.219C364.352 163.478 364.253 163.702 364.054 163.89C363.859 164.075 363.623 164.167 363.346 164.167ZM367.869 168.754V173.612H366.277V165.43H367.805V166.761H367.907C368.095 166.328 368.39 165.98 368.791 165.717C369.196 165.455 369.705 165.323 370.32 165.323C370.877 165.323 371.366 165.44 371.785 165.675C372.204 165.906 372.528 166.25 372.759 166.708C372.99 167.166 373.106 167.733 373.106 168.407V173.612H371.513V168.599C371.513 168.006 371.358 167.543 371.049 167.209C370.741 166.872 370.316 166.703 369.776 166.703C369.407 166.703 369.079 166.783 368.791 166.943C368.507 167.102 368.281 167.337 368.114 167.646C367.951 167.951 367.869 168.32 367.869 168.754ZM378.768 173.777C377.962 173.777 377.267 173.604 376.685 173.26C376.106 172.912 375.659 172.424 375.343 171.795C375.03 171.163 374.874 170.423 374.874 169.574C374.874 168.736 375.03 167.997 375.343 167.358C375.659 166.719 376.099 166.22 376.664 165.861C377.232 165.503 377.896 165.323 378.656 165.323C379.118 165.323 379.565 165.4 379.998 165.552C380.432 165.705 380.82 165.945 381.165 166.271C381.509 166.598 381.781 167.022 381.98 167.544C382.179 168.063 382.278 168.693 382.278 169.435V170H375.774V168.807H380.717C380.717 168.388 380.632 168.017 380.462 167.694C380.291 167.367 380.052 167.109 379.743 166.921C379.437 166.733 379.079 166.639 378.667 166.639C378.219 166.639 377.829 166.749 377.495 166.969C377.165 167.186 376.909 167.47 376.728 167.821C376.55 168.169 376.461 168.548 376.461 168.956V169.888C376.461 170.435 376.557 170.9 376.749 171.284C376.944 171.667 377.216 171.96 377.564 172.163C377.912 172.362 378.319 172.461 378.784 172.461C379.086 172.461 379.361 172.418 379.609 172.333C379.858 172.244 380.073 172.113 380.254 171.939C380.435 171.765 380.574 171.55 380.669 171.294L382.177 171.566C382.056 172.01 381.84 172.399 381.527 172.733C381.218 173.063 380.829 173.32 380.361 173.505C379.895 173.686 379.364 173.777 378.768 173.777Z" fill="black"/>
<path d="M302.889 104.054C301.948 104.054 301.117 103.85 300.395 103.442C299.672 103.034 299.107 102.468 298.699 101.746C298.29 101.024 298.089 100.196 298.095 99.2605H298.663C298.657 100.503 299.042 101.518 299.817 102.306C300.599 103.093 301.623 103.486 302.889 103.486C303.842 103.486 304.683 103.253 305.411 102.785C306.138 102.317 306.707 101.681 307.115 100.876C307.523 100.071 307.725 99.1658 307.719 98.1596C307.713 97.0824 307.485 96.1502 307.035 95.3631C306.591 94.5759 305.999 93.9693 305.26 93.5431C304.526 93.117 303.724 92.9039 302.854 92.9039C302.138 92.9039 301.489 93.04 300.909 93.3123C300.329 93.5846 299.829 93.9337 299.409 94.3599L298.557 94.2178L299.622 85.6241H307.683V86.1923H300.119L299.196 93.7207H299.267C299.723 93.3005 300.252 92.9661 300.856 92.7175C301.46 92.463 302.126 92.3357 302.854 92.3357C303.83 92.3357 304.73 92.5784 305.553 93.0637C306.381 93.5431 307.044 94.2208 307.541 95.0967C308.044 95.9668 308.293 96.9877 308.287 98.1596C308.281 99.2841 308.047 100.29 307.586 101.178C307.124 102.066 306.488 102.767 305.677 103.282C304.866 103.797 303.937 104.054 302.889 104.054ZM318.024 104.054C317 104.054 316.079 103.847 315.263 103.433C314.452 103.019 313.81 102.451 313.336 101.728C312.863 101.006 312.626 100.184 312.626 99.2605H313.194C313.194 100.077 313.407 100.805 313.833 101.444C314.259 102.078 314.837 102.578 315.565 102.945C316.298 103.306 317.118 103.486 318.024 103.486C318.988 103.486 319.832 103.288 320.554 102.891C321.276 102.495 321.838 101.962 322.241 101.293C322.649 100.625 322.853 99.8878 322.853 99.0829C322.853 98.2129 322.622 97.4494 322.161 96.7924C321.699 96.1355 321.063 95.6265 320.252 95.2654C319.447 94.8985 318.527 94.715 317.491 94.715H317.207V94.1468H317.491C318.402 94.1468 319.222 93.9781 319.95 93.6408C320.678 93.3034 321.255 92.827 321.681 92.2114C322.108 91.5959 322.321 90.8679 322.321 90.0275C322.321 89.2462 322.137 88.5479 321.77 87.9323C321.403 87.3168 320.894 86.8315 320.243 86.4764C319.598 86.1212 318.846 85.9437 317.988 85.9437C317.142 85.9437 316.39 86.1242 315.733 86.4852C315.076 86.8404 314.558 87.3375 314.18 87.9767C313.807 88.61 313.62 89.3409 313.62 90.1695H313.052C313.052 89.2344 313.265 88.4058 313.691 87.6837C314.117 86.9617 314.7 86.3965 315.44 85.9881C316.186 85.5797 317.035 85.3755 317.988 85.3755C318.941 85.3755 319.784 85.5797 320.518 85.9881C321.258 86.3905 321.838 86.9439 322.258 87.6482C322.679 88.3466 322.889 89.1397 322.889 90.0275C322.889 91.0928 322.584 92.0073 321.974 92.7708C321.365 93.5342 320.545 94.064 319.515 94.3599V94.4309C320.705 94.7328 321.652 95.295 322.356 96.1177C323.066 96.9404 323.421 97.9288 323.421 99.0829C323.421 100.012 323.191 100.853 322.729 101.604C322.273 102.356 321.64 102.954 320.829 103.398C320.018 103.836 319.083 104.054 318.024 104.054Z" fill="black"/>
<g filter="url(#filter5_i_311_706)">
<circle cx="202" cy="296.279" r="59.9271" fill="url(#paint5_radial_311_706)"/>
</g>
<g filter="url(#filter6_n_311_706)">
<rect x="127" y="225.451" width="150" height="149.636" rx="15" fill="url(#paint6_linear_311_706)" fill-opacity="0.5"/>
<rect x="129.5" y="227.951" width="145" height="144.636" rx="12.5" stroke="#D2ECFF" stroke-width="5"/>
</g>
<path d="M200.663 287.9H191.651C191.587 287.154 191.416 286.478 191.139 285.87C190.873 285.263 190.5 284.741 190.021 284.304C189.552 283.857 188.982 283.516 188.311 283.282C187.64 283.037 186.878 282.914 186.026 282.914C184.534 282.914 183.272 283.276 182.238 284.001C181.216 284.725 180.438 285.764 179.905 287.117C179.383 288.47 179.122 290.095 179.122 291.991C179.122 293.994 179.388 295.672 179.921 297.025C180.464 298.367 181.248 299.379 182.27 300.061C183.293 300.732 184.523 301.068 185.962 301.068C186.782 301.068 187.517 300.966 188.167 300.764C188.817 300.551 189.381 300.247 189.861 299.853C190.34 299.459 190.729 298.985 191.027 298.431C191.336 297.866 191.544 297.232 191.651 296.529L200.663 296.593C200.557 297.978 200.168 299.39 199.497 300.828C198.826 302.255 197.872 303.576 196.636 304.791C195.411 305.995 193.893 306.964 192.082 307.699C190.271 308.434 188.167 308.802 185.77 308.802C182.766 308.802 180.07 308.157 177.684 306.868C175.308 305.579 173.428 303.683 172.043 301.179C170.669 298.676 169.982 295.613 169.982 291.991C169.982 288.347 170.685 285.279 172.091 282.786C173.497 280.283 175.393 278.392 177.78 277.113C180.166 275.824 182.83 275.18 185.77 275.18C187.837 275.18 189.738 275.462 191.475 276.027C193.211 276.591 194.735 277.417 196.045 278.504C197.355 279.58 198.41 280.906 199.209 282.483C200.008 284.059 200.493 285.865 200.663 287.9ZM220.738 297.616V283.809H229.559V308.354H221.186V303.688H220.93C220.397 305.254 219.465 306.479 218.134 307.364C216.802 308.237 215.22 308.674 213.388 308.674C211.672 308.674 210.17 308.28 208.881 307.492C207.603 306.703 206.607 305.617 205.893 304.232C205.19 302.847 204.833 301.259 204.822 299.47V283.809H213.643V297.616C213.654 298.83 213.963 299.784 214.57 300.476C215.188 301.169 216.051 301.515 217.159 301.515C217.894 301.515 218.528 301.361 219.06 301.052C219.604 300.732 220.019 300.285 220.307 299.709C220.605 299.123 220.749 298.426 220.738 297.616Z" fill="black"/>
<path d="M181.259 320.874H179.597C179.533 320.519 179.414 320.206 179.24 319.936C179.066 319.666 178.853 319.437 178.601 319.249C178.349 319.061 178.067 318.919 177.754 318.823C177.445 318.727 177.117 318.679 176.769 318.679C176.14 318.679 175.577 318.837 175.08 319.153C174.587 319.469 174.196 319.933 173.908 320.544C173.624 321.154 173.482 321.9 173.482 322.781C173.482 323.669 173.624 324.418 173.908 325.029C174.196 325.639 174.588 326.101 175.086 326.414C175.583 326.726 176.142 326.882 176.763 326.882C177.108 326.882 177.435 326.836 177.744 326.744C178.056 326.648 178.338 326.508 178.591 326.323C178.843 326.138 179.056 325.913 179.23 325.647C179.407 325.377 179.53 325.068 179.597 324.72L181.259 324.725C181.17 325.261 180.998 325.755 180.743 326.206C180.49 326.653 180.165 327.04 179.768 327.367C179.374 327.69 178.923 327.941 178.415 328.118C177.907 328.296 177.353 328.384 176.753 328.384C175.808 328.384 174.967 328.161 174.228 327.713C173.489 327.262 172.907 326.618 172.481 325.78C172.058 324.942 171.847 323.942 171.847 322.781C171.847 321.616 172.06 320.616 172.486 319.782C172.912 318.944 173.495 318.301 174.233 317.854C174.972 317.403 175.812 317.177 176.753 317.177C177.332 317.177 177.871 317.261 178.372 317.427C178.876 317.591 179.329 317.832 179.73 318.152C180.132 318.468 180.464 318.855 180.727 319.313C180.989 319.768 181.167 320.288 181.259 320.874ZM186.547 328.4C185.78 328.4 185.111 328.225 184.539 327.873C183.967 327.522 183.524 327.03 183.207 326.398C182.891 325.766 182.733 325.027 182.733 324.182C182.733 323.333 182.891 322.591 183.207 321.955C183.524 321.32 183.967 320.826 184.539 320.474C185.111 320.123 185.78 319.947 186.547 319.947C187.314 319.947 187.984 320.123 188.555 320.474C189.127 320.826 189.571 321.32 189.887 321.955C190.203 322.591 190.361 323.333 190.361 324.182C190.361 325.027 190.203 325.766 189.887 326.398C189.571 327.03 189.127 327.522 188.555 327.873C187.984 328.225 187.314 328.4 186.547 328.4ZM186.553 327.063C187.05 327.063 187.462 326.932 187.788 326.669C188.115 326.407 188.357 326.057 188.513 325.62C188.673 325.183 188.753 324.702 188.753 324.176C188.753 323.654 188.673 323.175 188.513 322.738C188.357 322.298 188.115 321.945 187.788 321.678C187.462 321.412 187.05 321.279 186.553 321.279C186.052 321.279 185.636 321.412 185.306 321.678C184.979 321.945 184.736 322.298 184.576 322.738C184.42 323.175 184.342 323.654 184.342 324.176C184.342 324.702 184.42 325.183 184.576 325.62C184.736 326.057 184.979 326.407 185.306 326.669C185.636 326.932 186.052 327.063 186.553 327.063ZM192.139 331.304V320.054H193.694V321.38H193.828C193.92 321.209 194.053 321.012 194.227 320.789C194.401 320.565 194.643 320.37 194.952 320.203C195.26 320.032 195.669 319.947 196.177 319.947C196.837 319.947 197.427 320.114 197.945 320.448C198.464 320.782 198.87 321.263 199.165 321.891C199.463 322.52 199.612 323.276 199.612 324.16C199.612 325.045 199.465 325.803 199.17 326.435C198.876 327.063 198.471 327.548 197.956 327.889C197.441 328.226 196.853 328.395 196.193 328.395C195.695 328.395 195.289 328.312 194.973 328.145C194.66 327.978 194.415 327.783 194.238 327.559C194.06 327.335 193.923 327.136 193.828 326.962H193.732V331.304H192.139ZM193.7 324.144C193.7 324.72 193.783 325.224 193.95 325.657C194.117 326.09 194.358 326.43 194.675 326.675C194.991 326.916 195.378 327.037 195.836 327.037C196.312 327.037 196.709 326.911 197.029 326.659C197.349 326.403 197.59 326.057 197.753 325.62C197.92 325.183 198.004 324.691 198.004 324.144C198.004 323.605 197.922 323.12 197.759 322.69C197.599 322.261 197.357 321.921 197.034 321.673C196.715 321.424 196.315 321.3 195.836 321.3C195.374 321.3 194.983 321.419 194.664 321.657C194.348 321.895 194.108 322.227 193.945 322.653C193.781 323.079 193.7 323.576 193.7 324.144ZM201.397 331.304V320.054H202.952V321.38H203.085C203.178 321.209 203.311 321.012 203.485 320.789C203.659 320.565 203.9 320.37 204.209 320.203C204.518 320.032 204.927 319.947 205.434 319.947C206.095 319.947 206.684 320.114 207.203 320.448C207.721 320.782 208.128 321.263 208.423 321.891C208.721 322.52 208.87 323.276 208.87 324.16C208.87 325.045 208.723 325.803 208.428 326.435C208.133 327.063 207.729 327.548 207.214 327.889C206.699 328.226 206.111 328.395 205.45 328.395C204.953 328.395 204.547 328.312 204.231 328.145C203.918 327.978 203.673 327.783 203.496 327.559C203.318 327.335 203.181 327.136 203.085 326.962H202.99V331.304H201.397ZM202.958 324.144C202.958 324.72 203.041 325.224 203.208 325.657C203.375 326.09 203.616 326.43 203.932 326.675C204.248 326.916 204.635 327.037 205.094 327.037C205.569 327.037 205.967 326.911 206.287 326.659C206.606 326.403 206.848 326.057 207.011 325.62C207.178 325.183 207.262 324.691 207.262 324.144C207.262 323.605 207.18 323.12 207.017 322.69C206.857 322.261 206.615 321.921 206.292 321.673C205.972 321.424 205.573 321.3 205.094 321.3C204.632 321.3 204.241 321.419 203.922 321.657C203.606 321.895 203.366 322.227 203.203 322.653C203.039 323.079 202.958 323.576 202.958 324.144ZM214.181 328.4C213.375 328.4 212.681 328.228 212.098 327.884C211.519 327.536 211.072 327.047 210.756 326.419C210.443 325.787 210.287 325.046 210.287 324.198C210.287 323.36 210.443 322.621 210.756 321.982C211.072 321.343 211.512 320.844 212.077 320.485C212.645 320.126 213.309 319.947 214.069 319.947C214.531 319.947 214.978 320.023 215.411 320.176C215.845 320.329 216.233 320.568 216.578 320.895C216.922 321.222 217.194 321.646 217.393 322.168C217.592 322.687 217.691 323.317 217.691 324.059V324.624H211.187V323.431H216.131C216.131 323.012 216.045 322.641 215.875 322.317C215.704 321.991 215.465 321.733 215.156 321.545C214.85 321.357 214.492 321.263 214.08 321.263C213.632 321.263 213.242 321.373 212.908 321.593C212.578 321.81 212.322 322.094 212.141 322.445C211.963 322.793 211.874 323.171 211.874 323.58V324.512C211.874 325.059 211.97 325.524 212.162 325.908C212.357 326.291 212.629 326.584 212.977 326.786C213.325 326.985 213.732 327.085 214.197 327.085C214.499 327.085 214.774 327.042 215.023 326.957C215.271 326.868 215.486 326.737 215.667 326.563C215.848 326.389 215.987 326.174 216.083 325.918L217.59 326.19C217.469 326.634 217.253 327.023 216.94 327.356C216.631 327.687 216.242 327.944 215.774 328.129C215.308 328.31 214.778 328.4 214.181 328.4ZM219.458 328.235V320.054H220.998V321.353H221.083C221.232 320.913 221.495 320.567 221.871 320.315C222.251 320.059 222.681 319.931 223.16 319.931C223.26 319.931 223.377 319.935 223.512 319.942C223.65 319.949 223.759 319.958 223.837 319.968V321.492C223.773 321.474 223.659 321.454 223.496 321.433C223.333 321.408 223.169 321.396 223.006 321.396C222.63 321.396 222.294 321.476 221.999 321.636C221.708 321.792 221.477 322.01 221.307 322.291C221.136 322.568 221.051 322.884 221.051 323.239V328.235H219.458Z" fill="black"/>
<path d="M139.308 256.435V255.973L145.132 249.084C146.044 248.007 146.754 247.107 147.263 246.385C147.772 245.657 148.13 245.012 148.337 244.449C148.544 243.881 148.648 243.295 148.648 242.692C148.648 241.899 148.464 241.191 148.097 240.57C147.736 239.948 147.239 239.46 146.606 239.105C145.978 238.75 145.262 238.572 144.457 238.572C143.617 238.572 142.877 238.765 142.238 239.149C141.599 239.528 141.099 240.037 140.738 240.676C140.377 241.316 140.196 242.023 140.196 242.798H139.628C139.628 241.916 139.832 241.114 140.24 240.392C140.655 239.664 141.223 239.084 141.945 238.652C142.673 238.22 143.51 238.004 144.457 238.004C145.369 238.004 146.183 238.208 146.899 238.617C147.615 239.019 148.18 239.576 148.594 240.286C149.009 240.99 149.216 241.792 149.216 242.692C149.216 243.36 149.103 244 148.879 244.609C148.66 245.219 148.284 245.9 147.751 246.651C147.224 247.403 146.493 248.332 145.558 249.439L140.196 255.795V255.866H150.281V256.435H139.308ZM159.665 238.004C160.44 238.004 161.154 238.179 161.805 238.528C162.462 238.871 163.033 239.392 163.518 240.09C164.009 240.783 164.388 241.659 164.654 242.718C164.927 243.778 165.063 245.024 165.063 246.456C165.063 247.681 164.977 248.897 164.805 250.105C164.634 251.312 164.341 252.413 163.926 253.407C163.512 254.402 162.944 255.198 162.222 255.795C161.5 256.387 160.588 256.683 159.488 256.683C158.588 256.683 157.804 256.479 157.135 256.071C156.466 255.656 155.936 255.088 155.546 254.366C155.155 253.638 154.93 252.801 154.871 251.854H155.439C155.528 253.097 155.928 254.117 156.638 254.916C157.348 255.715 158.298 256.115 159.488 256.115C161.139 256.115 162.385 255.263 163.225 253.558C164.071 251.854 164.495 249.403 164.495 246.207H164.424C164.234 246.811 163.906 247.35 163.438 247.823C162.971 248.291 162.417 248.661 161.778 248.933C161.139 249.199 160.47 249.332 159.772 249.332C158.813 249.332 157.937 249.084 157.144 248.587C156.357 248.089 155.726 247.412 155.253 246.554C154.785 245.695 154.551 244.728 154.551 243.65C154.551 242.644 154.765 241.712 155.191 240.854C155.623 239.996 156.221 239.306 156.984 238.785C157.753 238.265 158.647 238.004 159.665 238.004ZM159.665 238.572C158.789 238.572 158.008 238.8 157.321 239.256C156.641 239.712 156.102 240.324 155.706 241.094C155.315 241.863 155.12 242.715 155.12 243.65C155.12 244.609 155.327 245.476 155.741 246.252C156.161 247.021 156.724 247.634 157.428 248.089C158.138 248.539 158.931 248.764 159.807 248.764C160.5 248.764 161.142 248.622 161.734 248.338C162.326 248.048 162.829 247.651 163.243 247.148C163.663 246.645 163.962 246.074 164.14 245.435C164.323 244.79 164.347 244.112 164.211 243.402C164.009 242.337 163.693 241.446 163.261 240.73C162.835 240.014 162.314 239.475 161.698 239.114C161.089 238.753 160.411 238.572 159.665 238.572Z" fill="black"/>
<g filter="url(#filter7_i_311_706)">
<circle cx="362" cy="299.272" r="59.9271" fill="url(#paint7_radial_311_706)"/>
</g>
<g filter="url(#filter8_n_311_706)">
<rect x="286" y="225.451" width="150" height="149.636" rx="15" fill="url(#paint8_linear_311_706)" fill-opacity="0.5"/>
<rect x="288.5" y="227.951" width="145" height="144.636" rx="12.5" stroke="#D2ECFF" stroke-width="5"/>
</g>
<path d="M333.237 317.333V312.411L348.706 291.764H333.301V284.605H360.02V289.527L344.551 310.173H359.956V317.333H333.237ZM373.303 303.526V317.333H364.482V292.787H372.856V297.453H373.112C373.644 295.898 374.582 294.678 375.924 293.794C377.277 292.91 378.854 292.467 380.654 292.467C382.391 292.467 383.898 292.867 385.177 293.666C386.466 294.454 387.462 295.541 388.165 296.926C388.879 298.311 389.23 299.893 389.22 301.672V317.333H380.399V303.526C380.409 302.311 380.1 301.358 379.472 300.665C378.854 299.973 377.991 299.627 376.883 299.627C376.158 299.627 375.525 299.786 374.981 300.106C374.449 300.415 374.038 300.862 373.751 301.448C373.463 302.024 373.314 302.716 373.303 303.526Z" fill="black"/>
<path d="M346.916 333.223V332.126L352.653 323.731H346.868V322.314H354.667V323.412L348.93 331.806H354.714V333.223H346.916ZM356.651 333.223V325.042H358.243V333.223H356.651ZM357.455 323.779C357.178 323.779 356.94 323.687 356.741 323.502C356.546 323.314 356.448 323.09 356.448 322.831C356.448 322.568 356.546 322.344 356.741 322.16C356.94 321.972 357.178 321.878 357.455 321.878C357.732 321.878 357.968 321.972 358.164 322.16C358.362 322.344 358.462 322.568 358.462 322.831C358.462 323.09 358.362 323.314 358.164 323.502C357.968 323.687 357.732 323.779 357.455 323.779ZM361.979 328.365V333.223H360.386V325.042H361.915V326.373H362.016C362.204 325.94 362.499 325.592 362.9 325.329C363.305 325.066 363.815 324.935 364.429 324.935C364.987 324.935 365.475 325.052 365.894 325.287C366.313 325.517 366.638 325.862 366.869 326.32C367.1 326.778 367.215 327.344 367.215 328.019V333.223H365.622V328.211C365.622 327.618 365.468 327.154 365.159 326.821C364.85 326.483 364.426 326.315 363.886 326.315C363.516 326.315 363.188 326.395 362.9 326.554C362.616 326.714 362.391 326.949 362.224 327.257C362.06 327.563 361.979 327.932 361.979 328.365ZM372.797 333.389C372.005 333.389 371.324 333.209 370.752 332.851C370.184 332.488 369.747 331.989 369.441 331.354C369.136 330.718 368.983 329.99 368.983 329.17C368.983 328.339 369.14 327.605 369.452 326.97C369.765 326.331 370.205 325.832 370.773 325.473C371.341 325.114 372.011 324.935 372.781 324.935C373.403 324.935 373.957 325.05 374.443 325.281C374.93 325.509 375.322 325.828 375.62 326.24C375.922 326.652 376.102 327.133 376.158 327.684H374.608C374.523 327.3 374.328 326.97 374.022 326.693C373.721 326.416 373.316 326.277 372.808 326.277C372.364 326.277 371.975 326.395 371.641 326.629C371.311 326.86 371.054 327.19 370.869 327.62C370.684 328.046 370.592 328.55 370.592 329.132C370.592 329.729 370.683 330.244 370.864 330.677C371.045 331.11 371.301 331.446 371.631 331.684C371.965 331.922 372.357 332.041 372.808 332.041C373.11 332.041 373.383 331.986 373.628 331.876C373.877 331.762 374.085 331.601 374.252 331.391C374.422 331.181 374.541 330.929 374.608 330.635H376.158C376.102 331.164 375.929 331.636 375.642 332.052C375.354 332.467 374.969 332.794 374.486 333.032C374.006 333.27 373.444 333.389 372.797 333.389Z" fill="black"/>
<path d="M303.741 263.666C302.718 263.666 301.797 263.459 300.98 263.045C300.17 262.63 299.527 262.062 299.054 261.34C298.58 260.618 298.344 259.795 298.344 258.872H298.912C298.912 259.689 299.125 260.417 299.551 261.056C299.977 261.689 300.554 262.189 301.282 262.556C302.016 262.917 302.836 263.098 303.741 263.098C304.706 263.098 305.55 262.9 306.272 262.503C306.994 262.107 307.556 261.574 307.958 260.905C308.367 260.236 308.571 259.499 308.571 258.694C308.571 257.824 308.34 257.061 307.879 256.404C307.417 255.747 306.781 255.238 305.97 254.877C305.165 254.51 304.245 254.327 303.209 254.327H302.925V253.758H303.209C304.12 253.758 304.94 253.59 305.668 253.252C306.396 252.915 306.973 252.439 307.399 251.823C307.825 251.207 308.038 250.48 308.038 249.639C308.038 248.858 307.855 248.159 307.488 247.544C307.121 246.928 306.612 246.443 305.961 246.088C305.316 245.733 304.564 245.555 303.706 245.555C302.86 245.555 302.108 245.736 301.451 246.097C300.794 246.452 300.276 246.949 299.897 247.588C299.525 248.222 299.338 248.953 299.338 249.781H298.77C298.77 248.846 298.983 248.017 299.409 247.295C299.835 246.573 300.418 246.008 301.158 245.6C301.904 245.191 302.753 244.987 303.706 244.987C304.659 244.987 305.502 245.191 306.236 245.6C306.976 246.002 307.556 246.556 307.976 247.26C308.396 247.958 308.607 248.751 308.607 249.639C308.607 250.704 308.302 251.619 307.692 252.382C307.083 253.146 306.263 253.676 305.233 253.971V254.042C306.423 254.344 307.37 254.907 308.074 255.729C308.784 256.552 309.139 257.54 309.139 258.694C309.139 259.624 308.908 260.464 308.447 261.216C307.991 261.967 307.358 262.565 306.547 263.009C305.736 263.447 304.801 263.666 303.741 263.666ZM318.718 263.666C317.564 263.666 316.57 263.29 315.735 262.539C314.907 261.787 314.268 260.713 313.818 259.316C313.368 257.919 313.143 256.256 313.143 254.327C313.143 252.397 313.368 250.734 313.818 249.337C314.268 247.94 314.907 246.866 315.735 246.115C316.57 245.363 317.564 244.987 318.718 244.987C319.873 244.987 320.864 245.363 321.692 246.115C322.527 246.866 323.169 247.94 323.619 249.337C324.069 250.734 324.294 252.397 324.294 254.327C324.294 256.256 324.069 257.919 323.619 259.316C323.169 260.713 322.527 261.787 321.692 262.539C320.864 263.29 319.873 263.666 318.718 263.666ZM318.718 263.098C320.269 263.098 321.491 262.32 322.385 260.763C323.279 259.206 323.725 257.061 323.725 254.327C323.725 252.504 323.521 250.938 323.113 249.63C322.71 248.316 322.136 247.31 321.391 246.612C320.645 245.907 319.754 245.555 318.718 245.555C317.168 245.555 315.946 246.334 315.052 247.89C314.158 249.447 313.711 251.592 313.711 254.327C313.711 256.149 313.913 257.718 314.315 259.032C314.723 260.34 315.3 261.346 316.046 262.05C316.798 262.749 317.689 263.098 318.718 263.098Z" fill="black"/>
<g clip-path="url(#clip0_311_706)">
<path d="M633 9H547.698V94.3022H633V9Z" fill="#0077CC"/>
<path d="M594.995 20.9424C597.351 20.9424 599.261 22.852 599.261 25.2075V49.5644L614.432 76.1972C616.051 79.0405 613.998 82.5732 610.726 82.5732H570.735C567.463 82.5731 565.41 79.0404 567.029 76.1972L582.2 49.5644V25.2075C582.2 22.852 584.11 20.9425 586.465 20.9424H594.995Z" fill="#0077CC"/>
<path d="M599.261 49.5644H597.128V50.1292L597.408 50.6199L599.261 49.5644ZM582.2 49.5644L584.053 50.6199L584.333 50.1292V49.5644H582.2ZM594.995 20.9424V23.0749C596.173 23.0749 597.128 24.0297 597.128 25.2075H599.261H601.393C601.393 21.6742 598.529 18.8098 594.995 18.8098V20.9424ZM599.261 25.2075H597.128V49.5644H599.261H601.393V25.2075H599.261ZM599.261 49.5644L597.408 50.6199L612.579 77.2527L614.432 76.1972L616.285 75.1418L601.114 48.5089L599.261 49.5644ZM614.432 76.1972L612.579 77.2527C613.388 78.6744 612.362 80.4407 610.726 80.4407V82.5732V84.7058C615.634 84.7058 618.714 79.4067 616.285 75.1418L614.432 76.1972ZM610.726 82.5732V80.4407H570.735V82.5732L570.735 84.7058H610.726V82.5732ZM570.735 82.5732V80.4407C569.099 80.4406 568.073 78.6741 568.882 77.2526L567.029 76.1972L565.176 75.1417C562.747 79.4066 565.827 84.7055 570.735 84.7058L570.735 82.5732ZM567.029 76.1972L568.882 77.2526L584.053 50.6199L582.2 49.5644L580.347 48.5089L565.176 75.1417L567.029 76.1972ZM582.2 49.5644H584.333V25.2075H582.2H580.068V49.5644H582.2ZM582.2 25.2075H584.333C584.333 24.0298 585.287 23.0749 586.465 23.0749L586.465 20.9424V18.8098C582.932 18.8099 580.068 21.6741 580.068 25.2075H582.2ZM586.465 20.9424L586.465 23.0749H594.995V20.9424V18.8098H586.465V20.9424Z" fill="white"/>
<path d="M597.345 51.2251C597.487 51.2251 597.627 51.2338 597.766 51.2476L612.58 77.2531C613.389 78.6746 612.362 80.4409 610.726 80.4411H570.736C569.1 80.4408 568.073 78.6748 568.883 77.2531L583.709 51.2251H597.345Z" fill="white"/>
<mask id="mask0_311_706" style="mask-type:luminance" maskUnits="userSpaceOnUse" x="568" y="51" width="45" height="30">
<path d="M597.345 51.2251C597.487 51.2251 597.627 51.2338 597.766 51.2476L612.58 77.2531C613.389 78.6746 612.362 80.4409 610.726 80.4411H570.736C569.1 80.4408 568.073 78.6748 568.883 77.2531L583.709 51.2251H597.345Z" fill="white"/>
</mask>
<g mask="url(#mask0_311_706)">
<path d="M597.766 51.2476L599.99 49.9809L599.335 48.8312L598.018 48.7009L597.766 51.2476ZM583.709 51.2251V48.666H582.222L581.486 49.9584L583.709 51.2251ZM597.345 51.2251V53.7841C597.382 53.7841 597.436 53.7864 597.514 53.7942L597.766 51.2476L598.018 48.7009C597.818 48.6812 597.591 48.666 597.345 48.666V51.2251ZM597.766 51.2476L595.542 52.5143L610.356 78.5197L612.58 77.2531L614.804 75.9869L599.99 49.9809L597.766 51.2476ZM612.58 77.2531L610.356 78.5197C610.194 78.2347 610.399 77.882 610.726 77.882L610.726 80.4411V83.0002C614.325 82.9997 616.585 79.1147 614.804 75.9869L612.58 77.2531ZM610.726 80.4411L610.726 77.882H570.736V80.4411L570.736 83.0002H610.726V80.4411ZM570.736 80.4411V77.882C571.063 77.882 571.269 78.2353 571.107 78.5197L568.883 77.2531L566.66 75.9864C564.878 79.1143 567.137 82.9996 570.736 83.0002L570.736 80.4411ZM568.883 77.2531L571.107 78.5197L585.933 52.4917L583.709 51.2251L581.486 49.9584L566.66 75.9864L568.883 77.2531ZM583.709 51.2251V53.7841H597.345V51.2251V48.666H583.709V51.2251Z" fill="#0077CC"/>
</g>
</g>
<path d="M234.655 35V19.5175H229.045V15.805H244.803V19.5175H239.193V35H234.655ZM257.821 35V25.595C257.821 24.7883 257.619 24.1467 257.216 23.67C256.812 23.1933 256.281 22.955 255.621 22.955C254.869 22.955 254.172 23.2117 253.531 23.725C252.907 24.22 252.247 25.0817 251.551 26.31L250.946 22.7075C251.642 21.4975 252.486 20.645 253.476 20.15C254.466 19.6367 255.474 19.38 256.501 19.38C257.674 19.38 258.673 19.6275 259.498 20.1225C260.342 20.6175 260.983 21.3142 261.423 22.2125C261.882 23.0925 262.111 24.1283 262.111 25.32V35H257.821ZM247.618 35V14.6225H251.908V35H247.618ZM272.846 35.33C271.196 35.33 269.776 35.0092 268.584 34.3675C267.411 33.7258 266.503 32.8092 265.861 31.6175C265.22 30.4258 264.899 29.005 264.899 27.355C264.899 25.6867 265.22 24.2567 265.861 23.065C266.503 21.8733 267.429 20.9658 268.639 20.3425C269.867 19.7008 271.343 19.38 273.066 19.38C275.761 19.38 277.714 20.15 278.924 21.69C280.152 23.2117 280.666 25.3108 280.464 27.9875H268.309L268.336 25.045H276.091C276.036 24.3483 275.725 23.7892 275.156 23.3675C274.588 22.9275 273.882 22.7075 273.039 22.7075C271.719 22.7075 270.747 23.12 270.124 23.945C269.501 24.77 269.189 25.9708 269.189 27.5475C269.189 28.3358 269.326 29.06 269.601 29.72C269.876 30.38 270.28 30.9117 270.811 31.315C271.361 31.7 272.04 31.8925 272.846 31.8925C273.708 31.8925 274.432 31.6817 275.019 31.26C275.624 30.8383 275.991 30.3067 276.119 29.665H280.409C280.226 31.4067 279.456 32.7908 278.099 33.8175C276.761 34.8258 275.01 35.33 272.846 35.33ZM308.59 35.33C307.014 35.33 305.657 35.0367 304.52 34.45C303.402 33.845 302.54 33.0017 301.935 31.92C301.349 30.82 301.055 29.5275 301.055 28.0425H305.51C305.51 29.1975 305.758 30.0867 306.253 30.71C306.766 31.315 307.545 31.6175 308.59 31.6175C309.415 31.6175 310.066 31.4433 310.543 31.095C311.038 30.7283 311.285 30.215 311.285 29.555C311.285 29.06 311.102 28.675 310.735 28.4C310.387 28.1067 309.91 27.8683 309.305 27.685C308.719 27.4833 308.068 27.3 307.353 27.135C306.656 26.9517 305.95 26.7317 305.235 26.475C304.539 26.2183 303.888 25.8792 303.283 25.4575C302.696 25.0358 302.22 24.4858 301.853 23.8075C301.505 23.1292 301.33 22.2675 301.33 21.2225C301.33 20.1408 301.624 19.1692 302.21 18.3075C302.815 17.4458 303.65 16.7583 304.713 16.245C305.776 15.7317 307.023 15.475 308.453 15.475C309.755 15.475 310.965 15.7317 312.083 16.245C313.201 16.74 314.109 17.4642 314.805 18.4175C315.502 19.3708 315.869 20.5442 315.905 21.9375H311.368C311.331 21.3142 311.166 20.8008 310.873 20.3975C310.598 19.9942 310.24 19.6917 309.8 19.49C309.379 19.2883 308.93 19.1875 308.453 19.1875C307.775 19.1875 307.197 19.3525 306.72 19.6825C306.244 19.9942 306.005 20.4617 306.005 21.085C306.005 21.5617 306.18 21.9375 306.528 22.2125C306.895 22.4875 307.371 22.7167 307.958 22.9C308.563 23.065 309.214 23.23 309.91 23.395C310.625 23.56 311.331 23.7708 312.028 24.0275C312.743 24.2658 313.394 24.605 313.98 25.045C314.585 25.485 315.062 26.0717 315.41 26.805C315.777 27.52 315.96 28.4367 315.96 29.555C315.96 30.6733 315.64 31.6725 314.998 32.5525C314.375 33.4142 313.504 34.0925 312.385 34.5875C311.285 35.0825 310.02 35.33 308.59 35.33ZM326.586 35.33C324.973 35.33 323.58 35.0092 322.406 34.3675C321.251 33.7258 320.362 32.8092 319.739 31.6175C319.134 30.4258 318.831 29.005 318.831 27.355C318.831 25.6683 319.152 24.2292 319.794 23.0375C320.454 21.8458 321.37 20.9383 322.544 20.315C323.717 19.6917 325.101 19.38 326.696 19.38C328.09 19.38 329.318 19.6275 330.381 20.1225C331.463 20.6175 332.315 21.3142 332.939 22.2125C333.58 23.0925 333.929 24.1467 333.984 25.375H329.694C329.547 24.5317 329.217 23.9083 328.704 23.505C328.209 23.0833 327.54 22.8725 326.696 22.8725C326 22.8725 325.376 23.0467 324.826 23.395C324.295 23.7433 323.873 24.2475 323.561 24.9075C323.268 25.5675 323.121 26.3833 323.121 27.355C323.121 28.8033 323.451 29.9217 324.111 30.71C324.79 31.4983 325.615 31.8925 326.586 31.8925C327.155 31.8925 327.65 31.7917 328.071 31.59C328.511 31.3883 328.878 31.1042 329.171 30.7375C329.465 30.3525 329.666 29.9217 329.776 29.445H334.066C333.956 30.6367 333.571 31.6725 332.911 32.5525C332.251 33.4325 331.38 34.12 330.299 34.615C329.217 35.0917 327.98 35.33 326.586 35.33ZM342.107 35V19.71H346.397V35H342.107ZM337.157 35V31.535H351.402V35H337.157ZM339.082 23.175V19.71H344.252V23.175H339.082ZM341.942 17.675V13.66H346.507V17.675H341.942ZM362.275 35.33C360.625 35.33 359.204 35.0092 358.013 34.3675C356.839 33.7258 355.932 32.8092 355.29 31.6175C354.649 30.4258 354.328 29.005 354.328 27.355C354.328 25.6867 354.649 24.2567 355.29 23.065C355.932 21.8733 356.858 20.9658 358.068 20.3425C359.296 19.7008 360.772 19.38 362.495 19.38C365.19 19.38 367.143 20.15 368.353 21.69C369.581 23.2117 370.094 25.3108 369.893 27.9875H357.738L357.765 25.045H365.52C365.465 24.3483 365.154 23.7892 364.585 23.3675C364.017 22.9275 363.311 22.7075 362.468 22.7075C361.148 22.7075 360.176 23.12 359.553 23.945C358.929 24.77 358.618 25.9708 358.618 27.5475C358.618 28.3358 358.755 29.06 359.03 29.72C359.305 30.38 359.709 30.9117 360.24 31.315C360.79 31.7 361.469 31.8925 362.275 31.8925C363.137 31.8925 363.861 31.6817 364.448 31.26C365.053 30.8383 365.419 30.3067 365.548 29.665H369.838C369.654 31.4067 368.884 32.7908 367.528 33.8175C366.189 34.8258 364.439 35.33 362.275 35.33ZM383.021 35V25.5675C383.021 24.7792 382.819 24.1467 382.416 23.67C382.013 23.1933 381.481 22.955 380.821 22.955C380.069 22.955 379.373 23.2117 378.731 23.725C378.108 24.22 377.448 25.0817 376.751 26.31L376.146 22.68C376.843 21.4883 377.686 20.645 378.676 20.15C379.666 19.6367 380.674 19.38 381.701 19.38C382.874 19.38 383.873 19.6275 384.698 20.1225C385.542 20.6175 386.183 21.305 386.623 22.185C387.082 23.065 387.311 24.1008 387.311 25.2925V35H383.021ZM372.818 35V19.71H376.971L377.108 22.4325V35H372.818ZM398.129 35.33C396.516 35.33 395.123 35.0092 393.949 34.3675C392.794 33.7258 391.905 32.8092 391.282 31.6175C390.677 30.4258 390.374 29.005 390.374 27.355C390.374 25.6683 390.695 24.2292 391.337 23.0375C391.997 21.8458 392.913 20.9383 394.087 20.315C395.26 19.6917 396.644 19.38 398.239 19.38C399.633 19.38 400.861 19.6275 401.924 20.1225C403.006 20.6175 403.858 21.3142 404.482 22.2125C405.123 23.0925 405.472 24.1467 405.527 25.375H401.237C401.09 24.5317 400.76 23.9083 400.247 23.505C399.752 23.0833 399.083 22.8725 398.239 22.8725C397.543 22.8725 396.919 23.0467 396.369 23.395C395.838 23.7433 395.416 24.2475 395.104 24.9075C394.811 25.5675 394.664 26.3833 394.664 27.355C394.664 28.8033 394.994 29.9217 395.654 30.71C396.333 31.4983 397.158 31.8925 398.129 31.8925C398.698 31.8925 399.193 31.7917 399.614 31.59C400.054 31.3883 400.421 31.1042 400.714 30.7375C401.008 30.3525 401.209 29.9217 401.319 29.445H405.609C405.499 30.6367 405.114 31.6725 404.454 32.5525C403.794 33.4325 402.923 34.12 401.842 34.615C400.76 35.0917 399.523 35.33 398.129 35.33ZM415.932 35.33C414.282 35.33 412.862 35.0092 411.67 34.3675C410.497 33.7258 409.589 32.8092 408.947 31.6175C408.306 30.4258 407.985 29.005 407.985 27.355C407.985 25.6867 408.306 24.2567 408.947 23.065C409.589 21.8733 410.515 20.9658 411.725 20.3425C412.953 19.7008 414.429 19.38 416.152 19.38C418.847 19.38 420.8 20.15 422.01 21.69C423.238 23.2117 423.752 25.3108 423.55 27.9875H411.395L411.422 25.045H419.177C419.122 24.3483 418.811 23.7892 418.242 23.3675C417.674 22.9275 416.968 22.7075 416.125 22.7075C414.805 22.7075 413.833 23.12 413.21 23.945C412.587 24.77 412.275 25.9708 412.275 27.5475C412.275 28.3358 412.412 29.06 412.687 29.72C412.962 30.38 413.366 30.9117 413.897 31.315C414.447 31.7 415.126 31.8925 415.932 31.8925C416.794 31.8925 417.518 31.6817 418.105 31.26C418.71 30.8383 419.077 30.3067 419.205 29.665H423.495C423.312 31.4067 422.542 32.7908 421.185 33.8175C419.847 34.8258 418.096 35.33 415.932 35.33ZM447.524 28.9775V25.265H451.896C452.776 25.265 453.482 24.9992 454.014 24.4675C454.546 23.9175 454.811 23.2025 454.811 22.3225C454.811 21.4792 454.546 20.8008 454.014 20.2875C453.482 19.7742 452.776 19.5175 451.896 19.5175H447.524V15.805H451.924C453.446 15.805 454.775 16.0708 455.911 16.6025C457.048 17.1342 457.928 17.895 458.551 18.885C459.175 19.8567 459.486 21.0025 459.486 22.3225C459.486 23.6608 459.175 24.8342 458.551 25.8425C457.928 26.8325 457.048 27.6025 455.911 28.1525C454.793 28.7025 453.464 28.9775 451.924 28.9775H447.524ZM444.279 35V15.805H448.816V35H444.279ZM472.725 27.355V25.2925C472.725 24.5958 472.541 24.0367 472.175 23.615C471.808 23.175 471.258 22.955 470.525 22.955C469.7 22.955 468.92 23.23 468.187 23.78C467.454 24.33 466.757 25.2833 466.097 26.64L465.657 23.0375C466.134 22.2308 466.656 21.5617 467.225 21.03C467.793 20.48 468.416 20.0675 469.095 19.7925C469.791 19.5175 470.552 19.38 471.377 19.38C473.009 19.38 474.356 19.8842 475.42 20.8925C476.483 21.8825 477.015 23.3492 477.015 25.2925V27.355H472.725ZM462.522 35V19.71H466.647L466.812 22.46V35H462.522ZM487.475 35.33C485.825 35.33 484.405 35.0092 483.213 34.3675C482.04 33.7258 481.132 32.8092 480.49 31.6175C479.849 30.4258 479.528 29.005 479.528 27.355C479.528 25.6867 479.849 24.2567 480.49 23.065C481.132 21.8733 482.058 20.9658 483.268 20.3425C484.496 19.7008 485.972 19.38 487.695 19.38C490.39 19.38 492.343 20.15 493.553 21.69C494.781 23.2117 495.295 25.3108 495.093 27.9875H482.938L482.965 25.045H490.72C490.665 24.3483 490.354 23.7892 489.785 23.3675C489.217 22.9275 488.511 22.7075 487.668 22.7075C486.348 22.7075 485.376 23.12 484.753 23.945C484.13 24.77 483.818 25.9708 483.818 27.5475C483.818 28.3358 483.955 29.06 484.23 29.72C484.505 30.38 484.909 30.9117 485.44 31.315C485.99 31.7 486.669 31.8925 487.475 31.8925C488.337 31.8925 489.061 31.6817 489.648 31.26C490.253 30.8383 490.62 30.3067 490.748 29.665H495.038C494.855 31.4067 494.085 32.7908 492.728 33.8175C491.39 34.8258 489.639 35.33 487.475 35.33ZM505.609 35.33C504.179 35.33 502.923 35.1008 501.841 34.6425C500.759 34.1658 499.916 33.4967 499.311 32.635C498.724 31.755 498.422 30.7192 498.404 29.5275H502.391C502.354 30.3708 502.62 31.0308 503.189 31.5075C503.775 31.9842 504.573 32.2225 505.581 32.2225C506.314 32.2225 506.901 32.1033 507.341 31.865C507.799 31.6083 508.029 31.26 508.029 30.82C508.029 30.435 507.854 30.1325 507.506 29.9125C507.176 29.6742 506.736 29.4908 506.186 29.3625C505.636 29.2158 505.031 29.0783 504.371 28.95C503.711 28.8033 503.042 28.6292 502.364 28.4275C501.704 28.2258 501.099 27.96 500.549 27.63C499.999 27.2817 499.549 26.8325 499.201 26.2825C498.871 25.7142 498.706 25.0083 498.706 24.165C498.706 23.1933 498.981 22.35 499.531 21.635C500.081 20.92 500.842 20.37 501.814 19.985C502.804 19.5817 503.94 19.38 505.224 19.38C507.185 19.38 508.771 19.8383 509.981 20.755C511.209 21.6533 511.888 22.9183 512.016 24.55H508.056C508.019 23.8717 507.744 23.3583 507.231 23.01C506.718 22.6617 506.058 22.4875 505.251 22.4875C504.573 22.4875 504.032 22.6067 503.629 22.845C503.225 23.0833 503.024 23.4408 503.024 23.9175C503.024 24.3025 503.189 24.605 503.519 24.825C503.867 25.0267 504.316 25.1917 504.866 25.32C505.416 25.4483 506.021 25.5675 506.681 25.6775C507.359 25.7875 508.029 25.9433 508.689 26.145C509.349 26.3283 509.954 26.585 510.504 26.915C511.054 27.245 511.494 27.685 511.824 28.235C512.172 28.785 512.346 29.4908 512.346 30.3525C512.346 31.9108 511.732 33.13 510.504 34.01C509.294 34.89 507.662 35.33 505.609 35.33ZM523.494 35.33C522.064 35.33 520.809 35.1008 519.727 34.6425C518.645 34.1658 517.802 33.4967 517.197 32.635C516.61 31.755 516.308 30.7192 516.289 29.5275H520.277C520.24 30.3708 520.506 31.0308 521.074 31.5075C521.661 31.9842 522.459 32.2225 523.467 32.2225C524.2 32.2225 524.787 32.1033 525.227 31.865C525.685 31.6083 525.914 31.26 525.914 30.82C525.914 30.435 525.74 30.1325 525.392 29.9125C525.062 29.6742 524.622 29.4908 524.072 29.3625C523.522 29.2158 522.917 29.0783 522.257 28.95C521.597 28.8033 520.928 28.6292 520.249 28.4275C519.589 28.2258 518.984 27.96 518.434 27.63C517.884 27.2817 517.435 26.8325 517.087 26.2825C516.757 25.7142 516.592 25.0083 516.592 24.165C516.592 23.1933 516.867 22.35 517.417 21.635C517.967 20.92 518.728 20.37 519.699 19.985C520.689 19.5817 521.826 19.38 523.109 19.38C525.071 19.38 526.657 19.8383 527.867 20.755C529.095 21.6533 529.774 22.9183 529.902 24.55H525.942C525.905 23.8717 525.63 23.3583 525.117 23.01C524.604 22.6617 523.944 22.4875 523.137 22.4875C522.459 22.4875 521.918 22.6067 521.514 22.845C521.111 23.0833 520.909 23.4408 520.909 23.9175C520.909 24.3025 521.074 24.605 521.404 24.825C521.753 25.0267 522.202 25.1917 522.752 25.32C523.302 25.4483 523.907 25.5675 524.567 25.6775C525.245 25.7875 525.914 25.9433 526.574 26.145C527.234 26.3283 527.839 26.585 528.389 26.915C528.939 27.245 529.379 27.685 529.709 28.235C530.058 28.785 530.232 29.4908 530.232 30.3525C530.232 31.9108 529.618 33.13 528.389 34.01C527.179 34.89 525.548 35.33 523.494 35.33Z" fill="#0077CC"/>
<defs>
<filter id="filter0_n_311_706" x="0" y="0" width="646" height="411" filterUnits="userSpaceOnUse" color-interpolation-filters="sRGB">
<feFlood flood-opacity="0" result="BackgroundImageFix"/>
<feBlend mode="normal" in="SourceGraphic" in2="BackgroundImageFix" result="shape"/>
<feTurbulence type="fractalNoise" baseFrequency="0.0099999997764825821 0.0099999997764825821" stitchTiles="stitch" numOctaves="3" result="noise" seed="9254" />
<feColorMatrix in="noise" type="luminanceToAlpha" result="alphaNoise" />
<feComponentTransfer in="alphaNoise" result="coloredNoise1">
<feFuncA type="discrete" tableValues="1 1 1 1 1 1 1 1 1 1 1 1 1 1 1 1 1 1 1 1 1 1 1 1 1 1 1 1 1 1 1 1 1 1 1 1 1 1 1 1 1 1 1 1 1 1 1 1 1 1 1 0 0 0 0 0 0 0 0 0 0 0 0 0 0 0 0 0 0 0 0 0 0 0 0 0 0 0 0 0 0 0 0 0 0 0 0 0 0 0 0 0 0 0 0 0 0 0 0 0 "/>
</feComponentTransfer>
<feComposite operator="in" in2="shape" in="coloredNoise1" result="noise1Clipped" />
<feFlood flood-color="#9B7B96" result="color1Flood" />
<feComposite operator="in" in2="noise1Clipped" in="color1Flood" result="color1" />
<feMerge result="effect1_noise_311_706">
<feMergeNode in="shape" />
<feMergeNode in="color1" />
</feMerge>
</filter>
<filter id="filter1_i_311_706" x="141.07" y="83.7263" width="118.86" height="118.86" filterUnits="userSpaceOnUse" color-interpolation-filters="sRGB">
<feFlood flood-opacity="0" result="BackgroundImageFix"/>
<feBlend mode="normal" in="SourceGraphic" in2="BackgroundImageFix" result="shape"/>
<feColorMatrix in="SourceAlpha" type="matrix" values="0 0 0 0 0 0 0 0 0 0 0 0 0 0 0 0 0 0 127 0" result="hardAlpha"/>
<feOffset dx="-4" dy="4"/>
<feGaussianBlur stdDeviation="10"/>
<feComposite in2="hardAlpha" operator="arithmetic" k2="-1" k3="1"/>
<feColorMatrix type="matrix" values="0 0 0 0 1 0 0 0 0 1 0 0 0 0 1 0 0 0 0.25 0"/>
<feBlend mode="normal" in2="shape" result="effect1_innerShadow_311_706"/>
</filter>
<filter id="filter2_n_311_706" x="127" y="65.8398" width="150" height="149.636" filterUnits="userSpaceOnUse" color-interpolation-filters="sRGB">
<feFlood flood-opacity="0" result="BackgroundImageFix"/>
<feBlend mode="normal" in="SourceGraphic" in2="BackgroundImageFix" result="shape"/>
<feTurbulence type="fractalNoise" baseFrequency="0.0099999997764825821 0.0099999997764825821" stitchTiles="stitch" numOctaves="3" result="noise" seed="3850" />
<feComponentTransfer in="noise" result="coloredNoise1">
<feFuncR type="linear" slope="2" intercept="-0.5" />
<feFuncG type="linear" slope="2" intercept="-0.5" />
<feFuncB type="linear" slope="2" intercept="-0.5" />
<feFuncA type="discrete" tableValues="0 0 0 0 0 0 0 0 0 0 0 0 0 0 1 1 1 1 1 1 1 1 1 1 1 1 1 1 1 1 1 1 1 1 1 0 0 0 0 0 0 0 0 0 0 0 0 0 0 0 0 0 0 0 0 0 0 0 0 0 0 0 0 0 0 0 0 0 0 0 0 0 0 0 0 0 0 0 0 0 0 0 0 0 0 0 0 0 0 0 0 0 0 0 0 0 0 0 0 0 "/>
</feComponentTransfer>
<feComposite operator="in" in2="shape" in="coloredNoise1" result="noise1Clipped" />
<feComponentTransfer in="noise1Clipped" result="color1">
<feFuncA type="table" tableValues="0 0.15" />
</feComponentTransfer>
<feMerge result="effect1_noise_311_706">
<feMergeNode in="shape" />
<feMergeNode in="color1" />
</feMerge>
</filter>
<filter id="filter3_gn_311_706" x="282.291" y="62.8555" width="157.418" height="157.418" filterUnits="userSpaceOnUse" color-interpolation-filters="sRGB">
<feFlood flood-opacity="0" result="BackgroundImageFix"/>
<feBlend mode="normal" in="SourceGraphic" in2="BackgroundImageFix" result="shape"/>
<feTurbulence type="fractalNoise" baseFrequency="0.051813472062349319 0.051813472062349319" numOctaves="3" seed="9248" />
<feDisplacementMap in="shape" scale="7.5999999046325684" xChannelSelector="R" yChannelSelector="G" result="displacedImage" width="100%" height="100%" />
<feMerge result="effect1_texture_311_706">
<feMergeNode in="displacedImage"/>
</feMerge>
<feTurbulence type="fractalNoise" baseFrequency="0.039525691419839859 0.039525691419839859" stitchTiles="stitch" numOctaves="3" result="noise" seed="1231" />
<feColorMatrix in="noise" type="luminanceToAlpha" result="alphaNoise" />
<feComponentTransfer in="alphaNoise" result="coloredNoise1">
<feFuncA type="discrete" tableValues="0 0 0 0 0 0 0 0 0 0 0 0 0 0 0 0 0 0 0 0 0 1 1 1 1 1 1 1 1 0 0 0 0 0 0 0 0 0 0 0 0 0 0 0 0 0 0 0 0 0 0 0 0 0 0 0 0 0 0 0 0 0 0 0 0 0 0 0 0 0 0 0 0 0 0 0 0 0 0 0 0 0 0 0 0 0 0 0 0 0 0 0 0 0 0 0 0 0 0 0 "/>
</feComponentTransfer>
<feComposite operator="in" in2="effect1_texture_311_706" in="coloredNoise1" result="noise1Clipped" />
<feFlood flood-color="rgba(0, 0, 0, 0.25)" result="color1Flood" />
<feComposite operator="in" in2="noise1Clipped" in="color1Flood" result="color1" />
<feMerge result="effect2_noise_311_706">
<feMergeNode in="effect1_texture_311_706" />
<feMergeNode in="color1" />
</feMerge>
</filter>
<filter id="filter4_n_311_706" x="286" y="65.8398" width="150" height="149.636" filterUnits="userSpaceOnUse" color-interpolation-filters="sRGB">
<feFlood flood-opacity="0" result="BackgroundImageFix"/>
<feBlend mode="normal" in="SourceGraphic" in2="BackgroundImageFix" result="shape"/>
<feTurbulence type="fractalNoise" baseFrequency="0.019342359155416489 0.019342359155416489" stitchTiles="stitch" numOctaves="3" result="noise" seed="3850" />
<feComponentTransfer in="noise" result="coloredNoise1">
<feFuncR type="linear" slope="2" intercept="-0.5" />
<feFuncG type="linear" slope="2" intercept="-0.5" />
<feFuncB type="linear" slope="2" intercept="-0.5" />
<feFuncA type="discrete" tableValues="0 0 1 1 1 1 1 1 1 1 1 1 1 1 1 1 1 1 1 1 1 1 1 1 1 1 1 1 1 1 1 1 1 1 1 1 1 1 1 1 1 1 1 1 1 1 1 1 0 0 0 0 0 0 0 0 0 0 0 0 0 0 0 0 0 0 0 0 0 0 0 0 0 0 0 0 0 0 0 0 0 0 0 0 0 0 0 0 0 0 0 0 0 0 0 0 0 0 0 0 "/>
</feComponentTransfer>
<feComposite operator="in" in2="shape" in="coloredNoise1" result="noise1Clipped" />
<feComponentTransfer in="noise1Clipped" result="color1">
<feFuncA type="table" tableValues="0 0.15" />
</feComponentTransfer>
<feMerge result="effect1_noise_311_706">
<feMergeNode in="shape" />
<feMergeNode in="color1" />
</feMerge>
</filter>
<filter id="filter5_i_311_706" x="138.073" y="236.352" width="123.854" height="123.854" filterUnits="userSpaceOnUse" color-interpolation-filters="sRGB">
<feFlood flood-opacity="0" result="BackgroundImageFix"/>
<feBlend mode="normal" in="SourceGraphic" in2="BackgroundImageFix" result="shape"/>
<feColorMatrix in="SourceAlpha" type="matrix" values="0 0 0 0 0 0 0 0 0 0 0 0 0 0 0 0 0 0 127 0" result="hardAlpha"/>
<feOffset dx="-4" dy="4"/>
<feGaussianBlur stdDeviation="11.15"/>
<feComposite in2="hardAlpha" operator="arithmetic" k2="-1" k3="1"/>
<feColorMatrix type="matrix" values="0 0 0 0 1 0 0 0 0 1 0 0 0 0 1 0 0 0 1 0"/>
<feBlend mode="normal" in2="shape" result="effect1_innerShadow_311_706"/>
</filter>
<filter id="filter6_n_311_706" x="127" y="225.451" width="150" height="149.636" filterUnits="userSpaceOnUse" color-interpolation-filters="sRGB">
<feFlood flood-opacity="0" result="BackgroundImageFix"/>
<feBlend mode="normal" in="SourceGraphic" in2="BackgroundImageFix" result="shape"/>
<feTurbulence type="fractalNoise" baseFrequency="0.012836970388889313 0.012836970388889313" stitchTiles="stitch" numOctaves="3" result="noise" seed="3850" />
<feComponentTransfer in="noise" result="coloredNoise1">
<feFuncR type="linear" slope="2" intercept="-0.5" />
<feFuncG type="linear" slope="2" intercept="-0.5" />
<feFuncB type="linear" slope="2" intercept="-0.5" />
<feFuncA type="discrete" tableValues="1 1 1 1 1 1 1 1 1 1 1 1 1 1 1 1 1 1 1 1 1 1 1 1 1 1 1 1 1 1 1 1 1 1 1 1 1 1 1 1 1 1 1 1 1 1 1 1 1 1 1 0 0 0 0 0 0 0 0 0 0 0 0 0 0 0 0 0 0 0 0 0 0 0 0 0 0 0 0 0 0 0 0 0 0 0 0 0 0 0 0 0 0 0 0 0 0 0 0 0 "/>
</feComponentTransfer>
<feComposite operator="in" in2="shape" in="coloredNoise1" result="noise1Clipped" />
<feComponentTransfer in="noise1Clipped" result="color1">
<feFuncA type="table" tableValues="0 0.15" />
</feComponentTransfer>
<feMerge result="effect1_noise_311_706">
<feMergeNode in="shape" />
<feMergeNode in="color1" />
</feMerge>
</filter>
<filter id="filter7_i_311_706" x="298.073" y="239.345" width="123.854" height="123.854" filterUnits="userSpaceOnUse" color-interpolation-filters="sRGB">
<feFlood flood-opacity="0" result="BackgroundImageFix"/>
<feBlend mode="normal" in="SourceGraphic" in2="BackgroundImageFix" result="shape"/>
<feColorMatrix in="SourceAlpha" type="matrix" values="0 0 0 0 0 0 0 0 0 0 0 0 0 0 0 0 0 0 127 0" result="hardAlpha"/>
<feOffset dx="-4" dy="4"/>
<feGaussianBlur stdDeviation="10"/>
<feComposite in2="hardAlpha" operator="arithmetic" k2="-1" k3="1"/>
<feColorMatrix type="matrix" values="0 0 0 0 1 0 0 0 0 1 0 0 0 0 1 0 0 0 0.25 0"/>
<feBlend mode="normal" in2="shape" result="effect1_innerShadow_311_706"/>
</filter>
<filter id="filter8_n_311_706" x="286" y="225.451" width="150" height="149.636" filterUnits="userSpaceOnUse" color-interpolation-filters="sRGB">
<feFlood flood-opacity="0" result="BackgroundImageFix"/>
<feBlend mode="normal" in="SourceGraphic" in2="BackgroundImageFix" result="shape"/>
<feTurbulence type="fractalNoise" baseFrequency="0.0099999997764825821 0.0099999997764825821" stitchTiles="stitch" numOctaves="3" result="noise" seed="3850" />
<feComponentTransfer in="noise" result="coloredNoise1">
<feFuncR type="linear" slope="2" intercept="-0.5" />
<feFuncG type="linear" slope="2" intercept="-0.5" />
<feFuncB type="linear" slope="2" intercept="-0.5" />
<feFuncA type="discrete" tableValues="1 1 1 1 1 1 1 1 1 1 1 1 1 1 1 1 1 1 1 1 1 1 1 1 1 1 1 1 1 1 1 1 1 1 1 1 1 1 1 1 1 1 1 1 1 1 1 1 1 1 1 0 0 0 0 0 0 0 0 0 0 0 0 0 0 0 0 0 0 0 0 0 0 0 0 0 0 0 0 0 0 0 0 0 0 0 0 0 0 0 0 0 0 0 0 0 0 0 0 0 "/>
</feComponentTransfer>
<feComposite operator="in" in2="shape" in="coloredNoise1" result="noise1Clipped" />
<feComponentTransfer in="noise1Clipped" result="color1">
<feFuncA type="table" tableValues="0 0.15" />
</feComponentTransfer>
<feMerge result="effect1_noise_311_706">
<feMergeNode in="shape" />
<feMergeNode in="color1" />
</feMerge>
</filter>
<linearGradient id="paint0_linear_311_706" x1="323" y1="0" x2="323" y2="411" gradientUnits="userSpaceOnUse">
<stop stop-color="#B894B3"/>
<stop offset="1" stop-color="#9B7B96"/>
</linearGradient>
<radialGradient id="paint1_radial_311_706" cx="0" cy="0" r="1" gradientUnits="userSpaceOnUse" gradientTransform="translate(222.601 121.63) rotate(136.081) scale(86.107)">
<stop stop-color="#BFBFBF"/>
<stop offset="1" stop-color="#6F6F6F"/>
</radialGradient>
<linearGradient id="paint2_linear_311_706" x1="202" y1="65.8398" x2="202" y2="215.476" gradientUnits="userSpaceOnUse">
<stop stop-color="#F9F8F8"/>
<stop offset="1" stop-color="#E6F4FF"/>
</linearGradient>
<radialGradient id="paint3_radial_311_706" cx="0" cy="0" r="1" gradientUnits="userSpaceOnUse" gradientTransform="translate(387.218 116.095) rotate(136.081) scale(112.313)">
<stop stop-color="#C62DEC"/>
<stop offset="1" stop-color="#710F8A"/>
</radialGradient>
<linearGradient id="paint4_linear_311_706" x1="361" y1="65.8398" x2="361" y2="215.476" gradientUnits="userSpaceOnUse">
<stop stop-color="#F9F8F8"/>
<stop offset="1" stop-color="#E6F4FF"/>
</linearGradient>
<radialGradient id="paint5_radial_311_706" cx="0" cy="0" r="1" gradientUnits="userSpaceOnUse" gradientTransform="translate(222.974 275.904) rotate(136.081) scale(89.8507)">
<stop stop-color="#FFB151"/>
<stop offset="1" stop-color="#BD7115"/>
</radialGradient>
<linearGradient id="paint6_linear_311_706" x1="202" y1="225.451" x2="202" y2="375.087" gradientUnits="userSpaceOnUse">
<stop stop-color="#F9F8F8"/>
<stop offset="1" stop-color="#E6F4FF"/>
</linearGradient>
<radialGradient id="paint7_radial_311_706" cx="0" cy="0" r="1" gradientUnits="userSpaceOnUse" gradientTransform="translate(382.974 278.897) rotate(136.081) scale(89.8508)">
<stop stop-color="#BFBFBF"/>
<stop offset="1" stop-color="#6F6F6F"/>
</radialGradient>
<linearGradient id="paint8_linear_311_706" x1="361" y1="225.451" x2="361" y2="375.087" gradientUnits="userSpaceOnUse">
<stop stop-color="#F9F8F8"/>
<stop offset="1" stop-color="#E6F4FF"/>
</linearGradient>
<clipPath id="clip0_311_706">
<rect width="85.3022" height="85.3022" fill="white" transform="translate(547.698 9)"/>
</clipPath>
</defs>
</svg>
