<svg width="564" height="383" viewBox="0 0 564 383" fill="none" xmlns="http://www.w3.org/2000/svg">
<g filter="url(#filter0_n_283_580)">
<rect width="564" height="383" fill="url(#paint0_linear_283_580)"/>
</g>
<g filter="url(#filter1_i_283_580)">
<circle cx="202.5" cy="112.5" r="57.5" fill="url(#paint1_radial_283_580)"/>
</g>
<g filter="url(#filter2_n_283_580)">
<rect x="127" y="37" width="150" height="150" rx="15" fill="url(#paint2_linear_283_580)" fill-opacity="0.5"/>
<rect x="129.5" y="39.5" width="145" height="145" rx="12.5" stroke="#D2ECFF" stroke-width="5"/>
</g>
<path d="M175.109 129V96.2727H198.121V103.432H183.994V109.057H196.714V116.216H183.994V129H175.109ZM211.476 129.447C208.855 129.447 206.597 128.947 204.701 127.945C202.815 126.933 201.361 125.484 200.338 123.599C199.326 121.702 198.82 119.433 198.82 116.791C198.82 114.256 199.331 112.04 200.354 110.143C201.377 108.247 202.82 106.772 204.685 105.717C206.549 104.662 208.749 104.135 211.284 104.135C213.138 104.135 214.816 104.423 216.318 104.998C217.82 105.573 219.104 106.409 220.169 107.507C221.235 108.593 222.055 109.914 222.63 111.47C223.206 113.025 223.493 114.778 223.493 116.727V118.773H201.568V113.915H215.375C215.365 113.212 215.184 112.594 214.832 112.061C214.491 111.518 214.028 111.097 213.442 110.799C212.866 110.49 212.211 110.335 211.476 110.335C210.762 110.335 210.107 110.49 209.511 110.799C208.914 111.097 208.435 111.512 208.072 112.045C207.721 112.578 207.534 113.201 207.513 113.915V119.156C207.513 119.945 207.678 120.648 208.008 121.266C208.339 121.884 208.813 122.368 209.431 122.72C210.049 123.071 210.794 123.247 211.668 123.247C212.275 123.247 212.829 123.162 213.33 122.991C213.841 122.821 214.278 122.576 214.64 122.256C215.002 121.926 215.269 121.532 215.439 121.074H223.493C223.216 122.778 222.561 124.259 221.528 125.516C220.494 126.763 219.125 127.732 217.421 128.425C215.727 129.107 213.745 129.447 211.476 129.447Z" fill="black"/>
<path d="M187.844 134.091V145H186.199V134.091H187.844ZM190.114 145V136.818H191.653V138.118H191.738C191.887 137.678 192.15 137.331 192.527 137.079C192.907 136.824 193.336 136.696 193.816 136.696C193.915 136.696 194.032 136.699 194.167 136.706C194.306 136.713 194.414 136.722 194.492 136.733V138.256C194.428 138.239 194.315 138.219 194.151 138.198C193.988 138.173 193.825 138.161 193.661 138.161C193.285 138.161 192.949 138.24 192.654 138.4C192.363 138.556 192.132 138.775 191.962 139.055C191.792 139.332 191.706 139.648 191.706 140.004V145H190.114ZM199.024 145.165C198.257 145.165 197.587 144.989 197.016 144.638C196.444 144.286 196 143.794 195.684 143.162C195.368 142.53 195.21 141.792 195.21 140.946C195.21 140.098 195.368 139.355 195.684 138.72C196 138.084 196.444 137.591 197.016 137.239C197.587 136.887 198.257 136.712 199.024 136.712C199.791 136.712 200.46 136.887 201.032 137.239C201.604 137.591 202.048 138.084 202.364 138.72C202.68 139.355 202.838 140.098 202.838 140.946C202.838 141.792 202.68 142.53 202.364 143.162C202.048 143.794 201.604 144.286 201.032 144.638C200.46 144.989 199.791 145.165 199.024 145.165ZM199.029 143.828C199.526 143.828 199.938 143.697 200.265 143.434C200.592 143.171 200.833 142.821 200.989 142.385C201.149 141.948 201.229 141.467 201.229 140.941C201.229 140.419 201.149 139.94 200.989 139.503C200.833 139.062 200.592 138.709 200.265 138.443C199.938 138.176 199.526 138.043 199.029 138.043C198.528 138.043 198.113 138.176 197.783 138.443C197.456 138.709 197.213 139.062 197.053 139.503C196.897 139.94 196.819 140.419 196.819 140.941C196.819 141.467 196.897 141.948 197.053 142.385C197.213 142.821 197.456 143.171 197.783 143.434C198.113 143.697 198.528 143.828 199.029 143.828ZM206.208 140.142V145H204.616V136.818H206.144V138.15H206.246C206.434 137.717 206.729 137.369 207.13 137.106C207.535 136.843 208.044 136.712 208.659 136.712C209.216 136.712 209.704 136.829 210.123 137.063C210.542 137.294 210.867 137.638 211.098 138.097C211.329 138.555 211.444 139.121 211.444 139.796V145H209.852V139.988C209.852 139.395 209.697 138.931 209.388 138.597C209.079 138.26 208.655 138.091 208.115 138.091C207.746 138.091 207.417 138.171 207.13 138.331C206.846 138.491 206.62 138.725 206.453 139.034C206.29 139.339 206.208 139.709 206.208 140.142Z" fill="black"/>
<path d="M139.308 75V74.5384L145.132 67.6491C146.044 66.572 146.754 65.6723 147.263 64.9503C147.772 64.2223 148.13 63.5772 148.337 63.0149C148.544 62.4467 148.648 61.8608 148.648 61.2571C148.648 60.464 148.464 59.7567 148.097 59.1353C147.736 58.5138 147.239 58.0256 146.606 57.6705C145.978 57.3153 145.262 57.1378 144.457 57.1378C143.617 57.1378 142.877 57.3301 142.238 57.7148C141.599 58.0936 141.099 58.6026 140.738 59.2418C140.377 59.881 140.196 60.5883 140.196 61.3636H139.628C139.628 60.4818 139.832 59.6798 140.24 58.9577C140.655 58.2298 141.223 57.6497 141.945 57.2177C142.673 56.7856 143.51 56.5696 144.457 56.5696C145.369 56.5696 146.183 56.7738 146.899 57.1822C147.615 57.5846 148.18 58.141 148.594 58.8512C149.009 59.5555 149.216 60.3575 149.216 61.2571C149.216 61.9259 149.103 62.5651 148.879 63.1747C148.66 63.7843 148.284 64.465 147.751 65.2166C147.224 65.9683 146.493 66.8975 145.558 68.0043L140.196 74.3608V74.4318H150.281V75H139.308ZM159.949 75.2486C159.18 75.2486 158.467 75.074 157.81 74.7248C157.153 74.3756 156.579 73.8518 156.087 73.1534C155.602 72.4491 155.223 71.5643 154.951 70.4989C154.685 69.4336 154.551 68.1877 154.551 66.7614C154.551 65.5362 154.637 64.3229 154.809 63.1214C154.987 61.9141 155.282 60.8162 155.697 59.8278C156.111 58.8394 156.679 58.0492 157.401 57.4574C158.123 56.8655 159.032 56.5696 160.127 56.5696C161.026 56.5696 161.811 56.7738 162.479 57.1822C163.148 57.5846 163.678 58.1469 164.069 58.869C164.459 59.5851 164.684 60.4167 164.743 61.3636H164.175C164.086 60.1148 163.687 59.0998 162.977 58.3185C162.272 57.5314 161.322 57.1378 160.127 57.1378C158.47 57.1378 157.221 57.9871 156.38 59.6857C155.54 61.3784 155.12 63.8198 155.12 67.0099H155.191C155.386 66.4062 155.714 65.8706 156.176 65.4031C156.644 64.9296 157.197 64.5597 157.836 64.2933C158.475 64.0211 159.144 63.8849 159.843 63.8849C160.796 63.8849 161.666 64.1335 162.453 64.6307C163.246 65.1278 163.879 65.8055 164.353 66.6637C164.826 67.5219 165.063 68.4896 165.063 69.5668C165.063 70.5729 164.847 71.508 164.415 72.3722C163.989 73.2363 163.391 73.9317 162.621 74.4585C161.858 74.9852 160.967 75.2486 159.949 75.2486ZM159.949 74.6804C160.825 74.6804 161.603 74.4496 162.284 73.9879C162.971 73.5263 163.509 72.9078 163.9 72.1325C164.296 71.3571 164.495 70.5019 164.495 69.5668C164.495 68.608 164.285 67.7438 163.864 66.9744C163.45 66.1991 162.888 65.5865 162.178 65.1367C161.473 64.681 160.683 64.4531 159.807 64.4531C159.115 64.4531 158.473 64.5981 157.881 64.8881C157.289 65.1722 156.783 65.5658 156.363 66.0689C155.948 66.5661 155.652 67.1372 155.475 67.7823C155.297 68.4274 155.274 69.1051 155.404 69.8153C155.605 70.8807 155.919 71.7744 156.345 72.4964C156.777 73.2185 157.298 73.763 157.907 74.13C158.523 74.4969 159.203 74.6804 159.949 74.6804Z" fill="black"/>
<g filter="url(#filter3_gn_283_580)">
<circle cx="361" cy="113" r="75" fill="url(#paint3_radial_283_580)"/>
</g>
<g filter="url(#filter4_n_283_580)">
<rect x="286" y="37" width="150" height="150" rx="15" fill="url(#paint4_linear_283_580)" fill-opacity="0.5"/>
<rect x="288.5" y="39.5" width="145" height="145" rx="12.5" stroke="#D2ECFF" stroke-width="5"/>
</g>
<path d="M364.994 96.2727V129H356.109V96.2727H364.994Z" fill="black"/>
<path d="M341.844 134.091V145H340.199V134.091H341.844ZM347.56 145.165C346.793 145.165 346.124 144.989 345.552 144.638C344.98 144.286 344.536 143.794 344.22 143.162C343.904 142.53 343.746 141.792 343.746 140.946C343.746 140.098 343.904 139.355 344.22 138.72C344.536 138.084 344.98 137.591 345.552 137.239C346.124 136.887 346.793 136.712 347.56 136.712C348.327 136.712 348.996 136.887 349.568 137.239C350.14 137.591 350.584 138.084 350.9 138.72C351.216 139.355 351.374 140.098 351.374 140.946C351.374 141.792 351.216 142.53 350.9 143.162C350.584 143.794 350.14 144.286 349.568 144.638C348.996 144.989 348.327 145.165 347.56 145.165ZM347.565 143.828C348.063 143.828 348.474 143.697 348.801 143.434C349.128 143.171 349.369 142.821 349.526 142.385C349.685 141.948 349.765 141.467 349.765 140.941C349.765 140.419 349.685 139.94 349.526 139.503C349.369 139.062 349.128 138.709 348.801 138.443C348.474 138.176 348.063 138.043 347.565 138.043C347.065 138.043 346.649 138.176 346.319 138.443C345.992 138.709 345.749 139.062 345.589 139.503C345.433 139.94 345.355 140.419 345.355 140.941C345.355 141.467 345.433 141.948 345.589 142.385C345.749 142.821 345.992 143.171 346.319 143.434C346.649 143.697 347.065 143.828 347.565 143.828ZM356.215 145.16C355.554 145.16 354.965 144.991 354.446 144.654C353.931 144.313 353.526 143.828 353.232 143.2C352.94 142.567 352.795 141.809 352.795 140.925C352.795 140.041 352.942 139.284 353.237 138.656C353.535 138.027 353.944 137.546 354.462 137.212C354.981 136.879 355.568 136.712 356.225 136.712C356.733 136.712 357.141 136.797 357.45 136.967C357.763 137.134 358.004 137.33 358.175 137.553C358.349 137.777 358.484 137.974 358.58 138.145H358.676V134.091H360.268V145H358.713V143.727H358.58C358.484 143.901 358.345 144.1 358.164 144.324C357.987 144.547 357.742 144.743 357.429 144.909C357.117 145.076 356.712 145.16 356.215 145.16ZM356.566 143.801C357.024 143.801 357.411 143.681 357.727 143.439C358.047 143.194 358.288 142.855 358.452 142.422C358.619 141.989 358.702 141.484 358.702 140.909C358.702 140.341 358.62 139.844 358.457 139.418C358.294 138.991 358.054 138.659 357.738 138.422C357.422 138.184 357.031 138.065 356.566 138.065C356.087 138.065 355.687 138.189 355.368 138.438C355.048 138.686 354.807 139.025 354.643 139.455C354.483 139.885 354.403 140.369 354.403 140.909C354.403 141.456 354.485 141.948 354.649 142.385C354.812 142.821 355.053 143.168 355.373 143.423C355.696 143.675 356.094 143.801 356.566 143.801ZM362.541 145V136.818H364.134V145H362.541ZM363.346 135.556C363.069 135.556 362.831 135.463 362.632 135.279C362.437 135.091 362.339 134.867 362.339 134.608C362.339 134.345 362.437 134.121 362.632 133.936C362.831 133.748 363.069 133.654 363.346 133.654C363.623 133.654 363.859 133.748 364.054 133.936C364.253 134.121 364.352 134.345 364.352 134.608C364.352 134.867 364.253 135.091 364.054 135.279C363.859 135.463 363.623 135.556 363.346 135.556ZM367.869 140.142V145H366.277V136.818H367.805V138.15H367.907C368.095 137.717 368.39 137.369 368.791 137.106C369.196 136.843 369.705 136.712 370.32 136.712C370.877 136.712 371.366 136.829 371.785 137.063C372.204 137.294 372.528 137.638 372.759 138.097C372.99 138.555 373.106 139.121 373.106 139.796V145H371.513V139.988C371.513 139.395 371.358 138.931 371.049 138.597C370.741 138.26 370.316 138.091 369.776 138.091C369.407 138.091 369.079 138.171 368.791 138.331C368.507 138.491 368.281 138.725 368.114 139.034C367.951 139.339 367.869 139.709 367.869 140.142ZM378.768 145.165C377.962 145.165 377.267 144.993 376.685 144.648C376.106 144.3 375.659 143.812 375.343 143.184C375.03 142.551 374.874 141.811 374.874 140.962C374.874 140.124 375.03 139.386 375.343 138.746C375.659 138.107 376.099 137.608 376.664 137.25C377.232 136.891 377.896 136.712 378.656 136.712C379.118 136.712 379.565 136.788 379.998 136.941C380.432 137.093 380.82 137.333 381.165 137.66C381.509 137.987 381.781 138.411 381.98 138.933C382.179 139.451 382.278 140.082 382.278 140.824V141.388H375.774V140.195H380.717C380.717 139.776 380.632 139.405 380.462 139.082C380.291 138.755 380.052 138.498 379.743 138.31C379.437 138.121 379.079 138.027 378.667 138.027C378.219 138.027 377.829 138.137 377.495 138.358C377.165 138.574 376.909 138.858 376.728 139.21C376.55 139.558 376.461 139.936 376.461 140.344V141.277C376.461 141.824 376.557 142.289 376.749 142.672C376.944 143.056 377.216 143.349 377.564 143.551C377.912 143.75 378.319 143.849 378.784 143.849C379.086 143.849 379.361 143.807 379.609 143.722C379.858 143.633 380.073 143.501 380.254 143.327C380.435 143.153 380.574 142.939 380.669 142.683L382.177 142.955C382.056 143.398 381.84 143.787 381.527 144.121C381.218 144.451 380.829 144.709 380.361 144.893C379.895 145.075 379.364 145.165 378.768 145.165Z" fill="black"/>
<path d="M302.889 75.2486C301.948 75.2486 301.117 75.0444 300.395 74.636C299.672 74.2276 299.107 73.6624 298.699 72.9403C298.29 72.2183 298.089 71.3897 298.095 70.4545H298.663C298.657 71.6974 299.042 72.7125 299.817 73.4996C300.599 74.2868 301.623 74.6804 302.889 74.6804C303.842 74.6804 304.683 74.4466 305.411 73.979C306.138 73.5115 306.707 72.8752 307.115 72.0703C307.523 71.2654 307.725 70.3598 307.719 69.3537C307.713 68.2765 307.485 67.3443 307.035 66.5572C306.591 65.77 305.999 65.1634 305.26 64.7372C304.526 64.3111 303.724 64.098 302.854 64.098C302.138 64.098 301.489 64.2341 300.909 64.5064C300.329 64.7786 299.829 65.1278 299.409 65.554L298.557 65.4119L299.622 56.8182H307.683V57.3864H300.119L299.196 64.9148H299.267C299.723 64.4946 300.252 64.1602 300.856 63.9116C301.46 63.6571 302.126 63.5298 302.854 63.5298C303.83 63.5298 304.73 63.7725 305.553 64.2578C306.381 64.7372 307.044 65.4149 307.541 66.2908C308.044 67.1609 308.293 68.1818 308.287 69.3537C308.281 70.4782 308.047 71.4844 307.586 72.3722C307.124 73.2599 306.488 73.9613 305.677 74.4762C304.866 74.9911 303.937 75.2486 302.889 75.2486ZM318.024 75.2486C317 75.2486 316.079 75.0414 315.263 74.6271C314.452 74.2128 313.81 73.6446 313.336 72.9226C312.863 72.2005 312.626 71.3778 312.626 70.4545H313.194C313.194 71.2713 313.407 71.9993 313.833 72.6385C314.259 73.2718 314.837 73.7719 315.565 74.1388C316.298 74.4999 317.118 74.6804 318.024 74.6804C318.988 74.6804 319.832 74.4821 320.554 74.0856C321.276 73.689 321.838 73.1564 322.241 72.4876C322.649 71.8188 322.853 71.0819 322.853 70.277C322.853 69.407 322.622 68.6435 322.161 67.9865C321.699 67.3295 321.063 66.8205 320.252 66.4595C319.447 66.0926 318.527 65.9091 317.491 65.9091H317.207V65.3409H317.491C318.402 65.3409 319.222 65.1722 319.95 64.8349C320.678 64.4975 321.255 64.0211 321.681 63.4055C322.108 62.79 322.321 62.062 322.321 61.2216C322.321 60.4403 322.137 59.742 321.77 59.1264C321.403 58.5109 320.894 58.0256 320.243 57.6705C319.598 57.3153 318.846 57.1378 317.988 57.1378C317.142 57.1378 316.39 57.3183 315.733 57.6793C315.076 58.0344 314.558 58.5316 314.18 59.1708C313.807 59.8041 313.62 60.535 313.62 61.3636H313.052C313.052 60.4285 313.265 59.5999 313.691 58.8778C314.117 58.1558 314.7 57.5906 315.44 57.1822C316.186 56.7738 317.035 56.5696 317.988 56.5696C318.941 56.5696 319.784 56.7738 320.518 57.1822C321.258 57.5846 321.838 58.138 322.258 58.8423C322.679 59.5407 322.889 60.3338 322.889 61.2216C322.889 62.2869 322.584 63.2013 321.974 63.9648C321.365 64.7283 320.545 65.258 319.515 65.554V65.625C320.705 65.9268 321.652 66.4891 322.356 67.3118C323.066 68.1345 323.421 69.1229 323.421 70.277C323.421 71.2062 323.191 72.0466 322.729 72.7983C322.273 73.55 321.64 74.1477 320.829 74.5916C320.018 75.0296 319.083 75.2486 318.024 75.2486Z" fill="black"/>
<g filter="url(#filter5_i_283_580)">
<circle cx="202" cy="268" r="60" fill="url(#paint5_radial_283_580)"/>
</g>
<g filter="url(#filter6_n_283_580)">
<rect x="127" y="197" width="150" height="150" rx="15" fill="url(#paint6_linear_283_580)" fill-opacity="0.5"/>
<rect x="129.5" y="199.5" width="145" height="145" rx="12.5" stroke="#D2ECFF" stroke-width="5"/>
</g>
<path d="M200.663 259.545H191.651C191.587 258.8 191.416 258.123 191.139 257.516C190.873 256.909 190.5 256.387 190.021 255.95C189.552 255.502 188.982 255.162 188.311 254.927C187.64 254.682 186.878 254.56 186.026 254.56C184.534 254.56 183.272 254.922 182.238 255.646C181.216 256.371 180.438 257.409 179.905 258.762C179.383 260.115 179.122 261.74 179.122 263.636C179.122 265.639 179.388 267.317 179.921 268.67C180.464 270.012 181.248 271.025 182.27 271.706C183.293 272.377 184.523 272.713 185.962 272.713C186.782 272.713 187.517 272.612 188.167 272.409C188.817 272.196 189.381 271.893 189.861 271.499C190.34 271.104 190.729 270.63 191.027 270.076C191.336 269.512 191.544 268.878 191.651 268.175L200.663 268.239C200.557 269.624 200.168 271.035 199.497 272.473C198.826 273.901 197.872 275.222 196.636 276.436C195.411 277.64 193.893 278.61 192.082 279.345C190.271 280.08 188.167 280.447 185.77 280.447C182.766 280.447 180.07 279.803 177.684 278.514C175.308 277.225 173.428 275.328 172.043 272.825C170.669 270.321 169.982 267.259 169.982 263.636C169.982 259.993 170.685 256.925 172.091 254.432C173.497 251.928 175.393 250.037 177.78 248.759C180.166 247.47 182.83 246.825 185.77 246.825C187.837 246.825 189.738 247.108 191.475 247.672C193.211 248.237 194.735 249.062 196.045 250.149C197.355 251.225 198.41 252.551 199.209 254.128C200.008 255.705 200.493 257.511 200.663 259.545ZM220.738 269.261V255.455H229.559V280H221.186V275.334H220.93C220.397 276.9 219.465 278.125 218.134 279.009C216.802 279.883 215.22 280.32 213.388 280.32C211.672 280.32 210.17 279.925 208.881 279.137C207.603 278.349 206.607 277.262 205.893 275.877C205.19 274.492 204.833 272.905 204.822 271.115V255.455H213.643V269.261C213.654 270.476 213.963 271.429 214.57 272.122C215.188 272.814 216.051 273.161 217.159 273.161C217.894 273.161 218.528 273.006 219.06 272.697C219.604 272.377 220.019 271.93 220.307 271.355C220.605 270.769 220.749 270.071 220.738 269.261Z" fill="black"/>
<path d="M181.259 292.638H179.597C179.533 292.283 179.414 291.971 179.24 291.701C179.066 291.431 178.853 291.202 178.601 291.014C178.349 290.826 178.067 290.684 177.754 290.588C177.445 290.492 177.117 290.444 176.769 290.444C176.14 290.444 175.577 290.602 175.08 290.918C174.587 291.234 174.196 291.697 173.908 292.308C173.624 292.919 173.482 293.665 173.482 294.545C173.482 295.433 173.624 296.183 173.908 296.793C174.196 297.404 174.588 297.866 175.086 298.178C175.583 298.491 176.142 298.647 176.763 298.647C177.108 298.647 177.435 298.601 177.744 298.509C178.056 298.413 178.338 298.272 178.591 298.088C178.843 297.903 179.056 297.678 179.23 297.411C179.407 297.141 179.53 296.832 179.597 296.484L181.259 296.49C181.17 297.026 180.998 297.52 180.743 297.971C180.49 298.418 180.165 298.805 179.768 299.132C179.374 299.455 178.923 299.705 178.415 299.883C177.907 300.06 177.353 300.149 176.753 300.149C175.808 300.149 174.967 299.925 174.228 299.478C173.489 299.027 172.907 298.382 172.481 297.544C172.058 296.706 171.847 295.707 171.847 294.545C171.847 293.381 172.06 292.381 172.486 291.547C172.912 290.708 173.495 290.066 174.233 289.618C174.972 289.167 175.812 288.942 176.753 288.942C177.332 288.942 177.871 289.025 178.372 289.192C178.876 289.355 179.329 289.597 179.73 289.917C180.132 290.233 180.464 290.62 180.727 291.078C180.989 291.532 181.167 292.053 181.259 292.638ZM186.547 300.165C185.78 300.165 185.111 299.989 184.539 299.638C183.967 299.286 183.524 298.794 183.207 298.162C182.891 297.53 182.733 296.792 182.733 295.946C182.733 295.098 182.891 294.355 183.207 293.72C183.524 293.084 183.967 292.591 184.539 292.239C185.111 291.887 185.78 291.712 186.547 291.712C187.314 291.712 187.984 291.887 188.555 292.239C189.127 292.591 189.571 293.084 189.887 293.72C190.203 294.355 190.361 295.098 190.361 295.946C190.361 296.792 190.203 297.53 189.887 298.162C189.571 298.794 189.127 299.286 188.555 299.638C187.984 299.989 187.314 300.165 186.547 300.165ZM186.553 298.828C187.05 298.828 187.462 298.697 187.788 298.434C188.115 298.171 188.357 297.821 188.513 297.385C188.673 296.948 188.753 296.467 188.753 295.941C188.753 295.419 188.673 294.94 188.513 294.503C188.357 294.062 188.115 293.709 187.788 293.443C187.462 293.176 187.05 293.043 186.553 293.043C186.052 293.043 185.636 293.176 185.306 293.443C184.979 293.709 184.736 294.062 184.576 294.503C184.42 294.94 184.342 295.419 184.342 295.941C184.342 296.467 184.42 296.948 184.576 297.385C184.736 297.821 184.979 298.171 185.306 298.434C185.636 298.697 186.052 298.828 186.553 298.828ZM192.139 303.068V291.818H193.694V293.145H193.828C193.92 292.974 194.053 292.777 194.227 292.553C194.401 292.33 194.643 292.134 194.952 291.967C195.26 291.797 195.669 291.712 196.177 291.712C196.837 291.712 197.427 291.879 197.945 292.212C198.464 292.546 198.87 293.027 199.165 293.656C199.463 294.284 199.612 295.041 199.612 295.925C199.612 296.809 199.465 297.567 199.17 298.2C198.876 298.828 198.471 299.313 197.956 299.654C197.441 299.991 196.853 300.16 196.193 300.16C195.695 300.16 195.289 300.076 194.973 299.909C194.66 299.743 194.415 299.547 194.238 299.324C194.06 299.1 193.923 298.901 193.828 298.727H193.732V303.068H192.139ZM193.7 295.909C193.7 296.484 193.783 296.989 193.95 297.422C194.117 297.855 194.358 298.194 194.675 298.439C194.991 298.681 195.378 298.801 195.836 298.801C196.312 298.801 196.709 298.675 197.029 298.423C197.349 298.168 197.59 297.821 197.753 297.385C197.92 296.948 198.004 296.456 198.004 295.909C198.004 295.369 197.922 294.885 197.759 294.455C197.599 294.025 197.357 293.686 197.034 293.438C196.715 293.189 196.315 293.065 195.836 293.065C195.374 293.065 194.983 293.184 194.664 293.422C194.348 293.659 194.108 293.991 193.945 294.418C193.781 294.844 193.7 295.341 193.7 295.909ZM201.397 303.068V291.818H202.952V293.145H203.085C203.178 292.974 203.311 292.777 203.485 292.553C203.659 292.33 203.9 292.134 204.209 291.967C204.518 291.797 204.927 291.712 205.434 291.712C206.095 291.712 206.684 291.879 207.203 292.212C207.721 292.546 208.128 293.027 208.423 293.656C208.721 294.284 208.87 295.041 208.87 295.925C208.87 296.809 208.723 297.567 208.428 298.2C208.133 298.828 207.729 299.313 207.214 299.654C206.699 299.991 206.111 300.16 205.45 300.16C204.953 300.16 204.547 300.076 204.231 299.909C203.918 299.743 203.673 299.547 203.496 299.324C203.318 299.1 203.181 298.901 203.085 298.727H202.99V303.068H201.397ZM202.958 295.909C202.958 296.484 203.041 296.989 203.208 297.422C203.375 297.855 203.616 298.194 203.932 298.439C204.248 298.681 204.635 298.801 205.094 298.801C205.569 298.801 205.967 298.675 206.287 298.423C206.606 298.168 206.848 297.821 207.011 297.385C207.178 296.948 207.262 296.456 207.262 295.909C207.262 295.369 207.18 294.885 207.017 294.455C206.857 294.025 206.615 293.686 206.292 293.438C205.972 293.189 205.573 293.065 205.094 293.065C204.632 293.065 204.241 293.184 203.922 293.422C203.606 293.659 203.366 293.991 203.203 294.418C203.039 294.844 202.958 295.341 202.958 295.909ZM214.181 300.165C213.375 300.165 212.681 299.993 212.098 299.648C211.519 299.3 211.072 298.812 210.756 298.184C210.443 297.551 210.287 296.811 210.287 295.962C210.287 295.124 210.443 294.386 210.756 293.746C211.072 293.107 211.512 292.608 212.077 292.25C212.645 291.891 213.309 291.712 214.069 291.712C214.531 291.712 214.978 291.788 215.411 291.941C215.845 292.093 216.233 292.333 216.578 292.66C216.922 292.987 217.194 293.411 217.393 293.933C217.592 294.451 217.691 295.082 217.691 295.824V296.388H211.187V295.195H216.131C216.131 294.776 216.045 294.405 215.875 294.082C215.704 293.755 215.465 293.498 215.156 293.31C214.85 293.121 214.492 293.027 214.08 293.027C213.632 293.027 213.242 293.137 212.908 293.358C212.578 293.574 212.322 293.858 212.141 294.21C211.963 294.558 211.874 294.936 211.874 295.344V296.277C211.874 296.824 211.97 297.289 212.162 297.672C212.357 298.056 212.629 298.349 212.977 298.551C213.325 298.75 213.732 298.849 214.197 298.849C214.499 298.849 214.774 298.807 215.023 298.722C215.271 298.633 215.486 298.501 215.667 298.327C215.848 298.153 215.987 297.939 216.083 297.683L217.59 297.955C217.469 298.398 217.253 298.787 216.94 299.121C216.631 299.451 216.242 299.709 215.774 299.893C215.308 300.075 214.778 300.165 214.181 300.165ZM219.458 300V291.818H220.998V293.118H221.083C221.232 292.678 221.495 292.331 221.871 292.079C222.251 291.824 222.681 291.696 223.16 291.696C223.26 291.696 223.377 291.699 223.512 291.706C223.65 291.713 223.759 291.722 223.837 291.733V293.256C223.773 293.239 223.659 293.219 223.496 293.198C223.333 293.173 223.169 293.161 223.006 293.161C222.63 293.161 222.294 293.24 221.999 293.4C221.708 293.556 221.477 293.775 221.307 294.055C221.136 294.332 221.051 294.648 221.051 295.004V300H219.458Z" fill="black"/>
<path d="M139.308 228V227.538L145.132 220.649C146.044 219.572 146.754 218.672 147.263 217.95C147.772 217.222 148.13 216.577 148.337 216.015C148.544 215.447 148.648 214.861 148.648 214.257C148.648 213.464 148.464 212.757 148.097 212.135C147.736 211.514 147.239 211.026 146.606 210.67C145.978 210.315 145.262 210.138 144.457 210.138C143.617 210.138 142.877 210.33 142.238 210.715C141.599 211.094 141.099 211.603 140.738 212.242C140.377 212.881 140.196 213.588 140.196 214.364H139.628C139.628 213.482 139.832 212.68 140.24 211.958C140.655 211.23 141.223 210.65 141.945 210.218C142.673 209.786 143.51 209.57 144.457 209.57C145.369 209.57 146.183 209.774 146.899 210.182C147.615 210.585 148.18 211.141 148.594 211.851C149.009 212.556 149.216 213.357 149.216 214.257C149.216 214.926 149.103 215.565 148.879 216.175C148.66 216.784 148.284 217.465 147.751 218.217C147.224 218.968 146.493 219.897 145.558 221.004L140.196 227.361V227.432H150.281V228H139.308ZM159.665 209.57C160.44 209.57 161.154 209.744 161.805 210.093C162.462 210.437 163.033 210.958 163.518 211.656C164.009 212.348 164.388 213.224 164.654 214.284C164.927 215.343 165.063 216.589 165.063 218.021C165.063 219.246 164.977 220.463 164.805 221.67C164.634 222.877 164.341 223.978 163.926 224.973C163.512 225.967 162.944 226.763 162.222 227.361C161.5 227.953 160.588 228.249 159.488 228.249C158.588 228.249 157.804 228.044 157.135 227.636C156.466 227.222 155.936 226.654 155.546 225.931C155.155 225.203 154.93 224.366 154.871 223.419H155.439C155.528 224.662 155.928 225.683 156.638 226.482C157.348 227.281 158.298 227.68 159.488 227.68C161.139 227.68 162.385 226.828 163.225 225.124C164.071 223.419 164.495 220.969 164.495 217.773H164.424C164.234 218.376 163.906 218.915 163.438 219.388C162.971 219.856 162.417 220.226 161.778 220.498C161.139 220.765 160.47 220.898 159.772 220.898C158.813 220.898 157.937 220.649 157.144 220.152C156.357 219.655 155.726 218.977 155.253 218.119C154.785 217.261 154.551 216.293 154.551 215.216C154.551 214.21 154.765 213.278 155.191 212.419C155.623 211.561 156.221 210.872 156.984 210.351C157.753 209.83 158.647 209.57 159.665 209.57ZM159.665 210.138C158.789 210.138 158.008 210.366 157.321 210.821C156.641 211.277 156.102 211.89 155.706 212.659C155.315 213.429 155.12 214.281 155.12 215.216C155.12 216.175 155.327 217.042 155.741 217.817C156.161 218.587 156.724 219.199 157.428 219.655C158.138 220.105 158.931 220.33 159.807 220.33C160.5 220.33 161.142 220.187 161.734 219.903C162.326 219.613 162.829 219.217 163.243 218.714C163.663 218.211 163.962 217.64 164.14 217C164.323 216.355 164.347 215.678 164.211 214.967C164.009 213.902 163.693 213.011 163.261 212.295C162.835 211.579 162.314 211.04 161.698 210.679C161.089 210.318 160.411 210.138 159.665 210.138Z" fill="black"/>
<g filter="url(#filter7_i_283_580)">
<circle cx="362" cy="271" r="60" fill="url(#paint7_radial_283_580)"/>
</g>
<g filter="url(#filter8_n_283_580)">
<rect x="286" y="197" width="150" height="150" rx="15" fill="url(#paint8_linear_283_580)" fill-opacity="0.5"/>
<rect x="288.5" y="199.5" width="145" height="145" rx="12.5" stroke="#D2ECFF" stroke-width="5"/>
</g>
<path d="M333.237 289V284.078L348.706 263.432H333.301V256.273H360.02V261.195L344.551 281.841H359.956V289H333.237ZM373.303 275.193V289H364.482V264.455H372.856V269.121H373.112C373.644 267.565 374.582 266.346 375.924 265.461C377.277 264.577 378.854 264.135 380.654 264.135C382.391 264.135 383.898 264.534 385.177 265.333C386.466 266.122 387.462 267.208 388.165 268.593C388.879 269.978 389.23 271.56 389.22 273.339V289H380.399V275.193C380.409 273.979 380.1 273.025 379.472 272.333C378.854 271.64 377.991 271.294 376.883 271.294C376.158 271.294 375.525 271.454 374.981 271.773C374.449 272.082 374.038 272.53 373.751 273.116C373.463 273.691 373.314 274.384 373.303 275.193Z" fill="black"/>
<path d="M346.916 305V303.903L352.653 295.508H346.868V294.091H354.667V295.188L348.93 303.583H354.714V305H346.916ZM356.651 305V296.818H358.243V305H356.651ZM357.455 295.556C357.178 295.556 356.94 295.463 356.741 295.279C356.546 295.091 356.448 294.867 356.448 294.608C356.448 294.345 356.546 294.121 356.741 293.936C356.94 293.748 357.178 293.654 357.455 293.654C357.732 293.654 357.968 293.748 358.164 293.936C358.362 294.121 358.462 294.345 358.462 294.608C358.462 294.867 358.362 295.091 358.164 295.279C357.968 295.463 357.732 295.556 357.455 295.556ZM361.979 300.142V305H360.386V296.818H361.915V298.15H362.016C362.204 297.717 362.499 297.369 362.9 297.106C363.305 296.843 363.815 296.712 364.429 296.712C364.987 296.712 365.475 296.829 365.894 297.063C366.313 297.294 366.638 297.638 366.869 298.097C367.1 298.555 367.215 299.121 367.215 299.796V305H365.622V299.988C365.622 299.395 365.468 298.931 365.159 298.597C364.85 298.26 364.426 298.091 363.886 298.091C363.516 298.091 363.188 298.171 362.9 298.331C362.616 298.491 362.391 298.725 362.224 299.034C362.06 299.339 361.979 299.709 361.979 300.142ZM372.797 305.165C372.005 305.165 371.324 304.986 370.752 304.627C370.184 304.265 369.747 303.766 369.441 303.13C369.136 302.495 368.983 301.767 368.983 300.946C368.983 300.115 369.14 299.382 369.452 298.746C369.765 298.107 370.205 297.608 370.773 297.25C371.341 296.891 372.011 296.712 372.781 296.712C373.403 296.712 373.957 296.827 374.443 297.058C374.93 297.285 375.322 297.605 375.62 298.017C375.922 298.429 376.102 298.91 376.158 299.46H374.608C374.523 299.077 374.328 298.746 374.022 298.469C373.721 298.192 373.316 298.054 372.808 298.054C372.364 298.054 371.975 298.171 371.641 298.406C371.311 298.636 371.054 298.967 370.869 299.396C370.684 299.822 370.592 300.327 370.592 300.909C370.592 301.506 370.683 302.021 370.864 302.454C371.045 302.887 371.301 303.223 371.631 303.461C371.965 303.699 372.357 303.817 372.808 303.817C373.11 303.817 373.383 303.762 373.628 303.652C373.877 303.539 374.085 303.377 374.252 303.168C374.422 302.958 374.541 302.706 374.608 302.411H376.158C376.102 302.94 375.929 303.413 375.642 303.828C375.354 304.244 374.969 304.57 374.486 304.808C374.006 305.046 373.444 305.165 372.797 305.165Z" fill="black"/>
<path d="M303.741 235.249C302.718 235.249 301.797 235.041 300.98 234.627C300.17 234.213 299.527 233.645 299.054 232.923C298.58 232.201 298.344 231.378 298.344 230.455H298.912C298.912 231.271 299.125 231.999 299.551 232.638C299.977 233.272 300.554 233.772 301.282 234.139C302.016 234.5 302.836 234.68 303.741 234.68C304.706 234.68 305.55 234.482 306.272 234.086C306.994 233.689 307.556 233.156 307.958 232.488C308.367 231.819 308.571 231.082 308.571 230.277C308.571 229.407 308.34 228.643 307.879 227.987C307.417 227.33 306.781 226.821 305.97 226.46C305.165 226.093 304.245 225.909 303.209 225.909H302.925V225.341H303.209C304.12 225.341 304.94 225.172 305.668 224.835C306.396 224.498 306.973 224.021 307.399 223.406C307.825 222.79 308.038 222.062 308.038 221.222C308.038 220.44 307.855 219.742 307.488 219.126C307.121 218.511 306.612 218.026 305.961 217.67C305.316 217.315 304.564 217.138 303.706 217.138C302.86 217.138 302.108 217.318 301.451 217.679C300.794 218.034 300.276 218.532 299.897 219.171C299.525 219.804 299.338 220.535 299.338 221.364H298.77C298.77 220.429 298.983 219.6 299.409 218.878C299.835 218.156 300.418 217.591 301.158 217.182C301.904 216.774 302.753 216.57 303.706 216.57C304.659 216.57 305.502 216.774 306.236 217.182C306.976 217.585 307.556 218.138 307.976 218.842C308.396 219.541 308.607 220.334 308.607 221.222C308.607 222.287 308.302 223.201 307.692 223.965C307.083 224.728 306.263 225.258 305.233 225.554V225.625C306.423 225.927 307.37 226.489 308.074 227.312C308.784 228.134 309.139 229.123 309.139 230.277C309.139 231.206 308.908 232.047 308.447 232.798C307.991 233.55 307.358 234.148 306.547 234.592C305.736 235.03 304.801 235.249 303.741 235.249ZM318.718 235.249C317.564 235.249 316.57 234.873 315.735 234.121C314.907 233.369 314.268 232.295 313.818 230.898C313.368 229.502 313.143 227.839 313.143 225.909C313.143 223.98 313.368 222.317 313.818 220.92C314.268 219.523 314.907 218.449 315.735 217.697C316.57 216.945 317.564 216.57 318.718 216.57C319.873 216.57 320.864 216.945 321.692 217.697C322.527 218.449 323.169 219.523 323.619 220.92C324.069 222.317 324.294 223.98 324.294 225.909C324.294 227.839 324.069 229.502 323.619 230.898C323.169 232.295 322.527 233.369 321.692 234.121C320.864 234.873 319.873 235.249 318.718 235.249ZM318.718 234.68C320.269 234.68 321.491 233.902 322.385 232.346C323.279 230.789 323.725 228.643 323.725 225.909C323.725 224.086 323.521 222.521 323.113 221.213C322.71 219.899 322.136 218.893 321.391 218.194C320.645 217.49 319.754 217.138 318.718 217.138C317.168 217.138 315.946 217.916 315.052 219.473C314.158 221.029 313.711 223.175 313.711 225.909C313.711 227.732 313.913 229.3 314.315 230.614C314.723 231.922 315.3 232.929 316.046 233.633C316.798 234.331 317.689 234.68 318.718 234.68Z" fill="black"/>
<defs>
<filter id="filter0_n_283_580" x="0" y="0" width="564" height="383" filterUnits="userSpaceOnUse" color-interpolation-filters="sRGB">
<feFlood flood-opacity="0" result="BackgroundImageFix"/>
<feBlend mode="normal" in="SourceGraphic" in2="BackgroundImageFix" result="shape"/>
<feTurbulence type="fractalNoise" baseFrequency="0.0099999997764825821 0.0099999997764825821" stitchTiles="stitch" numOctaves="3" result="noise" seed="9254" />
<feColorMatrix in="noise" type="luminanceToAlpha" result="alphaNoise" />
<feComponentTransfer in="alphaNoise" result="coloredNoise1">
<feFuncA type="discrete" tableValues="1 1 1 1 1 1 1 1 1 1 1 1 1 1 1 1 1 1 1 1 1 1 1 1 1 1 1 1 1 1 1 1 1 1 1 1 1 1 1 1 1 1 1 1 1 1 1 1 1 1 1 0 0 0 0 0 0 0 0 0 0 0 0 0 0 0 0 0 0 0 0 0 0 0 0 0 0 0 0 0 0 0 0 0 0 0 0 0 0 0 0 0 0 0 0 0 0 0 0 0 "/>
</feComponentTransfer>
<feComposite operator="in" in2="shape" in="coloredNoise1" result="noise1Clipped" />
<feFlood flood-color="#9B7B96" result="color1Flood" />
<feComposite operator="in" in2="noise1Clipped" in="color1Flood" result="color1" />
<feMerge result="effect1_noise_283_580">
<feMergeNode in="shape" />
<feMergeNode in="color1" />
</feMerge>
</filter>
<filter id="filter1_i_283_580" x="141" y="55" width="119" height="119" filterUnits="userSpaceOnUse" color-interpolation-filters="sRGB">
<feFlood flood-opacity="0" result="BackgroundImageFix"/>
<feBlend mode="normal" in="SourceGraphic" in2="BackgroundImageFix" result="shape"/>
<feColorMatrix in="SourceAlpha" type="matrix" values="0 0 0 0 0 0 0 0 0 0 0 0 0 0 0 0 0 0 127 0" result="hardAlpha"/>
<feOffset dx="-4" dy="4"/>
<feGaussianBlur stdDeviation="10"/>
<feComposite in2="hardAlpha" operator="arithmetic" k2="-1" k3="1"/>
<feColorMatrix type="matrix" values="0 0 0 0 1 0 0 0 0 1 0 0 0 0 1 0 0 0 0.25 0"/>
<feBlend mode="normal" in2="shape" result="effect1_innerShadow_283_580"/>
</filter>
<filter id="filter2_n_283_580" x="127" y="37" width="150" height="150" filterUnits="userSpaceOnUse" color-interpolation-filters="sRGB">
<feFlood flood-opacity="0" result="BackgroundImageFix"/>
<feBlend mode="normal" in="SourceGraphic" in2="BackgroundImageFix" result="shape"/>
<feTurbulence type="fractalNoise" baseFrequency="0.0099999997764825821 0.0099999997764825821" stitchTiles="stitch" numOctaves="3" result="noise" seed="3850" />
<feComponentTransfer in="noise" result="coloredNoise1">
<feFuncR type="linear" slope="2" intercept="-0.5" />
<feFuncG type="linear" slope="2" intercept="-0.5" />
<feFuncB type="linear" slope="2" intercept="-0.5" />
<feFuncA type="discrete" tableValues="0 0 0 0 0 0 0 0 0 0 0 0 0 0 1 1 1 1 1 1 1 1 1 1 1 1 1 1 1 1 1 1 1 1 1 0 0 0 0 0 0 0 0 0 0 0 0 0 0 0 0 0 0 0 0 0 0 0 0 0 0 0 0 0 0 0 0 0 0 0 0 0 0 0 0 0 0 0 0 0 0 0 0 0 0 0 0 0 0 0 0 0 0 0 0 0 0 0 0 0 "/>
</feComponentTransfer>
<feComposite operator="in" in2="shape" in="coloredNoise1" result="noise1Clipped" />
<feComponentTransfer in="noise1Clipped" result="color1">
<feFuncA type="table" tableValues="0 0.15" />
</feComponentTransfer>
<feMerge result="effect1_noise_283_580">
<feMergeNode in="shape" />
<feMergeNode in="color1" />
</feMerge>
</filter>
<filter id="filter3_gn_283_580" x="282.2" y="34.2" width="157.6" height="157.6" filterUnits="userSpaceOnUse" color-interpolation-filters="sRGB">
<feFlood flood-opacity="0" result="BackgroundImageFix"/>
<feBlend mode="normal" in="SourceGraphic" in2="BackgroundImageFix" result="shape"/>
<feTurbulence type="fractalNoise" baseFrequency="0.051813472062349319 0.051813472062349319" numOctaves="3" seed="9248" />
<feDisplacementMap in="shape" scale="7.5999999046325684" xChannelSelector="R" yChannelSelector="G" result="displacedImage" width="100%" height="100%" />
<feMerge result="effect1_texture_283_580">
<feMergeNode in="displacedImage"/>
</feMerge>
<feTurbulence type="fractalNoise" baseFrequency="0.039525691419839859 0.039525691419839859" stitchTiles="stitch" numOctaves="3" result="noise" seed="1231" />
<feColorMatrix in="noise" type="luminanceToAlpha" result="alphaNoise" />
<feComponentTransfer in="alphaNoise" result="coloredNoise1">
<feFuncA type="discrete" tableValues="0 0 0 0 0 0 0 0 0 0 0 0 0 0 0 0 0 0 0 0 0 1 1 1 1 1 1 1 1 0 0 0 0 0 0 0 0 0 0 0 0 0 0 0 0 0 0 0 0 0 0 0 0 0 0 0 0 0 0 0 0 0 0 0 0 0 0 0 0 0 0 0 0 0 0 0 0 0 0 0 0 0 0 0 0 0 0 0 0 0 0 0 0 0 0 0 0 0 0 0 "/>
</feComponentTransfer>
<feComposite operator="in" in2="effect1_texture_283_580" in="coloredNoise1" result="noise1Clipped" />
<feFlood flood-color="rgba(0, 0, 0, 0.25)" result="color1Flood" />
<feComposite operator="in" in2="noise1Clipped" in="color1Flood" result="color1" />
<feMerge result="effect2_noise_283_580">
<feMergeNode in="effect1_texture_283_580" />
<feMergeNode in="color1" />
</feMerge>
</filter>
<filter id="filter4_n_283_580" x="286" y="37" width="150" height="150" filterUnits="userSpaceOnUse" color-interpolation-filters="sRGB">
<feFlood flood-opacity="0" result="BackgroundImageFix"/>
<feBlend mode="normal" in="SourceGraphic" in2="BackgroundImageFix" result="shape"/>
<feTurbulence type="fractalNoise" baseFrequency="0.019342359155416489 0.019342359155416489" stitchTiles="stitch" numOctaves="3" result="noise" seed="3850" />
<feComponentTransfer in="noise" result="coloredNoise1">
<feFuncR type="linear" slope="2" intercept="-0.5" />
<feFuncG type="linear" slope="2" intercept="-0.5" />
<feFuncB type="linear" slope="2" intercept="-0.5" />
<feFuncA type="discrete" tableValues="0 0 1 1 1 1 1 1 1 1 1 1 1 1 1 1 1 1 1 1 1 1 1 1 1 1 1 1 1 1 1 1 1 1 1 1 1 1 1 1 1 1 1 1 1 1 1 1 0 0 0 0 0 0 0 0 0 0 0 0 0 0 0 0 0 0 0 0 0 0 0 0 0 0 0 0 0 0 0 0 0 0 0 0 0 0 0 0 0 0 0 0 0 0 0 0 0 0 0 0 "/>
</feComponentTransfer>
<feComposite operator="in" in2="shape" in="coloredNoise1" result="noise1Clipped" />
<feComponentTransfer in="noise1Clipped" result="color1">
<feFuncA type="table" tableValues="0 0.15" />
</feComponentTransfer>
<feMerge result="effect1_noise_283_580">
<feMergeNode in="shape" />
<feMergeNode in="color1" />
</feMerge>
</filter>
<filter id="filter5_i_283_580" x="138" y="208" width="124" height="124" filterUnits="userSpaceOnUse" color-interpolation-filters="sRGB">
<feFlood flood-opacity="0" result="BackgroundImageFix"/>
<feBlend mode="normal" in="SourceGraphic" in2="BackgroundImageFix" result="shape"/>
<feColorMatrix in="SourceAlpha" type="matrix" values="0 0 0 0 0 0 0 0 0 0 0 0 0 0 0 0 0 0 127 0" result="hardAlpha"/>
<feOffset dx="-4" dy="4"/>
<feGaussianBlur stdDeviation="11.15"/>
<feComposite in2="hardAlpha" operator="arithmetic" k2="-1" k3="1"/>
<feColorMatrix type="matrix" values="0 0 0 0 1 0 0 0 0 1 0 0 0 0 1 0 0 0 1 0"/>
<feBlend mode="normal" in2="shape" result="effect1_innerShadow_283_580"/>
</filter>
<filter id="filter6_n_283_580" x="127" y="197" width="150" height="150" filterUnits="userSpaceOnUse" color-interpolation-filters="sRGB">
<feFlood flood-opacity="0" result="BackgroundImageFix"/>
<feBlend mode="normal" in="SourceGraphic" in2="BackgroundImageFix" result="shape"/>
<feTurbulence type="fractalNoise" baseFrequency="0.012836970388889313 0.012836970388889313" stitchTiles="stitch" numOctaves="3" result="noise" seed="3850" />
<feComponentTransfer in="noise" result="coloredNoise1">
<feFuncR type="linear" slope="2" intercept="-0.5" />
<feFuncG type="linear" slope="2" intercept="-0.5" />
<feFuncB type="linear" slope="2" intercept="-0.5" />
<feFuncA type="discrete" tableValues="1 1 1 1 1 1 1 1 1 1 1 1 1 1 1 1 1 1 1 1 1 1 1 1 1 1 1 1 1 1 1 1 1 1 1 1 1 1 1 1 1 1 1 1 1 1 1 1 1 1 1 0 0 0 0 0 0 0 0 0 0 0 0 0 0 0 0 0 0 0 0 0 0 0 0 0 0 0 0 0 0 0 0 0 0 0 0 0 0 0 0 0 0 0 0 0 0 0 0 0 "/>
</feComponentTransfer>
<feComposite operator="in" in2="shape" in="coloredNoise1" result="noise1Clipped" />
<feComponentTransfer in="noise1Clipped" result="color1">
<feFuncA type="table" tableValues="0 0.15" />
</feComponentTransfer>
<feMerge result="effect1_noise_283_580">
<feMergeNode in="shape" />
<feMergeNode in="color1" />
</feMerge>
</filter>
<filter id="filter7_i_283_580" x="298" y="211" width="124" height="124" filterUnits="userSpaceOnUse" color-interpolation-filters="sRGB">
<feFlood flood-opacity="0" result="BackgroundImageFix"/>
<feBlend mode="normal" in="SourceGraphic" in2="BackgroundImageFix" result="shape"/>
<feColorMatrix in="SourceAlpha" type="matrix" values="0 0 0 0 0 0 0 0 0 0 0 0 0 0 0 0 0 0 127 0" result="hardAlpha"/>
<feOffset dx="-4" dy="4"/>
<feGaussianBlur stdDeviation="10"/>
<feComposite in2="hardAlpha" operator="arithmetic" k2="-1" k3="1"/>
<feColorMatrix type="matrix" values="0 0 0 0 1 0 0 0 0 1 0 0 0 0 1 0 0 0 0.25 0"/>
<feBlend mode="normal" in2="shape" result="effect1_innerShadow_283_580"/>
</filter>
<filter id="filter8_n_283_580" x="286" y="197" width="150" height="150" filterUnits="userSpaceOnUse" color-interpolation-filters="sRGB">
<feFlood flood-opacity="0" result="BackgroundImageFix"/>
<feBlend mode="normal" in="SourceGraphic" in2="BackgroundImageFix" result="shape"/>
<feTurbulence type="fractalNoise" baseFrequency="0.0099999997764825821 0.0099999997764825821" stitchTiles="stitch" numOctaves="3" result="noise" seed="3850" />
<feComponentTransfer in="noise" result="coloredNoise1">
<feFuncR type="linear" slope="2" intercept="-0.5" />
<feFuncG type="linear" slope="2" intercept="-0.5" />
<feFuncB type="linear" slope="2" intercept="-0.5" />
<feFuncA type="discrete" tableValues="1 1 1 1 1 1 1 1 1 1 1 1 1 1 1 1 1 1 1 1 1 1 1 1 1 1 1 1 1 1 1 1 1 1 1 1 1 1 1 1 1 1 1 1 1 1 1 1 1 1 1 0 0 0 0 0 0 0 0 0 0 0 0 0 0 0 0 0 0 0 0 0 0 0 0 0 0 0 0 0 0 0 0 0 0 0 0 0 0 0 0 0 0 0 0 0 0 0 0 0 "/>
</feComponentTransfer>
<feComposite operator="in" in2="shape" in="coloredNoise1" result="noise1Clipped" />
<feComponentTransfer in="noise1Clipped" result="color1">
<feFuncA type="table" tableValues="0 0.15" />
</feComponentTransfer>
<feMerge result="effect1_noise_283_580">
<feMergeNode in="shape" />
<feMergeNode in="color1" />
</feMerge>
</filter>
<linearGradient id="paint0_linear_283_580" x1="282" y1="0" x2="282" y2="383" gradientUnits="userSpaceOnUse">
<stop stop-color="#B894B3"/>
<stop offset="1" stop-color="#9B7B96"/>
</linearGradient>
<radialGradient id="paint1_radial_283_580" cx="0" cy="0" r="1" gradientUnits="userSpaceOnUse" gradientTransform="translate(222.625 92.95) rotate(136.081) scale(86.2117)">
<stop stop-color="#BFBFBF"/>
<stop offset="1" stop-color="#6F6F6F"/>
</radialGradient>
<linearGradient id="paint2_linear_283_580" x1="202" y1="37" x2="202" y2="187" gradientUnits="userSpaceOnUse">
<stop stop-color="#F9F8F8"/>
<stop offset="1" stop-color="#E6F4FF"/>
</linearGradient>
<radialGradient id="paint3_radial_283_580" cx="0" cy="0" r="1" gradientUnits="userSpaceOnUse" gradientTransform="translate(387.25 87.5) rotate(136.081) scale(112.45)">
<stop stop-color="#C62DEC"/>
<stop offset="1" stop-color="#710F8A"/>
</radialGradient>
<linearGradient id="paint4_linear_283_580" x1="361" y1="37" x2="361" y2="187" gradientUnits="userSpaceOnUse">
<stop stop-color="#F9F8F8"/>
<stop offset="1" stop-color="#E6F4FF"/>
</linearGradient>
<radialGradient id="paint5_radial_283_580" cx="0" cy="0" r="1" gradientUnits="userSpaceOnUse" gradientTransform="translate(223 247.6) rotate(136.081) scale(89.96)">
<stop stop-color="#FFB151"/>
<stop offset="1" stop-color="#BD7115"/>
</radialGradient>
<linearGradient id="paint6_linear_283_580" x1="202" y1="197" x2="202" y2="347" gradientUnits="userSpaceOnUse">
<stop stop-color="#F9F8F8"/>
<stop offset="1" stop-color="#E6F4FF"/>
</linearGradient>
<radialGradient id="paint7_radial_283_580" cx="0" cy="0" r="1" gradientUnits="userSpaceOnUse" gradientTransform="translate(383 250.6) rotate(136.081) scale(89.96)">
<stop stop-color="#BFBFBF"/>
<stop offset="1" stop-color="#6F6F6F"/>
</radialGradient>
<linearGradient id="paint8_linear_283_580" x1="361" y1="197" x2="361" y2="347" gradientUnits="userSpaceOnUse">
<stop stop-color="#F9F8F8"/>
<stop offset="1" stop-color="#E6F4FF"/>
</linearGradient>
</defs>
</svg>
