<svg width="1097" height="601" viewBox="0 0 1097 601" fill="none" xmlns="http://www.w3.org/2000/svg">
<rect x="5" y="5" width="1087" height="591" fill="white" stroke="white" stroke-width="10"/>
<g clip-path="url(#clip0_780_200)">
<path d="M1085 10H970V125H1085V10Z" fill="#0077CC"/>
<path d="M1033.76 26.1001C1036.94 26.1001 1039.51 28.6745 1039.51 31.8501V64.6869L1059.97 100.592C1062.15 104.425 1059.38 109.188 1054.97 109.188H1001.06C996.646 109.187 993.878 104.425 996.061 100.592L1016.51 64.6869V31.8501C1016.51 28.6745 1019.09 26.1002 1022.26 26.1001H1033.76Z" fill="#0077CC"/>
<path d="M1039.51 64.6869H1036.64V65.4483L1037.02 66.1099L1039.51 64.6869ZM1016.51 64.6869L1019.01 66.1099L1019.39 65.4483V64.6869H1016.51ZM1033.76 26.1001V28.9751C1035.35 28.9751 1036.64 30.2623 1036.64 31.8501H1039.51H1042.39C1042.39 27.0867 1038.53 23.2251 1033.76 23.2251V26.1001ZM1039.51 31.8501H1036.64V64.6869H1039.51H1042.39V31.8501H1039.51ZM1039.51 64.6869L1037.02 66.1099L1057.47 102.015L1059.97 100.592L1062.47 99.1689L1042.01 63.2638L1039.51 64.6869ZM1059.97 100.592L1057.47 102.015C1058.56 103.931 1057.18 106.313 1054.97 106.313V109.188V112.063C1061.59 112.063 1065.74 104.919 1062.47 99.1689L1059.97 100.592ZM1054.97 109.188V106.313H1001.06V109.188L1001.06 112.063H1054.97V109.188ZM1001.06 109.188V106.313C998.852 106.312 997.468 103.931 998.56 102.015L996.061 100.592L993.563 99.1688C990.289 104.919 994.441 112.062 1001.06 112.063L1001.06 109.188ZM996.061 100.592L998.56 102.015L1019.01 66.1099L1016.51 64.6869L1014.02 63.2638L993.563 99.1688L996.061 100.592ZM1016.51 64.6869H1019.39V31.8501H1016.51H1013.64V64.6869H1016.51ZM1016.51 31.8501H1019.39C1019.39 30.2624 1020.68 28.9751 1022.26 28.9751L1022.26 26.1001V23.2251C1017.5 23.2252 1013.64 27.0866 1013.64 31.8501H1016.51ZM1022.26 26.1001L1022.26 28.9751H1033.76V26.1001V23.2251H1022.26V26.1001Z" fill="white"/>
<path d="M1036.93 66.9258C1037.12 66.9258 1037.31 66.9375 1037.5 66.9561L1057.47 102.015C1058.56 103.932 1057.18 106.313 1054.97 106.313H1001.06C998.854 106.313 997.469 103.932 998.561 102.015L1018.55 66.9258H1036.93Z" fill="white"/>
<mask id="mask0_780_200" style="mask-type:luminance" maskUnits="userSpaceOnUse" x="998" y="66" width="60" height="41">
<path d="M1036.93 66.9258C1037.12 66.9258 1037.31 66.9375 1037.5 66.9561L1057.47 102.015C1058.56 103.932 1057.18 106.313 1054.97 106.313H1001.06C998.854 106.313 997.469 103.932 998.561 102.015L1018.55 66.9258H1036.93Z" fill="white"/>
</mask>
<g mask="url(#mask0_780_200)">
<path d="M1037.5 66.9559L1040.5 65.2483L1039.61 63.6982L1037.84 63.5226L1037.5 66.9559ZM1018.55 66.9256V63.4756H1016.54L1015.55 65.2179L1018.55 66.9256ZM1036.93 66.9256V70.3756C1036.98 70.3756 1037.05 70.3787 1037.16 70.3892L1037.5 66.9559L1037.84 63.5226C1037.57 63.4961 1037.26 63.4756 1036.93 63.4756V66.9256ZM1037.5 66.9559L1034.5 68.6636L1054.47 103.723L1057.47 102.015L1060.47 100.308L1040.5 65.2483L1037.5 66.9559ZM1057.47 102.015L1054.47 103.723C1054.25 103.339 1054.53 102.863 1054.97 102.863L1054.97 106.313V109.763C1059.82 109.763 1062.87 104.525 1060.47 100.308L1057.47 102.015ZM1054.97 106.313L1054.97 102.863H1001.06V106.313L1001.06 109.763H1054.97V106.313ZM1001.06 106.313V102.863C1001.5 102.863 1001.78 103.339 1001.56 103.723L998.561 102.015L995.564 100.308C993.162 104.524 996.207 109.762 1001.06 109.763L1001.06 106.313ZM998.561 102.015L1001.56 103.723L1021.55 68.6332L1018.55 66.9256L1015.55 65.2179L995.564 100.308L998.561 102.015ZM1018.55 66.9256V70.3756H1036.93V66.9256V63.4756H1018.55V66.9256Z" fill="#0077CC"/>
</g>
</g>
<path d="M548.075 45V23.8875H540.425V18.825H561.913V23.8875H554.263V45H548.075ZM579.665 45V32.175C579.665 31.075 579.39 30.2 578.84 29.55C578.29 28.9 577.565 28.575 576.665 28.575C575.64 28.575 574.69 28.925 573.815 29.625C572.965 30.3 572.065 31.475 571.115 33.15L570.29 28.2375C571.24 26.5875 572.39 25.425 573.74 24.75C575.09 24.05 576.465 23.7 577.865 23.7C579.465 23.7 580.827 24.0375 581.952 24.7125C583.102 25.3875 583.977 26.3375 584.577 27.5625C585.202 28.7625 585.515 30.175 585.515 31.8V45H579.665ZM565.752 45V17.2125H571.602V45H565.752ZM600.154 45.45C597.904 45.45 595.967 45.0125 594.342 44.1375C592.742 43.2625 591.504 42.0125 590.629 40.3875C589.754 38.7625 589.317 36.825 589.317 34.575C589.317 32.3 589.754 30.35 590.629 28.725C591.504 27.1 592.767 25.8625 594.417 25.0125C596.092 24.1375 598.104 23.7 600.454 23.7C604.129 23.7 606.792 24.75 608.442 26.85C610.117 28.925 610.817 31.7875 610.542 35.4375H593.967L594.004 31.425H604.579C604.504 30.475 604.079 29.7125 603.304 29.1375C602.529 28.5375 601.567 28.2375 600.417 28.2375C598.617 28.2375 597.292 28.8 596.442 29.925C595.592 31.05 595.167 32.6875 595.167 34.8375C595.167 35.9125 595.354 36.9 595.729 37.8C596.104 38.7 596.654 39.425 597.379 39.975C598.129 40.5 599.054 40.7625 600.154 40.7625C601.329 40.7625 602.317 40.475 603.117 39.9C603.942 39.325 604.442 38.6 604.617 37.725H610.467C610.217 40.1 609.167 41.9875 607.317 43.3875C605.492 44.7625 603.104 45.45 600.154 45.45ZM648.896 45.45C646.746 45.45 644.896 45.05 643.346 44.25C641.821 43.425 640.646 42.275 639.821 40.8C639.021 39.3 638.621 37.5375 638.621 35.5125H644.696C644.696 37.0875 645.034 38.3 645.709 39.15C646.409 39.975 647.471 40.3875 648.896 40.3875C650.021 40.3875 650.909 40.15 651.559 39.675C652.234 39.175 652.571 38.475 652.571 37.575C652.571 36.9 652.321 36.375 651.821 36C651.346 35.6 650.696 35.275 649.871 35.025C649.071 34.75 648.184 34.5 647.209 34.275C646.259 34.025 645.296 33.725 644.321 33.375C643.371 33.025 642.484 32.5625 641.659 31.9875C640.859 31.4125 640.209 30.6625 639.709 29.7375C639.234 28.8125 638.996 27.6375 638.996 26.2125C638.996 24.7375 639.396 23.4125 640.196 22.2375C641.021 21.0625 642.159 20.125 643.609 19.425C645.059 18.725 646.759 18.375 648.709 18.375C650.484 18.375 652.134 18.725 653.659 19.425C655.184 20.1 656.421 21.0875 657.371 22.3875C658.321 23.6875 658.821 25.2875 658.871 27.1875H652.684C652.634 26.3375 652.409 25.6375 652.009 25.0875C651.634 24.5375 651.146 24.125 650.546 23.85C649.971 23.575 649.359 23.4375 648.709 23.4375C647.784 23.4375 646.996 23.6625 646.346 24.1125C645.696 24.5375 645.371 25.175 645.371 26.025C645.371 26.675 645.609 27.1875 646.084 27.5625C646.584 27.9375 647.234 28.25 648.034 28.5C648.859 28.725 649.746 28.95 650.696 29.175C651.671 29.4 652.634 29.6875 653.584 30.0375C654.559 30.3625 655.446 30.825 656.246 31.425C657.071 32.025 657.721 32.825 658.196 33.825C658.696 34.8 658.946 36.05 658.946 37.575C658.946 39.1 658.509 40.4625 657.634 41.6625C656.784 42.8375 655.596 43.7625 654.071 44.4375C652.571 45.1125 650.846 45.45 648.896 45.45ZM673.436 45.45C671.236 45.45 669.336 45.0125 667.736 44.1375C666.161 43.2625 664.948 42.0125 664.098 40.3875C663.273 38.7625 662.861 36.825 662.861 34.575C662.861 32.275 663.298 30.3125 664.173 28.6875C665.073 27.0625 666.323 25.825 667.923 24.975C669.523 24.125 671.411 23.7 673.586 23.7C675.486 23.7 677.161 24.0375 678.611 24.7125C680.086 25.3875 681.248 26.3375 682.098 27.5625C682.973 28.7625 683.448 30.2 683.523 31.875H677.673C677.473 30.725 677.023 29.875 676.323 29.325C675.648 28.75 674.736 28.4625 673.586 28.4625C672.636 28.4625 671.786 28.7 671.036 29.175C670.311 29.65 669.736 30.3375 669.311 31.2375C668.911 32.1375 668.711 33.25 668.711 34.575C668.711 36.55 669.161 38.075 670.061 39.15C670.986 40.225 672.111 40.7625 673.436 40.7625C674.211 40.7625 674.886 40.625 675.461 40.35C676.061 40.075 676.561 39.6875 676.961 39.1875C677.361 38.6625 677.636 38.075 677.786 37.425H683.636C683.486 39.05 682.961 40.4625 682.061 41.6625C681.161 42.8625 679.973 43.8 678.498 44.475C677.023 45.125 675.336 45.45 673.436 45.45ZM694.6 45V24.15H700.45V45H694.6ZM687.85 45V40.275H707.275V45H687.85ZM690.475 28.875V24.15H697.525V28.875H690.475ZM694.375 21.375V15.9H700.6V21.375H694.375ZM722.103 45.45C719.853 45.45 717.915 45.0125 716.29 44.1375C714.69 43.2625 713.453 42.0125 712.578 40.3875C711.703 38.7625 711.265 36.825 711.265 34.575C711.265 32.3 711.703 30.35 712.578 28.725C713.453 27.1 714.715 25.8625 716.365 25.0125C718.04 24.1375 720.053 23.7 722.403 23.7C726.078 23.7 728.74 24.75 730.39 26.85C732.065 28.925 732.765 31.7875 732.49 35.4375H715.915L715.953 31.425H726.528C726.453 30.475 726.028 29.7125 725.253 29.1375C724.478 28.5375 723.515 28.2375 722.365 28.2375C720.565 28.2375 719.24 28.8 718.39 29.925C717.54 31.05 717.115 32.6875 717.115 34.8375C717.115 35.9125 717.303 36.9 717.678 37.8C718.053 38.7 718.603 39.425 719.328 39.975C720.078 40.5 721.003 40.7625 722.103 40.7625C723.278 40.7625 724.265 40.475 725.065 39.9C725.89 39.325 726.39 38.6 726.565 37.725H732.415C732.165 40.1 731.115 41.9875 729.265 43.3875C727.44 44.7625 725.053 45.45 722.103 45.45ZM750.392 45V32.1375C750.392 31.0625 750.117 30.2 749.567 29.55C749.017 28.9 748.292 28.575 747.392 28.575C746.367 28.575 745.417 28.925 744.542 29.625C743.692 30.3 742.792 31.475 741.842 33.15L741.017 28.2C741.967 26.575 743.117 25.425 744.467 24.75C745.817 24.05 747.192 23.7 748.592 23.7C750.192 23.7 751.555 24.0375 752.68 24.7125C753.83 25.3875 754.705 26.325 755.305 27.525C755.93 28.725 756.242 30.1375 756.242 31.7625V45H750.392ZM736.48 45V24.15H742.142L742.33 27.8625V45H736.48ZM770.994 45.45C768.794 45.45 766.894 45.0125 765.294 44.1375C763.719 43.2625 762.507 42.0125 761.657 40.3875C760.832 38.7625 760.419 36.825 760.419 34.575C760.419 32.275 760.857 30.3125 761.732 28.6875C762.632 27.0625 763.882 25.825 765.482 24.975C767.082 24.125 768.969 23.7 771.144 23.7C773.044 23.7 774.719 24.0375 776.169 24.7125C777.644 25.3875 778.807 26.3375 779.657 27.5625C780.532 28.7625 781.007 30.2 781.082 31.875H775.232C775.032 30.725 774.582 29.875 773.882 29.325C773.207 28.75 772.294 28.4625 771.144 28.4625C770.194 28.4625 769.344 28.7 768.594 29.175C767.869 29.65 767.294 30.3375 766.869 31.2375C766.469 32.1375 766.269 33.25 766.269 34.575C766.269 36.55 766.719 38.075 767.619 39.15C768.544 40.225 769.669 40.7625 770.994 40.7625C771.769 40.7625 772.444 40.625 773.019 40.35C773.619 40.075 774.119 39.6875 774.519 39.1875C774.919 38.6625 775.194 38.075 775.344 37.425H781.194C781.044 39.05 780.519 40.4625 779.619 41.6625C778.719 42.8625 777.532 43.8 776.057 44.475C774.582 45.125 772.894 45.45 770.994 45.45ZM795.271 45.45C793.021 45.45 791.084 45.0125 789.459 44.1375C787.859 43.2625 786.621 42.0125 785.746 40.3875C784.871 38.7625 784.434 36.825 784.434 34.575C784.434 32.3 784.871 30.35 785.746 28.725C786.621 27.1 787.884 25.8625 789.534 25.0125C791.209 24.1375 793.221 23.7 795.571 23.7C799.246 23.7 801.909 24.75 803.559 26.85C805.234 28.925 805.934 31.7875 805.659 35.4375H789.084L789.121 31.425H799.696C799.621 30.475 799.196 29.7125 798.421 29.1375C797.646 28.5375 796.684 28.2375 795.534 28.2375C793.734 28.2375 792.409 28.8 791.559 29.925C790.709 31.05 790.284 32.6875 790.284 34.8375C790.284 35.9125 790.471 36.9 790.846 37.8C791.221 38.7 791.771 39.425 792.496 39.975C793.246 40.5 794.171 40.7625 795.271 40.7625C796.446 40.7625 797.434 40.475 798.234 39.9C799.059 39.325 799.559 38.6 799.734 37.725H805.584C805.334 40.1 804.284 41.9875 802.434 43.3875C800.609 44.7625 798.221 45.45 795.271 45.45ZM838.351 36.7875V31.725H844.313C845.513 31.725 846.476 31.3625 847.201 30.6375C847.926 29.8875 848.288 28.9125 848.288 27.7125C848.288 26.5625 847.926 25.6375 847.201 24.9375C846.476 24.2375 845.513 23.8875 844.313 23.8875H838.351V18.825H844.351C846.426 18.825 848.238 19.1875 849.788 19.9125C851.338 20.6375 852.538 21.675 853.388 23.025C854.238 24.35 854.663 25.9125 854.663 27.7125C854.663 29.5375 854.238 31.1375 853.388 32.5125C852.538 33.8625 851.338 34.9125 849.788 35.6625C848.263 36.4125 846.451 36.7875 844.351 36.7875H838.351ZM833.926 45V18.825H840.113V45H833.926ZM872.715 34.575V31.7625C872.715 30.8125 872.465 30.05 871.965 29.475C871.465 28.875 870.715 28.575 869.715 28.575C868.59 28.575 867.528 28.95 866.528 29.7C865.528 30.45 864.578 31.75 863.678 33.6L863.078 28.6875C863.728 27.5875 864.44 26.675 865.215 25.95C865.99 25.2 866.84 24.6375 867.765 24.2625C868.715 23.8875 869.753 23.7 870.878 23.7C873.103 23.7 874.94 24.3875 876.39 25.7625C877.84 27.1125 878.565 29.1125 878.565 31.7625V34.575H872.715ZM858.803 45V24.15H864.428L864.653 27.9V45H858.803ZM892.83 45.45C890.58 45.45 888.643 45.0125 887.018 44.1375C885.418 43.2625 884.18 42.0125 883.305 40.3875C882.43 38.7625 881.993 36.825 881.993 34.575C881.993 32.3 882.43 30.35 883.305 28.725C884.18 27.1 885.443 25.8625 887.093 25.0125C888.768 24.1375 890.78 23.7 893.13 23.7C896.805 23.7 899.468 24.75 901.118 26.85C902.793 28.925 903.493 31.7875 903.218 35.4375H886.643L886.68 31.425H897.255C897.18 30.475 896.755 29.7125 895.98 29.1375C895.205 28.5375 894.243 28.2375 893.093 28.2375C891.293 28.2375 889.968 28.8 889.118 29.925C888.268 31.05 887.843 32.6875 887.843 34.8375C887.843 35.9125 888.03 36.9 888.405 37.8C888.78 38.7 889.33 39.425 890.055 39.975C890.805 40.5 891.73 40.7625 892.83 40.7625C894.005 40.7625 894.993 40.475 895.793 39.9C896.618 39.325 897.118 38.6 897.293 37.725H903.143C902.893 40.1 901.843 41.9875 899.993 43.3875C898.168 44.7625 895.78 45.45 892.83 45.45ZM917.557 45.45C915.607 45.45 913.895 45.1375 912.42 44.5125C910.945 43.8625 909.795 42.95 908.97 41.775C908.17 40.575 907.757 39.1625 907.732 37.5375H913.17C913.12 38.6875 913.482 39.5875 914.257 40.2375C915.057 40.8875 916.145 41.2125 917.52 41.2125C918.52 41.2125 919.32 41.05 919.92 40.725C920.545 40.375 920.857 39.9 920.857 39.3C920.857 38.775 920.62 38.3625 920.145 38.0625C919.695 37.7375 919.095 37.4875 918.345 37.3125C917.595 37.1125 916.77 36.925 915.87 36.75C914.97 36.55 914.057 36.3125 913.132 36.0375C912.232 35.7625 911.407 35.4 910.657 34.95C909.907 34.475 909.295 33.8625 908.82 33.1125C908.37 32.3375 908.145 31.375 908.145 30.225C908.145 28.9 908.52 27.75 909.27 26.775C910.02 25.8 911.057 25.05 912.382 24.525C913.732 23.975 915.282 23.7 917.032 23.7C919.707 23.7 921.87 24.325 923.52 25.575C925.195 26.8 926.12 28.525 926.295 30.75H920.895C920.845 29.825 920.47 29.125 919.77 28.65C919.07 28.175 918.17 27.9375 917.07 27.9375C916.145 27.9375 915.407 28.1 914.857 28.425C914.307 28.75 914.032 29.2375 914.032 29.8875C914.032 30.4125 914.257 30.825 914.707 31.125C915.182 31.4 915.795 31.625 916.545 31.8C917.295 31.975 918.12 32.1375 919.02 32.2875C919.945 32.4375 920.857 32.65 921.757 32.925C922.657 33.175 923.482 33.525 924.232 33.975C924.982 34.425 925.582 35.025 926.032 35.775C926.507 36.525 926.745 37.4875 926.745 38.6625C926.745 40.7875 925.907 42.45 924.232 43.65C922.582 44.85 920.357 45.45 917.557 45.45ZM941.947 45.45C939.997 45.45 938.284 45.1375 936.809 44.5125C935.334 43.8625 934.184 42.95 933.359 41.775C932.559 40.575 932.147 39.1625 932.122 37.5375H937.559C937.509 38.6875 937.872 39.5875 938.647 40.2375C939.447 40.8875 940.534 41.2125 941.909 41.2125C942.909 41.2125 943.709 41.05 944.309 40.725C944.934 40.375 945.247 39.9 945.247 39.3C945.247 38.775 945.009 38.3625 944.534 38.0625C944.084 37.7375 943.484 37.4875 942.734 37.3125C941.984 37.1125 941.159 36.925 940.259 36.75C939.359 36.55 938.447 36.3125 937.522 36.0375C936.622 35.7625 935.797 35.4 935.047 34.95C934.297 34.475 933.684 33.8625 933.209 33.1125C932.759 32.3375 932.534 31.375 932.534 30.225C932.534 28.9 932.909 27.75 933.659 26.775C934.409 25.8 935.447 25.05 936.772 24.525C938.122 23.975 939.672 23.7 941.422 23.7C944.097 23.7 946.259 24.325 947.909 25.575C949.584 26.8 950.509 28.525 950.684 30.75H945.284C945.234 29.825 944.859 29.125 944.159 28.65C943.459 28.175 942.559 27.9375 941.459 27.9375C940.534 27.9375 939.797 28.1 939.247 28.425C938.697 28.75 938.422 29.2375 938.422 29.8875C938.422 30.4125 938.647 30.825 939.097 31.125C939.572 31.4 940.184 31.625 940.934 31.8C941.684 31.975 942.509 32.1375 943.409 32.2875C944.334 32.4375 945.247 32.65 946.147 32.925C947.047 33.175 947.872 33.525 948.622 33.975C949.372 34.425 949.972 35.025 950.422 35.775C950.897 36.525 951.134 37.4875 951.134 38.6625C951.134 40.7875 950.297 42.45 948.622 43.65C946.972 44.85 944.747 45.45 941.947 45.45Z" fill="#0077CC"/>
<path d="M667.777 456.944H737.26H754.891C760.665 456.944 764.631 457.727 768.401 453.442C769.879 451.761 770.423 447.457 769.822 445.672C768.563 441.933 765.552 438.571 761.658 436.311C754.133 431.945 746.636 429.452 739.111 426.951L739.111 426.951C731.586 424.449 724.578 420.884 716.563 417.89C709.038 415.079 701.417 412.93 694.016 410.085C685.852 406.946 657.751 398.575 641.406 392.91C633.242 390.08 623.585 385.324 611.616 381.965C593.784 376.962 581.962 374.475 564.351 365.718C554.327 360.733 539.025 355.216 525.213 349.798C514.869 345.741 505.375 339.585 482.289 336.062C467.858 333.86 453.738 330.127 431.557 322.307C416.488 316.994 402.105 306.325 371.018 306.078C334.492 305.788 314.863 306.079 296.529 311.002C279.233 315.647 254.451 328.548 248.28 349.798C243.921 364.809 246.4 387.549 252.139 394.733C260.679 405.424 268.964 419.465 279.467 427.307C290.75 435.73 299.867 444.174 319.582 450.722C328.949 453.833 337.756 456.305 409.433 456.635C476.765 456.944 603.254 456.944 667.777 456.944Z" fill="#6B6B6B"/>
<path d="M14.2502 371.697C17.6916 371.697 21.133 371.697 43.2673 371.697C65.4017 371.697 106.125 371.697 128.537 371.124C158.755 370.35 165.428 363.598 172.962 358.974C183.938 352.239 192.646 344.514 206.255 334.363C218.441 325.275 233.212 318.408 251.697 308.883C279.747 294.43 300.406 289.452 311.99 286.254C325.768 282.45 336.315 281.908 346.474 281.031C352.004 280.553 373.266 279.579 413.98 282.16C436.444 283.585 462.151 289.904 477.455 293.423C505.382 299.846 518.812 307.354 528.684 311.143C542.423 316.416 559.97 321.849 567.217 324.761C569.251 325.343 571.545 325.916 573.874 326.499C576.203 327.081 578.497 327.654 582.599 326.507" stroke="#BD2915" stroke-width="4" stroke-linecap="round"/>
<path d="M577.966 315.493C583.29 317.427 587.16 318.882 594.546 322.388C598.847 324.429 602.434 327.363 604.511 330.029C604.967 330.614 604.398 331.48 602.954 332.211C595.19 334.884 591.8 336.339 585.145 339.724C583.552 340.463 582.592 340.703 581.603 340.95" stroke="#BD2915" stroke-width="4" stroke-linecap="round"/>
<path d="M9 310.577C9.95828 310.577 37.2839 308.181 79.6153 304.072C98.5681 302.232 105.278 299.934 117.787 297.291C141.998 292.177 164.765 284.471 178.297 279.636C187.835 276.228 199.611 272.855 221.289 265.625C235.208 260.982 255.424 255.519 275.134 251.359C313.247 243.316 336.617 242.335 344.102 242.096C358.44 241.637 370.012 239.925 382.099 239.192C388.883 238.78 408.125 238.459 442.863 241.101C483.674 244.206 508.44 251.526 513.994 252.731C523.737 254.846 531.177 256.855 544.717 259.505C552.339 260.996 557.806 265.073 568.681 268.216C573.284 269.429 577.175 270.401 581.277 271.127C583.462 271.374 585.858 271.374 591.23 272.826" stroke="#BD2915" stroke-width="4" stroke-linecap="round"/>
<path d="M588.326 258.307C595.092 269.908 598.954 275.701 601.386 281.516C601.979 282.935 602.352 284.413 601.64 285.393C600.929 286.373 599.012 286.852 594.91 287.099C590.809 287.346 584.58 287.346 578.162 287.346" stroke="#BD2915" stroke-width="4" stroke-linecap="round"/>
<path d="M10.4519 272.826C19.5556 272.826 28.6593 272.826 48.442 272.347C68.2248 271.868 98.4107 270.91 130.012 266.822C161.614 262.735 193.716 255.548 212.41 251.127C235.513 245.663 244.171 242.829 259.33 238.502C308.08 224.587 313.894 221.529 326.613 218.887C337.86 216.55 358.977 212.89 393.076 210.676C427.175 208.462 473.651 207.982 499.271 207.975C524.89 207.968 528.244 208.447 537.399 208.694C546.553 208.941 561.407 208.941 575.287 210.857C601.993 214.545 623.085 223.91 636.872 229.471C647.089 233.593 653.634 236.992 659.689 240.629C661.388 241.363 663.304 241.842 665.01 242.568C666.716 243.294 668.154 244.252 673.991 245.239" stroke="#BD2915" stroke-width="4" stroke-linecap="round"/>
<path d="M646.404 253.951C647.362 253.951 662.23 253.951 684.009 252.514C691.536 252.017 691.414 248.201 691.175 246.002C690.456 242.364 689.483 238.488 688.517 233.9C688.031 231.707 687.552 229.791 687.058 224.912" stroke="#BD2915" stroke-width="4" stroke-linecap="round"/>
<path d="M651.856 321V302.818H655.15V310.515H663.575V302.818H666.877V321H663.575V313.276H655.15V321H651.856ZM670.317 321V307.364H673.531V321H670.317ZM671.933 305.428C671.424 305.428 670.986 305.26 670.619 304.922C670.252 304.579 670.069 304.168 670.069 303.688C670.069 303.203 670.252 302.792 670.619 302.454C670.986 302.111 671.424 301.939 671.933 301.939C672.448 301.939 672.886 302.111 673.247 302.454C673.614 302.792 673.797 303.203 673.797 303.688C673.797 304.168 673.614 304.579 673.247 304.922C672.886 305.26 672.448 305.428 671.933 305.428ZM682.766 326.398C681.612 326.398 680.621 326.241 679.792 325.927C678.964 325.619 678.298 325.205 677.795 324.684C677.292 324.163 676.942 323.586 676.747 322.953L679.641 322.252C679.771 322.518 679.961 322.781 680.209 323.042C680.458 323.308 680.792 323.527 681.213 323.699C681.639 323.876 682.174 323.965 682.82 323.965C683.731 323.965 684.486 323.743 685.083 323.299C685.681 322.861 685.98 322.139 685.98 321.133V318.55H685.82C685.655 318.881 685.412 319.221 685.092 319.571C684.779 319.92 684.361 320.213 683.84 320.45C683.326 320.686 682.677 320.805 681.896 320.805C680.849 320.805 679.899 320.559 679.046 320.068C678.2 319.571 677.525 318.831 677.022 317.848C676.525 316.86 676.277 315.623 676.277 314.137C676.277 312.64 676.525 311.376 677.022 310.347C677.525 309.311 678.203 308.527 679.055 307.994C679.908 307.455 680.858 307.186 681.905 307.186C682.704 307.186 683.361 307.322 683.876 307.594C684.397 307.861 684.811 308.183 685.119 308.562C685.427 308.935 685.66 309.287 685.82 309.619H685.998V307.364H689.167V321.222C689.167 322.388 688.889 323.353 688.333 324.116C687.776 324.88 687.016 325.451 686.051 325.83C685.086 326.208 683.991 326.398 682.766 326.398ZM682.793 318.283C683.474 318.283 684.054 318.118 684.533 317.786C685.012 317.455 685.376 316.978 685.625 316.357C685.873 315.735 685.998 314.99 685.998 314.12C685.998 313.261 685.873 312.51 685.625 311.865C685.382 311.22 685.021 310.719 684.542 310.364C684.068 310.003 683.485 309.823 682.793 309.823C682.077 309.823 681.479 310.009 681 310.382C680.52 310.755 680.159 311.267 679.916 311.918C679.674 312.563 679.552 313.297 679.552 314.12C679.552 314.954 679.674 315.685 679.916 316.312C680.165 316.934 680.529 317.419 681.008 317.768C681.494 318.112 682.089 318.283 682.793 318.283ZM695.675 313.01V321H692.461V302.818H695.604V309.681H695.763C696.083 308.911 696.577 308.305 697.246 307.861C697.921 307.411 698.779 307.186 699.821 307.186C700.768 307.186 701.593 307.384 702.297 307.781C703.002 308.177 703.546 308.757 703.931 309.521C704.322 310.284 704.517 311.217 704.517 312.317V321H701.303V312.815C701.303 311.897 701.066 311.184 700.593 310.675C700.125 310.16 699.468 309.903 698.622 309.903C698.054 309.903 697.545 310.027 697.095 310.276C696.651 310.518 696.302 310.87 696.047 311.332C695.799 311.794 695.675 312.353 695.675 313.01ZM713.83 321.266C712.463 321.266 711.282 320.982 710.288 320.414C709.299 319.84 708.539 319.029 708.006 317.982C707.473 316.928 707.207 315.688 707.207 314.262C707.207 312.859 707.473 311.628 708.006 310.569C708.545 309.503 709.296 308.675 710.261 308.083C711.226 307.485 712.359 307.186 713.661 307.186C714.502 307.186 715.295 307.322 716.04 307.594C716.792 307.861 717.455 308.275 718.029 308.837C718.609 309.4 719.065 310.116 719.396 310.986C719.728 311.85 719.893 312.88 719.893 314.075V315.061H708.716V312.895H716.813C716.807 312.279 716.674 311.732 716.413 311.252C716.153 310.767 715.789 310.385 715.321 310.107C714.86 309.829 714.321 309.69 713.706 309.69C713.049 309.69 712.472 309.849 711.974 310.169C711.477 310.483 711.09 310.897 710.811 311.412C710.539 311.921 710.4 312.48 710.394 313.09V314.981C710.394 315.774 710.539 316.455 710.829 317.023C711.119 317.585 711.525 318.017 712.045 318.319C712.566 318.615 713.176 318.763 713.874 318.763C714.342 318.763 714.765 318.698 715.144 318.567C715.523 318.431 715.851 318.233 716.129 317.973C716.407 317.712 716.617 317.39 716.759 317.005L719.76 317.342C719.571 318.135 719.21 318.828 718.677 319.42C718.15 320.006 717.476 320.461 716.653 320.787C715.83 321.107 714.889 321.266 713.83 321.266ZM722.612 321V307.364H725.728V309.636H725.87C726.119 308.849 726.545 308.243 727.149 307.816C727.758 307.384 728.454 307.168 729.235 307.168C729.413 307.168 729.611 307.177 729.83 307.195C730.055 307.207 730.241 307.228 730.389 307.257V310.213C730.253 310.166 730.037 310.125 729.741 310.089C729.451 310.048 729.17 310.027 728.898 310.027C728.312 310.027 727.785 310.154 727.317 310.409C726.856 310.657 726.492 311.004 726.225 311.447C725.959 311.891 725.826 312.403 725.826 312.983V321H722.612ZM750.049 307.364C749.943 306.464 749.511 305.766 748.753 305.268C747.995 304.771 747.066 304.523 745.965 304.523C745.16 304.523 744.456 304.653 743.852 304.913C743.255 305.174 742.787 305.532 742.45 305.988C742.118 306.443 741.953 306.961 741.953 307.541C741.953 308.027 742.068 308.444 742.299 308.793C742.536 309.136 742.837 309.423 743.204 309.654C743.571 309.879 743.956 310.065 744.358 310.213C744.761 310.355 745.131 310.471 745.468 310.56L747.315 311.057C747.788 311.181 748.315 311.353 748.895 311.572C749.481 311.791 750.04 312.09 750.573 312.468C751.112 312.841 751.555 313.321 751.905 313.907C752.254 314.493 752.428 315.212 752.428 316.064C752.428 317.046 752.171 317.934 751.656 318.727C751.147 319.52 750.401 320.151 749.419 320.618C748.442 321.086 747.256 321.32 745.859 321.32C744.557 321.32 743.429 321.109 742.476 320.689C741.529 320.269 740.784 319.683 740.239 318.931C739.701 318.18 739.396 317.307 739.325 316.312H741.597C741.657 316.999 741.887 317.567 742.29 318.017C742.698 318.461 743.213 318.792 743.835 319.011C744.462 319.224 745.137 319.331 745.859 319.331C746.699 319.331 747.454 319.195 748.123 318.923C748.791 318.644 749.321 318.26 749.712 317.768C750.102 317.271 750.298 316.691 750.298 316.028C750.298 315.425 750.129 314.933 749.792 314.555C749.454 314.176 749.01 313.868 748.46 313.631C747.91 313.395 747.315 313.187 746.676 313.01L744.438 312.371C743.018 311.962 741.893 311.379 741.065 310.622C740.236 309.864 739.822 308.873 739.822 307.648C739.822 306.63 740.097 305.742 740.648 304.984C741.204 304.221 741.95 303.629 742.885 303.209C743.826 302.783 744.876 302.57 746.036 302.57C747.208 302.57 748.25 302.78 749.161 303.2C750.073 303.614 750.795 304.182 751.328 304.904C751.866 305.627 752.15 306.446 752.18 307.364H750.049ZM755.764 326.114V307.364H757.788V309.53H758.037C758.191 309.293 758.404 308.991 758.676 308.624C758.954 308.251 759.351 307.92 759.866 307.63C760.387 307.334 761.091 307.186 761.979 307.186C763.127 307.186 764.139 307.473 765.015 308.047C765.891 308.621 766.575 309.435 767.066 310.489C767.557 311.542 767.803 312.785 767.803 314.217C767.803 315.661 767.557 316.913 767.066 317.973C766.575 319.026 765.894 319.843 765.024 320.423C764.154 320.997 763.151 321.284 762.014 321.284C761.138 321.284 760.437 321.139 759.91 320.849C759.383 320.553 758.978 320.219 758.694 319.846C758.41 319.467 758.191 319.153 758.037 318.905H757.859V326.114H755.764ZM757.824 314.182C757.824 315.212 757.975 316.12 758.277 316.907C758.579 317.689 759.02 318.301 759.6 318.745C760.18 319.183 760.89 319.402 761.73 319.402C762.606 319.402 763.337 319.171 763.923 318.71C764.515 318.242 764.959 317.615 765.255 316.827C765.557 316.034 765.707 315.152 765.707 314.182C765.707 313.223 765.56 312.359 765.264 311.589C764.974 310.814 764.533 310.202 763.941 309.752C763.355 309.296 762.618 309.068 761.73 309.068C760.878 309.068 760.162 309.284 759.582 309.716C759.002 310.142 758.564 310.74 758.268 311.51C757.972 312.273 757.824 313.164 757.824 314.182ZM776.716 321.284C775.402 321.284 774.269 320.994 773.316 320.414C772.369 319.828 771.638 319.011 771.123 317.964C770.614 316.91 770.359 315.685 770.359 314.288C770.359 312.892 770.614 311.661 771.123 310.595C771.638 309.524 772.354 308.689 773.271 308.092C774.195 307.488 775.272 307.186 776.503 307.186C777.213 307.186 777.915 307.304 778.607 307.541C779.299 307.778 779.93 308.163 780.498 308.695C781.066 309.222 781.519 309.92 781.856 310.79C782.194 311.661 782.362 312.732 782.362 314.004V314.892H771.851V313.081H780.232C780.232 312.312 780.078 311.625 779.77 311.021C779.468 310.418 779.036 309.941 778.474 309.592C777.917 309.243 777.261 309.068 776.503 309.068C775.668 309.068 774.946 309.275 774.337 309.69C773.733 310.098 773.268 310.631 772.943 311.288C772.617 311.945 772.455 312.649 772.455 313.401V314.608C772.455 315.638 772.632 316.511 772.987 317.227C773.348 317.937 773.848 318.479 774.488 318.852C775.127 319.219 775.87 319.402 776.716 319.402C777.266 319.402 777.764 319.325 778.207 319.171C778.657 319.011 779.045 318.775 779.37 318.461C779.696 318.141 779.948 317.745 780.125 317.271L782.149 317.839C781.936 318.526 781.578 319.13 781.075 319.651C780.572 320.165 779.95 320.568 779.211 320.858C778.471 321.142 777.639 321.284 776.716 321.284ZM791.267 321.284C789.953 321.284 788.819 320.994 787.867 320.414C786.92 319.828 786.189 319.011 785.674 317.964C785.165 316.91 784.91 315.685 784.91 314.288C784.91 312.892 785.165 311.661 785.674 310.595C786.189 309.524 786.905 308.689 787.822 308.092C788.745 307.488 789.823 307.186 791.054 307.186C791.764 307.186 792.465 307.304 793.158 307.541C793.85 307.778 794.481 308.163 795.049 308.695C795.617 309.222 796.07 309.92 796.407 310.79C796.744 311.661 796.913 312.732 796.913 314.004V314.892H786.402V313.081H794.782C794.782 312.312 794.629 311.625 794.321 311.021C794.019 310.418 793.587 309.941 793.025 309.592C792.468 309.243 791.811 309.068 791.054 309.068C790.219 309.068 789.497 309.275 788.888 309.69C788.284 310.098 787.819 310.631 787.494 311.288C787.168 311.945 787.005 312.649 787.005 313.401V314.608C787.005 315.638 787.183 316.511 787.538 317.227C787.899 317.937 788.399 318.479 789.038 318.852C789.678 319.219 790.42 319.402 791.267 319.402C791.817 319.402 792.314 319.325 792.758 319.171C793.208 319.011 793.596 318.775 793.921 318.461C794.247 318.141 794.498 317.745 794.676 317.271L796.7 317.839C796.487 318.526 796.129 319.13 795.626 319.651C795.123 320.165 794.501 320.568 793.761 320.858C793.022 321.142 792.19 321.284 791.267 321.284ZM805.249 321.284C804.113 321.284 803.11 320.997 802.24 320.423C801.37 319.843 800.689 319.026 800.198 317.973C799.707 316.913 799.461 315.661 799.461 314.217C799.461 312.785 799.707 311.542 800.198 310.489C800.689 309.435 801.373 308.621 802.249 308.047C803.125 307.473 804.137 307.186 805.285 307.186C806.173 307.186 806.874 307.334 807.389 307.63C807.91 307.92 808.306 308.251 808.579 308.624C808.857 308.991 809.073 309.293 809.227 309.53H809.404V302.818H811.499V321H809.475V318.905H809.227C809.073 319.153 808.854 319.467 808.57 319.846C808.286 320.219 807.88 320.553 807.353 320.849C806.827 321.139 806.125 321.284 805.249 321.284ZM805.533 319.402C806.374 319.402 807.084 319.183 807.664 318.745C808.244 318.301 808.685 317.689 808.987 316.907C809.289 316.12 809.44 315.212 809.44 314.182C809.44 313.164 809.292 312.273 808.996 311.51C808.7 310.74 808.262 310.142 807.682 309.716C807.102 309.284 806.386 309.068 805.533 309.068C804.646 309.068 803.906 309.296 803.314 309.752C802.728 310.202 802.287 310.814 801.991 311.589C801.701 312.359 801.556 313.223 801.556 314.182C801.556 315.152 801.704 316.034 802 316.827C802.302 317.615 802.746 318.242 803.332 318.71C803.924 319.171 804.658 319.402 805.533 319.402ZM818.753 318.514L818.611 319.473C818.51 320.148 818.356 320.87 818.149 321.639C817.948 322.409 817.738 323.134 817.519 323.814C817.3 324.495 817.119 325.036 816.977 325.439H815.379C815.456 325.06 815.557 324.56 815.681 323.939C815.805 323.317 815.929 322.622 816.054 321.852C816.184 321.089 816.29 320.308 816.373 319.509L816.48 318.514H818.753ZM829.541 321V302.818H832.835V318.239H840.843V321H829.541ZM849.508 321.266C848.176 321.266 847.022 320.973 846.045 320.387C845.069 319.801 844.311 318.982 843.773 317.928C843.24 316.875 842.974 315.644 842.974 314.235C842.974 312.826 843.24 311.592 843.773 310.533C844.311 309.474 845.069 308.651 846.045 308.065C847.022 307.479 848.176 307.186 849.508 307.186C850.839 307.186 851.993 307.479 852.97 308.065C853.947 308.651 854.701 309.474 855.234 310.533C855.772 311.592 856.042 312.826 856.042 314.235C856.042 315.644 855.772 316.875 855.234 317.928C854.701 318.982 853.947 319.801 852.97 320.387C851.993 320.973 850.839 321.266 849.508 321.266ZM849.525 318.692C850.247 318.692 850.851 318.493 851.336 318.097C851.822 317.694 852.183 317.156 852.42 316.481C852.662 315.806 852.784 315.055 852.784 314.226C852.784 313.392 852.662 312.637 852.42 311.962C852.183 311.282 851.822 310.74 851.336 310.338C850.851 309.935 850.247 309.734 849.525 309.734C848.786 309.734 848.17 309.935 847.679 310.338C847.193 310.74 846.829 311.282 846.587 311.962C846.35 312.637 846.232 313.392 846.232 314.226C846.232 315.055 846.35 315.806 846.587 316.481C846.829 317.156 847.193 317.694 847.679 318.097C848.17 318.493 848.786 318.692 849.525 318.692ZM861.193 321L857.34 307.364H860.616L863.013 316.952H863.137L865.588 307.364H868.828L871.278 316.898H871.411L873.773 307.364H877.058L873.196 321H869.849L867.292 311.785H867.106L864.549 321H861.193ZM884.948 321.266C883.581 321.266 882.4 320.982 881.406 320.414C880.417 319.84 879.657 319.029 879.124 317.982C878.591 316.928 878.325 315.688 878.325 314.262C878.325 312.859 878.591 311.628 879.124 310.569C879.663 309.503 880.414 308.675 881.379 308.083C882.344 307.485 883.477 307.186 884.779 307.186C885.62 307.186 886.413 307.322 887.159 307.594C887.91 307.861 888.573 308.275 889.147 308.837C889.727 309.4 890.183 310.116 890.514 310.986C890.846 311.85 891.012 312.88 891.012 314.075V315.061H879.834V312.895H887.931C887.925 312.279 887.792 311.732 887.531 311.252C887.271 310.767 886.907 310.385 886.439 310.107C885.978 309.829 885.439 309.69 884.824 309.69C884.167 309.69 883.59 309.849 883.093 310.169C882.595 310.483 882.208 310.897 881.93 311.412C881.657 311.921 881.518 312.48 881.512 313.09V314.981C881.512 315.774 881.657 316.455 881.947 317.023C882.237 317.585 882.643 318.017 883.164 318.319C883.684 318.615 884.294 318.763 884.992 318.763C885.46 318.763 885.883 318.698 886.262 318.567C886.641 318.431 886.969 318.233 887.247 317.973C887.526 317.712 887.736 317.39 887.878 317.005L890.878 317.342C890.689 318.135 890.328 318.828 889.795 319.42C889.269 320.006 888.594 320.461 887.771 320.787C886.948 321.107 886.007 321.266 884.948 321.266ZM893.73 321V307.364H896.847V309.636H896.989C897.237 308.849 897.663 308.243 898.267 307.816C898.877 307.384 899.572 307.168 900.353 307.168C900.531 307.168 900.729 307.177 900.948 307.195C901.173 307.207 901.359 307.228 901.507 307.257V310.213C901.371 310.166 901.155 310.125 900.859 310.089C900.569 310.048 900.288 310.027 900.016 310.027C899.43 310.027 898.903 310.154 898.436 310.409C897.974 310.657 897.61 311.004 897.344 311.447C897.077 311.891 896.944 312.403 896.944 312.983V321H893.73ZM911.224 321V302.818H917.368C918.794 302.818 919.96 303.076 920.866 303.591C921.777 304.1 922.452 304.789 922.89 305.659C923.328 306.529 923.547 307.5 923.547 308.571C923.547 309.642 923.328 310.616 922.89 311.492C922.458 312.368 921.789 313.066 920.883 313.587C919.978 314.102 918.818 314.359 917.403 314.359H913V312.406H917.332C918.309 312.406 919.093 312.238 919.685 311.9C920.277 311.563 920.706 311.107 920.972 310.533C921.244 309.953 921.38 309.299 921.38 308.571C921.38 307.843 921.244 307.192 920.972 306.618C920.706 306.044 920.274 305.594 919.676 305.268C919.078 304.937 918.285 304.771 917.297 304.771H913.426V321H911.224ZM926.809 321V307.364H928.833V309.423H928.975C929.224 308.749 929.674 308.201 930.325 307.781C930.976 307.361 931.71 307.151 932.527 307.151C932.68 307.151 932.873 307.154 933.104 307.159C933.334 307.165 933.509 307.174 933.627 307.186V309.317C933.556 309.299 933.394 309.272 933.139 309.237C932.891 309.195 932.627 309.175 932.349 309.175C931.686 309.175 931.094 309.314 930.573 309.592C930.059 309.864 929.65 310.243 929.348 310.728C929.052 311.208 928.904 311.755 928.904 312.371V321H926.809ZM941.413 321.284C940.099 321.284 938.966 320.994 938.013 320.414C937.066 319.828 936.335 319.011 935.82 317.964C935.311 316.91 935.057 315.685 935.057 314.288C935.057 312.892 935.311 311.661 935.82 310.595C936.335 309.524 937.051 308.689 937.969 308.092C938.892 307.488 939.969 307.186 941.2 307.186C941.91 307.186 942.612 307.304 943.304 307.541C943.997 307.778 944.627 308.163 945.195 308.695C945.763 309.222 946.216 309.92 946.554 310.79C946.891 311.661 947.06 312.732 947.06 314.004V314.892H936.548V313.081H944.929C944.929 312.312 944.775 311.625 944.467 311.021C944.165 310.418 943.733 309.941 943.171 309.592C942.615 309.243 941.958 309.068 941.2 309.068C940.366 309.068 939.644 309.275 939.034 309.69C938.43 310.098 937.966 310.631 937.64 311.288C937.315 311.945 937.152 312.649 937.152 313.401V314.608C937.152 315.638 937.329 316.511 937.685 317.227C938.046 317.937 938.546 318.479 939.185 318.852C939.824 319.219 940.567 319.402 941.413 319.402C941.964 319.402 942.461 319.325 942.905 319.171C943.355 319.011 943.742 318.775 944.068 318.461C944.393 318.141 944.645 317.745 944.822 317.271L946.847 317.839C946.633 318.526 946.275 319.13 945.772 319.651C945.269 320.165 944.648 320.568 943.908 320.858C943.168 321.142 942.337 321.284 941.413 321.284ZM959.906 310.418L958.024 310.95C957.905 310.637 957.731 310.332 957.5 310.036C957.275 309.734 956.967 309.485 956.577 309.29C956.186 309.095 955.686 308.997 955.076 308.997C954.242 308.997 953.546 309.19 952.99 309.574C952.44 309.953 952.164 310.435 952.164 311.021C952.164 311.542 952.354 311.953 952.733 312.255C953.111 312.557 953.703 312.809 954.508 313.01L956.532 313.507C957.751 313.803 958.66 314.256 959.258 314.865C959.855 315.469 960.154 316.247 960.154 317.2C960.154 317.982 959.929 318.68 959.48 319.295C959.036 319.911 958.414 320.396 957.615 320.751C956.816 321.107 955.887 321.284 954.828 321.284C953.437 321.284 952.286 320.982 951.374 320.379C950.463 319.775 949.886 318.893 949.643 317.733L951.632 317.236C951.821 317.97 952.179 318.52 952.706 318.887C953.239 319.254 953.934 319.438 954.792 319.438C955.769 319.438 956.544 319.23 957.118 318.816C957.698 318.396 957.988 317.893 957.988 317.307C957.988 316.833 957.822 316.437 957.491 316.117C957.16 315.792 956.651 315.549 955.964 315.389L953.691 314.857C952.443 314.561 951.525 314.102 950.939 313.48C950.359 312.853 950.069 312.069 950.069 311.128C950.069 310.358 950.285 309.678 950.717 309.086C951.155 308.494 951.75 308.029 952.502 307.692C953.259 307.355 954.117 307.186 955.076 307.186C956.426 307.186 957.485 307.482 958.255 308.074C959.03 308.666 959.58 309.447 959.906 310.418ZM972.967 310.418L971.085 310.95C970.967 310.637 970.792 310.332 970.561 310.036C970.337 309.734 970.029 309.485 969.638 309.29C969.248 309.095 968.747 308.997 968.138 308.997C967.303 308.997 966.608 309.19 966.051 309.574C965.501 309.953 965.226 310.435 965.226 311.021C965.226 311.542 965.415 311.953 965.794 312.255C966.173 312.557 966.765 312.809 967.57 313.01L969.594 313.507C970.813 313.803 971.721 314.256 972.319 314.865C972.917 315.469 973.216 316.247 973.216 317.2C973.216 317.982 972.991 318.68 972.541 319.295C972.097 319.911 971.476 320.396 970.677 320.751C969.878 321.107 968.949 321.284 967.889 321.284C966.498 321.284 965.347 320.982 964.436 320.379C963.524 319.775 962.947 318.893 962.705 317.733L964.693 317.236C964.883 317.97 965.241 318.52 965.767 318.887C966.3 319.254 966.996 319.438 967.854 319.438C968.83 319.438 969.606 319.23 970.18 318.816C970.76 318.396 971.05 317.893 971.05 317.307C971.05 316.833 970.884 316.437 970.553 316.117C970.221 315.792 969.712 315.549 969.026 315.389L966.753 314.857C965.504 314.561 964.587 314.102 964.001 313.48C963.421 312.853 963.131 312.069 963.131 311.128C963.131 310.358 963.347 309.678 963.779 309.086C964.217 308.494 964.812 308.029 965.563 307.692C966.321 307.355 967.179 307.186 968.138 307.186C969.487 307.186 970.547 307.482 971.316 308.074C972.091 308.666 972.642 309.447 972.967 310.418ZM984.964 315.425V307.364H987.059V321H984.964V318.692H984.821C984.502 319.384 984.005 319.973 983.33 320.458C982.655 320.938 981.803 321.178 980.773 321.178C979.921 321.178 979.163 320.991 978.5 320.618C977.838 320.239 977.317 319.671 976.938 318.914C976.559 318.15 976.37 317.188 976.37 316.028V307.364H978.465V315.886C978.465 316.881 978.743 317.674 979.299 318.266C979.862 318.857 980.578 319.153 981.448 319.153C981.969 319.153 982.498 319.02 983.037 318.754C983.582 318.488 984.037 318.079 984.404 317.529C984.777 316.978 984.964 316.277 984.964 315.425ZM990.896 321V307.364H992.92V309.423H993.062C993.311 308.749 993.761 308.201 994.412 307.781C995.063 307.361 995.797 307.151 996.613 307.151C996.767 307.151 996.96 307.154 997.191 307.159C997.421 307.165 997.596 307.174 997.714 307.186V309.317C997.643 309.299 997.481 309.272 997.226 309.237C996.977 309.195 996.714 309.175 996.436 309.175C995.773 309.175 995.181 309.314 994.66 309.592C994.145 309.864 993.737 310.243 993.435 310.728C993.139 311.208 992.991 311.755 992.991 312.371V321H990.896ZM1005.5 321.284C1004.19 321.284 1003.05 320.994 1002.1 320.414C1001.15 319.828 1000.42 319.011 999.907 317.964C999.398 316.91 999.144 315.685 999.144 314.288C999.144 312.892 999.398 311.661 999.907 310.595C1000.42 309.524 1001.14 308.689 1002.06 308.092C1002.98 307.488 1004.06 307.186 1005.29 307.186C1006 307.186 1006.7 307.304 1007.39 307.541C1008.08 307.778 1008.71 308.163 1009.28 308.695C1009.85 309.222 1010.3 309.92 1010.64 310.79C1010.98 311.661 1011.15 312.732 1011.15 314.004V314.892H1000.64V313.081H1009.02C1009.02 312.312 1008.86 311.625 1008.55 311.021C1008.25 310.418 1007.82 309.941 1007.26 309.592C1006.7 309.243 1006.04 309.068 1005.29 309.068C1004.45 309.068 1003.73 309.275 1003.12 309.69C1002.52 310.098 1002.05 310.631 1001.73 311.288C1001.4 311.945 1001.24 312.649 1001.24 313.401V314.608C1001.24 315.638 1001.42 316.511 1001.77 317.227C1002.13 317.937 1002.63 318.479 1003.27 318.852C1003.91 319.219 1004.65 319.402 1005.5 319.402C1006.05 319.402 1006.55 319.325 1006.99 319.171C1007.44 319.011 1007.83 318.775 1008.15 318.461C1008.48 318.141 1008.73 317.745 1008.91 317.271L1010.93 317.839C1010.72 318.526 1010.36 319.13 1009.86 319.651C1009.36 320.165 1008.73 320.568 1007.99 320.858C1007.26 321.142 1006.42 321.284 1005.5 321.284Z" fill="black"/>
<path d="M13.3557 425.281C19.1054 422.87 33.6539 419.966 51.9992 419.233C63.7191 418.765 77.6333 416.104 102.447 413.2C118.081 411.371 140.198 412.213 161.135 415.088C182.072 417.963 201.237 423.713 214.225 427.154C233.281 432.203 247.525 435.894 262.255 442.653C285.157 453.161 296.427 458.646 304.442 462.051C314.216 466.204 319.687 469.797 325.742 471.736C333.922 474.355 343.876 474.153 353.8 476.091C361.547 477.604 370.011 480.455 380.393 481.66C406.652 484.708 415.486 484.317 440.133 484.571C447.955 484.651 464.765 483.358 487.263 483.119C496.851 483.017 516.992 481.906 550.575 482.625C576.099 483.171 588.79 486.262 593.371 486.741C612.478 488.74 635.717 490.124 653.351 490.379C657.511 490.139 659.907 489.66 664.734 489.413C669.562 489.166 676.749 489.166 684.154 489.166" stroke="#0077CC" stroke-width="4" stroke-linecap="round"/>
<path d="M682.702 477.55C692.851 485.768 696.728 489.151 698.18 492.288C698.923 493.893 698.674 495.903 697.236 496.89C695.799 497.878 692.924 497.878 690.724 498.117C688.524 498.357 687.087 498.836 684.154 499.329" stroke="#0077CC" stroke-width="4" stroke-linecap="round"/>
<path d="M39.4907 465.935C40.449 465.935 41.4073 465.935 68.9725 465.935C96.5376 465.935 150.681 465.935 181.208 466.414C225.435 467.108 236.897 472.701 248.041 476.084C261.998 480.321 271.744 483.823 287.686 490.342C306.034 497.845 322.576 501.74 336.058 505.827C359.548 512.949 376.313 520.136 381.387 521.102C395.9 523.863 422.252 523.519 435.574 524.492C439.707 524.794 444.961 525.929 467.081 526.423C489.202 526.917 528.012 526.917 548.724 526.677C575.229 524.986 583.941 523.534 597.161 522.808C607.506 522.561 625.234 522.561 643.5 522.561" stroke="#0077CC" stroke-width="4" stroke-linecap="round"/>
<path d="M646.403 508.042C647.362 508.042 652.168 509 659.181 511.41C667.219 514.173 666.237 522.546 666.252 524.724C662.433 525.465 654.68 527.861 646.701 531.97C643.514 533.683 642.077 534.641 640.596 535.628" stroke="#0077CC" stroke-width="4" stroke-linecap="round"/>
<path d="M88.8569 508.042C90.7735 508.042 111.406 508.042 142.847 508.281C158.015 508.397 171.995 513.327 189.883 519.614C197.191 522.182 201.063 523.026 215.975 527.592C230.886 532.158 256.76 540.304 272.964 544.979C289.167 549.654 294.917 550.613 306.264 553.981C317.611 557.35 334.381 563.099 363.623 566.78C392.865 570.461 434.071 571.898 458.413 573.118C482.755 574.337 488.984 575.296 513.275 575.789C537.566 576.283 579.73 576.283 602.17 576.043C629.445 574.352 635.253 573.379 638.875 573.139C640.581 572.9 642.019 572.421 646.404 571.927" stroke="#0077CC" stroke-width="4" stroke-linecap="round"/>
<path d="M644.952 551.6C648.799 558.337 656.538 567.077 662.114 570.7C663.556 571.637 664.292 573.35 664.067 574.569C662.404 576.747 659.486 578.693 656.11 581.343C654.172 583.034 651.776 585.43 647.856 590.802" stroke="#0077CC" stroke-width="4" stroke-linecap="round"/>
<path d="M723.856 546V527.818H727.15V543.239H735.157V546H723.856ZM743.822 546.266C742.49 546.266 741.336 545.973 740.36 545.387C739.383 544.801 738.626 543.982 738.087 542.928C737.554 541.875 737.288 540.644 737.288 539.235C737.288 537.826 737.554 536.592 738.087 535.533C738.626 534.474 739.383 533.651 740.36 533.065C741.336 532.479 742.49 532.186 743.822 532.186C745.154 532.186 746.308 532.479 747.284 533.065C748.261 533.651 749.016 534.474 749.548 535.533C750.087 536.592 750.356 537.826 750.356 539.235C750.356 540.644 750.087 541.875 749.548 542.928C749.016 543.982 748.261 544.801 747.284 545.387C746.308 545.973 745.154 546.266 743.822 546.266ZM743.84 543.692C744.562 543.692 745.166 543.493 745.651 543.097C746.136 542.694 746.497 542.156 746.734 541.481C746.977 540.806 747.098 540.055 747.098 539.226C747.098 538.392 746.977 537.637 746.734 536.962C746.497 536.282 746.136 535.74 745.651 535.338C745.166 534.935 744.562 534.734 743.84 534.734C743.1 534.734 742.484 534.935 741.993 535.338C741.508 535.74 741.144 536.282 740.901 536.962C740.665 537.637 740.546 538.392 740.546 539.226C740.546 540.055 740.665 540.806 740.901 541.481C741.144 542.156 741.508 542.694 741.993 543.097C742.484 543.493 743.1 543.692 743.84 543.692ZM755.508 546L751.655 532.364H754.93L757.328 541.952H757.452L759.902 532.364H763.142L765.593 541.898H765.726L768.087 532.364H771.372L767.51 546H764.163L761.607 536.785H761.42L758.863 546H755.508ZM779.262 546.266C777.895 546.266 776.714 545.982 775.72 545.414C774.732 544.84 773.971 544.029 773.439 542.982C772.906 541.928 772.64 540.688 772.64 539.262C772.64 537.859 772.906 536.628 773.439 535.569C773.977 534.503 774.729 533.675 775.694 533.083C776.658 532.485 777.792 532.186 779.094 532.186C779.934 532.186 780.727 532.322 781.473 532.594C782.225 532.861 782.888 533.275 783.462 533.837C784.042 534.4 784.497 535.116 784.829 535.986C785.16 536.85 785.326 537.88 785.326 539.075V540.061H774.149V537.895H782.245C782.239 537.279 782.106 536.732 781.846 536.252C781.585 535.767 781.221 535.385 780.754 535.107C780.292 534.829 779.754 534.69 779.138 534.69C778.481 534.69 777.904 534.849 777.407 535.169C776.91 535.483 776.522 535.897 776.244 536.412C775.972 536.921 775.833 537.48 775.827 538.09V539.981C775.827 540.774 775.972 541.455 776.262 542.023C776.552 542.585 776.957 543.017 777.478 543.319C777.999 543.615 778.608 543.763 779.307 543.763C779.774 543.763 780.198 543.698 780.576 543.567C780.955 543.431 781.284 543.233 781.562 542.973C781.84 542.712 782.05 542.39 782.192 542.005L785.193 542.342C785.003 543.135 784.642 543.828 784.11 544.42C783.583 545.006 782.908 545.461 782.086 545.787C781.263 546.107 780.322 546.266 779.262 546.266ZM788.045 546V532.364H791.161V534.636H791.303C791.552 533.849 791.978 533.243 792.581 532.816C793.191 532.384 793.886 532.168 794.668 532.168C794.845 532.168 795.044 532.177 795.263 532.195C795.487 532.207 795.674 532.228 795.822 532.257V535.213C795.686 535.166 795.47 535.125 795.174 535.089C794.884 535.048 794.603 535.027 794.33 535.027C793.744 535.027 793.218 535.154 792.75 535.409C792.288 535.657 791.924 536.004 791.658 536.447C791.392 536.891 791.259 537.403 791.259 537.983V546H788.045ZM815.482 532.364C815.375 531.464 814.943 530.766 814.186 530.268C813.428 529.771 812.499 529.523 811.398 529.523C810.593 529.523 809.889 529.653 809.285 529.913C808.687 530.174 808.22 530.532 807.882 530.988C807.551 531.443 807.385 531.961 807.385 532.541C807.385 533.027 807.501 533.444 807.731 533.793C807.968 534.136 808.27 534.423 808.637 534.654C809.004 534.879 809.389 535.065 809.791 535.213C810.194 535.355 810.563 535.471 810.901 535.56L812.747 536.057C813.221 536.181 813.748 536.353 814.328 536.572C814.914 536.791 815.473 537.09 816.006 537.468C816.544 537.841 816.988 538.321 817.337 538.907C817.686 539.493 817.861 540.212 817.861 541.064C817.861 542.046 817.604 542.934 817.089 543.727C816.58 544.52 815.834 545.151 814.851 545.618C813.875 546.086 812.688 546.32 811.291 546.32C809.989 546.32 808.862 546.109 807.909 545.689C806.962 545.269 806.216 544.683 805.672 543.931C805.133 543.18 804.828 542.307 804.757 541.312H807.03C807.089 541.999 807.32 542.567 807.723 543.017C808.131 543.461 808.646 543.792 809.267 544.011C809.895 544.224 810.569 544.331 811.291 544.331C812.132 544.331 812.887 544.195 813.555 543.923C814.224 543.644 814.754 543.26 815.144 542.768C815.535 542.271 815.73 541.691 815.73 541.028C815.73 540.425 815.562 539.933 815.224 539.555C814.887 539.176 814.443 538.868 813.893 538.631C813.342 538.395 812.747 538.187 812.108 538.01L809.871 537.371C808.451 536.962 807.326 536.379 806.497 535.622C805.669 534.864 805.255 533.873 805.255 532.648C805.255 531.63 805.53 530.742 806.08 529.984C806.637 529.221 807.382 528.629 808.317 528.209C809.258 527.783 810.309 527.57 811.469 527.57C812.641 527.57 813.683 527.78 814.594 528.2C815.505 528.614 816.228 529.182 816.76 529.904C817.299 530.627 817.583 531.446 817.612 532.364H815.482ZM821.197 551.114V532.364H823.221V534.53H823.47C823.624 534.293 823.837 533.991 824.109 533.624C824.387 533.251 824.784 532.92 825.298 532.63C825.819 532.334 826.524 532.186 827.411 532.186C828.56 532.186 829.572 532.473 830.448 533.047C831.324 533.621 832.007 534.435 832.498 535.489C832.99 536.542 833.235 537.785 833.235 539.217C833.235 540.661 832.99 541.913 832.498 542.973C832.007 544.026 831.327 544.843 830.456 545.423C829.586 545.997 828.583 546.284 827.447 546.284C826.571 546.284 825.87 546.139 825.343 545.849C824.816 545.553 824.411 545.219 824.127 544.846C823.843 544.467 823.624 544.153 823.47 543.905H823.292V551.114H821.197ZM823.257 539.182C823.257 540.212 823.407 541.12 823.709 541.907C824.011 542.689 824.452 543.301 825.032 543.745C825.612 544.183 826.322 544.402 827.163 544.402C828.039 544.402 828.77 544.171 829.356 543.71C829.948 543.242 830.391 542.615 830.687 541.827C830.989 541.034 831.14 540.152 831.14 539.182C831.14 538.223 830.992 537.359 830.696 536.589C830.406 535.814 829.965 535.202 829.373 534.752C828.787 534.296 828.051 534.068 827.163 534.068C826.311 534.068 825.594 534.284 825.014 534.716C824.434 535.142 823.996 535.74 823.7 536.51C823.405 537.273 823.257 538.164 823.257 539.182ZM842.149 546.284C840.835 546.284 839.701 545.994 838.748 545.414C837.801 544.828 837.07 544.011 836.556 542.964C836.047 541.91 835.792 540.685 835.792 539.288C835.792 537.892 836.047 536.661 836.556 535.595C837.07 534.524 837.787 533.689 838.704 533.092C839.627 532.488 840.704 532.186 841.936 532.186C842.646 532.186 843.347 532.304 844.04 532.541C844.732 532.778 845.362 533.163 845.931 533.695C846.499 534.222 846.952 534.92 847.289 535.79C847.626 536.661 847.795 537.732 847.795 539.004V539.892H837.284V538.081H845.664C845.664 537.312 845.51 536.625 845.203 536.021C844.901 535.418 844.469 534.941 843.906 534.592C843.35 534.243 842.693 534.068 841.936 534.068C841.101 534.068 840.379 534.275 839.769 534.69C839.166 535.098 838.701 535.631 838.376 536.288C838.05 536.945 837.887 537.649 837.887 538.401V539.608C837.887 540.638 838.065 541.511 838.42 542.227C838.781 542.937 839.281 543.479 839.92 543.852C840.559 544.219 841.302 544.402 842.149 544.402C842.699 544.402 843.196 544.325 843.64 544.171C844.09 544.011 844.478 543.775 844.803 543.461C845.129 543.141 845.38 542.745 845.558 542.271L847.582 542.839C847.369 543.526 847.011 544.13 846.508 544.651C846.005 545.165 845.383 545.568 844.643 545.858C843.903 546.142 843.072 546.284 842.149 546.284ZM856.699 546.284C855.385 546.284 854.252 545.994 853.299 545.414C852.352 544.828 851.621 544.011 851.106 542.964C850.597 541.91 850.343 540.685 850.343 539.288C850.343 537.892 850.597 536.661 851.106 535.595C851.621 534.524 852.337 533.689 853.255 533.092C854.178 532.488 855.255 532.186 856.486 532.186C857.197 532.186 857.898 532.304 858.59 532.541C859.283 532.778 859.913 533.163 860.481 533.695C861.05 534.222 861.502 534.92 861.84 535.79C862.177 536.661 862.346 537.732 862.346 539.004V539.892H851.834V538.081H860.215C860.215 537.312 860.061 536.625 859.753 536.021C859.452 535.418 859.019 534.941 858.457 534.592C857.901 534.243 857.244 534.068 856.486 534.068C855.652 534.068 854.93 534.275 854.32 534.69C853.716 535.098 853.252 535.631 852.926 536.288C852.601 536.945 852.438 537.649 852.438 538.401V539.608C852.438 540.638 852.616 541.511 852.971 542.227C853.332 542.937 853.832 543.479 854.471 543.852C855.11 544.219 855.853 544.402 856.699 544.402C857.25 544.402 857.747 544.325 858.191 544.171C858.641 544.011 859.028 543.775 859.354 543.461C859.679 543.141 859.931 542.745 860.108 542.271L862.133 542.839C861.92 543.526 861.561 544.13 861.058 544.651C860.555 545.165 859.934 545.568 859.194 545.858C858.454 546.142 857.623 546.284 856.699 546.284ZM870.682 546.284C869.546 546.284 868.542 545.997 867.672 545.423C866.802 544.843 866.122 544.026 865.631 542.973C865.139 541.913 864.894 540.661 864.894 539.217C864.894 537.785 865.139 536.542 865.631 535.489C866.122 534.435 866.805 533.621 867.681 533.047C868.557 532.473 869.569 532.186 870.718 532.186C871.605 532.186 872.307 532.334 872.822 532.63C873.342 532.92 873.739 533.251 874.011 533.624C874.289 533.991 874.505 534.293 874.659 534.53H874.837V527.818H876.932V546H874.908V543.905H874.659C874.505 544.153 874.286 544.467 874.002 544.846C873.718 545.219 873.313 545.553 872.786 545.849C872.259 546.139 871.558 546.284 870.682 546.284ZM870.966 544.402C871.807 544.402 872.517 544.183 873.097 543.745C873.677 543.301 874.118 542.689 874.42 541.907C874.721 541.12 874.872 540.212 874.872 539.182C874.872 538.164 874.724 537.273 874.428 536.51C874.133 535.74 873.695 535.142 873.115 534.716C872.535 534.284 871.818 534.068 870.966 534.068C870.078 534.068 869.338 534.296 868.747 534.752C868.161 535.202 867.72 535.814 867.424 536.589C867.134 537.359 866.989 538.223 866.989 539.182C866.989 540.152 867.137 541.034 867.433 541.827C867.735 542.615 868.178 543.242 868.764 543.71C869.356 544.171 870.09 544.402 870.966 544.402ZM884.185 543.514L884.043 544.473C883.943 545.148 883.789 545.87 883.581 546.639C883.38 547.409 883.17 548.134 882.951 548.814C882.732 549.495 882.552 550.036 882.41 550.439H880.812C880.889 550.06 880.989 549.56 881.113 548.939C881.238 548.317 881.362 547.622 881.486 546.852C881.617 546.089 881.723 545.308 881.806 544.509L881.912 543.514H884.185ZM894.974 546V527.818H898.268V535.515H906.693V527.818H909.995V546H906.693V538.276H898.268V546H894.974ZM913.435 546V532.364H916.649V546H913.435ZM915.051 530.428C914.542 530.428 914.104 530.26 913.737 529.922C913.37 529.579 913.187 529.168 913.187 528.688C913.187 528.203 913.37 527.792 913.737 527.454C914.104 527.111 914.542 526.939 915.051 526.939C915.566 526.939 916.004 527.111 916.365 527.454C916.732 527.792 916.916 528.203 916.916 528.688C916.916 529.168 916.732 529.579 916.365 529.922C916.004 530.26 915.566 530.428 915.051 530.428ZM925.884 551.398C924.73 551.398 923.739 551.241 922.91 550.927C922.082 550.619 921.416 550.205 920.913 549.684C920.41 549.163 920.061 548.586 919.865 547.953L922.759 547.252C922.89 547.518 923.079 547.781 923.328 548.042C923.576 548.308 923.911 548.527 924.331 548.699C924.757 548.876 925.293 548.965 925.938 548.965C926.849 548.965 927.604 548.743 928.202 548.299C928.799 547.861 929.098 547.139 929.098 546.133V543.55H928.938C928.773 543.881 928.53 544.221 928.21 544.571C927.897 544.92 927.479 545.213 926.959 545.45C926.444 545.686 925.796 545.805 925.014 545.805C923.967 545.805 923.017 545.559 922.165 545.068C921.318 544.571 920.644 543.831 920.14 542.848C919.643 541.86 919.395 540.623 919.395 539.137C919.395 537.64 919.643 536.376 920.14 535.347C920.644 534.311 921.321 533.527 922.173 532.994C923.026 532.455 923.976 532.186 925.023 532.186C925.822 532.186 926.479 532.322 926.994 532.594C927.515 532.861 927.929 533.183 928.237 533.562C928.545 533.935 928.779 534.287 928.938 534.619H929.116V532.364H932.285V546.222C932.285 547.388 932.007 548.353 931.451 549.116C930.894 549.88 930.134 550.451 929.169 550.83C928.204 551.208 927.11 551.398 925.884 551.398ZM925.911 543.283C926.592 543.283 927.172 543.118 927.651 542.786C928.131 542.455 928.494 541.978 928.743 541.357C928.992 540.735 929.116 539.99 929.116 539.12C929.116 538.261 928.992 537.51 928.743 536.865C928.5 536.22 928.139 535.719 927.66 535.364C927.186 535.003 926.604 534.823 925.911 534.823C925.195 534.823 924.597 535.009 924.118 535.382C923.638 535.755 923.277 536.267 923.035 536.918C922.792 537.563 922.671 538.297 922.671 539.12C922.671 539.954 922.792 540.685 923.035 541.312C923.283 541.934 923.647 542.419 924.127 542.768C924.612 543.112 925.207 543.283 925.911 543.283ZM938.793 538.01V546H935.579V527.818H938.722V534.681H938.882C939.201 533.911 939.695 533.305 940.364 532.861C941.039 532.411 941.897 532.186 942.939 532.186C943.886 532.186 944.711 532.384 945.416 532.781C946.12 533.177 946.664 533.757 947.049 534.521C947.44 535.284 947.635 536.217 947.635 537.317V546H944.421V537.815C944.421 536.897 944.185 536.184 943.711 535.675C943.244 535.16 942.587 534.903 941.74 534.903C941.172 534.903 940.663 535.027 940.213 535.276C939.769 535.518 939.42 535.87 939.166 536.332C938.917 536.794 938.793 537.353 938.793 538.01ZM956.948 546.266C955.581 546.266 954.4 545.982 953.406 545.414C952.417 544.84 951.657 544.029 951.124 542.982C950.591 541.928 950.325 540.688 950.325 539.262C950.325 537.859 950.591 536.628 951.124 535.569C951.663 534.503 952.414 533.675 953.379 533.083C954.344 532.485 955.477 532.186 956.779 532.186C957.62 532.186 958.413 532.322 959.159 532.594C959.91 532.861 960.573 533.275 961.147 533.837C961.727 534.4 962.183 535.116 962.514 535.986C962.846 536.85 963.012 537.88 963.012 539.075V540.061H951.834V537.895H959.931C959.925 537.279 959.792 536.732 959.531 536.252C959.271 535.767 958.907 535.385 958.439 535.107C957.978 534.829 957.439 534.69 956.824 534.69C956.167 534.69 955.59 534.849 955.093 535.169C954.595 535.483 954.208 535.897 953.93 536.412C953.657 536.921 953.518 537.48 953.512 538.09V539.981C953.512 540.774 953.657 541.455 953.947 542.023C954.237 542.585 954.643 543.017 955.164 543.319C955.684 543.615 956.294 543.763 956.992 543.763C957.46 543.763 957.883 543.698 958.262 543.567C958.641 543.431 958.969 543.233 959.247 542.973C959.526 542.712 959.736 542.39 959.878 542.005L962.878 542.342C962.689 543.135 962.328 543.828 961.795 544.42C961.269 545.006 960.594 545.461 959.771 545.787C958.948 546.107 958.007 546.266 956.948 546.266ZM965.73 546V532.364H968.847V534.636H968.989C969.237 533.849 969.663 533.243 970.267 532.816C970.877 532.384 971.572 532.168 972.353 532.168C972.531 532.168 972.729 532.177 972.948 532.195C973.173 532.207 973.359 532.228 973.507 532.257V535.213C973.371 535.166 973.155 535.125 972.859 535.089C972.569 535.048 972.288 535.027 972.016 535.027C971.43 535.027 970.903 535.154 970.436 535.409C969.974 535.657 969.61 536.004 969.344 536.447C969.077 536.891 968.944 537.403 968.944 537.983V546H965.73ZM983.224 546V527.818H989.368C990.794 527.818 991.96 528.076 992.866 528.591C993.777 529.1 994.452 529.789 994.89 530.659C995.328 531.529 995.547 532.5 995.547 533.571C995.547 534.642 995.328 535.616 994.89 536.492C994.458 537.368 993.789 538.066 992.883 538.587C991.978 539.102 990.818 539.359 989.403 539.359H985V537.406H989.332C990.309 537.406 991.093 537.238 991.685 536.9C992.277 536.563 992.706 536.107 992.972 535.533C993.244 534.953 993.38 534.299 993.38 533.571C993.38 532.843 993.244 532.192 992.972 531.618C992.706 531.044 992.274 530.594 991.676 530.268C991.078 529.937 990.285 529.771 989.297 529.771H985.426V546H983.224ZM998.809 546V532.364H1000.83V534.423H1000.98C1001.22 533.749 1001.67 533.201 1002.32 532.781C1002.98 532.361 1003.71 532.151 1004.53 532.151C1004.68 532.151 1004.87 532.154 1005.1 532.159C1005.33 532.165 1005.51 532.174 1005.63 532.186V534.317C1005.56 534.299 1005.39 534.272 1005.14 534.237C1004.89 534.195 1004.63 534.175 1004.35 534.175C1003.69 534.175 1003.09 534.314 1002.57 534.592C1002.06 534.864 1001.65 535.243 1001.35 535.728C1001.05 536.208 1000.9 536.755 1000.9 537.371V546H998.809ZM1013.41 546.284C1012.1 546.284 1010.97 545.994 1010.01 545.414C1009.07 544.828 1008.34 544.011 1007.82 542.964C1007.31 541.91 1007.06 540.685 1007.06 539.288C1007.06 537.892 1007.31 536.661 1007.82 535.595C1008.34 534.524 1009.05 533.689 1009.97 533.092C1010.89 532.488 1011.97 532.186 1013.2 532.186C1013.91 532.186 1014.61 532.304 1015.3 532.541C1016 532.778 1016.63 533.163 1017.2 533.695C1017.76 534.222 1018.22 534.92 1018.55 535.79C1018.89 536.661 1019.06 537.732 1019.06 539.004V539.892H1008.55V538.081H1016.93C1016.93 537.312 1016.78 536.625 1016.47 536.021C1016.17 535.418 1015.73 534.941 1015.17 534.592C1014.61 534.243 1013.96 534.068 1013.2 534.068C1012.37 534.068 1011.64 534.275 1011.03 534.69C1010.43 535.098 1009.97 535.631 1009.64 536.288C1009.31 536.945 1009.15 537.649 1009.15 538.401V539.608C1009.15 540.638 1009.33 541.511 1009.68 542.227C1010.05 542.937 1010.55 543.479 1011.18 543.852C1011.82 544.219 1012.57 544.402 1013.41 544.402C1013.96 544.402 1014.46 544.325 1014.9 544.171C1015.35 544.011 1015.74 543.775 1016.07 543.461C1016.39 543.141 1016.64 542.745 1016.82 542.271L1018.85 542.839C1018.63 543.526 1018.28 544.13 1017.77 544.651C1017.27 545.165 1016.65 545.568 1015.91 545.858C1015.17 546.142 1014.34 546.284 1013.41 546.284ZM1031.91 535.418L1030.02 535.95C1029.91 535.637 1029.73 535.332 1029.5 535.036C1029.28 534.734 1028.97 534.485 1028.58 534.29C1028.19 534.095 1027.69 533.997 1027.08 533.997C1026.24 533.997 1025.55 534.19 1024.99 534.574C1024.44 534.953 1024.16 535.435 1024.16 536.021C1024.16 536.542 1024.35 536.953 1024.73 537.255C1025.11 537.557 1025.7 537.809 1026.51 538.01L1028.53 538.507C1029.75 538.803 1030.66 539.256 1031.26 539.865C1031.86 540.469 1032.15 541.247 1032.15 542.2C1032.15 542.982 1031.93 543.68 1031.48 544.295C1031.04 544.911 1030.41 545.396 1029.62 545.751C1028.82 546.107 1027.89 546.284 1026.83 546.284C1025.44 546.284 1024.29 545.982 1023.37 545.379C1022.46 544.775 1021.89 543.893 1021.64 542.733L1023.63 542.236C1023.82 542.97 1024.18 543.52 1024.71 543.887C1025.24 544.254 1025.93 544.438 1026.79 544.438C1027.77 544.438 1028.54 544.23 1029.12 543.816C1029.7 543.396 1029.99 542.893 1029.99 542.307C1029.99 541.833 1029.82 541.437 1029.49 541.117C1029.16 540.792 1028.65 540.549 1027.96 540.389L1025.69 539.857C1024.44 539.561 1023.53 539.102 1022.94 538.48C1022.36 537.853 1022.07 537.069 1022.07 536.128C1022.07 535.358 1022.29 534.678 1022.72 534.086C1023.16 533.494 1023.75 533.029 1024.5 532.692C1025.26 532.355 1026.12 532.186 1027.08 532.186C1028.43 532.186 1029.49 532.482 1030.25 533.074C1031.03 533.666 1031.58 534.447 1031.91 535.418ZM1044.97 535.418L1043.09 535.95C1042.97 535.637 1042.79 535.332 1042.56 535.036C1042.34 534.734 1042.03 534.485 1041.64 534.29C1041.25 534.095 1040.75 533.997 1040.14 533.997C1039.3 533.997 1038.61 534.19 1038.05 534.574C1037.5 534.953 1037.23 535.435 1037.23 536.021C1037.23 536.542 1037.42 536.953 1037.79 537.255C1038.17 537.557 1038.76 537.809 1039.57 538.01L1041.59 538.507C1042.81 538.803 1043.72 539.256 1044.32 539.865C1044.92 540.469 1045.22 541.247 1045.22 542.2C1045.22 542.982 1044.99 543.68 1044.54 544.295C1044.1 544.911 1043.48 545.396 1042.68 545.751C1041.88 546.107 1040.95 546.284 1039.89 546.284C1038.5 546.284 1037.35 545.982 1036.44 545.379C1035.52 544.775 1034.95 543.893 1034.7 542.733L1036.69 542.236C1036.88 542.97 1037.24 543.52 1037.77 543.887C1038.3 544.254 1039 544.438 1039.85 544.438C1040.83 544.438 1041.61 544.23 1042.18 543.816C1042.76 543.396 1043.05 542.893 1043.05 542.307C1043.05 541.833 1042.88 541.437 1042.55 541.117C1042.22 540.792 1041.71 540.549 1041.03 540.389L1038.75 539.857C1037.5 539.561 1036.59 539.102 1036 538.48C1035.42 537.853 1035.13 537.069 1035.13 536.128C1035.13 535.358 1035.35 534.678 1035.78 534.086C1036.22 533.494 1036.81 533.029 1037.56 532.692C1038.32 532.355 1039.18 532.186 1040.14 532.186C1041.49 532.186 1042.55 532.482 1043.32 533.074C1044.09 533.666 1044.64 534.447 1044.97 535.418ZM1056.96 540.425V532.364H1059.06V546H1056.96V543.692H1056.82C1056.5 544.384 1056 544.973 1055.33 545.458C1054.66 545.938 1053.8 546.178 1052.77 546.178C1051.92 546.178 1051.16 545.991 1050.5 545.618C1049.84 545.239 1049.32 544.671 1048.94 543.914C1048.56 543.15 1048.37 542.188 1048.37 541.028V532.364H1050.46V540.886C1050.46 541.881 1050.74 542.674 1051.3 543.266C1051.86 543.857 1052.58 544.153 1053.45 544.153C1053.97 544.153 1054.5 544.02 1055.04 543.754C1055.58 543.488 1056.04 543.079 1056.4 542.529C1056.78 541.978 1056.96 541.277 1056.96 540.425ZM1062.9 546V532.364H1064.92V534.423H1065.06C1065.31 533.749 1065.76 533.201 1066.41 532.781C1067.06 532.361 1067.8 532.151 1068.61 532.151C1068.77 532.151 1068.96 532.154 1069.19 532.159C1069.42 532.165 1069.6 532.174 1069.71 532.186V534.317C1069.64 534.299 1069.48 534.272 1069.23 534.237C1068.98 534.195 1068.71 534.175 1068.44 534.175C1067.77 534.175 1067.18 534.314 1066.66 534.592C1066.15 534.864 1065.74 535.243 1065.44 535.728C1065.14 536.208 1064.99 536.755 1064.99 537.371V546H1062.9ZM1077.5 546.284C1076.19 546.284 1075.05 545.994 1074.1 545.414C1073.15 544.828 1072.42 544.011 1071.91 542.964C1071.4 541.91 1071.14 540.685 1071.14 539.288C1071.14 537.892 1071.4 536.661 1071.91 535.595C1072.42 534.524 1073.14 533.689 1074.06 533.092C1074.98 532.488 1076.06 532.186 1077.29 532.186C1078 532.186 1078.7 532.304 1079.39 532.541C1080.08 532.778 1080.71 533.163 1081.28 533.695C1081.85 534.222 1082.3 534.92 1082.64 535.79C1082.98 536.661 1083.15 537.732 1083.15 539.004V539.892H1072.64V538.081H1081.02C1081.02 537.312 1080.86 536.625 1080.55 536.021C1080.25 535.418 1079.82 534.941 1079.26 534.592C1078.7 534.243 1078.04 534.068 1077.29 534.068C1076.45 534.068 1075.73 534.275 1075.12 534.69C1074.52 535.098 1074.05 535.631 1073.73 536.288C1073.4 536.945 1073.24 537.649 1073.24 538.401V539.608C1073.24 540.638 1073.42 541.511 1073.77 542.227C1074.13 542.937 1074.63 543.479 1075.27 543.852C1075.91 544.219 1076.65 544.402 1077.5 544.402C1078.05 544.402 1078.55 544.325 1078.99 544.171C1079.44 544.011 1079.83 543.775 1080.15 543.461C1080.48 543.141 1080.73 542.745 1080.91 542.271L1082.93 542.839C1082.72 543.526 1082.36 544.13 1081.86 544.651C1081.36 545.165 1080.73 545.568 1079.99 545.858C1079.26 546.142 1078.42 546.284 1077.5 546.284Z" fill="black"/>
<path d="M273.65 124.75C274.983 125.217 276.083 125.833 276.95 126.6C277.817 127.333 278.467 128.233 278.9 129.3C279.367 130.333 279.6 131.517 279.6 132.85C279.6 134.917 279.067 136.717 278 138.25C276.933 139.783 275.433 140.967 273.5 141.8C271.567 142.6 269.3 143 266.7 143H252.2V108.1H266.2C270.233 108.1 273.333 108.95 275.5 110.65C277.7 112.317 278.8 114.483 278.8 117.15C278.8 118.383 278.583 119.483 278.15 120.45C277.717 121.383 277.117 122.217 276.35 122.95C275.583 123.65 274.683 124.25 273.65 124.75ZM265.7 114.85H260.45V122.05H265.7C267.067 122.05 268.167 121.717 269 121.05C269.867 120.35 270.3 119.467 270.3 118.4C270.3 117.333 269.867 116.483 269 115.85C268.133 115.183 267.033 114.85 265.7 114.85ZM260.45 136.25H266.45C267.85 136.25 268.967 135.917 269.8 135.25C270.667 134.583 271.1 133.683 271.1 132.55C271.1 131.383 270.683 130.467 269.85 129.8C269.017 129.133 267.867 128.8 266.4 128.8H260.45V136.25ZM298.02 143.6C295.02 143.6 292.436 143.017 290.27 141.85C288.136 140.683 286.486 139.017 285.32 136.85C284.153 134.683 283.57 132.1 283.57 129.1C283.57 126.067 284.153 123.467 285.32 121.3C286.486 119.133 288.17 117.483 290.37 116.35C292.603 115.183 295.286 114.6 298.42 114.6C303.32 114.6 306.87 116 309.07 118.8C311.303 121.567 312.236 125.383 311.87 130.25H289.77L289.82 124.9H303.92C303.82 123.633 303.253 122.617 302.22 121.85C301.186 121.05 299.903 120.65 298.37 120.65C295.97 120.65 294.203 121.4 293.07 122.9C291.936 124.4 291.37 126.583 291.37 129.45C291.37 130.883 291.62 132.2 292.12 133.4C292.62 134.6 293.353 135.567 294.32 136.3C295.32 137 296.553 137.35 298.02 137.35C299.586 137.35 300.903 136.967 301.97 136.2C303.07 135.433 303.736 134.467 303.97 133.3H311.77C311.436 136.467 310.036 138.983 307.57 140.85C305.136 142.683 301.953 143.6 298.02 143.6ZM336.239 129.1V125.35C336.239 124.083 335.906 123.067 335.239 122.3C334.572 121.5 333.572 121.1 332.239 121.1C330.739 121.1 329.322 121.6 327.989 122.6C326.656 123.6 325.389 125.333 324.189 127.8L323.389 121.25C324.256 119.783 325.206 118.567 326.239 117.6C327.272 116.6 328.406 115.85 329.639 115.35C330.906 114.85 332.289 114.6 333.789 114.6C336.756 114.6 339.206 115.517 341.139 117.35C343.072 119.15 344.039 121.817 344.039 125.35V129.1H336.239ZM317.689 143V115.2H325.189L325.489 120.2V143H317.689ZM368.259 143V125.85C368.259 124.417 367.892 123.267 367.159 122.4C366.425 121.533 365.459 121.1 364.259 121.1C362.892 121.1 361.625 121.567 360.459 122.5C359.325 123.4 358.125 124.967 356.859 127.2L355.759 120.6C357.025 118.433 358.559 116.9 360.359 116C362.159 115.067 363.992 114.6 365.859 114.6C367.992 114.6 369.809 115.05 371.309 115.95C372.842 116.85 374.009 118.1 374.809 119.7C375.642 121.3 376.059 123.183 376.059 125.35V143H368.259ZM349.709 143V115.2H357.259L357.509 120.15V143H349.709ZM395.328 143.6C392.361 143.6 389.811 143.017 387.678 141.85C385.545 140.683 383.895 139.017 382.728 136.85C381.595 134.683 381.028 132.1 381.028 129.1C381.028 126.067 381.595 123.483 382.728 121.35C383.895 119.183 385.545 117.517 387.678 116.35C389.811 115.183 392.361 114.6 395.328 114.6C399.795 114.6 403.278 115.883 405.778 118.45C408.311 121.017 409.578 124.567 409.578 129.1C409.578 132.1 409.011 134.683 407.878 136.85C406.745 139.017 405.111 140.683 402.978 141.85C400.845 143.017 398.295 143.6 395.328 143.6ZM395.328 137.3C397.328 137.3 398.895 136.567 400.028 135.1C401.195 133.633 401.778 131.633 401.778 129.1C401.778 126.533 401.195 124.533 400.028 123.1C398.895 121.633 397.328 120.9 395.328 120.9C393.295 120.9 391.695 121.633 390.528 123.1C389.395 124.533 388.828 126.533 388.828 129.1C388.828 131.633 389.395 133.633 390.528 135.1C391.695 136.567 393.295 137.3 395.328 137.3ZM421.948 115.2V132.35C421.948 133.783 422.314 134.933 423.048 135.8C423.781 136.667 424.748 137.1 425.948 137.1C427.314 137.1 428.564 136.65 429.698 135.75C430.864 134.817 432.081 133.233 433.348 131L434.448 137.6C433.181 139.767 431.648 141.317 429.848 142.25C428.048 143.15 426.214 143.6 424.348 143.6C422.214 143.6 420.381 143.15 418.848 142.25C417.348 141.35 416.181 140.1 415.348 138.5C414.548 136.9 414.148 135.017 414.148 132.85V115.2H421.948ZM440.498 115.2V143H432.948L432.698 138.05V115.2H440.498ZM456.467 143V106H464.267V143H456.467ZM447.467 143V136.7H473.367V143H447.467ZM450.967 112.3V106H460.367V112.3H450.967ZM488.987 143V106H496.787V143H488.987ZM479.987 143V136.7H505.887V143H479.987ZM483.487 112.3V106H492.887V112.3H483.487ZM521.506 143V115.2H529.306V143H521.506ZM512.506 143V136.7H538.406V143H512.506ZM516.006 121.5V115.2H525.406V121.5H516.006ZM521.206 111.5V104.2H529.506V111.5H521.206ZM554.626 120.5L553.776 104.95H562.076L561.226 120.5H554.626ZM591.145 143.6C588.545 143.6 586.262 143.183 584.295 142.35C582.329 141.483 580.795 140.267 579.695 138.7C578.629 137.1 578.079 135.217 578.045 133.05H585.295C585.229 134.583 585.712 135.783 586.745 136.65C587.812 137.517 589.262 137.95 591.095 137.95C592.429 137.95 593.495 137.733 594.295 137.3C595.129 136.833 595.545 136.2 595.545 135.4C595.545 134.7 595.229 134.15 594.595 133.75C593.995 133.317 593.195 132.983 592.195 132.75C591.195 132.483 590.095 132.233 588.895 132C587.695 131.733 586.479 131.417 585.245 131.05C584.045 130.683 582.945 130.2 581.945 129.6C580.945 128.967 580.129 128.15 579.495 127.15C578.895 126.117 578.595 124.833 578.595 123.3C578.595 121.533 579.095 120 580.095 118.7C581.095 117.4 582.479 116.4 584.245 115.7C586.045 114.967 588.112 114.6 590.445 114.6C594.012 114.6 596.895 115.433 599.095 117.1C601.329 118.733 602.562 121.033 602.795 124H595.595C595.529 122.767 595.029 121.833 594.095 121.2C593.162 120.567 591.962 120.25 590.495 120.25C589.262 120.25 588.279 120.467 587.545 120.9C586.812 121.333 586.445 121.983 586.445 122.85C586.445 123.55 586.745 124.1 587.345 124.5C587.979 124.867 588.795 125.167 589.795 125.4C590.795 125.633 591.895 125.85 593.095 126.05C594.329 126.25 595.545 126.533 596.745 126.9C597.945 127.233 599.045 127.7 600.045 128.3C601.045 128.9 601.845 129.7 602.445 130.7C603.079 131.7 603.395 132.983 603.395 134.55C603.395 137.383 602.279 139.6 600.045 141.2C597.845 142.8 594.879 143.6 591.145 143.6ZM648.134 132.05V125.3H656.084C657.684 125.3 658.968 124.817 659.934 123.85C660.901 122.85 661.384 121.55 661.384 119.95C661.384 118.417 660.901 117.183 659.934 116.25C658.968 115.317 657.684 114.85 656.084 114.85H648.134V108.1H656.134C658.901 108.1 661.318 108.583 663.384 109.55C665.451 110.517 667.051 111.9 668.184 113.7C669.318 115.467 669.884 117.55 669.884 119.95C669.884 122.383 669.318 124.517 668.184 126.35C667.051 128.15 665.451 129.55 663.384 130.55C661.351 131.55 658.934 132.05 656.134 132.05H648.134ZM642.234 143V108.1H650.484V143H642.234ZM693.954 129.1V125.35C693.954 124.083 693.621 123.067 692.954 122.3C692.287 121.5 691.287 121.1 689.954 121.1C688.454 121.1 687.037 121.6 685.704 122.6C684.371 123.6 683.104 125.333 681.904 127.8L681.104 121.25C681.971 119.783 682.921 118.567 683.954 117.6C684.987 116.6 686.121 115.85 687.354 115.35C688.621 114.85 690.004 114.6 691.504 114.6C694.471 114.6 696.921 115.517 698.854 117.35C700.787 119.15 701.754 121.817 701.754 125.35V129.1H693.954ZM675.404 143V115.2H682.904L683.204 120.2V143H675.404ZM716.623 143V115.2H724.423V143H716.623ZM707.623 143V136.7H733.523V143H707.623ZM711.123 121.5V115.2H720.523V121.5H711.123ZM716.323 111.5V104.2H724.623V111.5H716.323ZM758.493 143V125.85C758.493 124.417 758.126 123.267 757.393 122.4C756.66 121.533 755.693 121.1 754.493 121.1C753.126 121.1 751.86 121.567 750.693 122.5C749.56 123.4 748.36 124.967 747.093 127.2L745.993 120.6C747.26 118.433 748.793 116.9 750.593 116C752.393 115.067 754.226 114.6 756.093 114.6C758.226 114.6 760.043 115.05 761.543 115.95C763.076 116.85 764.243 118.1 765.043 119.7C765.876 121.3 766.293 123.183 766.293 125.35V143H758.493ZM739.943 143V115.2H747.493L747.743 120.15V143H739.943ZM785.963 143.6C783.029 143.6 780.496 143.017 778.363 141.85C776.263 140.683 774.646 139.017 773.513 136.85C772.413 134.683 771.863 132.1 771.863 129.1C771.863 126.033 772.446 123.417 773.613 121.25C774.813 119.083 776.479 117.433 778.613 116.3C780.746 115.167 783.263 114.6 786.163 114.6C788.696 114.6 790.929 115.05 792.863 115.95C794.829 116.85 796.379 118.117 797.513 119.75C798.679 121.35 799.313 123.267 799.413 125.5H791.613C791.346 123.967 790.746 122.833 789.813 122.1C788.913 121.333 787.696 120.95 786.163 120.95C784.896 120.95 783.763 121.267 782.763 121.9C781.796 122.533 781.029 123.45 780.463 124.65C779.929 125.85 779.663 127.333 779.663 129.1C779.663 131.733 780.263 133.767 781.463 135.2C782.696 136.633 784.196 137.35 785.963 137.35C786.996 137.35 787.896 137.167 788.663 136.8C789.463 136.433 790.129 135.917 790.663 135.25C791.196 134.55 791.563 133.767 791.763 132.9H799.563C799.363 135.067 798.663 136.95 797.463 138.55C796.263 140.15 794.679 141.4 792.713 142.3C790.746 143.167 788.496 143.6 785.963 143.6ZM814.182 143V115.2H821.982V143H814.182ZM805.182 143V136.7H831.082V143H805.182ZM808.682 121.5V115.2H818.082V121.5H808.682ZM813.882 111.5V104.2H822.182V111.5H813.882ZM852.902 114.6C855.335 114.6 857.468 115.25 859.302 116.55C861.168 117.817 862.635 119.55 863.702 121.75C864.768 123.95 865.302 126.4 865.302 129.1C865.302 131.767 864.768 134.2 863.702 136.4C862.635 138.6 861.168 140.35 859.302 141.65C857.468 142.95 855.335 143.6 852.902 143.6C851.302 143.6 849.818 143.317 848.452 142.75C847.085 142.15 845.918 141.35 844.952 140.35V151.9H837.152V115.2H844.702L844.852 117.9C845.818 116.867 846.985 116.067 848.352 115.5C849.752 114.9 851.268 114.6 852.902 114.6ZM850.902 137.2C852.202 137.2 853.335 136.833 854.302 136.1C855.302 135.367 856.085 134.4 856.652 133.2C857.218 131.967 857.502 130.6 857.502 129.1C857.502 127.567 857.218 126.2 856.652 125C856.085 123.767 855.302 122.8 854.302 122.1C853.335 121.367 852.202 121 850.902 121C849.535 121 848.318 121.417 847.252 122.25C846.185 123.083 845.418 124.2 844.952 125.6V132.55C845.418 133.95 846.185 135.083 847.252 135.95C848.318 136.783 849.535 137.2 850.902 137.2ZM879.221 143V106H887.021V143H879.221ZM870.221 143V136.7H896.121V143H870.221ZM873.721 112.3V106H883.121V112.3H873.721ZM915.891 143.6C912.891 143.6 910.307 143.017 908.141 141.85C906.007 140.683 904.357 139.017 903.191 136.85C902.024 134.683 901.441 132.1 901.441 129.1C901.441 126.067 902.024 123.467 903.191 121.3C904.357 119.133 906.041 117.483 908.241 116.35C910.474 115.183 913.157 114.6 916.291 114.6C921.191 114.6 924.741 116 926.941 118.8C929.174 121.567 930.107 125.383 929.741 130.25H907.641L907.691 124.9H921.791C921.691 123.633 921.124 122.617 920.091 121.85C919.057 121.05 917.774 120.65 916.241 120.65C913.841 120.65 912.074 121.4 910.941 122.9C909.807 124.4 909.241 126.583 909.241 129.45C909.241 130.883 909.491 132.2 909.991 133.4C910.491 134.6 911.224 135.567 912.191 136.3C913.191 137 914.424 137.35 915.891 137.35C917.457 137.35 918.774 136.967 919.841 136.2C920.941 135.433 921.607 134.467 921.841 133.3H929.641C929.307 136.467 927.907 138.983 925.441 140.85C923.007 142.683 919.824 143.6 915.891 143.6Z" fill="black"/>
<defs>
<clipPath id="clip0_780_200">
<rect width="115" height="115" fill="white" transform="translate(970 10)"/>
</clipPath>
</defs>
</svg>
