<svg width="500" height="250" viewBox="0 0 500 250" fill="none" xmlns="http://www.w3.org/2000/svg">
<rect width="500" height="250" fill="#1F3647"/>
<path d="M500 125C500 170.536 487.826 213.228 466.555 250C396 250 336.535 250 244 250C151.465 250 123.5 250 33.4454 250C12.1742 213.228 0 170.536 0 125C0 79.4643 12.1743 36.7719 33.4456 0.000232697C80 0.000232697 155.5 0.000250816 185.5 0.000183105C229.498 15.1009 203.048 0.000232697 259 0.000232697C351.535 0.000232697 367 0.000232697 466.554 0.000232697C487.826 36.7719 500 79.4643 500 125Z" fill="#A8B34D"/>
<path d="M406.133 0C433.581 34.24 450 77.7024 450 125C450 172.298 433.58 215.76 406.132 250H93.8682C66.4199 215.76 50 172.298 50 125C50 77.7024 66.4191 34.24 93.8672 0H406.133Z" fill="#F1D85F"/>
<path d="M332.941 0C373.36 26.8728 400 72.8247 400 125C400 177.175 373.36 223.127 332.941 250H167.059C126.64 223.127 100 177.175 100 125C100 72.8247 126.64 26.8728 167.059 0H332.941Z" fill="#F1A85F"/>
<circle cx="250" cy="125" r="100" fill="#F1775F"/>
<path d="M233 80L243 71.5L248.5 69.5L253.5 73.5L260 68H264.5L270 71.5L280 82.5H294.5L301.5 94.5V109V120L312.5 134L325 126.5H336V144.5L325 156L301.5 168H287.5H264.5L250.5 174H228.5L199.5 168L192.5 160L181 168V181L163 160L169.5 152V134H181L189.5 126.5L192.5 115H199.5L207 109L209 102.5L207 94.5L209 88L217.5 82.5L233 80Z" fill="url(#paint0_linear_69_148)"/>
<path d="M233 80L243 71.5L248.5 69.5L253.5 73.5L260 68H264.5L270 71.5L280 82.5H294.5L301.5 94.5V109V120L312.5 134L325 126.5H336V144.5L325 156L301.5 168H287.5H264.5V166L262.5 164.5H255.5L253.5 160L255.5 156L253.5 152H248.5L246.5 156H241V148.5L244.5 144.5H250.5L257.5 143.5C259.167 143.5 262.5 144 262.5 146C262.5 148 264.833 150.833 266 152H270L276 156L281.5 160L280 164.5L287.5 168H301.5L325 156L336 144.5V126.5H325L312.5 134L301.5 120V109V94.5L294.5 82.5H280L270 71.5L264.5 68H260L253.5 73.5L248.5 69.5L243 71.5L233 80L228.5 80.7258L226 82.5L220.5 85.5L222.5 91L217.5 99.5L215.5 111L222.5 122.5L233 126.5L241 128.5L236.5 139L228.5 144.5H220.5L217.5 150L212.5 156H201.5L197 150L199.5 146L195.5 139H192.5H189.5L181 134L189.5 126.5L192.5 115H199.5L207 109L209 102.5L207 94.5L209 88L217.5 82.5L228.5 80.7258L233 80Z" fill="url(#paint1_linear_69_148)"/>
<path d="M246.5 99.5L253.5 91L258.5 85.5L257 80L264.5 80.7258L262.5 88L260 97L264.5 105V113.5V120V128.5L255.5 126.5L257 120L258.5 115L248.5 109L244.5 102.5L246.5 99.5Z" fill="url(#paint2_linear_69_148)"/>
<path d="M233 80L243 71.5L248.5 69.5L253.5 73.5L260 68H264.5L270 71.5L280 82.5H294.5L301.5 94.5V109V120L312.5 134L325 126.5H336V144.5L325 156L301.5 168H287.5H277H264.5L270 163L268 159H264.5L261 162L257.5 160L259 157L264.5 153.5L270 152L276 153V157.5H282.5L286.5 151.5L290 144.5L286.5 139.5L290 136L294.5 139.5V144.5L293 153L286.5 159L291 161.5L296.5 159L301.5 157L294.5 163H287.5L280 162L274.5 165.5L277 168H287.5H301.5L325 156L336 144.5V126.5H325L312.5 134L301.5 120V109V94.5L294.5 93L287.5 89.5L282.5 93L277 91.5L268.5 97L260 94.5L253.5 99.5L246.5 97L253.5 94.5L255.5 86.5L262.5 82.5L264.5 89.5L274.5 91.5L280 88V82.5L270 71.5L264.5 68H260L253.5 73.5L248.5 69.5L243 71.5L233 80L217.5 82.5L209 88L207 94.5L209 102.5L207 109L199.5 115L205.5 122L214 130L222.5 134L228.5 132.5L231.5 130L228.5 126.5H224V118.5L237.5 125L235.5 130L233 132.5L231.5 137L233 142L235.5 144.5L237.5 146.5V152H233H228.5L220.5 153.5V157.5L216 156L217.5 148.5L212.5 142L207 137H201L199.5 134L201 126.5L197.5 125H192.5L189.5 126.5L192.5 115H199.5L207 109L209 102.5L207 94.5L209 88L217.5 82.5L233 80Z" fill="url(#paint3_linear_69_148)" style="mix-blend-mode:luminosity"/>
<defs>
<linearGradient id="paint0_linear_69_148" x1="249.5" y1="68" x2="249.5" y2="181" gradientUnits="userSpaceOnUse">
<stop stop-color="white"/>
<stop offset="1" stop-color="#EFEBE4"/>
</linearGradient>
<linearGradient id="paint1_linear_69_148" x1="249.5" y1="68" x2="249.5" y2="181" gradientUnits="userSpaceOnUse">
<stop stop-color="#F2F2F2"/>
<stop offset="1" stop-color="#ECE7DF"/>
</linearGradient>
<linearGradient id="paint2_linear_69_148" x1="249.5" y1="68" x2="249.5" y2="181" gradientUnits="userSpaceOnUse">
<stop stop-color="#F2F2F2"/>
<stop offset="1" stop-color="#ECE7DF"/>
</linearGradient>
<linearGradient id="paint3_linear_69_148" x1="249.5" y1="68" x2="249.5" y2="181" gradientUnits="userSpaceOnUse">
<stop stop-color="#E6E6E6"/>
<stop offset="1" stop-color="#B39F7F"/>
</linearGradient>
</defs>
</svg>
