<svg width="1630" height="610" viewBox="0 0 1630 610" fill="none" xmlns="http://www.w3.org/2000/svg">
<rect x="5" y="5" width="1620" height="600" fill="white" stroke="white" stroke-width="10"/>
<circle cx="1326" cy="305" r="50" fill="url(#paint0_radial_334_774)"/>
<circle cx="1226" cy="396" r="50" fill="url(#paint1_radial_334_774)"/>
<circle cx="1308" cy="391" r="50" fill="url(#paint2_radial_334_774)"/>
<circle cx="1376" cy="438" r="50" fill="url(#paint3_radial_334_774)"/>
<circle cx="1444" cy="483" r="50" fill="url(#paint4_radial_334_774)"/>
<circle cx="1499" cy="513" r="50" fill="url(#paint5_radial_334_774)"/>
<circle cx="1570" cy="488" r="50" fill="url(#paint6_radial_334_774)"/>
<circle cx="60" cy="359" r="50" fill="url(#paint7_radial_334_774)"/>
<circle cx="506" cy="409" r="50" fill="url(#paint8_radial_334_774)"/>
<circle cx="226" cy="323" r="50" fill="url(#paint9_radial_334_774)"/>
<circle cx="160" cy="527" r="50" fill="url(#paint10_radial_334_774)"/>
<circle cx="326" cy="459" r="50" fill="url(#paint11_radial_334_774)"/>
<circle cx="458" cy="255" r="50" fill="url(#paint12_radial_334_774)"/>
<circle cx="483" cy="527" r="50" fill="url(#paint13_radial_334_774)"/>
<path d="M747 326C741.477 326 737 330.477 737 336C737 341.523 741.477 346 747 346V336V326ZM1004.07 343.071C1007.98 339.166 1007.98 332.834 1004.07 328.929L940.431 265.289C936.526 261.384 930.195 261.384 926.289 265.289C922.384 269.195 922.384 275.526 926.289 279.431L982.858 336L926.289 392.569C922.384 396.474 922.384 402.805 926.289 406.711C930.195 410.616 936.526 410.616 940.431 406.711L1004.07 343.071ZM747 336V346H997V336V326H747V336Z" fill="#1F3647"/>
<path d="M755.256 250H748.225L761.027 213.636H769.159L781.979 250H774.947L765.235 221.094H764.951L755.256 250ZM755.487 235.742H774.663V241.033H755.487V235.742ZM792.912 234.02V250H786.484V222.727H792.628V227.362H792.947C793.575 225.835 794.575 224.621 795.948 223.722C797.333 222.822 799.043 222.372 801.079 222.372C802.961 222.372 804.601 222.775 805.998 223.58C807.406 224.384 808.495 225.55 809.265 227.077C810.046 228.604 810.431 230.457 810.419 232.635V250H803.991V233.629C803.991 231.806 803.518 230.38 802.571 229.35C801.636 228.32 800.34 227.805 798.682 227.805C797.558 227.805 796.558 228.054 795.682 228.551C794.818 229.036 794.137 229.741 793.64 230.664C793.154 231.587 792.912 232.706 792.912 234.02ZM824.801 250.55C823.073 250.55 821.516 250.243 820.131 249.627C818.758 249 817.669 248.076 816.864 246.857C816.071 245.638 815.675 244.135 815.675 242.347C815.675 240.808 815.959 239.536 816.527 238.53C817.095 237.524 817.87 236.719 818.853 236.115C819.835 235.511 820.942 235.056 822.173 234.748C823.416 234.428 824.7 234.197 826.026 234.055C827.624 233.89 828.92 233.742 829.915 233.612C830.909 233.469 831.631 233.256 832.081 232.972C832.542 232.676 832.773 232.221 832.773 231.605V231.499C832.773 230.161 832.377 229.125 831.584 228.391C830.791 227.657 829.648 227.29 828.157 227.29C826.582 227.29 825.334 227.634 824.41 228.32C823.499 229.007 822.883 229.818 822.564 230.753L816.562 229.901C817.036 228.243 817.817 226.858 818.906 225.746C819.995 224.621 821.327 223.781 822.901 223.224C824.475 222.656 826.215 222.372 828.121 222.372C829.435 222.372 830.743 222.526 832.045 222.834C833.347 223.142 834.537 223.651 835.614 224.361C836.691 225.059 837.555 226.012 838.206 227.219C838.869 228.427 839.201 229.936 839.201 231.747V250H833.022V246.254H832.809C832.418 247.011 831.868 247.721 831.157 248.384C830.459 249.035 829.577 249.562 828.512 249.964C827.458 250.355 826.221 250.55 824.801 250.55ZM826.47 245.827C827.76 245.827 828.879 245.573 829.826 245.064C830.773 244.543 831.501 243.857 832.01 243.004C832.531 242.152 832.791 241.223 832.791 240.217V237.003C832.59 237.169 832.247 237.322 831.761 237.464C831.288 237.607 830.755 237.731 830.163 237.837C829.571 237.944 828.985 238.039 828.405 238.121C827.825 238.204 827.322 238.275 826.896 238.335C825.937 238.465 825.079 238.678 824.322 238.974C823.564 239.27 822.966 239.684 822.528 240.217C822.09 240.737 821.871 241.412 821.871 242.241C821.871 243.424 822.303 244.318 823.167 244.922C824.032 245.526 825.132 245.827 826.47 245.827ZM845.948 250V213.636H852.376V227.237H852.642C852.973 226.574 853.441 225.87 854.045 225.124C854.648 224.367 855.465 223.722 856.495 223.189C857.525 222.644 858.839 222.372 860.437 222.372C862.544 222.372 864.443 222.911 866.136 223.988C867.841 225.053 869.19 226.634 870.184 228.729C871.191 230.812 871.694 233.369 871.694 236.399C871.694 239.394 871.202 241.939 870.22 244.034C869.238 246.129 867.9 247.727 866.207 248.828C864.515 249.929 862.597 250.479 860.454 250.479C858.892 250.479 857.596 250.219 856.566 249.698C855.536 249.177 854.707 248.55 854.08 247.816C853.465 247.07 852.985 246.366 852.642 245.703H852.269V250H845.948ZM852.251 236.364C852.251 238.127 852.5 239.672 852.997 240.998C853.506 242.324 854.234 243.359 855.181 244.105C856.14 244.839 857.3 245.206 858.661 245.206C860.081 245.206 861.271 244.827 862.23 244.07C863.189 243.3 863.911 242.253 864.396 240.927C864.893 239.589 865.142 238.068 865.142 236.364C865.142 234.671 864.899 233.168 864.414 231.854C863.929 230.54 863.206 229.51 862.248 228.764C861.289 228.018 860.093 227.646 858.661 227.646C857.288 227.646 856.122 228.007 855.163 228.729C854.204 229.451 853.476 230.463 852.979 231.765C852.494 233.067 852.251 234.6 852.251 236.364ZM889.054 250.533C886.391 250.533 884.083 249.947 882.13 248.775C880.176 247.603 878.661 245.964 877.584 243.857C876.519 241.75 875.986 239.287 875.986 236.47C875.986 233.653 876.519 231.185 877.584 229.066C878.661 226.947 880.176 225.302 882.13 224.13C884.083 222.958 886.391 222.372 889.054 222.372C891.718 222.372 894.026 222.958 895.979 224.13C897.932 225.302 899.441 226.947 900.507 229.066C901.584 231.185 902.123 233.653 902.123 236.47C902.123 239.287 901.584 241.75 900.507 243.857C899.441 245.964 897.932 247.603 895.979 248.775C894.026 249.947 891.718 250.533 889.054 250.533ZM889.09 245.384C890.534 245.384 891.741 244.987 892.712 244.194C893.683 243.389 894.405 242.312 894.878 240.962C895.364 239.613 895.606 238.11 895.606 236.452C895.606 234.783 895.364 233.274 894.878 231.925C894.405 230.563 893.683 229.48 892.712 228.675C891.741 227.871 890.534 227.468 889.09 227.468C887.61 227.468 886.379 227.871 885.397 228.675C884.426 229.48 883.698 230.563 883.213 231.925C882.739 233.274 882.502 234.783 882.502 236.452C882.502 238.11 882.739 239.613 883.213 240.962C883.698 242.312 884.426 243.389 885.397 244.194C886.379 244.987 887.61 245.384 889.09 245.384ZM914.006 213.636V250H907.578V213.636H914.006ZM920.615 250V222.727H927.043V250H920.615ZM923.847 218.857C922.829 218.857 921.953 218.519 921.219 217.844C920.485 217.158 920.118 216.335 920.118 215.376C920.118 214.406 920.485 213.583 921.219 212.908C921.953 212.222 922.829 211.879 923.847 211.879C924.876 211.879 925.752 212.222 926.474 212.908C927.208 213.583 927.575 214.406 927.575 215.376C927.575 216.335 927.208 217.158 926.474 217.844C925.752 218.519 924.876 218.857 923.847 218.857ZM955.208 229.936L949.348 230.575C949.182 229.983 948.892 229.427 948.478 228.906C948.076 228.385 947.531 227.965 946.845 227.646C946.158 227.326 945.318 227.166 944.323 227.166C942.986 227.166 941.861 227.456 940.95 228.036C940.05 228.616 939.606 229.368 939.618 230.291C939.606 231.084 939.896 231.729 940.488 232.227C941.092 232.724 942.086 233.132 943.471 233.452L948.123 234.446C950.704 235.002 952.621 235.884 953.876 237.092C955.142 238.299 955.782 239.879 955.794 241.832C955.782 243.549 955.279 245.064 954.284 246.378C953.302 247.68 951.935 248.698 950.183 249.432C948.431 250.166 946.419 250.533 944.146 250.533C940.808 250.533 938.121 249.834 936.085 248.438C934.049 247.029 932.835 245.07 932.445 242.56L938.713 241.957C938.997 243.188 939.6 244.117 940.524 244.744C941.447 245.372 942.648 245.685 944.128 245.685C945.655 245.685 946.88 245.372 947.803 244.744C948.739 244.117 949.206 243.342 949.206 242.418C949.206 241.637 948.904 240.992 948.301 240.483C947.709 239.974 946.785 239.583 945.531 239.311L940.879 238.335C938.263 237.79 936.327 236.873 935.073 235.582C933.818 234.28 933.196 232.635 933.208 230.646C933.196 228.965 933.652 227.509 934.575 226.278C935.511 225.036 936.807 224.077 938.464 223.402C940.133 222.715 942.057 222.372 944.235 222.372C947.431 222.372 949.946 223.053 951.781 224.414C953.627 225.775 954.77 227.616 955.208 229.936ZM961.094 250V222.727H967.237V227.362H967.557C968.125 225.799 969.066 224.58 970.38 223.704C971.694 222.816 973.262 222.372 975.085 222.372C976.932 222.372 978.488 222.822 979.755 223.722C981.033 224.609 981.933 225.823 982.454 227.362H982.738C983.341 225.846 984.359 224.639 985.792 223.739C987.236 222.828 988.946 222.372 990.923 222.372C993.433 222.372 995.48 223.165 997.067 224.751C998.653 226.338 999.446 228.652 999.446 231.694V250H993.001V232.688C993.001 230.996 992.551 229.759 991.651 228.977C990.751 228.184 989.651 227.788 988.349 227.788C986.798 227.788 985.585 228.273 984.709 229.244C983.845 230.202 983.412 231.451 983.412 232.99V250H977.109V232.422C977.109 231.013 976.683 229.889 975.831 229.048C974.99 228.208 973.89 227.788 972.528 227.788C971.605 227.788 970.765 228.024 970.007 228.498C969.249 228.96 968.646 229.616 968.196 230.469C967.746 231.309 967.521 232.292 967.521 233.416V250H961.094Z" fill="black"/>
<path d="M985 475C990.523 475 995 470.523 995 465C995 459.477 990.523 455 985 455V465V475ZM727.929 457.929C724.024 461.834 724.024 468.166 727.929 472.071L791.569 535.711C795.474 539.616 801.805 539.616 805.711 535.711C809.616 531.805 809.616 525.474 805.711 521.569L749.142 465L805.711 408.431C809.616 404.526 809.616 398.195 805.711 394.289C801.805 390.384 795.474 390.384 791.569 394.289L727.929 457.929ZM985 465V455L735 455V465V475L985 475V465Z" fill="#1F3647"/>
<path d="M763.712 563.906H757.072C756.882 562.817 756.533 561.852 756.024 561.011C755.515 560.159 754.882 559.437 754.124 558.845C753.367 558.253 752.503 557.809 751.532 557.513C750.573 557.206 749.537 557.052 748.425 557.052C746.448 557.052 744.696 557.549 743.169 558.543C741.642 559.526 740.446 560.97 739.582 562.876C738.718 564.77 738.286 567.084 738.286 569.818C738.286 572.6 738.718 574.944 739.582 576.849C740.458 578.743 741.654 580.176 743.169 581.146C744.696 582.105 746.442 582.585 748.407 582.585C749.496 582.585 750.514 582.442 751.461 582.158C752.42 581.862 753.278 581.43 754.036 580.862C754.805 580.294 755.45 579.596 755.971 578.767C756.504 577.938 756.871 576.991 757.072 575.926L763.712 575.962C763.464 577.69 762.925 579.312 762.097 580.827C761.28 582.342 760.209 583.679 758.883 584.839C757.557 585.988 756.006 586.887 754.231 587.538C752.455 588.178 750.484 588.497 748.318 588.497C745.122 588.497 742.269 587.757 739.76 586.278C737.25 584.798 735.274 582.661 733.83 579.868C732.385 577.074 731.663 573.724 731.663 569.818C731.663 565.9 732.391 562.55 733.847 559.768C735.303 556.975 737.286 554.838 739.795 553.359C742.305 551.879 745.146 551.139 748.318 551.139C750.342 551.139 752.224 551.423 753.964 551.991C755.705 552.56 757.255 553.394 758.616 554.495C759.978 555.584 761.096 556.922 761.972 558.508C762.86 560.082 763.44 561.881 763.712 563.906ZM777.309 588.55C775.581 588.55 774.024 588.243 772.639 587.627C771.266 587 770.177 586.076 769.372 584.857C768.579 583.638 768.182 582.135 768.182 580.347C768.182 578.808 768.466 577.536 769.035 576.53C769.603 575.524 770.378 574.719 771.361 574.115C772.343 573.511 773.45 573.056 774.681 572.748C775.924 572.428 777.208 572.197 778.534 572.055C780.132 571.89 781.428 571.742 782.422 571.612C783.417 571.469 784.139 571.256 784.589 570.972C785.05 570.676 785.281 570.221 785.281 569.605V569.499C785.281 568.161 784.885 567.125 784.091 566.391C783.298 565.657 782.156 565.29 780.665 565.29C779.09 565.29 777.841 565.634 776.918 566.32C776.007 567.007 775.391 567.818 775.072 568.753L769.07 567.901C769.544 566.243 770.325 564.858 771.414 563.746C772.503 562.621 773.835 561.781 775.409 561.224C776.983 560.656 778.723 560.372 780.629 560.372C781.943 560.372 783.251 560.526 784.553 560.834C785.855 561.142 787.045 561.651 788.122 562.361C789.199 563.059 790.063 564.012 790.714 565.219C791.377 566.427 791.709 567.936 791.709 569.747V588H785.53V584.254H785.317C784.926 585.011 784.376 585.721 783.665 586.384C782.967 587.035 782.085 587.562 781.02 587.964C779.966 588.355 778.729 588.55 777.309 588.55ZM778.978 583.827C780.268 583.827 781.387 583.573 782.334 583.064C783.281 582.543 784.009 581.857 784.518 581.004C785.038 580.152 785.299 579.223 785.299 578.217V575.003C785.098 575.169 784.754 575.322 784.269 575.464C783.796 575.607 783.263 575.731 782.671 575.837C782.079 575.944 781.493 576.039 780.913 576.121C780.333 576.204 779.83 576.275 779.404 576.335C778.445 576.465 777.587 576.678 776.829 576.974C776.072 577.27 775.474 577.684 775.036 578.217C774.598 578.737 774.379 579.412 774.379 580.241C774.379 581.424 774.811 582.318 775.675 582.922C776.539 583.526 777.64 583.827 778.978 583.827ZM811.79 560.727V565.699H796.112V560.727H811.79ZM799.983 554.193H806.41V579.797C806.41 580.661 806.541 581.324 806.801 581.786C807.073 582.235 807.428 582.543 807.866 582.709C808.304 582.875 808.79 582.957 809.322 582.957C809.725 582.957 810.092 582.928 810.423 582.869C810.766 582.809 811.027 582.756 811.204 582.709L812.287 587.734C811.944 587.852 811.453 587.982 810.814 588.124C810.186 588.266 809.417 588.349 808.506 588.373C806.896 588.42 805.446 588.178 804.155 587.645C802.865 587.1 801.841 586.26 801.084 585.124C800.338 583.987 799.971 582.567 799.983 580.862V554.193ZM825.014 588.55C823.286 588.55 821.729 588.243 820.344 587.627C818.971 587 817.882 586.076 817.077 584.857C816.284 583.638 815.887 582.135 815.887 580.347C815.887 578.808 816.172 577.536 816.74 576.53C817.308 575.524 818.083 574.719 819.066 574.115C820.048 573.511 821.155 573.056 822.386 572.748C823.629 572.428 824.913 572.197 826.239 572.055C827.837 571.89 829.133 571.742 830.127 571.612C831.122 571.469 831.844 571.256 832.294 570.972C832.755 570.676 832.986 570.221 832.986 569.605V569.499C832.986 568.161 832.59 567.125 831.797 566.391C831.003 565.657 829.861 565.29 828.37 565.29C826.795 565.29 825.547 565.634 824.623 566.32C823.712 567.007 823.096 567.818 822.777 568.753L816.775 567.901C817.249 566.243 818.03 564.858 819.119 563.746C820.208 562.621 821.54 561.781 823.114 561.224C824.688 560.656 826.428 560.372 828.334 560.372C829.648 560.372 830.956 560.526 832.258 560.834C833.56 561.142 834.75 561.651 835.827 562.361C836.904 563.059 837.768 564.012 838.419 565.219C839.082 566.427 839.414 567.936 839.414 569.747V588H833.235V584.254H833.022C832.631 585.011 832.081 585.721 831.37 586.384C830.672 587.035 829.79 587.562 828.725 587.964C827.671 588.355 826.434 588.55 825.014 588.55ZM826.683 583.827C827.973 583.827 829.092 583.573 830.039 583.064C830.986 582.543 831.714 581.857 832.223 581.004C832.743 580.152 833.004 579.223 833.004 578.217V575.003C832.803 575.169 832.459 575.322 831.974 575.464C831.501 575.607 830.968 575.731 830.376 575.837C829.784 575.944 829.198 576.039 828.618 576.121C828.038 576.204 827.535 576.275 827.109 576.335C826.15 576.465 825.292 576.678 824.534 576.974C823.777 577.27 823.179 577.684 822.741 578.217C822.303 578.737 822.084 579.412 822.084 580.241C822.084 581.424 822.516 582.318 823.38 582.922C824.244 583.526 825.345 583.827 826.683 583.827ZM846.161 588V551.636H852.588V565.237H852.855C853.186 564.574 853.654 563.87 854.257 563.124C854.861 562.367 855.678 561.722 856.708 561.189C857.738 560.644 859.051 560.372 860.65 560.372C862.757 560.372 864.656 560.911 866.349 561.988C868.054 563.053 869.403 564.634 870.397 566.729C871.404 568.812 871.907 571.369 871.907 574.399C871.907 577.394 871.415 579.939 870.433 582.034C869.45 584.129 868.113 585.727 866.42 586.828C864.727 587.929 862.81 588.479 860.667 588.479C859.105 588.479 857.809 588.219 856.779 587.698C855.749 587.177 854.92 586.55 854.293 585.816C853.677 585.07 853.198 584.366 852.855 583.703H852.482V588H846.161ZM852.464 574.364C852.464 576.127 852.713 577.672 853.21 578.998C853.719 580.324 854.447 581.359 855.394 582.105C856.353 582.839 857.513 583.206 858.874 583.206C860.294 583.206 861.484 582.827 862.443 582.07C863.402 581.3 864.124 580.253 864.609 578.927C865.106 577.589 865.355 576.068 865.355 574.364C865.355 572.671 865.112 571.168 864.627 569.854C864.141 568.54 863.419 567.51 862.461 566.764C861.502 566.018 860.306 565.646 858.874 565.646C857.501 565.646 856.335 566.007 855.376 566.729C854.417 567.451 853.689 568.463 853.192 569.765C852.707 571.067 852.464 572.6 852.464 574.364ZM889.267 588.533C886.604 588.533 884.296 587.947 882.343 586.775C880.389 585.603 878.874 583.964 877.797 581.857C876.732 579.75 876.199 577.287 876.199 574.47C876.199 571.653 876.732 569.185 877.797 567.066C878.874 564.947 880.389 563.302 882.343 562.13C884.296 560.958 886.604 560.372 889.267 560.372C891.931 560.372 894.239 560.958 896.192 562.13C898.145 563.302 899.654 564.947 900.72 567.066C901.797 569.185 902.335 571.653 902.335 574.47C902.335 577.287 901.797 579.75 900.72 581.857C899.654 583.964 898.145 585.603 896.192 586.775C894.239 587.947 891.931 588.533 889.267 588.533ZM889.303 583.384C890.747 583.384 891.954 582.987 892.925 582.194C893.896 581.389 894.618 580.312 895.091 578.962C895.576 577.613 895.819 576.11 895.819 574.452C895.819 572.783 895.576 571.274 895.091 569.925C894.618 568.563 893.896 567.48 892.925 566.675C891.954 565.871 890.747 565.468 889.303 565.468C887.823 565.468 886.592 565.871 885.61 566.675C884.639 567.48 883.911 568.563 883.426 569.925C882.952 571.274 882.715 572.783 882.715 574.452C882.715 576.11 882.952 577.613 883.426 578.962C883.911 580.312 884.639 581.389 885.61 582.194C886.592 582.987 887.823 583.384 889.303 583.384ZM914.218 551.636V588H907.791V551.636H914.218ZM920.828 588V560.727H927.256V588H920.828ZM924.059 556.857C923.041 556.857 922.166 556.519 921.432 555.844C920.698 555.158 920.331 554.335 920.331 553.376C920.331 552.406 920.698 551.583 921.432 550.908C922.166 550.222 923.041 549.879 924.059 549.879C925.089 549.879 925.965 550.222 926.687 550.908C927.421 551.583 927.788 552.406 927.788 553.376C927.788 554.335 927.421 555.158 926.687 555.844C925.965 556.519 925.089 556.857 924.059 556.857ZM955.42 567.936L949.561 568.575C949.395 567.983 949.105 567.427 948.691 566.906C948.289 566.385 947.744 565.965 947.058 565.646C946.371 565.326 945.531 565.166 944.536 565.166C943.199 565.166 942.074 565.456 941.163 566.036C940.263 566.616 939.819 567.368 939.831 568.291C939.819 569.084 940.109 569.729 940.701 570.227C941.305 570.724 942.299 571.132 943.684 571.452L948.336 572.446C950.916 573.002 952.834 573.884 954.089 575.092C955.355 576.299 955.995 577.879 956.006 579.832C955.995 581.549 955.491 583.064 954.497 584.378C953.515 585.68 952.147 586.698 950.396 587.432C948.644 588.166 946.631 588.533 944.359 588.533C941.021 588.533 938.334 587.834 936.298 586.438C934.262 585.029 933.048 583.07 932.658 580.56L938.925 579.957C939.21 581.188 939.813 582.117 940.737 582.744C941.66 583.372 942.861 583.685 944.341 583.685C945.868 583.685 947.093 583.372 948.016 582.744C948.951 582.117 949.419 581.342 949.419 580.418C949.419 579.637 949.117 578.992 948.513 578.483C947.922 577.974 946.998 577.583 945.744 577.311L941.092 576.335C938.476 575.79 936.54 574.873 935.286 573.582C934.031 572.28 933.409 570.635 933.421 568.646C933.409 566.965 933.865 565.509 934.788 564.278C935.723 563.036 937.02 562.077 938.677 561.402C940.346 560.715 942.269 560.372 944.447 560.372C947.643 560.372 950.159 561.053 951.994 562.414C953.84 563.775 954.982 565.616 955.42 567.936ZM961.306 588V560.727H967.45V565.362H967.77C968.338 563.799 969.279 562.58 970.593 561.704C971.907 560.816 973.475 560.372 975.298 560.372C977.145 560.372 978.701 560.822 979.968 561.722C981.246 562.609 982.146 563.823 982.667 565.362H982.951C983.554 563.846 984.572 562.639 986.005 561.739C987.449 560.828 989.159 560.372 991.136 560.372C993.645 560.372 995.693 561.165 997.279 562.751C998.866 564.338 999.659 566.652 999.659 569.694V588H993.213V570.688C993.213 568.996 992.764 567.759 991.864 566.977C990.964 566.184 989.864 565.788 988.561 565.788C987.011 565.788 985.797 566.273 984.922 567.244C984.057 568.202 983.625 569.451 983.625 570.99V588H977.322V570.422C977.322 569.013 976.896 567.889 976.044 567.048C975.203 566.208 974.102 565.788 972.741 565.788C971.818 565.788 970.977 566.024 970.22 566.498C969.462 566.96 968.859 567.616 968.409 568.469C967.959 569.309 967.734 570.292 967.734 571.416V588H961.306Z" fill="black"/>
<g clip-path="url(#clip0_334_774)">
<path d="M1620 10H1505V125H1620V10Z" fill="#0077CC"/>
<path d="M1568.76 26.1001C1571.94 26.1001 1574.51 28.6745 1574.51 31.8501V64.6869L1594.97 100.592C1597.15 104.425 1594.38 109.188 1589.97 109.188H1536.06C1531.65 109.187 1528.88 104.425 1531.06 100.592L1551.51 64.6869V31.8501C1551.51 28.6745 1554.09 26.1002 1557.26 26.1001H1568.76Z" fill="#0077CC"/>
<path d="M1574.51 64.6869H1571.64V65.4483L1572.02 66.1099L1574.51 64.6869ZM1551.51 64.6869L1554.01 66.1099L1554.39 65.4483V64.6869H1551.51ZM1568.76 26.1001V28.9751C1570.35 28.9751 1571.64 30.2623 1571.64 31.8501H1574.51H1577.39C1577.39 27.0867 1573.53 23.2251 1568.76 23.2251V26.1001ZM1574.51 31.8501H1571.64V64.6869H1574.51H1577.39V31.8501H1574.51ZM1574.51 64.6869L1572.02 66.1099L1592.47 102.015L1594.97 100.592L1597.47 99.1689L1577.01 63.2638L1574.51 64.6869ZM1594.97 100.592L1592.47 102.015C1593.56 103.931 1592.18 106.313 1589.97 106.313V109.188V112.063C1596.59 112.063 1600.74 104.919 1597.47 99.1689L1594.97 100.592ZM1589.97 109.188V106.313H1536.06V109.188L1536.06 112.063H1589.97V109.188ZM1536.06 109.188V106.313C1533.85 106.312 1532.47 103.931 1533.56 102.015L1531.06 100.592L1528.56 99.1688C1525.29 104.919 1529.44 112.062 1536.06 112.063L1536.06 109.188ZM1531.06 100.592L1533.56 102.015L1554.01 66.1099L1551.51 64.6869L1549.02 63.2638L1528.56 99.1688L1531.06 100.592ZM1551.51 64.6869H1554.39V31.8501H1551.51H1548.64V64.6869H1551.51ZM1551.51 31.8501H1554.39C1554.39 30.2624 1555.68 28.9751 1557.26 28.9751L1557.26 26.1001V23.2251C1552.5 23.2252 1548.64 27.0866 1548.64 31.8501H1551.51ZM1557.26 26.1001L1557.26 28.9751H1568.76V26.1001V23.2251H1557.26V26.1001Z" fill="white"/>
<path d="M1571.93 66.9255C1572.12 66.9255 1572.31 66.9373 1572.5 66.9559L1592.47 102.015C1593.56 103.932 1592.18 106.313 1589.97 106.313H1536.06C1533.85 106.313 1532.47 103.932 1533.56 102.015L1553.55 66.9255H1571.93Z" fill="white"/>
<mask id="mask0_334_774" style="mask-type:luminance" maskUnits="userSpaceOnUse" x="1533" y="66" width="60" height="41">
<path d="M1571.93 66.9255C1572.12 66.9255 1572.31 66.9373 1572.5 66.9559L1592.47 102.015C1593.56 103.932 1592.18 106.313 1589.97 106.313H1536.06C1533.85 106.313 1532.47 103.932 1533.56 102.015L1553.55 66.9255H1571.93Z" fill="white"/>
</mask>
<g mask="url(#mask0_334_774)">
<path d="M1572.5 66.9559L1575.5 65.2483L1574.61 63.6982L1572.84 63.5226L1572.5 66.9559ZM1553.55 66.9256V63.4756H1551.54L1550.55 65.2179L1553.55 66.9256ZM1571.93 66.9256V70.3756C1571.98 70.3756 1572.05 70.3787 1572.16 70.3892L1572.5 66.9559L1572.84 63.5226C1572.57 63.4961 1572.26 63.4756 1571.93 63.4756V66.9256ZM1572.5 66.9559L1569.5 68.6636L1589.47 103.723L1592.47 102.015L1595.47 100.308L1575.5 65.2483L1572.5 66.9559ZM1592.47 102.015L1589.47 103.723C1589.25 103.339 1589.53 102.863 1589.97 102.863L1589.97 106.313V109.763C1594.82 109.763 1597.87 104.525 1595.47 100.308L1592.47 102.015ZM1589.97 106.313L1589.97 102.863H1536.06V106.313L1536.06 109.763H1589.97V106.313ZM1536.06 106.313V102.863C1536.5 102.863 1536.78 103.339 1536.56 103.723L1533.56 102.015L1530.56 100.308C1528.16 104.524 1531.21 109.762 1536.06 109.763L1536.06 106.313ZM1533.56 102.015L1536.56 103.723L1556.55 68.6332L1553.55 66.9256L1550.55 65.2179L1530.56 100.308L1533.56 102.015ZM1553.55 66.9256V70.3756H1571.93V66.9256V63.4756H1553.55V66.9256Z" fill="#0077CC"/>
</g>
</g>
<path d="M1083.08 45V23.8875H1075.43V18.825H1096.91V23.8875H1089.26V45H1083.08ZM1114.66 45V32.175C1114.66 31.075 1114.39 30.2 1113.84 29.55C1113.29 28.9 1112.56 28.575 1111.66 28.575C1110.64 28.575 1109.69 28.925 1108.81 29.625C1107.96 30.3 1107.06 31.475 1106.11 33.15L1105.29 28.2375C1106.24 26.5875 1107.39 25.425 1108.74 24.75C1110.09 24.05 1111.46 23.7 1112.86 23.7C1114.46 23.7 1115.83 24.0375 1116.95 24.7125C1118.1 25.3875 1118.98 26.3375 1119.58 27.5625C1120.2 28.7625 1120.51 30.175 1120.51 31.8V45H1114.66ZM1100.75 45V17.2125H1106.6V45H1100.75ZM1135.15 45.45C1132.9 45.45 1130.97 45.0125 1129.34 44.1375C1127.74 43.2625 1126.5 42.0125 1125.63 40.3875C1124.75 38.7625 1124.32 36.825 1124.32 34.575C1124.32 32.3 1124.75 30.35 1125.63 28.725C1126.5 27.1 1127.77 25.8625 1129.42 25.0125C1131.09 24.1375 1133.1 23.7 1135.45 23.7C1139.13 23.7 1141.79 24.75 1143.44 26.85C1145.12 28.925 1145.82 31.7875 1145.54 35.4375H1128.97L1129 31.425H1139.58C1139.5 30.475 1139.08 29.7125 1138.3 29.1375C1137.53 28.5375 1136.57 28.2375 1135.42 28.2375C1133.62 28.2375 1132.29 28.8 1131.44 29.925C1130.59 31.05 1130.17 32.6875 1130.17 34.8375C1130.17 35.9125 1130.35 36.9 1130.73 37.8C1131.1 38.7 1131.65 39.425 1132.38 39.975C1133.13 40.5 1134.05 40.7625 1135.15 40.7625C1136.33 40.7625 1137.32 40.475 1138.12 39.9C1138.94 39.325 1139.44 38.6 1139.62 37.725H1145.47C1145.22 40.1 1144.17 41.9875 1142.32 43.3875C1140.49 44.7625 1138.1 45.45 1135.15 45.45ZM1183.9 45.45C1181.75 45.45 1179.9 45.05 1178.35 44.25C1176.82 43.425 1175.65 42.275 1174.82 40.8C1174.02 39.3 1173.62 37.5375 1173.62 35.5125H1179.7C1179.7 37.0875 1180.03 38.3 1180.71 39.15C1181.41 39.975 1182.47 40.3875 1183.9 40.3875C1185.02 40.3875 1185.91 40.15 1186.56 39.675C1187.23 39.175 1187.57 38.475 1187.57 37.575C1187.57 36.9 1187.32 36.375 1186.82 36C1186.35 35.6 1185.7 35.275 1184.87 35.025C1184.07 34.75 1183.18 34.5 1182.21 34.275C1181.26 34.025 1180.3 33.725 1179.32 33.375C1178.37 33.025 1177.48 32.5625 1176.66 31.9875C1175.86 31.4125 1175.21 30.6625 1174.71 29.7375C1174.23 28.8125 1174 27.6375 1174 26.2125C1174 24.7375 1174.4 23.4125 1175.2 22.2375C1176.02 21.0625 1177.16 20.125 1178.61 19.425C1180.06 18.725 1181.76 18.375 1183.71 18.375C1185.48 18.375 1187.13 18.725 1188.66 19.425C1190.18 20.1 1191.42 21.0875 1192.37 22.3875C1193.32 23.6875 1193.82 25.2875 1193.87 27.1875H1187.68C1187.63 26.3375 1187.41 25.6375 1187.01 25.0875C1186.63 24.5375 1186.15 24.125 1185.55 23.85C1184.97 23.575 1184.36 23.4375 1183.71 23.4375C1182.78 23.4375 1182 23.6625 1181.35 24.1125C1180.7 24.5375 1180.37 25.175 1180.37 26.025C1180.37 26.675 1180.61 27.1875 1181.08 27.5625C1181.58 27.9375 1182.23 28.25 1183.03 28.5C1183.86 28.725 1184.75 28.95 1185.7 29.175C1186.67 29.4 1187.63 29.6875 1188.58 30.0375C1189.56 30.3625 1190.45 30.825 1191.25 31.425C1192.07 32.025 1192.72 32.825 1193.2 33.825C1193.7 34.8 1193.95 36.05 1193.95 37.575C1193.95 39.1 1193.51 40.4625 1192.63 41.6625C1191.78 42.8375 1190.6 43.7625 1189.07 44.4375C1187.57 45.1125 1185.85 45.45 1183.9 45.45ZM1208.44 45.45C1206.24 45.45 1204.34 45.0125 1202.74 44.1375C1201.16 43.2625 1199.95 42.0125 1199.1 40.3875C1198.27 38.7625 1197.86 36.825 1197.86 34.575C1197.86 32.275 1198.3 30.3125 1199.17 28.6875C1200.07 27.0625 1201.32 25.825 1202.92 24.975C1204.52 24.125 1206.41 23.7 1208.59 23.7C1210.49 23.7 1212.16 24.0375 1213.61 24.7125C1215.09 25.3875 1216.25 26.3375 1217.1 27.5625C1217.97 28.7625 1218.45 30.2 1218.52 31.875H1212.67C1212.47 30.725 1212.02 29.875 1211.32 29.325C1210.65 28.75 1209.74 28.4625 1208.59 28.4625C1207.64 28.4625 1206.79 28.7 1206.04 29.175C1205.31 29.65 1204.74 30.3375 1204.31 31.2375C1203.91 32.1375 1203.71 33.25 1203.71 34.575C1203.71 36.55 1204.16 38.075 1205.06 39.15C1205.99 40.225 1207.11 40.7625 1208.44 40.7625C1209.21 40.7625 1209.89 40.625 1210.46 40.35C1211.06 40.075 1211.56 39.6875 1211.96 39.1875C1212.36 38.6625 1212.64 38.075 1212.79 37.425H1218.64C1218.49 39.05 1217.96 40.4625 1217.06 41.6625C1216.16 42.8625 1214.97 43.8 1213.5 44.475C1212.02 45.125 1210.34 45.45 1208.44 45.45ZM1229.6 45V24.15H1235.45V45H1229.6ZM1222.85 45V40.275H1242.28V45H1222.85ZM1225.48 28.875V24.15H1232.53V28.875H1225.48ZM1229.38 21.375V15.9H1235.6V21.375H1229.38ZM1257.1 45.45C1254.85 45.45 1252.92 45.0125 1251.29 44.1375C1249.69 43.2625 1248.45 42.0125 1247.58 40.3875C1246.7 38.7625 1246.27 36.825 1246.27 34.575C1246.27 32.3 1246.7 30.35 1247.58 28.725C1248.45 27.1 1249.72 25.8625 1251.37 25.0125C1253.04 24.1375 1255.05 23.7 1257.4 23.7C1261.08 23.7 1263.74 24.75 1265.39 26.85C1267.07 28.925 1267.77 31.7875 1267.49 35.4375H1250.92L1250.95 31.425H1261.53C1261.45 30.475 1261.03 29.7125 1260.25 29.1375C1259.48 28.5375 1258.52 28.2375 1257.37 28.2375C1255.57 28.2375 1254.24 28.8 1253.39 29.925C1252.54 31.05 1252.12 32.6875 1252.12 34.8375C1252.12 35.9125 1252.3 36.9 1252.68 37.8C1253.05 38.7 1253.6 39.425 1254.33 39.975C1255.08 40.5 1256 40.7625 1257.1 40.7625C1258.28 40.7625 1259.27 40.475 1260.07 39.9C1260.89 39.325 1261.39 38.6 1261.57 37.725H1267.42C1267.17 40.1 1266.12 41.9875 1264.27 43.3875C1262.44 44.7625 1260.05 45.45 1257.1 45.45ZM1285.39 45V32.1375C1285.39 31.0625 1285.12 30.2 1284.57 29.55C1284.02 28.9 1283.29 28.575 1282.39 28.575C1281.37 28.575 1280.42 28.925 1279.54 29.625C1278.69 30.3 1277.79 31.475 1276.84 33.15L1276.02 28.2C1276.97 26.575 1278.12 25.425 1279.47 24.75C1280.82 24.05 1282.19 23.7 1283.59 23.7C1285.19 23.7 1286.55 24.0375 1287.68 24.7125C1288.83 25.3875 1289.7 26.325 1290.3 27.525C1290.93 28.725 1291.24 30.1375 1291.24 31.7625V45H1285.39ZM1271.48 45V24.15H1277.14L1277.33 27.8625V45H1271.48ZM1305.99 45.45C1303.79 45.45 1301.89 45.0125 1300.29 44.1375C1298.72 43.2625 1297.51 42.0125 1296.66 40.3875C1295.83 38.7625 1295.42 36.825 1295.42 34.575C1295.42 32.275 1295.86 30.3125 1296.73 28.6875C1297.63 27.0625 1298.88 25.825 1300.48 24.975C1302.08 24.125 1303.97 23.7 1306.14 23.7C1308.04 23.7 1309.72 24.0375 1311.17 24.7125C1312.64 25.3875 1313.81 26.3375 1314.66 27.5625C1315.53 28.7625 1316.01 30.2 1316.08 31.875H1310.23C1310.03 30.725 1309.58 29.875 1308.88 29.325C1308.21 28.75 1307.29 28.4625 1306.14 28.4625C1305.19 28.4625 1304.34 28.7 1303.59 29.175C1302.87 29.65 1302.29 30.3375 1301.87 31.2375C1301.47 32.1375 1301.27 33.25 1301.27 34.575C1301.27 36.55 1301.72 38.075 1302.62 39.15C1303.54 40.225 1304.67 40.7625 1305.99 40.7625C1306.77 40.7625 1307.44 40.625 1308.02 40.35C1308.62 40.075 1309.12 39.6875 1309.52 39.1875C1309.92 38.6625 1310.19 38.075 1310.34 37.425H1316.19C1316.04 39.05 1315.52 40.4625 1314.62 41.6625C1313.72 42.8625 1312.53 43.8 1311.06 44.475C1309.58 45.125 1307.89 45.45 1305.99 45.45ZM1330.27 45.45C1328.02 45.45 1326.08 45.0125 1324.46 44.1375C1322.86 43.2625 1321.62 42.0125 1320.75 40.3875C1319.87 38.7625 1319.43 36.825 1319.43 34.575C1319.43 32.3 1319.87 30.35 1320.75 28.725C1321.62 27.1 1322.88 25.8625 1324.53 25.0125C1326.21 24.1375 1328.22 23.7 1330.57 23.7C1334.25 23.7 1336.91 24.75 1338.56 26.85C1340.23 28.925 1340.93 31.7875 1340.66 35.4375H1324.08L1324.12 31.425H1334.7C1334.62 30.475 1334.2 29.7125 1333.42 29.1375C1332.65 28.5375 1331.68 28.2375 1330.53 28.2375C1328.73 28.2375 1327.41 28.8 1326.56 29.925C1325.71 31.05 1325.28 32.6875 1325.28 34.8375C1325.28 35.9125 1325.47 36.9 1325.85 37.8C1326.22 38.7 1326.77 39.425 1327.5 39.975C1328.25 40.5 1329.17 40.7625 1330.27 40.7625C1331.45 40.7625 1332.43 40.475 1333.23 39.9C1334.06 39.325 1334.56 38.6 1334.73 37.725H1340.58C1340.33 40.1 1339.28 41.9875 1337.43 43.3875C1335.61 44.7625 1333.22 45.45 1330.27 45.45ZM1373.35 36.7875V31.725H1379.31C1380.51 31.725 1381.48 31.3625 1382.2 30.6375C1382.93 29.8875 1383.29 28.9125 1383.29 27.7125C1383.29 26.5625 1382.93 25.6375 1382.2 24.9375C1381.48 24.2375 1380.51 23.8875 1379.31 23.8875H1373.35V18.825H1379.35C1381.43 18.825 1383.24 19.1875 1384.79 19.9125C1386.34 20.6375 1387.54 21.675 1388.39 23.025C1389.24 24.35 1389.66 25.9125 1389.66 27.7125C1389.66 29.5375 1389.24 31.1375 1388.39 32.5125C1387.54 33.8625 1386.34 34.9125 1384.79 35.6625C1383.26 36.4125 1381.45 36.7875 1379.35 36.7875H1373.35ZM1368.93 45V18.825H1375.11V45H1368.93ZM1407.72 34.575V31.7625C1407.72 30.8125 1407.47 30.05 1406.97 29.475C1406.47 28.875 1405.72 28.575 1404.72 28.575C1403.59 28.575 1402.53 28.95 1401.53 29.7C1400.53 30.45 1399.58 31.75 1398.68 33.6L1398.08 28.6875C1398.73 27.5875 1399.44 26.675 1400.22 25.95C1400.99 25.2 1401.84 24.6375 1402.77 24.2625C1403.72 23.8875 1404.75 23.7 1405.88 23.7C1408.1 23.7 1409.94 24.3875 1411.39 25.7625C1412.84 27.1125 1413.57 29.1125 1413.57 31.7625V34.575H1407.72ZM1393.8 45V24.15H1399.43L1399.65 27.9V45H1393.8ZM1427.83 45.45C1425.58 45.45 1423.64 45.0125 1422.02 44.1375C1420.42 43.2625 1419.18 42.0125 1418.31 40.3875C1417.43 38.7625 1416.99 36.825 1416.99 34.575C1416.99 32.3 1417.43 30.35 1418.31 28.725C1419.18 27.1 1420.44 25.8625 1422.09 25.0125C1423.77 24.1375 1425.78 23.7 1428.13 23.7C1431.81 23.7 1434.47 24.75 1436.12 26.85C1437.79 28.925 1438.49 31.7875 1438.22 35.4375H1421.64L1421.68 31.425H1432.26C1432.18 30.475 1431.76 29.7125 1430.98 29.1375C1430.21 28.5375 1429.24 28.2375 1428.09 28.2375C1426.29 28.2375 1424.97 28.8 1424.12 29.925C1423.27 31.05 1422.84 32.6875 1422.84 34.8375C1422.84 35.9125 1423.03 36.9 1423.41 37.8C1423.78 38.7 1424.33 39.425 1425.06 39.975C1425.81 40.5 1426.73 40.7625 1427.83 40.7625C1429.01 40.7625 1429.99 40.475 1430.79 39.9C1431.62 39.325 1432.12 38.6 1432.29 37.725H1438.14C1437.89 40.1 1436.84 41.9875 1434.99 43.3875C1433.17 44.7625 1430.78 45.45 1427.83 45.45ZM1452.56 45.45C1450.61 45.45 1448.89 45.1375 1447.42 44.5125C1445.94 43.8625 1444.79 42.95 1443.97 41.775C1443.17 40.575 1442.76 39.1625 1442.73 37.5375H1448.17C1448.12 38.6875 1448.48 39.5875 1449.26 40.2375C1450.06 40.8875 1451.14 41.2125 1452.52 41.2125C1453.52 41.2125 1454.32 41.05 1454.92 40.725C1455.54 40.375 1455.86 39.9 1455.86 39.3C1455.86 38.775 1455.62 38.3625 1455.14 38.0625C1454.69 37.7375 1454.09 37.4875 1453.34 37.3125C1452.59 37.1125 1451.77 36.925 1450.87 36.75C1449.97 36.55 1449.06 36.3125 1448.13 36.0375C1447.23 35.7625 1446.41 35.4 1445.66 34.95C1444.91 34.475 1444.29 33.8625 1443.82 33.1125C1443.37 32.3375 1443.14 31.375 1443.14 30.225C1443.14 28.9 1443.52 27.75 1444.27 26.775C1445.02 25.8 1446.06 25.05 1447.38 24.525C1448.73 23.975 1450.28 23.7 1452.03 23.7C1454.71 23.7 1456.87 24.325 1458.52 25.575C1460.19 26.8 1461.12 28.525 1461.29 30.75H1455.89C1455.84 29.825 1455.47 29.125 1454.77 28.65C1454.07 28.175 1453.17 27.9375 1452.07 27.9375C1451.14 27.9375 1450.41 28.1 1449.86 28.425C1449.31 28.75 1449.03 29.2375 1449.03 29.8875C1449.03 30.4125 1449.26 30.825 1449.71 31.125C1450.18 31.4 1450.79 31.625 1451.54 31.8C1452.29 31.975 1453.12 32.1375 1454.02 32.2875C1454.94 32.4375 1455.86 32.65 1456.76 32.925C1457.66 33.175 1458.48 33.525 1459.23 33.975C1459.98 34.425 1460.58 35.025 1461.03 35.775C1461.51 36.525 1461.74 37.4875 1461.74 38.6625C1461.74 40.7875 1460.91 42.45 1459.23 43.65C1457.58 44.85 1455.36 45.45 1452.56 45.45ZM1476.95 45.45C1475 45.45 1473.28 45.1375 1471.81 44.5125C1470.33 43.8625 1469.18 42.95 1468.36 41.775C1467.56 40.575 1467.15 39.1625 1467.12 37.5375H1472.56C1472.51 38.6875 1472.87 39.5875 1473.65 40.2375C1474.45 40.8875 1475.53 41.2125 1476.91 41.2125C1477.91 41.2125 1478.71 41.05 1479.31 40.725C1479.93 40.375 1480.25 39.9 1480.25 39.3C1480.25 38.775 1480.01 38.3625 1479.53 38.0625C1479.08 37.7375 1478.48 37.4875 1477.73 37.3125C1476.98 37.1125 1476.16 36.925 1475.26 36.75C1474.36 36.55 1473.45 36.3125 1472.52 36.0375C1471.62 35.7625 1470.8 35.4 1470.05 34.95C1469.3 34.475 1468.68 33.8625 1468.21 33.1125C1467.76 32.3375 1467.53 31.375 1467.53 30.225C1467.53 28.9 1467.91 27.75 1468.66 26.775C1469.41 25.8 1470.45 25.05 1471.77 24.525C1473.12 23.975 1474.67 23.7 1476.42 23.7C1479.1 23.7 1481.26 24.325 1482.91 25.575C1484.58 26.8 1485.51 28.525 1485.68 30.75H1480.28C1480.23 29.825 1479.86 29.125 1479.16 28.65C1478.46 28.175 1477.56 27.9375 1476.46 27.9375C1475.53 27.9375 1474.8 28.1 1474.25 28.425C1473.7 28.75 1473.42 29.2375 1473.42 29.8875C1473.42 30.4125 1473.65 30.825 1474.1 31.125C1474.57 31.4 1475.18 31.625 1475.93 31.8C1476.68 31.975 1477.51 32.1375 1478.41 32.2875C1479.33 32.4375 1480.25 32.65 1481.15 32.925C1482.05 33.175 1482.87 33.525 1483.62 33.975C1484.37 34.425 1484.97 35.025 1485.42 35.775C1485.9 36.525 1486.13 37.4875 1486.13 38.6625C1486.13 40.7875 1485.3 42.45 1483.62 43.65C1481.97 44.85 1479.75 45.45 1476.95 45.45Z" fill="#0077CC"/>
<path d="M524.6 121.6C521.467 121.6 518.75 120.867 516.45 119.4C514.183 117.9 512.417 115.8 511.15 113.1C509.917 110.367 509.3 107.183 509.3 103.55C509.3 99.8833 509.933 96.7 511.2 94C512.467 91.3 514.267 89.2167 516.6 87.75C518.933 86.25 521.7 85.5 524.9 85.5C527.4 85.5 529.7 85.9833 531.8 86.95C533.9 87.9167 535.617 89.3167 536.95 91.15C538.317 92.9833 539.067 95.2167 539.2 97.85H530.2C530.033 96.15 529.5 94.8 528.6 93.8C527.7 92.7667 526.467 92.25 524.9 92.25C523.567 92.25 522.35 92.6833 521.25 93.55C520.183 94.3833 519.333 95.65 518.7 97.35C518.1 99.0167 517.8 101.083 517.8 103.55C517.8 105.983 518.1 108.05 518.7 109.75C519.3 111.417 520.1 112.683 521.1 113.55C522.133 114.417 523.3 114.85 524.6 114.85C525.7 114.85 526.65 114.633 527.45 114.2C528.283 113.733 528.95 113.067 529.45 112.2C529.983 111.333 530.3 110.283 530.4 109.05H539.4C539.133 111.617 538.367 113.85 537.1 115.75C535.867 117.617 534.2 119.067 532.1 120.1C530 121.1 527.5 121.6 524.6 121.6ZM562.17 121L561.92 116V102.3C561.92 101 561.436 99.9833 560.47 99.25C559.503 98.4833 558.17 98.1 556.47 98.1C554.836 98.1 553.503 98.45 552.47 99.15C551.47 99.8167 550.886 100.767 550.72 102H543.17C543.336 100.033 544.003 98.35 545.17 96.95C546.336 95.55 547.903 94.4833 549.87 93.75C551.87 92.9833 554.186 92.6 556.82 92.6C559.42 92.6 561.686 93 563.62 93.8C565.553 94.5667 567.036 95.7167 568.07 97.25C569.136 98.75 569.67 100.6 569.67 102.8V121H562.17ZM553.27 121.6C551.436 121.6 549.82 121.25 548.42 120.55C547.02 119.817 545.936 118.817 545.17 117.55C544.403 116.283 544.02 114.85 544.02 113.25C544.02 110.383 545.12 108.167 547.32 106.6C549.553 105 552.62 104.2 556.52 104.2H562.67V109.6L556.32 109.65C554.886 109.65 553.736 109.917 552.87 110.45C552.036 110.95 551.62 111.717 551.62 112.75C551.62 113.483 551.92 114.117 552.52 114.65C553.153 115.183 554.036 115.45 555.17 115.45C556.736 115.45 558.12 115.067 559.32 114.3C560.553 113.5 561.57 112.417 562.37 111.05L563.22 116.3C562.386 118.133 561.103 119.483 559.37 120.35C557.67 121.183 555.636 121.6 553.27 121.6ZM591.539 121C589.672 121 588.022 120.583 586.589 119.75C585.189 118.883 584.106 117.7 583.339 116.2C582.572 114.667 582.189 112.933 582.189 111V88.55L589.989 85.05V111C589.989 111.867 590.106 112.583 590.339 113.15C590.606 113.683 591.072 114.083 591.739 114.35C592.439 114.583 593.406 114.7 594.639 114.7H601.689V121H591.539ZM576.689 99.5V93.2H596.739V99.5H576.689ZM627.209 121L626.959 116V102.3C626.959 101 626.475 99.9833 625.509 99.25C624.542 98.4833 623.209 98.1 621.509 98.1C619.875 98.1 618.542 98.45 617.509 99.15C616.509 99.8167 615.925 100.767 615.759 102H608.209C608.375 100.033 609.042 98.35 610.209 96.95C611.375 95.55 612.942 94.4833 614.909 93.75C616.909 92.9833 619.225 92.6 621.859 92.6C624.459 92.6 626.725 93 628.659 93.8C630.592 94.5667 632.075 95.7167 633.109 97.25C634.175 98.75 634.709 100.6 634.709 102.8V121H627.209ZM618.309 121.6C616.475 121.6 614.859 121.25 613.459 120.55C612.059 119.817 610.975 118.817 610.209 117.55C609.442 116.283 609.059 114.85 609.059 113.25C609.059 110.383 610.159 108.167 612.359 106.6C614.592 105 617.659 104.2 621.559 104.2H627.709V109.6L621.359 109.65C619.925 109.65 618.775 109.917 617.909 110.45C617.075 110.95 616.659 111.717 616.659 112.75C616.659 113.483 616.959 114.117 617.559 114.65C618.192 115.183 619.075 115.45 620.209 115.45C621.775 115.45 623.159 115.067 624.359 114.3C625.592 113.5 626.609 112.417 627.409 111.05L628.259 116.3C627.425 118.133 626.142 119.483 624.409 120.35C622.709 121.183 620.675 121.6 618.309 121.6ZM656.628 92.6C659.061 92.6 661.195 93.25 663.028 94.55C664.895 95.8167 666.361 97.55 667.428 99.75C668.495 101.95 669.028 104.4 669.028 107.1C669.028 109.767 668.495 112.2 667.428 114.4C666.361 116.6 664.895 118.35 663.028 119.65C661.195 120.95 659.061 121.6 656.628 121.6C654.995 121.6 653.478 121.3 652.078 120.7C650.678 120.067 649.495 119.233 648.528 118.2L648.378 121H640.878V84H648.628V95.85C649.595 94.85 650.761 94.0667 652.128 93.5C653.528 92.9 655.028 92.6 656.628 92.6ZM654.628 115.2C655.928 115.2 657.061 114.833 658.028 114.1C659.028 113.367 659.811 112.4 660.378 111.2C660.945 109.967 661.228 108.6 661.228 107.1C661.228 105.567 660.945 104.2 660.378 103C659.811 101.767 659.028 100.8 658.028 100.1C657.061 99.3667 655.928 99 654.628 99C653.228 99 651.995 99.4333 650.928 100.3C649.861 101.133 649.095 102.283 648.628 103.75V110.4C649.095 111.833 649.861 113 650.928 113.9C651.995 114.767 653.228 115.2 654.628 115.2ZM686.848 121.6C683.881 121.6 681.331 121.017 679.198 119.85C677.064 118.683 675.414 117.017 674.248 114.85C673.114 112.683 672.548 110.1 672.548 107.1C672.548 104.067 673.114 101.483 674.248 99.35C675.414 97.1833 677.064 95.5167 679.198 94.35C681.331 93.1833 683.881 92.6 686.848 92.6C691.314 92.6 694.798 93.8833 697.298 96.45C699.831 99.0167 701.098 102.567 701.098 107.1C701.098 110.1 700.531 112.683 699.398 114.85C698.264 117.017 696.631 118.683 694.498 119.85C692.364 121.017 689.814 121.6 686.848 121.6ZM686.848 115.3C688.848 115.3 690.414 114.567 691.548 113.1C692.714 111.633 693.298 109.633 693.298 107.1C693.298 104.533 692.714 102.533 691.548 101.1C690.414 99.6333 688.848 98.9 686.848 98.9C684.814 98.9 683.214 99.6333 682.048 101.1C680.914 102.533 680.348 104.533 680.348 107.1C680.348 109.633 680.914 111.633 682.048 113.1C683.214 114.567 684.814 115.3 686.848 115.3ZM715.467 121V84H723.267V121H715.467ZM706.467 121V114.7H732.367V121H706.467ZM709.967 90.3V84H719.367V90.3H709.967ZM747.987 121V93.2H755.787V121H747.987ZM738.987 121V114.7H764.887V121H738.987ZM742.487 99.5V93.2H751.887V99.5H742.487ZM747.687 89.5V82.2H755.987V89.5H747.687ZM785.106 121.6C782.506 121.6 780.223 121.183 778.256 120.35C776.29 119.483 774.756 118.267 773.656 116.7C772.59 115.1 772.04 113.217 772.006 111.05H779.256C779.19 112.583 779.673 113.783 780.706 114.65C781.773 115.517 783.223 115.95 785.056 115.95C786.39 115.95 787.456 115.733 788.256 115.3C789.09 114.833 789.506 114.2 789.506 113.4C789.506 112.7 789.19 112.15 788.556 111.75C787.956 111.317 787.156 110.983 786.156 110.75C785.156 110.483 784.056 110.233 782.856 110C781.656 109.733 780.44 109.417 779.206 109.05C778.006 108.683 776.906 108.2 775.906 107.6C774.906 106.967 774.09 106.15 773.456 105.15C772.856 104.117 772.556 102.833 772.556 101.3C772.556 99.5333 773.056 98 774.056 96.7C775.056 95.4 776.44 94.4 778.206 93.7C780.006 92.9667 782.073 92.6 784.406 92.6C787.973 92.6 790.856 93.4333 793.056 95.1C795.29 96.7333 796.523 99.0333 796.756 102H789.556C789.49 100.767 788.99 99.8333 788.056 99.2C787.123 98.5667 785.923 98.25 784.456 98.25C783.223 98.25 782.24 98.4667 781.506 98.9C780.773 99.3333 780.406 99.9833 780.406 100.85C780.406 101.55 780.706 102.1 781.306 102.5C781.94 102.867 782.756 103.167 783.756 103.4C784.756 103.633 785.856 103.85 787.056 104.05C788.29 104.25 789.506 104.533 790.706 104.9C791.906 105.233 793.006 105.7 794.006 106.3C795.006 106.9 795.806 107.7 796.406 108.7C797.04 109.7 797.356 110.983 797.356 112.55C797.356 115.383 796.24 117.6 794.006 119.2C791.806 120.8 788.84 121.6 785.106 121.6ZM824.026 121V101.4C824.026 100.633 823.926 100.033 823.726 99.6C823.526 99.1333 823.142 98.9 822.576 98.9C821.842 98.9 821.176 99.45 820.576 100.55C820.009 101.617 819.542 103.5 819.176 106.2L818.676 102.45C818.476 99.4167 818.976 97.0167 820.176 95.25C821.376 93.4833 822.992 92.6 825.026 92.6C826.759 92.6 828.192 93.2833 829.326 94.65C830.459 95.9833 831.026 97.95 831.026 100.55V121H824.026ZM802.826 121V93.2H809.626L809.776 98.35V121H802.826ZM813.426 121V101.4C813.426 100.533 813.292 99.9 813.026 99.5C812.792 99.1 812.426 98.9 811.926 98.9C811.059 98.9 810.376 99.5 809.876 100.7C809.376 101.9 808.942 103.733 808.576 106.2L808.626 102.15C808.492 100.217 808.709 98.5333 809.276 97.1C809.842 95.6667 810.592 94.5667 811.526 93.8C812.492 93 813.526 92.6 814.626 92.6C816.392 92.6 817.792 93.3333 818.826 94.8C819.859 96.2333 820.376 98.1167 820.376 100.45V121H813.426ZM878.615 121.6C876.348 121.6 874.332 121.183 872.565 120.35C870.832 119.517 869.465 118.35 868.465 116.85C867.498 115.317 867.015 113.55 867.015 111.55C867.015 109.983 867.265 108.6 867.765 107.4C868.298 106.167 868.982 105.1 869.815 104.2C870.682 103.3 871.632 102.583 872.665 102.05C871.765 100.717 871.115 99.5167 870.715 98.45C870.315 97.35 870.115 96.1333 870.115 94.8C870.115 92.9333 870.532 91.3 871.365 89.9C872.232 88.5 873.432 87.4167 874.965 86.65C876.498 85.8833 878.248 85.5 880.215 85.5C882.082 85.5 883.732 85.8667 885.165 86.6C886.598 87.3 887.715 88.3 888.515 89.6C889.348 90.8667 889.765 92.3667 889.765 94.1C889.765 95.4333 889.482 96.6833 888.915 97.85C888.382 99.0167 887.615 100.05 886.615 100.95C885.648 101.817 884.532 102.533 883.265 103.1L887.415 108.35C887.748 107.583 888.065 106.717 888.365 105.75C888.665 104.783 888.915 103.85 889.115 102.95H896.915C896.482 104.883 895.882 106.833 895.115 108.8C894.348 110.767 893.415 112.533 892.315 114.1L898.015 121H888.215L886.815 119.25C885.648 119.983 884.382 120.567 883.015 121C881.648 121.4 880.182 121.6 878.615 121.6ZM878.865 115C879.532 115 880.148 114.917 880.715 114.75C881.282 114.55 881.832 114.3 882.365 114L876.615 106.85C876.182 107.183 875.798 107.567 875.465 108C875.132 108.4 874.865 108.85 874.665 109.35C874.498 109.817 874.415 110.317 874.415 110.85C874.415 112.083 874.832 113.083 875.665 113.85C876.498 114.617 877.565 115 878.865 115ZM879.365 98.6C880.432 98.0333 881.232 97.45 881.765 96.85C882.298 96.25 882.565 95.5333 882.565 94.7C882.565 93.7667 882.348 93.0667 881.915 92.6C881.482 92.1 880.898 91.85 880.165 91.85C879.332 91.85 878.682 92.1333 878.215 92.7C877.782 93.2667 877.565 93.9333 877.565 94.7C877.565 95.2667 877.698 95.85 877.965 96.45C878.265 97.0167 878.732 97.7333 879.365 98.6ZM937.254 114.3V107.55H957.804V114.3H937.254ZM940.804 86.1H953.154L962.004 121H953.604L949.054 101.2L946.954 91.9L944.804 101.2L940.154 121H932.004L940.804 86.1ZM984.973 121V103.85C984.973 102.417 984.607 101.267 983.873 100.4C983.14 99.5333 982.173 99.1 980.973 99.1C979.607 99.1 978.34 99.5667 977.173 100.5C976.04 101.4 974.84 102.967 973.573 105.2L972.473 98.6C973.74 96.4333 975.273 94.9 977.073 94C978.873 93.0667 980.707 92.6 982.573 92.6C984.707 92.6 986.523 93.05 988.023 93.95C989.557 94.85 990.723 96.1 991.523 97.7C992.357 99.3 992.773 101.183 992.773 103.35V121H984.973ZM966.423 121V93.2H973.973L974.223 98.15V121H966.423ZM1017.44 121L1017.19 116V102.3C1017.19 101 1016.71 99.9833 1015.74 99.25C1014.78 98.4833 1013.44 98.1 1011.74 98.1C1010.11 98.1 1008.78 98.45 1007.74 99.15C1006.74 99.8167 1006.16 100.767 1005.99 102H998.443C998.61 100.033 999.276 98.35 1000.44 96.95C1001.61 95.55 1003.18 94.4833 1005.14 93.75C1007.14 92.9833 1009.46 92.6 1012.09 92.6C1014.69 92.6 1016.96 93 1018.89 93.8C1020.83 94.5667 1022.31 95.7167 1023.34 97.25C1024.41 98.75 1024.94 100.6 1024.94 102.8V121H1017.44ZM1008.54 121.6C1006.71 121.6 1005.09 121.25 1003.69 120.55C1002.29 119.817 1001.21 118.817 1000.44 117.55C999.676 116.283 999.293 114.85 999.293 113.25C999.293 110.383 1000.39 108.167 1002.59 106.6C1004.83 105 1007.89 104.2 1011.79 104.2H1017.94V109.6L1011.59 109.65C1010.16 109.65 1009.01 109.917 1008.14 110.45C1007.31 110.95 1006.89 111.717 1006.89 112.75C1006.89 113.483 1007.19 114.117 1007.79 114.65C1008.43 115.183 1009.31 115.45 1010.44 115.45C1012.01 115.45 1013.39 115.067 1014.59 114.3C1015.83 113.5 1016.84 112.417 1017.64 111.05L1018.49 116.3C1017.66 118.133 1016.38 119.483 1014.64 120.35C1012.94 121.183 1010.91 121.6 1008.54 121.6ZM1046.86 92.6C1049.3 92.6 1051.43 93.25 1053.26 94.55C1055.13 95.8167 1056.6 97.55 1057.66 99.75C1058.73 101.95 1059.26 104.4 1059.26 107.1C1059.26 109.767 1058.73 112.2 1057.66 114.4C1056.6 116.6 1055.13 118.35 1053.26 119.65C1051.43 120.95 1049.3 121.6 1046.86 121.6C1045.23 121.6 1043.71 121.3 1042.31 120.7C1040.91 120.067 1039.73 119.233 1038.76 118.2L1038.61 121H1031.11V84H1038.86V95.85C1039.83 94.85 1041 94.0667 1042.36 93.5C1043.76 92.9 1045.26 92.6 1046.86 92.6ZM1044.86 115.2C1046.16 115.2 1047.3 114.833 1048.26 114.1C1049.26 113.367 1050.05 112.4 1050.61 111.2C1051.18 109.967 1051.46 108.6 1051.46 107.1C1051.46 105.567 1051.18 104.2 1050.61 103C1050.05 101.767 1049.26 100.8 1048.26 100.1C1047.3 99.3667 1046.16 99 1044.86 99C1043.46 99 1042.23 99.4333 1041.16 100.3C1040.1 101.133 1039.33 102.283 1038.86 103.75V110.4C1039.33 111.833 1040.1 113 1041.16 113.9C1042.23 114.767 1043.46 115.2 1044.86 115.2ZM1077.08 121.6C1074.12 121.6 1071.57 121.017 1069.43 119.85C1067.3 118.683 1065.65 117.017 1064.48 114.85C1063.35 112.683 1062.78 110.1 1062.78 107.1C1062.78 104.067 1063.35 101.483 1064.48 99.35C1065.65 97.1833 1067.3 95.5167 1069.43 94.35C1071.57 93.1833 1074.12 92.6 1077.08 92.6C1081.55 92.6 1085.03 93.8833 1087.53 96.45C1090.07 99.0167 1091.33 102.567 1091.33 107.1C1091.33 110.1 1090.77 112.683 1089.63 114.85C1088.5 117.017 1086.87 118.683 1084.73 119.85C1082.6 121.017 1080.05 121.6 1077.08 121.6ZM1077.08 115.3C1079.08 115.3 1080.65 114.567 1081.78 113.1C1082.95 111.633 1083.53 109.633 1083.53 107.1C1083.53 104.533 1082.95 102.533 1081.78 101.1C1080.65 99.6333 1079.08 98.9 1077.08 98.9C1075.05 98.9 1073.45 99.6333 1072.28 101.1C1071.15 102.533 1070.58 104.533 1070.58 107.1C1070.58 109.633 1071.15 111.633 1072.28 113.1C1073.45 114.567 1075.05 115.3 1077.08 115.3ZM1105.7 121V84H1113.5V121H1105.7ZM1096.7 121V114.7H1122.6V121H1096.7ZM1100.2 90.3V84H1109.6V90.3H1100.2ZM1138.22 121V93.2H1146.02V121H1138.22ZM1129.22 121V114.7H1155.12V121H1129.22ZM1132.72 99.5V93.2H1142.12V99.5H1132.72ZM1137.92 89.5V82.2H1146.22V89.5H1137.92ZM1175.34 121.6C1172.74 121.6 1170.46 121.183 1168.49 120.35C1166.52 119.483 1164.99 118.267 1163.89 116.7C1162.82 115.1 1162.27 113.217 1162.24 111.05H1169.49C1169.42 112.583 1169.91 113.783 1170.94 114.65C1172.01 115.517 1173.46 115.95 1175.29 115.95C1176.62 115.95 1177.69 115.733 1178.49 115.3C1179.32 114.833 1179.74 114.2 1179.74 113.4C1179.74 112.7 1179.42 112.15 1178.79 111.75C1178.19 111.317 1177.39 110.983 1176.39 110.75C1175.39 110.483 1174.29 110.233 1173.09 110C1171.89 109.733 1170.67 109.417 1169.44 109.05C1168.24 108.683 1167.14 108.2 1166.14 107.6C1165.14 106.967 1164.32 106.15 1163.69 105.15C1163.09 104.117 1162.79 102.833 1162.79 101.3C1162.79 99.5333 1163.29 98 1164.29 96.7C1165.29 95.4 1166.67 94.4 1168.44 93.7C1170.24 92.9667 1172.31 92.6 1174.64 92.6C1178.21 92.6 1181.09 93.4333 1183.29 95.1C1185.52 96.7333 1186.76 99.0333 1186.99 102H1179.79C1179.72 100.767 1179.22 99.8333 1178.29 99.2C1177.36 98.5667 1176.16 98.25 1174.69 98.25C1173.46 98.25 1172.47 98.4667 1171.74 98.9C1171.01 99.3333 1170.64 99.9833 1170.64 100.85C1170.64 101.55 1170.94 102.1 1171.54 102.5C1172.17 102.867 1172.99 103.167 1173.99 103.4C1174.99 103.633 1176.09 103.85 1177.29 104.05C1178.52 104.25 1179.74 104.533 1180.94 104.9C1182.14 105.233 1183.24 105.7 1184.24 106.3C1185.24 106.9 1186.04 107.7 1186.64 108.7C1187.27 109.7 1187.59 110.983 1187.59 112.55C1187.59 115.383 1186.47 117.6 1184.24 119.2C1182.04 120.8 1179.07 121.6 1175.34 121.6ZM1214.26 121V101.4C1214.26 100.633 1214.16 100.033 1213.96 99.6C1213.76 99.1333 1213.38 98.9 1212.81 98.9C1212.08 98.9 1211.41 99.45 1210.81 100.55C1210.24 101.617 1209.78 103.5 1209.41 106.2L1208.91 102.45C1208.71 99.4167 1209.21 97.0167 1210.41 95.25C1211.61 93.4833 1213.23 92.6 1215.26 92.6C1216.99 92.6 1218.43 93.2833 1219.56 94.65C1220.69 95.9833 1221.26 97.95 1221.26 100.55V121H1214.26ZM1193.06 121V93.2H1199.86L1200.01 98.35V121H1193.06ZM1203.66 121V101.4C1203.66 100.533 1203.53 99.9 1203.26 99.5C1203.03 99.1 1202.66 98.9 1202.16 98.9C1201.29 98.9 1200.61 99.5 1200.11 100.7C1199.61 101.9 1199.18 103.733 1198.81 106.2L1198.86 102.15C1198.73 100.217 1198.94 98.5333 1199.51 97.1C1200.08 95.6667 1200.83 94.5667 1201.76 93.8C1202.73 93 1203.76 92.6 1204.86 92.6C1206.63 92.6 1208.03 93.3333 1209.06 94.8C1210.09 96.2333 1210.61 98.1167 1210.61 100.45V121H1203.66Z" fill="black"/>
<defs>
<radialGradient id="paint0_radial_334_774" cx="0" cy="0" r="1" gradientUnits="userSpaceOnUse" gradientTransform="translate(1343.5 288) rotate(136.081) scale(74.9667)">
<stop stop-color="#5FB4F1"/>
<stop offset="1" stop-color="#0077CC"/>
</radialGradient>
<radialGradient id="paint1_radial_334_774" cx="0" cy="0" r="1" gradientUnits="userSpaceOnUse" gradientTransform="translate(1243.5 379) rotate(136.081) scale(74.9667)">
<stop stop-color="#F1775F"/>
<stop offset="1" stop-color="#BD2915"/>
</radialGradient>
<radialGradient id="paint2_radial_334_774" cx="0" cy="0" r="1" gradientUnits="userSpaceOnUse" gradientTransform="translate(1325.5 374) rotate(136.081) scale(74.9667)">
<stop stop-color="#6B6B6B"/>
<stop offset="1" stop-color="#1A1A1A"/>
</radialGradient>
<radialGradient id="paint3_radial_334_774" cx="0" cy="0" r="1" gradientUnits="userSpaceOnUse" gradientTransform="translate(1393.5 421) rotate(136.081) scale(74.9667)">
<stop stop-color="#F1775F"/>
<stop offset="1" stop-color="#BD2915"/>
</radialGradient>
<radialGradient id="paint4_radial_334_774" cx="0" cy="0" r="1" gradientUnits="userSpaceOnUse" gradientTransform="translate(1461.5 466) rotate(136.081) scale(74.9667)">
<stop stop-color="#F1775F"/>
<stop offset="1" stop-color="#BD2915"/>
</radialGradient>
<radialGradient id="paint5_radial_334_774" cx="0" cy="0" r="1" gradientUnits="userSpaceOnUse" gradientTransform="translate(1516.5 496) rotate(136.081) scale(74.9667)">
<stop stop-color="#6B6B6B"/>
<stop offset="1" stop-color="#1A1A1A"/>
</radialGradient>
<radialGradient id="paint6_radial_334_774" cx="0" cy="0" r="1" gradientUnits="userSpaceOnUse" gradientTransform="translate(1587.5 471) rotate(136.081) scale(74.9667)">
<stop stop-color="#5FB4F1"/>
<stop offset="1" stop-color="#0077CC"/>
</radialGradient>
<radialGradient id="paint7_radial_334_774" cx="0" cy="0" r="1" gradientUnits="userSpaceOnUse" gradientTransform="translate(77.5 342) rotate(136.081) scale(74.9667)">
<stop stop-color="#6B6B6B"/>
<stop offset="1" stop-color="#1A1A1A"/>
</radialGradient>
<radialGradient id="paint8_radial_334_774" cx="0" cy="0" r="1" gradientUnits="userSpaceOnUse" gradientTransform="translate(523.5 392) rotate(136.081) scale(74.9667)">
<stop stop-color="#6B6B6B"/>
<stop offset="1" stop-color="#1A1A1A"/>
</radialGradient>
<radialGradient id="paint9_radial_334_774" cx="0" cy="0" r="1" gradientUnits="userSpaceOnUse" gradientTransform="translate(243.5 306) rotate(136.081) scale(74.9667)">
<stop stop-color="#5FB4F1"/>
<stop offset="1" stop-color="#0077CC"/>
</radialGradient>
<radialGradient id="paint10_radial_334_774" cx="0" cy="0" r="1" gradientUnits="userSpaceOnUse" gradientTransform="translate(177.5 510) rotate(136.081) scale(74.9667)">
<stop stop-color="#5FB4F1"/>
<stop offset="1" stop-color="#0077CC"/>
</radialGradient>
<radialGradient id="paint11_radial_334_774" cx="0" cy="0" r="1" gradientUnits="userSpaceOnUse" gradientTransform="translate(343.5 442) rotate(136.081) scale(74.9667)">
<stop stop-color="#F1775F"/>
<stop offset="1" stop-color="#BD2915"/>
</radialGradient>
<radialGradient id="paint12_radial_334_774" cx="0" cy="0" r="1" gradientUnits="userSpaceOnUse" gradientTransform="translate(475.5 238) rotate(136.081) scale(74.9667)">
<stop stop-color="#F1775F"/>
<stop offset="1" stop-color="#BD2915"/>
</radialGradient>
<radialGradient id="paint13_radial_334_774" cx="0" cy="0" r="1" gradientUnits="userSpaceOnUse" gradientTransform="translate(500.5 510) rotate(136.081) scale(74.9667)">
<stop stop-color="#F1775F"/>
<stop offset="1" stop-color="#BD2915"/>
</radialGradient>
<clipPath id="clip0_334_774">
<rect width="115" height="115" fill="white" transform="translate(1505 10)"/>
</clipPath>
</defs>
</svg>
