<svg width="564" height="383" viewBox="0 0 564 383" fill="none" xmlns="http://www.w3.org/2000/svg">
<g filter="url(#filter0_n_247_524)">
<rect width="564" height="383" fill="url(#paint0_linear_247_524)"/>
</g>
<circle cx="123" cy="271" r="50" fill="url(#paint1_radial_247_524)"/>
<g filter="url(#filter1_n_247_524)">
<rect x="48" y="196" width="150" height="150" rx="15" fill="url(#paint2_linear_247_524)" fill-opacity="0.5"/>
<rect x="50.5" y="198.5" width="145" height="145" rx="12.5" stroke="#D2ECFF" stroke-width="5"/>
</g>
<path d="M138.814 264.636C138.814 268.28 138.105 271.353 136.689 273.857C135.272 276.35 133.359 278.241 130.952 279.53C128.544 280.808 125.859 281.447 122.898 281.447C119.915 281.447 117.219 280.803 114.812 279.514C112.415 278.214 110.508 276.318 109.091 273.825C107.685 271.321 106.982 268.259 106.982 264.636C106.982 260.993 107.685 257.925 109.091 255.432C110.508 252.928 112.415 251.037 114.812 249.759C117.219 248.47 119.915 247.825 122.898 247.825C125.859 247.825 128.544 248.47 130.952 249.759C133.359 251.037 135.272 252.928 136.689 255.432C138.105 257.925 138.814 260.993 138.814 264.636ZM129.673 264.636C129.673 262.676 129.412 261.025 128.89 259.683C128.379 258.33 127.617 257.307 126.605 256.614C125.604 255.911 124.368 255.56 122.898 255.56C121.428 255.56 120.186 255.911 119.174 256.614C118.173 257.307 117.411 258.33 116.889 259.683C116.378 261.025 116.122 262.676 116.122 264.636C116.122 266.597 116.378 268.253 116.889 269.606C117.411 270.949 118.173 271.971 119.174 272.674C120.186 273.367 121.428 273.713 122.898 273.713C124.368 273.713 125.604 273.367 126.605 272.674C127.617 271.971 128.379 270.949 128.89 269.606C129.412 268.253 129.673 266.597 129.673 264.636Z" fill="black"/>
<path d="M105.675 294.545C105.675 295.71 105.462 296.712 105.036 297.55C104.609 298.384 104.025 299.027 103.283 299.478C102.544 299.925 101.705 300.149 100.763 300.149C99.8189 300.149 98.9755 299.925 98.2333 299.478C97.4947 299.027 96.9123 298.382 96.4862 297.544C96.06 296.706 95.8469 295.707 95.8469 294.545C95.8469 293.381 96.06 292.381 96.4862 291.547C96.9123 290.708 97.4947 290.066 98.2333 289.618C98.9755 289.167 99.8189 288.942 100.763 288.942C101.705 288.942 102.544 289.167 103.283 289.618C104.025 290.066 104.609 290.708 105.036 291.547C105.462 292.381 105.675 293.381 105.675 294.545ZM104.045 294.545C104.045 293.658 103.901 292.91 103.613 292.303C103.329 291.692 102.939 291.23 102.441 290.918C101.948 290.602 101.388 290.444 100.763 290.444C100.135 290.444 99.5739 290.602 99.0803 290.918C98.5866 291.23 98.196 291.692 97.9084 292.303C97.6243 292.91 97.4822 293.658 97.4822 294.545C97.4822 295.433 97.6243 296.183 97.9084 296.793C98.196 297.401 98.5866 297.862 99.0803 298.178C99.5739 298.491 100.135 298.647 100.763 298.647C101.388 298.647 101.948 298.491 102.441 298.178C102.939 297.862 103.329 297.401 103.613 296.793C103.901 296.183 104.045 295.433 104.045 294.545ZM108.856 291.818L110.662 295.004L112.484 291.818H114.225L111.674 295.909L114.247 300H112.505L110.662 296.942L108.824 300H107.077L109.623 295.909L107.109 291.818H108.856ZM116.867 303.068C116.63 303.068 116.413 303.049 116.218 303.01C116.022 302.974 115.877 302.935 115.781 302.892L116.164 301.587C116.456 301.665 116.715 301.699 116.942 301.689C117.169 301.678 117.37 301.593 117.544 301.433C117.722 301.273 117.878 301.012 118.013 300.65L118.21 300.107L115.216 291.818H116.921L118.993 298.168H119.078L121.15 291.818H122.86L119.488 301.092C119.332 301.518 119.133 301.879 118.892 302.173C118.65 302.472 118.362 302.695 118.029 302.844C117.695 302.994 117.308 303.068 116.867 303.068ZM127.509 303.239C126.859 303.239 126.3 303.153 125.831 302.983C125.366 302.813 124.986 302.587 124.691 302.306C124.396 302.026 124.176 301.719 124.031 301.385L125.4 300.82C125.495 300.977 125.623 301.142 125.783 301.316C125.946 301.493 126.167 301.644 126.444 301.768C126.724 301.893 127.085 301.955 127.525 301.955C128.129 301.955 128.627 301.808 129.022 301.513C129.416 301.222 129.613 300.756 129.613 300.117V298.509H129.512C129.416 298.683 129.277 298.876 129.096 299.089C128.919 299.302 128.674 299.487 128.361 299.643C128.049 299.799 127.642 299.877 127.141 299.877C126.495 299.877 125.913 299.727 125.394 299.425C124.879 299.119 124.471 298.67 124.169 298.077C123.871 297.48 123.722 296.747 123.722 295.877C123.722 295.007 123.869 294.261 124.164 293.64C124.462 293.018 124.87 292.543 125.389 292.212C125.907 291.879 126.495 291.712 127.152 291.712C127.66 291.712 128.07 291.797 128.382 291.967C128.695 292.134 128.938 292.33 129.112 292.553C129.29 292.777 129.426 292.974 129.522 293.145H129.64V291.818H131.2V300.181C131.2 300.884 131.037 301.461 130.71 301.912C130.384 302.363 129.941 302.697 129.384 302.914C128.83 303.13 128.205 303.239 127.509 303.239ZM127.493 298.556C127.951 298.556 128.338 298.45 128.654 298.237C128.974 298.02 129.215 297.711 129.379 297.31C129.545 296.905 129.629 296.42 129.629 295.856C129.629 295.305 129.547 294.821 129.384 294.402C129.221 293.983 128.981 293.656 128.665 293.422C128.349 293.184 127.958 293.065 127.493 293.065C127.013 293.065 126.614 293.189 126.294 293.438C125.975 293.683 125.733 294.016 125.57 294.439C125.41 294.862 125.33 295.334 125.33 295.856C125.33 296.392 125.412 296.863 125.575 297.267C125.739 297.672 125.98 297.988 126.3 298.216C126.623 298.443 127.021 298.556 127.493 298.556ZM136.863 300.165C136.056 300.165 135.362 299.993 134.78 299.648C134.201 299.3 133.754 298.812 133.438 298.184C133.125 297.551 132.969 296.811 132.969 295.962C132.969 295.124 133.125 294.386 133.438 293.746C133.754 293.107 134.194 292.608 134.759 292.25C135.327 291.891 135.991 291.712 136.751 291.712C137.212 291.712 137.66 291.788 138.093 291.941C138.526 292.093 138.915 292.333 139.26 292.66C139.604 292.987 139.876 293.411 140.075 293.933C140.273 294.451 140.373 295.082 140.373 295.824V296.388H133.869V295.195H138.812C138.812 294.776 138.727 294.405 138.556 294.082C138.386 293.755 138.146 293.498 137.837 293.31C137.532 293.121 137.173 293.027 136.761 293.027C136.314 293.027 135.923 293.137 135.589 293.358C135.259 293.574 135.004 293.858 134.822 294.21C134.645 294.558 134.556 294.936 134.556 295.344V296.277C134.556 296.824 134.652 297.289 134.844 297.672C135.039 298.056 135.311 298.349 135.659 298.551C136.007 298.75 136.413 298.849 136.879 298.849C137.18 298.849 137.456 298.807 137.704 298.722C137.953 298.633 138.168 298.501 138.349 298.327C138.53 298.153 138.668 297.939 138.764 297.683L140.272 297.955C140.151 298.398 139.934 298.787 139.622 299.121C139.313 299.451 138.924 299.709 138.455 299.893C137.99 300.075 137.459 300.165 136.863 300.165ZM143.733 295.142V300H142.14V291.818H143.669V293.15H143.77C143.958 292.717 144.253 292.369 144.654 292.106C145.059 291.843 145.569 291.712 146.183 291.712C146.741 291.712 147.229 291.829 147.648 292.063C148.067 292.294 148.392 292.638 148.623 293.097C148.853 293.555 148.969 294.121 148.969 294.796V300H147.376V294.988C147.376 294.395 147.222 293.931 146.913 293.597C146.604 293.26 146.179 293.091 145.64 293.091C145.27 293.091 144.942 293.171 144.654 293.331C144.37 293.491 144.145 293.725 143.978 294.034C143.814 294.339 143.733 294.709 143.733 295.142Z" fill="black"/>
<path d="M65.5284 227.249C64.4867 227.249 63.5368 227.027 62.6786 226.583C61.8263 226.139 61.1457 225.544 60.6367 224.798C60.1336 224.053 59.8821 223.224 59.8821 222.312C59.8821 221.59 60.0449 220.904 60.3704 220.253C60.7018 219.602 61.1546 219.045 61.7287 218.584C62.3087 218.116 62.9716 217.797 63.7173 217.625V217.554C62.7763 217.228 62.0009 216.669 61.3913 215.876C60.7876 215.083 60.4858 214.186 60.4858 213.186C60.4858 212.322 60.7107 211.544 61.1605 210.851C61.6162 210.153 62.2259 209.599 62.9893 209.191C63.7528 208.777 64.5992 208.57 65.5284 208.57C66.4458 208.57 67.2862 208.774 68.0497 209.182C68.8132 209.591 69.4228 210.144 69.8786 210.842C70.3402 211.535 70.571 212.316 70.571 213.186C70.571 214.174 70.2721 215.071 69.6744 215.876C69.0766 216.675 68.2983 217.234 67.3395 217.554V217.625C68.0852 217.785 68.7451 218.098 69.3192 218.566C69.8993 219.034 70.352 219.596 70.6776 220.253C71.009 220.904 71.1747 221.59 71.1747 222.312C71.1747 223.224 70.9202 224.053 70.4112 224.798C69.9081 225.544 69.2275 226.139 68.3693 226.583C67.517 227.027 66.5701 227.249 65.5284 227.249ZM65.5284 226.68C66.4754 226.68 67.3306 226.482 68.0941 226.086C68.8635 225.683 69.4731 225.15 69.9229 224.488C70.3787 223.819 70.6065 223.082 70.6065 222.277C70.6065 221.472 70.3787 220.738 69.9229 220.075C69.4731 219.406 68.8635 218.874 68.0941 218.477C67.3306 218.075 66.4754 217.874 65.5284 217.874C64.5814 217.874 63.7232 218.075 62.9538 218.477C62.1903 218.874 61.5807 219.406 61.125 220.075C60.6752 220.738 60.4503 221.472 60.4503 222.277C60.4503 223.082 60.6752 223.819 61.125 224.488C61.5807 225.15 62.1933 225.683 62.9627 226.086C63.7321 226.482 64.5874 226.68 65.5284 226.68ZM65.5284 217.376C66.3511 217.376 67.0998 217.184 67.7745 216.799C68.4492 216.415 68.9878 215.906 69.3903 215.272C69.7987 214.633 70.0028 213.938 70.0028 213.186C70.0028 212.429 69.7987 211.745 69.3903 211.135C68.9878 210.52 68.4492 210.034 67.7745 209.679C67.0998 209.318 66.3511 209.138 65.5284 209.138C64.7116 209.138 63.9629 209.318 63.2823 209.679C62.6076 210.034 62.0661 210.52 61.6577 211.135C61.2552 211.745 61.054 212.429 61.054 213.186C61.054 213.938 61.2552 214.633 61.6577 215.272C62.0661 215.906 62.6076 216.415 63.2823 216.799C63.9629 217.184 64.7116 217.376 65.5284 217.376Z" fill="black"/>
<circle cx="123" cy="113" r="50" fill="url(#paint3_radial_247_524)"/>
<g filter="url(#filter2_n_247_524)">
<rect x="48" y="37" width="150" height="150" rx="15" fill="url(#paint4_linear_247_524)" fill-opacity="0.5"/>
<rect x="50.5" y="39.5" width="145" height="145" rx="12.5" stroke="#D2ECFF" stroke-width="5"/>
</g>
<path d="M137.663 108.545H128.651C128.587 107.8 128.416 107.123 128.139 106.516C127.873 105.909 127.5 105.387 127.021 104.95C126.552 104.502 125.982 104.162 125.311 103.927C124.64 103.682 123.878 103.56 123.026 103.56C121.534 103.56 120.272 103.922 119.238 104.646C118.216 105.371 117.438 106.409 116.905 107.762C116.383 109.115 116.122 110.74 116.122 112.636C116.122 114.639 116.388 116.317 116.921 117.67C117.464 119.012 118.248 120.025 119.27 120.706C120.293 121.377 121.523 121.713 122.962 121.713C123.782 121.713 124.517 121.612 125.167 121.409C125.817 121.196 126.381 120.893 126.861 120.499C127.34 120.104 127.729 119.63 128.027 119.076C128.336 118.512 128.544 117.878 128.651 117.175L137.663 117.239C137.557 118.624 137.168 120.035 136.497 121.473C135.826 122.901 134.872 124.222 133.636 125.436C132.411 126.64 130.893 127.61 129.082 128.345C127.271 129.08 125.167 129.447 122.77 129.447C119.766 129.447 117.07 128.803 114.684 127.514C112.308 126.225 110.428 124.328 109.043 121.825C107.669 119.321 106.982 116.259 106.982 112.636C106.982 108.993 107.685 105.925 109.091 103.432C110.497 100.928 112.393 99.0373 114.78 97.7589C117.166 96.4698 119.83 95.8253 122.77 95.8253C124.837 95.8253 126.738 96.1076 128.475 96.6722C130.211 97.2369 131.735 98.0625 133.045 99.1491C134.355 100.225 135.41 101.551 136.209 103.128C137.008 104.705 137.493 106.511 137.663 108.545Z" fill="black"/>
<path d="M106.259 139.638H104.597C104.533 139.283 104.414 138.971 104.24 138.701C104.066 138.431 103.853 138.202 103.601 138.014C103.349 137.826 103.067 137.684 102.754 137.588C102.445 137.492 102.117 137.444 101.769 137.444C101.14 137.444 100.577 137.602 100.08 137.918C99.5866 138.234 99.196 138.697 98.9084 139.308C98.6243 139.919 98.4822 140.665 98.4822 141.545C98.4822 142.433 98.6243 143.183 98.9084 143.793C99.196 144.404 99.5884 144.866 100.086 145.178C100.583 145.491 101.142 145.647 101.763 145.647C102.108 145.647 102.435 145.601 102.744 145.509C103.056 145.413 103.338 145.272 103.591 145.088C103.843 144.903 104.056 144.678 104.23 144.411C104.407 144.141 104.53 143.832 104.597 143.484L106.259 143.49C106.17 144.026 105.998 144.52 105.743 144.971C105.49 145.418 105.165 145.805 104.768 146.132C104.374 146.455 103.923 146.705 103.415 146.883C102.907 147.06 102.353 147.149 101.753 147.149C100.808 147.149 99.9666 146.925 99.228 146.478C98.4893 146.027 97.907 145.382 97.4808 144.544C97.0582 143.706 96.8469 142.707 96.8469 141.545C96.8469 140.381 97.06 139.381 97.4862 138.547C97.9123 137.708 98.4947 137.066 99.2333 136.618C99.9719 136.167 100.812 135.942 101.753 135.942C102.332 135.942 102.871 136.025 103.372 136.192C103.876 136.355 104.329 136.597 104.73 136.917C105.132 137.233 105.464 137.62 105.727 138.078C105.989 138.532 106.167 139.053 106.259 139.638ZM110.482 147.181C109.964 147.181 109.495 147.085 109.076 146.893C108.657 146.698 108.325 146.416 108.08 146.047C107.838 145.677 107.717 145.224 107.717 144.688C107.717 144.227 107.806 143.847 107.984 143.548C108.161 143.25 108.401 143.014 108.703 142.84C109.005 142.666 109.342 142.534 109.715 142.446C110.088 142.357 110.468 142.289 110.855 142.243C111.345 142.186 111.743 142.14 112.048 142.105C112.353 142.066 112.575 142.004 112.714 141.918C112.852 141.833 112.922 141.695 112.922 141.503V141.466C112.922 141 112.79 140.64 112.527 140.384C112.268 140.129 111.881 140.001 111.366 140.001C110.83 140.001 110.407 140.12 110.098 140.358C109.793 140.592 109.582 140.853 109.465 141.141L107.968 140.8C108.145 140.303 108.405 139.901 108.745 139.596C109.09 139.287 109.486 139.063 109.933 138.925C110.381 138.783 110.851 138.712 111.345 138.712C111.672 138.712 112.018 138.751 112.384 138.829C112.753 138.903 113.097 139.042 113.417 139.244C113.74 139.447 114.005 139.736 114.211 140.113C114.417 140.485 114.52 140.97 114.52 141.567V147H112.964V145.881H112.9C112.797 146.087 112.643 146.29 112.437 146.489C112.231 146.687 111.966 146.853 111.643 146.984C111.32 147.115 110.933 147.181 110.482 147.181ZM110.828 145.903C111.269 145.903 111.645 145.816 111.957 145.642C112.274 145.468 112.513 145.24 112.677 144.96C112.843 144.676 112.927 144.372 112.927 144.049V142.994C112.87 143.051 112.76 143.104 112.597 143.154C112.437 143.2 112.254 143.241 112.048 143.277C111.842 143.309 111.641 143.339 111.446 143.367C111.251 143.392 111.087 143.413 110.956 143.431C110.647 143.47 110.365 143.536 110.109 143.628C109.857 143.721 109.655 143.854 109.502 144.028C109.353 144.198 109.278 144.425 109.278 144.71C109.278 145.104 109.424 145.402 109.715 145.604C110.006 145.803 110.377 145.903 110.828 145.903ZM116.641 147V138.818H118.18V140.118H118.266C118.415 139.678 118.678 139.331 119.054 139.079C119.434 138.824 119.864 138.696 120.343 138.696C120.442 138.696 120.56 138.699 120.695 138.706C120.833 138.713 120.941 138.722 121.02 138.733V140.256C120.956 140.239 120.842 140.219 120.679 140.198C120.515 140.173 120.352 140.161 120.189 140.161C119.812 140.161 119.477 140.24 119.182 140.4C118.891 140.556 118.66 140.775 118.489 141.055C118.319 141.332 118.234 141.648 118.234 142.004V147H116.641ZM122.526 147V136.091H124.118V140.145H124.214C124.307 139.974 124.44 139.777 124.614 139.553C124.788 139.33 125.029 139.134 125.338 138.967C125.647 138.797 126.055 138.712 126.563 138.712C127.224 138.712 127.813 138.879 128.332 139.212C128.85 139.546 129.257 140.027 129.552 140.656C129.85 141.284 129.999 142.041 129.999 142.925C129.999 143.809 129.852 144.567 129.557 145.2C129.262 145.828 128.857 146.313 128.342 146.654C127.828 146.991 127.24 147.16 126.579 147.16C126.082 147.16 125.676 147.076 125.359 146.909C125.047 146.743 124.802 146.547 124.624 146.324C124.447 146.1 124.31 145.901 124.214 145.727H124.081V147H122.526ZM124.086 142.909C124.086 143.484 124.17 143.989 124.337 144.422C124.504 144.855 124.745 145.194 125.061 145.439C125.377 145.681 125.764 145.801 126.222 145.801C126.698 145.801 127.096 145.675 127.416 145.423C127.735 145.168 127.977 144.821 128.14 144.385C128.307 143.948 128.39 143.456 128.39 142.909C128.39 142.369 128.309 141.885 128.145 141.455C127.986 141.025 127.744 140.686 127.421 140.438C127.101 140.189 126.702 140.065 126.222 140.065C125.761 140.065 125.37 140.184 125.051 140.422C124.734 140.659 124.495 140.991 124.331 141.418C124.168 141.844 124.086 142.341 124.086 142.909ZM135.234 147.165C134.467 147.165 133.797 146.989 133.226 146.638C132.654 146.286 132.21 145.794 131.894 145.162C131.578 144.53 131.42 143.792 131.42 142.946C131.42 142.098 131.578 141.355 131.894 140.72C132.21 140.084 132.654 139.591 133.226 139.239C133.797 138.887 134.467 138.712 135.234 138.712C136.001 138.712 136.67 138.887 137.242 139.239C137.814 139.591 138.258 140.084 138.574 140.72C138.89 141.355 139.048 142.098 139.048 142.946C139.048 143.792 138.89 144.53 138.574 145.162C138.258 145.794 137.814 146.286 137.242 146.638C136.67 146.989 136.001 147.165 135.234 147.165ZM135.239 145.828C135.736 145.828 136.148 145.697 136.475 145.434C136.802 145.171 137.043 144.821 137.199 144.385C137.359 143.948 137.439 143.467 137.439 142.941C137.439 142.419 137.359 141.94 137.199 141.503C137.043 141.062 136.802 140.709 136.475 140.443C136.148 140.176 135.736 140.043 135.239 140.043C134.738 140.043 134.323 140.176 133.993 140.443C133.666 140.709 133.423 141.062 133.263 141.503C133.107 141.94 133.029 142.419 133.029 142.941C133.029 143.467 133.107 143.948 133.263 144.385C133.423 144.821 133.666 145.171 133.993 145.434C134.323 145.697 134.738 145.828 135.239 145.828ZM142.418 142.142V147H140.826V138.818H142.354V140.15H142.456C142.644 139.717 142.938 139.369 143.34 139.106C143.745 138.843 144.254 138.712 144.869 138.712C145.426 138.712 145.914 138.829 146.333 139.063C146.752 139.294 147.077 139.638 147.308 140.097C147.539 140.555 147.654 141.121 147.654 141.796V147H146.062V141.988C146.062 141.395 145.907 140.931 145.598 140.597C145.289 140.26 144.865 140.091 144.325 140.091C143.956 140.091 143.627 140.171 143.34 140.331C143.056 140.491 142.83 140.725 142.663 141.034C142.5 141.339 142.418 141.709 142.418 142.142Z" fill="black"/>
<path d="M65.4219 75.2486C64.6525 75.2486 63.9393 75.074 63.2823 74.7248C62.6254 74.3756 62.0513 73.8518 61.56 73.1534C61.0747 72.4491 60.6959 71.5643 60.4237 70.4989C60.1573 69.4336 60.0241 68.1877 60.0241 66.7614C60.0241 65.5362 60.11 64.3229 60.2816 63.1214C60.4592 61.9141 60.7551 60.8162 61.1694 59.8278C61.5837 58.8394 62.1519 58.0492 62.8739 57.4574C63.596 56.8655 64.5045 56.5696 65.5994 56.5696C66.4991 56.5696 67.2833 56.7738 67.9521 57.1822C68.6209 57.5846 69.1506 58.1469 69.5412 58.869C69.9318 59.5851 70.1567 60.4167 70.2159 61.3636H69.6477C69.5589 60.1148 69.1594 59.0998 68.4492 58.3185C67.7449 57.5314 66.795 57.1378 65.5994 57.1378C63.9422 57.1378 62.6934 57.9871 61.853 59.6857C61.0125 61.3784 60.5923 63.8198 60.5923 67.0099H60.6634C60.8587 66.4062 61.1871 65.8706 61.6488 65.4031C62.1164 64.9296 62.6697 64.5597 63.3089 64.2933C63.9482 64.0211 64.617 63.8849 65.3153 63.8849C66.2682 63.8849 67.1383 64.1335 67.9254 64.6307C68.7185 65.1278 69.3518 65.8055 69.8253 66.6637C70.2988 67.5219 70.5355 68.4896 70.5355 69.5668C70.5355 70.5729 70.3195 71.508 69.8874 72.3722C69.4613 73.2363 68.8635 73.9317 68.0941 74.4585C67.3306 74.9852 66.4399 75.2486 65.4219 75.2486ZM65.4219 74.6804C66.2978 74.6804 67.0761 74.4496 67.7567 73.9879C68.4433 73.5263 68.9819 72.9078 69.3725 72.1325C69.7691 71.3571 69.9673 70.5019 69.9673 69.5668C69.9673 68.608 69.7572 67.7438 69.337 66.9744C68.9227 66.1991 68.3604 65.5865 67.6502 65.1367C66.9459 64.681 66.1558 64.4531 65.2798 64.4531C64.5874 64.4531 63.9452 64.5981 63.3533 64.8881C62.7615 65.1722 62.2554 65.5658 61.8352 66.0689C61.4209 66.5661 61.125 67.1372 60.9474 67.7823C60.7699 68.4274 60.7462 69.1051 60.8764 69.8153C61.0777 70.8807 61.3913 71.7744 61.8175 72.4964C62.2495 73.2185 62.7704 73.763 63.38 74.13C63.9955 74.4969 64.6761 74.6804 65.4219 74.6804Z" fill="black"/>
<circle cx="282" cy="113" r="25" fill="url(#paint5_radial_247_524)"/>
<g filter="url(#filter3_n_247_524)">
<rect x="207" y="37" width="150" height="150" rx="15" fill="url(#paint6_linear_247_524)" fill-opacity="0.5"/>
<rect x="209.5" y="39.5" width="145" height="145" rx="12.5" stroke="#D2ECFF" stroke-width="5"/>
</g>
<path d="M266.109 129V96.2727H274.994V109.057H286.756V96.2727H295.641V129H286.756V116.216H274.994V129H266.109Z" fill="black"/>
<path d="M247.199 146V135.091H248.844V139.832H254.283V135.091H255.934V146H254.283V141.243H248.844V146H247.199ZM259.21 149.068C258.972 149.068 258.756 149.049 258.56 149.01C258.365 148.974 258.219 148.935 258.124 148.892L258.507 147.587C258.798 147.665 259.058 147.699 259.285 147.689C259.512 147.678 259.713 147.593 259.887 147.433C260.064 147.273 260.221 147.012 260.355 146.65L260.553 146.107L257.559 137.818H259.263L261.336 144.168H261.421L263.493 137.818H265.203L261.831 147.092C261.675 147.518 261.476 147.879 261.234 148.173C260.993 148.472 260.705 148.695 260.371 148.844C260.038 148.994 259.651 149.068 259.21 149.068ZM269.484 146.16C268.824 146.16 268.234 145.991 267.716 145.654C267.201 145.313 266.796 144.828 266.501 144.2C266.21 143.567 266.064 142.809 266.064 141.925C266.064 141.041 266.212 140.284 266.506 139.656C266.805 139.027 267.213 138.546 267.732 138.212C268.25 137.879 268.838 137.712 269.495 137.712C270.003 137.712 270.411 137.797 270.72 137.967C271.032 138.134 271.274 138.33 271.444 138.553C271.618 138.777 271.753 138.974 271.849 139.145H271.945V135.091H273.538V146H271.982V144.727H271.849C271.753 144.901 271.615 145.1 271.434 145.324C271.256 145.547 271.011 145.743 270.699 145.909C270.386 146.076 269.981 146.16 269.484 146.16ZM269.836 144.801C270.294 144.801 270.681 144.681 270.997 144.439C271.316 144.194 271.558 143.855 271.721 143.422C271.888 142.989 271.972 142.484 271.972 141.909C271.972 141.341 271.89 140.844 271.727 140.418C271.563 139.991 271.324 139.659 271.008 139.422C270.691 139.184 270.301 139.065 269.836 139.065C269.356 139.065 268.957 139.189 268.637 139.438C268.318 139.686 268.076 140.025 267.913 140.455C267.753 140.885 267.673 141.369 267.673 141.909C267.673 142.456 267.755 142.948 267.918 143.385C268.081 143.821 268.323 144.168 268.642 144.423C268.966 144.675 269.363 144.801 269.836 144.801ZM275.811 146V137.818H277.35V139.118H277.436C277.585 138.678 277.847 138.331 278.224 138.079C278.604 137.824 279.034 137.696 279.513 137.696C279.612 137.696 279.73 137.699 279.865 137.706C280.003 137.713 280.111 137.722 280.189 137.733V139.256C280.126 139.239 280.012 139.219 279.849 139.198C279.685 139.173 279.522 139.161 279.358 139.161C278.982 139.161 278.646 139.24 278.352 139.4C278.061 139.556 277.83 139.775 277.659 140.055C277.489 140.332 277.404 140.648 277.404 141.004V146H275.811ZM284.721 146.165C283.954 146.165 283.285 145.989 282.713 145.638C282.141 145.286 281.697 144.794 281.381 144.162C281.065 143.53 280.907 142.792 280.907 141.946C280.907 141.098 281.065 140.355 281.381 139.72C281.697 139.084 282.141 138.591 282.713 138.239C283.285 137.887 283.954 137.712 284.721 137.712C285.488 137.712 286.158 137.887 286.729 138.239C287.301 138.591 287.745 139.084 288.061 139.72C288.377 140.355 288.535 141.098 288.535 141.946C288.535 142.792 288.377 143.53 288.061 144.162C287.745 144.794 287.301 145.286 286.729 145.638C286.158 145.989 285.488 146.165 284.721 146.165ZM284.726 144.828C285.224 144.828 285.636 144.697 285.962 144.434C286.289 144.171 286.53 143.821 286.687 143.385C286.847 142.948 286.926 142.467 286.926 141.941C286.926 141.419 286.847 140.94 286.687 140.503C286.53 140.062 286.289 139.709 285.962 139.443C285.636 139.176 285.224 139.043 284.726 139.043C284.226 139.043 283.81 139.176 283.48 139.443C283.153 139.709 282.91 140.062 282.75 140.503C282.594 140.94 282.516 141.419 282.516 141.941C282.516 142.467 282.594 142.948 282.75 143.385C282.91 143.821 283.153 144.171 283.48 144.434C283.81 144.697 284.226 144.828 284.726 144.828ZM293.743 149.239C293.093 149.239 292.534 149.153 292.065 148.983C291.6 148.813 291.22 148.587 290.925 148.306C290.631 148.026 290.411 147.719 290.265 147.385L291.634 146.82C291.73 146.977 291.858 147.142 292.017 147.316C292.181 147.493 292.401 147.644 292.678 147.768C292.958 147.893 293.319 147.955 293.759 147.955C294.363 147.955 294.862 147.808 295.256 147.513C295.65 147.222 295.847 146.756 295.847 146.117V144.509H295.746C295.65 144.683 295.512 144.876 295.331 145.089C295.153 145.302 294.908 145.487 294.596 145.643C294.283 145.799 293.876 145.877 293.376 145.877C292.729 145.877 292.147 145.727 291.629 145.425C291.114 145.119 290.705 144.67 290.403 144.077C290.105 143.48 289.956 142.747 289.956 141.877C289.956 141.007 290.103 140.261 290.398 139.64C290.696 139.018 291.105 138.543 291.623 138.212C292.142 137.879 292.729 137.712 293.386 137.712C293.894 137.712 294.304 137.797 294.617 137.967C294.929 138.134 295.173 138.33 295.347 138.553C295.524 138.777 295.661 138.974 295.757 139.145H295.874V137.818H297.435V146.181C297.435 146.884 297.271 147.461 296.945 147.912C296.618 148.363 296.176 148.697 295.618 148.914C295.064 149.13 294.439 149.239 293.743 149.239ZM293.727 144.556C294.185 144.556 294.572 144.45 294.888 144.237C295.208 144.02 295.45 143.711 295.613 143.31C295.78 142.905 295.863 142.42 295.863 141.856C295.863 141.305 295.782 140.821 295.618 140.402C295.455 139.983 295.215 139.656 294.899 139.422C294.583 139.184 294.192 139.065 293.727 139.065C293.248 139.065 292.848 139.189 292.529 139.438C292.209 139.683 291.968 140.016 291.804 140.439C291.645 140.862 291.565 141.334 291.565 141.856C291.565 142.392 291.646 142.863 291.81 143.267C291.973 143.672 292.214 143.988 292.534 144.216C292.857 144.443 293.255 144.556 293.727 144.556ZM303.097 146.165C302.291 146.165 301.597 145.993 301.014 145.648C300.435 145.3 299.988 144.812 299.672 144.184C299.359 143.551 299.203 142.811 299.203 141.962C299.203 141.124 299.359 140.386 299.672 139.746C299.988 139.107 300.428 138.608 300.993 138.25C301.561 137.891 302.225 137.712 302.985 137.712C303.447 137.712 303.894 137.788 304.327 137.941C304.761 138.093 305.15 138.333 305.494 138.66C305.838 138.987 306.11 139.411 306.309 139.933C306.508 140.451 306.607 141.082 306.607 141.824V142.388H300.103V141.195H305.047C305.047 140.776 304.961 140.405 304.791 140.082C304.62 139.755 304.381 139.498 304.072 139.31C303.766 139.121 303.408 139.027 302.996 139.027C302.548 139.027 302.158 139.137 301.824 139.358C301.494 139.574 301.238 139.858 301.057 140.21C300.879 140.558 300.79 140.936 300.79 141.344V142.277C300.79 142.824 300.886 143.289 301.078 143.672C301.273 144.056 301.545 144.349 301.893 144.551C302.241 144.75 302.648 144.849 303.113 144.849C303.415 144.849 303.69 144.807 303.939 144.722C304.187 144.633 304.402 144.501 304.583 144.327C304.764 144.153 304.903 143.939 304.999 143.683L306.506 143.955C306.385 144.398 306.169 144.787 305.856 145.121C305.547 145.451 305.158 145.709 304.69 145.893C304.224 146.075 303.694 146.165 303.097 146.165ZM309.967 141.142V146H308.374V137.818H309.903V139.15H310.004C310.193 138.717 310.487 138.369 310.889 138.106C311.293 137.843 311.803 137.712 312.417 137.712C312.975 137.712 313.463 137.829 313.882 138.063C314.301 138.294 314.626 138.638 314.857 139.097C315.088 139.555 315.203 140.121 315.203 140.796V146H313.611V140.988C313.611 140.395 313.456 139.931 313.147 139.597C312.838 139.26 312.414 139.091 311.874 139.091C311.505 139.091 311.176 139.171 310.889 139.331C310.604 139.491 310.379 139.725 310.212 140.034C310.049 140.339 309.967 140.709 309.967 141.142Z" fill="black"/>
<path d="M223.357 56.8182V75H222.788V57.4219H222.682L218.776 60.0142V59.3395L222.575 56.8182H223.357Z" fill="black"/>
<circle cx="441" cy="112" r="50" fill="url(#paint7_radial_247_524)"/>
<g filter="url(#filter4_n_247_524)">
<rect x="366" y="37" width="150" height="150" rx="15" fill="url(#paint8_linear_247_524)" fill-opacity="0.5"/>
<rect x="368.5" y="39.5" width="145" height="145" rx="12.5" stroke="#D2ECFF" stroke-width="5"/>
</g>
<path d="M454.426 96.2727V129H447.011L435.186 111.805H434.994V129H426.109V96.2727H433.652L445.286 113.403H445.541V96.2727H454.426Z" fill="black"/>
<path d="M419.004 136.091V147H417.491L411.946 138.999H411.844V147H410.199V136.091H411.722L417.272 144.102H417.374V136.091H419.004ZM421.277 147V138.818H422.869V147H421.277ZM422.081 137.556C421.804 137.556 421.566 137.463 421.367 137.279C421.172 137.091 421.074 136.867 421.074 136.608C421.074 136.345 421.172 136.121 421.367 135.936C421.566 135.748 421.804 135.654 422.081 135.654C422.358 135.654 422.594 135.748 422.79 135.936C422.988 136.121 423.088 136.345 423.088 136.608C423.088 136.867 422.988 137.091 422.79 137.279C422.594 137.463 422.358 137.556 422.081 137.556ZM428.831 138.818V140.097H424.362V138.818H428.831ZM425.561 136.858H427.153V144.598C427.153 144.907 427.2 145.139 427.292 145.295C427.384 145.448 427.503 145.553 427.649 145.61C427.798 145.663 427.96 145.69 428.134 145.69C428.261 145.69 428.373 145.681 428.469 145.663C428.565 145.645 428.64 145.631 428.693 145.62L428.98 146.936C428.888 146.972 428.757 147.007 428.586 147.043C428.416 147.082 428.203 147.103 427.947 147.107C427.528 147.114 427.137 147.039 426.775 146.883C426.413 146.727 426.12 146.485 425.896 146.158C425.673 145.832 425.561 145.422 425.561 144.928V136.858ZM430.593 147V138.818H432.133V140.118H432.218C432.367 139.678 432.63 139.331 433.006 139.079C433.386 138.824 433.816 138.696 434.295 138.696C434.395 138.696 434.512 138.699 434.647 138.706C434.785 138.713 434.894 138.722 434.972 138.733V140.256C434.908 140.239 434.794 140.219 434.631 140.198C434.467 140.173 434.304 140.161 434.141 140.161C433.764 140.161 433.429 140.24 433.134 140.4C432.843 140.556 432.612 140.775 432.441 141.055C432.271 141.332 432.186 141.648 432.186 142.004V147H430.593ZM439.503 147.165C438.736 147.165 438.067 146.989 437.495 146.638C436.923 146.286 436.48 145.794 436.164 145.162C435.847 144.53 435.689 143.792 435.689 142.946C435.689 142.098 435.847 141.355 436.164 140.72C436.48 140.084 436.923 139.591 437.495 139.239C438.067 138.887 438.736 138.712 439.503 138.712C440.27 138.712 440.94 138.887 441.512 139.239C442.083 139.591 442.527 140.084 442.843 140.72C443.159 141.355 443.317 142.098 443.317 142.946C443.317 143.792 443.159 144.53 442.843 145.162C442.527 145.794 442.083 146.286 441.512 146.638C440.94 146.989 440.27 147.165 439.503 147.165ZM439.509 145.828C440.006 145.828 440.418 145.697 440.744 145.434C441.071 145.171 441.313 144.821 441.469 144.385C441.629 143.948 441.709 143.467 441.709 142.941C441.709 142.419 441.629 141.94 441.469 141.503C441.313 141.062 441.071 140.709 440.744 140.443C440.418 140.176 440.006 140.043 439.509 140.043C439.008 140.043 438.593 140.176 438.262 140.443C437.936 140.709 437.692 141.062 437.532 141.503C437.376 141.94 437.298 142.419 437.298 142.941C437.298 143.467 437.376 143.948 437.532 144.385C437.692 144.821 437.936 145.171 438.262 145.434C438.593 145.697 439.008 145.828 439.509 145.828ZM448.525 150.239C447.876 150.239 447.316 150.153 446.848 149.983C446.382 149.813 446.002 149.587 445.708 149.306C445.413 149.026 445.193 148.719 445.047 148.385L446.416 147.82C446.512 147.977 446.64 148.142 446.8 148.316C446.963 148.493 447.183 148.644 447.46 148.768C447.741 148.893 448.101 148.955 448.541 148.955C449.145 148.955 449.644 148.808 450.038 148.513C450.432 148.222 450.63 147.756 450.63 147.117V145.509H450.528C450.432 145.683 450.294 145.876 450.113 146.089C449.935 146.302 449.69 146.487 449.378 146.643C449.065 146.799 448.659 146.877 448.158 146.877C447.512 146.877 446.929 146.727 446.411 146.425C445.896 146.119 445.487 145.67 445.186 145.077C444.887 144.48 444.738 143.747 444.738 142.877C444.738 142.007 444.886 141.261 445.18 140.64C445.479 140.018 445.887 139.543 446.405 139.212C446.924 138.879 447.512 138.712 448.169 138.712C448.676 138.712 449.087 138.797 449.399 138.967C449.712 139.134 449.955 139.33 450.129 139.553C450.306 139.777 450.443 139.974 450.539 140.145H450.656V138.818H452.217V147.181C452.217 147.884 452.054 148.461 451.727 148.912C451.4 149.363 450.958 149.697 450.4 149.914C449.847 150.13 449.222 150.239 448.525 150.239ZM448.509 145.556C448.968 145.556 449.355 145.45 449.671 145.237C449.99 145.02 450.232 144.711 450.395 144.31C450.562 143.905 450.646 143.42 450.646 142.856C450.646 142.305 450.564 141.821 450.4 141.402C450.237 140.983 449.997 140.656 449.681 140.422C449.365 140.184 448.975 140.065 448.509 140.065C448.03 140.065 447.631 140.189 447.311 140.438C446.991 140.683 446.75 141.016 446.587 141.439C446.427 141.862 446.347 142.334 446.347 142.856C446.347 143.392 446.429 143.863 446.592 144.267C446.755 144.672 446.997 144.988 447.316 145.216C447.639 145.443 448.037 145.556 448.509 145.556ZM457.879 147.165C457.073 147.165 456.379 146.993 455.796 146.648C455.218 146.3 454.77 145.812 454.454 145.184C454.142 144.551 453.985 143.811 453.985 142.962C453.985 142.124 454.142 141.386 454.454 140.746C454.77 140.107 455.21 139.608 455.775 139.25C456.343 138.891 457.007 138.712 457.767 138.712C458.229 138.712 458.676 138.788 459.11 138.941C459.543 139.093 459.932 139.333 460.276 139.66C460.621 139.987 460.892 140.411 461.091 140.933C461.29 141.451 461.389 142.082 461.389 142.824V143.388H454.886V142.195H459.829C459.829 141.776 459.744 141.405 459.573 141.082C459.403 140.755 459.163 140.498 458.854 140.31C458.549 140.121 458.19 140.027 457.778 140.027C457.331 140.027 456.94 140.137 456.606 140.358C456.276 140.574 456.02 140.858 455.839 141.21C455.661 141.558 455.573 141.936 455.573 142.344V143.277C455.573 143.824 455.669 144.289 455.86 144.672C456.056 145.056 456.327 145.349 456.675 145.551C457.023 145.75 457.43 145.849 457.895 145.849C458.197 145.849 458.472 145.807 458.721 145.722C458.969 145.633 459.184 145.501 459.365 145.327C459.546 145.153 459.685 144.939 459.781 144.683L461.288 144.955C461.168 145.398 460.951 145.787 460.638 146.121C460.329 146.451 459.941 146.709 459.472 146.893C459.007 147.075 458.476 147.165 457.879 147.165ZM464.749 142.142V147H463.157V138.818H464.685V140.15H464.787C464.975 139.717 465.27 139.369 465.671 139.106C466.076 138.843 466.585 138.712 467.2 138.712C467.757 138.712 468.245 138.829 468.664 139.063C469.083 139.294 469.408 139.638 469.639 140.097C469.87 140.555 469.985 141.121 469.985 141.796V147H468.393V141.988C468.393 141.395 468.238 140.931 467.929 140.597C467.62 140.26 467.196 140.091 466.656 140.091C466.287 140.091 465.958 140.171 465.671 140.331C465.387 140.491 465.161 140.725 464.994 141.034C464.831 141.339 464.749 141.709 464.749 142.142Z" fill="black"/>
<path d="M378.734 75L387.328 57.4574V57.3864H377.456V56.8182H388.003V57.3864L379.374 75H378.734Z" fill="black"/>
<circle cx="441" cy="272" r="55" fill="url(#paint9_radial_247_524)"/>
<g filter="url(#filter5_n_247_524)">
<rect x="366" y="196" width="150" height="150" rx="15" fill="url(#paint10_linear_247_524)" fill-opacity="0.5"/>
<rect x="368.5" y="198.5" width="145" height="145" rx="12.5" stroke="#D2ECFF" stroke-width="5"/>
</g>
<path d="M445.751 265.5C445.666 264.435 445.267 263.604 444.553 263.007C443.85 262.411 442.779 262.112 441.341 262.112C440.425 262.112 439.674 262.224 439.088 262.448C438.512 262.661 438.086 262.954 437.809 263.327C437.532 263.7 437.388 264.126 437.378 264.605C437.357 264.999 437.426 265.356 437.586 265.676C437.756 265.985 438.022 266.267 438.385 266.523C438.747 266.768 439.21 266.991 439.775 267.194C440.339 267.396 441.011 267.577 441.788 267.737L444.473 268.312C446.284 268.696 447.834 269.202 449.123 269.831C450.412 270.459 451.467 271.2 452.287 272.052C453.108 272.893 453.71 273.842 454.093 274.896C454.487 275.951 454.69 277.102 454.7 278.348C454.69 280.5 454.152 282.322 453.086 283.813C452.021 285.305 450.498 286.439 448.516 287.217C446.545 287.995 444.175 288.384 441.405 288.384C438.56 288.384 436.078 287.963 433.958 287.121C431.849 286.279 430.208 284.985 429.036 283.238C427.875 281.48 427.289 279.232 427.278 276.494H435.716C435.769 277.496 436.02 278.337 436.467 279.019C436.914 279.701 437.543 280.218 438.353 280.569C439.173 280.921 440.148 281.097 441.277 281.097C442.225 281.097 443.019 280.979 443.658 280.745C444.297 280.511 444.782 280.186 445.112 279.77C445.442 279.355 445.613 278.881 445.624 278.348C445.613 277.847 445.448 277.411 445.128 277.038C444.819 276.654 444.308 276.313 443.594 276.015C442.88 275.706 441.916 275.418 440.702 275.152L437.442 274.449C434.544 273.82 432.259 272.771 430.586 271.301C428.924 269.82 428.099 267.801 428.109 265.244C428.099 263.167 428.653 261.35 429.771 259.795C430.901 258.229 432.461 257.009 434.453 256.136C436.456 255.262 438.752 254.825 441.341 254.825C443.983 254.825 446.268 255.267 448.196 256.152C450.125 257.036 451.611 258.282 452.655 259.891C453.71 261.489 454.242 263.359 454.253 265.5H445.751Z" fill="black"/>
<path d="M426.148 295.957C426.092 295.452 425.857 295.062 425.445 294.785C425.033 294.504 424.515 294.364 423.89 294.364C423.442 294.364 423.055 294.435 422.729 294.577C422.402 294.716 422.148 294.907 421.967 295.152C421.789 295.394 421.701 295.669 421.701 295.978C421.701 296.237 421.761 296.461 421.882 296.649C422.006 296.837 422.168 296.995 422.366 297.123C422.569 297.248 422.786 297.352 423.016 297.438C423.247 297.519 423.469 297.587 423.682 297.64L424.748 297.917C425.096 298.002 425.452 298.118 425.818 298.263C426.184 298.409 426.523 298.6 426.836 298.838C427.148 299.076 427.4 299.371 427.592 299.723C427.787 300.074 427.885 300.495 427.885 300.985C427.885 301.603 427.725 302.152 427.406 302.631C427.089 303.11 426.63 303.489 426.026 303.766C425.426 304.043 424.7 304.181 423.847 304.181C423.031 304.181 422.324 304.051 421.727 303.792C421.131 303.533 420.664 303.165 420.326 302.69C419.989 302.21 419.803 301.642 419.767 300.985H421.418C421.45 301.379 421.578 301.708 421.802 301.971C422.029 302.23 422.319 302.423 422.67 302.551C423.025 302.675 423.414 302.738 423.837 302.738C424.302 302.738 424.716 302.665 425.078 302.519C425.444 302.37 425.731 302.164 425.941 301.901C426.15 301.635 426.255 301.324 426.255 300.969C426.255 300.646 426.163 300.381 425.978 300.175C425.797 299.969 425.55 299.799 425.238 299.664C424.929 299.529 424.579 299.41 424.188 299.307L422.899 298.956C422.026 298.718 421.333 298.368 420.822 297.906C420.314 297.445 420.06 296.834 420.06 296.074C420.06 295.445 420.23 294.897 420.571 294.428C420.912 293.959 421.374 293.595 421.956 293.336C422.539 293.073 423.196 292.942 423.927 292.942C424.666 292.942 425.317 293.071 425.882 293.331C426.45 293.59 426.898 293.947 427.224 294.401C427.551 294.852 427.722 295.371 427.736 295.957H426.148ZM434.907 300.607V295.818H436.505V304H434.939V302.583H434.854C434.665 303.02 434.364 303.384 433.948 303.675C433.536 303.963 433.023 304.107 432.409 304.107C431.883 304.107 431.418 303.991 431.013 303.76C430.612 303.526 430.296 303.18 430.065 302.722C429.838 302.263 429.724 301.697 429.724 301.022V295.818H431.317V300.831C431.317 301.388 431.471 301.832 431.78 302.162C432.089 302.493 432.49 302.658 432.984 302.658C433.282 302.658 433.579 302.583 433.873 302.434C434.172 302.285 434.419 302.059 434.614 301.757C434.813 301.456 434.91 301.072 434.907 300.607ZM440.238 293.091V304H438.645V293.091H440.238ZM446.274 295.818V297.097H441.65V295.818H446.274ZM442.918 304V294.87C442.918 294.359 443.03 293.934 443.254 293.597C443.478 293.256 443.774 293.002 444.143 292.835C444.513 292.665 444.914 292.58 445.347 292.58C445.667 292.58 445.94 292.606 446.168 292.659C446.395 292.709 446.563 292.755 446.674 292.798L446.301 294.087C446.226 294.066 446.13 294.041 446.013 294.012C445.896 293.98 445.754 293.964 445.587 293.964C445.2 293.964 444.923 294.06 444.756 294.252C444.593 294.444 444.511 294.721 444.511 295.083V304H442.918ZM453.1 300.607V295.818H454.698V304H453.132V302.583H453.047C452.859 303.02 452.557 303.384 452.141 303.675C451.729 303.963 451.216 304.107 450.602 304.107C450.076 304.107 449.611 303.991 449.206 303.76C448.805 303.526 448.489 303.18 448.258 302.722C448.031 302.263 447.917 301.697 447.917 301.022V295.818H449.51V300.831C449.51 301.388 449.665 301.832 449.973 302.162C450.282 302.493 450.684 302.658 451.177 302.658C451.476 302.658 451.772 302.583 452.067 302.434C452.365 302.285 452.612 302.059 452.807 301.757C453.006 301.456 453.104 301.072 453.1 300.607ZM456.838 304V295.818H458.378V297.118H458.463C458.612 296.678 458.875 296.331 459.251 296.079C459.631 295.824 460.061 295.696 460.54 295.696C460.64 295.696 460.757 295.699 460.892 295.706C461.03 295.713 461.139 295.722 461.217 295.733V297.256C461.153 297.239 461.039 297.219 460.876 297.198C460.713 297.173 460.549 297.161 460.386 297.161C460.009 297.161 459.674 297.24 459.379 297.4C459.088 297.556 458.857 297.775 458.687 298.055C458.516 298.332 458.431 298.648 458.431 299.004V304H456.838Z" fill="black"/>
<path d="M382.357 215.818V234H381.788V216.422H381.682L377.776 219.014V218.339L381.575 215.818H382.357ZM393.603 234.249C392.833 234.249 392.12 234.074 391.463 233.725C390.806 233.376 390.232 232.852 389.741 232.153C389.255 231.449 388.877 230.564 388.604 229.499C388.338 228.434 388.205 227.188 388.205 225.761C388.205 224.536 388.291 223.323 388.462 222.121C388.64 220.914 388.936 219.816 389.35 218.828C389.764 217.839 390.333 217.049 391.055 216.457C391.777 215.866 392.685 215.57 393.78 215.57C394.68 215.57 395.464 215.774 396.133 216.182C396.802 216.585 397.331 217.147 397.722 217.869C398.112 218.585 398.337 219.417 398.397 220.364H397.828C397.74 219.115 397.34 218.1 396.63 217.319C395.926 216.531 394.976 216.138 393.78 216.138C392.123 216.138 390.874 216.987 390.034 218.686C389.193 220.378 388.773 222.82 388.773 226.01H388.844C389.039 225.406 389.368 224.871 389.829 224.403C390.297 223.93 390.85 223.56 391.49 223.293C392.129 223.021 392.798 222.885 393.496 222.885C394.449 222.885 395.319 223.134 396.106 223.631C396.899 224.128 397.532 224.806 398.006 225.664C398.479 226.522 398.716 227.49 398.716 228.567C398.716 229.573 398.5 230.508 398.068 231.372C397.642 232.236 397.044 232.932 396.275 233.458C395.511 233.985 394.621 234.249 393.603 234.249ZM393.603 233.68C394.478 233.68 395.257 233.45 395.937 232.988C396.624 232.526 397.163 231.908 397.553 231.132C397.95 230.357 398.148 229.502 398.148 228.567C398.148 227.608 397.938 226.744 397.518 225.974C397.103 225.199 396.541 224.587 395.831 224.137C395.127 223.681 394.336 223.453 393.46 223.453C392.768 223.453 392.126 223.598 391.534 223.888C390.942 224.172 390.436 224.566 390.016 225.069C389.602 225.566 389.306 226.137 389.128 226.782C388.951 227.427 388.927 228.105 389.057 228.815C389.258 229.881 389.572 230.774 389.998 231.496C390.43 232.219 390.951 232.763 391.561 233.13C392.176 233.497 392.857 233.68 393.603 233.68Z" fill="black"/>
<circle cx="282" cy="273" r="55" fill="url(#paint11_radial_247_524)"/>
<g filter="url(#filter6_n_247_524)">
<rect x="207" y="197" width="150" height="150" rx="15" fill="url(#paint12_linear_247_524)" fill-opacity="0.5"/>
<rect x="209.5" y="199.5" width="145" height="145" rx="12.5" stroke="#D2ECFF" stroke-width="5"/>
</g>
<path d="M269.109 289V256.273H283.236C285.665 256.273 287.79 256.752 289.612 257.711C291.434 258.67 292.85 260.017 293.863 261.754C294.875 263.49 295.381 265.52 295.381 267.842C295.381 270.186 294.859 272.216 293.815 273.931C292.781 275.646 291.327 276.967 289.452 277.894C287.588 278.821 285.409 279.284 282.916 279.284H274.479V272.381H281.126C282.17 272.381 283.06 272.2 283.795 271.837C284.541 271.464 285.111 270.937 285.505 270.255C285.91 269.574 286.112 268.769 286.112 267.842C286.112 266.905 285.91 266.106 285.505 265.445C285.111 264.774 284.541 264.263 283.795 263.911C283.06 263.549 282.17 263.368 281.126 263.368H277.994V289H269.109Z" fill="black"/>
<path d="M235.199 305V294.091H239.087C239.936 294.091 240.639 294.245 241.196 294.554C241.754 294.863 242.171 295.286 242.448 295.822C242.725 296.355 242.864 296.955 242.864 297.623C242.864 298.294 242.723 298.897 242.443 299.434C242.166 299.966 241.747 300.389 241.186 300.701C240.628 301.01 239.927 301.165 239.082 301.165H236.408V299.769H238.933C239.469 299.769 239.904 299.677 240.238 299.492C240.571 299.304 240.816 299.048 240.973 298.725C241.129 298.402 241.207 298.034 241.207 297.623C241.207 297.211 241.129 296.845 240.973 296.525C240.816 296.206 240.57 295.955 240.232 295.774C239.898 295.593 239.458 295.502 238.911 295.502H236.844V305H235.199ZM246.258 300.142V305H244.665V294.091H246.237V298.15H246.338C246.53 297.71 246.823 297.36 247.217 297.1C247.611 296.841 248.126 296.712 248.762 296.712C249.323 296.712 249.813 296.827 250.232 297.058C250.654 297.289 250.981 297.633 251.212 298.091C251.446 298.546 251.563 299.114 251.563 299.796V305H249.971V299.988C249.971 299.387 249.816 298.922 249.507 298.592C249.198 298.258 248.769 298.091 248.218 298.091C247.842 298.091 247.505 298.171 247.206 298.331C246.911 298.491 246.679 298.725 246.508 299.034C246.342 299.339 246.258 299.709 246.258 300.142ZM257.135 305.165C256.368 305.165 255.699 304.989 255.127 304.638C254.555 304.286 254.111 303.794 253.795 303.162C253.479 302.53 253.321 301.792 253.321 300.946C253.321 300.098 253.479 299.355 253.795 298.72C254.111 298.084 254.555 297.591 255.127 297.239C255.699 296.887 256.368 296.712 257.135 296.712C257.902 296.712 258.572 296.887 259.143 297.239C259.715 297.591 260.159 298.084 260.475 298.72C260.791 299.355 260.949 300.098 260.949 300.946C260.949 301.792 260.791 302.53 260.475 303.162C260.159 303.794 259.715 304.286 259.143 304.638C258.572 304.989 257.902 305.165 257.135 305.165ZM257.141 303.828C257.638 303.828 258.05 303.697 258.376 303.434C258.703 303.171 258.945 302.821 259.101 302.385C259.261 301.948 259.34 301.467 259.34 300.941C259.34 300.419 259.261 299.94 259.101 299.503C258.945 299.062 258.703 298.709 258.376 298.443C258.05 298.176 257.638 298.043 257.141 298.043C256.64 298.043 256.224 298.176 255.894 298.443C255.567 298.709 255.324 299.062 255.164 299.503C255.008 299.94 254.93 300.419 254.93 300.941C254.93 301.467 255.008 301.948 255.164 302.385C255.324 302.821 255.567 303.171 255.894 303.434C256.224 303.697 256.64 303.828 257.141 303.828ZM268.858 298.816L267.414 299.071C267.354 298.887 267.258 298.711 267.127 298.544C266.999 298.377 266.825 298.24 266.605 298.134C266.385 298.027 266.109 297.974 265.779 297.974C265.328 297.974 264.952 298.075 264.65 298.278C264.348 298.477 264.197 298.734 264.197 299.05C264.197 299.324 264.298 299.544 264.501 299.711C264.703 299.877 265.03 300.014 265.481 300.121L266.781 300.419C267.533 300.593 268.094 300.861 268.464 301.223C268.833 301.586 269.018 302.056 269.018 302.635C269.018 303.125 268.876 303.562 268.592 303.945C268.311 304.325 267.919 304.624 267.414 304.84C266.914 305.057 266.333 305.165 265.673 305.165C264.756 305.165 264.009 304.97 263.43 304.579C262.851 304.185 262.496 303.626 262.365 302.901L263.904 302.667C264 303.068 264.197 303.372 264.495 303.578C264.794 303.78 265.183 303.881 265.662 303.881C266.184 303.881 266.601 303.773 266.914 303.556C267.226 303.336 267.382 303.068 267.382 302.752C267.382 302.496 267.287 302.282 267.095 302.108C266.907 301.934 266.617 301.802 266.227 301.713L264.842 301.41C264.078 301.236 263.513 300.959 263.148 300.579C262.786 300.199 262.604 299.718 262.604 299.135C262.604 298.652 262.739 298.23 263.009 297.868C263.279 297.505 263.652 297.223 264.128 297.021C264.604 296.815 265.149 296.712 265.763 296.712C266.647 296.712 267.343 296.903 267.851 297.287C268.359 297.667 268.695 298.176 268.858 298.816ZM270.769 308.068V296.818H272.324V298.145H272.457C272.55 297.974 272.683 297.777 272.857 297.553C273.031 297.33 273.272 297.134 273.581 296.967C273.89 296.797 274.299 296.712 274.807 296.712C275.467 296.712 276.057 296.879 276.575 297.212C277.093 297.546 277.5 298.027 277.795 298.656C278.093 299.284 278.242 300.041 278.242 300.925C278.242 301.809 278.095 302.567 277.8 303.2C277.505 303.828 277.101 304.313 276.586 304.654C276.071 304.991 275.483 305.16 274.823 305.16C274.325 305.16 273.919 305.076 273.603 304.909C273.29 304.743 273.045 304.547 272.868 304.324C272.69 304.1 272.553 303.901 272.457 303.727H272.362V308.068H270.769ZM272.33 300.909C272.33 301.484 272.413 301.989 272.58 302.422C272.747 302.855 272.988 303.194 273.304 303.439C273.62 303.681 274.008 303.801 274.466 303.801C274.941 303.801 275.339 303.675 275.659 303.423C275.978 303.168 276.22 302.821 276.383 302.385C276.55 301.948 276.634 301.456 276.634 300.909C276.634 300.369 276.552 299.885 276.389 299.455C276.229 299.025 275.987 298.686 275.664 298.438C275.345 298.189 274.945 298.065 274.466 298.065C274.004 298.065 273.613 298.184 273.294 298.422C272.978 298.659 272.738 298.991 272.575 299.418C272.411 299.844 272.33 300.341 272.33 300.909ZM281.619 300.142V305H280.027V294.091H281.598V298.15H281.699C281.891 297.71 282.184 297.36 282.578 297.1C282.972 296.841 283.487 296.712 284.123 296.712C284.684 296.712 285.174 296.827 285.593 297.058C286.016 297.289 286.342 297.633 286.573 298.091C286.808 298.546 286.925 299.114 286.925 299.796V305H285.332V299.988C285.332 299.387 285.178 298.922 284.869 298.592C284.56 298.258 284.13 298.091 283.58 298.091C283.203 298.091 282.866 298.171 282.568 298.331C282.273 298.491 282.04 298.725 281.87 299.034C281.703 299.339 281.619 299.709 281.619 300.142ZM292.497 305.165C291.729 305.165 291.06 304.989 290.488 304.638C289.917 304.286 289.473 303.794 289.157 303.162C288.841 302.53 288.683 301.792 288.683 300.946C288.683 300.098 288.841 299.355 289.157 298.72C289.473 298.084 289.917 297.591 290.488 297.239C291.06 296.887 291.729 296.712 292.497 296.712C293.264 296.712 293.933 296.887 294.505 297.239C295.076 297.591 295.52 298.084 295.836 298.72C296.152 299.355 296.31 300.098 296.31 300.946C296.31 301.792 296.152 302.53 295.836 303.162C295.52 303.794 295.076 304.286 294.505 304.638C293.933 304.989 293.264 305.165 292.497 305.165ZM292.502 303.828C292.999 303.828 293.411 303.697 293.738 303.434C294.064 303.171 294.306 302.821 294.462 302.385C294.622 301.948 294.702 301.467 294.702 300.941C294.702 300.419 294.622 299.94 294.462 299.503C294.306 299.062 294.064 298.709 293.738 298.443C293.411 298.176 292.999 298.043 292.502 298.043C292.001 298.043 291.586 298.176 291.255 298.443C290.929 298.709 290.685 299.062 290.526 299.503C290.369 299.94 290.291 300.419 290.291 300.941C290.291 301.467 290.369 301.948 290.526 302.385C290.685 302.821 290.929 303.171 291.255 303.434C291.586 303.697 292.001 303.828 292.502 303.828ZM298.088 305V296.818H299.628V298.118H299.713C299.862 297.678 300.125 297.331 300.501 297.079C300.881 296.824 301.311 296.696 301.79 296.696C301.89 296.696 302.007 296.699 302.142 296.706C302.28 296.713 302.389 296.722 302.467 296.733V298.256C302.403 298.239 302.289 298.219 302.126 298.198C301.963 298.173 301.799 298.161 301.636 298.161C301.259 298.161 300.924 298.24 300.629 298.4C300.338 298.556 300.107 298.775 299.937 299.055C299.766 299.332 299.681 299.648 299.681 300.004V305H298.088ZM306.998 305.165C306.231 305.165 305.562 304.989 304.99 304.638C304.419 304.286 303.975 303.794 303.659 303.162C303.343 302.53 303.185 301.792 303.185 300.946C303.185 300.098 303.343 299.355 303.659 298.72C303.975 298.084 304.419 297.591 304.99 297.239C305.562 296.887 306.231 296.712 306.998 296.712C307.766 296.712 308.435 296.887 309.007 297.239C309.578 297.591 310.022 298.084 310.338 298.72C310.654 299.355 310.812 300.098 310.812 300.946C310.812 301.792 310.654 302.53 310.338 303.162C310.022 303.794 309.578 304.286 309.007 304.638C308.435 304.989 307.766 305.165 306.998 305.165ZM307.004 303.828C307.501 303.828 307.913 303.697 308.24 303.434C308.566 303.171 308.808 302.821 308.964 302.385C309.124 301.948 309.204 301.467 309.204 300.941C309.204 300.419 309.124 299.94 308.964 299.503C308.808 299.062 308.566 298.709 308.24 298.443C307.913 298.176 307.501 298.043 307.004 298.043C306.503 298.043 306.088 298.176 305.757 298.443C305.431 298.709 305.187 299.062 305.028 299.503C304.871 299.94 304.793 300.419 304.793 300.941C304.793 301.467 304.871 301.948 305.028 302.385C305.187 302.821 305.431 303.171 305.757 303.434C306.088 303.697 306.503 303.828 307.004 303.828ZM317.773 301.607V296.818H319.371V305H317.805V303.583H317.72C317.532 304.02 317.23 304.384 316.814 304.675C316.402 304.963 315.889 305.107 315.275 305.107C314.749 305.107 314.284 304.991 313.879 304.76C313.478 304.526 313.162 304.18 312.931 303.722C312.704 303.263 312.59 302.697 312.59 302.022V296.818H314.183V301.831C314.183 302.388 314.337 302.832 314.646 303.162C314.955 303.493 315.357 303.658 315.85 303.658C316.148 303.658 316.445 303.583 316.74 303.434C317.038 303.285 317.285 303.059 317.48 302.757C317.679 302.456 317.777 302.072 317.773 301.607ZM327.642 298.816L326.199 299.071C326.138 298.887 326.042 298.711 325.911 298.544C325.783 298.377 325.609 298.24 325.389 298.134C325.169 298.027 324.894 297.974 324.563 297.974C324.112 297.974 323.736 298.075 323.434 298.278C323.132 298.477 322.981 298.734 322.981 299.05C322.981 299.324 323.082 299.544 323.285 299.711C323.487 299.877 323.814 300.014 324.265 300.121L325.565 300.419C326.318 300.593 326.879 300.861 327.248 301.223C327.617 301.586 327.802 302.056 327.802 302.635C327.802 303.125 327.66 303.562 327.376 303.945C327.095 304.325 326.703 304.624 326.199 304.84C325.698 305.057 325.117 305.165 324.457 305.165C323.541 305.165 322.793 304.97 322.214 304.579C321.635 304.185 321.28 303.626 321.149 302.901L322.688 302.667C322.784 303.068 322.981 303.372 323.28 303.578C323.578 303.78 323.967 303.881 324.446 303.881C324.968 303.881 325.385 303.773 325.698 303.556C326.01 303.336 326.167 303.068 326.167 302.752C326.167 302.496 326.071 302.282 325.879 302.108C325.691 301.934 325.401 301.802 325.011 301.713L323.626 301.41C322.862 301.236 322.298 300.959 321.932 300.579C321.57 300.199 321.389 299.718 321.389 299.135C321.389 298.652 321.524 298.23 321.793 297.868C322.063 297.505 322.436 297.223 322.912 297.021C323.388 296.815 323.933 296.712 324.547 296.712C325.432 296.712 326.128 296.903 326.635 297.287C327.143 297.667 327.479 298.176 327.642 298.816Z" fill="black"/>
<path d="M223.357 216.818V235H222.788V217.422H222.682L218.776 220.014V219.339L222.575 216.818H223.357ZM234.07 235.249C233.129 235.249 232.297 235.044 231.575 234.636C230.853 234.228 230.288 233.662 229.88 232.94C229.471 232.218 229.27 231.39 229.276 230.455H229.844C229.838 231.697 230.223 232.712 230.998 233.5C231.779 234.287 232.803 234.68 234.07 234.68C235.023 234.68 235.863 234.447 236.591 233.979C237.319 233.511 237.887 232.875 238.296 232.07C238.704 231.265 238.905 230.36 238.899 229.354C238.893 228.277 238.666 227.344 238.216 226.557C237.772 225.77 237.18 225.163 236.44 224.737C235.706 224.311 234.904 224.098 234.034 224.098C233.318 224.098 232.67 224.234 232.09 224.506C231.51 224.779 231.01 225.128 230.59 225.554L229.737 225.412L230.803 216.818H238.864V217.386H231.3L230.377 224.915H230.448C230.903 224.495 231.433 224.16 232.037 223.912C232.641 223.657 233.306 223.53 234.034 223.53C235.011 223.53 235.911 223.772 236.733 224.258C237.562 224.737 238.225 225.415 238.722 226.291C239.225 227.161 239.474 228.182 239.468 229.354C239.462 230.478 239.228 231.484 238.766 232.372C238.305 233.26 237.668 233.961 236.858 234.476C236.047 234.991 235.117 235.249 234.07 235.249Z" fill="black"/>
<defs>
<filter id="filter0_n_247_524" x="0" y="0" width="564" height="383" filterUnits="userSpaceOnUse" color-interpolation-filters="sRGB">
<feFlood flood-opacity="0" result="BackgroundImageFix"/>
<feBlend mode="normal" in="SourceGraphic" in2="BackgroundImageFix" result="shape"/>
<feTurbulence type="fractalNoise" baseFrequency="0.0099999997764825821 0.0099999997764825821" stitchTiles="stitch" numOctaves="3" result="noise" seed="7898" />
<feColorMatrix in="noise" type="luminanceToAlpha" result="alphaNoise" />
<feComponentTransfer in="alphaNoise" result="coloredNoise1">
<feFuncA type="discrete" tableValues="0 0 0 0 0 0 0 0 0 0 1 1 1 1 1 1 1 1 1 1 1 1 1 1 1 1 1 1 1 1 1 1 1 1 1 1 1 1 1 0 0 0 0 0 0 0 0 0 0 0 0 0 0 0 0 0 0 0 0 0 0 0 0 0 0 0 0 0 0 0 0 0 0 0 0 0 0 0 0 0 0 0 0 0 0 0 0 0 0 0 0 0 0 0 0 0 0 0 0 0 "/>
</feComponentTransfer>
<feComposite operator="in" in2="shape" in="coloredNoise1" result="noise1Clipped" />
<feFlood flood-color="#94B899" result="color1Flood" />
<feComposite operator="in" in2="noise1Clipped" in="color1Flood" result="color1" />
<feMerge result="effect1_noise_247_524">
<feMergeNode in="shape" />
<feMergeNode in="color1" />
</feMerge>
</filter>
<filter id="filter1_n_247_524" x="48" y="196" width="150" height="150" filterUnits="userSpaceOnUse" color-interpolation-filters="sRGB">
<feFlood flood-opacity="0" result="BackgroundImageFix"/>
<feBlend mode="normal" in="SourceGraphic" in2="BackgroundImageFix" result="shape"/>
<feTurbulence type="fractalNoise" baseFrequency="0.012836970388889313 0.012836970388889313" stitchTiles="stitch" numOctaves="3" result="noise" seed="3850" />
<feComponentTransfer in="noise" result="coloredNoise1">
<feFuncR type="linear" slope="2" intercept="-0.5" />
<feFuncG type="linear" slope="2" intercept="-0.5" />
<feFuncB type="linear" slope="2" intercept="-0.5" />
<feFuncA type="discrete" tableValues="1 1 1 1 1 1 1 1 1 1 1 1 1 1 1 1 1 1 1 1 1 1 1 1 1 1 1 1 1 1 1 1 1 1 1 1 1 1 1 1 1 1 1 1 1 1 1 1 1 1 1 0 0 0 0 0 0 0 0 0 0 0 0 0 0 0 0 0 0 0 0 0 0 0 0 0 0 0 0 0 0 0 0 0 0 0 0 0 0 0 0 0 0 0 0 0 0 0 0 0 "/>
</feComponentTransfer>
<feComposite operator="in" in2="shape" in="coloredNoise1" result="noise1Clipped" />
<feComponentTransfer in="noise1Clipped" result="color1">
<feFuncA type="table" tableValues="0 0.15" />
</feComponentTransfer>
<feMerge result="effect1_noise_247_524">
<feMergeNode in="shape" />
<feMergeNode in="color1" />
</feMerge>
</filter>
<filter id="filter2_n_247_524" x="48" y="37" width="150" height="150" filterUnits="userSpaceOnUse" color-interpolation-filters="sRGB">
<feFlood flood-opacity="0" result="BackgroundImageFix"/>
<feBlend mode="normal" in="SourceGraphic" in2="BackgroundImageFix" result="shape"/>
<feTurbulence type="fractalNoise" baseFrequency="0.0099999997764825821 0.0099999997764825821" stitchTiles="stitch" numOctaves="3" result="noise" seed="3850" />
<feComponentTransfer in="noise" result="coloredNoise1">
<feFuncR type="linear" slope="2" intercept="-0.5" />
<feFuncG type="linear" slope="2" intercept="-0.5" />
<feFuncB type="linear" slope="2" intercept="-0.5" />
<feFuncA type="discrete" tableValues="0 0 0 0 0 0 0 0 0 0 0 0 0 0 1 1 1 1 1 1 1 1 1 1 1 1 1 1 1 1 1 1 1 1 1 0 0 0 0 0 0 0 0 0 0 0 0 0 0 0 0 0 0 0 0 0 0 0 0 0 0 0 0 0 0 0 0 0 0 0 0 0 0 0 0 0 0 0 0 0 0 0 0 0 0 0 0 0 0 0 0 0 0 0 0 0 0 0 0 0 "/>
</feComponentTransfer>
<feComposite operator="in" in2="shape" in="coloredNoise1" result="noise1Clipped" />
<feComponentTransfer in="noise1Clipped" result="color1">
<feFuncA type="table" tableValues="0 0.15" />
</feComponentTransfer>
<feMerge result="effect1_noise_247_524">
<feMergeNode in="shape" />
<feMergeNode in="color1" />
</feMerge>
</filter>
<filter id="filter3_n_247_524" x="207" y="37" width="150" height="150" filterUnits="userSpaceOnUse" color-interpolation-filters="sRGB">
<feFlood flood-opacity="0" result="BackgroundImageFix"/>
<feBlend mode="normal" in="SourceGraphic" in2="BackgroundImageFix" result="shape"/>
<feTurbulence type="fractalNoise" baseFrequency="0.019342359155416489 0.019342359155416489" stitchTiles="stitch" numOctaves="3" result="noise" seed="3850" />
<feComponentTransfer in="noise" result="coloredNoise1">
<feFuncR type="linear" slope="2" intercept="-0.5" />
<feFuncG type="linear" slope="2" intercept="-0.5" />
<feFuncB type="linear" slope="2" intercept="-0.5" />
<feFuncA type="discrete" tableValues="0 0 1 1 1 1 1 1 1 1 1 1 1 1 1 1 1 1 1 1 1 1 1 1 1 1 1 1 1 1 1 1 1 1 1 1 1 1 1 1 1 1 1 1 1 1 1 1 0 0 0 0 0 0 0 0 0 0 0 0 0 0 0 0 0 0 0 0 0 0 0 0 0 0 0 0 0 0 0 0 0 0 0 0 0 0 0 0 0 0 0 0 0 0 0 0 0 0 0 0 "/>
</feComponentTransfer>
<feComposite operator="in" in2="shape" in="coloredNoise1" result="noise1Clipped" />
<feComponentTransfer in="noise1Clipped" result="color1">
<feFuncA type="table" tableValues="0 0.15" />
</feComponentTransfer>
<feMerge result="effect1_noise_247_524">
<feMergeNode in="shape" />
<feMergeNode in="color1" />
</feMerge>
</filter>
<filter id="filter4_n_247_524" x="366" y="37" width="150" height="150" filterUnits="userSpaceOnUse" color-interpolation-filters="sRGB">
<feFlood flood-opacity="0" result="BackgroundImageFix"/>
<feBlend mode="normal" in="SourceGraphic" in2="BackgroundImageFix" result="shape"/>
<feTurbulence type="fractalNoise" baseFrequency="0.0099999997764825821 0.0099999997764825821" stitchTiles="stitch" numOctaves="3" result="noise" seed="3850" />
<feComponentTransfer in="noise" result="coloredNoise1">
<feFuncR type="linear" slope="2" intercept="-0.5" />
<feFuncG type="linear" slope="2" intercept="-0.5" />
<feFuncB type="linear" slope="2" intercept="-0.5" />
<feFuncA type="discrete" tableValues="1 1 1 1 1 1 1 1 1 1 1 1 1 1 1 1 1 1 1 1 1 1 1 1 1 1 1 1 1 1 1 1 1 1 1 1 1 1 1 1 1 1 1 1 1 1 1 1 1 1 1 0 0 0 0 0 0 0 0 0 0 0 0 0 0 0 0 0 0 0 0 0 0 0 0 0 0 0 0 0 0 0 0 0 0 0 0 0 0 0 0 0 0 0 0 0 0 0 0 0 "/>
</feComponentTransfer>
<feComposite operator="in" in2="shape" in="coloredNoise1" result="noise1Clipped" />
<feComponentTransfer in="noise1Clipped" result="color1">
<feFuncA type="table" tableValues="0 0.15" />
</feComponentTransfer>
<feMerge result="effect1_noise_247_524">
<feMergeNode in="shape" />
<feMergeNode in="color1" />
</feMerge>
</filter>
<filter id="filter5_n_247_524" x="366" y="196" width="150" height="150" filterUnits="userSpaceOnUse" color-interpolation-filters="sRGB">
<feFlood flood-opacity="0" result="BackgroundImageFix"/>
<feBlend mode="normal" in="SourceGraphic" in2="BackgroundImageFix" result="shape"/>
<feTurbulence type="fractalNoise" baseFrequency="0.0099999997764825821 0.0099999997764825821" stitchTiles="stitch" numOctaves="3" result="noise" seed="3850" />
<feComponentTransfer in="noise" result="coloredNoise1">
<feFuncR type="linear" slope="2" intercept="-0.5" />
<feFuncG type="linear" slope="2" intercept="-0.5" />
<feFuncB type="linear" slope="2" intercept="-0.5" />
<feFuncA type="discrete" tableValues="1 1 1 1 1 1 1 1 1 1 1 1 1 1 1 1 1 1 1 1 1 1 1 1 1 1 1 1 1 1 1 1 1 1 1 1 1 1 1 1 1 1 1 1 1 1 1 1 1 1 1 0 0 0 0 0 0 0 0 0 0 0 0 0 0 0 0 0 0 0 0 0 0 0 0 0 0 0 0 0 0 0 0 0 0 0 0 0 0 0 0 0 0 0 0 0 0 0 0 0 "/>
</feComponentTransfer>
<feComposite operator="in" in2="shape" in="coloredNoise1" result="noise1Clipped" />
<feComponentTransfer in="noise1Clipped" result="color1">
<feFuncA type="table" tableValues="0 0.15" />
</feComponentTransfer>
<feMerge result="effect1_noise_247_524">
<feMergeNode in="shape" />
<feMergeNode in="color1" />
</feMerge>
</filter>
<filter id="filter6_n_247_524" x="207" y="197" width="150" height="150" filterUnits="userSpaceOnUse" color-interpolation-filters="sRGB">
<feFlood flood-opacity="0" result="BackgroundImageFix"/>
<feBlend mode="normal" in="SourceGraphic" in2="BackgroundImageFix" result="shape"/>
<feTurbulence type="fractalNoise" baseFrequency="0.0099999997764825821 0.0099999997764825821" stitchTiles="stitch" numOctaves="3" result="noise" seed="3850" />
<feComponentTransfer in="noise" result="coloredNoise1">
<feFuncR type="linear" slope="2" intercept="-0.5" />
<feFuncG type="linear" slope="2" intercept="-0.5" />
<feFuncB type="linear" slope="2" intercept="-0.5" />
<feFuncA type="discrete" tableValues="1 1 1 1 1 1 1 1 1 1 1 1 1 1 1 1 1 1 1 1 1 1 1 1 1 1 1 1 1 1 1 1 1 1 1 1 1 1 1 1 1 1 1 1 1 1 1 1 1 1 1 0 0 0 0 0 0 0 0 0 0 0 0 0 0 0 0 0 0 0 0 0 0 0 0 0 0 0 0 0 0 0 0 0 0 0 0 0 0 0 0 0 0 0 0 0 0 0 0 0 "/>
</feComponentTransfer>
<feComposite operator="in" in2="shape" in="coloredNoise1" result="noise1Clipped" />
<feComponentTransfer in="noise1Clipped" result="color1">
<feFuncA type="table" tableValues="0 0.15" />
</feComponentTransfer>
<feMerge result="effect1_noise_247_524">
<feMergeNode in="shape" />
<feMergeNode in="color1" />
</feMerge>
</filter>
<linearGradient id="paint0_linear_247_524" x1="282" y1="0" x2="282" y2="383" gradientUnits="userSpaceOnUse">
<stop stop-color="#94B899"/>
<stop offset="1" stop-color="#8D9B7B"/>
</linearGradient>
<radialGradient id="paint1_radial_247_524" cx="0" cy="0" r="1" gradientUnits="userSpaceOnUse" gradientTransform="translate(140.5 254) rotate(136.081) scale(74.9667)">
<stop stop-color="#F1775F"/>
<stop offset="1" stop-color="#BD2915"/>
</radialGradient>
<linearGradient id="paint2_linear_247_524" x1="123" y1="196" x2="123" y2="346" gradientUnits="userSpaceOnUse">
<stop stop-color="#F9F8F8"/>
<stop offset="1" stop-color="#E6F4FF"/>
</linearGradient>
<radialGradient id="paint3_radial_247_524" cx="0" cy="0" r="1" gradientUnits="userSpaceOnUse" gradientTransform="translate(140.5 96) rotate(136.081) scale(74.9667)">
<stop stop-color="#6B6B6B"/>
<stop offset="1" stop-color="#1A1A1A"/>
</radialGradient>
<linearGradient id="paint4_linear_247_524" x1="123" y1="37" x2="123" y2="187" gradientUnits="userSpaceOnUse">
<stop stop-color="#F9F8F8"/>
<stop offset="1" stop-color="#E6F4FF"/>
</linearGradient>
<radialGradient id="paint5_radial_247_524" cx="0" cy="0" r="1" gradientUnits="userSpaceOnUse" gradientTransform="translate(290.75 104.5) rotate(136.081) scale(37.4833)">
<stop stop-color="white"/>
<stop offset="1" stop-color="#E0E0E0"/>
</radialGradient>
<linearGradient id="paint6_linear_247_524" x1="282" y1="37" x2="282" y2="187" gradientUnits="userSpaceOnUse">
<stop stop-color="#F9F8F8"/>
<stop offset="1" stop-color="#E6F4FF"/>
</linearGradient>
<radialGradient id="paint7_radial_247_524" cx="0" cy="0" r="1" gradientUnits="userSpaceOnUse" gradientTransform="translate(458.5 95) rotate(136.081) scale(74.9667)">
<stop stop-color="#5FB4F1"/>
<stop offset="1" stop-color="#0077CC"/>
</radialGradient>
<linearGradient id="paint8_linear_247_524" x1="441" y1="37" x2="441" y2="187" gradientUnits="userSpaceOnUse">
<stop stop-color="#F9F8F8"/>
<stop offset="1" stop-color="#E6F4FF"/>
</linearGradient>
<radialGradient id="paint9_radial_247_524" cx="0" cy="0" r="1" gradientUnits="userSpaceOnUse" gradientTransform="translate(460.25 253.3) rotate(136.081) scale(82.4633)">
<stop stop-color="#FFF5C2"/>
<stop offset="1" stop-color="#FFE666"/>
</radialGradient>
<linearGradient id="paint10_linear_247_524" x1="441" y1="196" x2="441" y2="346" gradientUnits="userSpaceOnUse">
<stop stop-color="#F9F8F8"/>
<stop offset="1" stop-color="#E6F4FF"/>
</linearGradient>
<radialGradient id="paint11_radial_247_524" cx="0" cy="0" r="1" gradientUnits="userSpaceOnUse" gradientTransform="translate(301.25 254.3) rotate(136.081) scale(82.4633)">
<stop stop-color="#F1D85F"/>
<stop offset="1" stop-color="#CCAA00"/>
</radialGradient>
<linearGradient id="paint12_linear_247_524" x1="282" y1="197" x2="282" y2="347" gradientUnits="userSpaceOnUse">
<stop stop-color="#F9F8F8"/>
<stop offset="1" stop-color="#E6F4FF"/>
</linearGradient>
</defs>
</svg>
