<svg width="1273" height="559" viewBox="0 0 1273 559" fill="none" xmlns="http://www.w3.org/2000/svg">
<rect x="5" y="5" width="1263" height="549" fill="white" stroke="white" stroke-width="10"/>
<path d="M551 275C548.239 275 546 277.239 546 280C546 282.761 548.239 285 551 285V280V275ZM687 280L637 251.132V308.868L687 280ZM551 280V285H642V280V275H551V280Z" fill="#1F3647"/>
<ellipse cx="112" cy="271" rx="102" ry="102" fill="url(#paint0_radial_673_39)"/>
<path d="M44 417C41.2386 417 39 419.239 39 422C39 424.761 41.2386 427 44 427V422V417ZM183.536 425.536C185.488 423.583 185.488 420.417 183.536 418.464L151.716 386.645C149.763 384.692 146.597 384.692 144.645 386.645C142.692 388.597 142.692 391.763 144.645 393.716L172.929 422L144.645 450.284C142.692 452.237 142.692 455.403 144.645 457.355C146.597 459.308 149.763 459.308 151.716 457.355L183.536 425.536ZM44 422V427H180V422V417H44V422Z" fill="#1F3647"/>
<ellipse cx="418" cy="271" rx="102" ry="102" fill="url(#paint1_radial_673_39)"/>
<path d="M486 427C488.761 427 491 424.761 491 422C491 419.239 488.761 417 486 417V422V427ZM346.464 418.464C344.512 420.417 344.512 423.583 346.464 425.536L378.284 457.355C380.237 459.308 383.403 459.308 385.355 457.355C387.308 455.403 387.308 452.237 385.355 450.284L357.071 422L385.355 393.716C387.308 391.763 387.308 388.597 385.355 386.645C383.403 384.692 380.237 384.692 378.284 386.645L346.464 418.464ZM486 422V417H350V422V427H486V422Z" fill="#1F3647"/>
<path d="M73.85 256.925C74.75 256.825 75.775 256.85 76.925 257C79.775 257.65 81.625 259.2 82.475 261.65L82.625 262.1L83.45 261.35C84.4 260.4 85.275 259.675 86.075 259.175C88.575 257.575 91.325 256.8 94.325 256.85C97.175 257 99.35 257.8 100.85 259.25C101.65 260 102.275 261.025 102.725 262.325L102.8 262.775L103.775 261.8C104.775 260.7 105.8 259.825 106.85 259.175C109.35 257.575 112.1 256.8 115.1 256.85C117.95 257 120.125 257.8 121.625 259.25C123.575 261.15 124.25 263.925 123.65 267.575C123.15 270.475 121.775 274.875 119.525 280.775C118.675 283.125 118.25 284.775 118.25 285.725C118.25 286.725 118.575 287.25 119.225 287.3C119.325 287.3 119.45 287.3 119.6 287.3C120.65 287.2 121.625 286.675 122.525 285.725C123.975 284.275 125.025 282.3 125.675 279.8C125.925 279.05 126.175 278.65 126.425 278.6C126.575 278.55 127.025 278.525 127.775 278.525C128.725 278.525 129.275 278.575 129.425 278.675C129.525 278.775 129.575 278.975 129.575 279.275C129.575 280.375 128.875 282.175 127.475 284.675C127.325 284.925 127.175 285.175 127.025 285.425C125.375 287.975 123.4 289.65 121.1 290.45C119.05 291.1 117.05 290.925 115.1 289.925C114.4 289.575 113.875 289.2 113.525 288.8C113.075 288.35 112.725 287.875 112.475 287.375C111.975 286.425 111.75 285.425 111.8 284.375C111.8 283.325 112.1 281.975 112.7 280.325C115.9 271.825 117.35 266.325 117.05 263.825C116.9 262.375 116.425 261.4 115.625 260.9C115.075 260.45 114.1 260.3 112.7 260.45C109 260.9 105.825 263.3 103.175 267.65L102.725 268.475L100.25 278.225C98.7 284.625 97.8 288.05 97.55 288.5C96.85 290 95.675 290.775 94.025 290.825C93.225 290.825 92.525 290.6 91.925 290.15C91.675 290.05 91.45 289.775 91.25 289.325C91 288.775 91 287.95 91.25 286.85C91.45 285.85 92.175 282.825 93.425 277.775C95.125 271.075 96 267.575 96.05 267.275C96.45 265.225 96.425 263.625 95.975 262.475C95.575 261.075 94.6 260.375 93.05 260.375C88.85 260.375 85.3 262.8 82.4 267.65L81.95 268.475L79.475 278.225C77.925 284.625 77.025 288.05 76.775 288.5C76.075 290 74.9 290.775 73.25 290.825C72.45 290.825 71.75 290.6 71.15 290.15C70.9 290.05 70.675 289.775 70.475 289.325C70.225 288.825 70.2 288.075 70.4 287.075C70.65 285.925 71.525 282.325 73.025 276.275C74.975 268.525 75.975 264.5 76.025 264.2C76.375 261.75 75.9 260.475 74.6 260.375C74.45 260.375 74.3 260.375 74.15 260.375C72.7 260.675 71.4 263 70.25 267.35L69.875 268.7C69.325 269 68.725 269.15 68.075 269.15H66.65L66.425 268.925C66.225 268.725 66.225 268.2 66.425 267.35C67.425 263.9 68.6 261.3 69.95 259.55C71 258.2 72.3 257.325 73.85 256.925ZM140.52 281C140.77 279.75 141.095 278.35 141.495 276.8C141.945 275.2 142.32 273.875 142.62 272.825C142.22 273.175 141.72 273.625 141.12 274.175C140.57 274.675 139.995 275.15 139.395 275.6L135.495 278.15L133.395 274.625L144.045 267.725H148.695L141.87 299.825H136.545L140.52 281Z" fill="white"/>
<path d="M379.85 256.925C380.75 256.825 381.775 256.85 382.925 257C385.775 257.65 387.625 259.2 388.475 261.65L388.625 262.1L389.45 261.35C390.4 260.4 391.275 259.675 392.075 259.175C394.575 257.575 397.325 256.8 400.325 256.85C403.175 257 405.35 257.8 406.85 259.25C407.65 260 408.275 261.025 408.725 262.325L408.8 262.775L409.775 261.8C410.775 260.7 411.8 259.825 412.85 259.175C415.35 257.575 418.1 256.8 421.1 256.85C423.95 257 426.125 257.8 427.625 259.25C429.575 261.15 430.25 263.925 429.65 267.575C429.15 270.475 427.775 274.875 425.525 280.775C424.675 283.125 424.25 284.775 424.25 285.725C424.25 286.725 424.575 287.25 425.225 287.3C425.325 287.3 425.45 287.3 425.6 287.3C426.65 287.2 427.625 286.675 428.525 285.725C429.975 284.275 431.025 282.3 431.675 279.8C431.925 279.05 432.175 278.65 432.425 278.6C432.575 278.55 433.025 278.525 433.775 278.525C434.725 278.525 435.275 278.575 435.425 278.675C435.525 278.775 435.575 278.975 435.575 279.275C435.575 280.375 434.875 282.175 433.475 284.675C433.325 284.925 433.175 285.175 433.025 285.425C431.375 287.975 429.4 289.65 427.1 290.45C425.05 291.1 423.05 290.925 421.1 289.925C420.4 289.575 419.875 289.2 419.525 288.8C419.075 288.35 418.725 287.875 418.475 287.375C417.975 286.425 417.75 285.425 417.8 284.375C417.8 283.325 418.1 281.975 418.7 280.325C421.9 271.825 423.35 266.325 423.05 263.825C422.9 262.375 422.425 261.4 421.625 260.9C421.075 260.45 420.1 260.3 418.7 260.45C415 260.9 411.825 263.3 409.175 267.65L408.725 268.475L406.25 278.225C404.7 284.625 403.8 288.05 403.55 288.5C402.85 290 401.675 290.775 400.025 290.825C399.225 290.825 398.525 290.6 397.925 290.15C397.675 290.05 397.45 289.775 397.25 289.325C397 288.775 397 287.95 397.25 286.85C397.45 285.85 398.175 282.825 399.425 277.775C401.125 271.075 402 267.575 402.05 267.275C402.45 265.225 402.425 263.625 401.975 262.475C401.575 261.075 400.6 260.375 399.05 260.375C394.85 260.375 391.3 262.8 388.4 267.65L387.95 268.475L385.475 278.225C383.925 284.625 383.025 288.05 382.775 288.5C382.075 290 380.9 290.775 379.25 290.825C378.45 290.825 377.75 290.6 377.15 290.15C376.9 290.05 376.675 289.775 376.475 289.325C376.225 288.825 376.2 288.075 376.4 287.075C376.65 285.925 377.525 282.325 379.025 276.275C380.975 268.525 381.975 264.5 382.025 264.2C382.375 261.75 381.9 260.475 380.6 260.375C380.45 260.375 380.3 260.375 380.15 260.375C378.7 260.675 377.4 263 376.25 267.35L375.875 268.7C375.325 269 374.725 269.15 374.075 269.15H372.65L372.425 268.925C372.225 268.725 372.225 268.2 372.425 267.35C373.425 263.9 374.6 261.3 375.95 259.55C377 258.2 378.3 257.325 379.85 256.925ZM433.245 299.75L434.145 295.625L443.82 287.375C445.82 285.625 447.445 284.1 448.695 282.8C449.995 281.5 450.945 280.275 451.545 279.125C452.195 277.975 452.52 276.75 452.52 275.45C452.52 274.2 452.145 273.2 451.395 272.45C450.695 271.7 449.645 271.325 448.245 271.325C446.995 271.325 445.795 271.575 444.645 272.075C443.495 272.525 442.32 273.25 441.12 274.25L438.795 270.725C440.345 269.475 441.945 268.55 443.595 267.95C445.295 267.3 447.145 266.975 449.145 266.975C451.245 266.975 452.92 267.35 454.17 268.1C455.42 268.85 456.32 269.825 456.87 271.025C457.47 272.175 457.77 273.375 457.77 274.625C457.77 276.275 457.47 277.8 456.87 279.2C456.32 280.6 455.37 282.05 454.02 283.55C452.67 285.05 450.845 286.75 448.545 288.65L440.745 295.175H455.07L454.095 299.75H433.245Z" fill="white"/>
<path d="M95.3 450.95C95.8 450.85 96.5 450.883 97.4 451.05C99.2 451.517 100.283 452.55 100.65 454.15C100.75 454.55 100.783 454.95 100.75 455.35C100.717 455.95 100.45 456.917 99.95 458.25C98.7167 461.517 97.9167 464.017 97.55 465.75C97.25 467.517 97.3167 468.883 97.75 469.85C98.05 470.483 98.5167 470.883 99.15 471.05C99.95 471.383 100.95 471.25 102.15 470.65C103.117 470.117 103.95 469.283 104.65 468.15C104.75 468.017 105.4 465.517 106.6 460.65C107.867 455.683 108.55 453.117 108.65 452.95C109.183 451.983 109.983 451.483 111.05 451.45C111.583 451.45 112.033 451.6 112.4 451.9C112.567 451.967 112.717 452.15 112.85 452.45C113.017 452.817 113.033 453.333 112.9 454C112.733 454.767 112.167 457.067 111.2 460.9C110 465.7 109.367 468.3 109.3 468.7C109.233 469.567 109.25 470.15 109.35 470.45C109.483 470.883 109.767 471.133 110.2 471.2C110.6 471.2 110.917 471.1 111.15 470.9C111.85 470.4 112.533 468.917 113.2 466.45C113.333 465.817 113.483 465.467 113.65 465.4C113.783 465.367 114.1 465.35 114.6 465.35C115.233 465.35 115.583 465.383 115.65 465.45C115.85 465.583 115.85 465.967 115.65 466.6C115.083 468.7 114.4 470.3 113.6 471.4C113.067 472.2 112.417 472.783 111.65 473.15C111.117 473.417 110.45 473.55 109.65 473.55C107.683 473.45 106.25 472.65 105.35 471.15L105.2 470.9L105 471.1C104.367 471.767 103.567 472.35 102.6 472.85C101.7 473.283 100.8 473.517 99.9 473.55C97.8 473.617 96.1167 473.133 94.85 472.1C93.35 470.9 92.7 469.067 92.9 466.6C93.0333 464.967 93.8167 462.217 95.25 458.35C95.2833 458.217 95.3167 458.1 95.35 458C95.8167 456.833 96.0667 456.133 96.1 455.9C96.5 454.767 96.55 453.983 96.25 453.55C96.1167 453.35 95.85 453.25 95.45 453.25C94.05 453.383 92.8667 454.583 91.9 456.85C91.7333 457.25 91.5833 457.683 91.45 458.15C91.3167 458.55 91.25 458.767 91.25 458.8C90.8833 459 90.4833 459.1 90.05 459.1H89.1L88.95 458.95C88.7833 458.817 88.8 458.467 89 457.9C89.2667 457 89.5667 456.233 89.9 455.6C91.2667 452.9 93.0667 451.35 95.3 450.95ZM123.063 467C123.23 466.167 123.447 465.233 123.713 464.2C124.013 463.133 124.263 462.25 124.463 461.55C124.197 461.783 123.863 462.083 123.463 462.45C123.097 462.783 122.713 463.1 122.313 463.4L119.713 465.1L118.313 462.75L125.413 458.15H128.513L123.963 479.55H120.413L123.063 467Z" fill="#1F3647"/>
<path d="M401.3 450.95C401.8 450.85 402.5 450.883 403.4 451.05C405.2 451.517 406.283 452.55 406.65 454.15C406.75 454.55 406.783 454.95 406.75 455.35C406.717 455.95 406.45 456.917 405.95 458.25C404.717 461.517 403.917 464.017 403.55 465.75C403.25 467.517 403.317 468.883 403.75 469.85C404.05 470.483 404.517 470.883 405.15 471.05C405.95 471.383 406.95 471.25 408.15 470.65C409.117 470.117 409.95 469.283 410.65 468.15C410.75 468.017 411.4 465.517 412.6 460.65C413.867 455.683 414.55 453.117 414.65 452.95C415.183 451.983 415.983 451.483 417.05 451.45C417.583 451.45 418.033 451.6 418.4 451.9C418.567 451.967 418.717 452.15 418.85 452.45C419.017 452.817 419.033 453.333 418.9 454C418.733 454.767 418.167 457.067 417.2 460.9C416 465.7 415.367 468.3 415.3 468.7C415.233 469.567 415.25 470.15 415.35 470.45C415.483 470.883 415.767 471.133 416.2 471.2C416.6 471.2 416.917 471.1 417.15 470.9C417.85 470.4 418.533 468.917 419.2 466.45C419.333 465.817 419.483 465.467 419.65 465.4C419.783 465.367 420.1 465.35 420.6 465.35C421.233 465.35 421.583 465.383 421.65 465.45C421.85 465.583 421.85 465.967 421.65 466.6C421.083 468.7 420.4 470.3 419.6 471.4C419.067 472.2 418.417 472.783 417.65 473.15C417.117 473.417 416.45 473.55 415.65 473.55C413.683 473.45 412.25 472.65 411.35 471.15L411.2 470.9L411 471.1C410.367 471.767 409.567 472.35 408.6 472.85C407.7 473.283 406.8 473.517 405.9 473.55C403.8 473.617 402.117 473.133 400.85 472.1C399.35 470.9 398.7 469.067 398.9 466.6C399.033 464.967 399.817 462.217 401.25 458.35C401.283 458.217 401.317 458.1 401.35 458C401.817 456.833 402.067 456.133 402.1 455.9C402.5 454.767 402.55 453.983 402.25 453.55C402.117 453.35 401.85 453.25 401.45 453.25C400.05 453.383 398.867 454.583 397.9 456.85C397.733 457.25 397.583 457.683 397.45 458.15C397.317 458.55 397.25 458.767 397.25 458.8C396.883 459 396.483 459.1 396.05 459.1H395.1L394.95 458.95C394.783 458.817 394.8 458.467 395 457.9C395.267 457 395.567 456.233 395.9 455.6C397.267 452.9 399.067 451.35 401.3 450.95ZM420.213 479.5L420.813 476.75L427.263 471.25C428.597 470.083 429.68 469.067 430.513 468.2C431.38 467.333 432.013 466.517 432.413 465.75C432.847 464.983 433.063 464.167 433.063 463.3C433.063 462.467 432.813 461.8 432.313 461.3C431.847 460.8 431.147 460.55 430.213 460.55C429.38 460.55 428.58 460.717 427.813 461.05C427.047 461.35 426.263 461.833 425.463 462.5L423.913 460.15C424.947 459.317 426.013 458.7 427.113 458.3C428.247 457.867 429.48 457.65 430.813 457.65C432.213 457.65 433.33 457.9 434.163 458.4C434.997 458.9 435.597 459.55 435.963 460.35C436.363 461.117 436.563 461.917 436.563 462.75C436.563 463.85 436.363 464.867 435.963 465.8C435.597 466.733 434.963 467.7 434.063 468.7C433.163 469.7 431.947 470.833 430.413 472.1L425.213 476.45H434.763L434.113 479.5H420.213Z" fill="#1F3647"/>
<ellipse cx="819" cy="271" rx="102" ry="102" fill="url(#paint2_radial_673_39)"/>
<path d="M887 427C889.761 427 892 424.761 892 422C892 419.239 889.761 417 887 417V422V427ZM747.464 418.464C745.512 420.417 745.512 423.583 747.464 425.536L779.284 457.355C781.237 459.308 784.403 459.308 786.355 457.355C788.308 455.403 788.308 452.237 786.355 450.284L758.071 422L786.355 393.716C788.308 391.763 788.308 388.597 786.355 386.645C784.403 384.692 781.237 384.692 779.284 386.645L747.464 418.464ZM887 422V417H751V422V427H887V422Z" fill="#1F3647"/>
<ellipse cx="1125" cy="271" rx="102" ry="102" fill="url(#paint3_radial_673_39)"/>
<path d="M1057 417C1054.24 417 1052 419.239 1052 422C1052 424.761 1054.24 427 1057 427V422V417ZM1196.54 425.536C1198.49 423.583 1198.49 420.417 1196.54 418.464L1164.72 386.645C1162.76 384.692 1159.6 384.692 1157.64 386.645C1155.69 388.597 1155.69 391.763 1157.64 393.716L1185.93 422L1157.64 450.284C1155.69 452.237 1155.69 455.403 1157.64 457.355C1159.6 459.308 1162.76 459.308 1164.72 457.355L1196.54 425.536ZM1057 422V427H1193V422V417H1057V422Z" fill="#1F3647"/>
<path d="M782.85 256.925C783.75 256.825 784.775 256.85 785.925 257C788.775 257.65 790.625 259.2 791.475 261.65L791.625 262.1L792.45 261.35C793.4 260.4 794.275 259.675 795.075 259.175C797.575 257.575 800.325 256.8 803.325 256.85C806.175 257 808.35 257.8 809.85 259.25C810.65 260 811.275 261.025 811.725 262.325L811.8 262.775L812.775 261.8C813.775 260.7 814.8 259.825 815.85 259.175C818.35 257.575 821.1 256.8 824.1 256.85C826.95 257 829.125 257.8 830.625 259.25C832.575 261.15 833.25 263.925 832.65 267.575C832.15 270.475 830.775 274.875 828.525 280.775C827.675 283.125 827.25 284.775 827.25 285.725C827.25 286.725 827.575 287.25 828.225 287.3C828.325 287.3 828.45 287.3 828.6 287.3C829.65 287.2 830.625 286.675 831.525 285.725C832.975 284.275 834.025 282.3 834.675 279.8C834.925 279.05 835.175 278.65 835.425 278.6C835.575 278.55 836.025 278.525 836.775 278.525C837.725 278.525 838.275 278.575 838.425 278.675C838.525 278.775 838.575 278.975 838.575 279.275C838.575 280.375 837.875 282.175 836.475 284.675C836.325 284.925 836.175 285.175 836.025 285.425C834.375 287.975 832.4 289.65 830.1 290.45C828.05 291.1 826.05 290.925 824.1 289.925C823.4 289.575 822.875 289.2 822.525 288.8C822.075 288.35 821.725 287.875 821.475 287.375C820.975 286.425 820.75 285.425 820.8 284.375C820.8 283.325 821.1 281.975 821.7 280.325C824.9 271.825 826.35 266.325 826.05 263.825C825.9 262.375 825.425 261.4 824.625 260.9C824.075 260.45 823.1 260.3 821.7 260.45C818 260.9 814.825 263.3 812.175 267.65L811.725 268.475L809.25 278.225C807.7 284.625 806.8 288.05 806.55 288.5C805.85 290 804.675 290.775 803.025 290.825C802.225 290.825 801.525 290.6 800.925 290.15C800.675 290.05 800.45 289.775 800.25 289.325C800 288.775 800 287.95 800.25 286.85C800.45 285.85 801.175 282.825 802.425 277.775C804.125 271.075 805 267.575 805.05 267.275C805.45 265.225 805.425 263.625 804.975 262.475C804.575 261.075 803.6 260.375 802.05 260.375C797.85 260.375 794.3 262.8 791.4 267.65L790.95 268.475L788.475 278.225C786.925 284.625 786.025 288.05 785.775 288.5C785.075 290 783.9 290.775 782.25 290.825C781.45 290.825 780.75 290.6 780.15 290.15C779.9 290.05 779.675 289.775 779.475 289.325C779.225 288.825 779.2 288.075 779.4 287.075C779.65 285.925 780.525 282.325 782.025 276.275C783.975 268.525 784.975 264.5 785.025 264.2C785.375 261.75 784.9 260.475 783.6 260.375C783.45 260.375 783.3 260.375 783.15 260.375C781.7 260.675 780.4 263 779.25 267.35L778.875 268.7C778.325 269 777.725 269.15 777.075 269.15H775.65L775.425 268.925C775.225 268.725 775.225 268.2 775.425 267.35C776.425 263.9 777.6 261.3 778.95 259.55C780 258.2 781.3 257.325 782.85 256.925ZM849.52 281C849.77 279.75 850.095 278.35 850.495 276.8C850.945 275.2 851.32 273.875 851.62 272.825C851.22 273.175 850.72 273.625 850.12 274.175C849.57 274.675 848.995 275.15 848.395 275.6L844.495 278.15L842.395 274.625L853.045 267.725H857.695L850.87 299.825H845.545L849.52 281Z" fill="white"/>
<path d="M1086.85 256.925C1087.75 256.825 1088.78 256.85 1089.93 257C1092.78 257.65 1094.63 259.2 1095.48 261.65L1095.63 262.1L1096.45 261.35C1097.4 260.4 1098.28 259.675 1099.08 259.175C1101.58 257.575 1104.33 256.8 1107.33 256.85C1110.18 257 1112.35 257.8 1113.85 259.25C1114.65 260 1115.28 261.025 1115.73 262.325L1115.8 262.775L1116.78 261.8C1117.78 260.7 1118.8 259.825 1119.85 259.175C1122.35 257.575 1125.1 256.8 1128.1 256.85C1130.95 257 1133.13 257.8 1134.63 259.25C1136.58 261.15 1137.25 263.925 1136.65 267.575C1136.15 270.475 1134.78 274.875 1132.53 280.775C1131.68 283.125 1131.25 284.775 1131.25 285.725C1131.25 286.725 1131.58 287.25 1132.23 287.3C1132.33 287.3 1132.45 287.3 1132.6 287.3C1133.65 287.2 1134.63 286.675 1135.53 285.725C1136.98 284.275 1138.03 282.3 1138.68 279.8C1138.93 279.05 1139.18 278.65 1139.43 278.6C1139.58 278.55 1140.03 278.525 1140.78 278.525C1141.73 278.525 1142.28 278.575 1142.43 278.675C1142.53 278.775 1142.58 278.975 1142.58 279.275C1142.58 280.375 1141.88 282.175 1140.48 284.675C1140.33 284.925 1140.18 285.175 1140.03 285.425C1138.38 287.975 1136.4 289.65 1134.1 290.45C1132.05 291.1 1130.05 290.925 1128.1 289.925C1127.4 289.575 1126.88 289.2 1126.53 288.8C1126.08 288.35 1125.73 287.875 1125.48 287.375C1124.98 286.425 1124.75 285.425 1124.8 284.375C1124.8 283.325 1125.1 281.975 1125.7 280.325C1128.9 271.825 1130.35 266.325 1130.05 263.825C1129.9 262.375 1129.43 261.4 1128.63 260.9C1128.08 260.45 1127.1 260.3 1125.7 260.45C1122 260.9 1118.83 263.3 1116.18 267.65L1115.73 268.475L1113.25 278.225C1111.7 284.625 1110.8 288.05 1110.55 288.5C1109.85 290 1108.68 290.775 1107.03 290.825C1106.23 290.825 1105.53 290.6 1104.93 290.15C1104.68 290.05 1104.45 289.775 1104.25 289.325C1104 288.775 1104 287.95 1104.25 286.85C1104.45 285.85 1105.18 282.825 1106.43 277.775C1108.13 271.075 1109 267.575 1109.05 267.275C1109.45 265.225 1109.43 263.625 1108.98 262.475C1108.58 261.075 1107.6 260.375 1106.05 260.375C1101.85 260.375 1098.3 262.8 1095.4 267.65L1094.95 268.475L1092.48 278.225C1090.93 284.625 1090.03 288.05 1089.78 288.5C1089.08 290 1087.9 290.775 1086.25 290.825C1085.45 290.825 1084.75 290.6 1084.15 290.15C1083.9 290.05 1083.68 289.775 1083.48 289.325C1083.23 288.825 1083.2 288.075 1083.4 287.075C1083.65 285.925 1084.53 282.325 1086.03 276.275C1087.98 268.525 1088.98 264.5 1089.02 264.2C1089.38 261.75 1088.9 260.475 1087.6 260.375C1087.45 260.375 1087.3 260.375 1087.15 260.375C1085.7 260.675 1084.4 263 1083.25 267.35L1082.88 268.7C1082.33 269 1081.73 269.15 1081.08 269.15H1079.65L1079.43 268.925C1079.23 268.725 1079.23 268.2 1079.43 267.35C1080.43 263.9 1081.6 261.3 1082.95 259.55C1084 258.2 1085.3 257.325 1086.85 256.925ZM1140.24 299.75L1141.14 295.625L1150.82 287.375C1152.82 285.625 1154.44 284.1 1155.69 282.8C1156.99 281.5 1157.94 280.275 1158.54 279.125C1159.19 277.975 1159.52 276.75 1159.52 275.45C1159.52 274.2 1159.14 273.2 1158.39 272.45C1157.69 271.7 1156.64 271.325 1155.24 271.325C1153.99 271.325 1152.79 271.575 1151.64 272.075C1150.49 272.525 1149.32 273.25 1148.12 274.25L1145.79 270.725C1147.34 269.475 1148.94 268.55 1150.59 267.95C1152.29 267.3 1154.14 266.975 1156.14 266.975C1158.24 266.975 1159.92 267.35 1161.17 268.1C1162.42 268.85 1163.32 269.825 1163.87 271.025C1164.47 272.175 1164.77 273.375 1164.77 274.625C1164.77 276.275 1164.47 277.8 1163.87 279.2C1163.32 280.6 1162.37 282.05 1161.02 283.55C1159.67 285.05 1157.84 286.75 1155.54 288.65L1147.74 295.175H1162.07L1161.09 299.75H1140.24Z" fill="white"/>
<path d="M820 450.95C820.533 450.817 821.067 450.883 821.6 451.15C822.333 451.45 822.85 452.15 823.15 453.25C823.217 453.583 823.25 454.1 823.25 454.8C823.25 455.733 823.133 456.817 822.9 458.05C822.4 460.517 821.817 462.633 821.15 464.4C819.15 469.633 816.65 472.633 813.65 473.4C812.25 473.733 810.683 473.617 808.95 473.05C807.683 472.65 806.717 472 806.05 471.1C804.917 469.533 804.6 467.483 805.1 464.95C805.3 463.65 806.05 461.3 807.35 457.9C808.05 456.033 808.383 454.767 808.35 454.1C808.317 453.567 808.1 453.283 807.7 453.25C807.6 453.25 807.5 453.25 807.4 453.25C806.567 453.35 805.8 453.85 805.1 454.75C804.667 455.217 804.317 455.817 804.05 456.55C803.717 457.183 803.467 457.883 803.3 458.65C803.2 458.85 803.133 458.967 803.1 459C803.033 459.067 802.683 459.1 802.05 459.1H801.1L800.95 458.95C800.783 458.817 800.8 458.467 801 457.9C801.633 455.767 802.6 454.05 803.9 452.75C804.5 452.183 805.133 451.75 805.8 451.45C806.5 451.083 807.267 450.917 808.1 450.95C808.667 450.95 809.083 450.983 809.35 451.05C811.05 451.517 812.133 452.533 812.6 454.1C812.733 454.667 812.733 455.383 812.6 456.25C812.533 456.483 812.283 457.167 811.85 458.3C810.55 461.867 809.783 464.317 809.55 465.65C809.483 466.017 809.45 466.6 809.45 467.4C809.45 468.133 809.483 468.617 809.55 468.85C809.817 469.817 810.3 470.467 811 470.8C811.4 471.033 811.95 471.15 812.65 471.15C813.117 471.15 813.5 471.1 813.8 471C816.1 470.2 817.983 467.167 819.45 461.9C819.75 460.833 819.9 459.983 819.9 459.35C819.9 458.683 819.783 458.067 819.55 457.5C819.183 456.8 818.667 456.183 818 455.65C817.8 455.483 817.633 455.267 817.5 455C817.4 454.833 817.333 454.567 817.3 454.2C817.3 453.7 817.417 453.233 817.65 452.8C818.15 451.8 818.933 451.183 820 450.95ZM830.718 467C830.884 466.167 831.101 465.233 831.368 464.2C831.668 463.133 831.918 462.25 832.118 461.55C831.851 461.783 831.518 462.083 831.118 462.45C830.751 462.783 830.368 463.1 829.968 463.4L827.368 465.1L825.968 462.75L833.068 458.15H836.168L831.618 479.55H828.068L830.718 467Z" fill="#1F3647"/>
<path d="M1124 450.95C1124.53 450.817 1125.07 450.883 1125.6 451.15C1126.33 451.45 1126.85 452.15 1127.15 453.25C1127.22 453.583 1127.25 454.1 1127.25 454.8C1127.25 455.733 1127.13 456.817 1126.9 458.05C1126.4 460.517 1125.82 462.633 1125.15 464.4C1123.15 469.633 1120.65 472.633 1117.65 473.4C1116.25 473.733 1114.68 473.617 1112.95 473.05C1111.68 472.65 1110.72 472 1110.05 471.1C1108.92 469.533 1108.6 467.483 1109.1 464.95C1109.3 463.65 1110.05 461.3 1111.35 457.9C1112.05 456.033 1112.38 454.767 1112.35 454.1C1112.32 453.567 1112.1 453.283 1111.7 453.25C1111.6 453.25 1111.5 453.25 1111.4 453.25C1110.57 453.35 1109.8 453.85 1109.1 454.75C1108.67 455.217 1108.32 455.817 1108.05 456.55C1107.72 457.183 1107.47 457.883 1107.3 458.65C1107.2 458.85 1107.13 458.967 1107.1 459C1107.03 459.067 1106.68 459.1 1106.05 459.1H1105.1L1104.95 458.95C1104.78 458.817 1104.8 458.467 1105 457.9C1105.63 455.767 1106.6 454.05 1107.9 452.75C1108.5 452.183 1109.13 451.75 1109.8 451.45C1110.5 451.083 1111.27 450.917 1112.1 450.95C1112.67 450.95 1113.08 450.983 1113.35 451.05C1115.05 451.517 1116.13 452.533 1116.6 454.1C1116.73 454.667 1116.73 455.383 1116.6 456.25C1116.53 456.483 1116.28 457.167 1115.85 458.3C1114.55 461.867 1113.78 464.317 1113.55 465.65C1113.48 466.017 1113.45 466.6 1113.45 467.4C1113.45 468.133 1113.48 468.617 1113.55 468.85C1113.82 469.817 1114.3 470.467 1115 470.8C1115.4 471.033 1115.95 471.15 1116.65 471.15C1117.12 471.15 1117.5 471.1 1117.8 471C1120.1 470.2 1121.98 467.167 1123.45 461.9C1123.75 460.833 1123.9 459.983 1123.9 459.35C1123.9 458.683 1123.78 458.067 1123.55 457.5C1123.18 456.8 1122.67 456.183 1122 455.65C1121.8 455.483 1121.63 455.267 1121.5 455C1121.4 454.833 1121.33 454.567 1121.3 454.2C1121.3 453.7 1121.42 453.233 1121.65 452.8C1122.15 451.8 1122.93 451.183 1124 450.95ZM1125.87 479.5L1126.47 476.75L1132.92 471.25C1134.25 470.083 1135.33 469.067 1136.17 468.2C1137.03 467.333 1137.67 466.517 1138.07 465.75C1138.5 464.983 1138.72 464.167 1138.72 463.3C1138.72 462.467 1138.47 461.8 1137.97 461.3C1137.5 460.8 1136.8 460.55 1135.87 460.55C1135.03 460.55 1134.23 460.717 1133.47 461.05C1132.7 461.35 1131.92 461.833 1131.12 462.5L1129.57 460.15C1130.6 459.317 1131.67 458.7 1132.77 458.3C1133.9 457.867 1135.13 457.65 1136.47 457.65C1137.87 457.65 1138.98 457.9 1139.82 458.4C1140.65 458.9 1141.25 459.55 1141.62 460.35C1142.02 461.117 1142.22 461.917 1142.22 462.75C1142.22 463.85 1142.02 464.867 1141.62 465.8C1141.25 466.733 1140.62 467.7 1139.72 468.7C1138.82 469.7 1137.6 470.833 1136.07 472.1L1130.87 476.45H1140.42L1139.77 479.5H1125.87Z" fill="#1F3647"/>
<path d="M262.835 537V509.727H266.884V513.989H267.239C267.807 512.533 268.724 511.402 269.991 510.597C271.257 509.781 272.778 509.372 274.554 509.372C276.353 509.372 277.851 509.781 279.046 510.597C280.254 511.402 281.195 512.533 281.869 513.989H282.153C282.852 512.58 283.899 511.461 285.296 510.633C286.693 509.792 288.368 509.372 290.321 509.372C292.759 509.372 294.754 510.136 296.305 511.663C297.855 513.178 298.631 515.539 298.631 518.747V537H294.44V518.747C294.44 516.735 293.89 515.297 292.789 514.433C291.688 513.568 290.392 513.136 288.901 513.136C286.983 513.136 285.497 513.716 284.444 514.876C283.39 516.025 282.864 517.481 282.864 519.244V537H278.602V518.321C278.602 516.77 278.099 515.522 277.093 514.575C276.087 513.616 274.791 513.136 273.205 513.136C272.116 513.136 271.098 513.426 270.151 514.006C269.215 514.586 268.458 515.391 267.878 516.421C267.31 517.439 267.026 518.617 267.026 519.955V537H262.835ZM310.234 543.25V525.317H310.056L304.446 529.045V525.281L310.234 521.446H313.927V543.25H310.234ZM343.273 534.159L323.244 514.131L325.943 511.432L345.972 531.46L343.273 534.159ZM325.943 534.159L323.244 531.46L343.273 511.432L345.972 514.131L325.943 534.159ZM372.113 525.849V509.727H376.303V537H372.113V532.384H371.828C371.189 533.768 370.195 534.946 368.846 535.917C367.496 536.876 365.792 537.355 363.732 537.355C362.027 537.355 360.512 536.982 359.186 536.237C357.861 535.479 356.819 534.343 356.061 532.827C355.304 531.3 354.925 529.377 354.925 527.057V509.727H359.115V526.773C359.115 528.761 359.672 530.348 360.784 531.531C361.909 532.715 363.341 533.307 365.081 533.307C366.123 533.307 367.182 533.04 368.26 532.508C369.349 531.975 370.26 531.158 370.994 530.058C371.74 528.957 372.113 527.554 372.113 525.849ZM387.92 543.25V525.317H387.742L382.131 529.045V525.281L387.92 521.446H391.613V543.25H387.92ZM424.368 534.514V511.077H428.345V534.514H424.368ZM414.637 524.784V520.807H438.075V524.784H414.637ZM460.736 537V509.727H464.784V513.989H465.139C465.707 512.533 466.625 511.402 467.891 510.597C469.158 509.781 470.679 509.372 472.454 509.372C474.254 509.372 475.751 509.781 476.947 510.597C478.154 511.402 479.095 512.533 479.77 513.989H480.054C480.752 512.58 481.8 511.461 483.197 510.633C484.593 509.792 486.268 509.372 488.221 509.372C490.66 509.372 492.654 510.136 494.205 511.663C495.756 513.178 496.531 515.539 496.531 518.747V537H492.341V518.747C492.341 516.735 491.79 515.297 490.689 514.433C489.589 513.568 488.292 513.136 486.801 513.136C484.883 513.136 483.398 513.716 482.344 514.876C481.291 516.025 480.764 517.481 480.764 519.244V537H476.503V518.321C476.503 516.77 476 515.522 474.993 514.575C473.987 513.616 472.691 513.136 471.105 513.136C470.016 513.136 468.998 513.426 468.051 514.006C467.116 514.586 466.358 515.391 465.778 516.421C465.21 517.439 464.926 518.617 464.926 519.955V537H460.736ZM502.843 543.25V540.48L511.153 533.094C511.981 532.36 512.674 531.703 513.23 531.123C513.787 530.543 514.207 529.981 514.491 529.436C514.775 528.892 514.917 528.312 514.917 527.696C514.917 526.631 514.509 525.784 513.692 525.157C512.875 524.53 511.863 524.216 510.656 524.216C509.377 524.216 508.347 524.559 507.566 525.246C506.785 525.92 506.394 526.808 506.394 527.909H502.701C502.701 525.885 503.453 524.257 504.956 523.026C506.459 521.783 508.383 521.162 510.727 521.162C512.289 521.162 513.662 521.446 514.846 522.014C516.03 522.571 516.953 523.34 517.616 524.322C518.279 525.293 518.61 526.394 518.61 527.625C518.61 528.596 518.415 529.495 518.024 530.324C517.634 531.152 517.024 532.011 516.195 532.898C515.367 533.786 514.302 534.798 512.999 535.935L508.383 539.983V540.125H519.249V543.25H502.843ZM546.544 534.159L526.516 514.131L529.215 511.432L549.243 531.46L546.544 534.159ZM529.215 534.159L526.516 531.46L546.544 511.432L549.243 514.131L529.215 534.159ZM575.384 525.849V509.727H579.574V537H575.384V532.384H575.1C574.461 533.768 573.466 534.946 572.117 535.917C570.768 536.876 569.063 537.355 567.003 537.355C565.299 537.355 563.784 536.982 562.458 536.237C561.132 535.479 560.09 534.343 559.333 532.827C558.575 531.3 558.197 529.377 558.197 527.057V509.727H562.387V526.773C562.387 528.761 562.943 530.348 564.056 531.531C565.18 532.715 566.613 533.307 568.353 533.307C569.394 533.307 570.454 533.04 571.531 532.508C572.62 531.975 573.532 531.158 574.265 530.058C575.011 528.957 575.384 527.554 575.384 525.849ZM585.9 543.25V540.48L594.21 533.094C595.038 532.36 595.731 531.703 596.287 531.123C596.843 530.543 597.263 529.981 597.548 529.436C597.832 528.892 597.974 528.312 597.974 527.696C597.974 526.631 597.565 525.784 596.749 525.157C595.932 524.53 594.92 524.216 593.712 524.216C592.434 524.216 591.404 524.559 590.623 525.246C589.842 525.92 589.451 526.808 589.451 527.909H585.758C585.758 525.885 586.509 524.257 588.013 523.026C589.516 521.783 591.44 521.162 593.783 521.162C595.346 521.162 596.719 521.446 597.903 522.014C599.086 522.571 600.01 523.34 600.673 524.322C601.335 525.293 601.667 526.394 601.667 527.625C601.667 528.596 601.472 529.495 601.081 530.324C600.69 531.152 600.081 532.011 599.252 532.898C598.424 533.786 597.358 534.798 596.056 535.935L591.44 539.983V540.125H602.306V543.25H585.9ZM624.061 519.457V515.622H645.936V519.457H624.061ZM624.061 529.969V526.134H645.936V529.969H624.061ZM669.378 537V509.727H673.426V513.989H673.782C674.35 512.533 675.267 511.402 676.534 510.597C677.8 509.781 679.321 509.372 681.097 509.372C682.896 509.372 684.394 509.781 685.589 510.597C686.797 511.402 687.738 512.533 688.412 513.989H688.696C689.395 512.58 690.442 511.461 691.839 510.633C693.236 509.792 694.911 509.372 696.864 509.372C699.302 509.372 701.297 510.136 702.848 511.663C704.398 513.178 705.174 515.539 705.174 518.747V537H700.983V518.747C700.983 516.735 700.433 515.297 699.332 514.433C698.231 513.568 696.935 513.136 695.444 513.136C693.526 513.136 692.04 513.716 690.987 514.876C689.933 516.025 689.407 517.481 689.407 519.244V537H685.145V518.321C685.145 516.77 684.642 515.522 683.636 514.575C682.63 513.616 681.334 513.136 679.748 513.136C678.658 513.136 677.641 513.426 676.694 514.006C675.758 514.586 675.001 515.391 674.421 516.421C673.853 517.439 673.569 518.617 673.569 519.955V537H669.378ZM716.777 543.25V525.317H716.599L710.989 529.045V525.281L716.777 521.446H720.47V543.25H716.777ZM749.816 534.159L729.787 514.131L732.486 511.432L752.515 531.46L749.816 534.159ZM732.486 534.159L729.787 531.46L749.816 511.432L752.515 514.131L732.486 534.159ZM783.769 509.727L773.684 537H769.423L759.337 509.727H763.883L771.411 531.46H771.695L779.224 509.727H783.769ZM790.703 543.25V525.317H790.525L784.914 529.045V525.281L790.703 521.446H794.396V543.25H790.703ZM827.151 534.514V511.077H831.128V534.514H827.151ZM817.421 524.784V520.807H840.858V524.784H817.421ZM863.519 537V509.727H867.567V513.989H867.922C868.49 512.533 869.408 511.402 870.674 510.597C871.941 509.781 873.462 509.372 875.238 509.372C877.037 509.372 878.534 509.781 879.73 510.597C880.937 511.402 881.878 512.533 882.553 513.989H882.837C883.535 512.58 884.583 511.461 885.98 510.633C887.377 509.792 889.051 509.372 891.005 509.372C893.443 509.372 895.438 510.136 896.988 511.663C898.539 513.178 899.314 515.539 899.314 518.747V537H895.124V518.747C895.124 516.735 894.574 515.297 893.473 514.433C892.372 513.568 891.076 513.136 889.584 513.136C887.667 513.136 886.181 513.716 885.127 514.876C884.074 516.025 883.547 517.481 883.547 519.244V537H879.286V518.321C879.286 516.77 878.783 515.522 877.777 514.575C876.77 513.616 875.474 513.136 873.888 513.136C872.799 513.136 871.781 513.426 870.834 514.006C869.899 514.586 869.141 515.391 868.561 516.421C867.993 517.439 867.709 518.617 867.709 519.955V537H863.519ZM905.626 543.25V540.48L913.936 533.094C914.765 532.36 915.457 531.703 916.013 531.123C916.57 530.543 916.99 529.981 917.274 529.436C917.558 528.892 917.7 528.312 917.7 527.696C917.7 526.631 917.292 525.784 916.475 525.157C915.658 524.53 914.646 524.216 913.439 524.216C912.161 524.216 911.131 524.559 910.349 525.246C909.568 525.92 909.178 526.808 909.178 527.909H905.484C905.484 525.885 906.236 524.257 907.739 523.026C909.243 521.783 911.166 521.162 913.51 521.162C915.072 521.162 916.446 521.446 917.629 522.014C918.813 522.571 919.736 523.34 920.399 524.322C921.062 525.293 921.393 526.394 921.393 527.625C921.393 528.596 921.198 529.495 920.808 530.324C920.417 531.152 919.807 532.011 918.979 532.898C918.15 533.786 917.085 534.798 915.783 535.935L911.166 539.983V540.125H922.033V543.25H905.626ZM949.328 534.159L929.299 514.131L931.998 511.432L952.026 531.46L949.328 534.159ZM931.998 534.159L929.299 531.46L949.328 511.432L952.026 514.131L931.998 534.159ZM983.281 509.727L973.196 537H968.934L958.849 509.727H963.395L970.923 531.46H971.207L978.735 509.727H983.281ZM984.923 543.25V540.48L993.233 533.094C994.062 532.36 994.754 531.703 995.31 531.123C995.867 530.543 996.287 529.981 996.571 529.436C996.855 528.892 996.997 528.312 996.997 527.696C996.997 526.631 996.589 525.784 995.772 525.157C994.955 524.53 993.943 524.216 992.736 524.216C991.457 524.216 990.428 524.559 989.646 525.246C988.865 525.92 988.474 526.808 988.474 527.909H984.781C984.781 525.885 985.533 524.257 987.036 523.026C988.54 521.783 990.463 521.162 992.807 521.162C994.369 521.162 995.742 521.446 996.926 522.014C998.11 522.571 999.033 523.34 999.696 524.322C1000.36 525.293 1000.69 526.394 1000.69 527.625C1000.69 528.596 1000.5 529.495 1000.1 530.324C999.714 531.152 999.104 532.011 998.276 532.898C997.447 533.786 996.382 534.798 995.08 535.935L990.463 539.983V540.125H1001.33V543.25H984.923Z" fill="black"/>
<path d="M131.15 125V90.1H139.4V118.25H156.3V125H131.15ZM181.17 125L180.92 120V106.3C180.92 105 180.436 103.983 179.47 103.25C178.503 102.483 177.17 102.1 175.47 102.1C173.836 102.1 172.503 102.45 171.47 103.15C170.47 103.817 169.886 104.767 169.72 106H162.17C162.336 104.033 163.003 102.35 164.17 100.95C165.336 99.55 166.903 98.4833 168.87 97.75C170.87 96.9833 173.186 96.6 175.82 96.6C178.42 96.6 180.686 97 182.62 97.8C184.553 98.5667 186.036 99.7167 187.07 101.25C188.136 102.75 188.67 104.6 188.67 106.8V125H181.17ZM172.27 125.6C170.436 125.6 168.82 125.25 167.42 124.55C166.02 123.817 164.936 122.817 164.17 121.55C163.403 120.283 163.02 118.85 163.02 117.25C163.02 114.383 164.12 112.167 166.32 110.6C168.553 109 171.62 108.2 175.52 108.2H181.67V113.6L175.32 113.65C173.886 113.65 172.736 113.917 171.87 114.45C171.036 114.95 170.62 115.717 170.62 116.75C170.62 117.483 170.92 118.117 171.52 118.65C172.153 119.183 173.036 119.45 174.17 119.45C175.736 119.45 177.12 119.067 178.32 118.3C179.553 117.5 180.57 116.417 181.37 115.05L182.22 120.3C181.386 122.133 180.103 123.483 178.37 124.35C176.67 125.183 174.636 125.6 172.27 125.6ZM196.689 125L192.889 97.1H199.939L201.489 111.3L201.939 117.15L202.739 111.3L204.939 97.1H211.839L214.189 111.3L214.989 117.3L215.489 111.3L216.989 97.1H223.689L220.039 125H211.089L208.839 112L208.289 104.2L207.789 112L205.539 125H196.689ZM273.328 125.6C270.361 125.6 267.811 125.017 265.678 123.85C263.545 122.683 261.895 121.017 260.728 118.85C259.595 116.683 259.028 114.1 259.028 111.1C259.028 108.067 259.595 105.483 260.728 103.35C261.895 101.183 263.545 99.5167 265.678 98.35C267.811 97.1833 270.361 96.6 273.328 96.6C277.795 96.6 281.278 97.8833 283.778 100.45C286.311 103.017 287.578 106.567 287.578 111.1C287.578 114.1 287.011 116.683 285.878 118.85C284.745 121.017 283.111 122.683 280.978 123.85C278.845 125.017 276.295 125.6 273.328 125.6ZM273.328 119.3C275.328 119.3 276.895 118.567 278.028 117.1C279.195 115.633 279.778 113.633 279.778 111.1C279.778 108.533 279.195 106.533 278.028 105.1C276.895 103.633 275.328 102.9 273.328 102.9C271.295 102.9 269.695 103.633 268.528 105.1C267.395 106.533 266.828 108.533 266.828 111.1C266.828 113.633 267.395 115.633 268.528 117.1C269.695 118.567 271.295 119.3 273.328 119.3ZM300.948 125V94.45C300.948 92.4833 301.381 90.7667 302.248 89.3C303.114 87.8 304.298 86.6333 305.798 85.8C307.298 84.9333 308.981 84.5 310.848 84.5H319.498V90.8H313.948C313.014 90.8 312.148 90.8833 311.348 91.05C310.548 91.2167 309.914 91.5667 309.448 92.1C308.981 92.6 308.748 93.3833 308.748 94.45V125H300.948ZM295.448 103.5V97.2H315.498V103.5H295.448ZM292.998 125V118.7H318.898V125H292.998ZM371.237 125.6C368.103 125.6 365.387 124.867 363.087 123.4C360.82 121.9 359.053 119.8 357.787 117.1C356.553 114.367 355.937 111.183 355.937 107.55C355.937 103.883 356.57 100.7 357.837 98C359.103 95.3 360.903 93.2167 363.237 91.75C365.57 90.25 368.337 89.5 371.537 89.5C374.037 89.5 376.337 89.9833 378.437 90.95C380.537 91.9167 382.253 93.3167 383.587 95.15C384.953 96.9833 385.703 99.2167 385.837 101.85H376.837C376.67 100.15 376.137 98.8 375.237 97.8C374.337 96.7667 373.103 96.25 371.537 96.25C370.203 96.25 368.987 96.6833 367.887 97.55C366.82 98.3833 365.97 99.65 365.337 101.35C364.737 103.017 364.437 105.083 364.437 107.55C364.437 109.983 364.737 112.05 365.337 113.75C365.937 115.417 366.737 116.683 367.737 117.55C368.77 118.417 369.937 118.85 371.237 118.85C372.337 118.85 373.287 118.633 374.087 118.2C374.92 117.733 375.587 117.067 376.087 116.2C376.62 115.333 376.937 114.283 377.037 113.05H386.037C385.77 115.617 385.003 117.85 383.737 119.75C382.503 121.617 380.837 123.067 378.737 124.1C376.637 125.1 374.137 125.6 371.237 125.6ZM403.406 125.6C400.44 125.6 397.89 125.017 395.756 123.85C393.623 122.683 391.973 121.017 390.806 118.85C389.673 116.683 389.106 114.1 389.106 111.1C389.106 108.067 389.673 105.483 390.806 103.35C391.973 101.183 393.623 99.5167 395.756 98.35C397.89 97.1833 400.44 96.6 403.406 96.6C407.873 96.6 411.356 97.8833 413.856 100.45C416.39 103.017 417.656 106.567 417.656 111.1C417.656 114.1 417.09 116.683 415.956 118.85C414.823 121.017 413.19 122.683 411.056 123.85C408.923 125.017 406.373 125.6 403.406 125.6ZM403.406 119.3C405.406 119.3 406.973 118.567 408.106 117.1C409.273 115.633 409.856 113.633 409.856 111.1C409.856 108.533 409.273 106.533 408.106 105.1C406.973 103.633 405.406 102.9 403.406 102.9C401.373 102.9 399.773 103.633 398.606 105.1C397.473 106.533 396.906 108.533 396.906 111.1C396.906 113.633 397.473 115.633 398.606 117.1C399.773 118.567 401.373 119.3 403.406 119.3ZM441.376 125V107.85C441.376 106.417 441.009 105.267 440.276 104.4C439.542 103.533 438.576 103.1 437.376 103.1C436.009 103.1 434.742 103.567 433.576 104.5C432.442 105.4 431.242 106.967 429.976 109.2L428.876 102.6C430.142 100.433 431.676 98.9 433.476 98C435.276 97.0667 437.109 96.6 438.976 96.6C441.109 96.6 442.926 97.05 444.426 97.95C445.959 98.85 447.126 100.1 447.926 101.7C448.759 103.3 449.176 105.183 449.176 107.35V125H441.376ZM422.826 125V97.2H430.376L430.626 102.15V125H422.826ZM469.145 125.6C466.545 125.6 464.262 125.183 462.295 124.35C460.329 123.483 458.795 122.267 457.695 120.7C456.629 119.1 456.079 117.217 456.045 115.05H463.295C463.229 116.583 463.712 117.783 464.745 118.65C465.812 119.517 467.262 119.95 469.095 119.95C470.429 119.95 471.495 119.733 472.295 119.3C473.129 118.833 473.545 118.2 473.545 117.4C473.545 116.7 473.229 116.15 472.595 115.75C471.995 115.317 471.195 114.983 470.195 114.75C469.195 114.483 468.095 114.233 466.895 114C465.695 113.733 464.479 113.417 463.245 113.05C462.045 112.683 460.945 112.2 459.945 111.6C458.945 110.967 458.129 110.15 457.495 109.15C456.895 108.117 456.595 106.833 456.595 105.3C456.595 103.533 457.095 102 458.095 100.7C459.095 99.4 460.479 98.4 462.245 97.7C464.045 96.9667 466.112 96.6 468.445 96.6C472.012 96.6 474.895 97.4333 477.095 99.1C479.329 100.733 480.562 103.033 480.795 106H473.595C473.529 104.767 473.029 103.833 472.095 103.2C471.162 102.567 469.962 102.25 468.495 102.25C467.262 102.25 466.279 102.467 465.545 102.9C464.812 103.333 464.445 103.983 464.445 104.85C464.445 105.55 464.745 106.1 465.345 106.5C465.979 106.867 466.795 107.167 467.795 107.4C468.795 107.633 469.895 107.85 471.095 108.05C472.329 108.25 473.545 108.533 474.745 108.9C475.945 109.233 477.045 109.7 478.045 110.3C479.045 110.9 479.845 111.7 480.445 112.7C481.079 113.7 481.395 114.983 481.395 116.55C481.395 119.383 480.279 121.6 478.045 123.2C475.845 124.8 472.879 125.6 469.145 125.6ZM501.215 125.6C498.215 125.6 495.632 125.017 493.465 123.85C491.332 122.683 489.682 121.017 488.515 118.85C487.348 116.683 486.765 114.1 486.765 111.1C486.765 108.067 487.348 105.467 488.515 103.3C489.682 101.133 491.365 99.4833 493.565 98.35C495.798 97.1833 498.482 96.6 501.615 96.6C506.515 96.6 510.065 98 512.265 100.8C514.498 103.567 515.432 107.383 515.065 112.25H492.965L493.015 106.9H507.115C507.015 105.633 506.448 104.617 505.415 103.85C504.382 103.05 503.098 102.65 501.565 102.65C499.165 102.65 497.398 103.4 496.265 104.9C495.132 106.4 494.565 108.583 494.565 111.45C494.565 112.883 494.815 114.2 495.315 115.4C495.815 116.6 496.548 117.567 497.515 118.3C498.515 119 499.748 119.35 501.215 119.35C502.782 119.35 504.098 118.967 505.165 118.2C506.265 117.433 506.932 116.467 507.165 115.3H514.965C514.632 118.467 513.232 120.983 510.765 122.85C508.332 124.683 505.148 125.6 501.215 125.6ZM539.434 111.1V107.35C539.434 106.083 539.101 105.067 538.434 104.3C537.768 103.5 536.768 103.1 535.434 103.1C533.934 103.1 532.518 103.6 531.184 104.6C529.851 105.6 528.584 107.333 527.384 109.8L526.584 103.25C527.451 101.783 528.401 100.567 529.434 99.6C530.468 98.6 531.601 97.85 532.834 97.35C534.101 96.85 535.484 96.6 536.984 96.6C539.951 96.6 542.401 97.5167 544.334 99.35C546.268 101.15 547.234 103.817 547.234 107.35V111.1H539.434ZM520.884 125V97.2H528.384L528.684 102.2V125H520.884ZM561.504 125L551.604 97.2H559.754L564.404 111.3L566.104 118.2L567.904 111.3L572.454 97.2H580.354L570.504 125H561.504ZM603.923 125L603.673 120V106.3C603.673 105 603.19 103.983 602.223 103.25C601.257 102.483 599.923 102.1 598.223 102.1C596.59 102.1 595.257 102.45 594.223 103.15C593.223 103.817 592.64 104.767 592.473 106H584.923C585.09 104.033 585.757 102.35 586.923 100.95C588.09 99.55 589.657 98.4833 591.623 97.75C593.623 96.9833 595.94 96.6 598.573 96.6C601.173 96.6 603.44 97 605.373 97.8C607.307 98.5667 608.79 99.7167 609.823 101.25C610.89 102.75 611.423 104.6 611.423 106.8V125H603.923ZM595.023 125.6C593.19 125.6 591.573 125.25 590.173 124.55C588.773 123.817 587.69 122.817 586.923 121.55C586.157 120.283 585.773 118.85 585.773 117.25C585.773 114.383 586.873 112.167 589.073 110.6C591.307 109 594.373 108.2 598.273 108.2H604.423V113.6L598.073 113.65C596.64 113.65 595.49 113.917 594.623 114.45C593.79 114.95 593.373 115.717 593.373 116.75C593.373 117.483 593.673 118.117 594.273 118.65C594.907 119.183 595.79 119.45 596.923 119.45C598.49 119.45 599.873 119.067 601.073 118.3C602.307 117.5 603.323 116.417 604.123 115.05L604.973 120.3C604.14 122.133 602.857 123.483 601.123 124.35C599.423 125.183 597.39 125.6 595.023 125.6ZM633.293 125C631.426 125 629.776 124.583 628.343 123.75C626.943 122.883 625.86 121.7 625.093 120.2C624.326 118.667 623.943 116.933 623.943 115V92.55L631.743 89.05V115C631.743 115.867 631.86 116.583 632.093 117.15C632.36 117.683 632.826 118.083 633.493 118.35C634.193 118.583 635.16 118.7 636.393 118.7H643.443V125H633.293ZM618.443 103.5V97.2H638.493V103.5H618.443ZM659.663 125V97.2H667.463V125H659.663ZM650.663 125V118.7H676.563V125H650.663ZM654.163 103.5V97.2H663.563V103.5H654.163ZM659.363 93.5V86.2H667.663V93.5H659.363ZM696.082 125.6C693.115 125.6 690.565 125.017 688.432 123.85C686.299 122.683 684.649 121.017 683.482 118.85C682.349 116.683 681.782 114.1 681.782 111.1C681.782 108.067 682.349 105.483 683.482 103.35C684.649 101.183 686.299 99.5167 688.432 98.35C690.565 97.1833 693.115 96.6 696.082 96.6C700.549 96.6 704.032 97.8833 706.532 100.45C709.065 103.017 710.332 106.567 710.332 111.1C710.332 114.1 709.765 116.683 708.632 118.85C707.499 121.017 705.865 122.683 703.732 123.85C701.599 125.017 699.049 125.6 696.082 125.6ZM696.082 119.3C698.082 119.3 699.649 118.567 700.782 117.1C701.949 115.633 702.532 113.633 702.532 111.1C702.532 108.533 701.949 106.533 700.782 105.1C699.649 103.633 698.082 102.9 696.082 102.9C694.049 102.9 692.449 103.633 691.282 105.1C690.149 106.533 689.582 108.533 689.582 111.1C689.582 113.633 690.149 115.633 691.282 117.1C692.449 118.567 694.049 119.3 696.082 119.3ZM734.052 125V107.85C734.052 106.417 733.685 105.267 732.952 104.4C732.218 103.533 731.252 103.1 730.052 103.1C728.685 103.1 727.418 103.567 726.252 104.5C725.118 105.4 723.918 106.967 722.652 109.2L721.552 102.6C722.818 100.433 724.352 98.9 726.152 98C727.952 97.0667 729.785 96.6 731.652 96.6C733.785 96.6 735.602 97.05 737.102 97.95C738.635 98.85 739.802 100.1 740.602 101.7C741.435 103.3 741.852 105.183 741.852 107.35V125H734.052ZM715.502 125V97.2H723.052L723.302 102.15V125H715.502ZM793.641 125.6C790.674 125.6 788.124 125.017 785.991 123.85C783.857 122.683 782.207 121.017 781.041 118.85C779.907 116.683 779.341 114.1 779.341 111.1C779.341 108.067 779.907 105.483 781.041 103.35C782.207 101.183 783.857 99.5167 785.991 98.35C788.124 97.1833 790.674 96.6 793.641 96.6C798.107 96.6 801.591 97.8833 804.091 100.45C806.624 103.017 807.891 106.567 807.891 111.1C807.891 114.1 807.324 116.683 806.191 118.85C805.057 121.017 803.424 122.683 801.291 123.85C799.157 125.017 796.607 125.6 793.641 125.6ZM793.641 119.3C795.641 119.3 797.207 118.567 798.341 117.1C799.507 115.633 800.091 113.633 800.091 111.1C800.091 108.533 799.507 106.533 798.341 105.1C797.207 103.633 795.641 102.9 793.641 102.9C791.607 102.9 790.007 103.633 788.841 105.1C787.707 106.533 787.141 108.533 787.141 111.1C787.141 113.633 787.707 115.633 788.841 117.1C790.007 118.567 791.607 119.3 793.641 119.3ZM821.26 125V94.45C821.26 92.4833 821.693 90.7667 822.56 89.3C823.427 87.8 824.61 86.6333 826.11 85.8C827.61 84.9333 829.293 84.5 831.16 84.5H839.81V90.8H834.26C833.327 90.8 832.46 90.8833 831.66 91.05C830.86 91.2167 830.227 91.5667 829.76 92.1C829.293 92.6 829.06 93.3833 829.06 94.45V125H821.26ZM815.76 103.5V97.2H835.81V103.5H815.76ZM813.31 125V118.7H839.21V125H813.31ZM875.699 125L878.099 90.1H888.099L890.449 105.75L891.299 112.9L892.149 105.75L894.699 90.1H904.349L906.799 125H898.749L898.449 108.6V98.7L897.099 108.6L894.399 125H887.999L885.199 108.6L883.849 98.55L883.899 108.6L883.449 125H875.699ZM923.719 125.6C920.752 125.6 918.202 125.017 916.069 123.85C913.935 122.683 912.285 121.017 911.119 118.85C909.985 116.683 909.419 114.1 909.419 111.1C909.419 108.067 909.985 105.483 911.119 103.35C912.285 101.183 913.935 99.5167 916.069 98.35C918.202 97.1833 920.752 96.6 923.719 96.6C928.185 96.6 931.669 97.8833 934.169 100.45C936.702 103.017 937.969 106.567 937.969 111.1C937.969 114.1 937.402 116.683 936.269 118.85C935.135 121.017 933.502 122.683 931.369 123.85C929.235 125.017 926.685 125.6 923.719 125.6ZM923.719 119.3C925.719 119.3 927.285 118.567 928.419 117.1C929.585 115.633 930.169 113.633 930.169 111.1C930.169 108.533 929.585 106.533 928.419 105.1C927.285 103.633 925.719 102.9 923.719 102.9C921.685 102.9 920.085 103.633 918.919 105.1C917.785 106.533 917.219 108.533 917.219 111.1C917.219 113.633 917.785 115.633 918.919 117.1C920.085 118.567 921.685 119.3 923.719 119.3ZM963.338 125V105.4C963.338 104.633 963.238 104.033 963.038 103.6C962.838 103.133 962.455 102.9 961.888 102.9C961.155 102.9 960.488 103.45 959.888 104.55C959.322 105.617 958.855 107.5 958.488 110.2L957.988 106.45C957.788 103.417 958.288 101.017 959.488 99.25C960.688 97.4833 962.305 96.6 964.338 96.6C966.072 96.6 967.505 97.2833 968.638 98.65C969.772 99.9833 970.338 101.95 970.338 104.55V125H963.338ZM942.138 125V97.2H948.938L949.088 102.35V125H942.138ZM952.738 125V105.4C952.738 104.533 952.605 103.9 952.338 103.5C952.105 103.1 951.738 102.9 951.238 102.9C950.372 102.9 949.688 103.5 949.188 104.7C948.688 105.9 948.255 107.733 947.888 110.2L947.938 106.15C947.805 104.217 948.022 102.533 948.588 101.1C949.155 99.6667 949.905 98.5667 950.838 97.8C951.805 97 952.838 96.6 953.938 96.6C955.705 96.6 957.105 97.3333 958.138 98.8C959.172 100.233 959.688 102.117 959.688 104.45V125H952.738ZM989.008 125.6C986.008 125.6 983.424 125.017 981.258 123.85C979.124 122.683 977.474 121.017 976.308 118.85C975.141 116.683 974.558 114.1 974.558 111.1C974.558 108.067 975.141 105.467 976.308 103.3C977.474 101.133 979.158 99.4833 981.358 98.35C983.591 97.1833 986.274 96.6 989.408 96.6C994.308 96.6 997.858 98 1000.06 100.8C1002.29 103.567 1003.22 107.383 1002.86 112.25H980.758L980.808 106.9H994.908C994.808 105.633 994.241 104.617 993.208 103.85C992.174 103.05 990.891 102.65 989.358 102.65C986.958 102.65 985.191 103.4 984.058 104.9C982.924 106.4 982.358 108.583 982.358 111.45C982.358 112.883 982.608 114.2 983.108 115.4C983.608 116.6 984.341 117.567 985.308 118.3C986.308 119 987.541 119.35 989.008 119.35C990.574 119.35 991.891 118.967 992.958 118.2C994.058 117.433 994.724 116.467 994.958 115.3H1002.76C1002.42 118.467 1001.02 120.983 998.558 122.85C996.124 124.683 992.941 125.6 989.008 125.6ZM1026.73 125V107.85C1026.73 106.417 1026.36 105.267 1025.63 104.4C1024.89 103.533 1023.93 103.1 1022.73 103.1C1021.36 103.1 1020.09 103.567 1018.93 104.5C1017.79 105.4 1016.59 106.967 1015.33 109.2L1014.23 102.6C1015.49 100.433 1017.03 98.9 1018.83 98C1020.63 97.0667 1022.46 96.6 1024.33 96.6C1026.46 96.6 1028.28 97.05 1029.78 97.95C1031.31 98.85 1032.48 100.1 1033.28 101.7C1034.11 103.3 1034.53 105.183 1034.53 107.35V125H1026.73ZM1008.18 125V97.2H1015.73L1015.98 102.15V125H1008.18ZM1056.05 125C1054.18 125 1052.53 124.583 1051.1 123.75C1049.7 122.883 1048.61 121.7 1047.85 120.2C1047.08 118.667 1046.7 116.933 1046.7 115V92.55L1054.5 89.05V115C1054.5 115.867 1054.61 116.583 1054.85 117.15C1055.11 117.683 1055.58 118.083 1056.25 118.35C1056.95 118.583 1057.91 118.7 1059.15 118.7H1066.2V125H1056.05ZM1041.2 103.5V97.2H1061.25V103.5H1041.2ZM1080.42 97.2V114.35C1080.42 115.783 1080.78 116.933 1081.52 117.8C1082.25 118.667 1083.22 119.1 1084.42 119.1C1085.78 119.1 1087.03 118.65 1088.17 117.75C1089.33 116.817 1090.55 115.233 1091.82 113L1092.92 119.6C1091.65 121.767 1090.12 123.317 1088.32 124.25C1086.52 125.15 1084.68 125.6 1082.82 125.6C1080.68 125.6 1078.85 125.15 1077.32 124.25C1075.82 123.35 1074.65 122.1 1073.82 120.5C1073.02 118.9 1072.62 117.017 1072.62 114.85V97.2H1080.42ZM1098.97 97.2V125H1091.42L1091.17 120.05V97.2H1098.97ZM1125.94 125V105.4C1125.94 104.633 1125.84 104.033 1125.64 103.6C1125.44 103.133 1125.05 102.9 1124.49 102.9C1123.75 102.9 1123.09 103.45 1122.49 104.55C1121.92 105.617 1121.45 107.5 1121.09 110.2L1120.59 106.45C1120.39 103.417 1120.89 101.017 1122.09 99.25C1123.29 97.4833 1124.9 96.6 1126.94 96.6C1128.67 96.6 1130.1 97.2833 1131.24 98.65C1132.37 99.9833 1132.94 101.95 1132.94 104.55V125H1125.94ZM1104.74 125V97.2H1111.54L1111.69 102.35V125H1104.74ZM1115.34 125V105.4C1115.34 104.533 1115.2 103.9 1114.94 103.5C1114.7 103.1 1114.34 102.9 1113.84 102.9C1112.97 102.9 1112.29 103.5 1111.79 104.7C1111.29 105.9 1110.85 107.733 1110.49 110.2L1110.54 106.15C1110.4 104.217 1110.62 102.533 1111.19 101.1C1111.75 99.6667 1112.5 98.5667 1113.44 97.8C1114.4 97 1115.44 96.6 1116.54 96.6C1118.3 96.6 1119.7 97.3333 1120.74 98.8C1121.77 100.233 1122.29 102.117 1122.29 104.45V125H1115.34Z" fill="black"/>
<g clip-path="url(#clip0_673_39)">
<path d="M1263 10H1148V125H1263V10Z" fill="#0077CC"/>
<path d="M1211.76 26.1001C1214.94 26.1001 1217.51 28.6745 1217.51 31.8501V64.6869L1237.97 100.592C1240.15 104.425 1237.38 109.188 1232.97 109.188H1179.06C1174.65 109.187 1171.88 104.425 1174.06 100.592L1194.51 64.6869V31.8501C1194.51 28.6745 1197.09 26.1002 1200.26 26.1001H1211.76Z" fill="#0077CC"/>
<path d="M1217.51 64.6869H1214.64V65.4483L1215.02 66.1099L1217.51 64.6869ZM1194.51 64.6869L1197.01 66.1099L1197.39 65.4483V64.6869H1194.51ZM1211.76 26.1001V28.9751C1213.35 28.9751 1214.64 30.2623 1214.64 31.8501H1217.51H1220.39C1220.39 27.0867 1216.53 23.2251 1211.76 23.2251V26.1001ZM1217.51 31.8501H1214.64V64.6869H1217.51H1220.39V31.8501H1217.51ZM1217.51 64.6869L1215.02 66.1099L1235.47 102.015L1237.97 100.592L1240.47 99.1689L1220.01 63.2638L1217.51 64.6869ZM1237.97 100.592L1235.47 102.015C1236.56 103.931 1235.18 106.313 1232.97 106.313V109.188V112.063C1239.59 112.063 1243.74 104.919 1240.47 99.1689L1237.97 100.592ZM1232.97 109.188V106.313H1179.06V109.188L1179.06 112.063H1232.97V109.188ZM1179.06 109.188V106.313C1176.85 106.312 1175.47 103.931 1176.56 102.015L1174.06 100.592L1171.56 99.1688C1168.29 104.919 1172.44 112.062 1179.06 112.063L1179.06 109.188ZM1174.06 100.592L1176.56 102.015L1197.01 66.1099L1194.51 64.6869L1192.02 63.2638L1171.56 99.1688L1174.06 100.592ZM1194.51 64.6869H1197.39V31.8501H1194.51H1191.64V64.6869H1194.51ZM1194.51 31.8501H1197.39C1197.39 30.2624 1198.68 28.9751 1200.26 28.9751L1200.26 26.1001V23.2251C1195.5 23.2252 1191.64 27.0866 1191.64 31.8501H1194.51ZM1200.26 26.1001L1200.26 28.9751H1211.76V26.1001V23.2251H1200.26V26.1001Z" fill="white"/>
<path d="M1214.93 66.9255C1215.12 66.9255 1215.31 66.9373 1215.5 66.9559L1235.47 102.015C1236.56 103.931 1235.18 106.313 1232.97 106.313H1179.06C1176.85 106.313 1175.47 103.932 1176.56 102.015L1196.55 66.9255H1214.93Z" fill="white"/>
<mask id="mask0_673_39" style="mask-type:luminance" maskUnits="userSpaceOnUse" x="1176" y="66" width="60" height="41">
<path d="M1214.93 66.9255C1215.12 66.9255 1215.31 66.9373 1215.5 66.9559L1235.47 102.015C1236.56 103.931 1235.18 106.313 1232.97 106.313H1179.06C1176.85 106.313 1175.47 103.932 1176.56 102.015L1196.55 66.9255H1214.93Z" fill="white"/>
</mask>
<g mask="url(#mask0_673_39)">
<path d="M1215.5 66.9559L1218.5 65.2483L1217.61 63.6982L1215.84 63.5226L1215.5 66.9559ZM1196.55 66.9256V63.4756H1194.54L1193.55 65.2179L1196.55 66.9256ZM1214.93 66.9256V70.3756C1214.98 70.3756 1215.05 70.3787 1215.16 70.3892L1215.5 66.9559L1215.84 63.5226C1215.57 63.4961 1215.26 63.4756 1214.93 63.4756V66.9256ZM1215.5 66.9559L1212.5 68.6636L1232.47 103.723L1235.47 102.015L1238.47 100.308L1218.5 65.2483L1215.5 66.9559ZM1235.47 102.015L1232.47 103.723C1232.25 103.339 1232.53 102.863 1232.97 102.863L1232.97 106.313V109.763C1237.82 109.763 1240.87 104.525 1238.47 100.308L1235.47 102.015ZM1232.97 106.313L1232.97 102.863H1179.06V106.313L1179.06 109.763H1232.97V106.313ZM1179.06 106.313V102.863C1179.5 102.863 1179.78 103.339 1179.56 103.723L1176.56 102.015L1173.56 100.308C1171.16 104.524 1174.21 109.762 1179.06 109.763L1179.06 106.313ZM1176.56 102.015L1179.56 103.723L1199.55 68.6332L1196.55 66.9256L1193.55 65.2179L1173.56 100.308L1176.56 102.015ZM1196.55 66.9256V70.3756H1214.93V66.9256V63.4756H1196.55V66.9256Z" fill="#0077CC"/>
</g>
</g>
<path d="M726.075 45V23.8875H718.425V18.825H739.913V23.8875H732.263V45H726.075ZM757.665 45V32.175C757.665 31.075 757.39 30.2 756.84 29.55C756.29 28.9 755.565 28.575 754.665 28.575C753.64 28.575 752.69 28.925 751.815 29.625C750.965 30.3 750.065 31.475 749.115 33.15L748.29 28.2375C749.24 26.5875 750.39 25.425 751.74 24.75C753.09 24.05 754.465 23.7 755.865 23.7C757.465 23.7 758.827 24.0375 759.952 24.7125C761.102 25.3875 761.977 26.3375 762.577 27.5625C763.202 28.7625 763.515 30.175 763.515 31.8V45H757.665ZM743.752 45V17.2125H749.602V45H743.752ZM778.154 45.45C775.904 45.45 773.967 45.0125 772.342 44.1375C770.742 43.2625 769.504 42.0125 768.629 40.3875C767.754 38.7625 767.317 36.825 767.317 34.575C767.317 32.3 767.754 30.35 768.629 28.725C769.504 27.1 770.767 25.8625 772.417 25.0125C774.092 24.1375 776.104 23.7 778.454 23.7C782.129 23.7 784.792 24.75 786.442 26.85C788.117 28.925 788.817 31.7875 788.542 35.4375H771.967L772.004 31.425H782.579C782.504 30.475 782.079 29.7125 781.304 29.1375C780.529 28.5375 779.567 28.2375 778.417 28.2375C776.617 28.2375 775.292 28.8 774.442 29.925C773.592 31.05 773.167 32.6875 773.167 34.8375C773.167 35.9125 773.354 36.9 773.729 37.8C774.104 38.7 774.654 39.425 775.379 39.975C776.129 40.5 777.054 40.7625 778.154 40.7625C779.329 40.7625 780.317 40.475 781.117 39.9C781.942 39.325 782.442 38.6 782.617 37.725H788.467C788.217 40.1 787.167 41.9875 785.317 43.3875C783.492 44.7625 781.104 45.45 778.154 45.45ZM826.896 45.45C824.746 45.45 822.896 45.05 821.346 44.25C819.821 43.425 818.646 42.275 817.821 40.8C817.021 39.3 816.621 37.5375 816.621 35.5125H822.696C822.696 37.0875 823.034 38.3 823.709 39.15C824.409 39.975 825.471 40.3875 826.896 40.3875C828.021 40.3875 828.909 40.15 829.559 39.675C830.234 39.175 830.571 38.475 830.571 37.575C830.571 36.9 830.321 36.375 829.821 36C829.346 35.6 828.696 35.275 827.871 35.025C827.071 34.75 826.184 34.5 825.209 34.275C824.259 34.025 823.296 33.725 822.321 33.375C821.371 33.025 820.484 32.5625 819.659 31.9875C818.859 31.4125 818.209 30.6625 817.709 29.7375C817.234 28.8125 816.996 27.6375 816.996 26.2125C816.996 24.7375 817.396 23.4125 818.196 22.2375C819.021 21.0625 820.159 20.125 821.609 19.425C823.059 18.725 824.759 18.375 826.709 18.375C828.484 18.375 830.134 18.725 831.659 19.425C833.184 20.1 834.421 21.0875 835.371 22.3875C836.321 23.6875 836.821 25.2875 836.871 27.1875H830.684C830.634 26.3375 830.409 25.6375 830.009 25.0875C829.634 24.5375 829.146 24.125 828.546 23.85C827.971 23.575 827.359 23.4375 826.709 23.4375C825.784 23.4375 824.996 23.6625 824.346 24.1125C823.696 24.5375 823.371 25.175 823.371 26.025C823.371 26.675 823.609 27.1875 824.084 27.5625C824.584 27.9375 825.234 28.25 826.034 28.5C826.859 28.725 827.746 28.95 828.696 29.175C829.671 29.4 830.634 29.6875 831.584 30.0375C832.559 30.3625 833.446 30.825 834.246 31.425C835.071 32.025 835.721 32.825 836.196 33.825C836.696 34.8 836.946 36.05 836.946 37.575C836.946 39.1 836.509 40.4625 835.634 41.6625C834.784 42.8375 833.596 43.7625 832.071 44.4375C830.571 45.1125 828.846 45.45 826.896 45.45ZM851.436 45.45C849.236 45.45 847.336 45.0125 845.736 44.1375C844.161 43.2625 842.948 42.0125 842.098 40.3875C841.273 38.7625 840.861 36.825 840.861 34.575C840.861 32.275 841.298 30.3125 842.173 28.6875C843.073 27.0625 844.323 25.825 845.923 24.975C847.523 24.125 849.411 23.7 851.586 23.7C853.486 23.7 855.161 24.0375 856.611 24.7125C858.086 25.3875 859.248 26.3375 860.098 27.5625C860.973 28.7625 861.448 30.2 861.523 31.875H855.673C855.473 30.725 855.023 29.875 854.323 29.325C853.648 28.75 852.736 28.4625 851.586 28.4625C850.636 28.4625 849.786 28.7 849.036 29.175C848.311 29.65 847.736 30.3375 847.311 31.2375C846.911 32.1375 846.711 33.25 846.711 34.575C846.711 36.55 847.161 38.075 848.061 39.15C848.986 40.225 850.111 40.7625 851.436 40.7625C852.211 40.7625 852.886 40.625 853.461 40.35C854.061 40.075 854.561 39.6875 854.961 39.1875C855.361 38.6625 855.636 38.075 855.786 37.425H861.636C861.486 39.05 860.961 40.4625 860.061 41.6625C859.161 42.8625 857.973 43.8 856.498 44.475C855.023 45.125 853.336 45.45 851.436 45.45ZM872.6 45V24.15H878.45V45H872.6ZM865.85 45V40.275H885.275V45H865.85ZM868.475 28.875V24.15H875.525V28.875H868.475ZM872.375 21.375V15.9H878.6V21.375H872.375ZM900.103 45.45C897.853 45.45 895.915 45.0125 894.29 44.1375C892.69 43.2625 891.453 42.0125 890.578 40.3875C889.703 38.7625 889.265 36.825 889.265 34.575C889.265 32.3 889.703 30.35 890.578 28.725C891.453 27.1 892.715 25.8625 894.365 25.0125C896.04 24.1375 898.053 23.7 900.403 23.7C904.078 23.7 906.74 24.75 908.39 26.85C910.065 28.925 910.765 31.7875 910.49 35.4375H893.915L893.953 31.425H904.528C904.453 30.475 904.028 29.7125 903.253 29.1375C902.478 28.5375 901.515 28.2375 900.365 28.2375C898.565 28.2375 897.24 28.8 896.39 29.925C895.54 31.05 895.115 32.6875 895.115 34.8375C895.115 35.9125 895.303 36.9 895.678 37.8C896.053 38.7 896.603 39.425 897.328 39.975C898.078 40.5 899.003 40.7625 900.103 40.7625C901.278 40.7625 902.265 40.475 903.065 39.9C903.89 39.325 904.39 38.6 904.565 37.725H910.415C910.165 40.1 909.115 41.9875 907.265 43.3875C905.44 44.7625 903.053 45.45 900.103 45.45ZM928.392 45V32.1375C928.392 31.0625 928.117 30.2 927.567 29.55C927.017 28.9 926.292 28.575 925.392 28.575C924.367 28.575 923.417 28.925 922.542 29.625C921.692 30.3 920.792 31.475 919.842 33.15L919.017 28.2C919.967 26.575 921.117 25.425 922.467 24.75C923.817 24.05 925.192 23.7 926.592 23.7C928.192 23.7 929.555 24.0375 930.68 24.7125C931.83 25.3875 932.705 26.325 933.305 27.525C933.93 28.725 934.242 30.1375 934.242 31.7625V45H928.392ZM914.48 45V24.15H920.142L920.33 27.8625V45H914.48ZM948.994 45.45C946.794 45.45 944.894 45.0125 943.294 44.1375C941.719 43.2625 940.507 42.0125 939.657 40.3875C938.832 38.7625 938.419 36.825 938.419 34.575C938.419 32.275 938.857 30.3125 939.732 28.6875C940.632 27.0625 941.882 25.825 943.482 24.975C945.082 24.125 946.969 23.7 949.144 23.7C951.044 23.7 952.719 24.0375 954.169 24.7125C955.644 25.3875 956.807 26.3375 957.657 27.5625C958.532 28.7625 959.007 30.2 959.082 31.875H953.232C953.032 30.725 952.582 29.875 951.882 29.325C951.207 28.75 950.294 28.4625 949.144 28.4625C948.194 28.4625 947.344 28.7 946.594 29.175C945.869 29.65 945.294 30.3375 944.869 31.2375C944.469 32.1375 944.269 33.25 944.269 34.575C944.269 36.55 944.719 38.075 945.619 39.15C946.544 40.225 947.669 40.7625 948.994 40.7625C949.769 40.7625 950.444 40.625 951.019 40.35C951.619 40.075 952.119 39.6875 952.519 39.1875C952.919 38.6625 953.194 38.075 953.344 37.425H959.194C959.044 39.05 958.519 40.4625 957.619 41.6625C956.719 42.8625 955.532 43.8 954.057 44.475C952.582 45.125 950.894 45.45 948.994 45.45ZM973.271 45.45C971.021 45.45 969.084 45.0125 967.459 44.1375C965.859 43.2625 964.621 42.0125 963.746 40.3875C962.871 38.7625 962.434 36.825 962.434 34.575C962.434 32.3 962.871 30.35 963.746 28.725C964.621 27.1 965.884 25.8625 967.534 25.0125C969.209 24.1375 971.221 23.7 973.571 23.7C977.246 23.7 979.909 24.75 981.559 26.85C983.234 28.925 983.934 31.7875 983.659 35.4375H967.084L967.121 31.425H977.696C977.621 30.475 977.196 29.7125 976.421 29.1375C975.646 28.5375 974.684 28.2375 973.534 28.2375C971.734 28.2375 970.409 28.8 969.559 29.925C968.709 31.05 968.284 32.6875 968.284 34.8375C968.284 35.9125 968.471 36.9 968.846 37.8C969.221 38.7 969.771 39.425 970.496 39.975C971.246 40.5 972.171 40.7625 973.271 40.7625C974.446 40.7625 975.434 40.475 976.234 39.9C977.059 39.325 977.559 38.6 977.734 37.725H983.584C983.334 40.1 982.284 41.9875 980.434 43.3875C978.609 44.7625 976.221 45.45 973.271 45.45ZM1016.35 36.7875V31.725H1022.31C1023.51 31.725 1024.48 31.3625 1025.2 30.6375C1025.93 29.8875 1026.29 28.9125 1026.29 27.7125C1026.29 26.5625 1025.93 25.6375 1025.2 24.9375C1024.48 24.2375 1023.51 23.8875 1022.31 23.8875H1016.35V18.825H1022.35C1024.43 18.825 1026.24 19.1875 1027.79 19.9125C1029.34 20.6375 1030.54 21.675 1031.39 23.025C1032.24 24.35 1032.66 25.9125 1032.66 27.7125C1032.66 29.5375 1032.24 31.1375 1031.39 32.5125C1030.54 33.8625 1029.34 34.9125 1027.79 35.6625C1026.26 36.4125 1024.45 36.7875 1022.35 36.7875H1016.35ZM1011.93 45V18.825H1018.11V45H1011.93ZM1050.72 34.575V31.7625C1050.72 30.8125 1050.47 30.05 1049.97 29.475C1049.47 28.875 1048.72 28.575 1047.72 28.575C1046.59 28.575 1045.53 28.95 1044.53 29.7C1043.53 30.45 1042.58 31.75 1041.68 33.6L1041.08 28.6875C1041.73 27.5875 1042.44 26.675 1043.22 25.95C1043.99 25.2 1044.84 24.6375 1045.77 24.2625C1046.72 23.8875 1047.75 23.7 1048.88 23.7C1051.1 23.7 1052.94 24.3875 1054.39 25.7625C1055.84 27.1125 1056.57 29.1125 1056.57 31.7625V34.575H1050.72ZM1036.8 45V24.15H1042.43L1042.65 27.9V45H1036.8ZM1070.83 45.45C1068.58 45.45 1066.64 45.0125 1065.02 44.1375C1063.42 43.2625 1062.18 42.0125 1061.31 40.3875C1060.43 38.7625 1059.99 36.825 1059.99 34.575C1059.99 32.3 1060.43 30.35 1061.31 28.725C1062.18 27.1 1063.44 25.8625 1065.09 25.0125C1066.77 24.1375 1068.78 23.7 1071.13 23.7C1074.81 23.7 1077.47 24.75 1079.12 26.85C1080.79 28.925 1081.49 31.7875 1081.22 35.4375H1064.64L1064.68 31.425H1075.26C1075.18 30.475 1074.76 29.7125 1073.98 29.1375C1073.21 28.5375 1072.24 28.2375 1071.09 28.2375C1069.29 28.2375 1067.97 28.8 1067.12 29.925C1066.27 31.05 1065.84 32.6875 1065.84 34.8375C1065.84 35.9125 1066.03 36.9 1066.41 37.8C1066.78 38.7 1067.33 39.425 1068.06 39.975C1068.81 40.5 1069.73 40.7625 1070.83 40.7625C1072.01 40.7625 1072.99 40.475 1073.79 39.9C1074.62 39.325 1075.12 38.6 1075.29 37.725H1081.14C1080.89 40.1 1079.84 41.9875 1077.99 43.3875C1076.17 44.7625 1073.78 45.45 1070.83 45.45ZM1095.56 45.45C1093.61 45.45 1091.89 45.1375 1090.42 44.5125C1088.94 43.8625 1087.79 42.95 1086.97 41.775C1086.17 40.575 1085.76 39.1625 1085.73 37.5375H1091.17C1091.12 38.6875 1091.48 39.5875 1092.26 40.2375C1093.06 40.8875 1094.14 41.2125 1095.52 41.2125C1096.52 41.2125 1097.32 41.05 1097.92 40.725C1098.54 40.375 1098.86 39.9 1098.86 39.3C1098.86 38.775 1098.62 38.3625 1098.14 38.0625C1097.69 37.7375 1097.09 37.4875 1096.34 37.3125C1095.59 37.1125 1094.77 36.925 1093.87 36.75C1092.97 36.55 1092.06 36.3125 1091.13 36.0375C1090.23 35.7625 1089.41 35.4 1088.66 34.95C1087.91 34.475 1087.29 33.8625 1086.82 33.1125C1086.37 32.3375 1086.14 31.375 1086.14 30.225C1086.14 28.9 1086.52 27.75 1087.27 26.775C1088.02 25.8 1089.06 25.05 1090.38 24.525C1091.73 23.975 1093.28 23.7 1095.03 23.7C1097.71 23.7 1099.87 24.325 1101.52 25.575C1103.19 26.8 1104.12 28.525 1104.29 30.75H1098.89C1098.84 29.825 1098.47 29.125 1097.77 28.65C1097.07 28.175 1096.17 27.9375 1095.07 27.9375C1094.14 27.9375 1093.41 28.1 1092.86 28.425C1092.31 28.75 1092.03 29.2375 1092.03 29.8875C1092.03 30.4125 1092.26 30.825 1092.71 31.125C1093.18 31.4 1093.79 31.625 1094.54 31.8C1095.29 31.975 1096.12 32.1375 1097.02 32.2875C1097.94 32.4375 1098.86 32.65 1099.76 32.925C1100.66 33.175 1101.48 33.525 1102.23 33.975C1102.98 34.425 1103.58 35.025 1104.03 35.775C1104.51 36.525 1104.74 37.4875 1104.74 38.6625C1104.74 40.7875 1103.91 42.45 1102.23 43.65C1100.58 44.85 1098.36 45.45 1095.56 45.45ZM1119.95 45.45C1118 45.45 1116.28 45.1375 1114.81 44.5125C1113.33 43.8625 1112.18 42.95 1111.36 41.775C1110.56 40.575 1110.15 39.1625 1110.12 37.5375H1115.56C1115.51 38.6875 1115.87 39.5875 1116.65 40.2375C1117.45 40.8875 1118.53 41.2125 1119.91 41.2125C1120.91 41.2125 1121.71 41.05 1122.31 40.725C1122.93 40.375 1123.25 39.9 1123.25 39.3C1123.25 38.775 1123.01 38.3625 1122.53 38.0625C1122.08 37.7375 1121.48 37.4875 1120.73 37.3125C1119.98 37.1125 1119.16 36.925 1118.26 36.75C1117.36 36.55 1116.45 36.3125 1115.52 36.0375C1114.62 35.7625 1113.8 35.4 1113.05 34.95C1112.3 34.475 1111.68 33.8625 1111.21 33.1125C1110.76 32.3375 1110.53 31.375 1110.53 30.225C1110.53 28.9 1110.91 27.75 1111.66 26.775C1112.41 25.8 1113.45 25.05 1114.77 24.525C1116.12 23.975 1117.67 23.7 1119.42 23.7C1122.1 23.7 1124.26 24.325 1125.91 25.575C1127.58 26.8 1128.51 28.525 1128.68 30.75H1123.28C1123.23 29.825 1122.86 29.125 1122.16 28.65C1121.46 28.175 1120.56 27.9375 1119.46 27.9375C1118.53 27.9375 1117.8 28.1 1117.25 28.425C1116.7 28.75 1116.42 29.2375 1116.42 29.8875C1116.42 30.4125 1116.65 30.825 1117.1 31.125C1117.57 31.4 1118.18 31.625 1118.93 31.8C1119.68 31.975 1120.51 32.1375 1121.41 32.2875C1122.33 32.4375 1123.25 32.65 1124.15 32.925C1125.05 33.175 1125.87 33.525 1126.62 33.975C1127.37 34.425 1127.97 35.025 1128.42 35.775C1128.9 36.525 1129.13 37.4875 1129.13 38.6625C1129.13 40.7875 1128.3 42.45 1126.62 43.65C1124.97 44.85 1122.75 45.45 1119.95 45.45Z" fill="#0077CC"/>
<defs>
<radialGradient id="paint0_radial_673_39" cx="0" cy="0" r="1" gradientUnits="userSpaceOnUse" gradientTransform="translate(147.7 236.32) rotate(136.081) scale(152.932 152.932)">
<stop stop-color="#5FB4F1"/>
<stop offset="1" stop-color="#0077CC"/>
</radialGradient>
<radialGradient id="paint1_radial_673_39" cx="0" cy="0" r="1" gradientUnits="userSpaceOnUse" gradientTransform="translate(453.7 236.32) rotate(136.081) scale(152.932 152.932)">
<stop stop-color="#F1775F"/>
<stop offset="1" stop-color="#BD2915"/>
</radialGradient>
<radialGradient id="paint2_radial_673_39" cx="0" cy="0" r="1" gradientUnits="userSpaceOnUse" gradientTransform="translate(854.7 236.32) rotate(136.081) scale(152.932 152.932)">
<stop stop-color="#5FB4F1"/>
<stop offset="1" stop-color="#0077CC"/>
</radialGradient>
<radialGradient id="paint3_radial_673_39" cx="0" cy="0" r="1" gradientUnits="userSpaceOnUse" gradientTransform="translate(1160.7 236.32) rotate(136.081) scale(152.932 152.932)">
<stop stop-color="#F1775F"/>
<stop offset="1" stop-color="#BD2915"/>
</radialGradient>
<clipPath id="clip0_673_39">
<rect width="115" height="115" fill="white" transform="translate(1148 10)"/>
</clipPath>
</defs>
</svg>
