<svg width="770" height="656" viewBox="0 0 770 656" fill="none" xmlns="http://www.w3.org/2000/svg">
<rect x="5" y="5" width="760" height="646" fill="white" stroke="white" stroke-width="10"/>
<rect x="10" y="496" width="750" height="150" rx="20" fill="url(#paint0_linear_538_1388)"/>
<circle cx="385" cy="346" r="150" fill="url(#paint1_radial_538_1388)"/>
<path d="M385 491C382.239 491 380 493.239 380 496C380 498.761 382.239 501 385 501V496V491ZM638.536 499.536C640.488 497.583 640.488 494.417 638.536 492.464L606.716 460.645C604.763 458.692 601.597 458.692 599.645 460.645C597.692 462.597 597.692 465.763 599.645 467.716L627.929 496L599.645 524.284C597.692 526.237 597.692 529.403 599.645 531.355C601.597 533.308 604.763 533.308 606.716 531.355L638.536 499.536ZM385 496V501H635V496V491H385V496Z" fill="#BD2915"/>
<path d="M385 351C387.761 351 390 348.761 390 346C390 343.239 387.761 341 385 341V346V351ZM31.4645 342.464C29.5118 344.417 29.5118 347.583 31.4645 349.536L63.2843 381.355C65.2369 383.308 68.4027 383.308 70.3553 381.355C72.308 379.403 72.308 376.237 70.3553 374.284L42.0711 346L70.3553 317.716C72.308 315.763 72.308 312.597 70.3553 310.645C68.4027 308.692 65.2369 308.692 63.2843 310.645L31.4645 342.464ZM385 346V341L35 341V346V351L385 351V346Z" fill="#0077CC"/>
<path d="M173.6 142.6C170.467 142.6 167.75 141.867 165.45 140.4C163.183 138.9 161.417 136.8 160.15 134.1C158.917 131.367 158.3 128.183 158.3 124.55C158.3 120.883 158.933 117.7 160.2 115C161.467 112.3 163.267 110.217 165.6 108.75C167.933 107.25 170.7 106.5 173.9 106.5C176.4 106.5 178.7 106.983 180.8 107.95C182.9 108.917 184.617 110.317 185.95 112.15C187.317 113.983 188.067 116.217 188.2 118.85H179.2C179.033 117.15 178.5 115.8 177.6 114.8C176.7 113.767 175.467 113.25 173.9 113.25C172.567 113.25 171.35 113.683 170.25 114.55C169.183 115.383 168.333 116.65 167.7 118.35C167.1 120.017 166.8 122.083 166.8 124.55C166.8 126.983 167.1 129.05 167.7 130.75C168.3 132.417 169.1 133.683 170.1 134.55C171.133 135.417 172.3 135.85 173.6 135.85C174.7 135.85 175.65 135.633 176.45 135.2C177.283 134.733 177.95 134.067 178.45 133.2C178.983 132.333 179.3 131.283 179.4 130.05H188.4C188.133 132.617 187.367 134.85 186.1 136.75C184.867 138.617 183.2 140.067 181.1 141.1C179 142.1 176.5 142.6 173.6 142.6ZM205.77 142.6C202.803 142.6 200.253 142.017 198.12 140.85C195.986 139.683 194.336 138.017 193.17 135.85C192.036 133.683 191.47 131.1 191.47 128.1C191.47 125.067 192.036 122.483 193.17 120.35C194.336 118.183 195.986 116.517 198.12 115.35C200.253 114.183 202.803 113.6 205.77 113.6C210.236 113.6 213.72 114.883 216.22 117.45C218.753 120.017 220.02 123.567 220.02 128.1C220.02 131.1 219.453 133.683 218.32 135.85C217.186 138.017 215.553 139.683 213.42 140.85C211.286 142.017 208.736 142.6 205.77 142.6ZM205.77 136.3C207.77 136.3 209.336 135.567 210.47 134.1C211.636 132.633 212.22 130.633 212.22 128.1C212.22 125.533 211.636 123.533 210.47 122.1C209.336 120.633 207.77 119.9 205.77 119.9C203.736 119.9 202.136 120.633 200.97 122.1C199.836 123.533 199.27 125.533 199.27 128.1C199.27 130.633 199.836 132.633 200.97 134.1C202.136 135.567 203.736 136.3 205.77 136.3ZM243.739 142V124.85C243.739 123.417 243.372 122.267 242.639 121.4C241.906 120.533 240.939 120.1 239.739 120.1C238.372 120.1 237.106 120.567 235.939 121.5C234.806 122.4 233.606 123.967 232.339 126.2L231.239 119.6C232.506 117.433 234.039 115.9 235.839 115C237.639 114.067 239.472 113.6 241.339 113.6C243.472 113.6 245.289 114.05 246.789 114.95C248.322 115.85 249.489 117.1 250.289 118.7C251.122 120.3 251.539 122.183 251.539 124.35V142H243.739ZM225.189 142V114.2H232.739L232.989 119.15V142H225.189ZM273.059 142C271.192 142 269.542 141.583 268.109 140.75C266.709 139.883 265.625 138.7 264.859 137.2C264.092 135.667 263.709 133.933 263.709 132V109.55L271.509 106.05V132C271.509 132.867 271.625 133.583 271.859 134.15C272.125 134.683 272.592 135.083 273.259 135.35C273.959 135.583 274.925 135.7 276.159 135.7H283.209V142H273.059ZM258.209 120.5V114.2H278.259V120.5H258.209ZM308.728 142L308.478 137V123.3C308.478 122 307.995 120.983 307.028 120.25C306.061 119.483 304.728 119.1 303.028 119.1C301.395 119.1 300.061 119.45 299.028 120.15C298.028 120.817 297.445 121.767 297.278 123H289.728C289.895 121.033 290.561 119.35 291.728 117.95C292.895 116.55 294.461 115.483 296.428 114.75C298.428 113.983 300.745 113.6 303.378 113.6C305.978 113.6 308.245 114 310.178 114.8C312.111 115.567 313.595 116.717 314.628 118.25C315.695 119.75 316.228 121.6 316.228 123.8V142H308.728ZM299.828 142.6C297.995 142.6 296.378 142.25 294.978 141.55C293.578 140.817 292.495 139.817 291.728 138.55C290.961 137.283 290.578 135.85 290.578 134.25C290.578 131.383 291.678 129.167 293.878 127.6C296.111 126 299.178 125.2 303.078 125.2H309.228V130.6L302.878 130.65C301.445 130.65 300.295 130.917 299.428 131.45C298.595 131.95 298.178 132.717 298.178 133.75C298.178 134.483 298.478 135.117 299.078 135.65C299.711 136.183 300.595 136.45 301.728 136.45C303.295 136.45 304.678 136.067 305.878 135.3C307.111 134.5 308.128 133.417 308.928 132.05L309.778 137.3C308.945 139.133 307.661 140.483 305.928 141.35C304.228 142.183 302.195 142.6 299.828 142.6ZM336.248 142.6C333.314 142.6 330.781 142.017 328.648 140.85C326.548 139.683 324.931 138.017 323.798 135.85C322.698 133.683 322.148 131.1 322.148 128.1C322.148 125.033 322.731 122.417 323.898 120.25C325.098 118.083 326.764 116.433 328.898 115.3C331.031 114.167 333.548 113.6 336.448 113.6C338.981 113.6 341.214 114.05 343.148 114.95C345.114 115.85 346.664 117.117 347.798 118.75C348.964 120.35 349.598 122.267 349.698 124.5H341.898C341.631 122.967 341.031 121.833 340.098 121.1C339.198 120.333 337.981 119.95 336.448 119.95C335.181 119.95 334.048 120.267 333.048 120.9C332.081 121.533 331.314 122.45 330.748 123.65C330.214 124.85 329.948 126.333 329.948 128.1C329.948 130.733 330.548 132.767 331.748 134.2C332.981 135.633 334.481 136.35 336.248 136.35C337.281 136.35 338.181 136.167 338.948 135.8C339.748 135.433 340.414 134.917 340.948 134.25C341.481 133.55 341.848 132.767 342.048 131.9H349.848C349.648 134.067 348.948 135.95 347.748 137.55C346.548 139.15 344.964 140.4 342.998 141.3C341.031 142.167 338.781 142.6 336.248 142.6ZM370.617 142C368.751 142 367.101 141.583 365.667 140.75C364.267 139.883 363.184 138.7 362.417 137.2C361.651 135.667 361.267 133.933 361.267 132V109.55L369.067 106.05V132C369.067 132.867 369.184 133.583 369.417 134.15C369.684 134.683 370.151 135.083 370.817 135.35C371.517 135.583 372.484 135.7 373.717 135.7H380.767V142H370.617ZM355.767 120.5V114.2H375.817V120.5H355.767ZM420.306 142V107.1H446.656V113.85H428.556V120.6H440.406V127.35H428.556V142H420.306ZM465.926 142.6C462.959 142.6 460.409 142.017 458.276 140.85C456.142 139.683 454.492 138.017 453.326 135.85C452.192 133.683 451.626 131.1 451.626 128.1C451.626 125.067 452.192 122.483 453.326 120.35C454.492 118.183 456.142 116.517 458.276 115.35C460.409 114.183 462.959 113.6 465.926 113.6C470.392 113.6 473.876 114.883 476.376 117.45C478.909 120.017 480.176 123.567 480.176 128.1C480.176 131.1 479.609 133.683 478.476 135.85C477.342 138.017 475.709 139.683 473.576 140.85C471.442 142.017 468.892 142.6 465.926 142.6ZM465.926 136.3C467.926 136.3 469.492 135.567 470.626 134.1C471.792 132.633 472.376 130.633 472.376 128.1C472.376 125.533 471.792 123.533 470.626 122.1C469.492 120.633 467.926 119.9 465.926 119.9C463.892 119.9 462.292 120.633 461.126 122.1C459.992 123.533 459.426 125.533 459.426 128.1C459.426 130.633 459.992 132.633 461.126 134.1C462.292 135.567 463.892 136.3 465.926 136.3ZM504.395 128.1V124.35C504.395 123.083 504.062 122.067 503.395 121.3C502.729 120.5 501.729 120.1 500.395 120.1C498.895 120.1 497.479 120.6 496.145 121.6C494.812 122.6 493.545 124.333 492.345 126.8L491.545 120.25C492.412 118.783 493.362 117.567 494.395 116.6C495.429 115.6 496.562 114.85 497.795 114.35C499.062 113.85 500.445 113.6 501.945 113.6C504.912 113.6 507.362 114.517 509.295 116.35C511.229 118.15 512.195 120.817 512.195 124.35V128.1H504.395ZM485.845 142V114.2H493.345L493.645 119.2V142H485.845ZM531.365 142.6C528.432 142.6 525.898 142.017 523.765 140.85C521.665 139.683 520.048 138.017 518.915 135.85C517.815 133.683 517.265 131.1 517.265 128.1C517.265 125.033 517.848 122.417 519.015 120.25C520.215 118.083 521.882 116.433 524.015 115.3C526.148 114.167 528.665 113.6 531.565 113.6C534.098 113.6 536.332 114.05 538.265 114.95C540.232 115.85 541.782 117.117 542.915 118.75C544.082 120.35 544.715 122.267 544.815 124.5H537.015C536.748 122.967 536.148 121.833 535.215 121.1C534.315 120.333 533.098 119.95 531.565 119.95C530.298 119.95 529.165 120.267 528.165 120.9C527.198 121.533 526.432 122.45 525.865 123.65C525.332 124.85 525.065 126.333 525.065 128.1C525.065 130.733 525.665 132.767 526.865 134.2C528.098 135.633 529.598 136.35 531.365 136.35C532.398 136.35 533.298 136.167 534.065 135.8C534.865 135.433 535.532 134.917 536.065 134.25C536.598 133.55 536.965 132.767 537.165 131.9H544.965C544.765 134.067 544.065 135.95 542.865 137.55C541.665 139.15 540.082 140.4 538.115 141.3C536.148 142.167 533.898 142.6 531.365 142.6ZM563.734 142.6C560.734 142.6 558.151 142.017 555.984 140.85C553.851 139.683 552.201 138.017 551.034 135.85C549.868 133.683 549.284 131.1 549.284 128.1C549.284 125.067 549.868 122.467 551.034 120.3C552.201 118.133 553.884 116.483 556.084 115.35C558.318 114.183 561.001 113.6 564.134 113.6C569.034 113.6 572.584 115 574.784 117.8C577.018 120.567 577.951 124.383 577.584 129.25H555.484L555.534 123.9H569.634C569.534 122.633 568.968 121.617 567.934 120.85C566.901 120.05 565.618 119.65 564.084 119.65C561.684 119.65 559.918 120.4 558.784 121.9C557.651 123.4 557.084 125.583 557.084 128.45C557.084 129.883 557.334 131.2 557.834 132.4C558.334 133.6 559.068 134.567 560.034 135.3C561.034 136 562.268 136.35 563.734 136.35C565.301 136.35 566.618 135.967 567.684 135.2C568.784 134.433 569.451 133.467 569.684 132.3H577.484C577.151 135.467 575.751 137.983 573.284 139.85C570.851 141.683 567.668 142.6 563.734 142.6ZM596.704 142.6C594.104 142.6 591.821 142.183 589.854 141.35C587.887 140.483 586.354 139.267 585.254 137.7C584.187 136.1 583.637 134.217 583.604 132.05H590.854C590.787 133.583 591.271 134.783 592.304 135.65C593.371 136.517 594.821 136.95 596.654 136.95C597.987 136.95 599.054 136.733 599.854 136.3C600.687 135.833 601.104 135.2 601.104 134.4C601.104 133.7 600.787 133.15 600.154 132.75C599.554 132.317 598.754 131.983 597.754 131.75C596.754 131.483 595.654 131.233 594.454 131C593.254 130.733 592.037 130.417 590.804 130.05C589.604 129.683 588.504 129.2 587.504 128.6C586.504 127.967 585.687 127.15 585.054 126.15C584.454 125.117 584.154 123.833 584.154 122.3C584.154 120.533 584.654 119 585.654 117.7C586.654 116.4 588.037 115.4 589.804 114.7C591.604 113.967 593.671 113.6 596.004 113.6C599.571 113.6 602.454 114.433 604.654 116.1C606.887 117.733 608.121 120.033 608.354 123H601.154C601.087 121.767 600.587 120.833 599.654 120.2C598.721 119.567 597.521 119.25 596.054 119.25C594.821 119.25 593.837 119.467 593.104 119.9C592.371 120.333 592.004 120.983 592.004 121.85C592.004 122.55 592.304 123.1 592.904 123.5C593.537 123.867 594.354 124.167 595.354 124.4C596.354 124.633 597.454 124.85 598.654 125.05C599.887 125.25 601.104 125.533 602.304 125.9C603.504 126.233 604.604 126.7 605.604 127.3C606.604 127.9 607.404 128.7 608.004 129.7C608.637 130.7 608.954 131.983 608.954 133.55C608.954 136.383 607.837 138.6 605.604 140.2C603.404 141.8 600.437 142.6 596.704 142.6Z" fill="black"/>
<g clip-path="url(#clip0_538_1388)">
<path d="M760 10H645V125H760V10Z" fill="#0077CC"/>
<path d="M708.764 26.1001C711.94 26.1001 714.514 28.6745 714.514 31.8501V64.6869L734.967 100.592C737.15 104.425 734.382 109.188 729.971 109.188H676.058C671.646 109.187 668.878 104.425 671.061 100.592L691.514 64.6869V31.8501C691.514 28.6745 694.089 26.1002 697.264 26.1001H708.764Z" fill="#0077CC"/>
<path d="M714.514 64.6869H711.639V65.4483L712.016 66.1099L714.514 64.6869ZM691.514 64.6869L694.012 66.1099L694.389 65.4483V64.6869H691.514ZM708.764 26.1001V28.9751C710.352 28.9751 711.639 30.2623 711.639 31.8501H714.514H717.389C717.389 27.0867 713.528 23.2251 708.764 23.2251V26.1001ZM714.514 31.8501H711.639V64.6869H714.514H717.389V31.8501H714.514ZM714.514 64.6869L712.016 66.1099L732.469 102.015L734.967 100.592L737.465 99.1689L717.012 63.2638L714.514 64.6869ZM734.967 100.592L732.469 102.015C733.561 103.931 732.177 106.313 729.971 106.313V109.188V112.063C736.588 112.063 740.74 104.919 737.465 99.1689L734.967 100.592ZM729.971 109.188V106.313H676.058V109.188L676.058 112.063H729.971V109.188ZM676.058 109.188V106.313C673.852 106.312 672.468 103.931 673.56 102.015L671.061 100.592L668.563 99.1688C665.289 104.919 669.441 112.062 676.058 112.063L676.058 109.188ZM671.061 100.592L673.56 102.015L694.012 66.1099L691.514 64.6869L689.016 63.2638L668.563 99.1688L671.061 100.592ZM691.514 64.6869H694.389V31.8501H691.514H688.639V64.6869H691.514ZM691.514 31.8501H694.389C694.389 30.2624 695.676 28.9751 697.264 28.9751L697.264 26.1001V23.2251C692.501 23.2252 688.639 27.0866 688.639 31.8501H691.514ZM697.264 26.1001L697.264 28.9751H708.764V26.1001V23.2251H697.264V26.1001Z" fill="white"/>
<path d="M711.932 66.9255C712.123 66.9255 712.312 66.9373 712.5 66.9559L732.471 102.015C733.562 103.932 732.177 106.313 729.972 106.313H676.059C673.854 106.313 672.469 103.932 673.561 102.015L693.549 66.9255H711.932Z" fill="white"/>
<mask id="mask0_538_1388" style="mask-type:luminance" maskUnits="userSpaceOnUse" x="673" y="66" width="60" height="41">
<path d="M711.932 66.9255C712.123 66.9255 712.312 66.9373 712.5 66.9559L732.471 102.015C733.562 103.932 732.177 106.313 729.972 106.313H676.059C673.854 106.313 672.469 103.932 673.561 102.015L693.549 66.9255H711.932Z" fill="white"/>
</mask>
<g mask="url(#mask0_538_1388)">
<path d="M712.5 66.9559L715.497 65.2483L714.614 63.6982L712.839 63.5226L712.5 66.9559ZM693.549 66.9256V63.4756H691.544L690.552 65.2179L693.549 66.9256ZM711.932 66.9256V70.3756C711.982 70.3756 712.055 70.3787 712.16 70.3892L712.5 66.9559L712.839 63.5226C712.57 63.4961 712.264 63.4756 711.932 63.4756V66.9256ZM712.5 66.9559L709.502 68.6636L729.473 103.723L732.471 102.015L735.469 100.308L715.497 65.2483L712.5 66.9559ZM732.471 102.015L729.473 103.723C729.254 103.339 729.531 102.863 729.972 102.863L729.972 106.313V109.763C734.823 109.763 737.87 104.525 735.469 100.308L732.471 102.015ZM729.972 106.313L729.972 102.863H676.059V106.313L676.059 109.763H729.972V106.313ZM676.059 106.313V102.863C676.5 102.863 676.778 103.339 676.559 103.723L673.561 102.015L670.564 100.308C668.162 104.524 671.207 109.762 676.059 109.763L676.059 106.313ZM673.561 102.015L676.559 103.723L696.547 68.6332L693.549 66.9256L690.552 65.2179L670.564 100.308L673.561 102.015ZM693.549 66.9256V70.3756H711.932V66.9256V63.4756H693.549V66.9256Z" fill="#0077CC"/>
</g>
</g>
<path d="M223.075 45V23.8875H215.425V18.825H236.913V23.8875H229.263V45H223.075ZM254.665 45V32.175C254.665 31.075 254.39 30.2 253.84 29.55C253.29 28.9 252.565 28.575 251.665 28.575C250.64 28.575 249.69 28.925 248.815 29.625C247.965 30.3 247.065 31.475 246.115 33.15L245.29 28.2375C246.24 26.5875 247.39 25.425 248.74 24.75C250.09 24.05 251.465 23.7 252.865 23.7C254.465 23.7 255.827 24.0375 256.952 24.7125C258.102 25.3875 258.977 26.3375 259.577 27.5625C260.202 28.7625 260.515 30.175 260.515 31.8V45H254.665ZM240.752 45V17.2125H246.602V45H240.752ZM275.154 45.45C272.904 45.45 270.967 45.0125 269.342 44.1375C267.742 43.2625 266.504 42.0125 265.629 40.3875C264.754 38.7625 264.317 36.825 264.317 34.575C264.317 32.3 264.754 30.35 265.629 28.725C266.504 27.1 267.767 25.8625 269.417 25.0125C271.092 24.1375 273.104 23.7 275.454 23.7C279.129 23.7 281.792 24.75 283.442 26.85C285.117 28.925 285.817 31.7875 285.542 35.4375H268.967L269.004 31.425H279.579C279.504 30.475 279.079 29.7125 278.304 29.1375C277.529 28.5375 276.567 28.2375 275.417 28.2375C273.617 28.2375 272.292 28.8 271.442 29.925C270.592 31.05 270.167 32.6875 270.167 34.8375C270.167 35.9125 270.354 36.9 270.729 37.8C271.104 38.7 271.654 39.425 272.379 39.975C273.129 40.5 274.054 40.7625 275.154 40.7625C276.329 40.7625 277.317 40.475 278.117 39.9C278.942 39.325 279.442 38.6 279.617 37.725H285.467C285.217 40.1 284.167 41.9875 282.317 43.3875C280.492 44.7625 278.104 45.45 275.154 45.45ZM323.896 45.45C321.746 45.45 319.896 45.05 318.346 44.25C316.821 43.425 315.646 42.275 314.821 40.8C314.021 39.3 313.621 37.5375 313.621 35.5125H319.696C319.696 37.0875 320.034 38.3 320.709 39.15C321.409 39.975 322.471 40.3875 323.896 40.3875C325.021 40.3875 325.909 40.15 326.559 39.675C327.234 39.175 327.571 38.475 327.571 37.575C327.571 36.9 327.321 36.375 326.821 36C326.346 35.6 325.696 35.275 324.871 35.025C324.071 34.75 323.184 34.5 322.209 34.275C321.259 34.025 320.296 33.725 319.321 33.375C318.371 33.025 317.484 32.5625 316.659 31.9875C315.859 31.4125 315.209 30.6625 314.709 29.7375C314.234 28.8125 313.996 27.6375 313.996 26.2125C313.996 24.7375 314.396 23.4125 315.196 22.2375C316.021 21.0625 317.159 20.125 318.609 19.425C320.059 18.725 321.759 18.375 323.709 18.375C325.484 18.375 327.134 18.725 328.659 19.425C330.184 20.1 331.421 21.0875 332.371 22.3875C333.321 23.6875 333.821 25.2875 333.871 27.1875H327.684C327.634 26.3375 327.409 25.6375 327.009 25.0875C326.634 24.5375 326.146 24.125 325.546 23.85C324.971 23.575 324.359 23.4375 323.709 23.4375C322.784 23.4375 321.996 23.6625 321.346 24.1125C320.696 24.5375 320.371 25.175 320.371 26.025C320.371 26.675 320.609 27.1875 321.084 27.5625C321.584 27.9375 322.234 28.25 323.034 28.5C323.859 28.725 324.746 28.95 325.696 29.175C326.671 29.4 327.634 29.6875 328.584 30.0375C329.559 30.3625 330.446 30.825 331.246 31.425C332.071 32.025 332.721 32.825 333.196 33.825C333.696 34.8 333.946 36.05 333.946 37.575C333.946 39.1 333.509 40.4625 332.634 41.6625C331.784 42.8375 330.596 43.7625 329.071 44.4375C327.571 45.1125 325.846 45.45 323.896 45.45ZM348.436 45.45C346.236 45.45 344.336 45.0125 342.736 44.1375C341.161 43.2625 339.948 42.0125 339.098 40.3875C338.273 38.7625 337.861 36.825 337.861 34.575C337.861 32.275 338.298 30.3125 339.173 28.6875C340.073 27.0625 341.323 25.825 342.923 24.975C344.523 24.125 346.411 23.7 348.586 23.7C350.486 23.7 352.161 24.0375 353.611 24.7125C355.086 25.3875 356.248 26.3375 357.098 27.5625C357.973 28.7625 358.448 30.2 358.523 31.875H352.673C352.473 30.725 352.023 29.875 351.323 29.325C350.648 28.75 349.736 28.4625 348.586 28.4625C347.636 28.4625 346.786 28.7 346.036 29.175C345.311 29.65 344.736 30.3375 344.311 31.2375C343.911 32.1375 343.711 33.25 343.711 34.575C343.711 36.55 344.161 38.075 345.061 39.15C345.986 40.225 347.111 40.7625 348.436 40.7625C349.211 40.7625 349.886 40.625 350.461 40.35C351.061 40.075 351.561 39.6875 351.961 39.1875C352.361 38.6625 352.636 38.075 352.786 37.425H358.636C358.486 39.05 357.961 40.4625 357.061 41.6625C356.161 42.8625 354.973 43.8 353.498 44.475C352.023 45.125 350.336 45.45 348.436 45.45ZM369.6 45V24.15H375.45V45H369.6ZM362.85 45V40.275H382.275V45H362.85ZM365.475 28.875V24.15H372.525V28.875H365.475ZM369.375 21.375V15.9H375.6V21.375H369.375ZM397.103 45.45C394.853 45.45 392.915 45.0125 391.29 44.1375C389.69 43.2625 388.453 42.0125 387.578 40.3875C386.703 38.7625 386.265 36.825 386.265 34.575C386.265 32.3 386.703 30.35 387.578 28.725C388.453 27.1 389.715 25.8625 391.365 25.0125C393.04 24.1375 395.053 23.7 397.403 23.7C401.078 23.7 403.74 24.75 405.39 26.85C407.065 28.925 407.765 31.7875 407.49 35.4375H390.915L390.953 31.425H401.528C401.453 30.475 401.028 29.7125 400.253 29.1375C399.478 28.5375 398.515 28.2375 397.365 28.2375C395.565 28.2375 394.24 28.8 393.39 29.925C392.54 31.05 392.115 32.6875 392.115 34.8375C392.115 35.9125 392.303 36.9 392.678 37.8C393.053 38.7 393.603 39.425 394.328 39.975C395.078 40.5 396.003 40.7625 397.103 40.7625C398.278 40.7625 399.265 40.475 400.065 39.9C400.89 39.325 401.39 38.6 401.565 37.725H407.415C407.165 40.1 406.115 41.9875 404.265 43.3875C402.44 44.7625 400.053 45.45 397.103 45.45ZM425.392 45V32.1375C425.392 31.0625 425.117 30.2 424.567 29.55C424.017 28.9 423.292 28.575 422.392 28.575C421.367 28.575 420.417 28.925 419.542 29.625C418.692 30.3 417.792 31.475 416.842 33.15L416.017 28.2C416.967 26.575 418.117 25.425 419.467 24.75C420.817 24.05 422.192 23.7 423.592 23.7C425.192 23.7 426.555 24.0375 427.68 24.7125C428.83 25.3875 429.705 26.325 430.305 27.525C430.93 28.725 431.242 30.1375 431.242 31.7625V45H425.392ZM411.48 45V24.15H417.142L417.33 27.8625V45H411.48ZM445.994 45.45C443.794 45.45 441.894 45.0125 440.294 44.1375C438.719 43.2625 437.507 42.0125 436.657 40.3875C435.832 38.7625 435.419 36.825 435.419 34.575C435.419 32.275 435.857 30.3125 436.732 28.6875C437.632 27.0625 438.882 25.825 440.482 24.975C442.082 24.125 443.969 23.7 446.144 23.7C448.044 23.7 449.719 24.0375 451.169 24.7125C452.644 25.3875 453.807 26.3375 454.657 27.5625C455.532 28.7625 456.007 30.2 456.082 31.875H450.232C450.032 30.725 449.582 29.875 448.882 29.325C448.207 28.75 447.294 28.4625 446.144 28.4625C445.194 28.4625 444.344 28.7 443.594 29.175C442.869 29.65 442.294 30.3375 441.869 31.2375C441.469 32.1375 441.269 33.25 441.269 34.575C441.269 36.55 441.719 38.075 442.619 39.15C443.544 40.225 444.669 40.7625 445.994 40.7625C446.769 40.7625 447.444 40.625 448.019 40.35C448.619 40.075 449.119 39.6875 449.519 39.1875C449.919 38.6625 450.194 38.075 450.344 37.425H456.194C456.044 39.05 455.519 40.4625 454.619 41.6625C453.719 42.8625 452.532 43.8 451.057 44.475C449.582 45.125 447.894 45.45 445.994 45.45ZM470.271 45.45C468.021 45.45 466.084 45.0125 464.459 44.1375C462.859 43.2625 461.621 42.0125 460.746 40.3875C459.871 38.7625 459.434 36.825 459.434 34.575C459.434 32.3 459.871 30.35 460.746 28.725C461.621 27.1 462.884 25.8625 464.534 25.0125C466.209 24.1375 468.221 23.7 470.571 23.7C474.246 23.7 476.909 24.75 478.559 26.85C480.234 28.925 480.934 31.7875 480.659 35.4375H464.084L464.121 31.425H474.696C474.621 30.475 474.196 29.7125 473.421 29.1375C472.646 28.5375 471.684 28.2375 470.534 28.2375C468.734 28.2375 467.409 28.8 466.559 29.925C465.709 31.05 465.284 32.6875 465.284 34.8375C465.284 35.9125 465.471 36.9 465.846 37.8C466.221 38.7 466.771 39.425 467.496 39.975C468.246 40.5 469.171 40.7625 470.271 40.7625C471.446 40.7625 472.434 40.475 473.234 39.9C474.059 39.325 474.559 38.6 474.734 37.725H480.584C480.334 40.1 479.284 41.9875 477.434 43.3875C475.609 44.7625 473.221 45.45 470.271 45.45ZM513.351 36.7875V31.725H519.313C520.513 31.725 521.476 31.3625 522.201 30.6375C522.926 29.8875 523.288 28.9125 523.288 27.7125C523.288 26.5625 522.926 25.6375 522.201 24.9375C521.476 24.2375 520.513 23.8875 519.313 23.8875H513.351V18.825H519.351C521.426 18.825 523.238 19.1875 524.788 19.9125C526.338 20.6375 527.538 21.675 528.388 23.025C529.238 24.35 529.663 25.9125 529.663 27.7125C529.663 29.5375 529.238 31.1375 528.388 32.5125C527.538 33.8625 526.338 34.9125 524.788 35.6625C523.263 36.4125 521.451 36.7875 519.351 36.7875H513.351ZM508.926 45V18.825H515.113V45H508.926ZM547.715 34.575V31.7625C547.715 30.8125 547.465 30.05 546.965 29.475C546.465 28.875 545.715 28.575 544.715 28.575C543.59 28.575 542.528 28.95 541.528 29.7C540.528 30.45 539.578 31.75 538.678 33.6L538.078 28.6875C538.728 27.5875 539.44 26.675 540.215 25.95C540.99 25.2 541.84 24.6375 542.765 24.2625C543.715 23.8875 544.753 23.7 545.878 23.7C548.103 23.7 549.94 24.3875 551.39 25.7625C552.84 27.1125 553.565 29.1125 553.565 31.7625V34.575H547.715ZM533.803 45V24.15H539.428L539.653 27.9V45H533.803ZM567.83 45.45C565.58 45.45 563.643 45.0125 562.018 44.1375C560.418 43.2625 559.18 42.0125 558.305 40.3875C557.43 38.7625 556.993 36.825 556.993 34.575C556.993 32.3 557.43 30.35 558.305 28.725C559.18 27.1 560.443 25.8625 562.093 25.0125C563.768 24.1375 565.78 23.7 568.13 23.7C571.805 23.7 574.468 24.75 576.118 26.85C577.793 28.925 578.493 31.7875 578.218 35.4375H561.643L561.68 31.425H572.255C572.18 30.475 571.755 29.7125 570.98 29.1375C570.205 28.5375 569.243 28.2375 568.093 28.2375C566.293 28.2375 564.968 28.8 564.118 29.925C563.268 31.05 562.843 32.6875 562.843 34.8375C562.843 35.9125 563.03 36.9 563.405 37.8C563.78 38.7 564.33 39.425 565.055 39.975C565.805 40.5 566.73 40.7625 567.83 40.7625C569.005 40.7625 569.993 40.475 570.793 39.9C571.618 39.325 572.118 38.6 572.293 37.725H578.143C577.893 40.1 576.843 41.9875 574.993 43.3875C573.168 44.7625 570.78 45.45 567.83 45.45ZM592.557 45.45C590.607 45.45 588.895 45.1375 587.42 44.5125C585.945 43.8625 584.795 42.95 583.97 41.775C583.17 40.575 582.757 39.1625 582.732 37.5375H588.17C588.12 38.6875 588.482 39.5875 589.257 40.2375C590.057 40.8875 591.145 41.2125 592.52 41.2125C593.52 41.2125 594.32 41.05 594.92 40.725C595.545 40.375 595.857 39.9 595.857 39.3C595.857 38.775 595.62 38.3625 595.145 38.0625C594.695 37.7375 594.095 37.4875 593.345 37.3125C592.595 37.1125 591.77 36.925 590.87 36.75C589.97 36.55 589.057 36.3125 588.132 36.0375C587.232 35.7625 586.407 35.4 585.657 34.95C584.907 34.475 584.295 33.8625 583.82 33.1125C583.37 32.3375 583.145 31.375 583.145 30.225C583.145 28.9 583.52 27.75 584.27 26.775C585.02 25.8 586.057 25.05 587.382 24.525C588.732 23.975 590.282 23.7 592.032 23.7C594.707 23.7 596.87 24.325 598.52 25.575C600.195 26.8 601.12 28.525 601.295 30.75H595.895C595.845 29.825 595.47 29.125 594.77 28.65C594.07 28.175 593.17 27.9375 592.07 27.9375C591.145 27.9375 590.407 28.1 589.857 28.425C589.307 28.75 589.032 29.2375 589.032 29.8875C589.032 30.4125 589.257 30.825 589.707 31.125C590.182 31.4 590.795 31.625 591.545 31.8C592.295 31.975 593.12 32.1375 594.02 32.2875C594.945 32.4375 595.857 32.65 596.757 32.925C597.657 33.175 598.482 33.525 599.232 33.975C599.982 34.425 600.582 35.025 601.032 35.775C601.507 36.525 601.745 37.4875 601.745 38.6625C601.745 40.7875 600.907 42.45 599.232 43.65C597.582 44.85 595.357 45.45 592.557 45.45ZM616.947 45.45C614.997 45.45 613.284 45.1375 611.809 44.5125C610.334 43.8625 609.184 42.95 608.359 41.775C607.559 40.575 607.147 39.1625 607.122 37.5375H612.559C612.509 38.6875 612.872 39.5875 613.647 40.2375C614.447 40.8875 615.534 41.2125 616.909 41.2125C617.909 41.2125 618.709 41.05 619.309 40.725C619.934 40.375 620.247 39.9 620.247 39.3C620.247 38.775 620.009 38.3625 619.534 38.0625C619.084 37.7375 618.484 37.4875 617.734 37.3125C616.984 37.1125 616.159 36.925 615.259 36.75C614.359 36.55 613.447 36.3125 612.522 36.0375C611.622 35.7625 610.797 35.4 610.047 34.95C609.297 34.475 608.684 33.8625 608.209 33.1125C607.759 32.3375 607.534 31.375 607.534 30.225C607.534 28.9 607.909 27.75 608.659 26.775C609.409 25.8 610.447 25.05 611.772 24.525C613.122 23.975 614.672 23.7 616.422 23.7C619.097 23.7 621.259 24.325 622.909 25.575C624.584 26.8 625.509 28.525 625.684 30.75H620.284C620.234 29.825 619.859 29.125 619.159 28.65C618.459 28.175 617.559 27.9375 616.459 27.9375C615.534 27.9375 614.797 28.1 614.247 28.425C613.697 28.75 613.422 29.2375 613.422 29.8875C613.422 30.4125 613.647 30.825 614.097 31.125C614.572 31.4 615.184 31.625 615.934 31.8C616.684 31.975 617.509 32.1375 618.409 32.2875C619.334 32.4375 620.247 32.65 621.147 32.925C622.047 33.175 622.872 33.525 623.622 33.975C624.372 34.425 624.972 35.025 625.422 35.775C625.897 36.525 626.134 37.4875 626.134 38.6625C626.134 40.7875 625.297 42.45 623.622 43.65C621.972 44.85 619.747 45.45 616.947 45.45Z" fill="#0077CC"/>
<defs>
<linearGradient id="paint0_linear_538_1388" x1="385" y1="496" x2="385" y2="646" gradientUnits="userSpaceOnUse">
<stop stop-color="#F1D85F"/>
<stop offset="1" stop-color="#CCAA00"/>
</linearGradient>
<radialGradient id="paint1_radial_538_1388" cx="0" cy="0" r="1" gradientUnits="userSpaceOnUse" gradientTransform="translate(437.5 295) rotate(136.081) scale(224.9)">
<stop stop-color="#6B6B6B"/>
<stop offset="1" stop-color="#1A1A1A"/>
</radialGradient>
<clipPath id="clip0_538_1388">
<rect width="115" height="115" fill="white" transform="translate(645 10)"/>
</clipPath>
</defs>
</svg>
