<svg width="777" height="703" viewBox="0 0 777 703" fill="none" xmlns="http://www.w3.org/2000/svg">
<rect x="5.21484" y="5" width="766.21" height="693" fill="white" stroke="white" stroke-width="10"/>
<g filter="url(#filter0_n_624_1975)">
<path d="M291.715 238C341.582 226.518 420.715 215 420.715 215C420.715 215 423.106 214.677 424.215 215.5C425.267 216.281 425.715 218.5 425.715 218.5C425.715 218.5 425.882 228.559 425.715 235C425.313 250.481 423.757 259.091 422.215 274.5C419.317 303.467 417.617 319.723 413.215 348.5C409.104 375.38 406.858 390.51 400.715 417C395.546 439.288 393.05 452.003 385.215 473.5C380.869 485.425 378.667 492.29 372.715 503.5C368.852 510.776 366.595 514.863 361.715 521.5C357.45 527.302 355.068 530.683 349.715 535.5C342.992 541.551 338.242 543.829 330.215 548C323.071 551.713 318.874 553.519 311.215 556C293.635 561.695 282.683 560.819 264.215 561.5C242.914 562.286 230.868 561.133 209.715 558.5C179.114 554.692 132.715 541 132.715 541L121.715 531C121.715 531 109.884 499.047 104.215 478C98.8667 458.142 95.4976 446.939 93.2152 426.5C90.6581 403.602 90.2013 390.343 93.2152 367.5C94.4626 358.046 94.8853 352.606 97.7152 343.5C100.569 334.318 102.667 329.184 107.715 321C112.022 314.018 114.906 310.292 120.715 304.5C130.917 294.327 139.146 291.542 151.715 284.5C174.62 271.667 188.906 267.093 213.715 258.5C243.476 248.193 261.023 245.067 291.715 238Z" fill="url(#paint0_linear_624_1975)"/>
</g>
<path d="M159.479 564.182H163.902C163.835 564.385 163.649 564.978 163.582 565.178C163.45 565.573 163.25 565.972 162.986 566.368C162.456 567.163 161.823 567.898 161.432 568.749C161.067 569.544 160.551 570.445 159.842 571.231C158.619 572.588 157.822 573.638 156.701 574.869C155.706 575.961 154.764 576.878 153.99 577.446C153.13 578.076 151.571 579.44 150.053 580.622C147.344 582.731 143.494 585.804 142.513 586.475C141.356 587.267 139.37 588.465 137.818 589.384C136.923 589.914 135.858 590.556 134.609 591.204C132.879 592.101 130.655 593.05 129.65 593.517C128.72 593.95 127.735 594.665 126.307 595.072C125.615 595.269 122.664 596.49 117.378 597.759C112.299 598.978 109.491 599.698 108.814 599.867C108.154 600.032 104.717 600.295 100.036 600.063C98.0342 599.964 97.4757 599.99 96.8049 599.73C93.9883 598.637 92.1395 598.16 91.0229 597.913C89.8254 597.649 88.3076 597.213 87.3183 596.954C85.9244 596.589 84.4658 596.086 83.6157 595.731C82.8211 595.398 81.8725 595.08 80.8031 594.705C79.5788 594.275 76.954 594.412 77.2364 593.481C77.3366 593.15 77.6603 592.741 78.0658 592.389C78.7931 591.759 79.4538 591.101 80.2485 590.571C81.0432 590.041 81.9609 589.238 82.828 588.587C83.6227 587.989 84.9339 586.65 86.0028 585.809C86.9324 585.076 87.9757 584.14 88.8144 583.592C89.7738 582.965 91.172 582.181 92.386 581.675C93.7502 581.108 95.5646 580.126 98.6384 578.716C100.691 577.774 104.358 576.137 106.427 575.15C108.497 574.163 108.936 573.802 109.319 573.605C110.41 573.044 111.787 572.235 113.593 571.352C116.628 569.869 118.386 569.324 121.724 568.214C123.311 567.687 124.816 567.429 126.856 566.558C130.252 565.107 130.995 564.551 136.336 564.148C138.507 563.984 141.322 563.984 142.932 564.018C144.543 564.052 144.935 564.117 147.999 564.15C151.063 564.182 156.629 564.182 159.479 564.182Z" fill="#96D62A"/>
<path d="M56.3603 660.341L56.9353 664.727C56.7259 664.686 56.1134 664.579 55.9071 664.539C55.4974 664.46 55.0759 664.313 54.6491 664.102C53.7923 663.68 52.9812 663.149 52.0863 662.872C51.2509 662.613 50.2902 662.218 49.4183 661.617C47.9146 660.581 46.7692 659.927 45.4038 658.976C44.1914 658.131 43.1596 657.317 42.4957 656.622C41.7593 655.852 40.2047 654.483 38.8351 653.132C36.3917 650.721 32.8444 647.302 32.0511 646.417C31.1158 645.373 29.6694 643.559 28.5567 642.14C27.9151 641.321 27.1402 640.349 26.3354 639.194C25.2213 637.596 23.991 635.514 23.3968 634.578C22.8471 633.713 22.0099 632.829 21.4209 631.466C21.1351 630.805 19.5412 628.038 17.5963 622.962C15.727 618.084 14.6485 615.394 14.3926 614.744C14.1435 614.111 13.4353 610.738 13.0568 606.067C12.895 604.069 12.7964 603.519 12.9673 602.82C13.6852 599.885 13.9171 597.99 14.0168 596.851C14.1238 595.629 14.3582 594.067 14.4865 593.053C14.6673 591.623 14.9761 590.112 15.2181 589.223C15.4444 588.391 15.6366 587.41 15.8696 586.3C16.1364 585.031 15.66 582.446 16.6199 582.605C16.9605 582.661 17.4088 582.929 17.8098 583.285C18.529 583.925 19.268 584.494 19.8966 585.213C20.5252 585.932 21.4405 586.738 22.1993 587.513C22.8948 588.223 24.3927 589.349 25.3664 590.3C26.2132 591.126 27.2769 592.039 27.9295 592.799C28.6759 593.669 29.6356 594.953 30.2942 596.091C31.0342 597.37 32.2439 599.042 34.0414 601.906C35.2417 603.819 37.3415 607.242 38.5893 609.165C39.8371 611.089 40.2524 611.477 40.4978 611.832C41.1953 612.84 42.1769 614.1 43.2863 615.776C45.1515 618.593 45.9202 620.265 47.4547 623.43C48.1844 624.936 48.6354 626.394 49.7647 628.304C51.6443 631.482 52.2926 632.146 53.3863 637.39C53.8308 639.521 54.1968 642.313 54.3727 643.913C54.5486 645.514 54.5347 645.912 54.9005 648.954C55.2663 651.996 55.9898 657.515 56.3603 660.341Z" fill="#96D62A"/>
<path d="M49.2975 687.605C50.8667 689.615 51.8755 690.908 54.2152 692C55.5033 692.601 56.2945 692.953 57.7152 693C59.3245 693.054 60.2279 692.617 61.7152 692C63.6662 691.191 64.9712 690.707 66.2152 689C67.3063 687.503 67.32 686.31 67.7152 684.5C68.0511 682.962 68.2152 680.5 68.2152 680.5C68.2152 680.5 64.8011 674.959 63.7152 671C62.0624 664.974 62.8843 661.193 63.7152 655C64.0055 652.836 64.2722 651.638 64.7152 649.5C66.2447 642.12 67.5837 638.063 70.2152 631C73.5861 621.953 76.2726 617.039 80.7867 608.784L81.2152 608C90.4376 591.128 109.215 567.5 109.215 567.5L422.215 219.5L349.215 294.5L134.215 519L109.215 545.5L82.7152 578C82.7152 578 69.9628 594.356 63.7152 606C60.4526 612.081 59.1319 615.746 56.2152 622C53.6675 627.463 51.9282 630.393 49.7152 636C47.675 641.169 45.2152 649.5 45.2152 649.5C45.2152 649.5 42.2393 666.978 45.2152 677.5C46.3599 681.547 46.6264 684.185 49.2152 687.5L49.2975 687.605Z" fill="#299F6B"/>
<path d="M131.419 333.982C131.163 334.238 130.907 334.493 130.009 340.633C129.11 346.772 127.576 358.787 126.786 373.541C125.996 388.295 125.996 405.423 126.251 415.014C126.549 426.16 127.801 429.508 128.572 433.114C129.372 436.857 134.223 449.557 139.901 466.724C143.002 476.098 144.836 480.118 146.261 484.127C147.483 487.561 149.995 490.963 152.327 494.972C152.846 495.883 153.357 496.649 153.877 497.428C154.396 498.207 154.907 498.974 156.983 501.313" stroke="#299F6B" stroke-width="5" stroke-linecap="round"/>
<path d="M157.758 503.637C160.826 504.66 167.519 507.487 178.078 511.74C196.3 519.08 205.23 518.604 213.756 520.285C220.504 521.616 231.283 524.027 242.636 525.832C252.551 527.408 260.233 528.164 270.823 528.555C274.72 528.699 285.232 529.202 300.195 528.946C312.78 528.731 315.777 525.855 320.809 523.787C325.073 521.718 332.278 518.635 336.698 516.04C337.476 515.521 338.243 515.01 340.583 513.708" stroke="#299F6B" stroke-width="5" stroke-linecap="round"/>
<path d="M198.816 313.066C198.816 314.088 198.816 315.111 198.816 325.48C198.816 335.849 198.816 355.534 199.072 366.825C199.327 378.116 199.838 380.417 202.147 386.459C212.415 413.335 212.082 416.144 213.715 420.5C215.215 424.5 217.425 432.578 218.715 434C222.555 438.232 223.311 426.65 226.704 429.268" stroke="#299F6B" stroke-width="5" stroke-linecap="round"/>
<path d="M223.215 436.887C226.215 436.887 234.715 435.593 239.215 435.593C245.104 435.593 251.2 435.202 257.796 435.593C265.175 436.031 272.379 436.751 291.444 436.887C300.307 436.95 306.465 435.729 313.689 434.954C329.411 433.268 337.453 429.795 343.274 428.497C346.772 427.463 349.096 426.688 350.641 426.173C351.42 425.914 352.187 425.658 354.526 425.395" stroke="#299F6B" stroke-width="5" stroke-linecap="round"/>
<path d="M276.215 284C276.215 291.166 277.749 311.3 279.31 319.229C280.204 323.771 283.698 328.141 285.375 331.244C287.053 334.347 289.632 337.438 291.701 340.54C293.769 343.643 296.852 347.245 300.218 349.84C303.064 352.034 307.946 353.706 315.309 356.038C320.89 357.805 326.027 358.369 335.796 359.012C353.923 360.206 367.1 358.888 369.161 358.373C373.298 357.339 377.419 356.309 380.785 354.632C381.564 354.24 382.331 353.985 385.445 353.721" stroke="#299F6B" stroke-width="5" stroke-linecap="round"/>
<path d="M346.779 251.866C346.779 257.498 348.313 270.939 349.874 275.095C351.056 278.24 353.225 281.288 354.65 284.391C355.013 285.181 355.549 285.936 356.196 286.459C359.405 289.054 365.356 286.99 371.031 285.956C374.986 285.235 379.548 283.891 384.464 283.5C388.341 282.853 391.703 282.598 393.249 282.082C394.027 281.823 394.794 281.567 395.584 281.304" stroke="#299F6B" stroke-width="5" stroke-linecap="round"/>
<path d="M473.977 373.455H476.079L481.022 385.528H481.193L486.136 373.455H488.238V388H486.59V376.949H486.448L481.903 388H480.312L475.766 376.949H475.624V388H473.977V373.455ZM491.542 388V377.091H493.219V388H491.542ZM492.395 375.273C492.068 375.273 491.786 375.161 491.549 374.939C491.317 374.716 491.201 374.449 491.201 374.136C491.201 373.824 491.317 373.556 491.549 373.334C491.786 373.111 492.068 373 492.395 373C492.721 373 493.001 373.111 493.233 373.334C493.469 373.556 493.588 373.824 493.588 374.136C493.588 374.449 493.469 374.716 493.233 374.939C493.001 375.161 492.721 375.273 492.395 375.273ZM500.408 388.227C499.499 388.227 498.696 387.998 498 387.538C497.304 387.074 496.76 386.421 496.367 385.578C495.974 384.731 495.777 383.729 495.777 382.574C495.777 381.428 495.974 380.434 496.367 379.591C496.76 378.748 497.306 378.097 498.007 377.638C498.708 377.179 499.518 376.949 500.436 376.949C501.146 376.949 501.708 377.067 502.119 377.304C502.536 377.536 502.853 377.801 503.071 378.099C503.294 378.393 503.467 378.634 503.59 378.824H503.732V373.455H505.408V388H503.788V386.324H503.59C503.467 386.523 503.291 386.774 503.064 387.077C502.837 387.375 502.512 387.643 502.091 387.879C501.67 388.111 501.109 388.227 500.408 388.227ZM500.635 386.722C501.307 386.722 501.876 386.546 502.34 386.196C502.804 385.841 503.156 385.351 503.398 384.726C503.639 384.096 503.76 383.369 503.76 382.545C503.76 381.731 503.642 381.018 503.405 380.408C503.168 379.792 502.818 379.314 502.354 378.973C501.89 378.627 501.317 378.455 500.635 378.455C499.925 378.455 499.333 378.637 498.86 379.001C498.391 379.361 498.038 379.851 497.801 380.472C497.569 381.087 497.453 381.778 497.453 382.545C497.453 383.322 497.572 384.027 497.808 384.662C498.05 385.292 498.405 385.794 498.874 386.168C499.347 386.537 499.934 386.722 500.635 386.722ZM508.71 388V377.091H510.33V378.739H510.443C510.642 378.199 511.002 377.761 511.523 377.425C512.044 377.089 512.631 376.92 513.284 376.92C513.407 376.92 513.561 376.923 513.746 376.928C513.931 376.932 514.07 376.939 514.165 376.949V378.653C514.108 378.639 513.978 378.618 513.774 378.589C513.575 378.556 513.365 378.54 513.142 378.54C512.612 378.54 512.138 378.651 511.722 378.874C511.31 379.091 510.983 379.394 510.742 379.783C510.505 380.166 510.386 380.604 510.386 381.097V388H508.71ZM516.152 388V377.091H517.828V388H516.152ZM517.004 375.273C516.677 375.273 516.396 375.161 516.159 374.939C515.927 374.716 515.811 374.449 515.811 374.136C515.811 373.824 515.927 373.556 516.159 373.334C516.396 373.111 516.677 373 517.004 373C517.331 373 517.61 373.111 517.842 373.334C518.079 373.556 518.197 373.824 518.197 374.136C518.197 374.449 518.079 374.716 517.842 374.939C517.61 375.161 517.331 375.273 517.004 375.273ZM521.125 388V373.455H522.801V378.824H522.943C523.066 378.634 523.237 378.393 523.455 378.099C523.677 377.801 523.994 377.536 524.406 377.304C524.823 377.067 525.386 376.949 526.097 376.949C527.015 376.949 527.825 377.179 528.526 377.638C529.226 378.097 529.773 378.748 530.166 379.591C530.559 380.434 530.756 381.428 530.756 382.574C530.756 383.729 530.559 384.731 530.166 385.578C529.773 386.421 529.229 387.074 528.533 387.538C527.837 387.998 527.034 388.227 526.125 388.227C525.424 388.227 524.863 388.111 524.442 387.879C524.02 387.643 523.696 387.375 523.469 387.077C523.242 386.774 523.066 386.523 522.943 386.324H522.744V388H521.125ZM522.773 382.545C522.773 383.369 522.894 384.096 523.135 384.726C523.377 385.351 523.729 385.841 524.193 386.196C524.657 386.546 525.226 386.722 525.898 386.722C526.599 386.722 527.183 386.537 527.652 386.168C528.126 385.794 528.481 385.292 528.717 384.662C528.959 384.027 529.08 383.322 529.08 382.545C529.08 381.778 528.961 381.087 528.725 380.472C528.493 379.851 528.14 379.361 527.666 379.001C527.198 378.637 526.608 378.455 525.898 378.455C525.216 378.455 524.643 378.627 524.179 378.973C523.715 379.314 523.365 379.792 523.128 380.408C522.891 381.018 522.773 381.731 522.773 382.545Z" fill="black"/>
<path d="M571.977 389V374.455H573.738V387.438H580.499V389H571.977ZM586.21 389.256C585.518 389.256 584.891 389.125 584.328 388.865C583.764 388.6 583.317 388.219 582.985 387.722C582.654 387.22 582.488 386.614 582.488 385.903C582.488 385.278 582.611 384.772 582.857 384.384C583.104 383.991 583.433 383.683 583.845 383.46C584.257 383.238 584.711 383.072 585.208 382.963C585.71 382.849 586.214 382.759 586.721 382.693C587.384 382.608 587.921 382.544 588.333 382.501C588.75 382.454 589.053 382.376 589.242 382.267C589.436 382.158 589.534 381.969 589.534 381.699V381.642C589.534 380.941 589.342 380.397 588.958 380.009C588.579 379.62 588.004 379.426 587.232 379.426C586.432 379.426 585.805 379.601 585.35 379.952C584.896 380.302 584.576 380.676 584.391 381.074L582.801 380.506C583.085 379.843 583.463 379.327 583.937 378.957C584.415 378.583 584.936 378.323 585.499 378.176C586.068 378.025 586.626 377.949 587.176 377.949C587.526 377.949 587.928 377.991 588.383 378.077C588.842 378.157 589.285 378.325 589.711 378.581C590.142 378.837 590.499 379.223 590.784 379.739C591.068 380.255 591.21 380.946 591.21 381.812V389H589.534V387.523H589.448C589.335 387.759 589.145 388.013 588.88 388.283C588.615 388.553 588.262 388.782 587.822 388.972C587.382 389.161 586.844 389.256 586.21 389.256ZM586.465 387.75C587.128 387.75 587.687 387.62 588.141 387.359C588.601 387.099 588.946 386.763 589.178 386.351C589.415 385.939 589.534 385.506 589.534 385.051V383.517C589.462 383.602 589.306 383.68 589.065 383.751C588.828 383.818 588.553 383.877 588.241 383.929C587.933 383.976 587.632 384.019 587.339 384.057C587.05 384.09 586.816 384.118 586.636 384.142C586.2 384.199 585.793 384.291 585.414 384.419C585.04 384.542 584.737 384.729 584.505 384.98C584.278 385.226 584.164 385.562 584.164 385.989C584.164 386.571 584.38 387.011 584.811 387.31C585.246 387.603 585.798 387.75 586.465 387.75ZM594.269 389V378.091H595.888V379.795H596.03C596.258 379.213 596.625 378.761 597.131 378.439C597.638 378.112 598.246 377.949 598.956 377.949C599.676 377.949 600.275 378.112 600.753 378.439C601.236 378.761 601.613 379.213 601.883 379.795H601.996C602.276 379.232 602.695 378.785 603.253 378.453C603.812 378.117 604.482 377.949 605.263 377.949C606.239 377.949 607.036 378.254 607.657 378.865C608.277 379.471 608.587 380.416 608.587 381.699V389H606.911V381.699C606.911 380.894 606.691 380.319 606.25 379.973C605.81 379.627 605.292 379.455 604.695 379.455C603.928 379.455 603.334 379.687 602.912 380.151C602.491 380.61 602.28 381.192 602.28 381.898V389H600.576V381.528C600.576 380.908 600.375 380.409 599.972 380.03C599.57 379.646 599.051 379.455 598.417 379.455C597.981 379.455 597.574 379.571 597.195 379.803C596.821 380.035 596.518 380.357 596.286 380.768C596.059 381.176 595.945 381.647 595.945 382.182V389H594.269ZM611.652 389V378.091H613.328V389H611.652ZM612.504 376.273C612.177 376.273 611.896 376.161 611.659 375.939C611.427 375.716 611.311 375.449 611.311 375.136C611.311 374.824 611.427 374.556 611.659 374.334C611.896 374.111 612.177 374 612.504 374C612.831 374 613.11 374.111 613.342 374.334C613.579 374.556 613.697 374.824 613.697 375.136C613.697 375.449 613.579 375.716 613.342 375.939C613.11 376.161 612.831 376.273 612.504 376.273ZM618.074 382.438V389H616.398V378.091H618.017V379.795H618.159C618.415 379.241 618.803 378.796 619.324 378.46C619.845 378.119 620.517 377.949 621.341 377.949C622.08 377.949 622.726 378.1 623.28 378.403C623.834 378.702 624.265 379.156 624.573 379.767C624.88 380.373 625.034 381.14 625.034 382.068V389H623.358V382.182C623.358 381.325 623.136 380.657 622.69 380.179C622.245 379.696 621.635 379.455 620.858 379.455C620.323 379.455 619.845 379.571 619.423 379.803C619.007 380.035 618.678 380.373 618.436 380.818C618.195 381.263 618.074 381.803 618.074 382.438ZM631.307 389.256C630.616 389.256 629.989 389.125 629.425 388.865C628.862 388.6 628.414 388.219 628.083 387.722C627.751 387.22 627.586 386.614 627.586 385.903C627.586 385.278 627.709 384.772 627.955 384.384C628.201 383.991 628.53 383.683 628.942 383.46C629.354 383.238 629.809 383.072 630.306 382.963C630.808 382.849 631.312 382.759 631.819 382.693C632.482 382.608 633.019 382.544 633.431 382.501C633.848 382.454 634.151 382.376 634.34 382.267C634.534 382.158 634.631 381.969 634.631 381.699V381.642C634.631 380.941 634.439 380.397 634.056 380.009C633.677 379.62 633.102 379.426 632.33 379.426C631.53 379.426 630.902 379.601 630.448 379.952C629.993 380.302 629.674 380.676 629.489 381.074L627.898 380.506C628.182 379.843 628.561 379.327 629.035 378.957C629.513 378.583 630.034 378.323 630.597 378.176C631.165 378.025 631.724 377.949 632.273 377.949C632.624 377.949 633.026 377.991 633.481 378.077C633.94 378.157 634.383 378.325 634.809 378.581C635.24 378.837 635.597 379.223 635.881 379.739C636.165 380.255 636.307 380.946 636.307 381.812V389H634.631V387.523H634.546C634.432 387.759 634.243 388.013 633.978 388.283C633.713 388.553 633.36 388.782 632.92 388.972C632.479 389.161 631.942 389.256 631.307 389.256ZM631.563 387.75C632.226 387.75 632.785 387.62 633.239 387.359C633.698 387.099 634.044 386.763 634.276 386.351C634.513 385.939 634.631 385.506 634.631 385.051V383.517C634.56 383.602 634.404 383.68 634.162 383.751C633.926 383.818 633.651 383.877 633.339 383.929C633.031 383.976 632.73 384.019 632.437 384.057C632.148 384.09 631.913 384.118 631.733 384.142C631.298 384.199 630.891 384.291 630.512 384.419C630.138 384.542 629.835 384.729 629.603 384.98C629.375 385.226 629.262 385.562 629.262 385.989C629.262 386.571 629.477 387.011 629.908 387.31C630.344 387.603 630.895 387.75 631.563 387.75Z" fill="black"/>
<path d="M473.977 548V533.455H479.062C480.075 533.455 480.911 533.63 481.569 533.98C482.227 534.326 482.717 534.792 483.039 535.379C483.361 535.962 483.522 536.608 483.522 537.318C483.522 537.943 483.411 538.459 483.188 538.866C482.971 539.274 482.682 539.596 482.322 539.832C481.967 540.069 481.581 540.244 481.164 540.358V540.5C481.609 540.528 482.057 540.685 482.507 540.969C482.956 541.253 483.333 541.66 483.636 542.19C483.939 542.721 484.09 543.369 484.09 544.136C484.09 544.866 483.925 545.521 483.593 546.104C483.262 546.686 482.739 547.148 482.024 547.489C481.309 547.83 480.378 548 479.232 548H473.977ZM475.738 546.438H479.232C480.383 546.438 481.2 546.215 481.683 545.77C482.17 545.32 482.414 544.776 482.414 544.136C482.414 543.644 482.289 543.189 482.038 542.773C481.787 542.351 481.429 542.015 480.965 541.764C480.501 541.509 479.952 541.381 479.318 541.381H475.738V546.438ZM475.738 539.847H479.005C479.535 539.847 480.014 539.742 480.44 539.534C480.871 539.326 481.212 539.032 481.462 538.653C481.718 538.275 481.846 537.83 481.846 537.318C481.846 536.679 481.623 536.137 481.178 535.692C480.733 535.242 480.028 535.017 479.062 535.017H475.738V539.847ZM489.967 548.256C489.276 548.256 488.649 548.125 488.085 547.865C487.522 547.6 487.074 547.219 486.743 546.722C486.412 546.22 486.246 545.614 486.246 544.903C486.246 544.278 486.369 543.772 486.615 543.384C486.861 542.991 487.19 542.683 487.602 542.46C488.014 542.238 488.469 542.072 488.966 541.963C489.468 541.849 489.972 541.759 490.479 541.693C491.142 541.608 491.679 541.544 492.091 541.501C492.508 541.454 492.811 541.376 493 541.267C493.194 541.158 493.291 540.969 493.291 540.699V540.642C493.291 539.941 493.1 539.397 492.716 539.009C492.337 538.62 491.762 538.426 490.99 538.426C490.19 538.426 489.563 538.601 489.108 538.952C488.654 539.302 488.334 539.676 488.149 540.074L486.558 539.506C486.842 538.843 487.221 538.327 487.695 537.957C488.173 537.583 488.694 537.323 489.257 537.176C489.825 537.025 490.384 536.949 490.933 536.949C491.284 536.949 491.686 536.991 492.141 537.077C492.6 537.157 493.043 537.325 493.469 537.581C493.9 537.837 494.257 538.223 494.541 538.739C494.825 539.255 494.967 539.946 494.967 540.812V548H493.291V546.523H493.206C493.092 546.759 492.903 547.013 492.638 547.283C492.373 547.553 492.02 547.782 491.58 547.972C491.139 548.161 490.602 548.256 489.967 548.256ZM490.223 546.75C490.886 546.75 491.445 546.62 491.899 546.359C492.359 546.099 492.704 545.763 492.936 545.351C493.173 544.939 493.291 544.506 493.291 544.051V542.517C493.22 542.602 493.064 542.68 492.823 542.751C492.586 542.818 492.311 542.877 491.999 542.929C491.691 542.976 491.39 543.019 491.097 543.057C490.808 543.09 490.574 543.118 490.394 543.142C489.958 543.199 489.551 543.291 489.172 543.419C488.798 543.542 488.495 543.729 488.263 543.98C488.036 544.226 487.922 544.562 487.922 544.989C487.922 545.571 488.137 546.011 488.568 546.31C489.004 546.603 489.556 546.75 490.223 546.75ZM505.754 539.534L504.248 539.96C504.154 539.709 504.014 539.465 503.829 539.229C503.649 538.987 503.403 538.788 503.091 538.632C502.778 538.476 502.378 538.398 501.89 538.398C501.223 538.398 500.666 538.552 500.221 538.859C499.781 539.162 499.561 539.548 499.561 540.017C499.561 540.434 499.712 540.763 500.015 541.004C500.318 541.246 500.792 541.447 501.436 541.608L503.055 542.006C504.031 542.242 504.757 542.605 505.236 543.092C505.714 543.575 505.953 544.198 505.953 544.96C505.953 545.585 505.773 546.144 505.413 546.636C505.058 547.129 504.561 547.517 503.922 547.801C503.282 548.085 502.539 548.227 501.692 548.227C500.579 548.227 499.658 547.986 498.929 547.503C498.2 547.02 497.738 546.314 497.544 545.386L499.135 544.989C499.286 545.576 499.573 546.016 499.994 546.31C500.42 546.603 500.977 546.75 501.663 546.75C502.444 546.75 503.065 546.584 503.524 546.253C503.988 545.917 504.22 545.514 504.22 545.045C504.22 544.667 504.087 544.349 503.822 544.094C503.557 543.833 503.15 543.639 502.601 543.511L500.782 543.085C499.783 542.848 499.049 542.482 498.581 541.984C498.117 541.482 497.885 540.855 497.885 540.102C497.885 539.487 498.058 538.942 498.403 538.469C498.754 537.995 499.229 537.624 499.831 537.354C500.437 537.084 501.123 536.949 501.89 536.949C502.97 536.949 503.817 537.186 504.433 537.659C505.053 538.133 505.494 538.758 505.754 539.534ZM513.05 548.227C511.999 548.227 511.092 547.995 510.33 547.531C509.572 547.062 508.987 546.409 508.575 545.571C508.168 544.728 507.965 543.748 507.965 542.631C507.965 541.513 508.168 540.528 508.575 539.676C508.987 538.819 509.56 538.152 510.294 537.673C511.033 537.19 511.895 536.949 512.879 536.949C513.448 536.949 514.009 537.044 514.563 537.233C515.117 537.422 515.621 537.73 516.075 538.156C516.53 538.578 516.892 539.136 517.162 539.832C517.432 540.528 517.567 541.385 517.567 542.403V543.114H509.158V541.665H515.862C515.862 541.049 515.739 540.5 515.493 540.017C515.252 539.534 514.906 539.153 514.456 538.874C514.011 538.594 513.485 538.455 512.879 538.455C512.212 538.455 511.634 538.62 511.146 538.952C510.663 539.278 510.292 539.705 510.031 540.23C509.771 540.756 509.641 541.319 509.641 541.92V542.886C509.641 543.71 509.783 544.409 510.067 544.982C510.356 545.55 510.756 545.983 511.267 546.281C511.779 546.575 512.373 546.722 513.05 546.722C513.49 546.722 513.888 546.66 514.243 546.537C514.603 546.409 514.913 546.22 515.173 545.969C515.434 545.713 515.635 545.396 515.777 545.017L517.396 545.472C517.226 546.021 516.94 546.504 516.537 546.92C516.135 547.332 515.637 547.654 515.046 547.886C514.454 548.114 513.788 548.227 513.05 548.227Z" fill="black"/>
<path d="M474.573 276.455L478.891 288.699H479.062L483.38 276.455H485.227L479.886 291H478.068L472.727 276.455H474.573ZM490.823 291.227C489.772 291.227 488.865 290.995 488.103 290.531C487.346 290.062 486.761 289.409 486.349 288.571C485.942 287.728 485.738 286.748 485.738 285.631C485.738 284.513 485.942 283.528 486.349 282.676C486.761 281.819 487.334 281.152 488.068 280.673C488.806 280.19 489.668 279.949 490.653 279.949C491.221 279.949 491.782 280.044 492.336 280.233C492.89 280.422 493.394 280.73 493.849 281.156C494.303 281.578 494.666 282.136 494.936 282.832C495.205 283.528 495.34 284.385 495.34 285.403V286.114H486.931V284.665H493.636C493.636 284.049 493.513 283.5 493.266 283.017C493.025 282.534 492.679 282.153 492.23 281.874C491.784 281.594 491.259 281.455 490.653 281.455C489.985 281.455 489.408 281.62 488.92 281.952C488.437 282.278 488.065 282.705 487.805 283.23C487.544 283.756 487.414 284.319 487.414 284.92V285.886C487.414 286.71 487.556 287.409 487.84 287.982C488.129 288.55 488.529 288.983 489.041 289.281C489.552 289.575 490.146 289.722 490.823 289.722C491.264 289.722 491.661 289.66 492.016 289.537C492.376 289.409 492.686 289.22 492.947 288.969C493.207 288.713 493.409 288.396 493.551 288.017L495.17 288.472C494.999 289.021 494.713 289.504 494.311 289.92C493.908 290.332 493.411 290.654 492.819 290.886C492.227 291.114 491.562 291.227 490.823 291.227ZM497.89 291V280.091H499.566V291H497.89ZM498.742 278.273C498.416 278.273 498.134 278.161 497.897 277.939C497.665 277.716 497.549 277.449 497.549 277.136C497.549 276.824 497.665 276.556 497.897 276.334C498.134 276.111 498.416 276 498.742 276C499.069 276 499.348 276.111 499.58 276.334C499.817 276.556 499.936 276.824 499.936 277.136C499.936 277.449 499.817 277.716 499.58 277.939C499.348 278.161 499.069 278.273 498.742 278.273ZM504.312 284.438V291H502.636V280.091H504.255V281.795H504.398C504.653 281.241 505.041 280.796 505.562 280.46C506.083 280.119 506.755 279.949 507.579 279.949C508.318 279.949 508.964 280.1 509.518 280.403C510.072 280.702 510.503 281.156 510.811 281.767C511.119 282.373 511.273 283.14 511.273 284.068V291H509.596V284.182C509.596 283.325 509.374 282.657 508.929 282.179C508.484 281.696 507.873 281.455 507.096 281.455C506.561 281.455 506.083 281.571 505.662 281.803C505.245 282.035 504.916 282.373 504.674 282.818C504.433 283.263 504.312 283.803 504.312 284.438Z" fill="black"/>
<path d="M473.181 221.017V219.455H484.09V221.017H479.516V234H477.755V221.017H473.181ZM486.581 234V223.091H488.258V234H486.581ZM487.434 221.273C487.107 221.273 486.825 221.161 486.589 220.939C486.357 220.716 486.241 220.449 486.241 220.136C486.241 219.824 486.357 219.556 486.589 219.334C486.825 219.111 487.107 219 487.434 219C487.76 219 488.04 219.111 488.272 219.334C488.509 219.556 488.627 219.824 488.627 220.136C488.627 220.449 488.509 220.716 488.272 220.939C488.04 221.161 487.76 221.273 487.434 221.273ZM491.328 238.091V223.091H492.947V224.824H493.146C493.269 224.634 493.439 224.393 493.657 224.099C493.88 223.801 494.197 223.536 494.609 223.304C495.025 223.067 495.589 222.949 496.299 222.949C497.218 222.949 498.027 223.179 498.728 223.638C499.429 224.097 499.976 224.748 500.369 225.591C500.762 226.434 500.958 227.428 500.958 228.574C500.958 229.729 500.762 230.731 500.369 231.578C499.976 232.421 499.431 233.074 498.735 233.538C498.039 233.998 497.237 234.227 496.328 234.227C495.627 234.227 495.066 234.111 494.644 233.879C494.223 233.643 493.899 233.375 493.671 233.077C493.444 232.774 493.269 232.523 493.146 232.324H493.004V238.091H491.328ZM492.975 228.545C492.975 229.369 493.096 230.096 493.337 230.726C493.579 231.351 493.932 231.841 494.396 232.196C494.86 232.546 495.428 232.722 496.1 232.722C496.801 232.722 497.386 232.537 497.855 232.168C498.328 231.794 498.683 231.292 498.92 230.662C499.161 230.027 499.282 229.322 499.282 228.545C499.282 227.778 499.164 227.087 498.927 226.472C498.695 225.851 498.342 225.361 497.869 225.001C497.4 224.637 496.811 224.455 496.1 224.455C495.418 224.455 494.846 224.627 494.382 224.973C493.918 225.314 493.567 225.792 493.33 226.408C493.094 227.018 492.975 227.731 492.975 228.545Z" fill="black"/>
<path d="M159.977 670V655.455H164.891C166.033 655.455 166.965 655.661 167.69 656.072C168.419 656.48 168.959 657.031 169.309 657.727C169.659 658.423 169.835 659.2 169.835 660.057C169.835 660.914 169.659 661.693 169.309 662.393C168.963 663.094 168.428 663.653 167.704 664.07C166.98 664.482 166.052 664.688 164.92 664.688H161.397V663.125H164.863C165.644 663.125 166.272 662.99 166.745 662.72C167.219 662.45 167.562 662.086 167.775 661.626C167.993 661.162 168.102 660.639 168.102 660.057C168.102 659.474 167.993 658.954 167.775 658.494C167.562 658.035 167.216 657.675 166.738 657.415C166.26 657.15 165.625 657.017 164.835 657.017H161.738V670H159.977ZM176.901 670.227C175.85 670.227 174.944 669.995 174.181 669.531C173.424 669.062 172.839 668.409 172.427 667.571C172.02 666.728 171.816 665.748 171.816 664.631C171.816 663.513 172.02 662.528 172.427 661.676C172.839 660.819 173.412 660.152 174.146 659.673C174.884 659.19 175.746 658.949 176.731 658.949C177.299 658.949 177.86 659.044 178.414 659.233C178.968 659.422 179.472 659.73 179.927 660.156C180.382 660.578 180.744 661.136 181.014 661.832C181.284 662.528 181.418 663.385 181.418 664.403V665.114H173.009V663.665H179.714C179.714 663.049 179.591 662.5 179.345 662.017C179.103 661.534 178.757 661.153 178.308 660.874C177.863 660.594 177.337 660.455 176.731 660.455C176.063 660.455 175.486 660.62 174.998 660.952C174.515 661.278 174.143 661.705 173.883 662.23C173.623 662.756 173.492 663.319 173.492 663.92V664.886C173.492 665.71 173.634 666.409 173.918 666.982C174.207 667.55 174.607 667.983 175.119 668.281C175.63 668.575 176.224 668.722 176.901 668.722C177.342 668.722 177.739 668.66 178.095 668.537C178.454 668.409 178.765 668.22 179.025 667.969C179.285 667.713 179.487 667.396 179.629 667.017L181.248 667.472C181.078 668.021 180.791 668.504 180.389 668.92C179.986 669.332 179.489 669.654 178.897 669.886C178.305 670.114 177.64 670.227 176.901 670.227ZM188.712 659.091V660.511H183.059V659.091H188.712ZM184.707 656.477H186.383V666.875C186.383 667.348 186.452 667.704 186.589 667.94C186.731 668.172 186.911 668.329 187.129 668.409C187.351 668.485 187.586 668.523 187.832 668.523C188.016 668.523 188.168 668.513 188.286 668.494C188.405 668.471 188.499 668.452 188.57 668.438L188.911 669.943C188.798 669.986 188.639 670.028 188.436 670.071C188.232 670.118 187.974 670.142 187.661 670.142C187.188 670.142 186.724 670.04 186.269 669.837C185.819 669.633 185.445 669.323 185.147 668.906C184.854 668.49 184.707 667.964 184.707 667.33V656.477ZM191.234 670V659.091H192.91V670H191.234ZM192.086 657.273C191.759 657.273 191.478 657.161 191.241 656.939C191.009 656.716 190.893 656.449 190.893 656.136C190.893 655.824 191.009 655.556 191.241 655.334C191.478 655.111 191.759 655 192.086 655C192.413 655 192.692 655.111 192.924 655.334C193.161 655.556 193.279 655.824 193.279 656.136C193.279 656.449 193.161 656.716 192.924 656.939C192.692 657.161 192.413 657.273 192.086 657.273ZM200.412 670.227C199.427 670.227 198.563 669.993 197.819 669.524C197.081 669.055 196.503 668.4 196.086 667.557C195.674 666.714 195.469 665.729 195.469 664.602C195.469 663.466 195.674 662.474 196.086 661.626C196.503 660.779 197.081 660.121 197.819 659.652C198.563 659.183 199.427 658.949 200.412 658.949C201.397 658.949 202.258 659.183 202.997 659.652C203.74 660.121 204.318 660.779 204.73 661.626C205.147 662.474 205.355 663.466 205.355 664.602C205.355 665.729 205.147 666.714 204.73 667.557C204.318 668.4 203.74 669.055 202.997 669.524C202.258 669.993 201.397 670.227 200.412 670.227ZM200.412 668.722C201.16 668.722 201.775 668.53 202.258 668.146C202.741 667.763 203.099 667.259 203.331 666.634C203.563 666.009 203.679 665.331 203.679 664.602C203.679 663.873 203.563 663.194 203.331 662.564C203.099 661.934 202.741 661.425 202.258 661.037C201.775 660.649 201.16 660.455 200.412 660.455C199.664 660.455 199.048 660.649 198.565 661.037C198.082 661.425 197.725 661.934 197.493 662.564C197.261 663.194 197.145 663.873 197.145 664.602C197.145 665.331 197.261 666.009 197.493 666.634C197.725 667.259 198.082 667.763 198.565 668.146C199.048 668.53 199.664 668.722 200.412 668.722ZM209.59 655.455V670H207.913V655.455H209.59ZM217.233 670.227C216.182 670.227 215.276 669.995 214.513 669.531C213.756 669.062 213.171 668.409 212.759 667.571C212.352 666.728 212.148 665.748 212.148 664.631C212.148 663.513 212.352 662.528 212.759 661.676C213.171 660.819 213.744 660.152 214.478 659.673C215.216 659.19 216.078 658.949 217.063 658.949C217.631 658.949 218.192 659.044 218.746 659.233C219.3 659.422 219.804 659.73 220.259 660.156C220.714 660.578 221.076 661.136 221.346 661.832C221.616 662.528 221.75 663.385 221.75 664.403V665.114H213.341V663.665H220.046C220.046 663.049 219.923 662.5 219.677 662.017C219.435 661.534 219.09 661.153 218.64 660.874C218.195 660.594 217.669 660.455 217.063 660.455C216.395 660.455 215.818 660.62 215.33 660.952C214.847 661.278 214.475 661.705 214.215 662.23C213.955 662.756 213.824 663.319 213.824 663.92V664.886C213.824 665.71 213.966 666.409 214.25 666.982C214.539 667.55 214.939 667.983 215.451 668.281C215.962 668.575 216.556 668.722 217.233 668.722C217.674 668.722 218.072 668.66 218.427 668.537C218.786 668.409 219.097 668.22 219.357 667.969C219.617 667.713 219.819 667.396 219.961 667.017L221.58 667.472C221.41 668.021 221.123 668.504 220.721 668.92C220.318 669.332 219.821 669.654 219.229 669.886C218.637 670.114 217.972 670.227 217.233 670.227Z" fill="black"/>
<path d="M193.931 587.091C193.846 586.371 193.5 585.812 192.894 585.415C192.288 585.017 191.545 584.818 190.664 584.818C190.02 584.818 189.457 584.922 188.974 585.131C188.496 585.339 188.122 585.625 187.852 585.99C187.587 586.355 187.454 586.769 187.454 587.233C187.454 587.621 187.546 587.955 187.731 588.234C187.92 588.509 188.162 588.739 188.455 588.923C188.749 589.103 189.057 589.252 189.379 589.371C189.701 589.484 189.997 589.577 190.266 589.648L191.744 590.045C192.123 590.145 192.544 590.282 193.008 590.457C193.477 590.633 193.924 590.872 194.35 591.175C194.781 591.473 195.136 591.857 195.416 592.325C195.695 592.794 195.835 593.369 195.835 594.051C195.835 594.837 195.629 595.547 195.217 596.182C194.81 596.816 194.213 597.321 193.427 597.695C192.646 598.069 191.696 598.256 190.579 598.256C189.537 598.256 188.635 598.088 187.873 597.751C187.115 597.415 186.519 596.946 186.083 596.345C185.652 595.744 185.409 595.045 185.352 594.25H187.17C187.217 594.799 187.402 595.254 187.724 595.614C188.051 595.969 188.462 596.234 188.96 596.409C189.462 596.58 190.001 596.665 190.579 596.665C191.251 596.665 191.855 596.556 192.39 596.338C192.925 596.116 193.349 595.808 193.661 595.415C193.974 595.017 194.13 594.553 194.13 594.023C194.13 593.54 193.995 593.147 193.725 592.844C193.455 592.541 193.1 592.295 192.66 592.105C192.22 591.916 191.744 591.75 191.232 591.608L189.443 591.097C188.306 590.77 187.407 590.304 186.744 589.697C186.081 589.091 185.749 588.298 185.749 587.318C185.749 586.504 185.97 585.794 186.41 585.188C186.855 584.577 187.452 584.103 188.2 583.767C188.953 583.426 189.793 583.256 190.721 583.256C191.659 583.256 192.492 583.424 193.221 583.76C193.95 584.091 194.528 584.546 194.954 585.124C195.385 585.701 195.612 586.357 195.636 587.091H193.931ZM203.248 587.091V588.511H197.594V587.091H203.248ZM199.242 584.477H200.918V594.875C200.918 595.348 200.987 595.704 201.124 595.94C201.266 596.172 201.446 596.329 201.664 596.409C201.886 596.485 202.121 596.523 202.367 596.523C202.552 596.523 202.703 596.513 202.822 596.494C202.94 596.471 203.035 596.452 203.106 596.438L203.447 597.943C203.333 597.986 203.174 598.028 202.971 598.071C202.767 598.118 202.509 598.142 202.197 598.142C201.723 598.142 201.259 598.04 200.804 597.837C200.355 597.633 199.981 597.323 199.682 596.906C199.389 596.49 199.242 595.964 199.242 595.33V584.477ZM205.769 598V587.091H207.445V598H205.769ZM206.621 585.273C206.295 585.273 206.013 585.161 205.776 584.939C205.544 584.716 205.428 584.449 205.428 584.136C205.428 583.824 205.544 583.556 205.776 583.334C206.013 583.111 206.295 583 206.621 583C206.948 583 207.227 583.111 207.459 583.334C207.696 583.556 207.814 583.824 207.814 584.136C207.814 584.449 207.696 584.716 207.459 584.939C207.227 585.161 206.948 585.273 206.621 585.273ZM210.515 602.091V587.091H212.134V588.824H212.333C212.456 588.634 212.627 588.393 212.845 588.099C213.067 587.801 213.384 587.536 213.796 587.304C214.213 587.067 214.776 586.949 215.487 586.949C216.405 586.949 217.215 587.179 217.916 587.638C218.616 588.097 219.163 588.748 219.556 589.591C219.949 590.434 220.146 591.428 220.146 592.574C220.146 593.729 219.949 594.731 219.556 595.578C219.163 596.421 218.619 597.074 217.923 597.538C217.227 597.998 216.424 598.227 215.515 598.227C214.814 598.227 214.253 598.111 213.832 597.879C213.41 597.643 213.086 597.375 212.859 597.077C212.632 596.774 212.456 596.523 212.333 596.324H212.191V602.091H210.515ZM212.163 592.545C212.163 593.369 212.284 594.096 212.525 594.726C212.766 595.351 213.119 595.841 213.583 596.196C214.047 596.546 214.615 596.722 215.288 596.722C215.989 596.722 216.573 596.537 217.042 596.168C217.516 595.794 217.871 595.292 218.107 594.662C218.349 594.027 218.47 593.322 218.47 592.545C218.47 591.778 218.351 591.087 218.114 590.472C217.882 589.851 217.53 589.361 217.056 589.001C216.587 588.637 215.998 588.455 215.288 588.455C214.606 588.455 214.033 588.627 213.569 588.973C213.105 589.314 212.755 589.792 212.518 590.408C212.281 591.018 212.163 591.731 212.163 592.545ZM229.578 593.54V587.091H231.254V598H229.578V596.153H229.464C229.208 596.707 228.811 597.179 228.271 597.567C227.731 597.95 227.049 598.142 226.225 598.142C225.543 598.142 224.937 597.993 224.407 597.695C223.877 597.392 223.46 596.937 223.157 596.331C222.854 595.72 222.703 594.951 222.703 594.023V587.091H224.379V593.909C224.379 594.705 224.601 595.339 225.046 595.812C225.496 596.286 226.069 596.523 226.765 596.523C227.182 596.523 227.605 596.416 228.036 596.203C228.472 595.99 228.837 595.663 229.13 595.223C229.428 594.783 229.578 594.222 229.578 593.54ZM236 583.455V598H234.324V583.455H236ZM243.644 598.227C242.592 598.227 241.686 597.995 240.923 597.531C240.166 597.062 239.581 596.409 239.169 595.571C238.762 594.728 238.558 593.748 238.558 592.631C238.558 591.513 238.762 590.528 239.169 589.676C239.581 588.819 240.154 588.152 240.888 587.673C241.627 587.19 242.488 586.949 243.473 586.949C244.041 586.949 244.602 587.044 245.156 587.233C245.71 587.422 246.215 587.73 246.669 588.156C247.124 588.578 247.486 589.136 247.756 589.832C248.026 590.528 248.161 591.385 248.161 592.403V593.114H239.752V591.665H246.456C246.456 591.049 246.333 590.5 246.087 590.017C245.845 589.534 245.5 589.153 245.05 588.874C244.605 588.594 244.079 588.455 243.473 588.455C242.806 588.455 242.228 588.62 241.74 588.952C241.257 589.278 240.886 589.705 240.625 590.23C240.365 590.756 240.235 591.319 240.235 591.92V592.886C240.235 593.71 240.377 594.409 240.661 594.982C240.949 595.55 241.35 595.983 241.861 596.281C242.372 596.575 242.967 596.722 243.644 596.722C244.084 596.722 244.482 596.66 244.837 596.537C245.197 596.409 245.507 596.22 245.767 595.969C246.028 595.713 246.229 595.396 246.371 595.017L247.99 595.472C247.82 596.021 247.533 596.504 247.131 596.92C246.728 597.332 246.231 597.654 245.639 597.886C245.047 598.114 244.382 598.227 243.644 598.227Z" fill="black"/>
<path d="M114.365 143V108.1H122.615V136.25H139.515V143H114.365ZM159.234 143.6C156.234 143.6 153.651 143.017 151.484 141.85C149.351 140.683 147.701 139.017 146.534 136.85C145.368 134.683 144.784 132.1 144.784 129.1C144.784 126.067 145.368 123.467 146.534 121.3C147.701 119.133 149.384 117.483 151.584 116.35C153.818 115.183 156.501 114.6 159.634 114.6C164.534 114.6 168.084 116 170.284 118.8C172.518 121.567 173.451 125.383 173.084 130.25H150.984L151.034 124.9H165.134C165.034 123.633 164.468 122.617 163.434 121.85C162.401 121.05 161.118 120.65 159.584 120.65C157.184 120.65 155.418 121.4 154.284 122.9C153.151 124.4 152.584 126.583 152.584 129.45C152.584 130.883 152.834 132.2 153.334 133.4C153.834 134.6 154.568 135.567 155.534 136.3C156.534 137 157.768 137.35 159.234 137.35C160.801 137.35 162.118 136.967 163.184 136.2C164.284 135.433 164.951 134.467 165.184 133.3H172.984C172.651 136.467 171.251 138.983 168.784 140.85C166.351 142.683 163.168 143.6 159.234 143.6ZM196.904 143L196.654 138V124.3C196.654 123 196.171 121.983 195.204 121.25C194.237 120.483 192.904 120.1 191.204 120.1C189.571 120.1 188.237 120.45 187.204 121.15C186.204 121.817 185.621 122.767 185.454 124H177.904C178.071 122.033 178.737 120.35 179.904 118.95C181.071 117.55 182.637 116.483 184.604 115.75C186.604 114.983 188.921 114.6 191.554 114.6C194.154 114.6 196.421 115 198.354 115.8C200.287 116.567 201.771 117.717 202.804 119.25C203.871 120.75 204.404 122.6 204.404 124.8V143H196.904ZM188.004 143.6C186.171 143.6 184.554 143.25 183.154 142.55C181.754 141.817 180.671 140.817 179.904 139.55C179.137 138.283 178.754 136.85 178.754 135.25C178.754 132.383 179.854 130.167 182.054 128.6C184.287 127 187.354 126.2 191.254 126.2H197.404V131.6L191.054 131.65C189.621 131.65 188.471 131.917 187.604 132.45C186.771 132.95 186.354 133.717 186.354 134.75C186.354 135.483 186.654 136.117 187.254 136.65C187.887 137.183 188.771 137.45 189.904 137.45C191.471 137.45 192.854 137.067 194.054 136.3C195.287 135.5 196.304 134.417 197.104 133.05L197.954 138.3C197.121 140.133 195.837 141.483 194.104 142.35C192.404 143.183 190.371 143.6 188.004 143.6ZM219.123 143V112.45C219.123 110.483 219.557 108.767 220.423 107.3C221.29 105.8 222.473 104.633 223.973 103.8C225.473 102.933 227.157 102.5 229.023 102.5H237.673V108.8H232.123C231.19 108.8 230.323 108.883 229.523 109.05C228.723 109.217 228.09 109.567 227.623 110.1C227.157 110.6 226.923 111.383 226.923 112.45V143H219.123ZM213.623 121.5V115.2H233.673V121.5H213.623ZM211.173 143V136.7H237.073V143H211.173ZM273.563 143L275.963 108.1H285.963L288.313 123.75L289.163 130.9L290.013 123.75L292.563 108.1H302.212L304.663 143H296.613L296.313 126.6V116.7L294.963 126.6L292.263 143H285.863L283.063 126.6L281.713 116.55L281.763 126.6L281.313 143H273.563ZM321.582 143.6C318.615 143.6 316.065 143.017 313.932 141.85C311.799 140.683 310.149 139.017 308.982 136.85C307.849 134.683 307.282 132.1 307.282 129.1C307.282 126.067 307.849 123.483 308.982 121.35C310.149 119.183 311.799 117.517 313.932 116.35C316.065 115.183 318.615 114.6 321.582 114.6C326.049 114.6 329.532 115.883 332.032 118.45C334.565 121.017 335.832 124.567 335.832 129.1C335.832 132.1 335.265 134.683 334.132 136.85C332.999 139.017 331.365 140.683 329.232 141.85C327.099 143.017 324.549 143.6 321.582 143.6ZM321.582 137.3C323.582 137.3 325.149 136.567 326.282 135.1C327.449 133.633 328.032 131.633 328.032 129.1C328.032 126.533 327.449 124.533 326.282 123.1C325.149 121.633 323.582 120.9 321.582 120.9C319.549 120.9 317.949 121.633 316.782 123.1C315.649 124.533 315.082 126.533 315.082 129.1C315.082 131.633 315.649 133.633 316.782 135.1C317.949 136.567 319.549 137.3 321.582 137.3ZM360.052 129.1V125.35C360.052 124.083 359.718 123.067 359.052 122.3C358.385 121.5 357.385 121.1 356.052 121.1C354.552 121.1 353.135 121.6 351.802 122.6C350.468 123.6 349.202 125.333 348.002 127.8L347.202 121.25C348.068 119.783 349.018 118.567 350.052 117.6C351.085 116.6 352.218 115.85 353.452 115.35C354.718 114.85 356.102 114.6 357.602 114.6C360.568 114.6 363.018 115.517 364.952 117.35C366.885 119.15 367.852 121.817 367.852 125.35V129.1H360.052ZM341.502 143V115.2H349.002L349.302 120.2V143H341.502ZM388.921 114.6C391.354 114.6 393.488 115.25 395.321 116.55C397.188 117.817 398.654 119.55 399.721 121.75C400.788 123.95 401.321 126.4 401.321 129.1C401.321 131.767 400.788 134.2 399.721 136.4C398.654 138.6 397.188 140.35 395.321 141.65C393.488 142.95 391.354 143.6 388.921 143.6C387.321 143.6 385.838 143.317 384.471 142.75C383.104 142.15 381.938 141.35 380.971 140.35V151.9H373.171V115.2H380.721L380.871 117.9C381.838 116.867 383.004 116.067 384.371 115.5C385.771 114.9 387.288 114.6 388.921 114.6ZM386.921 137.2C388.221 137.2 389.354 136.833 390.321 136.1C391.321 135.367 392.104 134.4 392.671 133.2C393.238 131.967 393.521 130.6 393.521 129.1C393.521 127.567 393.238 126.2 392.671 125C392.104 123.767 391.321 122.8 390.321 122.1C389.354 121.367 388.221 121 386.921 121C385.554 121 384.338 121.417 383.271 122.25C382.204 123.083 381.438 124.2 380.971 125.6V132.55C381.438 133.95 382.204 135.083 383.271 135.95C384.338 136.783 385.554 137.2 386.921 137.2ZM424.591 143V125.9C424.591 124.433 424.224 123.267 423.491 122.4C422.757 121.533 421.791 121.1 420.591 121.1C419.224 121.1 417.957 121.567 416.791 122.5C415.657 123.4 414.457 124.967 413.191 127.2L412.091 120.65C413.357 118.45 414.891 116.9 416.691 116C418.491 115.067 420.324 114.6 422.191 114.6C424.324 114.6 426.141 115.05 427.641 115.95C429.174 116.85 430.341 118.117 431.141 119.75C431.974 121.35 432.391 123.233 432.391 125.4V143H424.591ZM406.041 143V105.95H413.841V143H406.041ZM451.66 143.6C448.693 143.6 446.143 143.017 444.01 141.85C441.877 140.683 440.227 139.017 439.06 136.85C437.927 134.683 437.36 132.1 437.36 129.1C437.36 126.067 437.927 123.483 439.06 121.35C440.227 119.183 441.877 117.517 444.01 116.35C446.143 115.183 448.693 114.6 451.66 114.6C456.127 114.6 459.61 115.883 462.11 118.45C464.643 121.017 465.91 124.567 465.91 129.1C465.91 132.1 465.343 134.683 464.21 136.85C463.077 139.017 461.443 140.683 459.31 141.85C457.177 143.017 454.627 143.6 451.66 143.6ZM451.66 137.3C453.66 137.3 455.227 136.567 456.36 135.1C457.527 133.633 458.11 131.633 458.11 129.1C458.11 126.533 457.527 124.533 456.36 123.1C455.227 121.633 453.66 120.9 451.66 120.9C449.627 120.9 448.027 121.633 446.86 123.1C445.727 124.533 445.16 126.533 445.16 129.1C445.16 131.633 445.727 133.633 446.86 135.1C448.027 136.567 449.627 137.3 451.66 137.3ZM480.28 143V106H488.08V143H480.28ZM471.28 143V136.7H497.18V143H471.28ZM474.78 112.3V106H484.18V112.3H474.78ZM516.699 143.6C513.733 143.6 511.183 143.017 509.049 141.85C506.916 140.683 505.266 139.017 504.099 136.85C502.966 134.683 502.399 132.1 502.399 129.1C502.399 126.067 502.966 123.483 504.099 121.35C505.266 119.183 506.916 117.517 509.049 116.35C511.183 115.183 513.733 114.6 516.699 114.6C521.166 114.6 524.649 115.883 527.149 118.45C529.683 121.017 530.949 124.567 530.949 129.1C530.949 132.1 530.383 134.683 529.249 136.85C528.116 139.017 526.483 140.683 524.349 141.85C522.216 143.017 519.666 143.6 516.699 143.6ZM516.699 137.3C518.699 137.3 520.266 136.567 521.399 135.1C522.566 133.633 523.149 131.633 523.149 129.1C523.149 126.533 522.566 124.533 521.399 123.1C520.266 121.633 518.699 120.9 516.699 120.9C514.666 120.9 513.066 121.633 511.899 123.1C510.766 124.533 510.199 126.533 510.199 129.1C510.199 131.633 510.766 133.633 511.899 135.1C513.066 136.567 514.666 137.3 516.699 137.3ZM555.319 118.1L555.469 115.2H562.969V139.3C562.969 143.6 561.802 146.867 559.469 149.1C557.169 151.367 553.552 152.5 548.619 152.5C545.985 152.5 543.702 152.167 541.769 151.5C539.869 150.867 538.385 149.883 537.319 148.55C536.285 147.25 535.752 145.6 535.719 143.6H543.919C544.085 144.533 544.569 145.2 545.369 145.6C546.202 146 547.452 146.2 549.119 146.2C551.185 146.2 552.702 145.65 553.669 144.55C554.669 143.483 555.169 142 555.169 140.1V138.45C554.235 139.55 553.102 140.4 551.769 141C550.469 141.6 549.035 141.9 547.469 141.9C545.135 141.9 543.069 141.3 541.269 140.1C539.469 138.867 538.052 137.217 537.019 135.15C535.985 133.083 535.469 130.817 535.469 128.35C535.469 125.483 536.019 123.033 537.119 121C538.219 118.933 539.719 117.367 541.619 116.3C543.519 115.2 545.635 114.65 547.969 114.65C549.469 114.65 550.852 114.967 552.119 115.6C553.385 116.233 554.452 117.067 555.319 118.1ZM549.469 135.9C550.802 135.9 551.969 135.45 552.969 134.55C554.002 133.65 554.735 132.483 555.169 131.05V125.45C554.735 123.983 554.002 122.817 552.969 121.95C551.969 121.083 550.802 120.65 549.469 120.65C548.269 120.65 547.202 121 546.269 121.7C545.335 122.367 544.602 123.267 544.069 124.4C543.535 125.533 543.269 126.8 543.269 128.2C543.269 129.6 543.535 130.883 544.069 132.05C544.602 133.217 545.335 134.15 546.269 134.85C547.202 135.55 548.269 135.9 549.469 135.9ZM579.188 124.85L581.688 132L584.238 124.85L588.288 115.2H596.238L583.938 144.35C583.105 146.35 582.138 147.933 581.038 149.1C579.972 150.3 578.755 151.167 577.388 151.7C576.022 152.233 574.455 152.5 572.688 152.5H567.538V146.2H571.838C572.772 146.2 573.555 145.983 574.188 145.55C574.855 145.117 575.422 144.533 575.888 143.8C576.388 143.1 576.838 142.3 577.238 141.4L577.738 140.25L567.238 115.2H575.238L579.188 124.85Z" fill="black"/>
<g filter="url(#filter1_d_624_1975)">
<line x1="421.375" y1="221.173" x2="465.388" y2="224.841" stroke="black" stroke-width="4" stroke-linecap="round"/>
</g>
<g filter="url(#filter2_d_624_1975)">
<line x1="380.171" y1="285.957" x2="468.172" y2="284.044" stroke="black" stroke-width="4" stroke-linecap="round"/>
</g>
<g filter="url(#filter3_d_624_1975)">
<line x1="260.059" y1="395.855" x2="468.07" y2="380.156" stroke="black" stroke-width="4" stroke-linecap="round"/>
</g>
<g filter="url(#filter4_d_624_1975)">
<line x1="166.215" y1="539" x2="465.215" y2="539" stroke="black" stroke-width="4" stroke-linecap="round"/>
</g>
<g filter="url(#filter5_d_624_1975)">
<path d="M126.563 580.031C126.755 578.943 127.793 578.217 128.881 578.409L175.941 586.713C177.029 586.905 177.755 587.943 177.563 589.031C177.456 589.635 177.088 590.126 176.595 590.412C176.335 590.917 175.864 591.31 175.266 591.447L35.1647 623.553C34.0882 623.8 33.0159 623.127 32.7692 622.05C32.5226 620.974 33.1955 619.902 34.2721 619.655L167.099 589.214L128.185 582.347C127.098 582.155 126.371 581.118 126.563 580.031Z" fill="black"/>
</g>
<g filter="url(#filter6_d_624_1975)">
<line x1="88.0354" y1="586.217" x2="151.432" y2="660.18" stroke="black" stroke-width="4" stroke-linecap="round"/>
</g>
<path d="M541.215 548H547.25C550.011 548 552.25 545.761 552.25 543V381.5M541.215 215H547.25C550.011 215 552.25 217.239 552.25 220V381.5M552.25 381.5H561.215" stroke="black" stroke-width="3" stroke-linecap="round"/>
<g clip-path="url(#clip0_624_1975)">
<path d="M766.215 10H651.215V125H766.215V10Z" fill="#0077CC"/>
<path d="M714.979 26.1C718.155 26.1 720.729 28.6744 720.729 31.85V64.6867L741.182 100.592C743.365 104.425 740.597 109.187 736.186 109.187H682.273C677.861 109.187 675.093 104.425 677.276 100.592L697.729 64.6867V31.85C697.729 28.6744 700.303 26.1001 703.479 26.1H714.979Z" fill="#0077CC"/>
<path d="M720.729 64.6867H717.854V65.4481L718.231 66.1097L720.729 64.6867ZM697.729 64.6867L700.227 66.1097L700.604 65.4481V64.6867H697.729ZM714.979 26.1V28.975C716.567 28.975 717.854 30.2622 717.854 31.85H720.729H723.604C723.604 27.0866 719.742 23.225 714.979 23.225V26.1ZM720.729 31.85H717.854V64.6867H720.729H723.604V31.85H720.729ZM720.729 64.6867L718.231 66.1097L738.684 102.015L741.182 100.592L743.68 99.1688L723.227 63.2637L720.729 64.6867ZM741.182 100.592L738.684 102.015C739.775 103.931 738.391 106.312 736.185 106.312V109.187V112.062C742.803 112.062 746.955 104.919 743.68 99.1688L741.182 100.592ZM736.185 109.187V106.312H682.272V109.187L682.272 112.062H736.185V109.187ZM682.272 109.187V106.312C680.067 106.312 678.683 103.931 679.774 102.014L677.276 100.592L674.778 99.1687C671.503 104.918 675.656 112.062 682.272 112.062L682.272 109.187ZM677.276 100.592L679.774 102.014L700.227 66.1097L697.729 64.6867L695.231 63.2637L674.778 99.1687L677.276 100.592ZM697.729 64.6867H700.604V31.85H697.729H694.854V64.6867H697.729ZM697.729 31.85H700.604C700.604 30.2623 701.891 28.975 703.479 28.975L703.479 26.1V23.225C698.716 23.2251 694.854 27.0864 694.854 31.85H697.729ZM703.479 26.1L703.479 28.975H714.979V26.1V23.225H703.479V26.1Z" fill="white"/>
<path d="M718.147 66.9256C718.338 66.9256 718.527 66.9373 718.714 66.956L738.686 102.015C739.777 103.932 738.392 106.313 736.187 106.313H682.274C680.069 106.313 678.684 103.932 679.776 102.015L699.764 66.9256H718.147Z" fill="white"/>
<mask id="mask0_624_1975" style="mask-type:luminance" maskUnits="userSpaceOnUse" x="679" y="66" width="61" height="41">
<path d="M718.147 66.9256C718.338 66.9256 718.527 66.9373 718.714 66.956L738.686 102.015C739.777 103.932 738.392 106.313 736.187 106.313H682.274C680.069 106.313 678.684 103.932 679.776 102.015L699.764 66.9256H718.147Z" fill="white"/>
</mask>
<g mask="url(#mask0_624_1975)">
<path d="M718.715 66.956L721.712 65.2483L720.829 63.6982L719.054 63.5226L718.715 66.956ZM699.764 66.9256V63.4756H697.759L696.766 65.218L699.764 66.9256ZM718.147 66.9256V70.3756C718.197 70.3756 718.27 70.3787 718.375 70.3892L718.715 66.956L719.054 63.5226C718.785 63.4961 718.479 63.4756 718.147 63.4756V66.9256ZM718.715 66.956L715.717 68.6636L735.688 103.723L738.686 102.015L741.684 100.308L721.712 65.2483L718.715 66.956ZM738.686 102.015L735.688 103.723C735.469 103.339 735.746 102.863 736.186 102.863L736.187 106.313V109.763C741.038 109.763 744.085 104.525 741.684 100.308L738.686 102.015ZM736.187 106.313L736.186 102.863H682.274V106.313L682.273 109.763H736.187V106.313ZM682.274 106.313V102.863C682.715 102.863 682.992 103.339 682.774 103.723L679.776 102.015L676.778 100.308C674.376 104.524 677.422 109.762 682.273 109.763L682.274 106.313ZM679.776 102.015L682.774 103.723L702.762 68.6332L699.764 66.9256L696.766 65.218L676.778 100.308L679.776 102.015ZM699.764 66.9256V70.3756H718.147V66.9256V63.4756H699.764V66.9256Z" fill="#0077CC"/>
</g>
</g>
<path d="M229.29 45V23.8875H221.64V18.825H243.127V23.8875H235.477V45H229.29ZM260.879 45V32.175C260.879 31.075 260.604 30.2 260.054 29.55C259.504 28.9 258.779 28.575 257.879 28.575C256.854 28.575 255.904 28.925 255.029 29.625C254.179 30.3 253.279 31.475 252.329 33.15L251.504 28.2375C252.454 26.5875 253.604 25.425 254.954 24.75C256.304 24.05 257.679 23.7 259.079 23.7C260.679 23.7 262.042 24.0375 263.167 24.7125C264.317 25.3875 265.192 26.3375 265.792 27.5625C266.417 28.7625 266.729 30.175 266.729 31.8V45H260.879ZM246.967 45V17.2125H252.817V45H246.967ZM281.369 45.45C279.119 45.45 277.182 45.0125 275.557 44.1375C273.957 43.2625 272.719 42.0125 271.844 40.3875C270.969 38.7625 270.532 36.825 270.532 34.575C270.532 32.3 270.969 30.35 271.844 28.725C272.719 27.1 273.982 25.8625 275.632 25.0125C277.307 24.1375 279.319 23.7 281.669 23.7C285.344 23.7 288.007 24.75 289.657 26.85C291.332 28.925 292.032 31.7875 291.757 35.4375H275.182L275.219 31.425H285.794C285.719 30.475 285.294 29.7125 284.519 29.1375C283.744 28.5375 282.782 28.2375 281.632 28.2375C279.832 28.2375 278.507 28.8 277.657 29.925C276.807 31.05 276.382 32.6875 276.382 34.8375C276.382 35.9125 276.569 36.9 276.944 37.8C277.319 38.7 277.869 39.425 278.594 39.975C279.344 40.5 280.269 40.7625 281.369 40.7625C282.544 40.7625 283.532 40.475 284.332 39.9C285.157 39.325 285.657 38.6 285.832 37.725H291.682C291.432 40.1 290.382 41.9875 288.532 43.3875C286.707 44.7625 284.319 45.45 281.369 45.45ZM330.111 45.45C327.961 45.45 326.111 45.05 324.561 44.25C323.036 43.425 321.861 42.275 321.036 40.8C320.236 39.3 319.836 37.5375 319.836 35.5125H325.911C325.911 37.0875 326.248 38.3 326.923 39.15C327.623 39.975 328.686 40.3875 330.111 40.3875C331.236 40.3875 332.123 40.15 332.773 39.675C333.448 39.175 333.786 38.475 333.786 37.575C333.786 36.9 333.536 36.375 333.036 36C332.561 35.6 331.911 35.275 331.086 35.025C330.286 34.75 329.398 34.5 328.423 34.275C327.473 34.025 326.511 33.725 325.536 33.375C324.586 33.025 323.698 32.5625 322.873 31.9875C322.073 31.4125 321.423 30.6625 320.923 29.7375C320.448 28.8125 320.211 27.6375 320.211 26.2125C320.211 24.7375 320.611 23.4125 321.411 22.2375C322.236 21.0625 323.373 20.125 324.823 19.425C326.273 18.725 327.973 18.375 329.923 18.375C331.698 18.375 333.348 18.725 334.873 19.425C336.398 20.1 337.636 21.0875 338.586 22.3875C339.536 23.6875 340.036 25.2875 340.086 27.1875H333.898C333.848 26.3375 333.623 25.6375 333.223 25.0875C332.848 24.5375 332.361 24.125 331.761 23.85C331.186 23.575 330.573 23.4375 329.923 23.4375C328.998 23.4375 328.211 23.6625 327.561 24.1125C326.911 24.5375 326.586 25.175 326.586 26.025C326.586 26.675 326.823 27.1875 327.298 27.5625C327.798 27.9375 328.448 28.25 329.248 28.5C330.073 28.725 330.961 28.95 331.911 29.175C332.886 29.4 333.848 29.6875 334.798 30.0375C335.773 30.3625 336.661 30.825 337.461 31.425C338.286 32.025 338.936 32.825 339.411 33.825C339.911 34.8 340.161 36.05 340.161 37.575C340.161 39.1 339.723 40.4625 338.848 41.6625C337.998 42.8375 336.811 43.7625 335.286 44.4375C333.786 45.1125 332.061 45.45 330.111 45.45ZM354.651 45.45C352.451 45.45 350.551 45.0125 348.951 44.1375C347.376 43.2625 346.163 42.0125 345.313 40.3875C344.488 38.7625 344.076 36.825 344.076 34.575C344.076 32.275 344.513 30.3125 345.388 28.6875C346.288 27.0625 347.538 25.825 349.138 24.975C350.738 24.125 352.626 23.7 354.801 23.7C356.701 23.7 358.376 24.0375 359.826 24.7125C361.301 25.3875 362.463 26.3375 363.313 27.5625C364.188 28.7625 364.663 30.2 364.738 31.875H358.888C358.688 30.725 358.238 29.875 357.538 29.325C356.863 28.75 355.951 28.4625 354.801 28.4625C353.851 28.4625 353.001 28.7 352.251 29.175C351.526 29.65 350.951 30.3375 350.526 31.2375C350.126 32.1375 349.926 33.25 349.926 34.575C349.926 36.55 350.376 38.075 351.276 39.15C352.201 40.225 353.326 40.7625 354.651 40.7625C355.426 40.7625 356.101 40.625 356.676 40.35C357.276 40.075 357.776 39.6875 358.176 39.1875C358.576 38.6625 358.851 38.075 359.001 37.425H364.851C364.701 39.05 364.176 40.4625 363.276 41.6625C362.376 42.8625 361.188 43.8 359.713 44.475C358.238 45.125 356.551 45.45 354.651 45.45ZM375.815 45V24.15H381.665V45H375.815ZM369.065 45V40.275H388.49V45H369.065ZM371.69 28.875V24.15H378.74V28.875H371.69ZM375.59 21.375V15.9H381.815V21.375H375.59ZM403.317 45.45C401.067 45.45 399.13 45.0125 397.505 44.1375C395.905 43.2625 394.667 42.0125 393.792 40.3875C392.917 38.7625 392.48 36.825 392.48 34.575C392.48 32.3 392.917 30.35 393.792 28.725C394.667 27.1 395.93 25.8625 397.58 25.0125C399.255 24.1375 401.267 23.7 403.617 23.7C407.292 23.7 409.955 24.75 411.605 26.85C413.28 28.925 413.98 31.7875 413.705 35.4375H397.13L397.167 31.425H407.742C407.667 30.475 407.242 29.7125 406.467 29.1375C405.692 28.5375 404.73 28.2375 403.58 28.2375C401.78 28.2375 400.455 28.8 399.605 29.925C398.755 31.05 398.33 32.6875 398.33 34.8375C398.33 35.9125 398.517 36.9 398.892 37.8C399.267 38.7 399.817 39.425 400.542 39.975C401.292 40.5 402.217 40.7625 403.317 40.7625C404.492 40.7625 405.48 40.475 406.28 39.9C407.105 39.325 407.605 38.6 407.78 37.725H413.63C413.38 40.1 412.33 41.9875 410.48 43.3875C408.655 44.7625 406.267 45.45 403.317 45.45ZM431.607 45V32.1375C431.607 31.0625 431.332 30.2 430.782 29.55C430.232 28.9 429.507 28.575 428.607 28.575C427.582 28.575 426.632 28.925 425.757 29.625C424.907 30.3 424.007 31.475 423.057 33.15L422.232 28.2C423.182 26.575 424.332 25.425 425.682 24.75C427.032 24.05 428.407 23.7 429.807 23.7C431.407 23.7 432.77 24.0375 433.895 24.7125C435.045 25.3875 435.92 26.325 436.52 27.525C437.145 28.725 437.457 30.1375 437.457 31.7625V45H431.607ZM417.695 45V24.15H423.357L423.545 27.8625V45H417.695ZM452.209 45.45C450.009 45.45 448.109 45.0125 446.509 44.1375C444.934 43.2625 443.722 42.0125 442.872 40.3875C442.047 38.7625 441.634 36.825 441.634 34.575C441.634 32.275 442.072 30.3125 442.947 28.6875C443.847 27.0625 445.097 25.825 446.697 24.975C448.297 24.125 450.184 23.7 452.359 23.7C454.259 23.7 455.934 24.0375 457.384 24.7125C458.859 25.3875 460.022 26.3375 460.872 27.5625C461.747 28.7625 462.222 30.2 462.297 31.875H456.447C456.247 30.725 455.797 29.875 455.097 29.325C454.422 28.75 453.509 28.4625 452.359 28.4625C451.409 28.4625 450.559 28.7 449.809 29.175C449.084 29.65 448.509 30.3375 448.084 31.2375C447.684 32.1375 447.484 33.25 447.484 34.575C447.484 36.55 447.934 38.075 448.834 39.15C449.759 40.225 450.884 40.7625 452.209 40.7625C452.984 40.7625 453.659 40.625 454.234 40.35C454.834 40.075 455.334 39.6875 455.734 39.1875C456.134 38.6625 456.409 38.075 456.559 37.425H462.409C462.259 39.05 461.734 40.4625 460.834 41.6625C459.934 42.8625 458.747 43.8 457.272 44.475C455.797 45.125 454.109 45.45 452.209 45.45ZM476.486 45.45C474.236 45.45 472.299 45.0125 470.674 44.1375C469.074 43.2625 467.836 42.0125 466.961 40.3875C466.086 38.7625 465.649 36.825 465.649 34.575C465.649 32.3 466.086 30.35 466.961 28.725C467.836 27.1 469.099 25.8625 470.749 25.0125C472.424 24.1375 474.436 23.7 476.786 23.7C480.461 23.7 483.124 24.75 484.774 26.85C486.449 28.925 487.149 31.7875 486.874 35.4375H470.299L470.336 31.425H480.911C480.836 30.475 480.411 29.7125 479.636 29.1375C478.861 28.5375 477.899 28.2375 476.749 28.2375C474.949 28.2375 473.624 28.8 472.774 29.925C471.924 31.05 471.499 32.6875 471.499 34.8375C471.499 35.9125 471.686 36.9 472.061 37.8C472.436 38.7 472.986 39.425 473.711 39.975C474.461 40.5 475.386 40.7625 476.486 40.7625C477.661 40.7625 478.649 40.475 479.449 39.9C480.274 39.325 480.774 38.6 480.949 37.725H486.799C486.549 40.1 485.499 41.9875 483.649 43.3875C481.824 44.7625 479.436 45.45 476.486 45.45ZM519.566 36.7875V31.725H525.528C526.728 31.725 527.691 31.3625 528.416 30.6375C529.141 29.8875 529.503 28.9125 529.503 27.7125C529.503 26.5625 529.141 25.6375 528.416 24.9375C527.691 24.2375 526.728 23.8875 525.528 23.8875H519.566V18.825H525.566C527.641 18.825 529.453 19.1875 531.003 19.9125C532.553 20.6375 533.753 21.675 534.603 23.025C535.453 24.35 535.878 25.9125 535.878 27.7125C535.878 29.5375 535.453 31.1375 534.603 32.5125C533.753 33.8625 532.553 34.9125 531.003 35.6625C529.478 36.4125 527.666 36.7875 525.566 36.7875H519.566ZM515.141 45V18.825H521.328V45H515.141ZM553.93 34.575V31.7625C553.93 30.8125 553.68 30.05 553.18 29.475C552.68 28.875 551.93 28.575 550.93 28.575C549.805 28.575 548.743 28.95 547.743 29.7C546.743 30.45 545.793 31.75 544.893 33.6L544.293 28.6875C544.943 27.5875 545.655 26.675 546.43 25.95C547.205 25.2 548.055 24.6375 548.98 24.2625C549.93 23.8875 550.968 23.7 552.093 23.7C554.318 23.7 556.155 24.3875 557.605 25.7625C559.055 27.1125 559.78 29.1125 559.78 31.7625V34.575H553.93ZM540.018 45V24.15H545.643L545.868 27.9V45H540.018ZM574.045 45.45C571.795 45.45 569.857 45.0125 568.232 44.1375C566.632 43.2625 565.395 42.0125 564.52 40.3875C563.645 38.7625 563.207 36.825 563.207 34.575C563.207 32.3 563.645 30.35 564.52 28.725C565.395 27.1 566.657 25.8625 568.307 25.0125C569.982 24.1375 571.995 23.7 574.345 23.7C578.02 23.7 580.682 24.75 582.332 26.85C584.007 28.925 584.707 31.7875 584.432 35.4375H567.857L567.895 31.425H578.47C578.395 30.475 577.97 29.7125 577.195 29.1375C576.42 28.5375 575.457 28.2375 574.307 28.2375C572.507 28.2375 571.182 28.8 570.332 29.925C569.482 31.05 569.057 32.6875 569.057 34.8375C569.057 35.9125 569.245 36.9 569.62 37.8C569.995 38.7 570.545 39.425 571.27 39.975C572.02 40.5 572.945 40.7625 574.045 40.7625C575.22 40.7625 576.207 40.475 577.007 39.9C577.832 39.325 578.332 38.6 578.507 37.725H584.357C584.107 40.1 583.057 41.9875 581.207 43.3875C579.382 44.7625 576.995 45.45 574.045 45.45ZM598.772 45.45C596.822 45.45 595.11 45.1375 593.635 44.5125C592.16 43.8625 591.01 42.95 590.185 41.775C589.385 40.575 588.972 39.1625 588.947 37.5375H594.385C594.335 38.6875 594.697 39.5875 595.472 40.2375C596.272 40.8875 597.36 41.2125 598.735 41.2125C599.735 41.2125 600.535 41.05 601.135 40.725C601.76 40.375 602.072 39.9 602.072 39.3C602.072 38.775 601.835 38.3625 601.36 38.0625C600.91 37.7375 600.31 37.4875 599.56 37.3125C598.81 37.1125 597.985 36.925 597.085 36.75C596.185 36.55 595.272 36.3125 594.347 36.0375C593.447 35.7625 592.622 35.4 591.872 34.95C591.122 34.475 590.51 33.8625 590.035 33.1125C589.585 32.3375 589.36 31.375 589.36 30.225C589.36 28.9 589.735 27.75 590.485 26.775C591.235 25.8 592.272 25.05 593.597 24.525C594.947 23.975 596.497 23.7 598.247 23.7C600.922 23.7 603.085 24.325 604.735 25.575C606.41 26.8 607.335 28.525 607.51 30.75H602.11C602.06 29.825 601.685 29.125 600.985 28.65C600.285 28.175 599.385 27.9375 598.285 27.9375C597.36 27.9375 596.622 28.1 596.072 28.425C595.522 28.75 595.247 29.2375 595.247 29.8875C595.247 30.4125 595.472 30.825 595.922 31.125C596.397 31.4 597.01 31.625 597.76 31.8C598.51 31.975 599.335 32.1375 600.235 32.2875C601.16 32.4375 602.072 32.65 602.972 32.925C603.872 33.175 604.697 33.525 605.447 33.975C606.197 34.425 606.797 35.025 607.247 35.775C607.722 36.525 607.96 37.4875 607.96 38.6625C607.96 40.7875 607.122 42.45 605.447 43.65C603.797 44.85 601.572 45.45 598.772 45.45ZM623.162 45.45C621.212 45.45 619.499 45.1375 618.024 44.5125C616.549 43.8625 615.399 42.95 614.574 41.775C613.774 40.575 613.362 39.1625 613.337 37.5375H618.774C618.724 38.6875 619.087 39.5875 619.862 40.2375C620.662 40.8875 621.749 41.2125 623.124 41.2125C624.124 41.2125 624.924 41.05 625.524 40.725C626.149 40.375 626.462 39.9 626.462 39.3C626.462 38.775 626.224 38.3625 625.749 38.0625C625.299 37.7375 624.699 37.4875 623.949 37.3125C623.199 37.1125 622.374 36.925 621.474 36.75C620.574 36.55 619.662 36.3125 618.737 36.0375C617.837 35.7625 617.012 35.4 616.262 34.95C615.512 34.475 614.899 33.8625 614.424 33.1125C613.974 32.3375 613.749 31.375 613.749 30.225C613.749 28.9 614.124 27.75 614.874 26.775C615.624 25.8 616.662 25.05 617.987 24.525C619.337 23.975 620.887 23.7 622.637 23.7C625.312 23.7 627.474 24.325 629.124 25.575C630.799 26.8 631.724 28.525 631.899 30.75H626.499C626.449 29.825 626.074 29.125 625.374 28.65C624.674 28.175 623.774 27.9375 622.674 27.9375C621.749 27.9375 621.012 28.1 620.462 28.425C619.912 28.75 619.637 29.2375 619.637 29.8875C619.637 30.4125 619.862 30.825 620.312 31.125C620.787 31.4 621.399 31.625 622.149 31.8C622.899 31.975 623.724 32.1375 624.624 32.2875C625.549 32.4375 626.462 32.65 627.362 32.925C628.262 33.175 629.087 33.525 629.837 33.975C630.587 34.425 631.187 35.025 631.637 35.775C632.112 36.525 632.349 37.4875 632.349 38.6625C632.349 40.7875 631.512 42.45 629.837 43.65C628.187 44.85 625.962 45.45 623.162 45.45Z" fill="#0077CC"/>
<defs>
<filter id="filter0_n_624_1975" x="91.1226" y="214.938" width="334.667" height="346.805" filterUnits="userSpaceOnUse" color-interpolation-filters="sRGB">
<feFlood flood-opacity="0" result="BackgroundImageFix"/>
<feBlend mode="normal" in="SourceGraphic" in2="BackgroundImageFix" result="shape"/>
<feTurbulence type="fractalNoise" baseFrequency="0.011507479473948479 0.011507479473948479" stitchTiles="stitch" numOctaves="3" result="noise" seed="432" />
<feColorMatrix in="noise" type="luminanceToAlpha" result="alphaNoise" />
<feComponentTransfer in="alphaNoise" result="coloredNoise1">
<feFuncA type="discrete" tableValues="0 0 0 0 0 1 1 1 1 1 1 1 1 1 1 1 1 1 1 1 1 1 1 1 1 1 1 1 1 1 1 1 1 1 1 1 1 1 1 1 1 1 1 1 1 0 0 0 0 0 0 0 0 0 0 0 0 0 0 0 0 0 0 0 0 0 0 0 0 0 0 0 0 0 0 0 0 0 0 0 0 0 0 0 0 0 0 0 0 0 0 0 0 0 0 0 0 0 0 0 "/>
</feComponentTransfer>
<feComposite operator="in" in2="shape" in="coloredNoise1" result="noise1Clipped" />
<feComponentTransfer in="alphaNoise" result="coloredNoise2">
<feFuncA type="discrete" tableValues="0 0 0 0 0 0 0 0 0 0 0 0 0 0 0 0 0 0 0 0 0 0 0 0 0 0 0 0 0 0 0 0 0 0 0 0 0 0 0 0 0 0 0 0 0 0 0 0 0 0 0 0 0 0 0 1 1 1 1 1 1 1 1 1 1 1 1 1 1 1 1 1 1 1 1 1 1 1 1 1 1 1 1 1 1 1 1 1 1 1 1 1 1 1 1 0 0 0 0 0 "/>
</feComponentTransfer>
<feComposite operator="in" in2="shape" in="coloredNoise2" result="noise2Clipped" />
<feFlood flood-color="rgba(21, 189, 133, 0.1)" result="color1Flood" />
<feComposite operator="in" in2="noise1Clipped" in="color1Flood" result="color1" />
<feFlood flood-color="rgba(41, 159, 107, 0.1)" result="color2Flood" />
<feComposite operator="in" in2="noise2Clipped" in="color2Flood" result="color2" />
<feMerge result="effect1_noise_624_1975">
<feMergeNode in="shape" />
<feMergeNode in="color1" />
<feMergeNode in="color2" />
</feMerge>
</filter>
<filter id="filter1_d_624_1975" x="415.375" y="215.173" width="56.0142" height="15.6681" filterUnits="userSpaceOnUse" color-interpolation-filters="sRGB">
<feFlood flood-opacity="0" result="BackgroundImageFix"/>
<feColorMatrix in="SourceAlpha" type="matrix" values="0 0 0 0 0 0 0 0 0 0 0 0 0 0 0 0 0 0 127 0" result="hardAlpha"/>
<feOffset/>
<feGaussianBlur stdDeviation="2"/>
<feComposite in2="hardAlpha" operator="out"/>
<feColorMatrix type="matrix" values="0 0 0 0 1 0 0 0 0 1 0 0 0 0 1 0 0 0 1 0"/>
<feBlend mode="normal" in2="BackgroundImageFix" result="effect1_dropShadow_624_1975"/>
<feBlend mode="normal" in="SourceGraphic" in2="effect1_dropShadow_624_1975" result="shape"/>
</filter>
<filter id="filter2_d_624_1975" x="374.171" y="278.044" width="100.001" height="13.9131" filterUnits="userSpaceOnUse" color-interpolation-filters="sRGB">
<feFlood flood-opacity="0" result="BackgroundImageFix"/>
<feColorMatrix in="SourceAlpha" type="matrix" values="0 0 0 0 0 0 0 0 0 0 0 0 0 0 0 0 0 0 127 0" result="hardAlpha"/>
<feOffset/>
<feGaussianBlur stdDeviation="2"/>
<feComposite in2="hardAlpha" operator="out"/>
<feColorMatrix type="matrix" values="0 0 0 0 1 0 0 0 0 1 0 0 0 0 1 0 0 0 1 0"/>
<feBlend mode="normal" in2="BackgroundImageFix" result="effect1_dropShadow_624_1975"/>
<feBlend mode="normal" in="SourceGraphic" in2="effect1_dropShadow_624_1975" result="shape"/>
</filter>
<filter id="filter3_d_624_1975" x="254.059" y="374.156" width="220.012" height="27.6992" filterUnits="userSpaceOnUse" color-interpolation-filters="sRGB">
<feFlood flood-opacity="0" result="BackgroundImageFix"/>
<feColorMatrix in="SourceAlpha" type="matrix" values="0 0 0 0 0 0 0 0 0 0 0 0 0 0 0 0 0 0 127 0" result="hardAlpha"/>
<feOffset/>
<feGaussianBlur stdDeviation="2"/>
<feComposite in2="hardAlpha" operator="out"/>
<feColorMatrix type="matrix" values="0 0 0 0 1 0 0 0 0 1 0 0 0 0 1 0 0 0 1 0"/>
<feBlend mode="normal" in2="BackgroundImageFix" result="effect1_dropShadow_624_1975"/>
<feBlend mode="normal" in="SourceGraphic" in2="effect1_dropShadow_624_1975" result="shape"/>
</filter>
<filter id="filter4_d_624_1975" x="160.215" y="533" width="311" height="12" filterUnits="userSpaceOnUse" color-interpolation-filters="sRGB">
<feFlood flood-opacity="0" result="BackgroundImageFix"/>
<feColorMatrix in="SourceAlpha" type="matrix" values="0 0 0 0 0 0 0 0 0 0 0 0 0 0 0 0 0 0 127 0" result="hardAlpha"/>
<feOffset/>
<feGaussianBlur stdDeviation="2"/>
<feComposite in2="hardAlpha" operator="out"/>
<feColorMatrix type="matrix" values="0 0 0 0 1 0 0 0 0 1 0 0 0 0 1 0 0 0 1 0"/>
<feBlend mode="normal" in2="BackgroundImageFix" result="effect1_dropShadow_624_1975"/>
<feBlend mode="normal" in="SourceGraphic" in2="effect1_dropShadow_624_1975" result="shape"/>
</filter>
<filter id="filter5_d_624_1975" x="28.7183" y="574.378" width="152.875" height="53.2261" filterUnits="userSpaceOnUse" color-interpolation-filters="sRGB">
<feFlood flood-opacity="0" result="BackgroundImageFix"/>
<feColorMatrix in="SourceAlpha" type="matrix" values="0 0 0 0 0 0 0 0 0 0 0 0 0 0 0 0 0 0 127 0" result="hardAlpha"/>
<feOffset/>
<feGaussianBlur stdDeviation="2"/>
<feComposite in2="hardAlpha" operator="out"/>
<feColorMatrix type="matrix" values="0 0 0 0 1 0 0 0 0 1 0 0 0 0 1 0 0 0 1 0"/>
<feBlend mode="normal" in2="BackgroundImageFix" result="effect1_dropShadow_624_1975"/>
<feBlend mode="normal" in="SourceGraphic" in2="effect1_dropShadow_624_1975" result="shape"/>
</filter>
<filter id="filter6_d_624_1975" x="82.0352" y="580.217" width="75.397" height="85.963" filterUnits="userSpaceOnUse" color-interpolation-filters="sRGB">
<feFlood flood-opacity="0" result="BackgroundImageFix"/>
<feColorMatrix in="SourceAlpha" type="matrix" values="0 0 0 0 0 0 0 0 0 0 0 0 0 0 0 0 0 0 127 0" result="hardAlpha"/>
<feOffset/>
<feGaussianBlur stdDeviation="2"/>
<feComposite in2="hardAlpha" operator="out"/>
<feColorMatrix type="matrix" values="0 0 0 0 1 0 0 0 0 1 0 0 0 0 1 0 0 0 1 0"/>
<feBlend mode="normal" in2="BackgroundImageFix" result="effect1_dropShadow_624_1975"/>
<feBlend mode="normal" in="SourceGraphic" in2="effect1_dropShadow_624_1975" result="shape"/>
</filter>
<linearGradient id="paint0_linear_624_1975" x1="129.215" y1="535" x2="426.215" y2="215" gradientUnits="userSpaceOnUse">
<stop stop-color="#A4DF20"/>
<stop offset="1" stop-color="#98BF40"/>
</linearGradient>
<clipPath id="clip0_624_1975">
<rect width="115" height="115" fill="white" transform="translate(651.215 10)"/>
</clipPath>
</defs>
</svg>
