<svg width="727" height="674" viewBox="0 0 727 674" fill="none" xmlns="http://www.w3.org/2000/svg">
<rect x="5" y="5" width="717" height="664" fill="white" stroke="white" stroke-width="10"/>
<g filter="url(#filter0_n_624_1975)">
<path d="M291.715 209C341.582 197.518 420.715 186 420.715 186C420.715 186 423.106 185.677 424.215 186.5C425.267 187.281 425.715 189.5 425.715 189.5C425.715 189.5 425.882 199.559 425.715 206C425.313 221.481 423.757 230.091 422.215 245.5C419.317 274.467 417.617 290.723 413.215 319.5C409.104 346.38 406.858 361.51 400.715 388C395.546 410.288 393.05 423.003 385.215 444.5C380.869 456.425 378.667 463.29 372.715 474.5C368.852 481.776 366.595 485.863 361.715 492.5C357.45 498.302 355.068 501.683 349.715 506.5C342.992 512.551 338.242 514.829 330.215 519C323.071 522.713 318.874 524.519 311.215 527C293.635 532.695 282.683 531.819 264.215 532.5C242.914 533.286 230.868 532.133 209.715 529.5C179.114 525.692 132.715 512 132.715 512L121.715 502C121.715 502 109.884 470.047 104.215 449C98.8667 429.142 95.4976 417.939 93.2152 397.5C90.6581 374.602 90.2013 361.343 93.2152 338.5C94.4626 329.046 94.8853 323.606 97.7152 314.5C100.569 305.318 102.667 300.184 107.715 292C112.022 285.018 114.906 281.292 120.715 275.5C130.917 265.327 139.146 262.542 151.715 255.5C174.62 242.667 188.906 238.093 213.715 229.5C243.476 219.193 261.023 216.067 291.715 209Z" fill="url(#paint0_linear_624_1975)"/>
</g>
<path d="M159.479 535.182H163.902C163.835 535.385 163.649 535.978 163.582 536.178C163.45 536.573 163.25 536.972 162.986 537.368C162.456 538.163 161.823 538.898 161.432 539.749C161.067 540.544 160.551 541.445 159.842 542.231C158.619 543.588 157.822 544.638 156.701 545.869C155.706 546.961 154.764 547.878 153.99 548.446C153.13 549.076 151.571 550.44 150.053 551.622C147.344 553.731 143.494 556.804 142.513 557.475C141.356 558.267 139.37 559.465 137.818 560.384C136.923 560.914 135.858 561.556 134.609 562.204C132.879 563.101 130.655 564.05 129.65 564.517C128.72 564.95 127.735 565.665 126.307 566.072C125.615 566.269 122.664 567.49 117.378 568.759C112.299 569.978 109.491 570.698 108.814 570.867C108.154 571.032 104.717 571.295 100.036 571.063C98.0342 570.964 97.4757 570.99 96.8049 570.73C93.9883 569.637 92.1395 569.16 91.0229 568.913C89.8254 568.649 88.3076 568.213 87.3183 567.954C85.9244 567.589 84.4658 567.086 83.6157 566.731C82.8211 566.398 81.8725 566.08 80.8031 565.705C79.5788 565.275 76.954 565.412 77.2364 564.481C77.3366 564.15 77.6603 563.741 78.0658 563.389C78.7931 562.759 79.4538 562.101 80.2485 561.571C81.0432 561.041 81.9609 560.238 82.828 559.587C83.6227 558.989 84.9339 557.65 86.0028 556.809C86.9324 556.076 87.9757 555.14 88.8144 554.592C89.7738 553.965 91.172 553.181 92.386 552.675C93.7502 552.108 95.5646 551.126 98.6384 549.716C100.691 548.774 104.358 547.137 106.427 546.15C108.497 545.163 108.936 544.802 109.319 544.605C110.41 544.044 111.787 543.235 113.593 542.352C116.628 540.869 118.386 540.324 121.724 539.214C123.311 538.687 124.816 538.429 126.856 537.558C130.252 536.107 130.995 535.551 136.336 535.148C138.507 534.984 141.322 534.984 142.932 535.018C144.543 535.052 144.935 535.117 147.999 535.15C151.063 535.182 156.629 535.182 159.479 535.182Z" fill="#96D62A"/>
<path d="M56.3603 631.341L56.9353 635.727C56.7259 635.686 56.1134 635.579 55.9071 635.539C55.4974 635.46 55.0759 635.313 54.6491 635.102C53.7923 634.68 52.9812 634.149 52.0863 633.872C51.2509 633.613 50.2902 633.218 49.4183 632.617C47.9146 631.581 46.7692 630.927 45.4038 629.976C44.1914 629.131 43.1596 628.317 42.4957 627.622C41.7593 626.852 40.2047 625.483 38.8351 624.132C36.3917 621.721 32.8444 618.302 32.0511 617.417C31.1158 616.373 29.6694 614.559 28.5567 613.14C27.9151 612.321 27.1402 611.349 26.3354 610.194C25.2213 608.596 23.991 606.514 23.3968 605.578C22.8471 604.713 22.0099 603.829 21.4209 602.466C21.1351 601.805 19.5412 599.038 17.5963 593.962C15.727 589.084 14.6485 586.394 14.3926 585.744C14.1435 585.111 13.4353 581.738 13.0568 577.067C12.895 575.069 12.7964 574.519 12.9673 573.82C13.6852 570.885 13.9171 568.99 14.0168 567.851C14.1238 566.629 14.3582 565.067 14.4865 564.053C14.6673 562.623 14.9761 561.112 15.2181 560.223C15.4444 559.391 15.6366 558.41 15.8696 557.3C16.1364 556.031 15.66 553.446 16.6199 553.605C16.9605 553.661 17.4088 553.929 17.8098 554.285C18.529 554.925 19.268 555.494 19.8966 556.213C20.5252 556.932 21.4405 557.738 22.1993 558.513C22.8948 559.223 24.3927 560.349 25.3664 561.3C26.2132 562.126 27.2769 563.039 27.9295 563.799C28.6759 564.669 29.6356 565.953 30.2942 567.091C31.0342 568.37 32.2439 570.042 34.0414 572.906C35.2417 574.819 37.3415 578.242 38.5893 580.165C39.8371 582.089 40.2524 582.477 40.4978 582.832C41.1953 583.84 42.1769 585.1 43.2863 586.776C45.1515 589.593 45.9202 591.265 47.4547 594.43C48.1844 595.936 48.6354 597.394 49.7647 599.304C51.6443 602.482 52.2926 603.146 53.3863 608.39C53.8308 610.521 54.1968 613.313 54.3727 614.913C54.5486 616.514 54.5347 616.912 54.9005 619.954C55.2663 622.996 55.9898 628.515 56.3603 631.341Z" fill="#96D62A"/>
<path d="M49.2975 658.605C50.8667 660.615 51.8755 661.908 54.2152 663C55.5033 663.601 56.2945 663.953 57.7152 664C59.3245 664.054 60.2279 663.617 61.7152 663C63.6662 662.191 64.9712 661.707 66.2152 660C67.3063 658.503 67.32 657.31 67.7152 655.5C68.0511 653.962 68.2152 651.5 68.2152 651.5C68.2152 651.5 64.8011 645.959 63.7152 642C62.0624 635.974 62.8843 632.193 63.7152 626C64.0055 623.836 64.2722 622.638 64.7152 620.5C66.2447 613.12 67.5837 609.063 70.2152 602C73.5861 592.953 76.2726 588.039 80.7867 579.784L81.2152 579C90.4376 562.128 109.215 538.5 109.215 538.5L422.215 190.5L349.215 265.5L134.215 490L109.215 516.5L82.7152 549C82.7152 549 69.9628 565.356 63.7152 577C60.4526 583.081 59.1319 586.746 56.2152 593C53.6675 598.463 51.9282 601.393 49.7152 607C47.675 612.169 45.2152 620.5 45.2152 620.5C45.2152 620.5 42.2393 637.978 45.2152 648.5C46.3599 652.547 46.6264 655.185 49.2152 658.5L49.2975 658.605Z" fill="#299F6B"/>
<path d="M131.419 304.982C131.163 305.238 130.907 305.493 130.009 311.633C129.11 317.772 127.576 329.787 126.786 344.541C125.996 359.295 125.996 376.423 126.251 386.014C126.549 397.16 127.801 400.508 128.572 404.114C129.372 407.857 134.223 420.557 139.901 437.724C143.002 447.098 144.836 451.118 146.261 455.127C147.483 458.561 149.995 461.963 152.327 465.972C152.846 466.883 153.357 467.649 153.877 468.428C154.396 469.207 154.907 469.974 156.983 472.313" stroke="#299F6B" stroke-width="5" stroke-linecap="round"/>
<path d="M157.758 474.637C160.826 475.66 167.519 478.487 178.078 482.74C196.3 490.08 205.23 489.604 213.756 491.285C220.504 492.616 231.283 495.027 242.636 496.832C252.551 498.408 260.233 499.164 270.823 499.555C274.72 499.699 285.232 500.202 300.195 499.946C312.78 499.731 315.777 496.855 320.809 494.787C325.073 492.718 332.278 489.635 336.698 487.04C337.476 486.521 338.243 486.01 340.583 484.708" stroke="#299F6B" stroke-width="5" stroke-linecap="round"/>
<path d="M198.816 284.066C198.816 285.088 198.816 286.111 198.816 296.48C198.816 306.849 198.816 326.534 199.072 337.825C199.327 349.116 199.838 351.417 202.147 357.459C212.415 384.335 212.082 387.144 213.715 391.5C215.215 395.5 217.425 403.578 218.715 405C222.555 409.232 223.311 397.65 226.704 400.268" stroke="#299F6B" stroke-width="5" stroke-linecap="round"/>
<path d="M223.215 407.887C226.215 407.887 234.715 406.593 239.215 406.593C245.104 406.593 251.2 406.202 257.796 406.593C265.175 407.031 272.379 407.751 291.444 407.887C300.307 407.95 306.465 406.729 313.689 405.954C329.411 404.268 337.453 400.795 343.274 399.497C346.772 398.463 349.096 397.688 350.641 397.173C351.42 396.914 352.187 396.658 354.526 396.395" stroke="#299F6B" stroke-width="5" stroke-linecap="round"/>
<path d="M276.215 255C276.215 262.166 277.749 282.3 279.31 290.229C280.204 294.771 283.698 299.141 285.375 302.244C287.053 305.347 289.632 308.438 291.701 311.54C293.769 314.643 296.852 318.245 300.218 320.84C303.064 323.034 307.946 324.706 315.309 327.038C320.89 328.805 326.027 329.369 335.796 330.012C353.923 331.206 367.1 329.888 369.161 329.373C373.298 328.339 377.419 327.309 380.785 325.632C381.564 325.24 382.331 324.985 385.445 324.721" stroke="#299F6B" stroke-width="5" stroke-linecap="round"/>
<path d="M346.779 222.866C346.779 228.498 348.313 241.939 349.874 246.095C351.056 249.24 353.225 252.288 354.65 255.391C355.013 256.181 355.549 256.936 356.196 257.459C359.405 260.054 365.356 257.99 371.031 256.956C374.986 256.235 379.548 254.891 384.464 254.5C388.341 253.853 391.703 253.598 393.249 253.082C394.027 252.823 394.794 252.567 395.584 252.304" stroke="#299F6B" stroke-width="5" stroke-linecap="round"/>
<path d="M473.977 344.455H476.079L481.022 356.528H481.193L486.136 344.455H488.238V359H486.59V347.949H486.448L481.903 359H480.312L475.766 347.949H475.624V359H473.977V344.455ZM491.542 359V348.091H493.219V359H491.542ZM492.395 346.273C492.068 346.273 491.786 346.161 491.549 345.939C491.317 345.716 491.201 345.449 491.201 345.136C491.201 344.824 491.317 344.556 491.549 344.334C491.786 344.111 492.068 344 492.395 344C492.721 344 493.001 344.111 493.233 344.334C493.469 344.556 493.588 344.824 493.588 345.136C493.588 345.449 493.469 345.716 493.233 345.939C493.001 346.161 492.721 346.273 492.395 346.273ZM500.408 359.227C499.499 359.227 498.696 358.998 498 358.538C497.304 358.074 496.76 357.421 496.367 356.578C495.974 355.731 495.777 354.729 495.777 353.574C495.777 352.428 495.974 351.434 496.367 350.591C496.76 349.748 497.306 349.097 498.007 348.638C498.708 348.179 499.518 347.949 500.436 347.949C501.146 347.949 501.708 348.067 502.119 348.304C502.536 348.536 502.853 348.801 503.071 349.099C503.294 349.393 503.467 349.634 503.59 349.824H503.732V344.455H505.408V359H503.788V357.324H503.59C503.467 357.523 503.291 357.774 503.064 358.077C502.837 358.375 502.512 358.643 502.091 358.879C501.67 359.111 501.109 359.227 500.408 359.227ZM500.635 357.722C501.307 357.722 501.876 357.546 502.34 357.196C502.804 356.841 503.156 356.351 503.398 355.726C503.639 355.096 503.76 354.369 503.76 353.545C503.76 352.731 503.642 352.018 503.405 351.408C503.168 350.792 502.818 350.314 502.354 349.973C501.89 349.627 501.317 349.455 500.635 349.455C499.925 349.455 499.333 349.637 498.86 350.001C498.391 350.361 498.038 350.851 497.801 351.472C497.569 352.087 497.453 352.778 497.453 353.545C497.453 354.322 497.572 355.027 497.808 355.662C498.05 356.292 498.405 356.794 498.874 357.168C499.347 357.537 499.934 357.722 500.635 357.722ZM508.71 359V348.091H510.33V349.739H510.443C510.642 349.199 511.002 348.761 511.523 348.425C512.044 348.089 512.631 347.92 513.284 347.92C513.407 347.92 513.561 347.923 513.746 347.928C513.931 347.932 514.07 347.939 514.165 347.949V349.653C514.108 349.639 513.978 349.618 513.774 349.589C513.575 349.556 513.365 349.54 513.142 349.54C512.612 349.54 512.138 349.651 511.722 349.874C511.31 350.091 510.983 350.394 510.742 350.783C510.505 351.166 510.386 351.604 510.386 352.097V359H508.71ZM516.152 359V348.091H517.828V359H516.152ZM517.004 346.273C516.677 346.273 516.396 346.161 516.159 345.939C515.927 345.716 515.811 345.449 515.811 345.136C515.811 344.824 515.927 344.556 516.159 344.334C516.396 344.111 516.677 344 517.004 344C517.331 344 517.61 344.111 517.842 344.334C518.079 344.556 518.197 344.824 518.197 345.136C518.197 345.449 518.079 345.716 517.842 345.939C517.61 346.161 517.331 346.273 517.004 346.273ZM521.125 359V344.455H522.801V349.824H522.943C523.066 349.634 523.237 349.393 523.455 349.099C523.677 348.801 523.994 348.536 524.406 348.304C524.823 348.067 525.386 347.949 526.097 347.949C527.015 347.949 527.825 348.179 528.526 348.638C529.226 349.097 529.773 349.748 530.166 350.591C530.559 351.434 530.756 352.428 530.756 353.574C530.756 354.729 530.559 355.731 530.166 356.578C529.773 357.421 529.229 358.074 528.533 358.538C527.837 358.998 527.034 359.227 526.125 359.227C525.424 359.227 524.863 359.111 524.442 358.879C524.02 358.643 523.696 358.375 523.469 358.077C523.242 357.774 523.066 357.523 522.943 357.324H522.744V359H521.125ZM522.773 353.545C522.773 354.369 522.894 355.096 523.135 355.726C523.377 356.351 523.729 356.841 524.193 357.196C524.657 357.546 525.226 357.722 525.898 357.722C526.599 357.722 527.183 357.537 527.652 357.168C528.126 356.794 528.481 356.292 528.717 355.662C528.959 355.027 529.08 354.322 529.08 353.545C529.08 352.778 528.961 352.087 528.725 351.472C528.493 350.851 528.14 350.361 527.666 350.001C527.198 349.637 526.608 349.455 525.898 349.455C525.216 349.455 524.643 349.627 524.179 349.973C523.715 350.314 523.365 350.792 523.128 351.408C522.891 352.018 522.773 352.731 522.773 353.545Z" fill="black"/>
<path d="M571.977 360V345.455H573.738V358.438H580.499V360H571.977ZM586.21 360.256C585.518 360.256 584.891 360.125 584.328 359.865C583.764 359.6 583.317 359.219 582.985 358.722C582.654 358.22 582.488 357.614 582.488 356.903C582.488 356.278 582.611 355.772 582.857 355.384C583.104 354.991 583.433 354.683 583.845 354.46C584.257 354.238 584.711 354.072 585.208 353.963C585.71 353.849 586.214 353.759 586.721 353.693C587.384 353.608 587.921 353.544 588.333 353.501C588.75 353.454 589.053 353.376 589.242 353.267C589.436 353.158 589.534 352.969 589.534 352.699V352.642C589.534 351.941 589.342 351.397 588.958 351.009C588.579 350.62 588.004 350.426 587.232 350.426C586.432 350.426 585.805 350.601 585.35 350.952C584.896 351.302 584.576 351.676 584.391 352.074L582.801 351.506C583.085 350.843 583.463 350.327 583.937 349.957C584.415 349.583 584.936 349.323 585.499 349.176C586.068 349.025 586.626 348.949 587.176 348.949C587.526 348.949 587.928 348.991 588.383 349.077C588.842 349.157 589.285 349.325 589.711 349.581C590.142 349.837 590.499 350.223 590.784 350.739C591.068 351.255 591.21 351.946 591.21 352.812V360H589.534V358.523H589.448C589.335 358.759 589.145 359.013 588.88 359.283C588.615 359.553 588.262 359.782 587.822 359.972C587.382 360.161 586.844 360.256 586.21 360.256ZM586.465 358.75C587.128 358.75 587.687 358.62 588.141 358.359C588.601 358.099 588.946 357.763 589.178 357.351C589.415 356.939 589.534 356.506 589.534 356.051V354.517C589.462 354.602 589.306 354.68 589.065 354.751C588.828 354.818 588.553 354.877 588.241 354.929C587.933 354.976 587.632 355.019 587.339 355.057C587.05 355.09 586.816 355.118 586.636 355.142C586.2 355.199 585.793 355.291 585.414 355.419C585.04 355.542 584.737 355.729 584.505 355.98C584.278 356.226 584.164 356.562 584.164 356.989C584.164 357.571 584.38 358.011 584.811 358.31C585.246 358.603 585.798 358.75 586.465 358.75ZM594.269 360V349.091H595.888V350.795H596.03C596.258 350.213 596.625 349.761 597.131 349.439C597.638 349.112 598.246 348.949 598.956 348.949C599.676 348.949 600.275 349.112 600.753 349.439C601.236 349.761 601.613 350.213 601.883 350.795H601.996C602.276 350.232 602.695 349.785 603.253 349.453C603.812 349.117 604.482 348.949 605.263 348.949C606.239 348.949 607.036 349.254 607.657 349.865C608.277 350.471 608.587 351.416 608.587 352.699V360H606.911V352.699C606.911 351.894 606.691 351.319 606.25 350.973C605.81 350.627 605.292 350.455 604.695 350.455C603.928 350.455 603.334 350.687 602.912 351.151C602.491 351.61 602.28 352.192 602.28 352.898V360H600.576V352.528C600.576 351.908 600.375 351.409 599.972 351.03C599.57 350.646 599.051 350.455 598.417 350.455C597.981 350.455 597.574 350.571 597.195 350.803C596.821 351.035 596.518 351.357 596.286 351.768C596.059 352.176 595.945 352.647 595.945 353.182V360H594.269ZM611.652 360V349.091H613.328V360H611.652ZM612.504 347.273C612.177 347.273 611.896 347.161 611.659 346.939C611.427 346.716 611.311 346.449 611.311 346.136C611.311 345.824 611.427 345.556 611.659 345.334C611.896 345.111 612.177 345 612.504 345C612.831 345 613.11 345.111 613.342 345.334C613.579 345.556 613.697 345.824 613.697 346.136C613.697 346.449 613.579 346.716 613.342 346.939C613.11 347.161 612.831 347.273 612.504 347.273ZM618.074 353.438V360H616.398V349.091H618.017V350.795H618.159C618.415 350.241 618.803 349.796 619.324 349.46C619.845 349.119 620.517 348.949 621.341 348.949C622.08 348.949 622.726 349.1 623.28 349.403C623.834 349.702 624.265 350.156 624.573 350.767C624.88 351.373 625.034 352.14 625.034 353.068V360H623.358V353.182C623.358 352.325 623.136 351.657 622.69 351.179C622.245 350.696 621.635 350.455 620.858 350.455C620.323 350.455 619.845 350.571 619.423 350.803C619.007 351.035 618.678 351.373 618.436 351.818C618.195 352.263 618.074 352.803 618.074 353.438ZM631.307 360.256C630.616 360.256 629.989 360.125 629.425 359.865C628.862 359.6 628.414 359.219 628.083 358.722C627.751 358.22 627.586 357.614 627.586 356.903C627.586 356.278 627.709 355.772 627.955 355.384C628.201 354.991 628.53 354.683 628.942 354.46C629.354 354.238 629.809 354.072 630.306 353.963C630.808 353.849 631.312 353.759 631.819 353.693C632.482 353.608 633.019 353.544 633.431 353.501C633.848 353.454 634.151 353.376 634.34 353.267C634.534 353.158 634.631 352.969 634.631 352.699V352.642C634.631 351.941 634.439 351.397 634.056 351.009C633.677 350.62 633.102 350.426 632.33 350.426C631.53 350.426 630.902 350.601 630.448 350.952C629.993 351.302 629.674 351.676 629.489 352.074L627.898 351.506C628.182 350.843 628.561 350.327 629.035 349.957C629.513 349.583 630.034 349.323 630.597 349.176C631.165 349.025 631.724 348.949 632.273 348.949C632.624 348.949 633.026 348.991 633.481 349.077C633.94 349.157 634.383 349.325 634.809 349.581C635.24 349.837 635.597 350.223 635.881 350.739C636.165 351.255 636.307 351.946 636.307 352.812V360H634.631V358.523H634.546C634.432 358.759 634.243 359.013 633.978 359.283C633.713 359.553 633.36 359.782 632.92 359.972C632.479 360.161 631.942 360.256 631.307 360.256ZM631.563 358.75C632.226 358.75 632.785 358.62 633.239 358.359C633.698 358.099 634.044 357.763 634.276 357.351C634.513 356.939 634.631 356.506 634.631 356.051V354.517C634.56 354.602 634.404 354.68 634.162 354.751C633.926 354.818 633.651 354.877 633.339 354.929C633.031 354.976 632.73 355.019 632.437 355.057C632.148 355.09 631.913 355.118 631.733 355.142C631.298 355.199 630.891 355.291 630.512 355.419C630.138 355.542 629.835 355.729 629.603 355.98C629.375 356.226 629.262 356.562 629.262 356.989C629.262 357.571 629.477 358.011 629.908 358.31C630.344 358.603 630.895 358.75 631.563 358.75Z" fill="black"/>
<path d="M473.977 519V504.455H479.062C480.075 504.455 480.911 504.63 481.569 504.98C482.227 505.326 482.717 505.792 483.039 506.379C483.361 506.962 483.522 507.608 483.522 508.318C483.522 508.943 483.411 509.459 483.188 509.866C482.971 510.274 482.682 510.596 482.322 510.832C481.967 511.069 481.581 511.244 481.164 511.358V511.5C481.609 511.528 482.057 511.685 482.507 511.969C482.956 512.253 483.333 512.66 483.636 513.19C483.939 513.721 484.09 514.369 484.09 515.136C484.09 515.866 483.925 516.521 483.593 517.104C483.262 517.686 482.739 518.148 482.024 518.489C481.309 518.83 480.378 519 479.232 519H473.977ZM475.738 517.438H479.232C480.383 517.438 481.2 517.215 481.683 516.77C482.17 516.32 482.414 515.776 482.414 515.136C482.414 514.644 482.289 514.189 482.038 513.773C481.787 513.351 481.429 513.015 480.965 512.764C480.501 512.509 479.952 512.381 479.318 512.381H475.738V517.438ZM475.738 510.847H479.005C479.535 510.847 480.014 510.742 480.44 510.534C480.871 510.326 481.212 510.032 481.462 509.653C481.718 509.275 481.846 508.83 481.846 508.318C481.846 507.679 481.623 507.137 481.178 506.692C480.733 506.242 480.028 506.017 479.062 506.017H475.738V510.847ZM489.967 519.256C489.276 519.256 488.649 519.125 488.085 518.865C487.522 518.6 487.074 518.219 486.743 517.722C486.412 517.22 486.246 516.614 486.246 515.903C486.246 515.278 486.369 514.772 486.615 514.384C486.861 513.991 487.19 513.683 487.602 513.46C488.014 513.238 488.469 513.072 488.966 512.963C489.468 512.849 489.972 512.759 490.479 512.693C491.142 512.608 491.679 512.544 492.091 512.501C492.508 512.454 492.811 512.376 493 512.267C493.194 512.158 493.291 511.969 493.291 511.699V511.642C493.291 510.941 493.1 510.397 492.716 510.009C492.337 509.62 491.762 509.426 490.99 509.426C490.19 509.426 489.563 509.601 489.108 509.952C488.654 510.302 488.334 510.676 488.149 511.074L486.558 510.506C486.842 509.843 487.221 509.327 487.695 508.957C488.173 508.583 488.694 508.323 489.257 508.176C489.825 508.025 490.384 507.949 490.933 507.949C491.284 507.949 491.686 507.991 492.141 508.077C492.6 508.157 493.043 508.325 493.469 508.581C493.9 508.837 494.257 509.223 494.541 509.739C494.825 510.255 494.967 510.946 494.967 511.812V519H493.291V517.523H493.206C493.092 517.759 492.903 518.013 492.638 518.283C492.373 518.553 492.02 518.782 491.58 518.972C491.139 519.161 490.602 519.256 489.967 519.256ZM490.223 517.75C490.886 517.75 491.445 517.62 491.899 517.359C492.359 517.099 492.704 516.763 492.936 516.351C493.173 515.939 493.291 515.506 493.291 515.051V513.517C493.22 513.602 493.064 513.68 492.823 513.751C492.586 513.818 492.311 513.877 491.999 513.929C491.691 513.976 491.39 514.019 491.097 514.057C490.808 514.09 490.574 514.118 490.394 514.142C489.958 514.199 489.551 514.291 489.172 514.419C488.798 514.542 488.495 514.729 488.263 514.98C488.036 515.226 487.922 515.562 487.922 515.989C487.922 516.571 488.137 517.011 488.568 517.31C489.004 517.603 489.556 517.75 490.223 517.75ZM505.754 510.534L504.248 510.96C504.154 510.709 504.014 510.465 503.829 510.229C503.649 509.987 503.403 509.788 503.091 509.632C502.778 509.476 502.378 509.398 501.89 509.398C501.223 509.398 500.666 509.552 500.221 509.859C499.781 510.162 499.561 510.548 499.561 511.017C499.561 511.434 499.712 511.763 500.015 512.004C500.318 512.246 500.792 512.447 501.436 512.608L503.055 513.006C504.031 513.242 504.757 513.605 505.236 514.092C505.714 514.575 505.953 515.198 505.953 515.96C505.953 516.585 505.773 517.144 505.413 517.636C505.058 518.129 504.561 518.517 503.922 518.801C503.282 519.085 502.539 519.227 501.692 519.227C500.579 519.227 499.658 518.986 498.929 518.503C498.2 518.02 497.738 517.314 497.544 516.386L499.135 515.989C499.286 516.576 499.573 517.016 499.994 517.31C500.42 517.603 500.977 517.75 501.663 517.75C502.444 517.75 503.065 517.584 503.524 517.253C503.988 516.917 504.22 516.514 504.22 516.045C504.22 515.667 504.087 515.349 503.822 515.094C503.557 514.833 503.15 514.639 502.601 514.511L500.782 514.085C499.783 513.848 499.049 513.482 498.581 512.984C498.117 512.482 497.885 511.855 497.885 511.102C497.885 510.487 498.058 509.942 498.403 509.469C498.754 508.995 499.229 508.624 499.831 508.354C500.437 508.084 501.123 507.949 501.89 507.949C502.97 507.949 503.817 508.186 504.433 508.659C505.053 509.133 505.494 509.758 505.754 510.534ZM513.05 519.227C511.999 519.227 511.092 518.995 510.33 518.531C509.572 518.062 508.987 517.409 508.575 516.571C508.168 515.728 507.965 514.748 507.965 513.631C507.965 512.513 508.168 511.528 508.575 510.676C508.987 509.819 509.56 509.152 510.294 508.673C511.033 508.19 511.895 507.949 512.879 507.949C513.448 507.949 514.009 508.044 514.563 508.233C515.117 508.422 515.621 508.73 516.075 509.156C516.53 509.578 516.892 510.136 517.162 510.832C517.432 511.528 517.567 512.385 517.567 513.403V514.114H509.158V512.665H515.862C515.862 512.049 515.739 511.5 515.493 511.017C515.252 510.534 514.906 510.153 514.456 509.874C514.011 509.594 513.485 509.455 512.879 509.455C512.212 509.455 511.634 509.62 511.146 509.952C510.663 510.278 510.292 510.705 510.031 511.23C509.771 511.756 509.641 512.319 509.641 512.92V513.886C509.641 514.71 509.783 515.409 510.067 515.982C510.356 516.55 510.756 516.983 511.267 517.281C511.779 517.575 512.373 517.722 513.05 517.722C513.49 517.722 513.888 517.66 514.243 517.537C514.603 517.409 514.913 517.22 515.173 516.969C515.434 516.713 515.635 516.396 515.777 516.017L517.396 516.472C517.226 517.021 516.94 517.504 516.537 517.92C516.135 518.332 515.637 518.654 515.046 518.886C514.454 519.114 513.788 519.227 513.05 519.227Z" fill="black"/>
<path d="M474.573 247.455L478.891 259.699H479.062L483.38 247.455H485.227L479.886 262H478.068L472.727 247.455H474.573ZM490.823 262.227C489.772 262.227 488.865 261.995 488.103 261.531C487.346 261.062 486.761 260.409 486.349 259.571C485.942 258.728 485.738 257.748 485.738 256.631C485.738 255.513 485.942 254.528 486.349 253.676C486.761 252.819 487.334 252.152 488.068 251.673C488.806 251.19 489.668 250.949 490.653 250.949C491.221 250.949 491.782 251.044 492.336 251.233C492.89 251.422 493.394 251.73 493.849 252.156C494.303 252.578 494.666 253.136 494.936 253.832C495.205 254.528 495.34 255.385 495.34 256.403V257.114H486.931V255.665H493.636C493.636 255.049 493.513 254.5 493.266 254.017C493.025 253.534 492.679 253.153 492.23 252.874C491.784 252.594 491.259 252.455 490.653 252.455C489.985 252.455 489.408 252.62 488.92 252.952C488.437 253.278 488.065 253.705 487.805 254.23C487.544 254.756 487.414 255.319 487.414 255.92V256.886C487.414 257.71 487.556 258.409 487.84 258.982C488.129 259.55 488.529 259.983 489.041 260.281C489.552 260.575 490.146 260.722 490.823 260.722C491.264 260.722 491.661 260.66 492.016 260.537C492.376 260.409 492.686 260.22 492.947 259.969C493.207 259.713 493.409 259.396 493.551 259.017L495.17 259.472C494.999 260.021 494.713 260.504 494.311 260.92C493.908 261.332 493.411 261.654 492.819 261.886C492.227 262.114 491.562 262.227 490.823 262.227ZM497.89 262V251.091H499.566V262H497.89ZM498.742 249.273C498.416 249.273 498.134 249.161 497.897 248.939C497.665 248.716 497.549 248.449 497.549 248.136C497.549 247.824 497.665 247.556 497.897 247.334C498.134 247.111 498.416 247 498.742 247C499.069 247 499.348 247.111 499.58 247.334C499.817 247.556 499.936 247.824 499.936 248.136C499.936 248.449 499.817 248.716 499.58 248.939C499.348 249.161 499.069 249.273 498.742 249.273ZM504.312 255.438V262H502.636V251.091H504.255V252.795H504.398C504.653 252.241 505.041 251.796 505.562 251.46C506.083 251.119 506.755 250.949 507.579 250.949C508.318 250.949 508.964 251.1 509.518 251.403C510.072 251.702 510.503 252.156 510.811 252.767C511.119 253.373 511.273 254.14 511.273 255.068V262H509.596V255.182C509.596 254.325 509.374 253.657 508.929 253.179C508.484 252.696 507.873 252.455 507.096 252.455C506.561 252.455 506.083 252.571 505.662 252.803C505.245 253.035 504.916 253.373 504.674 253.818C504.433 254.263 504.312 254.803 504.312 255.438Z" fill="black"/>
<path d="M473.181 192.017V190.455H484.09V192.017H479.516V205H477.755V192.017H473.181ZM486.581 205V194.091H488.258V205H486.581ZM487.434 192.273C487.107 192.273 486.825 192.161 486.589 191.939C486.357 191.716 486.241 191.449 486.241 191.136C486.241 190.824 486.357 190.556 486.589 190.334C486.825 190.111 487.107 190 487.434 190C487.76 190 488.04 190.111 488.272 190.334C488.509 190.556 488.627 190.824 488.627 191.136C488.627 191.449 488.509 191.716 488.272 191.939C488.04 192.161 487.76 192.273 487.434 192.273ZM491.328 209.091V194.091H492.947V195.824H493.146C493.269 195.634 493.439 195.393 493.657 195.099C493.88 194.801 494.197 194.536 494.609 194.304C495.025 194.067 495.589 193.949 496.299 193.949C497.218 193.949 498.027 194.179 498.728 194.638C499.429 195.097 499.976 195.748 500.369 196.591C500.762 197.434 500.958 198.428 500.958 199.574C500.958 200.729 500.762 201.731 500.369 202.578C499.976 203.421 499.431 204.074 498.735 204.538C498.039 204.998 497.237 205.227 496.328 205.227C495.627 205.227 495.066 205.111 494.644 204.879C494.223 204.643 493.899 204.375 493.671 204.077C493.444 203.774 493.269 203.523 493.146 203.324H493.004V209.091H491.328ZM492.975 199.545C492.975 200.369 493.096 201.096 493.337 201.726C493.579 202.351 493.932 202.841 494.396 203.196C494.86 203.546 495.428 203.722 496.1 203.722C496.801 203.722 497.386 203.537 497.855 203.168C498.328 202.794 498.683 202.292 498.92 201.662C499.161 201.027 499.282 200.322 499.282 199.545C499.282 198.778 499.164 198.087 498.927 197.472C498.695 196.851 498.342 196.361 497.869 196.001C497.4 195.637 496.811 195.455 496.1 195.455C495.418 195.455 494.846 195.627 494.382 195.973C493.918 196.314 493.567 196.792 493.33 197.408C493.094 198.018 492.975 198.731 492.975 199.545Z" fill="black"/>
<path d="M159.977 641V626.455H164.891C166.033 626.455 166.965 626.661 167.69 627.072C168.419 627.48 168.959 628.031 169.309 628.727C169.659 629.423 169.835 630.2 169.835 631.057C169.835 631.914 169.659 632.693 169.309 633.393C168.963 634.094 168.428 634.653 167.704 635.07C166.98 635.482 166.052 635.688 164.92 635.688H161.397V634.125H164.863C165.644 634.125 166.272 633.99 166.745 633.72C167.219 633.45 167.562 633.086 167.775 632.626C167.993 632.162 168.102 631.639 168.102 631.057C168.102 630.474 167.993 629.954 167.775 629.494C167.562 629.035 167.216 628.675 166.738 628.415C166.26 628.15 165.625 628.017 164.835 628.017H161.738V641H159.977ZM176.901 641.227C175.85 641.227 174.944 640.995 174.181 640.531C173.424 640.062 172.839 639.409 172.427 638.571C172.02 637.728 171.816 636.748 171.816 635.631C171.816 634.513 172.02 633.528 172.427 632.676C172.839 631.819 173.412 631.152 174.146 630.673C174.884 630.19 175.746 629.949 176.731 629.949C177.299 629.949 177.86 630.044 178.414 630.233C178.968 630.422 179.472 630.73 179.927 631.156C180.382 631.578 180.744 632.136 181.014 632.832C181.284 633.528 181.418 634.385 181.418 635.403V636.114H173.009V634.665H179.714C179.714 634.049 179.591 633.5 179.345 633.017C179.103 632.534 178.757 632.153 178.308 631.874C177.863 631.594 177.337 631.455 176.731 631.455C176.063 631.455 175.486 631.62 174.998 631.952C174.515 632.278 174.143 632.705 173.883 633.23C173.623 633.756 173.492 634.319 173.492 634.92V635.886C173.492 636.71 173.634 637.409 173.918 637.982C174.207 638.55 174.607 638.983 175.119 639.281C175.63 639.575 176.224 639.722 176.901 639.722C177.342 639.722 177.739 639.66 178.095 639.537C178.454 639.409 178.765 639.22 179.025 638.969C179.285 638.713 179.487 638.396 179.629 638.017L181.248 638.472C181.078 639.021 180.791 639.504 180.389 639.92C179.986 640.332 179.489 640.654 178.897 640.886C178.305 641.114 177.64 641.227 176.901 641.227ZM188.712 630.091V631.511H183.059V630.091H188.712ZM184.707 627.477H186.383V637.875C186.383 638.348 186.452 638.704 186.589 638.94C186.731 639.172 186.911 639.329 187.129 639.409C187.351 639.485 187.586 639.523 187.832 639.523C188.016 639.523 188.168 639.513 188.286 639.494C188.405 639.471 188.499 639.452 188.57 639.438L188.911 640.943C188.798 640.986 188.639 641.028 188.436 641.071C188.232 641.118 187.974 641.142 187.661 641.142C187.188 641.142 186.724 641.04 186.269 640.837C185.819 640.633 185.445 640.323 185.147 639.906C184.854 639.49 184.707 638.964 184.707 638.33V627.477ZM191.234 641V630.091H192.91V641H191.234ZM192.086 628.273C191.759 628.273 191.478 628.161 191.241 627.939C191.009 627.716 190.893 627.449 190.893 627.136C190.893 626.824 191.009 626.556 191.241 626.334C191.478 626.111 191.759 626 192.086 626C192.413 626 192.692 626.111 192.924 626.334C193.161 626.556 193.279 626.824 193.279 627.136C193.279 627.449 193.161 627.716 192.924 627.939C192.692 628.161 192.413 628.273 192.086 628.273ZM200.412 641.227C199.427 641.227 198.563 640.993 197.819 640.524C197.081 640.055 196.503 639.4 196.086 638.557C195.674 637.714 195.469 636.729 195.469 635.602C195.469 634.466 195.674 633.474 196.086 632.626C196.503 631.779 197.081 631.121 197.819 630.652C198.563 630.183 199.427 629.949 200.412 629.949C201.397 629.949 202.258 630.183 202.997 630.652C203.74 631.121 204.318 631.779 204.73 632.626C205.147 633.474 205.355 634.466 205.355 635.602C205.355 636.729 205.147 637.714 204.73 638.557C204.318 639.4 203.74 640.055 202.997 640.524C202.258 640.993 201.397 641.227 200.412 641.227ZM200.412 639.722C201.16 639.722 201.775 639.53 202.258 639.146C202.741 638.763 203.099 638.259 203.331 637.634C203.563 637.009 203.679 636.331 203.679 635.602C203.679 634.873 203.563 634.194 203.331 633.564C203.099 632.934 202.741 632.425 202.258 632.037C201.775 631.649 201.16 631.455 200.412 631.455C199.664 631.455 199.048 631.649 198.565 632.037C198.082 632.425 197.725 632.934 197.493 633.564C197.261 634.194 197.145 634.873 197.145 635.602C197.145 636.331 197.261 637.009 197.493 637.634C197.725 638.259 198.082 638.763 198.565 639.146C199.048 639.53 199.664 639.722 200.412 639.722ZM209.59 626.455V641H207.913V626.455H209.59ZM217.233 641.227C216.182 641.227 215.276 640.995 214.513 640.531C213.756 640.062 213.171 639.409 212.759 638.571C212.352 637.728 212.148 636.748 212.148 635.631C212.148 634.513 212.352 633.528 212.759 632.676C213.171 631.819 213.744 631.152 214.478 630.673C215.216 630.19 216.078 629.949 217.063 629.949C217.631 629.949 218.192 630.044 218.746 630.233C219.3 630.422 219.804 630.73 220.259 631.156C220.714 631.578 221.076 632.136 221.346 632.832C221.616 633.528 221.75 634.385 221.75 635.403V636.114H213.341V634.665H220.046C220.046 634.049 219.923 633.5 219.677 633.017C219.435 632.534 219.09 632.153 218.64 631.874C218.195 631.594 217.669 631.455 217.063 631.455C216.395 631.455 215.818 631.62 215.33 631.952C214.847 632.278 214.475 632.705 214.215 633.23C213.955 633.756 213.824 634.319 213.824 634.92V635.886C213.824 636.71 213.966 637.409 214.25 637.982C214.539 638.55 214.939 638.983 215.451 639.281C215.962 639.575 216.556 639.722 217.233 639.722C217.674 639.722 218.072 639.66 218.427 639.537C218.786 639.409 219.097 639.22 219.357 638.969C219.617 638.713 219.819 638.396 219.961 638.017L221.58 638.472C221.41 639.021 221.123 639.504 220.721 639.92C220.318 640.332 219.821 640.654 219.229 640.886C218.637 641.114 217.972 641.227 217.233 641.227Z" fill="black"/>
<path d="M193.931 558.091C193.846 557.371 193.5 556.812 192.894 556.415C192.288 556.017 191.545 555.818 190.664 555.818C190.02 555.818 189.457 555.922 188.974 556.131C188.496 556.339 188.122 556.625 187.852 556.99C187.587 557.355 187.454 557.769 187.454 558.233C187.454 558.621 187.546 558.955 187.731 559.234C187.92 559.509 188.162 559.739 188.455 559.923C188.749 560.103 189.057 560.252 189.379 560.371C189.701 560.484 189.997 560.577 190.266 560.648L191.744 561.045C192.123 561.145 192.544 561.282 193.008 561.457C193.477 561.633 193.924 561.872 194.35 562.175C194.781 562.473 195.136 562.857 195.416 563.325C195.695 563.794 195.835 564.369 195.835 565.051C195.835 565.837 195.629 566.547 195.217 567.182C194.81 567.816 194.213 568.321 193.427 568.695C192.646 569.069 191.696 569.256 190.579 569.256C189.537 569.256 188.635 569.088 187.873 568.751C187.115 568.415 186.519 567.946 186.083 567.345C185.652 566.744 185.409 566.045 185.352 565.25H187.17C187.217 565.799 187.402 566.254 187.724 566.614C188.051 566.969 188.462 567.234 188.96 567.409C189.462 567.58 190.001 567.665 190.579 567.665C191.251 567.665 191.855 567.556 192.39 567.338C192.925 567.116 193.349 566.808 193.661 566.415C193.974 566.017 194.13 565.553 194.13 565.023C194.13 564.54 193.995 564.147 193.725 563.844C193.455 563.541 193.1 563.295 192.66 563.105C192.22 562.916 191.744 562.75 191.232 562.608L189.443 562.097C188.306 561.77 187.407 561.304 186.744 560.697C186.081 560.091 185.749 559.298 185.749 558.318C185.749 557.504 185.97 556.794 186.41 556.188C186.855 555.577 187.452 555.103 188.2 554.767C188.953 554.426 189.793 554.256 190.721 554.256C191.659 554.256 192.492 554.424 193.221 554.76C193.95 555.091 194.528 555.546 194.954 556.124C195.385 556.701 195.612 557.357 195.636 558.091H193.931ZM203.248 558.091V559.511H197.594V558.091H203.248ZM199.242 555.477H200.918V565.875C200.918 566.348 200.987 566.704 201.124 566.94C201.266 567.172 201.446 567.329 201.664 567.409C201.886 567.485 202.121 567.523 202.367 567.523C202.552 567.523 202.703 567.513 202.822 567.494C202.94 567.471 203.035 567.452 203.106 567.438L203.447 568.943C203.333 568.986 203.174 569.028 202.971 569.071C202.767 569.118 202.509 569.142 202.197 569.142C201.723 569.142 201.259 569.04 200.804 568.837C200.355 568.633 199.981 568.323 199.682 567.906C199.389 567.49 199.242 566.964 199.242 566.33V555.477ZM205.769 569V558.091H207.445V569H205.769ZM206.621 556.273C206.295 556.273 206.013 556.161 205.776 555.939C205.544 555.716 205.428 555.449 205.428 555.136C205.428 554.824 205.544 554.556 205.776 554.334C206.013 554.111 206.295 554 206.621 554C206.948 554 207.227 554.111 207.459 554.334C207.696 554.556 207.814 554.824 207.814 555.136C207.814 555.449 207.696 555.716 207.459 555.939C207.227 556.161 206.948 556.273 206.621 556.273ZM210.515 573.091V558.091H212.134V559.824H212.333C212.456 559.634 212.627 559.393 212.845 559.099C213.067 558.801 213.384 558.536 213.796 558.304C214.213 558.067 214.776 557.949 215.487 557.949C216.405 557.949 217.215 558.179 217.916 558.638C218.616 559.097 219.163 559.748 219.556 560.591C219.949 561.434 220.146 562.428 220.146 563.574C220.146 564.729 219.949 565.731 219.556 566.578C219.163 567.421 218.619 568.074 217.923 568.538C217.227 568.998 216.424 569.227 215.515 569.227C214.814 569.227 214.253 569.111 213.832 568.879C213.41 568.643 213.086 568.375 212.859 568.077C212.632 567.774 212.456 567.523 212.333 567.324H212.191V573.091H210.515ZM212.163 563.545C212.163 564.369 212.284 565.096 212.525 565.726C212.766 566.351 213.119 566.841 213.583 567.196C214.047 567.546 214.615 567.722 215.288 567.722C215.989 567.722 216.573 567.537 217.042 567.168C217.516 566.794 217.871 566.292 218.107 565.662C218.349 565.027 218.47 564.322 218.47 563.545C218.47 562.778 218.351 562.087 218.114 561.472C217.882 560.851 217.53 560.361 217.056 560.001C216.587 559.637 215.998 559.455 215.288 559.455C214.606 559.455 214.033 559.627 213.569 559.973C213.105 560.314 212.755 560.792 212.518 561.408C212.281 562.018 212.163 562.731 212.163 563.545ZM229.578 564.54V558.091H231.254V569H229.578V567.153H229.464C229.208 567.707 228.811 568.179 228.271 568.567C227.731 568.95 227.049 569.142 226.225 569.142C225.543 569.142 224.937 568.993 224.407 568.695C223.877 568.392 223.46 567.937 223.157 567.331C222.854 566.72 222.703 565.951 222.703 565.023V558.091H224.379V564.909C224.379 565.705 224.601 566.339 225.046 566.812C225.496 567.286 226.069 567.523 226.765 567.523C227.182 567.523 227.605 567.416 228.036 567.203C228.472 566.99 228.837 566.663 229.13 566.223C229.428 565.783 229.578 565.222 229.578 564.54ZM236 554.455V569H234.324V554.455H236ZM243.644 569.227C242.592 569.227 241.686 568.995 240.923 568.531C240.166 568.062 239.581 567.409 239.169 566.571C238.762 565.728 238.558 564.748 238.558 563.631C238.558 562.513 238.762 561.528 239.169 560.676C239.581 559.819 240.154 559.152 240.888 558.673C241.627 558.19 242.488 557.949 243.473 557.949C244.041 557.949 244.602 558.044 245.156 558.233C245.71 558.422 246.215 558.73 246.669 559.156C247.124 559.578 247.486 560.136 247.756 560.832C248.026 561.528 248.161 562.385 248.161 563.403V564.114H239.752V562.665H246.456C246.456 562.049 246.333 561.5 246.087 561.017C245.845 560.534 245.5 560.153 245.05 559.874C244.605 559.594 244.079 559.455 243.473 559.455C242.806 559.455 242.228 559.62 241.74 559.952C241.257 560.278 240.886 560.705 240.625 561.23C240.365 561.756 240.235 562.319 240.235 562.92V563.886C240.235 564.71 240.377 565.409 240.661 565.982C240.949 566.55 241.35 566.983 241.861 567.281C242.372 567.575 242.967 567.722 243.644 567.722C244.084 567.722 244.482 567.66 244.837 567.537C245.197 567.409 245.507 567.22 245.767 566.969C246.028 566.713 246.229 566.396 246.371 566.017L247.99 566.472C247.82 567.021 247.533 567.504 247.131 567.92C246.728 568.332 246.231 568.654 245.639 568.886C245.047 569.114 244.382 569.227 243.644 569.227Z" fill="black"/>
<path d="M114.365 114V79.1H122.615V107.25H139.515V114H114.365ZM159.234 114.6C156.234 114.6 153.651 114.017 151.484 112.85C149.351 111.683 147.701 110.017 146.534 107.85C145.368 105.683 144.784 103.1 144.784 100.1C144.784 97.0667 145.368 94.4667 146.534 92.3C147.701 90.1333 149.384 88.4833 151.584 87.35C153.818 86.1833 156.501 85.6 159.634 85.6C164.534 85.6 168.084 87 170.284 89.8C172.518 92.5667 173.451 96.3833 173.084 101.25H150.984L151.034 95.9H165.134C165.034 94.6333 164.468 93.6167 163.434 92.85C162.401 92.05 161.118 91.65 159.584 91.65C157.184 91.65 155.418 92.4 154.284 93.9C153.151 95.4 152.584 97.5833 152.584 100.45C152.584 101.883 152.834 103.2 153.334 104.4C153.834 105.6 154.568 106.567 155.534 107.3C156.534 108 157.768 108.35 159.234 108.35C160.801 108.35 162.118 107.967 163.184 107.2C164.284 106.433 164.951 105.467 165.184 104.3H172.984C172.651 107.467 171.251 109.983 168.784 111.85C166.351 113.683 163.168 114.6 159.234 114.6ZM196.904 114L196.654 109V95.3C196.654 94 196.171 92.9833 195.204 92.25C194.237 91.4833 192.904 91.1 191.204 91.1C189.571 91.1 188.237 91.45 187.204 92.15C186.204 92.8167 185.621 93.7667 185.454 95H177.904C178.071 93.0333 178.737 91.35 179.904 89.95C181.071 88.55 182.637 87.4833 184.604 86.75C186.604 85.9833 188.921 85.6 191.554 85.6C194.154 85.6 196.421 86 198.354 86.8C200.287 87.5667 201.771 88.7167 202.804 90.25C203.871 91.75 204.404 93.6 204.404 95.8V114H196.904ZM188.004 114.6C186.171 114.6 184.554 114.25 183.154 113.55C181.754 112.817 180.671 111.817 179.904 110.55C179.137 109.283 178.754 107.85 178.754 106.25C178.754 103.383 179.854 101.167 182.054 99.6C184.287 98 187.354 97.2 191.254 97.2H197.404V102.6L191.054 102.65C189.621 102.65 188.471 102.917 187.604 103.45C186.771 103.95 186.354 104.717 186.354 105.75C186.354 106.483 186.654 107.117 187.254 107.65C187.887 108.183 188.771 108.45 189.904 108.45C191.471 108.45 192.854 108.067 194.054 107.3C195.287 106.5 196.304 105.417 197.104 104.05L197.954 109.3C197.121 111.133 195.837 112.483 194.104 113.35C192.404 114.183 190.371 114.6 188.004 114.6ZM219.123 114V83.45C219.123 81.4833 219.557 79.7667 220.423 78.3C221.29 76.8 222.473 75.6333 223.973 74.8C225.473 73.9333 227.157 73.5 229.023 73.5H237.673V79.8H232.123C231.19 79.8 230.323 79.8833 229.523 80.05C228.723 80.2167 228.09 80.5667 227.623 81.1C227.157 81.6 226.923 82.3833 226.923 83.45V114H219.123ZM213.623 92.5V86.2H233.673V92.5H213.623ZM211.173 114V107.7H237.073V114H211.173ZM273.563 114L275.963 79.1H285.963L288.313 94.75L289.163 101.9L290.013 94.75L292.563 79.1H302.212L304.663 114H296.613L296.313 97.6V87.7L294.963 97.6L292.263 114H285.863L283.063 97.6L281.713 87.55L281.763 97.6L281.313 114H273.563ZM321.582 114.6C318.615 114.6 316.065 114.017 313.932 112.85C311.799 111.683 310.149 110.017 308.982 107.85C307.849 105.683 307.282 103.1 307.282 100.1C307.282 97.0667 307.849 94.4833 308.982 92.35C310.149 90.1833 311.799 88.5167 313.932 87.35C316.065 86.1833 318.615 85.6 321.582 85.6C326.049 85.6 329.532 86.8833 332.032 89.45C334.565 92.0167 335.832 95.5667 335.832 100.1C335.832 103.1 335.265 105.683 334.132 107.85C332.999 110.017 331.365 111.683 329.232 112.85C327.099 114.017 324.549 114.6 321.582 114.6ZM321.582 108.3C323.582 108.3 325.149 107.567 326.282 106.1C327.449 104.633 328.032 102.633 328.032 100.1C328.032 97.5333 327.449 95.5333 326.282 94.1C325.149 92.6333 323.582 91.9 321.582 91.9C319.549 91.9 317.949 92.6333 316.782 94.1C315.649 95.5333 315.082 97.5333 315.082 100.1C315.082 102.633 315.649 104.633 316.782 106.1C317.949 107.567 319.549 108.3 321.582 108.3ZM360.052 100.1V96.35C360.052 95.0833 359.718 94.0667 359.052 93.3C358.385 92.5 357.385 92.1 356.052 92.1C354.552 92.1 353.135 92.6 351.802 93.6C350.468 94.6 349.202 96.3333 348.002 98.8L347.202 92.25C348.068 90.7833 349.018 89.5667 350.052 88.6C351.085 87.6 352.218 86.85 353.452 86.35C354.718 85.85 356.102 85.6 357.602 85.6C360.568 85.6 363.018 86.5167 364.952 88.35C366.885 90.15 367.852 92.8167 367.852 96.35V100.1H360.052ZM341.502 114V86.2H349.002L349.302 91.2V114H341.502ZM388.921 85.6C391.354 85.6 393.488 86.25 395.321 87.55C397.188 88.8167 398.654 90.55 399.721 92.75C400.788 94.95 401.321 97.4 401.321 100.1C401.321 102.767 400.788 105.2 399.721 107.4C398.654 109.6 397.188 111.35 395.321 112.65C393.488 113.95 391.354 114.6 388.921 114.6C387.321 114.6 385.838 114.317 384.471 113.75C383.104 113.15 381.938 112.35 380.971 111.35V122.9H373.171V86.2H380.721L380.871 88.9C381.838 87.8667 383.004 87.0667 384.371 86.5C385.771 85.9 387.288 85.6 388.921 85.6ZM386.921 108.2C388.221 108.2 389.354 107.833 390.321 107.1C391.321 106.367 392.104 105.4 392.671 104.2C393.238 102.967 393.521 101.6 393.521 100.1C393.521 98.5667 393.238 97.2 392.671 96C392.104 94.7667 391.321 93.8 390.321 93.1C389.354 92.3667 388.221 92 386.921 92C385.554 92 384.338 92.4167 383.271 93.25C382.204 94.0833 381.438 95.2 380.971 96.6V103.55C381.438 104.95 382.204 106.083 383.271 106.95C384.338 107.783 385.554 108.2 386.921 108.2ZM424.591 114V96.9C424.591 95.4333 424.224 94.2667 423.491 93.4C422.757 92.5333 421.791 92.1 420.591 92.1C419.224 92.1 417.957 92.5667 416.791 93.5C415.657 94.4 414.457 95.9667 413.191 98.2L412.091 91.65C413.357 89.45 414.891 87.9 416.691 87C418.491 86.0667 420.324 85.6 422.191 85.6C424.324 85.6 426.141 86.05 427.641 86.95C429.174 87.85 430.341 89.1167 431.141 90.75C431.974 92.35 432.391 94.2333 432.391 96.4V114H424.591ZM406.041 114V76.95H413.841V114H406.041ZM451.66 114.6C448.693 114.6 446.143 114.017 444.01 112.85C441.877 111.683 440.227 110.017 439.06 107.85C437.927 105.683 437.36 103.1 437.36 100.1C437.36 97.0667 437.927 94.4833 439.06 92.35C440.227 90.1833 441.877 88.5167 444.01 87.35C446.143 86.1833 448.693 85.6 451.66 85.6C456.127 85.6 459.61 86.8833 462.11 89.45C464.643 92.0167 465.91 95.5667 465.91 100.1C465.91 103.1 465.343 105.683 464.21 107.85C463.077 110.017 461.443 111.683 459.31 112.85C457.177 114.017 454.627 114.6 451.66 114.6ZM451.66 108.3C453.66 108.3 455.227 107.567 456.36 106.1C457.527 104.633 458.11 102.633 458.11 100.1C458.11 97.5333 457.527 95.5333 456.36 94.1C455.227 92.6333 453.66 91.9 451.66 91.9C449.627 91.9 448.027 92.6333 446.86 94.1C445.727 95.5333 445.16 97.5333 445.16 100.1C445.16 102.633 445.727 104.633 446.86 106.1C448.027 107.567 449.627 108.3 451.66 108.3ZM480.28 114V77H488.08V114H480.28ZM471.28 114V107.7H497.18V114H471.28ZM474.78 83.3V77H484.18V83.3H474.78ZM516.699 114.6C513.733 114.6 511.183 114.017 509.049 112.85C506.916 111.683 505.266 110.017 504.099 107.85C502.966 105.683 502.399 103.1 502.399 100.1C502.399 97.0667 502.966 94.4833 504.099 92.35C505.266 90.1833 506.916 88.5167 509.049 87.35C511.183 86.1833 513.733 85.6 516.699 85.6C521.166 85.6 524.649 86.8833 527.149 89.45C529.683 92.0167 530.949 95.5667 530.949 100.1C530.949 103.1 530.383 105.683 529.249 107.85C528.116 110.017 526.483 111.683 524.349 112.85C522.216 114.017 519.666 114.6 516.699 114.6ZM516.699 108.3C518.699 108.3 520.266 107.567 521.399 106.1C522.566 104.633 523.149 102.633 523.149 100.1C523.149 97.5333 522.566 95.5333 521.399 94.1C520.266 92.6333 518.699 91.9 516.699 91.9C514.666 91.9 513.066 92.6333 511.899 94.1C510.766 95.5333 510.199 97.5333 510.199 100.1C510.199 102.633 510.766 104.633 511.899 106.1C513.066 107.567 514.666 108.3 516.699 108.3ZM555.319 89.1L555.469 86.2H562.969V110.3C562.969 114.6 561.802 117.867 559.469 120.1C557.169 122.367 553.552 123.5 548.619 123.5C545.985 123.5 543.702 123.167 541.769 122.5C539.869 121.867 538.385 120.883 537.319 119.55C536.285 118.25 535.752 116.6 535.719 114.6H543.919C544.085 115.533 544.569 116.2 545.369 116.6C546.202 117 547.452 117.2 549.119 117.2C551.185 117.2 552.702 116.65 553.669 115.55C554.669 114.483 555.169 113 555.169 111.1V109.45C554.235 110.55 553.102 111.4 551.769 112C550.469 112.6 549.035 112.9 547.469 112.9C545.135 112.9 543.069 112.3 541.269 111.1C539.469 109.867 538.052 108.217 537.019 106.15C535.985 104.083 535.469 101.817 535.469 99.35C535.469 96.4833 536.019 94.0333 537.119 92C538.219 89.9333 539.719 88.3667 541.619 87.3C543.519 86.2 545.635 85.65 547.969 85.65C549.469 85.65 550.852 85.9667 552.119 86.6C553.385 87.2333 554.452 88.0667 555.319 89.1ZM549.469 106.9C550.802 106.9 551.969 106.45 552.969 105.55C554.002 104.65 554.735 103.483 555.169 102.05V96.45C554.735 94.9833 554.002 93.8167 552.969 92.95C551.969 92.0833 550.802 91.65 549.469 91.65C548.269 91.65 547.202 92 546.269 92.7C545.335 93.3667 544.602 94.2667 544.069 95.4C543.535 96.5333 543.269 97.8 543.269 99.2C543.269 100.6 543.535 101.883 544.069 103.05C544.602 104.217 545.335 105.15 546.269 105.85C547.202 106.55 548.269 106.9 549.469 106.9ZM579.188 95.85L581.688 103L584.238 95.85L588.288 86.2H596.238L583.938 115.35C583.105 117.35 582.138 118.933 581.038 120.1C579.972 121.3 578.755 122.167 577.388 122.7C576.022 123.233 574.455 123.5 572.688 123.5H567.538V117.2H571.838C572.772 117.2 573.555 116.983 574.188 116.55C574.855 116.117 575.422 115.533 575.888 114.8C576.388 114.1 576.838 113.3 577.238 112.4L577.738 111.25L567.238 86.2H575.238L579.188 95.85Z" fill="black"/>
<g filter="url(#filter1_d_624_1975)">
<line x1="421.375" y1="192.173" x2="465.388" y2="195.841" stroke="black" stroke-width="4" stroke-linecap="round"/>
</g>
<g filter="url(#filter2_d_624_1975)">
<line x1="380.171" y1="256.957" x2="468.172" y2="255.044" stroke="black" stroke-width="4" stroke-linecap="round"/>
</g>
<g filter="url(#filter3_d_624_1975)">
<line x1="260.059" y1="366.855" x2="468.07" y2="351.156" stroke="black" stroke-width="4" stroke-linecap="round"/>
</g>
<g filter="url(#filter4_d_624_1975)">
<line x1="166.215" y1="510" x2="465.215" y2="510" stroke="black" stroke-width="4" stroke-linecap="round"/>
</g>
<g filter="url(#filter5_d_624_1975)">
<path d="M126.563 551.031C126.755 549.943 127.793 549.217 128.881 549.409L175.941 557.713C177.029 557.905 177.755 558.943 177.563 560.031C177.456 560.635 177.088 561.126 176.595 561.412C176.335 561.917 175.864 562.31 175.266 562.447L35.1647 594.553C34.0882 594.8 33.0159 594.127 32.7692 593.05C32.5226 591.974 33.1955 590.902 34.2721 590.655L167.099 560.214L128.185 553.347C127.098 553.155 126.371 552.118 126.563 551.031Z" fill="black"/>
</g>
<g filter="url(#filter6_d_624_1975)">
<line x1="88.0354" y1="557.217" x2="151.432" y2="631.18" stroke="black" stroke-width="4" stroke-linecap="round"/>
</g>
<path d="M541.215 519H547.25C550.011 519 552.25 516.761 552.25 514V352.5M541.215 186H547.25C550.011 186 552.25 188.239 552.25 191V352.5M552.25 352.5H561.215" stroke="black" stroke-width="3" stroke-linecap="round"/>
<g clip-path="url(#clip0_624_1975)">
<path d="M717.313 10H631.313V96H717.313V10Z" fill="#0077CC"/>
<path d="M678.997 22.04C681.372 22.04 683.297 23.9652 683.297 26.34V50.8962L698.593 77.7468C700.225 80.6134 698.155 84.175 694.856 84.175H654.539C651.24 84.1748 649.17 80.6133 650.802 77.7468L666.097 50.8962V26.34C666.097 23.9652 668.023 22.0401 670.397 22.04H678.997Z" fill="#0077CC"/>
<path d="M683.298 50.8962H681.148V51.4656L681.43 51.9603L683.298 50.8962ZM666.098 50.8962L667.966 51.9603L668.248 51.4656V50.8962H666.098ZM678.998 22.04V24.19C680.185 24.19 681.148 25.1526 681.148 26.34H683.298H685.448C685.448 22.7778 682.56 19.89 678.998 19.89V22.04ZM683.298 26.34H681.148V50.8962H683.298H685.448V26.34H683.298ZM683.298 50.8962L681.43 51.9603L696.725 78.811L698.593 77.7468L700.461 76.6827L685.166 49.832L683.298 50.8962ZM698.593 77.7468L696.725 78.811C697.541 80.2443 696.506 82.025 694.857 82.025V84.175V86.325C699.805 86.325 702.91 80.9826 700.461 76.6827L698.593 77.7468ZM694.857 84.175V82.025H654.539V84.175L654.539 86.325H694.857V84.175ZM654.539 84.175V82.025C652.89 82.0249 651.855 80.244 652.671 78.8108L650.803 77.7468L648.934 76.6827C646.485 80.9825 649.591 86.3247 654.539 86.325L654.539 84.175ZM650.803 77.7468L652.671 78.8108L667.966 51.9603L666.098 50.8962L664.23 49.832L648.934 76.6827L650.803 77.7468ZM666.098 50.8962H668.248V26.34H666.098H663.948V50.8962H666.098ZM666.098 26.34H668.248C668.248 25.1527 669.21 24.19 670.398 24.19L670.398 22.04V19.89C666.836 19.8901 663.948 22.7777 663.948 26.34H666.098ZM670.398 22.04L670.398 24.19H678.998V22.04V19.89H670.398V22.04Z" fill="white"/>
<path d="M681.367 52.5704C681.509 52.5704 681.651 52.5792 681.791 52.5932L696.726 78.8114C697.542 80.2445 696.506 82.0253 694.857 82.0255H654.54C652.89 82.0252 651.855 80.2447 652.672 78.8114L667.619 52.5704H681.367Z" fill="white"/>
<mask id="mask0_624_1975" style="mask-type:luminance" maskUnits="userSpaceOnUse" x="652" y="52" width="46" height="31">
<path d="M681.367 52.5704C681.509 52.5704 681.651 52.5792 681.791 52.5932L696.726 78.8114C697.542 80.2445 696.506 82.0253 694.857 82.0255H654.54C652.89 82.0252 651.855 80.2447 652.672 78.8114L667.619 52.5704H681.367Z" fill="white"/>
</mask>
<g mask="url(#mask0_624_1975)">
<path d="M681.791 52.5932L684.032 51.3161L683.372 50.1569L682.045 50.0256L681.791 52.5932ZM667.619 52.5704V49.9904H666.12L665.377 51.2934L667.619 52.5704ZM681.367 52.5704V55.1504C681.404 55.1504 681.458 55.1528 681.537 55.1606L681.791 52.5932L682.045 50.0256C681.843 50.0058 681.614 49.9904 681.367 49.9904V52.5704ZM681.791 52.5932L679.549 53.8702L694.484 80.0884L696.726 78.8114L698.968 77.5348L684.032 51.3161L681.791 52.5932ZM696.726 78.8114L694.484 80.0884C694.32 79.8011 694.527 79.4454 694.857 79.4454L694.857 82.0254V84.6054C698.485 84.605 700.763 80.6882 698.968 77.5348L696.726 78.8114ZM694.857 82.0254L694.857 79.4454H654.539V82.0254L654.539 84.6054H694.857V82.0254ZM654.539 82.0254V79.4454C654.869 79.4454 655.077 79.8016 654.913 80.0883L652.672 78.8114L650.43 77.5344C648.633 80.6878 650.911 84.6049 654.539 84.6054L654.539 82.0254ZM652.672 78.8114L654.913 80.0883L669.861 53.8475L667.619 52.5704L665.377 51.2934L650.43 77.5344L652.672 78.8114ZM667.619 52.5704V55.1504H681.367V52.5704V49.9904H667.619V52.5704Z" fill="#0077CC"/>
</g>
</g>
<path d="M315.776 36V20.236H310.064V16.456H326.108V20.236H320.396V36H315.776ZM339.363 36V26.424C339.363 25.6027 339.158 24.9493 338.747 24.464C338.336 23.9787 337.795 23.736 337.123 23.736C336.358 23.736 335.648 23.9973 334.995 24.52C334.36 25.024 333.688 25.9013 332.979 27.152L332.363 23.484C333.072 22.252 333.931 21.384 334.939 20.88C335.947 20.3573 336.974 20.096 338.019 20.096C339.214 20.096 340.231 20.348 341.071 20.852C341.93 21.356 342.583 22.0653 343.031 22.98C343.498 23.876 343.731 24.9307 343.731 26.144V36H339.363ZM328.975 36V15.252H333.343V36H328.975ZM354.662 36.336C352.982 36.336 351.535 36.0093 350.322 35.356C349.127 34.7027 348.203 33.7693 347.55 32.556C346.897 31.3427 346.57 29.896 346.57 28.216C346.57 26.5173 346.897 25.0613 347.55 23.848C348.203 22.6347 349.146 21.7107 350.378 21.076C351.629 20.4227 353.131 20.096 354.886 20.096C357.63 20.096 359.618 20.88 360.85 22.448C362.101 23.9973 362.623 26.1347 362.418 28.86H350.042L350.07 25.864H357.966C357.91 25.1547 357.593 24.5853 357.014 24.156C356.435 23.708 355.717 23.484 354.858 23.484C353.514 23.484 352.525 23.904 351.89 24.744C351.255 25.584 350.938 26.8067 350.938 28.412C350.938 29.2147 351.078 29.952 351.358 30.624C351.638 31.296 352.049 31.8373 352.59 32.248C353.15 32.64 353.841 32.836 354.662 32.836C355.539 32.836 356.277 32.6213 356.874 32.192C357.49 31.7627 357.863 31.2213 357.994 30.568H362.362C362.175 32.3413 361.391 33.7507 360.01 34.796C358.647 35.8227 356.865 36.336 354.662 36.336ZM391.056 36.336C389.45 36.336 388.069 36.0373 386.912 35.44C385.773 34.824 384.896 33.9653 384.28 32.864C383.682 31.744 383.384 30.428 383.384 28.916H387.92C387.92 30.092 388.172 30.9973 388.676 31.632C389.198 32.248 389.992 32.556 391.056 32.556C391.896 32.556 392.558 32.3787 393.044 32.024C393.548 31.6507 393.8 31.128 393.8 30.456C393.8 29.952 393.613 29.56 393.24 29.28C392.885 28.9813 392.4 28.7387 391.784 28.552C391.186 28.3467 390.524 28.16 389.796 27.992C389.086 27.8053 388.368 27.5813 387.64 27.32C386.93 27.0587 386.268 26.7133 385.652 26.284C385.054 25.8547 384.569 25.2947 384.196 24.604C383.841 23.9133 383.664 23.036 383.664 21.972C383.664 20.8707 383.962 19.8813 384.56 19.004C385.176 18.1267 386.025 17.4267 387.108 16.904C388.19 16.3813 389.46 16.12 390.916 16.12C392.241 16.12 393.473 16.3813 394.612 16.904C395.75 17.408 396.674 18.1453 397.384 19.116C398.093 20.0867 398.466 21.2813 398.504 22.7H393.884C393.846 22.0653 393.678 21.5427 393.38 21.132C393.1 20.7213 392.736 20.4133 392.288 20.208C391.858 20.0027 391.401 19.9 390.916 19.9C390.225 19.9 389.637 20.068 389.152 20.404C388.666 20.7213 388.424 21.1973 388.424 21.832C388.424 22.3173 388.601 22.7 388.956 22.98C389.329 23.26 389.814 23.4933 390.412 23.68C391.028 23.848 391.69 24.016 392.4 24.184C393.128 24.352 393.846 24.5667 394.556 24.828C395.284 25.0707 395.946 25.416 396.544 25.864C397.16 26.312 397.645 26.9093 398 27.656C398.373 28.384 398.56 29.3173 398.56 30.456C398.56 31.5947 398.233 32.612 397.58 33.508C396.945 34.3853 396.058 35.076 394.92 35.58C393.8 36.084 392.512 36.336 391.056 36.336ZM409.379 36.336C407.736 36.336 406.317 36.0093 405.123 35.356C403.947 34.7027 403.041 33.7693 402.407 32.556C401.791 31.3427 401.483 29.896 401.483 28.216C401.483 26.4987 401.809 25.0333 402.463 23.82C403.135 22.6067 404.068 21.6827 405.263 21.048C406.457 20.4133 407.867 20.096 409.491 20.096C410.909 20.096 412.16 20.348 413.243 20.852C414.344 21.356 415.212 22.0653 415.847 22.98C416.5 23.876 416.855 24.9493 416.911 26.2H412.543C412.393 25.3413 412.057 24.7067 411.535 24.296C411.031 23.8667 410.349 23.652 409.491 23.652C408.781 23.652 408.147 23.8293 407.587 24.184C407.045 24.5387 406.616 25.052 406.299 25.724C406 26.396 405.851 27.2267 405.851 28.216C405.851 29.6907 406.187 30.8293 406.859 31.632C407.549 32.4347 408.389 32.836 409.379 32.836C409.957 32.836 410.461 32.7333 410.891 32.528C411.339 32.3227 411.712 32.0333 412.011 31.66C412.309 31.268 412.515 30.8293 412.627 30.344H416.995C416.883 31.5573 416.491 32.612 415.819 33.508C415.147 34.404 414.26 35.104 413.159 35.608C412.057 36.0933 410.797 36.336 409.379 36.336ZM425.182 36V20.432H429.55V36H425.182ZM420.142 36V32.472H434.646V36H420.142ZM422.102 23.96V20.432H427.366V23.96H422.102ZM425.014 18.36V14.272H429.662V18.36H425.014ZM445.717 36.336C444.037 36.336 442.59 36.0093 441.377 35.356C440.182 34.7027 439.258 33.7693 438.605 32.556C437.951 31.3427 437.625 29.896 437.625 28.216C437.625 26.5173 437.951 25.0613 438.605 23.848C439.258 22.6347 440.201 21.7107 441.433 21.076C442.683 20.4227 444.186 20.096 445.941 20.096C448.685 20.096 450.673 20.88 451.905 22.448C453.155 23.9973 453.678 26.1347 453.473 28.86H441.097L441.125 25.864H449.021C448.965 25.1547 448.647 24.5853 448.069 24.156C447.49 23.708 446.771 23.484 445.913 23.484C444.569 23.484 443.579 23.904 442.945 24.744C442.31 25.584 441.993 26.8067 441.993 28.412C441.993 29.2147 442.133 29.952 442.413 30.624C442.693 31.296 443.103 31.8373 443.645 32.248C444.205 32.64 444.895 32.836 445.717 32.836C446.594 32.836 447.331 32.6213 447.929 32.192C448.545 31.7627 448.918 31.2213 449.049 30.568H453.417C453.23 32.3413 452.446 33.7507 451.065 34.796C449.702 35.8227 447.919 36.336 445.717 36.336ZM466.84 36V26.396C466.84 25.5933 466.634 24.9493 466.224 24.464C465.813 23.9787 465.272 23.736 464.6 23.736C463.834 23.736 463.125 23.9973 462.472 24.52C461.837 25.024 461.165 25.9013 460.456 27.152L459.84 23.456C460.549 22.2427 461.408 21.384 462.416 20.88C463.424 20.3573 464.45 20.096 465.496 20.096C466.69 20.096 467.708 20.348 468.548 20.852C469.406 21.356 470.06 22.056 470.507 22.952C470.974 23.848 471.208 24.9027 471.208 26.116V36H466.84ZM456.452 36V20.432H460.68L460.82 23.204V36H456.452ZM482.222 36.336C480.58 36.336 479.161 36.0093 477.966 35.356C476.79 34.7027 475.885 33.7693 475.25 32.556C474.634 31.3427 474.326 29.896 474.326 28.216C474.326 26.4987 474.653 25.0333 475.306 23.82C475.978 22.6067 476.912 21.6827 478.106 21.048C479.301 20.4133 480.71 20.096 482.334 20.096C483.753 20.096 485.004 20.348 486.086 20.852C487.188 21.356 488.056 22.0653 488.69 22.98C489.344 23.876 489.698 24.9493 489.754 26.2H485.386C485.237 25.3413 484.901 24.7067 484.378 24.296C483.874 23.8667 483.193 23.652 482.334 23.652C481.625 23.652 480.99 23.8293 480.43 24.184C479.889 24.5387 479.46 25.052 479.142 25.724C478.844 26.396 478.694 27.2267 478.694 28.216C478.694 29.6907 479.03 30.8293 479.702 31.632C480.393 32.4347 481.233 32.836 482.222 32.836C482.801 32.836 483.305 32.7333 483.734 32.528C484.182 32.3227 484.556 32.0333 484.854 31.66C485.153 31.268 485.358 30.8293 485.47 30.344H489.838C489.726 31.5573 489.334 32.612 488.662 33.508C487.99 34.404 487.104 35.104 486.002 35.608C484.901 36.0933 483.641 36.336 482.222 36.336ZM500.349 36.336C498.669 36.336 497.223 36.0093 496.009 35.356C494.815 34.7027 493.891 33.7693 493.237 32.556C492.584 31.3427 492.257 29.896 492.257 28.216C492.257 26.5173 492.584 25.0613 493.237 23.848C493.891 22.6347 494.833 21.7107 496.065 21.076C497.316 20.4227 498.819 20.096 500.573 20.096C503.317 20.096 505.305 20.88 506.537 22.448C507.788 23.9973 508.311 26.1347 508.105 28.86H495.729L495.757 25.864H503.653C503.597 25.1547 503.28 24.5853 502.701 24.156C502.123 23.708 501.404 23.484 500.545 23.484C499.201 23.484 498.212 23.904 497.577 24.744C496.943 25.584 496.625 26.8067 496.625 28.412C496.625 29.2147 496.765 29.952 497.045 30.624C497.325 31.296 497.736 31.8373 498.277 32.248C498.837 32.64 499.528 32.836 500.349 32.836C501.227 32.836 501.964 32.6213 502.561 32.192C503.177 31.7627 503.551 31.2213 503.681 30.568H508.049C507.863 32.3413 507.079 33.7507 505.697 34.796C504.335 35.8227 502.552 36.336 500.349 36.336ZM532.515 29.868V26.088H536.967C537.863 26.088 538.582 25.8173 539.123 25.276C539.665 24.716 539.935 23.988 539.935 23.092C539.935 22.2333 539.665 21.5427 539.123 21.02C538.582 20.4973 537.863 20.236 536.967 20.236H532.515V16.456H536.995C538.545 16.456 539.898 16.7267 541.055 17.268C542.213 17.8093 543.109 18.584 543.743 19.592C544.378 20.5813 544.695 21.748 544.695 23.092C544.695 24.4547 544.378 25.6493 543.743 26.676C543.109 27.684 542.213 28.468 541.055 29.028C539.917 29.588 538.563 29.868 536.995 29.868H532.515ZM529.211 36V16.456H533.831V36H529.211ZM558.174 28.216V26.116C558.174 25.4067 557.988 24.8373 557.614 24.408C557.241 23.96 556.681 23.736 555.934 23.736C555.094 23.736 554.301 24.016 553.554 24.576C552.808 25.136 552.098 26.1067 551.426 27.488L550.978 23.82C551.464 22.9987 551.996 22.3173 552.574 21.776C553.153 21.216 553.788 20.796 554.478 20.516C555.188 20.236 555.962 20.096 556.802 20.096C558.464 20.096 559.836 20.6093 560.918 21.636C562.001 22.644 562.542 24.1373 562.542 26.116V28.216H558.174ZM547.786 36V20.432H551.986L552.154 23.232V36H547.786ZM573.193 36.336C571.513 36.336 570.066 36.0093 568.853 35.356C567.658 34.7027 566.734 33.7693 566.081 32.556C565.428 31.3427 565.101 29.896 565.101 28.216C565.101 26.5173 565.428 25.0613 566.081 23.848C566.734 22.6347 567.677 21.7107 568.909 21.076C570.16 20.4227 571.662 20.096 573.417 20.096C576.161 20.096 578.149 20.88 579.381 22.448C580.632 23.9973 581.154 26.1347 580.949 28.86H568.573L568.601 25.864H576.497C576.441 25.1547 576.124 24.5853 575.545 24.156C574.966 23.708 574.248 23.484 573.389 23.484C572.045 23.484 571.056 23.904 570.421 24.744C569.786 25.584 569.469 26.8067 569.469 28.412C569.469 29.2147 569.609 29.952 569.889 30.624C570.169 31.296 570.58 31.8373 571.121 32.248C571.681 32.64 572.372 32.836 573.193 32.836C574.07 32.836 574.808 32.6213 575.405 32.192C576.021 31.7627 576.394 31.2213 576.525 30.568H580.893C580.706 32.3413 579.922 33.7507 578.541 34.796C577.178 35.8227 575.396 36.336 573.193 36.336ZM591.656 36.336C590.2 36.336 588.921 36.1027 587.82 35.636C586.719 35.1507 585.86 34.4693 585.244 33.592C584.647 32.696 584.339 31.6413 584.32 30.428H588.38C588.343 31.2867 588.613 31.9587 589.192 32.444C589.789 32.9293 590.601 33.172 591.628 33.172C592.375 33.172 592.972 33.0507 593.42 32.808C593.887 32.5467 594.12 32.192 594.12 31.744C594.12 31.352 593.943 31.044 593.588 30.82C593.252 30.5773 592.804 30.3907 592.244 30.26C591.684 30.1107 591.068 29.9707 590.396 29.84C589.724 29.6907 589.043 29.5133 588.352 29.308C587.68 29.1027 587.064 28.832 586.504 28.496C585.944 28.1413 585.487 27.684 585.132 27.124C584.796 26.5453 584.628 25.8267 584.628 24.968C584.628 23.9787 584.908 23.12 585.468 22.392C586.028 21.664 586.803 21.104 587.792 20.712C588.8 20.3013 589.957 20.096 591.264 20.096C593.261 20.096 594.876 20.5627 596.108 21.496C597.359 22.4107 598.049 23.6987 598.18 25.36H594.148C594.111 24.6693 593.831 24.1467 593.308 23.792C592.785 23.4373 592.113 23.26 591.292 23.26C590.601 23.26 590.051 23.3813 589.64 23.624C589.229 23.8667 589.024 24.2307 589.024 24.716C589.024 25.108 589.192 25.416 589.528 25.64C589.883 25.8453 590.34 26.0133 590.9 26.144C591.46 26.2747 592.076 26.396 592.748 26.508C593.439 26.62 594.12 26.7787 594.792 26.984C595.464 27.1707 596.08 27.432 596.64 27.768C597.2 28.104 597.648 28.552 597.984 29.112C598.339 29.672 598.516 30.3907 598.516 31.268C598.516 32.8547 597.891 34.096 596.64 34.992C595.408 35.888 593.747 36.336 591.656 36.336ZM609.867 36.336C608.411 36.336 607.132 36.1027 606.031 35.636C604.93 35.1507 604.071 34.4693 603.455 33.592C602.858 32.696 602.55 31.6413 602.531 30.428H606.591C606.554 31.2867 606.824 31.9587 607.403 32.444C608 32.9293 608.812 33.172 609.839 33.172C610.586 33.172 611.183 33.0507 611.631 32.808C612.098 32.5467 612.331 32.192 612.331 31.744C612.331 31.352 612.154 31.044 611.799 30.82C611.463 30.5773 611.015 30.3907 610.455 30.26C609.895 30.1107 609.279 29.9707 608.607 29.84C607.935 29.6907 607.254 29.5133 606.563 29.308C605.891 29.1027 605.275 28.832 604.715 28.496C604.155 28.1413 603.698 27.684 603.343 27.124C603.007 26.5453 602.839 25.8267 602.839 24.968C602.839 23.9787 603.119 23.12 603.679 22.392C604.239 21.664 605.014 21.104 606.003 20.712C607.011 20.3013 608.168 20.096 609.475 20.096C611.472 20.096 613.087 20.5627 614.319 21.496C615.57 22.4107 616.26 23.6987 616.391 25.36H612.359C612.322 24.6693 612.042 24.1467 611.519 23.792C610.996 23.4373 610.324 23.26 609.503 23.26C608.812 23.26 608.262 23.3813 607.851 23.624C607.44 23.8667 607.235 24.2307 607.235 24.716C607.235 25.108 607.403 25.416 607.739 25.64C608.094 25.8453 608.551 26.0133 609.111 26.144C609.671 26.2747 610.287 26.396 610.959 26.508C611.65 26.62 612.331 26.7787 613.003 26.984C613.675 27.1707 614.291 27.432 614.851 27.768C615.411 28.104 615.859 28.552 616.195 29.112C616.55 29.672 616.727 30.3907 616.727 31.268C616.727 32.8547 616.102 34.096 614.851 34.992C613.619 35.888 611.958 36.336 609.867 36.336Z" fill="#0077CC"/>
<defs>
<filter id="filter0_n_624_1975" x="91.1226" y="185.938" width="334.667" height="346.805" filterUnits="userSpaceOnUse" color-interpolation-filters="sRGB">
<feFlood flood-opacity="0" result="BackgroundImageFix"/>
<feBlend mode="normal" in="SourceGraphic" in2="BackgroundImageFix" result="shape"/>
<feTurbulence type="fractalNoise" baseFrequency="0.011507479473948479 0.011507479473948479" stitchTiles="stitch" numOctaves="3" result="noise" seed="432" />
<feColorMatrix in="noise" type="luminanceToAlpha" result="alphaNoise" />
<feComponentTransfer in="alphaNoise" result="coloredNoise1">
<feFuncA type="discrete" tableValues="0 0 0 0 0 1 1 1 1 1 1 1 1 1 1 1 1 1 1 1 1 1 1 1 1 1 1 1 1 1 1 1 1 1 1 1 1 1 1 1 1 1 1 1 1 0 0 0 0 0 0 0 0 0 0 0 0 0 0 0 0 0 0 0 0 0 0 0 0 0 0 0 0 0 0 0 0 0 0 0 0 0 0 0 0 0 0 0 0 0 0 0 0 0 0 0 0 0 0 0 "/>
</feComponentTransfer>
<feComposite operator="in" in2="shape" in="coloredNoise1" result="noise1Clipped" />
<feComponentTransfer in="alphaNoise" result="coloredNoise2">
<feFuncA type="discrete" tableValues="0 0 0 0 0 0 0 0 0 0 0 0 0 0 0 0 0 0 0 0 0 0 0 0 0 0 0 0 0 0 0 0 0 0 0 0 0 0 0 0 0 0 0 0 0 0 0 0 0 0 0 0 0 0 0 1 1 1 1 1 1 1 1 1 1 1 1 1 1 1 1 1 1 1 1 1 1 1 1 1 1 1 1 1 1 1 1 1 1 1 1 1 1 1 1 0 0 0 0 0 "/>
</feComponentTransfer>
<feComposite operator="in" in2="shape" in="coloredNoise2" result="noise2Clipped" />
<feFlood flood-color="rgba(21, 189, 133, 0.1)" result="color1Flood" />
<feComposite operator="in" in2="noise1Clipped" in="color1Flood" result="color1" />
<feFlood flood-color="rgba(41, 159, 107, 0.1)" result="color2Flood" />
<feComposite operator="in" in2="noise2Clipped" in="color2Flood" result="color2" />
<feMerge result="effect1_noise_624_1975">
<feMergeNode in="shape" />
<feMergeNode in="color1" />
<feMergeNode in="color2" />
</feMerge>
</filter>
<filter id="filter1_d_624_1975" x="415.375" y="186.173" width="56.0142" height="15.6681" filterUnits="userSpaceOnUse" color-interpolation-filters="sRGB">
<feFlood flood-opacity="0" result="BackgroundImageFix"/>
<feColorMatrix in="SourceAlpha" type="matrix" values="0 0 0 0 0 0 0 0 0 0 0 0 0 0 0 0 0 0 127 0" result="hardAlpha"/>
<feOffset/>
<feGaussianBlur stdDeviation="2"/>
<feComposite in2="hardAlpha" operator="out"/>
<feColorMatrix type="matrix" values="0 0 0 0 1 0 0 0 0 1 0 0 0 0 1 0 0 0 1 0"/>
<feBlend mode="normal" in2="BackgroundImageFix" result="effect1_dropShadow_624_1975"/>
<feBlend mode="normal" in="SourceGraphic" in2="effect1_dropShadow_624_1975" result="shape"/>
</filter>
<filter id="filter2_d_624_1975" x="374.171" y="249.044" width="100.001" height="13.9131" filterUnits="userSpaceOnUse" color-interpolation-filters="sRGB">
<feFlood flood-opacity="0" result="BackgroundImageFix"/>
<feColorMatrix in="SourceAlpha" type="matrix" values="0 0 0 0 0 0 0 0 0 0 0 0 0 0 0 0 0 0 127 0" result="hardAlpha"/>
<feOffset/>
<feGaussianBlur stdDeviation="2"/>
<feComposite in2="hardAlpha" operator="out"/>
<feColorMatrix type="matrix" values="0 0 0 0 1 0 0 0 0 1 0 0 0 0 1 0 0 0 1 0"/>
<feBlend mode="normal" in2="BackgroundImageFix" result="effect1_dropShadow_624_1975"/>
<feBlend mode="normal" in="SourceGraphic" in2="effect1_dropShadow_624_1975" result="shape"/>
</filter>
<filter id="filter3_d_624_1975" x="254.059" y="345.156" width="220.012" height="27.6992" filterUnits="userSpaceOnUse" color-interpolation-filters="sRGB">
<feFlood flood-opacity="0" result="BackgroundImageFix"/>
<feColorMatrix in="SourceAlpha" type="matrix" values="0 0 0 0 0 0 0 0 0 0 0 0 0 0 0 0 0 0 127 0" result="hardAlpha"/>
<feOffset/>
<feGaussianBlur stdDeviation="2"/>
<feComposite in2="hardAlpha" operator="out"/>
<feColorMatrix type="matrix" values="0 0 0 0 1 0 0 0 0 1 0 0 0 0 1 0 0 0 1 0"/>
<feBlend mode="normal" in2="BackgroundImageFix" result="effect1_dropShadow_624_1975"/>
<feBlend mode="normal" in="SourceGraphic" in2="effect1_dropShadow_624_1975" result="shape"/>
</filter>
<filter id="filter4_d_624_1975" x="160.215" y="504" width="311" height="12" filterUnits="userSpaceOnUse" color-interpolation-filters="sRGB">
<feFlood flood-opacity="0" result="BackgroundImageFix"/>
<feColorMatrix in="SourceAlpha" type="matrix" values="0 0 0 0 0 0 0 0 0 0 0 0 0 0 0 0 0 0 127 0" result="hardAlpha"/>
<feOffset/>
<feGaussianBlur stdDeviation="2"/>
<feComposite in2="hardAlpha" operator="out"/>
<feColorMatrix type="matrix" values="0 0 0 0 1 0 0 0 0 1 0 0 0 0 1 0 0 0 1 0"/>
<feBlend mode="normal" in2="BackgroundImageFix" result="effect1_dropShadow_624_1975"/>
<feBlend mode="normal" in="SourceGraphic" in2="effect1_dropShadow_624_1975" result="shape"/>
</filter>
<filter id="filter5_d_624_1975" x="28.7183" y="545.378" width="152.875" height="53.2261" filterUnits="userSpaceOnUse" color-interpolation-filters="sRGB">
<feFlood flood-opacity="0" result="BackgroundImageFix"/>
<feColorMatrix in="SourceAlpha" type="matrix" values="0 0 0 0 0 0 0 0 0 0 0 0 0 0 0 0 0 0 127 0" result="hardAlpha"/>
<feOffset/>
<feGaussianBlur stdDeviation="2"/>
<feComposite in2="hardAlpha" operator="out"/>
<feColorMatrix type="matrix" values="0 0 0 0 1 0 0 0 0 1 0 0 0 0 1 0 0 0 1 0"/>
<feBlend mode="normal" in2="BackgroundImageFix" result="effect1_dropShadow_624_1975"/>
<feBlend mode="normal" in="SourceGraphic" in2="effect1_dropShadow_624_1975" result="shape"/>
</filter>
<filter id="filter6_d_624_1975" x="82.0352" y="551.217" width="75.397" height="85.963" filterUnits="userSpaceOnUse" color-interpolation-filters="sRGB">
<feFlood flood-opacity="0" result="BackgroundImageFix"/>
<feColorMatrix in="SourceAlpha" type="matrix" values="0 0 0 0 0 0 0 0 0 0 0 0 0 0 0 0 0 0 127 0" result="hardAlpha"/>
<feOffset/>
<feGaussianBlur stdDeviation="2"/>
<feComposite in2="hardAlpha" operator="out"/>
<feColorMatrix type="matrix" values="0 0 0 0 1 0 0 0 0 1 0 0 0 0 1 0 0 0 1 0"/>
<feBlend mode="normal" in2="BackgroundImageFix" result="effect1_dropShadow_624_1975"/>
<feBlend mode="normal" in="SourceGraphic" in2="effect1_dropShadow_624_1975" result="shape"/>
</filter>
<linearGradient id="paint0_linear_624_1975" x1="129.215" y1="506" x2="426.215" y2="186" gradientUnits="userSpaceOnUse">
<stop stop-color="#A4DF20"/>
<stop offset="1" stop-color="#98BF40"/>
</linearGradient>
<clipPath id="clip0_624_1975">
<rect width="86" height="86" fill="white" transform="translate(631.313 10)"/>
</clipPath>
</defs>
</svg>
