<svg width="500" height="250" viewBox="0 0 500 250" fill="none" xmlns="http://www.w3.org/2000/svg">
<rect width="500" height="250" fill="#0077CC"/>
<path d="M500 8.80664L494.896 19.5439C493.625 22.2199 494.945 25.4086 497.736 26.4014L500 27.2061V222.793L497.736 223.599C494.945 224.591 493.625 227.78 494.896 230.456L500 241.192V250H0V241.192L5.10352 230.456C6.3755 227.78 5.05522 224.591 2.26367 223.599L0 222.793V27.2061L2.26367 26.4014C5.05523 25.4086 6.37548 22.2199 5.10352 19.5439L0 8.80664V0H500V8.80664Z" fill="#5FB4F1"/>
<path d="M448.702 38.6777C447.43 41.3537 448.751 44.5424 451.543 45.5352L500 62.7666V187.232L451.543 204.465C448.751 205.458 447.43 208.646 448.702 211.322L467.088 250H32.9121L51.2979 211.322C52.5699 208.646 51.2487 205.458 48.457 204.465L0 187.232V62.7666L48.457 45.5352C51.2487 44.5424 52.5699 41.3537 51.2979 38.6777L32.9121 0H467.088L448.702 38.6777Z" fill="#F1775F"/>
<path d="M402.508 57.8125C401.236 60.4884 402.557 63.6772 405.349 64.6699L500 98.3281V151.671L405.349 185.33C402.557 186.323 401.236 189.512 402.508 192.188L429.988 250H70.0117L97.4922 192.188C98.7638 189.512 97.4428 186.323 94.6514 185.33L0 151.671V98.3281L94.6514 64.6699C97.4428 63.6772 98.7638 60.4884 97.4922 57.8125L70.0117 0H429.988L402.508 57.8125Z" fill="#BD2915"/>
<path d="M356.314 76.9463C355.043 79.6221 356.363 82.8108 359.154 83.8037L461.753 120.289C466.186 121.866 466.186 128.134 461.753 129.711L359.154 166.196C356.363 167.189 355.043 170.378 356.314 173.054L392.89 250H337.363L298.054 231.314C295.378 230.043 292.189 231.363 291.196 234.154L285.562 250H214.438L208.804 234.154C207.811 231.363 204.622 230.042 201.946 231.314L162.637 250H107.11L143.686 173.054C144.958 170.378 143.637 167.189 140.846 166.196L38.248 129.711C33.8151 128.135 33.8151 121.865 38.248 120.289L140.846 83.8037C143.637 82.8109 144.958 79.6222 143.686 76.9463L107.11 0H162.637L201.946 18.6855C204.622 19.9575 207.811 18.6371 208.804 15.8457L214.438 0H285.562L291.196 15.8457C292.189 18.6372 295.378 19.9575 298.054 18.6855L337.363 0H392.89L356.314 76.9463Z" fill="#5FB4F1"/>
<path d="M245.289 13.2475C246.865 8.81453 253.135 8.81453 254.711 13.2475L272.062 62.0394C273.055 64.831 276.244 66.1519 278.92 64.8799L325.69 42.6479C329.939 40.628 334.372 45.0609 332.352 49.3102L310.12 96.0804C308.848 98.7563 310.169 101.945 312.961 102.938L361.753 120.289C366.185 121.865 366.185 128.135 361.753 129.711L312.961 147.062C310.169 148.055 308.848 151.244 310.12 153.92L332.352 200.69C334.372 204.939 329.939 209.372 325.69 207.352L278.92 185.12C276.244 183.848 273.055 185.169 272.062 187.961L254.711 236.753C253.135 241.185 246.865 241.185 245.289 236.753L227.938 187.961C226.945 185.169 223.756 183.848 221.08 185.12L174.31 207.352C170.061 209.372 165.628 204.939 167.648 200.69L189.88 153.92C191.152 151.244 189.831 148.055 187.039 147.062L138.247 129.711C133.815 128.135 133.815 121.865 138.247 120.289L187.039 102.938C189.831 101.945 191.152 98.7563 189.88 96.0804L167.648 49.3102C165.628 45.0609 170.061 40.628 174.31 42.6479L221.08 64.8799C223.756 66.1519 226.945 64.831 227.938 62.0394L245.289 13.2475Z" fill="#0077CC"/>
<path d="M191.689 67.7282L220.097 84.9224L237.291 74.4564L247.757 88.6603L264.951 61.0001H291.117L306.068 74.4564L298.592 105.854L327 124.544L303.078 158.185L273.175 189.583L241.777 181.359L217.107 158.185L188.699 135.757L173 105.854L180.476 70.7185L191.689 67.7282Z" fill="url(#paint0_linear_196_360)"/>
<path d="M241.777 181.359L217.107 158.185L202.903 146.971L188.699 135.757L175.355 110.34L178.233 109.592L180.476 111.087L183.466 113.33L188.699 112.583L193.184 109.592L198.417 108.845L202.903 111.087L205.893 114.825L201.408 120.806L197.67 129.777L200.66 138L202.155 143.981L202.903 146.971L217.107 158.185L241.777 181.359L273.175 189.583L303.078 158.185V152.952L306.068 146.971L310.553 140.243V134.262L309.058 132.019L306.068 134.262L298.592 132.019L296.35 126.786L298.592 120.806L300.087 117.068L298.592 105.854L327 124.544L303.078 158.185L273.175 189.583L241.777 181.359Z" fill="url(#paint1_linear_196_360)"/>
<path d="M241.777 124.544L247.757 120.806L250.748 114.825H258.971L264.951 109.592L262.709 117.068L266.447 124.544L264.951 135.757L258.971 143.981L252.243 151.456V160.427H247.757L245.515 152.952L237.291 149.214L227.573 143.981L224.583 138V129.777L233.553 128.282L241.777 124.544Z" fill="url(#paint2_linear_196_360)"/>
<path d="M188.699 135.757L173 105.854L178.233 109.592L182.718 119.311L188.699 126.786L193.184 122.301V114.825L202.903 109.592L212.621 103.612H223.835L229.068 109.592L218.602 119.311L205.146 124.544L211.126 130.524L216.359 131.272L214.117 138V143.981L216.359 152.204L218.602 155.194L222.34 160.427L229.068 166.408L231.311 164.913L235.049 166.408H237.291L243.272 167.903L247.01 160.427L252.243 155.942L254.485 158.185L252.99 161.922L258.223 164.913L259.718 170.893L258.223 176.874L255.981 179.117L260.466 183.602L265.699 186.592H271.68L274.67 184.35L277.66 179.117L282.893 175.379L285.136 171.641L290.369 167.903L294.107 164.165L299.34 159.68L303.078 157.437L306.068 153.979L303.078 158.185L273.175 189.583L241.777 181.359L217.107 158.185L188.699 135.757Z" fill="url(#paint3_linear_196_360)"/>
<path d="M279.155 68.4758H282.146L284.388 66.2331L288.874 64.7379L295.602 66.2331L299.34 70.7185L298.592 72.9612H296.35L291.117 73.7088L286.631 75.2039L283.641 80.437L281.398 85.67H276.913V82.6797L272.427 81.9321L270.184 81.1845V77.4467L273.922 75.2039L276.913 72.9612L278.408 70.7185L279.155 68.4758Z" fill="url(#paint4_linear_196_360)"/>
<defs>
<linearGradient id="paint0_linear_196_360" x1="250" y1="61.0001" x2="250" y2="189.583" gradientUnits="userSpaceOnUse">
<stop stop-color="#F1C862"/>
<stop offset="1" stop-color="#BF8D29"/>
</linearGradient>
<linearGradient id="paint1_linear_196_360" x1="250" y1="61.0001" x2="250" y2="189.583" gradientUnits="userSpaceOnUse">
<stop stop-color="#F1CE77"/>
<stop offset="1" stop-color="#AF7D19"/>
</linearGradient>
<linearGradient id="paint2_linear_196_360" x1="250" y1="61.0001" x2="250" y2="189.583" gradientUnits="userSpaceOnUse">
<stop stop-color="#F1CE77"/>
<stop offset="1" stop-color="#AF7D19"/>
</linearGradient>
<linearGradient id="paint3_linear_196_360" x1="250" y1="61.0001" x2="250" y2="189.583" gradientUnits="userSpaceOnUse">
<stop stop-color="#A6530A"/>
<stop offset="1" stop-color="#6E4B04"/>
</linearGradient>
<linearGradient id="paint4_linear_196_360" x1="250" y1="61.0001" x2="250" y2="189.583" gradientUnits="userSpaceOnUse">
<stop stop-color="#A6530A"/>
<stop offset="1" stop-color="#6E4B04"/>
</linearGradient>
</defs>
</svg>
