<svg width="770" height="544" viewBox="0 0 770 544" fill="none" xmlns="http://www.w3.org/2000/svg">
<rect x="5" y="5" width="760" height="534" fill="white" stroke="white" stroke-width="10"/>
<g clip-path="url(#clip0_538_1411)">
<path d="M760 10H645V125H760V10Z" fill="#0077CC"/>
<path d="M708.764 26.1001C711.94 26.1001 714.514 28.6745 714.514 31.8501V64.6869L734.967 100.592C737.15 104.425 734.382 109.188 729.971 109.188H676.058C671.646 109.187 668.878 104.425 671.061 100.592L691.514 64.6869V31.8501C691.514 28.6745 694.089 26.1002 697.264 26.1001H708.764Z" fill="#0077CC"/>
<path d="M714.514 64.6869H711.639V65.4483L712.016 66.1099L714.514 64.6869ZM691.514 64.6869L694.012 66.1099L694.389 65.4483V64.6869H691.514ZM708.764 26.1001V28.9751C710.352 28.9751 711.639 30.2623 711.639 31.8501H714.514H717.389C717.389 27.0867 713.528 23.2251 708.764 23.2251V26.1001ZM714.514 31.8501H711.639V64.6869H714.514H717.389V31.8501H714.514ZM714.514 64.6869L712.016 66.1099L732.469 102.015L734.967 100.592L737.465 99.1689L717.012 63.2638L714.514 64.6869ZM734.967 100.592L732.469 102.015C733.561 103.931 732.177 106.313 729.971 106.313V109.188V112.063C736.588 112.063 740.74 104.919 737.465 99.1689L734.967 100.592ZM729.971 109.188V106.313H676.058V109.188L676.058 112.063H729.971V109.188ZM676.058 109.188V106.313C673.852 106.312 672.468 103.931 673.56 102.015L671.061 100.592L668.563 99.1688C665.289 104.919 669.441 112.062 676.058 112.063L676.058 109.188ZM671.061 100.592L673.56 102.015L694.012 66.1099L691.514 64.6869L689.016 63.2638L668.563 99.1688L671.061 100.592ZM691.514 64.6869H694.389V31.8501H691.514H688.639V64.6869H691.514ZM691.514 31.8501H694.389C694.389 30.2624 695.676 28.9751 697.264 28.9751L697.264 26.1001V23.2251C692.501 23.2252 688.639 27.0866 688.639 31.8501H691.514ZM697.264 26.1001L697.264 28.9751H708.764V26.1001V23.2251H697.264V26.1001Z" fill="white"/>
<path d="M711.932 66.9255C712.123 66.9255 712.312 66.9373 712.5 66.9559L732.471 102.015C733.562 103.932 732.177 106.313 729.972 106.313H676.059C673.854 106.313 672.469 103.932 673.561 102.015L693.549 66.9255H711.932Z" fill="white"/>
<mask id="mask0_538_1411" style="mask-type:luminance" maskUnits="userSpaceOnUse" x="673" y="66" width="60" height="41">
<path d="M711.932 66.9255C712.123 66.9255 712.312 66.9373 712.5 66.9559L732.471 102.015C733.562 103.932 732.177 106.313 729.972 106.313H676.059C673.854 106.313 672.469 103.932 673.561 102.015L693.549 66.9255H711.932Z" fill="white"/>
</mask>
<g mask="url(#mask0_538_1411)">
<path d="M712.5 66.9559L715.497 65.2483L714.614 63.6982L712.839 63.5226L712.5 66.9559ZM693.549 66.9256V63.4756H691.544L690.552 65.2179L693.549 66.9256ZM711.932 66.9256V70.3756C711.982 70.3756 712.055 70.3787 712.16 70.3892L712.5 66.9559L712.839 63.5226C712.57 63.4961 712.264 63.4756 711.932 63.4756V66.9256ZM712.5 66.9559L709.502 68.6636L729.473 103.723L732.471 102.015L735.469 100.308L715.497 65.2483L712.5 66.9559ZM732.471 102.015L729.473 103.723C729.254 103.339 729.531 102.863 729.972 102.863L729.972 106.313V109.763C734.823 109.763 737.87 104.525 735.469 100.308L732.471 102.015ZM729.972 106.313L729.972 102.863H676.059V106.313L676.059 109.763H729.972V106.313ZM676.059 106.313V102.863C676.5 102.863 676.778 103.339 676.559 103.723L673.561 102.015L670.564 100.308C668.162 104.524 671.207 109.762 676.059 109.763L676.059 106.313ZM673.561 102.015L676.559 103.723L696.547 68.6332L693.549 66.9256L690.552 65.2179L670.564 100.308L673.561 102.015ZM693.549 66.9256V70.3756H711.932V66.9256V63.4756H693.549V66.9256Z" fill="#0077CC"/>
</g>
</g>
<path d="M223.075 45V23.8875H215.425V18.825H236.913V23.8875H229.263V45H223.075ZM254.665 45V32.175C254.665 31.075 254.39 30.2 253.84 29.55C253.29 28.9 252.565 28.575 251.665 28.575C250.64 28.575 249.69 28.925 248.815 29.625C247.965 30.3 247.065 31.475 246.115 33.15L245.29 28.2375C246.24 26.5875 247.39 25.425 248.74 24.75C250.09 24.05 251.465 23.7 252.865 23.7C254.465 23.7 255.827 24.0375 256.952 24.7125C258.102 25.3875 258.977 26.3375 259.577 27.5625C260.202 28.7625 260.515 30.175 260.515 31.8V45H254.665ZM240.752 45V17.2125H246.602V45H240.752ZM275.154 45.45C272.904 45.45 270.967 45.0125 269.342 44.1375C267.742 43.2625 266.504 42.0125 265.629 40.3875C264.754 38.7625 264.317 36.825 264.317 34.575C264.317 32.3 264.754 30.35 265.629 28.725C266.504 27.1 267.767 25.8625 269.417 25.0125C271.092 24.1375 273.104 23.7 275.454 23.7C279.129 23.7 281.792 24.75 283.442 26.85C285.117 28.925 285.817 31.7875 285.542 35.4375H268.967L269.004 31.425H279.579C279.504 30.475 279.079 29.7125 278.304 29.1375C277.529 28.5375 276.567 28.2375 275.417 28.2375C273.617 28.2375 272.292 28.8 271.442 29.925C270.592 31.05 270.167 32.6875 270.167 34.8375C270.167 35.9125 270.354 36.9 270.729 37.8C271.104 38.7 271.654 39.425 272.379 39.975C273.129 40.5 274.054 40.7625 275.154 40.7625C276.329 40.7625 277.317 40.475 278.117 39.9C278.942 39.325 279.442 38.6 279.617 37.725H285.467C285.217 40.1 284.167 41.9875 282.317 43.3875C280.492 44.7625 278.104 45.45 275.154 45.45ZM323.896 45.45C321.746 45.45 319.896 45.05 318.346 44.25C316.821 43.425 315.646 42.275 314.821 40.8C314.021 39.3 313.621 37.5375 313.621 35.5125H319.696C319.696 37.0875 320.034 38.3 320.709 39.15C321.409 39.975 322.471 40.3875 323.896 40.3875C325.021 40.3875 325.909 40.15 326.559 39.675C327.234 39.175 327.571 38.475 327.571 37.575C327.571 36.9 327.321 36.375 326.821 36C326.346 35.6 325.696 35.275 324.871 35.025C324.071 34.75 323.184 34.5 322.209 34.275C321.259 34.025 320.296 33.725 319.321 33.375C318.371 33.025 317.484 32.5625 316.659 31.9875C315.859 31.4125 315.209 30.6625 314.709 29.7375C314.234 28.8125 313.996 27.6375 313.996 26.2125C313.996 24.7375 314.396 23.4125 315.196 22.2375C316.021 21.0625 317.159 20.125 318.609 19.425C320.059 18.725 321.759 18.375 323.709 18.375C325.484 18.375 327.134 18.725 328.659 19.425C330.184 20.1 331.421 21.0875 332.371 22.3875C333.321 23.6875 333.821 25.2875 333.871 27.1875H327.684C327.634 26.3375 327.409 25.6375 327.009 25.0875C326.634 24.5375 326.146 24.125 325.546 23.85C324.971 23.575 324.359 23.4375 323.709 23.4375C322.784 23.4375 321.996 23.6625 321.346 24.1125C320.696 24.5375 320.371 25.175 320.371 26.025C320.371 26.675 320.609 27.1875 321.084 27.5625C321.584 27.9375 322.234 28.25 323.034 28.5C323.859 28.725 324.746 28.95 325.696 29.175C326.671 29.4 327.634 29.6875 328.584 30.0375C329.559 30.3625 330.446 30.825 331.246 31.425C332.071 32.025 332.721 32.825 333.196 33.825C333.696 34.8 333.946 36.05 333.946 37.575C333.946 39.1 333.509 40.4625 332.634 41.6625C331.784 42.8375 330.596 43.7625 329.071 44.4375C327.571 45.1125 325.846 45.45 323.896 45.45ZM348.436 45.45C346.236 45.45 344.336 45.0125 342.736 44.1375C341.161 43.2625 339.948 42.0125 339.098 40.3875C338.273 38.7625 337.861 36.825 337.861 34.575C337.861 32.275 338.298 30.3125 339.173 28.6875C340.073 27.0625 341.323 25.825 342.923 24.975C344.523 24.125 346.411 23.7 348.586 23.7C350.486 23.7 352.161 24.0375 353.611 24.7125C355.086 25.3875 356.248 26.3375 357.098 27.5625C357.973 28.7625 358.448 30.2 358.523 31.875H352.673C352.473 30.725 352.023 29.875 351.323 29.325C350.648 28.75 349.736 28.4625 348.586 28.4625C347.636 28.4625 346.786 28.7 346.036 29.175C345.311 29.65 344.736 30.3375 344.311 31.2375C343.911 32.1375 343.711 33.25 343.711 34.575C343.711 36.55 344.161 38.075 345.061 39.15C345.986 40.225 347.111 40.7625 348.436 40.7625C349.211 40.7625 349.886 40.625 350.461 40.35C351.061 40.075 351.561 39.6875 351.961 39.1875C352.361 38.6625 352.636 38.075 352.786 37.425H358.636C358.486 39.05 357.961 40.4625 357.061 41.6625C356.161 42.8625 354.973 43.8 353.498 44.475C352.023 45.125 350.336 45.45 348.436 45.45ZM369.6 45V24.15H375.45V45H369.6ZM362.85 45V40.275H382.275V45H362.85ZM365.475 28.875V24.15H372.525V28.875H365.475ZM369.375 21.375V15.9H375.6V21.375H369.375ZM397.103 45.45C394.853 45.45 392.915 45.0125 391.29 44.1375C389.69 43.2625 388.453 42.0125 387.578 40.3875C386.703 38.7625 386.265 36.825 386.265 34.575C386.265 32.3 386.703 30.35 387.578 28.725C388.453 27.1 389.715 25.8625 391.365 25.0125C393.04 24.1375 395.053 23.7 397.403 23.7C401.078 23.7 403.74 24.75 405.39 26.85C407.065 28.925 407.765 31.7875 407.49 35.4375H390.915L390.953 31.425H401.528C401.453 30.475 401.028 29.7125 400.253 29.1375C399.478 28.5375 398.515 28.2375 397.365 28.2375C395.565 28.2375 394.24 28.8 393.39 29.925C392.54 31.05 392.115 32.6875 392.115 34.8375C392.115 35.9125 392.303 36.9 392.678 37.8C393.053 38.7 393.603 39.425 394.328 39.975C395.078 40.5 396.003 40.7625 397.103 40.7625C398.278 40.7625 399.265 40.475 400.065 39.9C400.89 39.325 401.39 38.6 401.565 37.725H407.415C407.165 40.1 406.115 41.9875 404.265 43.3875C402.44 44.7625 400.053 45.45 397.103 45.45ZM425.392 45V32.1375C425.392 31.0625 425.117 30.2 424.567 29.55C424.017 28.9 423.292 28.575 422.392 28.575C421.367 28.575 420.417 28.925 419.542 29.625C418.692 30.3 417.792 31.475 416.842 33.15L416.017 28.2C416.967 26.575 418.117 25.425 419.467 24.75C420.817 24.05 422.192 23.7 423.592 23.7C425.192 23.7 426.555 24.0375 427.68 24.7125C428.83 25.3875 429.705 26.325 430.305 27.525C430.93 28.725 431.242 30.1375 431.242 31.7625V45H425.392ZM411.48 45V24.15H417.142L417.33 27.8625V45H411.48ZM445.994 45.45C443.794 45.45 441.894 45.0125 440.294 44.1375C438.719 43.2625 437.507 42.0125 436.657 40.3875C435.832 38.7625 435.419 36.825 435.419 34.575C435.419 32.275 435.857 30.3125 436.732 28.6875C437.632 27.0625 438.882 25.825 440.482 24.975C442.082 24.125 443.969 23.7 446.144 23.7C448.044 23.7 449.719 24.0375 451.169 24.7125C452.644 25.3875 453.807 26.3375 454.657 27.5625C455.532 28.7625 456.007 30.2 456.082 31.875H450.232C450.032 30.725 449.582 29.875 448.882 29.325C448.207 28.75 447.294 28.4625 446.144 28.4625C445.194 28.4625 444.344 28.7 443.594 29.175C442.869 29.65 442.294 30.3375 441.869 31.2375C441.469 32.1375 441.269 33.25 441.269 34.575C441.269 36.55 441.719 38.075 442.619 39.15C443.544 40.225 444.669 40.7625 445.994 40.7625C446.769 40.7625 447.444 40.625 448.019 40.35C448.619 40.075 449.119 39.6875 449.519 39.1875C449.919 38.6625 450.194 38.075 450.344 37.425H456.194C456.044 39.05 455.519 40.4625 454.619 41.6625C453.719 42.8625 452.532 43.8 451.057 44.475C449.582 45.125 447.894 45.45 445.994 45.45ZM470.271 45.45C468.021 45.45 466.084 45.0125 464.459 44.1375C462.859 43.2625 461.621 42.0125 460.746 40.3875C459.871 38.7625 459.434 36.825 459.434 34.575C459.434 32.3 459.871 30.35 460.746 28.725C461.621 27.1 462.884 25.8625 464.534 25.0125C466.209 24.1375 468.221 23.7 470.571 23.7C474.246 23.7 476.909 24.75 478.559 26.85C480.234 28.925 480.934 31.7875 480.659 35.4375H464.084L464.121 31.425H474.696C474.621 30.475 474.196 29.7125 473.421 29.1375C472.646 28.5375 471.684 28.2375 470.534 28.2375C468.734 28.2375 467.409 28.8 466.559 29.925C465.709 31.05 465.284 32.6875 465.284 34.8375C465.284 35.9125 465.471 36.9 465.846 37.8C466.221 38.7 466.771 39.425 467.496 39.975C468.246 40.5 469.171 40.7625 470.271 40.7625C471.446 40.7625 472.434 40.475 473.234 39.9C474.059 39.325 474.559 38.6 474.734 37.725H480.584C480.334 40.1 479.284 41.9875 477.434 43.3875C475.609 44.7625 473.221 45.45 470.271 45.45ZM513.351 36.7875V31.725H519.313C520.513 31.725 521.476 31.3625 522.201 30.6375C522.926 29.8875 523.288 28.9125 523.288 27.7125C523.288 26.5625 522.926 25.6375 522.201 24.9375C521.476 24.2375 520.513 23.8875 519.313 23.8875H513.351V18.825H519.351C521.426 18.825 523.238 19.1875 524.788 19.9125C526.338 20.6375 527.538 21.675 528.388 23.025C529.238 24.35 529.663 25.9125 529.663 27.7125C529.663 29.5375 529.238 31.1375 528.388 32.5125C527.538 33.8625 526.338 34.9125 524.788 35.6625C523.263 36.4125 521.451 36.7875 519.351 36.7875H513.351ZM508.926 45V18.825H515.113V45H508.926ZM547.715 34.575V31.7625C547.715 30.8125 547.465 30.05 546.965 29.475C546.465 28.875 545.715 28.575 544.715 28.575C543.59 28.575 542.528 28.95 541.528 29.7C540.528 30.45 539.578 31.75 538.678 33.6L538.078 28.6875C538.728 27.5875 539.44 26.675 540.215 25.95C540.99 25.2 541.84 24.6375 542.765 24.2625C543.715 23.8875 544.753 23.7 545.878 23.7C548.103 23.7 549.94 24.3875 551.39 25.7625C552.84 27.1125 553.565 29.1125 553.565 31.7625V34.575H547.715ZM533.803 45V24.15H539.428L539.653 27.9V45H533.803ZM567.83 45.45C565.58 45.45 563.643 45.0125 562.018 44.1375C560.418 43.2625 559.18 42.0125 558.305 40.3875C557.43 38.7625 556.993 36.825 556.993 34.575C556.993 32.3 557.43 30.35 558.305 28.725C559.18 27.1 560.443 25.8625 562.093 25.0125C563.768 24.1375 565.78 23.7 568.13 23.7C571.805 23.7 574.468 24.75 576.118 26.85C577.793 28.925 578.493 31.7875 578.218 35.4375H561.643L561.68 31.425H572.255C572.18 30.475 571.755 29.7125 570.98 29.1375C570.205 28.5375 569.243 28.2375 568.093 28.2375C566.293 28.2375 564.968 28.8 564.118 29.925C563.268 31.05 562.843 32.6875 562.843 34.8375C562.843 35.9125 563.03 36.9 563.405 37.8C563.78 38.7 564.33 39.425 565.055 39.975C565.805 40.5 566.73 40.7625 567.83 40.7625C569.005 40.7625 569.993 40.475 570.793 39.9C571.618 39.325 572.118 38.6 572.293 37.725H578.143C577.893 40.1 576.843 41.9875 574.993 43.3875C573.168 44.7625 570.78 45.45 567.83 45.45ZM592.557 45.45C590.607 45.45 588.895 45.1375 587.42 44.5125C585.945 43.8625 584.795 42.95 583.97 41.775C583.17 40.575 582.757 39.1625 582.732 37.5375H588.17C588.12 38.6875 588.482 39.5875 589.257 40.2375C590.057 40.8875 591.145 41.2125 592.52 41.2125C593.52 41.2125 594.32 41.05 594.92 40.725C595.545 40.375 595.857 39.9 595.857 39.3C595.857 38.775 595.62 38.3625 595.145 38.0625C594.695 37.7375 594.095 37.4875 593.345 37.3125C592.595 37.1125 591.77 36.925 590.87 36.75C589.97 36.55 589.057 36.3125 588.132 36.0375C587.232 35.7625 586.407 35.4 585.657 34.95C584.907 34.475 584.295 33.8625 583.82 33.1125C583.37 32.3375 583.145 31.375 583.145 30.225C583.145 28.9 583.52 27.75 584.27 26.775C585.02 25.8 586.057 25.05 587.382 24.525C588.732 23.975 590.282 23.7 592.032 23.7C594.707 23.7 596.87 24.325 598.52 25.575C600.195 26.8 601.12 28.525 601.295 30.75H595.895C595.845 29.825 595.47 29.125 594.77 28.65C594.07 28.175 593.17 27.9375 592.07 27.9375C591.145 27.9375 590.407 28.1 589.857 28.425C589.307 28.75 589.032 29.2375 589.032 29.8875C589.032 30.4125 589.257 30.825 589.707 31.125C590.182 31.4 590.795 31.625 591.545 31.8C592.295 31.975 593.12 32.1375 594.02 32.2875C594.945 32.4375 595.857 32.65 596.757 32.925C597.657 33.175 598.482 33.525 599.232 33.975C599.982 34.425 600.582 35.025 601.032 35.775C601.507 36.525 601.745 37.4875 601.745 38.6625C601.745 40.7875 600.907 42.45 599.232 43.65C597.582 44.85 595.357 45.45 592.557 45.45ZM616.947 45.45C614.997 45.45 613.284 45.1375 611.809 44.5125C610.334 43.8625 609.184 42.95 608.359 41.775C607.559 40.575 607.147 39.1625 607.122 37.5375H612.559C612.509 38.6875 612.872 39.5875 613.647 40.2375C614.447 40.8875 615.534 41.2125 616.909 41.2125C617.909 41.2125 618.709 41.05 619.309 40.725C619.934 40.375 620.247 39.9 620.247 39.3C620.247 38.775 620.009 38.3625 619.534 38.0625C619.084 37.7375 618.484 37.4875 617.734 37.3125C616.984 37.1125 616.159 36.925 615.259 36.75C614.359 36.55 613.447 36.3125 612.522 36.0375C611.622 35.7625 610.797 35.4 610.047 34.95C609.297 34.475 608.684 33.8625 608.209 33.1125C607.759 32.3375 607.534 31.375 607.534 30.225C607.534 28.9 607.909 27.75 608.659 26.775C609.409 25.8 610.447 25.05 611.772 24.525C613.122 23.975 614.672 23.7 616.422 23.7C619.097 23.7 621.259 24.325 622.909 25.575C624.584 26.8 625.509 28.525 625.684 30.75H620.284C620.234 29.825 619.859 29.125 619.159 28.65C618.459 28.175 617.559 27.9375 616.459 27.9375C615.534 27.9375 614.797 28.1 614.247 28.425C613.697 28.75 613.422 29.2375 613.422 29.8875C613.422 30.4125 613.647 30.825 614.097 31.125C614.572 31.4 615.184 31.625 615.934 31.8C616.684 31.975 617.509 32.1375 618.409 32.2875C619.334 32.4375 620.247 32.65 621.147 32.925C622.047 33.175 622.872 33.525 623.622 33.975C624.372 34.425 624.972 35.025 625.422 35.775C625.897 36.525 626.134 37.4875 626.134 38.6625C626.134 40.7875 625.297 42.45 623.622 43.65C621.972 44.85 619.747 45.45 616.947 45.45Z" fill="#0077CC"/>
<circle cx="160" cy="384" r="150" fill="url(#paint0_radial_538_1411)"/>
<path d="M160 379C157.239 379 155 381.239 155 384C155 386.761 157.239 389 160 389V384V379ZM363.536 387.536C365.488 385.583 365.488 382.417 363.536 380.464L331.716 348.645C329.763 346.692 326.597 346.692 324.645 348.645C322.692 350.597 322.692 353.763 324.645 355.716L352.929 384L324.645 412.284C322.692 414.237 322.692 417.403 324.645 419.355C326.597 421.308 329.763 421.308 331.716 419.355L363.536 387.536ZM160 384V389H360V384V379H160V384Z" fill="#1F3647"/>
<circle cx="610" cy="384" r="150" fill="url(#paint1_radial_538_1411)"/>
<path d="M610 389C612.761 389 615 386.761 615 384C615 381.239 612.761 379 610 379V384V389ZM406.464 380.464C404.512 382.417 404.512 385.583 406.464 387.536L438.284 419.355C440.237 421.308 443.403 421.308 445.355 419.355C447.308 417.403 447.308 414.237 445.355 412.284L417.071 384L445.355 355.716C447.308 353.763 447.308 350.597 445.355 348.645C443.403 346.692 440.237 346.692 438.284 348.645L406.464 380.464ZM610 384V379H410V384V389H610V384Z" fill="#1F3647"/>
<path d="M119.55 182V147.1H130.05L139.8 171.8L139.25 159.1V147.1H147V182H136.5L126.65 157.75L127.3 170V182H119.55ZM165.77 182.6C162.803 182.6 160.253 182.017 158.12 180.85C155.986 179.683 154.336 178.017 153.17 175.85C152.036 173.683 151.47 171.1 151.47 168.1C151.47 165.067 152.036 162.483 153.17 160.35C154.336 158.183 155.986 156.517 158.12 155.35C160.253 154.183 162.803 153.6 165.77 153.6C170.236 153.6 173.72 154.883 176.22 157.45C178.753 160.017 180.02 163.567 180.02 168.1C180.02 171.1 179.453 173.683 178.32 175.85C177.186 178.017 175.553 179.683 173.42 180.85C171.286 182.017 168.736 182.6 165.77 182.6ZM165.77 176.3C167.77 176.3 169.336 175.567 170.47 174.1C171.636 172.633 172.22 170.633 172.22 168.1C172.22 165.533 171.636 163.533 170.47 162.1C169.336 160.633 167.77 159.9 165.77 159.9C163.736 159.9 162.136 160.633 160.97 162.1C159.836 163.533 159.27 165.533 159.27 168.1C159.27 170.633 159.836 172.633 160.97 174.1C162.136 175.567 163.736 176.3 165.77 176.3ZM203.739 182V164.85C203.739 163.417 203.372 162.267 202.639 161.4C201.906 160.533 200.939 160.1 199.739 160.1C198.372 160.1 197.106 160.567 195.939 161.5C194.806 162.4 193.606 163.967 192.339 166.2L191.239 159.6C192.506 157.433 194.039 155.9 195.839 155C197.639 154.067 199.472 153.6 201.339 153.6C203.472 153.6 205.289 154.05 206.789 154.95C208.322 155.85 209.489 157.1 210.289 158.7C211.122 160.3 211.539 162.183 211.539 164.35V182H203.739ZM185.189 182V154.2H192.739L192.989 159.15V182H185.189ZM222.409 170V163.25H239.159V170H222.409ZM263.678 182.6C260.545 182.6 257.828 181.867 255.528 180.4C253.261 178.9 251.495 176.8 250.228 174.1C248.995 171.367 248.378 168.183 248.378 164.55C248.378 160.883 249.011 157.7 250.278 155C251.545 152.3 253.345 150.217 255.678 148.75C258.011 147.25 260.778 146.5 263.978 146.5C266.478 146.5 268.778 146.983 270.878 147.95C272.978 148.917 274.695 150.317 276.028 152.15C277.395 153.983 278.145 156.217 278.278 158.85H269.278C269.111 157.15 268.578 155.8 267.678 154.8C266.778 153.767 265.545 153.25 263.978 153.25C262.645 153.25 261.428 153.683 260.328 154.55C259.261 155.383 258.411 156.65 257.778 158.35C257.178 160.017 256.878 162.083 256.878 164.55C256.878 166.983 257.178 169.05 257.778 170.75C258.378 172.417 259.178 173.683 260.178 174.55C261.211 175.417 262.378 175.85 263.678 175.85C264.778 175.85 265.728 175.633 266.528 175.2C267.361 174.733 268.028 174.067 268.528 173.2C269.061 172.333 269.378 171.283 269.478 170.05H278.478C278.211 172.617 277.445 174.85 276.178 176.75C274.945 178.617 273.278 180.067 271.178 181.1C269.078 182.1 266.578 182.6 263.678 182.6ZM295.848 182.6C292.881 182.6 290.331 182.017 288.198 180.85C286.064 179.683 284.414 178.017 283.248 175.85C282.114 173.683 281.548 171.1 281.548 168.1C281.548 165.067 282.114 162.483 283.248 160.35C284.414 158.183 286.064 156.517 288.198 155.35C290.331 154.183 292.881 153.6 295.848 153.6C300.314 153.6 303.798 154.883 306.298 157.45C308.831 160.017 310.098 163.567 310.098 168.1C310.098 171.1 309.531 173.683 308.398 175.85C307.264 178.017 305.631 179.683 303.498 180.85C301.364 182.017 298.814 182.6 295.848 182.6ZM295.848 176.3C297.848 176.3 299.414 175.567 300.548 174.1C301.714 172.633 302.298 170.633 302.298 168.1C302.298 165.533 301.714 163.533 300.548 162.1C299.414 160.633 297.848 159.9 295.848 159.9C293.814 159.9 292.214 160.633 291.048 162.1C289.914 163.533 289.348 165.533 289.348 168.1C289.348 170.633 289.914 172.633 291.048 174.1C292.214 175.567 293.814 176.3 295.848 176.3ZM333.817 182V164.85C333.817 163.417 333.451 162.267 332.717 161.4C331.984 160.533 331.017 160.1 329.817 160.1C328.451 160.1 327.184 160.567 326.017 161.5C324.884 162.4 323.684 163.967 322.417 166.2L321.317 159.6C322.584 157.433 324.117 155.9 325.917 155C327.717 154.067 329.551 153.6 331.417 153.6C333.551 153.6 335.367 154.05 336.867 154.95C338.401 155.85 339.567 157.1 340.367 158.7C341.201 160.3 341.617 162.183 341.617 164.35V182H333.817ZM315.267 182V154.2H322.817L323.067 159.15V182H315.267ZM363.137 182C361.27 182 359.62 181.583 358.187 180.75C356.787 179.883 355.703 178.7 354.937 177.2C354.17 175.667 353.787 173.933 353.787 172V149.55L361.587 146.05V172C361.587 172.867 361.703 173.583 361.937 174.15C362.203 174.683 362.67 175.083 363.337 175.35C364.037 175.583 365.003 175.7 366.237 175.7H373.287V182H363.137ZM348.287 160.5V154.2H368.337V160.5H348.287ZM398.806 182L398.556 177V163.3C398.556 162 398.073 160.983 397.106 160.25C396.14 159.483 394.806 159.1 393.106 159.1C391.473 159.1 390.14 159.45 389.106 160.15C388.106 160.817 387.523 161.767 387.356 163H379.806C379.973 161.033 380.64 159.35 381.806 157.95C382.973 156.55 384.54 155.483 386.506 154.75C388.506 153.983 390.823 153.6 393.456 153.6C396.056 153.6 398.323 154 400.256 154.8C402.19 155.567 403.673 156.717 404.706 158.25C405.773 159.75 406.306 161.6 406.306 163.8V182H398.806ZM389.906 182.6C388.073 182.6 386.456 182.25 385.056 181.55C383.656 180.817 382.573 179.817 381.806 178.55C381.04 177.283 380.656 175.85 380.656 174.25C380.656 171.383 381.756 169.167 383.956 167.6C386.19 166 389.256 165.2 393.156 165.2H399.306V170.6L392.956 170.65C391.523 170.65 390.373 170.917 389.506 171.45C388.673 171.95 388.256 172.717 388.256 173.75C388.256 174.483 388.556 175.117 389.156 175.65C389.79 176.183 390.673 176.45 391.806 176.45C393.373 176.45 394.756 176.067 395.956 175.3C397.19 174.5 398.206 173.417 399.006 172.05L399.856 177.3C399.023 179.133 397.74 180.483 396.006 181.35C394.306 182.183 392.273 182.6 389.906 182.6ZM426.326 182.6C423.392 182.6 420.859 182.017 418.726 180.85C416.626 179.683 415.009 178.017 413.876 175.85C412.776 173.683 412.226 171.1 412.226 168.1C412.226 165.033 412.809 162.417 413.976 160.25C415.176 158.083 416.842 156.433 418.976 155.3C421.109 154.167 423.626 153.6 426.526 153.6C429.059 153.6 431.292 154.05 433.226 154.95C435.192 155.85 436.742 157.117 437.876 158.75C439.042 160.35 439.676 162.267 439.776 164.5H431.976C431.709 162.967 431.109 161.833 430.176 161.1C429.276 160.333 428.059 159.95 426.526 159.95C425.259 159.95 424.126 160.267 423.126 160.9C422.159 161.533 421.392 162.45 420.826 163.65C420.292 164.85 420.026 166.333 420.026 168.1C420.026 170.733 420.626 172.767 421.826 174.2C423.059 175.633 424.559 176.35 426.326 176.35C427.359 176.35 428.259 176.167 429.026 175.8C429.826 175.433 430.492 174.917 431.026 174.25C431.559 173.55 431.926 172.767 432.126 171.9H439.926C439.726 174.067 439.026 175.95 437.826 177.55C436.626 179.15 435.042 180.4 433.076 181.3C431.109 182.167 428.859 182.6 426.326 182.6ZM460.695 182C458.829 182 457.179 181.583 455.745 180.75C454.345 179.883 453.262 178.7 452.495 177.2C451.729 175.667 451.345 173.933 451.345 172V149.55L459.145 146.05V172C459.145 172.867 459.262 173.583 459.495 174.15C459.762 174.683 460.229 175.083 460.895 175.35C461.595 175.583 462.562 175.7 463.795 175.7H470.845V182H460.695ZM445.845 160.5V154.2H465.895V160.5H445.845ZM510.384 182V147.1H536.734V153.85H518.634V160.6H530.484V167.35H518.634V182H510.384ZM556.004 182.6C553.037 182.6 550.487 182.017 548.354 180.85C546.221 179.683 544.571 178.017 543.404 175.85C542.271 173.683 541.704 171.1 541.704 168.1C541.704 165.067 542.271 162.483 543.404 160.35C544.571 158.183 546.221 156.517 548.354 155.35C550.487 154.183 553.037 153.6 556.004 153.6C560.471 153.6 563.954 154.883 566.454 157.45C568.987 160.017 570.254 163.567 570.254 168.1C570.254 171.1 569.687 173.683 568.554 175.85C567.421 178.017 565.787 179.683 563.654 180.85C561.521 182.017 558.971 182.6 556.004 182.6ZM556.004 176.3C558.004 176.3 559.571 175.567 560.704 174.1C561.871 172.633 562.454 170.633 562.454 168.1C562.454 165.533 561.871 163.533 560.704 162.1C559.571 160.633 558.004 159.9 556.004 159.9C553.971 159.9 552.371 160.633 551.204 162.1C550.071 163.533 549.504 165.533 549.504 168.1C549.504 170.633 550.071 172.633 551.204 174.1C552.371 175.567 553.971 176.3 556.004 176.3ZM594.473 168.1V164.35C594.473 163.083 594.14 162.067 593.473 161.3C592.807 160.5 591.807 160.1 590.473 160.1C588.973 160.1 587.557 160.6 586.223 161.6C584.89 162.6 583.623 164.333 582.423 166.8L581.623 160.25C582.49 158.783 583.44 157.567 584.473 156.6C585.507 155.6 586.64 154.85 587.873 154.35C589.14 153.85 590.523 153.6 592.023 153.6C594.99 153.6 597.44 154.517 599.373 156.35C601.307 158.15 602.273 160.817 602.273 164.35V168.1H594.473ZM575.923 182V154.2H583.423L583.723 159.2V182H575.923ZM621.443 182.6C618.51 182.6 615.976 182.017 613.843 180.85C611.743 179.683 610.126 178.017 608.993 175.85C607.893 173.683 607.343 171.1 607.343 168.1C607.343 165.033 607.926 162.417 609.093 160.25C610.293 158.083 611.96 156.433 614.093 155.3C616.226 154.167 618.743 153.6 621.643 153.6C624.176 153.6 626.41 154.05 628.343 154.95C630.31 155.85 631.86 157.117 632.993 158.75C634.16 160.35 634.793 162.267 634.893 164.5H627.093C626.826 162.967 626.226 161.833 625.293 161.1C624.393 160.333 623.176 159.95 621.643 159.95C620.376 159.95 619.243 160.267 618.243 160.9C617.276 161.533 616.51 162.45 615.943 163.65C615.41 164.85 615.143 166.333 615.143 168.1C615.143 170.733 615.743 172.767 616.943 174.2C618.176 175.633 619.676 176.35 621.443 176.35C622.476 176.35 623.376 176.167 624.143 175.8C624.943 175.433 625.61 174.917 626.143 174.25C626.676 173.55 627.043 172.767 627.243 171.9H635.043C634.843 174.067 634.143 175.95 632.943 177.55C631.743 179.15 630.16 180.4 628.193 181.3C626.226 182.167 623.976 182.6 621.443 182.6ZM653.813 182.6C650.813 182.6 648.229 182.017 646.063 180.85C643.929 179.683 642.279 178.017 641.113 175.85C639.946 173.683 639.363 171.1 639.363 168.1C639.363 165.067 639.946 162.467 641.113 160.3C642.279 158.133 643.963 156.483 646.163 155.35C648.396 154.183 651.079 153.6 654.213 153.6C659.113 153.6 662.663 155 664.862 157.8C667.096 160.567 668.029 164.383 667.663 169.25H645.563L645.613 163.9H659.713C659.613 162.633 659.046 161.617 658.013 160.85C656.979 160.05 655.696 159.65 654.163 159.65C651.763 159.65 649.996 160.4 648.863 161.9C647.729 163.4 647.163 165.583 647.163 168.45C647.163 169.883 647.413 171.2 647.913 172.4C648.413 173.6 649.146 174.567 650.113 175.3C651.113 176 652.346 176.35 653.813 176.35C655.379 176.35 656.696 175.967 657.763 175.2C658.863 174.433 659.529 173.467 659.763 172.3H667.563C667.229 175.467 665.829 177.983 663.363 179.85C660.929 181.683 657.746 182.6 653.813 182.6ZM686.782 182.6C684.182 182.6 681.899 182.183 679.932 181.35C677.965 180.483 676.432 179.267 675.332 177.7C674.265 176.1 673.715 174.217 673.682 172.05H680.932C680.865 173.583 681.349 174.783 682.382 175.65C683.449 176.517 684.899 176.95 686.732 176.95C688.065 176.95 689.132 176.733 689.932 176.3C690.765 175.833 691.182 175.2 691.182 174.4C691.182 173.7 690.865 173.15 690.232 172.75C689.632 172.317 688.832 171.983 687.832 171.75C686.832 171.483 685.732 171.233 684.532 171C683.332 170.733 682.115 170.417 680.882 170.05C679.682 169.683 678.582 169.2 677.582 168.6C676.582 167.967 675.765 167.15 675.132 166.15C674.532 165.117 674.232 163.833 674.232 162.3C674.232 160.533 674.732 159 675.732 157.7C676.732 156.4 678.115 155.4 679.882 154.7C681.682 153.967 683.749 153.6 686.082 153.6C689.649 153.6 692.532 154.433 694.732 156.1C696.965 157.733 698.199 160.033 698.432 163H691.232C691.165 161.767 690.665 160.833 689.732 160.2C688.799 159.567 687.599 159.25 686.132 159.25C684.899 159.25 683.915 159.467 683.182 159.9C682.449 160.333 682.082 160.983 682.082 161.85C682.082 162.55 682.382 163.1 682.982 163.5C683.615 163.867 684.432 164.167 685.432 164.4C686.432 164.633 687.532 164.85 688.732 165.05C689.965 165.25 691.182 165.533 692.382 165.9C693.582 166.233 694.682 166.7 695.682 167.3C696.682 167.9 697.482 168.7 698.082 169.7C698.715 170.7 699.032 171.983 699.032 173.55C699.032 176.383 697.915 178.6 695.682 180.2C693.482 181.8 690.515 182.6 686.782 182.6Z" fill="black"/>
<defs>
<radialGradient id="paint0_radial_538_1411" cx="0" cy="0" r="1" gradientUnits="userSpaceOnUse" gradientTransform="translate(212.5 333) rotate(136.081) scale(224.9)">
<stop stop-color="#5FB4F1"/>
<stop offset="1" stop-color="#0077CC"/>
</radialGradient>
<radialGradient id="paint1_radial_538_1411" cx="0" cy="0" r="1" gradientUnits="userSpaceOnUse" gradientTransform="translate(662.5 333) rotate(136.081) scale(224.9)">
<stop stop-color="#F1775F"/>
<stop offset="1" stop-color="#BD2915"/>
</radialGradient>
<clipPath id="clip0_538_1411">
<rect width="115" height="115" fill="white" transform="translate(645 10)"/>
</clipPath>
</defs>
</svg>
