<svg width="619" height="520" viewBox="0 0 619 520" fill="none" xmlns="http://www.w3.org/2000/svg">
<rect x="5" y="5" width="609" height="510" fill="white" stroke="white" stroke-width="10"/>
<g clip-path="url(#clip0_737_33)">
<path d="M609 10H529V90H609V10Z" fill="#0077CC"/>
<path d="M573.358 21.2C575.567 21.2 577.358 22.9908 577.358 25.2V48.0429L591.586 73.0203C593.105 75.6868 591.179 79 588.11 79H550.605C547.537 78.9998 545.611 75.6868 547.13 73.0203L561.358 48.0429V25.2C561.358 22.9908 563.149 21.2 565.358 21.2H573.358Z" fill="#0077CC"/>
<path d="M577.358 48.0429H575.358V48.5726L575.62 49.0328L577.358 48.0429ZM561.358 48.0429L563.096 49.0328L563.358 48.5726V48.0429H561.358ZM573.358 21.2V23.2C574.462 23.2 575.358 24.0954 575.358 25.2H577.358H579.358C579.358 21.8863 576.672 19.2 573.358 19.2V21.2ZM577.358 25.2H575.358V48.0429H577.358H579.358V25.2H577.358ZM577.358 48.0429L575.62 49.0328L589.848 74.0102L591.586 73.0203L593.324 72.0304L579.096 47.053L577.358 48.0429ZM591.586 73.0203L589.848 74.0102C590.607 75.3435 589.645 77 588.11 77V79V81C592.713 81 595.602 76.0303 593.324 72.0304L591.586 73.0203ZM588.11 79V77H550.605V79L550.605 81H588.11V79ZM550.605 79V77C549.071 76.9999 548.108 75.3432 548.868 74.01L547.13 73.0203L545.392 72.0304C543.114 76.0302 546.003 80.9997 550.605 81L550.605 79ZM547.13 73.0203L548.868 74.01L563.096 49.0328L561.358 48.0429L559.62 47.053L545.392 72.0304L547.13 73.0203ZM561.358 48.0429H563.358V25.2H561.358H559.358V48.0429H561.358ZM561.358 25.2H563.358C563.358 24.0955 564.253 23.2 565.358 23.2L565.358 21.2V19.2C562.044 19.2 559.358 21.8862 559.358 25.2H561.358ZM565.358 21.2L565.358 23.2H573.358V21.2V19.2H565.358V21.2Z" fill="white"/>
<path d="M575.562 49.6003C575.694 49.6003 575.826 49.6085 575.956 49.6215L589.849 74.0105C590.608 75.3436 589.645 77.0002 588.111 77.0003H550.606C549.072 77.0001 548.109 75.3439 548.869 74.0105L562.773 49.6003H575.562Z" fill="white"/>
<mask id="mask0_737_33" style="mask-type:luminance" maskUnits="userSpaceOnUse" x="548" y="49" width="43" height="29">
<path d="M575.562 49.6003C575.694 49.6003 575.826 49.6085 575.956 49.6215L589.849 74.0105C590.608 75.3436 589.645 77.0002 588.111 77.0003H550.606C549.072 77.0001 548.109 75.3439 548.869 74.0105L562.773 49.6003H575.562Z" fill="white"/>
</mask>
<g mask="url(#mask0_737_33)">
<path d="M575.956 49.6216L578.041 48.4336L577.427 47.3553L576.192 47.2332L575.956 49.6216ZM562.773 49.6004V47.2004H561.378L560.688 48.4125L562.773 49.6004ZM575.561 49.6004V52.0004C575.596 52.0004 575.646 52.0026 575.72 52.0099L575.956 49.6216L576.192 47.2332C576.005 47.2147 575.792 47.2004 575.561 47.2004V49.6004ZM575.956 49.6216L573.87 50.8095L587.763 75.1985L589.849 74.0106L591.934 72.8231L578.041 48.4336L575.956 49.6216ZM589.849 74.0106L587.763 75.1985C587.611 74.9312 587.804 74.6004 588.11 74.6004L588.111 77.0004V79.4004C591.485 79.4 593.605 75.7565 591.934 72.8231L589.849 74.0106ZM588.111 77.0004L588.11 74.6004H550.606V77.0004L550.606 79.4004H588.111V77.0004ZM550.606 77.0004V74.6004C550.913 74.6004 551.106 74.9317 550.954 75.1984L548.868 74.0106L546.783 72.8227C545.112 75.7561 547.231 79.4 550.606 79.4004L550.606 77.0004ZM548.868 74.0106L550.954 75.1984L564.858 50.7884L562.773 49.6004L560.688 48.4125L546.783 72.8227L548.868 74.0106ZM562.773 49.6004V52.0004H575.561V49.6004V47.2004H562.773V49.6004Z" fill="#0077CC"/>
</g>
</g>
<path d="M204.824 36V20.1234H199.072V16.3164H215.23V20.1234H209.477V36H204.824ZM228.58 36V26.3556C228.58 25.5284 228.373 24.8704 227.959 24.3816C227.546 23.8928 227.001 23.6484 226.324 23.6484C225.553 23.6484 224.839 23.9116 224.181 24.438C223.541 24.9456 222.865 25.8292 222.15 27.0888L221.53 23.3946C222.244 22.1538 223.109 21.2796 224.124 20.772C225.139 20.2456 226.173 19.9824 227.226 19.9824C228.429 19.9824 229.454 20.2362 230.3 20.7438C231.165 21.2514 231.823 21.9658 232.274 22.887C232.744 23.7894 232.979 24.8516 232.979 26.0736V36H228.58ZM218.118 36V15.1038H222.517V36H218.118ZM243.988 36.3384C242.296 36.3384 240.839 36.0094 239.617 35.3514C238.414 34.6934 237.483 33.7534 236.825 32.5314C236.167 31.3094 235.838 29.8524 235.838 28.1604C235.838 26.4496 236.167 24.9832 236.825 23.7612C237.483 22.5392 238.433 21.6086 239.673 20.9694C240.933 20.3114 242.446 19.9824 244.214 19.9824C246.977 19.9824 248.979 20.772 250.22 22.3512C251.48 23.9116 252.006 26.0642 251.799 28.809H239.335L239.363 25.7916H247.316C247.259 25.0772 246.94 24.5038 246.357 24.0714C245.774 23.6202 245.05 23.3946 244.185 23.3946C242.832 23.3946 241.835 23.8176 241.196 24.6636C240.557 25.5096 240.237 26.741 240.237 28.3578C240.237 29.1662 240.378 29.9088 240.66 30.5856C240.942 31.2624 241.356 31.8076 241.901 32.2212C242.465 32.616 243.161 32.8134 243.988 32.8134C244.872 32.8134 245.614 32.5972 246.216 32.1648C246.836 31.7324 247.212 31.1872 247.344 30.5292H251.743C251.555 32.3152 250.765 33.7346 249.374 34.7874C248.002 35.8214 246.206 36.3384 243.988 36.3384ZM280.642 36.3384C279.025 36.3384 277.634 36.0376 276.468 35.436C275.321 34.8156 274.438 33.9508 273.817 32.8416C273.216 31.7136 272.915 30.3882 272.915 28.8654H277.483C277.483 30.0498 277.737 30.9616 278.245 31.6008C278.771 32.2212 279.57 32.5314 280.642 32.5314C281.488 32.5314 282.155 32.3528 282.644 31.9956C283.152 31.6196 283.405 31.0932 283.405 30.4164C283.405 29.9088 283.217 29.514 282.841 29.232C282.484 28.9312 281.995 28.6868 281.375 28.4988C280.773 28.292 280.106 28.104 279.373 27.9348C278.658 27.7468 277.935 27.5212 277.201 27.258C276.487 26.9948 275.82 26.647 275.199 26.2146C274.598 25.7822 274.109 25.2182 273.733 24.5226C273.376 23.827 273.197 22.9434 273.197 21.8718C273.197 20.7626 273.498 19.7662 274.099 18.8826C274.72 17.999 275.575 17.294 276.666 16.7676C277.756 16.2412 279.034 15.978 280.501 15.978C281.836 15.978 283.076 16.2412 284.223 16.7676C285.37 17.2752 286.301 18.0178 287.015 18.9954C287.729 19.973 288.105 21.1762 288.143 22.605H283.49C283.452 21.9658 283.283 21.4394 282.982 21.0258C282.7 20.6122 282.334 20.302 281.883 20.0952C281.45 19.8884 280.99 19.785 280.501 19.785C279.805 19.785 279.213 19.9542 278.724 20.2926C278.235 20.6122 277.991 21.0916 277.991 21.7308C277.991 22.2196 278.17 22.605 278.527 22.887C278.903 23.169 279.392 23.404 279.993 23.592C280.614 23.7612 281.281 23.9304 281.995 24.0996C282.729 24.2688 283.452 24.485 284.167 24.7482C284.9 24.9926 285.567 25.3404 286.169 25.7916C286.789 26.2428 287.278 26.8444 287.635 27.5964C288.011 28.3296 288.199 29.2696 288.199 30.4164C288.199 31.5632 287.87 32.5878 287.212 33.4902C286.573 34.3738 285.68 35.0694 284.533 35.577C283.405 36.0846 282.108 36.3384 280.642 36.3384ZM299.096 36.3384C297.441 36.3384 296.012 36.0094 294.809 35.3514C293.625 34.6934 292.713 33.7534 292.074 32.5314C291.453 31.3094 291.143 29.8524 291.143 28.1604C291.143 26.4308 291.472 24.955 292.13 23.733C292.807 22.511 293.747 21.5804 294.95 20.9412C296.153 20.302 297.573 19.9824 299.208 19.9824C300.637 19.9824 301.897 20.2362 302.987 20.7438C304.096 21.2514 304.971 21.9658 305.61 22.887C306.268 23.7894 306.625 24.8704 306.681 26.13H302.282C302.132 25.2652 301.793 24.626 301.267 24.2124C300.759 23.78 300.073 23.5638 299.208 23.5638C298.494 23.5638 297.855 23.7424 297.291 24.0996C296.746 24.4568 296.313 24.9738 295.994 25.6506C295.693 26.3274 295.542 27.164 295.542 28.1604C295.542 29.6456 295.881 30.7924 296.558 31.6008C297.253 32.4092 298.099 32.8134 299.096 32.8134C299.678 32.8134 300.186 32.71 300.618 32.5032C301.07 32.2964 301.446 32.005 301.746 31.629C302.047 31.2342 302.254 30.7924 302.367 30.3036H306.766C306.653 31.5256 306.258 32.5878 305.582 33.4902C304.905 34.3926 304.012 35.0976 302.903 35.6052C301.793 36.094 300.524 36.3384 299.096 36.3384ZM315.011 36V20.3208H319.411V36H315.011ZM309.935 36V32.4468H324.543V36H309.935ZM311.909 23.874V20.3208H317.211V23.874H311.909ZM314.842 18.234V14.1168H319.523V18.234H314.842ZM335.693 36.3384C334.001 36.3384 332.544 36.0094 331.322 35.3514C330.119 34.6934 329.188 33.7534 328.53 32.5314C327.872 31.3094 327.543 29.8524 327.543 28.1604C327.543 26.4496 327.872 24.9832 328.53 23.7612C329.188 22.5392 330.138 21.6086 331.379 20.9694C332.638 20.3114 334.152 19.9824 335.919 19.9824C338.682 19.9824 340.685 20.772 341.925 22.3512C343.185 23.9116 343.711 26.0642 343.505 28.809H331.04L331.068 25.7916H339.021C338.964 25.0772 338.645 24.5038 338.062 24.0714C337.479 23.6202 336.755 23.3946 335.891 23.3946C334.537 23.3946 333.541 23.8176 332.901 24.6636C332.262 25.5096 331.943 26.741 331.943 28.3578C331.943 29.1662 332.084 29.9088 332.366 30.5856C332.648 31.2624 333.061 31.8076 333.606 32.2212C334.17 32.616 334.866 32.8134 335.693 32.8134C336.577 32.8134 337.319 32.5972 337.921 32.1648C338.541 31.7324 338.917 31.1872 339.049 30.5292H343.448C343.26 32.3152 342.471 33.7346 341.079 34.7874C339.707 35.8214 337.912 36.3384 335.693 36.3384ZM356.967 36V26.3274C356.967 25.519 356.76 24.8704 356.347 24.3816C355.933 23.8928 355.388 23.6484 354.711 23.6484C353.94 23.6484 353.226 23.9116 352.568 24.438C351.929 24.9456 351.252 25.8292 350.537 27.0888L349.917 23.3664C350.631 22.1444 351.496 21.2796 352.511 20.772C353.527 20.2456 354.561 19.9824 355.613 19.9824C356.817 19.9824 357.841 20.2362 358.687 20.7438C359.552 21.2514 360.21 21.9564 360.661 22.8588C361.131 23.7612 361.366 24.8234 361.366 26.0454V36H356.967ZM346.505 36V20.3208H350.763L350.904 23.1126V36H346.505ZM372.46 36.3384C370.805 36.3384 369.377 36.0094 368.173 35.3514C366.989 34.6934 366.077 33.7534 365.438 32.5314C364.818 31.3094 364.507 29.8524 364.507 28.1604C364.507 26.4308 364.836 24.955 365.494 23.733C366.171 22.511 367.111 21.5804 368.314 20.9412C369.518 20.302 370.937 19.9824 372.573 19.9824C374.001 19.9824 375.261 20.2362 376.351 20.7438C377.461 21.2514 378.335 21.9658 378.974 22.887C379.632 23.7894 379.989 24.8704 380.046 26.13H375.646C375.496 25.2652 375.158 24.626 374.631 24.2124C374.124 23.78 373.437 23.5638 372.573 23.5638C371.858 23.5638 371.219 23.7424 370.655 24.0996C370.11 24.4568 369.677 24.9738 369.358 25.6506C369.057 26.3274 368.907 27.164 368.907 28.1604C368.907 29.6456 369.245 30.7924 369.922 31.6008C370.617 32.4092 371.463 32.8134 372.46 32.8134C373.043 32.8134 373.55 32.71 373.983 32.5032C374.434 32.2964 374.81 32.005 375.111 31.629C375.411 31.2342 375.618 30.7924 375.731 30.3036H380.13C380.017 31.5256 379.623 32.5878 378.946 33.4902C378.269 34.3926 377.376 35.0976 376.267 35.6052C375.158 36.094 373.889 36.3384 372.46 36.3384ZM390.716 36.3384C389.024 36.3384 387.567 36.0094 386.345 35.3514C385.142 34.6934 384.211 33.7534 383.553 32.5314C382.895 31.3094 382.566 29.8524 382.566 28.1604C382.566 26.4496 382.895 24.9832 383.553 23.7612C384.211 22.5392 385.161 21.6086 386.402 20.9694C387.661 20.3114 389.175 19.9824 390.942 19.9824C393.705 19.9824 395.708 20.772 396.948 22.3512C398.208 23.9116 398.734 26.0642 398.528 28.809H386.063L386.091 25.7916H394.044C393.987 25.0772 393.668 24.5038 393.085 24.0714C392.502 23.6202 391.778 23.3946 390.914 23.3946C389.56 23.3946 388.564 23.8176 387.924 24.6636C387.285 25.5096 386.966 26.741 386.966 28.3578C386.966 29.1662 387.107 29.9088 387.389 30.5856C387.671 31.2624 388.084 31.8076 388.629 32.2212C389.193 32.616 389.889 32.8134 390.716 32.8134C391.6 32.8134 392.342 32.5972 392.944 32.1648C393.564 31.7324 393.94 31.1872 394.072 30.5292H398.471C398.283 32.3152 397.494 33.7346 396.102 34.7874C394.73 35.8214 392.935 36.3384 390.716 36.3384ZM423.112 29.8242V26.0172H427.596C428.498 26.0172 429.222 25.7446 429.767 25.1994C430.312 24.6354 430.585 23.9022 430.585 22.9998C430.585 22.135 430.312 21.4394 429.767 20.913C429.222 20.3866 428.498 20.1234 427.596 20.1234H423.112V16.3164H427.624C429.184 16.3164 430.547 16.589 431.713 17.1342C432.878 17.6794 433.781 18.4596 434.42 19.4748C435.059 20.4712 435.379 21.6462 435.379 22.9998C435.379 24.3722 435.059 25.5754 434.42 26.6094C433.781 27.6246 432.878 28.4142 431.713 28.9782C430.566 29.5422 429.203 29.8242 427.624 29.8242H423.112ZM419.784 36V16.3164H424.437V36H419.784ZM448.954 28.1604V26.0454C448.954 25.331 448.766 24.7576 448.39 24.3252C448.014 23.874 447.45 23.6484 446.698 23.6484C445.852 23.6484 445.053 23.9304 444.301 24.4944C443.549 25.0584 442.835 26.036 442.158 27.4272L441.707 23.733C442.195 22.9058 442.731 22.2196 443.314 21.6744C443.897 21.1104 444.536 20.6874 445.232 20.4054C445.946 20.1234 446.726 19.9824 447.572 19.9824C449.245 19.9824 450.627 20.4994 451.718 21.5334C452.808 22.5486 453.353 24.0526 453.353 26.0454V28.1604H448.954ZM438.492 36V20.3208H442.722L442.891 23.1408V36H438.492ZM464.08 36.3384C462.388 36.3384 460.931 36.0094 459.709 35.3514C458.506 34.6934 457.575 33.7534 456.917 32.5314C456.259 31.3094 455.93 29.8524 455.93 28.1604C455.93 26.4496 456.259 24.9832 456.917 23.7612C457.575 22.5392 458.525 21.6086 459.766 20.9694C461.025 20.3114 462.539 19.9824 464.306 19.9824C467.069 19.9824 469.072 20.772 470.312 22.3512C471.572 23.9116 472.098 26.0642 471.892 28.809H459.427L459.455 25.7916H467.408C467.351 25.0772 467.032 24.5038 466.449 24.0714C465.866 23.6202 465.142 23.3946 464.278 23.3946C462.924 23.3946 461.928 23.8176 461.288 24.6636C460.649 25.5096 460.33 26.741 460.33 28.3578C460.33 29.1662 460.471 29.9088 460.753 30.5856C461.035 31.2624 461.448 31.8076 461.993 32.2212C462.557 32.616 463.253 32.8134 464.08 32.8134C464.964 32.8134 465.706 32.5972 466.308 32.1648C466.928 31.7324 467.304 31.1872 467.436 30.5292H471.835C471.647 32.3152 470.858 33.7346 469.466 34.7874C468.094 35.8214 466.299 36.3384 464.08 36.3384ZM482.675 36.3384C481.209 36.3384 479.921 36.1034 478.812 35.6334C477.702 35.1446 476.838 34.4584 476.217 33.5748C475.616 32.6724 475.305 31.6102 475.287 30.3882H479.376C479.338 31.253 479.611 31.9298 480.193 32.4186C480.795 32.9074 481.613 33.1518 482.647 33.1518C483.399 33.1518 484 33.0296 484.452 32.7852C484.922 32.522 485.157 32.1648 485.157 31.7136C485.157 31.3188 484.978 31.0086 484.621 30.783C484.282 30.5386 483.831 30.3506 483.267 30.219C482.703 30.0686 482.083 29.9276 481.406 29.796C480.729 29.6456 480.043 29.467 479.347 29.2602C478.671 29.0534 478.05 28.7808 477.486 28.4424C476.922 28.0852 476.462 27.6246 476.104 27.0606C475.766 26.4778 475.597 25.754 475.597 24.8892C475.597 23.8928 475.879 23.028 476.443 22.2948C477.007 21.5616 477.787 20.9976 478.783 20.6028C479.799 20.1892 480.964 19.9824 482.28 19.9824C484.292 19.9824 485.918 20.4524 487.159 21.3924C488.418 22.3136 489.114 23.6108 489.246 25.284H485.185C485.147 24.5884 484.865 24.062 484.339 23.7048C483.812 23.3476 483.136 23.169 482.308 23.169C481.613 23.169 481.058 23.2912 480.645 23.5356C480.231 23.78 480.024 24.1466 480.024 24.6354C480.024 25.0302 480.193 25.3404 480.532 25.566C480.889 25.7728 481.35 25.942 481.914 26.0736C482.478 26.2052 483.098 26.3274 483.775 26.4402C484.47 26.553 485.157 26.7128 485.833 26.9196C486.51 27.1076 487.131 27.3708 487.695 27.7092C488.259 28.0476 488.71 28.4988 489.048 29.0628C489.405 29.6268 489.584 30.3506 489.584 31.2342C489.584 32.8322 488.954 34.0824 487.695 34.9848C486.454 35.8872 484.781 36.3384 482.675 36.3384ZM501.016 36.3384C499.55 36.3384 498.262 36.1034 497.153 35.6334C496.043 35.1446 495.179 34.4584 494.558 33.5748C493.957 32.6724 493.646 31.6102 493.628 30.3882H497.717C497.679 31.253 497.952 31.9298 498.534 32.4186C499.136 32.9074 499.954 33.1518 500.988 33.1518C501.74 33.1518 502.341 33.0296 502.793 32.7852C503.263 32.522 503.498 32.1648 503.498 31.7136C503.498 31.3188 503.319 31.0086 502.962 30.783C502.623 30.5386 502.172 30.3506 501.608 30.219C501.044 30.0686 500.424 29.9276 499.747 29.796C499.07 29.6456 498.384 29.467 497.688 29.2602C497.012 29.0534 496.391 28.7808 495.827 28.4424C495.263 28.0852 494.803 27.6246 494.445 27.0606C494.107 26.4778 493.938 25.754 493.938 24.8892C493.938 23.8928 494.22 23.028 494.784 22.2948C495.348 21.5616 496.128 20.9976 497.124 20.6028C498.14 20.1892 499.305 19.9824 500.621 19.9824C502.633 19.9824 504.259 20.4524 505.5 21.3924C506.759 22.3136 507.455 23.6108 507.587 25.284H503.526C503.488 24.5884 503.206 24.062 502.68 23.7048C502.153 23.3476 501.477 23.169 500.649 23.169C499.954 23.169 499.399 23.2912 498.986 23.5356C498.572 23.78 498.365 24.1466 498.365 24.6354C498.365 25.0302 498.534 25.3404 498.873 25.566C499.23 25.7728 499.691 25.942 500.255 26.0736C500.819 26.2052 501.439 26.3274 502.116 26.4402C502.811 26.553 503.498 26.7128 504.174 26.9196C504.851 27.1076 505.472 27.3708 506.036 27.7092C506.6 28.0476 507.051 28.4988 507.389 29.0628C507.746 29.6268 507.925 30.3506 507.925 31.2342C507.925 32.8322 507.295 34.0824 506.036 34.9848C504.795 35.8872 503.122 36.3384 501.016 36.3384Z" fill="#0077CC"/>
<path d="M98 337.588H379.697L509.71 427H209.44L98 337.588Z" fill="url(#paint0_radial_737_33)"/>
<path d="M316.687 189C316.687 184.858 313.329 181.5 309.187 181.5C305.044 181.5 301.687 184.858 301.687 189H309.187H316.687ZM303.883 386.916C306.812 389.845 311.561 389.845 314.49 386.916L362.22 339.187C365.148 336.258 365.148 331.509 362.22 328.58C359.291 325.651 354.542 325.651 351.613 328.58L309.187 371.006L266.76 328.58C263.831 325.651 259.082 325.651 256.154 328.58C253.225 331.509 253.225 336.258 256.154 339.187L303.883 386.916ZM309.187 189H301.687V381.613H309.187H316.687V189H309.187Z" fill="#1F3647"/>
<path d="M207.01 110.145V104.07H214.165C215.605 104.07 216.76 103.635 217.63 102.765C218.5 101.865 218.935 100.695 218.935 99.255C218.935 97.875 218.5 96.765 217.63 95.925C216.76 95.085 215.605 94.665 214.165 94.665H207.01V88.59H214.21C216.7 88.59 218.875 89.025 220.735 89.895C222.595 90.765 224.035 92.01 225.055 93.63C226.075 95.22 226.585 97.095 226.585 99.255C226.585 101.445 226.075 103.365 225.055 105.015C224.035 106.635 222.595 107.895 220.735 108.795C218.905 109.695 216.73 110.145 214.21 110.145H207.01ZM201.7 120V88.59H209.125V120H201.7ZM248.248 107.49V104.115C248.248 102.975 247.948 102.06 247.348 101.37C246.748 100.65 245.848 100.29 244.648 100.29C243.298 100.29 242.023 100.74 240.823 101.64C239.623 102.54 238.483 104.1 237.403 106.32L236.683 100.425C237.463 99.105 238.318 98.01 239.248 97.14C240.178 96.24 241.198 95.565 242.308 95.115C243.448 94.665 244.693 94.44 246.043 94.44C248.713 94.44 250.918 95.265 252.658 96.915C254.398 98.535 255.268 100.935 255.268 104.115V107.49H248.248ZM231.553 120V94.98H238.303L238.573 99.48V120H231.553ZM272.385 120.54C269.685 120.54 267.36 120.015 265.41 118.965C263.49 117.915 262.005 116.415 260.955 114.465C259.905 112.515 259.38 110.19 259.38 107.49C259.38 104.76 259.905 102.42 260.955 100.47C262.005 98.52 263.52 97.035 265.5 96.015C267.51 94.965 269.925 94.44 272.745 94.44C277.155 94.44 280.35 95.7 282.33 98.22C284.34 100.71 285.18 104.145 284.85 108.525H264.96L265.005 103.71H277.695C277.605 102.57 277.095 101.655 276.165 100.965C275.235 100.245 274.08 99.885 272.7 99.885C270.54 99.885 268.95 100.56 267.93 101.91C266.91 103.26 266.4 105.225 266.4 107.805C266.4 109.095 266.625 110.28 267.075 111.36C267.525 112.44 268.185 113.31 269.055 113.97C269.955 114.6 271.065 114.915 272.385 114.915C273.795 114.915 274.98 114.57 275.94 113.88C276.93 113.19 277.53 112.32 277.74 111.27H284.76C284.46 114.12 283.2 116.385 280.98 118.065C278.79 119.715 275.925 120.54 272.385 120.54ZM302.058 120.54C299.718 120.54 297.663 120.165 295.893 119.415C294.123 118.635 292.743 117.54 291.753 116.13C290.793 114.69 290.298 112.995 290.268 111.045H296.793C296.733 112.425 297.168 113.505 298.098 114.285C299.058 115.065 300.363 115.455 302.013 115.455C303.213 115.455 304.173 115.26 304.893 114.87C305.643 114.45 306.018 113.88 306.018 113.16C306.018 112.53 305.733 112.035 305.163 111.675C304.623 111.285 303.903 110.985 303.003 110.775C302.103 110.535 301.113 110.31 300.033 110.1C298.953 109.86 297.858 109.575 296.748 109.245C295.668 108.915 294.678 108.48 293.778 107.94C292.878 107.37 292.143 106.635 291.573 105.735C291.033 104.805 290.763 103.65 290.763 102.27C290.763 100.68 291.213 99.3 292.113 98.13C293.013 96.96 294.258 96.06 295.848 95.43C297.468 94.77 299.328 94.44 301.428 94.44C304.638 94.44 307.233 95.19 309.213 96.69C311.223 98.16 312.333 100.23 312.543 102.9H306.063C306.003 101.79 305.553 100.95 304.713 100.38C303.873 99.81 302.793 99.525 301.473 99.525C300.363 99.525 299.478 99.72 298.818 100.11C298.158 100.5 297.828 101.085 297.828 101.865C297.828 102.495 298.098 102.99 298.638 103.35C299.208 103.68 299.943 103.95 300.843 104.16C301.743 104.37 302.733 104.565 303.813 104.745C304.923 104.925 306.018 105.18 307.098 105.51C308.178 105.81 309.168 106.23 310.068 106.77C310.968 107.31 311.688 108.03 312.228 108.93C312.798 109.83 313.083 110.985 313.083 112.395C313.083 114.945 312.078 116.94 310.068 118.38C308.088 119.82 305.418 120.54 302.058 120.54ZM331.325 120.54C328.985 120.54 326.93 120.165 325.16 119.415C323.39 118.635 322.01 117.54 321.02 116.13C320.06 114.69 319.565 112.995 319.535 111.045H326.06C326 112.425 326.435 113.505 327.365 114.285C328.325 115.065 329.63 115.455 331.28 115.455C332.48 115.455 333.44 115.26 334.16 114.87C334.91 114.45 335.285 113.88 335.285 113.16C335.285 112.53 335 112.035 334.43 111.675C333.89 111.285 333.17 110.985 332.27 110.775C331.37 110.535 330.38 110.31 329.3 110.1C328.22 109.86 327.125 109.575 326.015 109.245C324.935 108.915 323.945 108.48 323.045 107.94C322.145 107.37 321.41 106.635 320.84 105.735C320.3 104.805 320.03 103.65 320.03 102.27C320.03 100.68 320.48 99.3 321.38 98.13C322.28 96.96 323.525 96.06 325.115 95.43C326.735 94.77 328.595 94.44 330.695 94.44C333.905 94.44 336.5 95.19 338.48 96.69C340.49 98.16 341.6 100.23 341.81 102.9H335.33C335.27 101.79 334.82 100.95 333.98 100.38C333.14 99.81 332.06 99.525 330.74 99.525C329.63 99.525 328.745 99.72 328.085 100.11C327.425 100.5 327.095 101.085 327.095 101.865C327.095 102.495 327.365 102.99 327.905 103.35C328.475 103.68 329.21 103.95 330.11 104.16C331.01 104.37 332 104.565 333.08 104.745C334.19 104.925 335.285 105.18 336.365 105.51C337.445 105.81 338.435 106.23 339.335 106.77C340.235 107.31 340.955 108.03 341.495 108.93C342.065 109.83 342.35 110.985 342.35 112.395C342.35 114.945 341.345 116.94 339.335 118.38C337.355 119.82 334.685 120.54 331.325 120.54ZM354.653 94.98V110.415C354.653 111.705 354.983 112.74 355.643 113.52C356.303 114.3 357.173 114.69 358.253 114.69C359.483 114.69 360.608 114.285 361.628 113.475C362.678 112.635 363.773 111.21 364.913 109.2L365.903 115.14C364.763 117.09 363.383 118.485 361.763 119.325C360.143 120.135 358.493 120.54 356.813 120.54C354.893 120.54 353.243 120.135 351.863 119.325C350.513 118.515 349.463 117.39 348.713 115.95C347.993 114.51 347.633 112.815 347.633 110.865V94.98H354.653ZM371.348 94.98V120H364.553L364.328 115.545V94.98H371.348ZM394.585 107.49V104.115C394.585 102.975 394.285 102.06 393.685 101.37C393.085 100.65 392.185 100.29 390.985 100.29C389.635 100.29 388.36 100.74 387.16 101.64C385.96 102.54 384.82 104.1 383.74 106.32L383.02 100.425C383.8 99.105 384.655 98.01 385.585 97.14C386.515 96.24 387.535 95.565 388.645 95.115C389.785 94.665 391.03 94.44 392.38 94.44C395.05 94.44 397.255 95.265 398.995 96.915C400.735 98.535 401.605 100.935 401.605 104.115V107.49H394.585ZM377.89 120V94.98H384.64L384.91 99.48V120H377.89ZM418.723 120.54C416.023 120.54 413.698 120.015 411.748 118.965C409.828 117.915 408.343 116.415 407.293 114.465C406.243 112.515 405.718 110.19 405.718 107.49C405.718 104.76 406.243 102.42 407.293 100.47C408.343 98.52 409.858 97.035 411.838 96.015C413.848 94.965 416.263 94.44 419.083 94.44C423.493 94.44 426.688 95.7 428.668 98.22C430.678 100.71 431.518 104.145 431.188 108.525H411.298L411.343 103.71H424.033C423.943 102.57 423.433 101.655 422.503 100.965C421.573 100.245 420.418 99.885 419.038 99.885C416.878 99.885 415.288 100.56 414.268 101.91C413.248 103.26 412.738 105.225 412.738 107.805C412.738 109.095 412.963 110.28 413.413 111.36C413.863 112.44 414.523 113.31 415.393 113.97C416.293 114.6 417.403 114.915 418.723 114.915C420.133 114.915 421.318 114.57 422.278 113.88C423.268 113.19 423.868 112.32 424.078 111.27H431.098C430.798 114.12 429.538 116.385 427.318 118.065C425.128 119.715 422.263 120.54 418.723 120.54Z" fill="black"/>
<defs>
<radialGradient id="paint0_radial_737_33" cx="0" cy="0" r="1" gradientUnits="userSpaceOnUse" gradientTransform="translate(305.403 382.302) rotate(-167.834) scale(212.168 134.826)">
<stop stop-color="#0077CC"/>
<stop offset="1" stop-color="#5FB4F1"/>
</radialGradient>
<clipPath id="clip0_737_33">
<rect width="80" height="80" fill="white" transform="translate(529 10)"/>
</clipPath>
</defs>
</svg>
