<svg width="619" height="520" viewBox="0 0 619 520" fill="none" xmlns="http://www.w3.org/2000/svg">
<rect x="5" y="5" width="609" height="510" fill="white" stroke="white" stroke-width="10"/>
<g clip-path="url(#clip0_737_33)">
<path d="M609 10H494V125H609V10Z" fill="#0077CC"/>
<path d="M557.764 26.1001C560.94 26.1001 563.514 28.6745 563.514 31.8501V64.6869L583.967 100.592C586.15 104.425 583.382 109.188 578.971 109.188H525.058C520.646 109.187 517.878 104.425 520.061 100.592L540.514 64.6869V31.8501C540.514 28.6745 543.089 26.1002 546.264 26.1001H557.764Z" fill="#0077CC"/>
<path d="M563.514 64.6869H560.639V65.4483L561.016 66.1099L563.514 64.6869ZM540.514 64.6869L543.012 66.1099L543.389 65.4483V64.6869H540.514ZM557.764 26.1001V28.9751C559.352 28.9751 560.639 30.2623 560.639 31.8501H563.514H566.389C566.389 27.0867 562.528 23.2251 557.764 23.2251V26.1001ZM563.514 31.8501H560.639V64.6869H563.514H566.389V31.8501H563.514ZM563.514 64.6869L561.016 66.1099L581.469 102.015L583.967 100.592L586.465 99.1689L566.012 63.2638L563.514 64.6869ZM583.967 100.592L581.469 102.015C582.56 103.931 581.176 106.313 578.971 106.313V109.188V112.063C585.588 112.063 589.74 104.919 586.465 99.1689L583.967 100.592ZM578.971 109.188V106.313H525.058V109.188L525.057 112.063H578.971V109.188ZM525.058 109.188V106.313C522.852 106.312 521.468 103.931 522.559 102.015L520.061 100.592L517.563 99.1688C514.288 104.919 518.441 112.062 525.057 112.063L525.058 109.188ZM520.061 100.592L522.559 102.015L543.012 66.1099L540.514 64.6869L538.016 63.2638L517.563 99.1688L520.061 100.592ZM540.514 64.6869H543.389V31.8501H540.514H537.639V64.6869H540.514ZM540.514 31.8501H543.389C543.389 30.2624 544.676 28.9751 546.264 28.9751L546.264 26.1001V23.2251C541.501 23.2252 537.639 27.0866 537.639 31.8501H540.514ZM546.264 26.1001L546.264 28.9751H557.764V26.1001V23.2251H546.264V26.1001Z" fill="white"/>
<path d="M560.932 66.9255C561.123 66.9255 561.312 66.9373 561.5 66.9559L581.471 102.015C582.562 103.932 581.177 106.313 578.972 106.313H525.059C522.854 106.313 521.469 103.932 522.561 102.015L542.549 66.9255H560.932Z" fill="white"/>
<mask id="mask0_737_33" style="mask-type:luminance" maskUnits="userSpaceOnUse" x="522" y="66" width="60" height="41">
<path d="M560.932 66.9255C561.123 66.9255 561.312 66.9373 561.5 66.9559L581.471 102.015C582.562 103.932 581.177 106.313 578.972 106.313H525.059C522.854 106.313 521.469 103.932 522.561 102.015L542.549 66.9255H560.932Z" fill="white"/>
</mask>
<g mask="url(#mask0_737_33)">
<path d="M561.5 66.9559L564.497 65.2483L563.614 63.6982L561.839 63.5226L561.5 66.9559ZM542.549 66.9256V63.4756H540.544L539.552 65.2179L542.549 66.9256ZM560.932 66.9256V70.3756C560.982 70.3756 561.055 70.3787 561.16 70.3892L561.5 66.9559L561.839 63.5226C561.57 63.4961 561.264 63.4756 560.932 63.4756V66.9256ZM561.5 66.9559L558.502 68.6636L578.473 103.723L581.471 102.015L584.469 100.308L564.497 65.2483L561.5 66.9559ZM581.471 102.015L578.473 103.723C578.254 103.339 578.531 102.863 578.972 102.863L578.972 106.313V109.763C583.823 109.763 586.87 104.525 584.469 100.308L581.471 102.015ZM578.972 106.313L578.972 102.863H525.059V106.313L525.059 109.763H578.972V106.313ZM525.059 106.313V102.863C525.5 102.863 525.778 103.339 525.559 103.723L522.561 102.015L519.564 100.308C517.162 104.524 520.207 109.762 525.059 109.763L525.059 106.313ZM522.561 102.015L525.559 103.723L545.547 68.6332L542.549 66.9256L539.552 65.2179L519.564 100.308L522.561 102.015ZM542.549 66.9256V70.3756H560.932V66.9256V63.4756H542.549V66.9256Z" fill="#0077CC"/>
</g>
</g>
<path d="M72.075 45V23.8875H64.425V18.825H85.9125V23.8875H78.2625V45H72.075ZM103.665 45V32.175C103.665 31.075 103.39 30.2 102.84 29.55C102.29 28.9 101.565 28.575 100.665 28.575C99.6396 28.575 98.6896 28.925 97.8146 29.625C96.9646 30.3 96.0646 31.475 95.1146 33.15L94.2896 28.2375C95.2396 26.5875 96.3896 25.425 97.7396 24.75C99.0896 24.05 100.465 23.7 101.865 23.7C103.465 23.7 104.827 24.0375 105.952 24.7125C107.102 25.3875 107.977 26.3375 108.577 27.5625C109.202 28.7625 109.515 30.175 109.515 31.8V45H103.665ZM89.7521 45V17.2125H95.6021V45H89.7521ZM124.154 45.45C121.904 45.45 119.967 45.0125 118.342 44.1375C116.742 43.2625 115.504 42.0125 114.629 40.3875C113.754 38.7625 113.317 36.825 113.317 34.575C113.317 32.3 113.754 30.35 114.629 28.725C115.504 27.1 116.767 25.8625 118.417 25.0125C120.092 24.1375 122.104 23.7 124.454 23.7C128.129 23.7 130.792 24.75 132.442 26.85C134.117 28.925 134.817 31.7875 134.542 35.4375H117.967L118.004 31.425H128.579C128.504 30.475 128.079 29.7125 127.304 29.1375C126.529 28.5375 125.567 28.2375 124.417 28.2375C122.617 28.2375 121.292 28.8 120.442 29.925C119.592 31.05 119.167 32.6875 119.167 34.8375C119.167 35.9125 119.354 36.9 119.729 37.8C120.104 38.7 120.654 39.425 121.379 39.975C122.129 40.5 123.054 40.7625 124.154 40.7625C125.329 40.7625 126.317 40.475 127.117 39.9C127.942 39.325 128.442 38.6 128.617 37.725H134.467C134.217 40.1 133.167 41.9875 131.317 43.3875C129.492 44.7625 127.104 45.45 124.154 45.45ZM172.896 45.45C170.746 45.45 168.896 45.05 167.346 44.25C165.821 43.425 164.646 42.275 163.821 40.8C163.021 39.3 162.621 37.5375 162.621 35.5125H168.696C168.696 37.0875 169.034 38.3 169.709 39.15C170.409 39.975 171.471 40.3875 172.896 40.3875C174.021 40.3875 174.909 40.15 175.559 39.675C176.234 39.175 176.571 38.475 176.571 37.575C176.571 36.9 176.321 36.375 175.821 36C175.346 35.6 174.696 35.275 173.871 35.025C173.071 34.75 172.184 34.5 171.209 34.275C170.259 34.025 169.296 33.725 168.321 33.375C167.371 33.025 166.484 32.5625 165.659 31.9875C164.859 31.4125 164.209 30.6625 163.709 29.7375C163.234 28.8125 162.996 27.6375 162.996 26.2125C162.996 24.7375 163.396 23.4125 164.196 22.2375C165.021 21.0625 166.159 20.125 167.609 19.425C169.059 18.725 170.759 18.375 172.709 18.375C174.484 18.375 176.134 18.725 177.659 19.425C179.184 20.1 180.421 21.0875 181.371 22.3875C182.321 23.6875 182.821 25.2875 182.871 27.1875H176.684C176.634 26.3375 176.409 25.6375 176.009 25.0875C175.634 24.5375 175.146 24.125 174.546 23.85C173.971 23.575 173.359 23.4375 172.709 23.4375C171.784 23.4375 170.996 23.6625 170.346 24.1125C169.696 24.5375 169.371 25.175 169.371 26.025C169.371 26.675 169.609 27.1875 170.084 27.5625C170.584 27.9375 171.234 28.25 172.034 28.5C172.859 28.725 173.746 28.95 174.696 29.175C175.671 29.4 176.634 29.6875 177.584 30.0375C178.559 30.3625 179.446 30.825 180.246 31.425C181.071 32.025 181.721 32.825 182.196 33.825C182.696 34.8 182.946 36.05 182.946 37.575C182.946 39.1 182.509 40.4625 181.634 41.6625C180.784 42.8375 179.596 43.7625 178.071 44.4375C176.571 45.1125 174.846 45.45 172.896 45.45ZM197.436 45.45C195.236 45.45 193.336 45.0125 191.736 44.1375C190.161 43.2625 188.948 42.0125 188.098 40.3875C187.273 38.7625 186.861 36.825 186.861 34.575C186.861 32.275 187.298 30.3125 188.173 28.6875C189.073 27.0625 190.323 25.825 191.923 24.975C193.523 24.125 195.411 23.7 197.586 23.7C199.486 23.7 201.161 24.0375 202.611 24.7125C204.086 25.3875 205.248 26.3375 206.098 27.5625C206.973 28.7625 207.448 30.2 207.523 31.875H201.673C201.473 30.725 201.023 29.875 200.323 29.325C199.648 28.75 198.736 28.4625 197.586 28.4625C196.636 28.4625 195.786 28.7 195.036 29.175C194.311 29.65 193.736 30.3375 193.311 31.2375C192.911 32.1375 192.711 33.25 192.711 34.575C192.711 36.55 193.161 38.075 194.061 39.15C194.986 40.225 196.111 40.7625 197.436 40.7625C198.211 40.7625 198.886 40.625 199.461 40.35C200.061 40.075 200.561 39.6875 200.961 39.1875C201.361 38.6625 201.636 38.075 201.786 37.425H207.636C207.486 39.05 206.961 40.4625 206.061 41.6625C205.161 42.8625 203.973 43.8 202.498 44.475C201.023 45.125 199.336 45.45 197.436 45.45ZM218.6 45V24.15H224.45V45H218.6ZM211.85 45V40.275H231.275V45H211.85ZM214.475 28.875V24.15H221.525V28.875H214.475ZM218.375 21.375V15.9H224.6V21.375H218.375ZM246.103 45.45C243.853 45.45 241.915 45.0125 240.29 44.1375C238.69 43.2625 237.453 42.0125 236.578 40.3875C235.703 38.7625 235.265 36.825 235.265 34.575C235.265 32.3 235.703 30.35 236.578 28.725C237.453 27.1 238.715 25.8625 240.365 25.0125C242.04 24.1375 244.053 23.7 246.403 23.7C250.078 23.7 252.74 24.75 254.39 26.85C256.065 28.925 256.765 31.7875 256.49 35.4375H239.915L239.953 31.425H250.528C250.453 30.475 250.028 29.7125 249.253 29.1375C248.478 28.5375 247.515 28.2375 246.365 28.2375C244.565 28.2375 243.24 28.8 242.39 29.925C241.54 31.05 241.115 32.6875 241.115 34.8375C241.115 35.9125 241.303 36.9 241.678 37.8C242.053 38.7 242.603 39.425 243.328 39.975C244.078 40.5 245.003 40.7625 246.103 40.7625C247.278 40.7625 248.265 40.475 249.065 39.9C249.89 39.325 250.39 38.6 250.565 37.725H256.415C256.165 40.1 255.115 41.9875 253.265 43.3875C251.44 44.7625 249.053 45.45 246.103 45.45ZM274.392 45V32.1375C274.392 31.0625 274.117 30.2 273.567 29.55C273.017 28.9 272.292 28.575 271.392 28.575C270.367 28.575 269.417 28.925 268.542 29.625C267.692 30.3 266.792 31.475 265.842 33.15L265.017 28.2C265.967 26.575 267.117 25.425 268.467 24.75C269.817 24.05 271.192 23.7 272.592 23.7C274.192 23.7 275.555 24.0375 276.68 24.7125C277.83 25.3875 278.705 26.325 279.305 27.525C279.93 28.725 280.242 30.1375 280.242 31.7625V45H274.392ZM260.48 45V24.15H266.142L266.33 27.8625V45H260.48ZM294.994 45.45C292.794 45.45 290.894 45.0125 289.294 44.1375C287.719 43.2625 286.507 42.0125 285.657 40.3875C284.832 38.7625 284.419 36.825 284.419 34.575C284.419 32.275 284.857 30.3125 285.732 28.6875C286.632 27.0625 287.882 25.825 289.482 24.975C291.082 24.125 292.969 23.7 295.144 23.7C297.044 23.7 298.719 24.0375 300.169 24.7125C301.644 25.3875 302.807 26.3375 303.657 27.5625C304.532 28.7625 305.007 30.2 305.082 31.875H299.232C299.032 30.725 298.582 29.875 297.882 29.325C297.207 28.75 296.294 28.4625 295.144 28.4625C294.194 28.4625 293.344 28.7 292.594 29.175C291.869 29.65 291.294 30.3375 290.869 31.2375C290.469 32.1375 290.269 33.25 290.269 34.575C290.269 36.55 290.719 38.075 291.619 39.15C292.544 40.225 293.669 40.7625 294.994 40.7625C295.769 40.7625 296.444 40.625 297.019 40.35C297.619 40.075 298.119 39.6875 298.519 39.1875C298.919 38.6625 299.194 38.075 299.344 37.425H305.194C305.044 39.05 304.519 40.4625 303.619 41.6625C302.719 42.8625 301.532 43.8 300.057 44.475C298.582 45.125 296.894 45.45 294.994 45.45ZM319.271 45.45C317.021 45.45 315.084 45.0125 313.459 44.1375C311.859 43.2625 310.621 42.0125 309.746 40.3875C308.871 38.7625 308.434 36.825 308.434 34.575C308.434 32.3 308.871 30.35 309.746 28.725C310.621 27.1 311.884 25.8625 313.534 25.0125C315.209 24.1375 317.221 23.7 319.571 23.7C323.246 23.7 325.909 24.75 327.559 26.85C329.234 28.925 329.934 31.7875 329.659 35.4375H313.084L313.121 31.425H323.696C323.621 30.475 323.196 29.7125 322.421 29.1375C321.646 28.5375 320.684 28.2375 319.534 28.2375C317.734 28.2375 316.409 28.8 315.559 29.925C314.709 31.05 314.284 32.6875 314.284 34.8375C314.284 35.9125 314.471 36.9 314.846 37.8C315.221 38.7 315.771 39.425 316.496 39.975C317.246 40.5 318.171 40.7625 319.271 40.7625C320.446 40.7625 321.434 40.475 322.234 39.9C323.059 39.325 323.559 38.6 323.734 37.725H329.584C329.334 40.1 328.284 41.9875 326.434 43.3875C324.609 44.7625 322.221 45.45 319.271 45.45ZM362.351 36.7875V31.725H368.313C369.513 31.725 370.476 31.3625 371.201 30.6375C371.926 29.8875 372.288 28.9125 372.288 27.7125C372.288 26.5625 371.926 25.6375 371.201 24.9375C370.476 24.2375 369.513 23.8875 368.313 23.8875H362.351V18.825H368.351C370.426 18.825 372.238 19.1875 373.788 19.9125C375.338 20.6375 376.538 21.675 377.388 23.025C378.238 24.35 378.663 25.9125 378.663 27.7125C378.663 29.5375 378.238 31.1375 377.388 32.5125C376.538 33.8625 375.338 34.9125 373.788 35.6625C372.263 36.4125 370.451 36.7875 368.351 36.7875H362.351ZM357.926 45V18.825H364.113V45H357.926ZM396.715 34.575V31.7625C396.715 30.8125 396.465 30.05 395.965 29.475C395.465 28.875 394.715 28.575 393.715 28.575C392.59 28.575 391.528 28.95 390.528 29.7C389.528 30.45 388.578 31.75 387.678 33.6L387.078 28.6875C387.728 27.5875 388.44 26.675 389.215 25.95C389.99 25.2 390.84 24.6375 391.765 24.2625C392.715 23.8875 393.753 23.7 394.878 23.7C397.103 23.7 398.94 24.3875 400.39 25.7625C401.84 27.1125 402.565 29.1125 402.565 31.7625V34.575H396.715ZM382.803 45V24.15H388.428L388.653 27.9V45H382.803ZM416.83 45.45C414.58 45.45 412.643 45.0125 411.018 44.1375C409.418 43.2625 408.18 42.0125 407.305 40.3875C406.43 38.7625 405.993 36.825 405.993 34.575C405.993 32.3 406.43 30.35 407.305 28.725C408.18 27.1 409.443 25.8625 411.093 25.0125C412.768 24.1375 414.78 23.7 417.13 23.7C420.805 23.7 423.468 24.75 425.118 26.85C426.793 28.925 427.493 31.7875 427.218 35.4375H410.643L410.68 31.425H421.255C421.18 30.475 420.755 29.7125 419.98 29.1375C419.205 28.5375 418.243 28.2375 417.093 28.2375C415.293 28.2375 413.968 28.8 413.118 29.925C412.268 31.05 411.843 32.6875 411.843 34.8375C411.843 35.9125 412.03 36.9 412.405 37.8C412.78 38.7 413.33 39.425 414.055 39.975C414.805 40.5 415.73 40.7625 416.83 40.7625C418.005 40.7625 418.993 40.475 419.793 39.9C420.618 39.325 421.118 38.6 421.293 37.725H427.143C426.893 40.1 425.843 41.9875 423.993 43.3875C422.168 44.7625 419.78 45.45 416.83 45.45ZM441.557 45.45C439.607 45.45 437.895 45.1375 436.42 44.5125C434.945 43.8625 433.795 42.95 432.97 41.775C432.17 40.575 431.757 39.1625 431.732 37.5375H437.17C437.12 38.6875 437.482 39.5875 438.257 40.2375C439.057 40.8875 440.145 41.2125 441.52 41.2125C442.52 41.2125 443.32 41.05 443.92 40.725C444.545 40.375 444.857 39.9 444.857 39.3C444.857 38.775 444.62 38.3625 444.145 38.0625C443.695 37.7375 443.095 37.4875 442.345 37.3125C441.595 37.1125 440.77 36.925 439.87 36.75C438.97 36.55 438.057 36.3125 437.132 36.0375C436.232 35.7625 435.407 35.4 434.657 34.95C433.907 34.475 433.295 33.8625 432.82 33.1125C432.37 32.3375 432.145 31.375 432.145 30.225C432.145 28.9 432.52 27.75 433.27 26.775C434.02 25.8 435.057 25.05 436.382 24.525C437.732 23.975 439.282 23.7 441.032 23.7C443.707 23.7 445.87 24.325 447.52 25.575C449.195 26.8 450.12 28.525 450.295 30.75H444.895C444.845 29.825 444.47 29.125 443.77 28.65C443.07 28.175 442.17 27.9375 441.07 27.9375C440.145 27.9375 439.407 28.1 438.857 28.425C438.307 28.75 438.032 29.2375 438.032 29.8875C438.032 30.4125 438.257 30.825 438.707 31.125C439.182 31.4 439.795 31.625 440.545 31.8C441.295 31.975 442.12 32.1375 443.02 32.2875C443.945 32.4375 444.857 32.65 445.757 32.925C446.657 33.175 447.482 33.525 448.232 33.975C448.982 34.425 449.582 35.025 450.032 35.775C450.507 36.525 450.745 37.4875 450.745 38.6625C450.745 40.7875 449.907 42.45 448.232 43.65C446.582 44.85 444.357 45.45 441.557 45.45ZM465.947 45.45C463.997 45.45 462.284 45.1375 460.809 44.5125C459.334 43.8625 458.184 42.95 457.359 41.775C456.559 40.575 456.147 39.1625 456.122 37.5375H461.559C461.509 38.6875 461.872 39.5875 462.647 40.2375C463.447 40.8875 464.534 41.2125 465.909 41.2125C466.909 41.2125 467.709 41.05 468.309 40.725C468.934 40.375 469.247 39.9 469.247 39.3C469.247 38.775 469.009 38.3625 468.534 38.0625C468.084 37.7375 467.484 37.4875 466.734 37.3125C465.984 37.1125 465.159 36.925 464.259 36.75C463.359 36.55 462.447 36.3125 461.522 36.0375C460.622 35.7625 459.797 35.4 459.047 34.95C458.297 34.475 457.684 33.8625 457.209 33.1125C456.759 32.3375 456.534 31.375 456.534 30.225C456.534 28.9 456.909 27.75 457.659 26.775C458.409 25.8 459.447 25.05 460.772 24.525C462.122 23.975 463.672 23.7 465.422 23.7C468.097 23.7 470.259 24.325 471.909 25.575C473.584 26.8 474.509 28.525 474.684 30.75H469.284C469.234 29.825 468.859 29.125 468.159 28.65C467.459 28.175 466.559 27.9375 465.459 27.9375C464.534 27.9375 463.797 28.1 463.247 28.425C462.697 28.75 462.422 29.2375 462.422 29.8875C462.422 30.4125 462.647 30.825 463.097 31.125C463.572 31.4 464.184 31.625 464.934 31.8C465.684 31.975 466.509 32.1375 467.409 32.2875C468.334 32.4375 469.247 32.65 470.147 32.925C471.047 33.175 471.872 33.525 472.622 33.975C473.372 34.425 473.972 35.025 474.422 35.775C474.897 36.525 475.134 37.4875 475.134 38.6625C475.134 40.7875 474.297 42.45 472.622 43.65C470.972 44.85 468.747 45.45 465.947 45.45Z" fill="#0077CC"/>
<path d="M10 380.001H419.5L608.5 509.979H172L10 380.001Z" fill="url(#paint0_radial_737_33)"/>
<path d="M327 164C327 158.477 322.523 154 317 154C311.477 154 307 158.477 307 164H317H327ZM309.929 451.071C313.834 454.976 320.166 454.976 324.071 451.071L387.711 387.431C391.616 383.526 391.616 377.195 387.711 373.289C383.805 369.384 377.474 369.384 373.569 373.289L317 429.858L260.431 373.289C256.526 369.384 250.195 369.384 246.289 373.289C242.384 377.195 242.384 383.526 246.289 387.431L309.929 451.071ZM317 164H307V444H317H327V164H317Z" fill="#1F3647"/>
<path d="M194.9 114.05V107.3H202.85C204.45 107.3 205.733 106.817 206.7 105.85C207.667 104.85 208.15 103.55 208.15 101.95C208.15 100.417 207.667 99.1833 206.7 98.25C205.733 97.3167 204.45 96.85 202.85 96.85H194.9V90.1H202.9C205.667 90.1 208.083 90.5833 210.15 91.55C212.217 92.5167 213.817 93.9 214.95 95.7C216.083 97.4667 216.65 99.55 216.65 101.95C216.65 104.383 216.083 106.517 214.95 108.35C213.817 110.15 212.217 111.55 210.15 112.55C208.117 113.55 205.7 114.05 202.9 114.05H194.9ZM189 125V90.1H197.25V125H189ZM240.72 111.1V107.35C240.72 106.083 240.386 105.067 239.72 104.3C239.053 103.5 238.053 103.1 236.72 103.1C235.22 103.1 233.803 103.6 232.47 104.6C231.136 105.6 229.87 107.333 228.67 109.8L227.87 103.25C228.736 101.783 229.686 100.567 230.72 99.6C231.753 98.6 232.886 97.85 234.12 97.35C235.386 96.85 236.77 96.6 238.27 96.6C241.236 96.6 243.686 97.5167 245.62 99.35C247.553 101.15 248.52 103.817 248.52 107.35V111.1H240.72ZM222.17 125V97.2H229.67L229.97 102.2V125H222.17ZM267.539 125.6C264.539 125.6 261.956 125.017 259.789 123.85C257.656 122.683 256.006 121.017 254.839 118.85C253.672 116.683 253.089 114.1 253.089 111.1C253.089 108.067 253.672 105.467 254.839 103.3C256.006 101.133 257.689 99.4833 259.889 98.35C262.122 97.1833 264.806 96.6 267.939 96.6C272.839 96.6 276.389 98 278.589 100.8C280.822 103.567 281.756 107.383 281.389 112.25H259.289L259.339 106.9H273.439C273.339 105.633 272.772 104.617 271.739 103.85C270.706 103.05 269.422 102.65 267.889 102.65C265.489 102.65 263.722 103.4 262.589 104.9C261.456 106.4 260.889 108.583 260.889 111.45C260.889 112.883 261.139 114.2 261.639 115.4C262.139 116.6 262.872 117.567 263.839 118.3C264.839 119 266.072 119.35 267.539 119.35C269.106 119.35 270.422 118.967 271.489 118.2C272.589 117.433 273.256 116.467 273.489 115.3H281.289C280.956 118.467 279.556 120.983 277.089 122.85C274.656 124.683 271.472 125.6 267.539 125.6ZM300.509 125.6C297.909 125.6 295.625 125.183 293.659 124.35C291.692 123.483 290.159 122.267 289.059 120.7C287.992 119.1 287.442 117.217 287.409 115.05H294.659C294.592 116.583 295.075 117.783 296.109 118.65C297.175 119.517 298.625 119.95 300.459 119.95C301.792 119.95 302.859 119.733 303.659 119.3C304.492 118.833 304.909 118.2 304.909 117.4C304.909 116.7 304.592 116.15 303.959 115.75C303.359 115.317 302.559 114.983 301.559 114.75C300.559 114.483 299.459 114.233 298.259 114C297.059 113.733 295.842 113.417 294.609 113.05C293.409 112.683 292.309 112.2 291.309 111.6C290.309 110.967 289.492 110.15 288.859 109.15C288.259 108.117 287.959 106.833 287.959 105.3C287.959 103.533 288.459 102 289.459 100.7C290.459 99.4 291.842 98.4 293.609 97.7C295.409 96.9667 297.475 96.6 299.809 96.6C303.375 96.6 306.259 97.4333 308.459 99.1C310.692 100.733 311.925 103.033 312.159 106H304.959C304.892 104.767 304.392 103.833 303.459 103.2C302.525 102.567 301.325 102.25 299.859 102.25C298.625 102.25 297.642 102.467 296.909 102.9C296.175 103.333 295.809 103.983 295.809 104.85C295.809 105.55 296.109 106.1 296.709 106.5C297.342 106.867 298.159 107.167 299.159 107.4C300.159 107.633 301.259 107.85 302.459 108.05C303.692 108.25 304.909 108.533 306.109 108.9C307.309 109.233 308.409 109.7 309.409 110.3C310.409 110.9 311.209 111.7 311.809 112.7C312.442 113.7 312.759 114.983 312.759 116.55C312.759 119.383 311.642 121.6 309.409 123.2C307.209 124.8 304.242 125.6 300.509 125.6ZM333.028 125.6C330.428 125.6 328.145 125.183 326.178 124.35C324.211 123.483 322.678 122.267 321.578 120.7C320.511 119.1 319.961 117.217 319.928 115.05H327.178C327.111 116.583 327.595 117.783 328.628 118.65C329.695 119.517 331.145 119.95 332.978 119.95C334.311 119.95 335.378 119.733 336.178 119.3C337.011 118.833 337.428 118.2 337.428 117.4C337.428 116.7 337.111 116.15 336.478 115.75C335.878 115.317 335.078 114.983 334.078 114.75C333.078 114.483 331.978 114.233 330.778 114C329.578 113.733 328.361 113.417 327.128 113.05C325.928 112.683 324.828 112.2 323.828 111.6C322.828 110.967 322.011 110.15 321.378 109.15C320.778 108.117 320.478 106.833 320.478 105.3C320.478 103.533 320.978 102 321.978 100.7C322.978 99.4 324.361 98.4 326.128 97.7C327.928 96.9667 329.995 96.6 332.328 96.6C335.895 96.6 338.778 97.4333 340.978 99.1C343.211 100.733 344.445 103.033 344.678 106H337.478C337.411 104.767 336.911 103.833 335.978 103.2C335.045 102.567 333.845 102.25 332.378 102.25C331.145 102.25 330.161 102.467 329.428 102.9C328.695 103.333 328.328 103.983 328.328 104.85C328.328 105.55 328.628 106.1 329.228 106.5C329.861 106.867 330.678 107.167 331.678 107.4C332.678 107.633 333.778 107.85 334.978 108.05C336.211 108.25 337.428 108.533 338.628 108.9C339.828 109.233 340.928 109.7 341.928 110.3C342.928 110.9 343.728 111.7 344.328 112.7C344.961 113.7 345.278 114.983 345.278 116.55C345.278 119.383 344.161 121.6 341.928 123.2C339.728 124.8 336.761 125.6 333.028 125.6ZM358.948 97.2V114.35C358.948 115.783 359.314 116.933 360.048 117.8C360.781 118.667 361.748 119.1 362.948 119.1C364.314 119.1 365.564 118.65 366.698 117.75C367.864 116.817 369.081 115.233 370.348 113L371.448 119.6C370.181 121.767 368.648 123.317 366.848 124.25C365.048 125.15 363.214 125.6 361.348 125.6C359.214 125.6 357.381 125.15 355.848 124.25C354.348 123.35 353.181 122.1 352.348 120.5C351.548 118.9 351.148 117.017 351.148 114.85V97.2H358.948ZM377.498 97.2V125H369.948L369.698 120.05V97.2H377.498ZM403.317 111.1V107.35C403.317 106.083 402.984 105.067 402.317 104.3C401.651 103.5 400.651 103.1 399.317 103.1C397.817 103.1 396.401 103.6 395.067 104.6C393.734 105.6 392.467 107.333 391.267 109.8L390.467 103.25C391.334 101.783 392.284 100.567 393.317 99.6C394.351 98.6 395.484 97.85 396.717 97.35C397.984 96.85 399.367 96.6 400.867 96.6C403.834 96.6 406.284 97.5167 408.217 99.35C410.151 101.15 411.117 103.817 411.117 107.35V111.1H403.317ZM384.767 125V97.2H392.267L392.567 102.2V125H384.767ZM430.137 125.6C427.137 125.6 424.553 125.017 422.387 123.85C420.253 122.683 418.603 121.017 417.437 118.85C416.27 116.683 415.687 114.1 415.687 111.1C415.687 108.067 416.27 105.467 417.437 103.3C418.603 101.133 420.287 99.4833 422.487 98.35C424.72 97.1833 427.403 96.6 430.537 96.6C435.437 96.6 438.987 98 441.187 100.8C443.42 103.567 444.353 107.383 443.987 112.25H421.887L421.937 106.9H436.037C435.937 105.633 435.37 104.617 434.337 103.85C433.303 103.05 432.02 102.65 430.487 102.65C428.087 102.65 426.32 103.4 425.187 104.9C424.053 106.4 423.487 108.583 423.487 111.45C423.487 112.883 423.737 114.2 424.237 115.4C424.737 116.6 425.47 117.567 426.437 118.3C427.437 119 428.67 119.35 430.137 119.35C431.703 119.35 433.02 118.967 434.087 118.2C435.187 117.433 435.853 116.467 436.087 115.3H443.887C443.553 118.467 442.153 120.983 439.687 122.85C437.253 124.683 434.07 125.6 430.137 125.6Z" fill="black"/>
<defs>
<radialGradient id="paint0_radial_737_33" cx="0" cy="0" r="1" gradientUnits="userSpaceOnUse" gradientTransform="translate(311.5 445.001) rotate(-167.834) scale(308.427 195.996)">
<stop stop-color="#0077CC"/>
<stop offset="1" stop-color="#5FB4F1"/>
</radialGradient>
<clipPath id="clip0_737_33">
<rect width="115" height="115" fill="white" transform="translate(494 10)"/>
</clipPath>
</defs>
</svg>
