<svg width="500" height="294" viewBox="0 0 500 294" fill="none" xmlns="http://www.w3.org/2000/svg">
<rect y="22.0005" width="500" height="250" fill="url(#paint0_linear_217_405)"/>
<path d="M44.5557 78.9189C45.9897 81.7464 48.9583 83.4609 52.124 83.2891L129.211 79.1055C135.751 78.7505 139.923 85.9761 136.346 91.4629L94.1787 156.131C92.4472 158.786 92.4473 162.215 94.1787 164.87L136.346 229.538C139.923 235.025 135.751 242.25 129.211 241.896L52.124 237.712C48.9583 237.54 45.9898 239.255 44.5557 242.082L29.3818 272H0V22H15.6865L44.5557 78.9189ZM500 272H479.719L457.444 228.082C456.01 225.255 453.042 223.54 449.876 223.712L372.789 227.896C366.249 228.25 362.077 221.025 365.654 215.538L407.821 150.87C409.553 148.215 409.553 144.786 407.821 142.131L365.654 77.4629C362.077 71.9761 366.249 64.7505 372.789 65.1055L449.876 69.2891C453.042 69.4609 456.01 67.7464 457.444 64.9189L479.213 22H500V272Z" fill="#70AEDB" style="mix-blend-mode:lighten"/>
<path d="M500 272H369.716L365.773 253.876C365.099 250.778 362.658 248.371 359.552 247.739L214.594 218.216C208.176 216.909 205.962 208.864 210.809 204.457L320.267 104.943C322.613 102.81 323.477 99.4933 322.472 96.4866L297.566 22.0003H500V272Z" fill="#DB7070" style="mix-blend-mode:lighten"/>
<path d="M207.58 23.5649C205.234 25.6977 204.37 29.0152 205.375 32.022L233.341 115.659C235.418 121.871 229.557 127.81 223.318 125.816L139.315 98.9683C136.296 98.0032 132.991 98.9118 130.89 101.286L72.4414 167.324C68.1002 172.229 60.0265 170.123 58.6338 163.722L39.8828 77.5503C39.2087 74.4525 36.7686 72.0453 33.6621 71.4126L0 64.5562V22.0005H209.301L207.58 23.5649Z" fill="#DB7070" style="mix-blend-mode:lighten"/>
<path d="M301.854 174.972C306.195 170.068 314.269 172.173 315.662 178.573L334.412 264.745C335.086 267.843 337.526 270.251 340.632 270.884L346.118 272.001H156.123L140.954 226.638C138.877 220.425 144.738 214.486 150.977 216.48L234.979 243.328C237.999 244.293 241.304 243.384 243.405 241.01L301.854 174.972Z" fill="#70A4DB" style="mix-blend-mode:lighten"/>
<circle cx="165" cy="147" r="50" fill="url(#paint1_radial_217_405)"/>
<path d="M101 147L16 147" stroke="#1F3647" stroke-width="5" stroke-linecap="round"/>
<line x1="106" y1="114.5" x2="35" y2="114.5" stroke="#1F3647" stroke-width="5" stroke-linecap="round"/>
<path d="M108 182L37 182" stroke="#1F3647" stroke-width="5" stroke-linecap="round"/>
<path d="M328.718 116.077C329.494 114.214 331.315 113 333.333 113H370H406.667C408.685 113 410.506 114.214 411.282 116.077L447.115 202.077C448.488 205.371 446.068 209 442.5 209H297.5C293.932 209 291.512 205.371 292.885 202.077L328.718 116.077Z" fill="url(#paint2_linear_217_405)"/>
<g filter="url(#filter0_i_217_405)">
<path d="M353.577 182L342.852 145.637H353.861L358.832 168.009H359.116L365.011 145.637H373.676L379.571 168.08H379.855L384.827 145.637H395.835L385.111 182H375.665L369.486 161.688H369.202L363.023 182H353.577Z" fill="#666666"/>
</g>
<path d="M385 99.0005C385 107.285 378.284 114 370 114C361.716 114 355 107.285 355 99.0005C355 90.7162 361.716 84.0005 370 84.0005C378.284 84.0005 385 90.7162 385 99.0005ZM359.755 99.0005C359.755 104.659 364.342 109.245 370 109.245C375.658 109.245 380.245 104.659 380.245 99.0005C380.245 93.3425 375.658 88.7557 370 88.7557C364.342 88.7557 359.755 93.3425 359.755 99.0005Z" fill="#6B6B6B"/>
<g filter="url(#filter1_f_217_405)">
<path d="M232 22.0005L286.5 119L244.5 165.5L297 272" stroke="#0077CC" stroke-width="5" style="mix-blend-mode:soft-light"/>
</g>
<defs>
<filter id="filter0_i_217_405" x="342.852" y="145.637" width="56.9829" height="40.3636" filterUnits="userSpaceOnUse" color-interpolation-filters="sRGB">
<feFlood flood-opacity="0" result="BackgroundImageFix"/>
<feBlend mode="normal" in="SourceGraphic" in2="BackgroundImageFix" result="shape"/>
<feColorMatrix in="SourceAlpha" type="matrix" values="0 0 0 0 0 0 0 0 0 0 0 0 0 0 0 0 0 0 127 0" result="hardAlpha"/>
<feOffset dx="4" dy="4"/>
<feGaussianBlur stdDeviation="2"/>
<feComposite in2="hardAlpha" operator="arithmetic" k2="-1" k3="1"/>
<feColorMatrix type="matrix" values="0 0 0 0 0 0 0 0 0 0 0 0 0 0 0 0 0 0 0.25 0"/>
<feBlend mode="normal" in2="shape" result="effect1_innerShadow_217_405"/>
</filter>
<filter id="filter1_f_217_405" x="209.821" y="0.775879" width="109.422" height="292.33" filterUnits="userSpaceOnUse" color-interpolation-filters="sRGB">
<feFlood flood-opacity="0" result="BackgroundImageFix"/>
<feBlend mode="normal" in="SourceGraphic" in2="BackgroundImageFix" result="shape"/>
<feGaussianBlur stdDeviation="10" result="effect1_foregroundBlur_217_405"/>
</filter>
<linearGradient id="paint0_linear_217_405" x1="3.72529e-06" y1="147" x2="500" y2="147" gradientUnits="userSpaceOnUse">
<stop stop-color="#0077CC"/>
<stop offset="0.406994" stop-color="#63A6CE"/>
<stop offset="0.598587" stop-color="#B3CBCF"/>
<stop offset="1" stop-color="#FBEDD0"/>
</linearGradient>
<radialGradient id="paint1_radial_217_405" cx="0" cy="0" r="1" gradientUnits="userSpaceOnUse" gradientTransform="translate(185.5 130.5) rotate(127.546) scale(76.3053)">
<stop stop-color="#F1775F"/>
<stop offset="1" stop-color="#BD2915"/>
</radialGradient>
<linearGradient id="paint2_linear_217_405" x1="370" y1="113" x2="370" y2="209" gradientUnits="userSpaceOnUse">
<stop stop-color="#6B6B6B"/>
<stop offset="1" stop-color="#1A1A1A"/>
</linearGradient>
</defs>
</svg>
