<svg width="500" height="250" viewBox="0 0 500 250" fill="none" xmlns="http://www.w3.org/2000/svg">
<g filter="url(#filter0_n_217_437)">
<g clip-path="url(#paint0_diamond_217_437_clip_path)" data-figma-skip-parse="true"><g transform="matrix(0.0055 -0.212 0.584071 0.0151528 244.5 212)"><rect x="0" y="0" width="1035.41" height="440.595" fill="url(#paint0_diamond_217_437)" opacity="1" shape-rendering="crispEdges"/><rect x="0" y="0" width="1035.41" height="440.595" transform="scale(1 -1)" fill="url(#paint0_diamond_217_437)" opacity="1" shape-rendering="crispEdges"/><rect x="0" y="0" width="1035.41" height="440.595" transform="scale(-1 1)" fill="url(#paint0_diamond_217_437)" opacity="1" shape-rendering="crispEdges"/><rect x="0" y="0" width="1035.41" height="440.595" transform="scale(-1)" fill="url(#paint0_diamond_217_437)" opacity="1" shape-rendering="crispEdges"/></g></g><rect width="500" height="250" data-figma-gradient-fill="{&#34;type&#34;:&#34;GRADIENT_DIAMOND&#34;,&#34;stops&#34;:[{&#34;color&#34;:{&#34;r&#34;:0.39272224903106689,&#34;g&#34;:0.072684906423091888,&#34;b&#34;:0.28604313731193542,&#34;a&#34;:1.0},&#34;position&#34;:0.0},{&#34;color&#34;:{&#34;r&#34;:0.12000000476837158,&#34;g&#34;:0.21333332359790802,&#34;b&#34;:0.28000000119209290,&#34;a&#34;:1.0},&#34;position&#34;:1.0}],&#34;stopsVar&#34;:[{&#34;color&#34;:{&#34;r&#34;:0.39272224903106689,&#34;g&#34;:0.072684906423091888,&#34;b&#34;:0.28604313731193542,&#34;a&#34;:1.0},&#34;position&#34;:0.0},{&#34;color&#34;:{&#34;r&#34;:0.12000000476837158,&#34;g&#34;:0.21333332359790802,&#34;b&#34;:0.28000000119209290,&#34;a&#34;:1.0},&#34;position&#34;:1.0}],&#34;transform&#34;:{&#34;m00&#34;:11.000006675720215,&#34;m01&#34;:1168.14160156250,&#34;m02&#34;:-345.07083129882812,&#34;m10&#34;:-424.0,&#34;m11&#34;:30.305580139160156,&#34;m12&#34;:408.84722900390625},&#34;opacity&#34;:1.0,&#34;blendMode&#34;:&#34;NORMAL&#34;,&#34;visible&#34;:true}"/>
</g>
<path d="M210.093 52.6514C211.31 47.3505 217.844 45.4025 221.766 49.1709L258.752 84.71C260.858 86.7333 263.998 87.2371 266.631 85.9736L312.875 63.7793C317.778 61.4261 323.375 65.3196 322.874 70.7353L318.148 121.812C317.88 124.719 319.444 127.488 322.073 128.759L368.258 151.076C373.155 153.443 373.6 160.246 369.054 163.23L326.175 191.382C323.734 192.984 322.545 195.934 323.19 198.781L334.537 248.805C334.629 249.208 334.684 249.607 334.706 250H304.151L276.787 241.033C274.012 240.124 270.964 241.033 269.141 243.313L263.794 250H213.367L207.176 233.377C206.156 230.641 203.545 228.824 200.625 228.82L149.331 228.752C143.892 228.745 140.539 222.809 143.34 218.147L169.759 174.18C171.263 171.677 171.055 168.502 169.237 166.217L137.309 126.071C133.923 121.814 136.474 115.491 141.865 114.774L192.712 108.017C195.607 107.632 197.959 105.49 198.612 102.645L210.093 52.6514Z" fill="#F1A85F" style="mix-blend-mode:soft-light"/>
<path d="M279.241 32.9209C280.955 35.2849 283.958 36.3362 286.772 35.5586L365.536 13.7988C370.778 12.3505 375.598 17.1726 374.146 22.4141L352.336 101.164C351.556 103.978 352.607 106.981 354.97 108.697L421.091 156.71C425.491 159.906 424.726 166.68 419.723 168.813L344.556 200.861C341.869 202.007 340.176 204.699 340.308 207.616L342.223 250H170.413L166.291 227.168C165.772 224.294 163.524 222.044 160.65 221.523L80.246 206.954C74.8943 205.984 72.6445 199.549 76.2265 195.456L130.045 133.968C131.968 131.77 132.325 128.609 130.94 126.038L92.2001 54.0908C89.6218 49.3021 93.2504 43.5314 98.6835 43.7803L180.312 47.5195C183.229 47.6531 185.923 45.9618 187.07 43.2764L205.554 0H255.368L279.241 32.9209Z" fill="#BD2915" fill-opacity="0.2" style="mix-blend-mode:soft-light"/>
<path d="M267.987 151.086C272.11 147.538 278.527 149.841 279.452 155.201L283.71 179.871C284.207 182.748 286.437 185.016 289.307 185.558L313.905 190.212C319.249 191.223 321.449 197.675 317.836 201.74L301.203 220.451C299.263 222.633 298.882 225.791 300.246 228.373L311.678 250H200.273L203.56 238.482C204.361 235.674 203.334 232.663 200.984 230.929L180.841 216.064C176.465 212.835 177.282 206.066 182.302 203.971L205.405 194.331C208.1 193.206 209.814 190.526 209.705 187.608L208.769 162.591C208.565 157.156 214.366 153.575 219.133 156.193L241.076 168.246C243.636 169.652 246.799 169.322 249.013 167.417L267.987 151.086Z" fill="#BD2915" fill-opacity="0.2" style="mix-blend-mode:screen"/>
<g filter="url(#filter1_d_217_437)">
<path d="M250.199 63C260.278 63.0003 268.448 71.1705 268.448 81.249V187.661C275.123 193.012 279.397 201.234 279.397 210.454C279.397 226.58 266.325 239.652 250.199 239.652C234.073 239.652 221 226.58 221 210.454C221 201.234 225.275 193.012 231.949 187.661V81.249C231.949 71.1704 240.121 63 250.199 63Z" fill="url(#paint1_linear_217_437)" shape-rendering="crispEdges"/>
</g>
<path d="M250.265 68.8407C258.098 68.8407 264.448 75.1909 264.448 83.0243V193.204C270.065 197.483 273.691 204.242 273.691 211.849C273.691 224.786 263.203 235.273 250.266 235.273C237.328 235.273 226.84 224.786 226.84 211.849C226.84 204.243 230.465 197.484 236.081 193.205V83.0243C236.081 75.191 242.431 68.8408 250.265 68.8407Z" fill="url(#paint2_linear_217_437)"/>
<path d="M78.5873 144.485C79.0663 143.441 80.6402 143.896 80.4877 145.035L78.8568 157.209C78.7518 157.995 79.5601 158.585 80.2767 158.246L91.3764 152.986C92.4144 152.494 93.3275 153.854 92.4789 154.628L83.4037 162.907C82.8182 163.441 83.0577 164.412 83.8246 164.613L95.7094 167.718C96.8207 168.009 96.6452 169.637 95.4975 169.685L83.225 170.194C82.4327 170.227 81.9919 171.124 82.4506 171.771L89.558 181.789C90.2227 182.726 89.042 183.861 88.1322 183.16L78.4037 175.661C77.7756 175.176 76.8605 175.581 76.7963 176.371L75.8021 188.615C75.709 189.76 74.0746 189.869 73.8285 188.747L71.1967 176.749C71.0266 175.975 70.0655 175.697 69.5082 176.261L60.8764 185C60.0693 185.818 58.7466 184.852 59.2787 183.834L64.975 172.952C65.3428 172.249 64.7852 171.418 63.9955 171.492L51.766 172.638C50.6224 172.745 50.2302 171.154 51.2924 170.717L62.6508 166.042C63.384 165.741 63.4913 164.746 62.8392 164.295L52.7338 157.312C51.7888 156.659 52.5101 155.189 53.6049 155.537L65.3119 159.256C66.0675 159.496 66.7882 158.803 66.5785 158.038L63.3266 146.193C63.0227 145.085 64.5202 144.423 65.1351 145.393L71.7113 155.767C72.136 156.437 73.1345 156.37 73.4652 155.649L78.5873 144.485ZM466.84 143.674C467.08 143.152 467.866 143.38 467.79 143.949L467.338 147.327C467.286 147.72 467.69 148.015 468.048 147.845L471.127 146.385C471.646 146.139 472.103 146.819 471.679 147.206L469.161 149.503C468.868 149.771 468.988 150.257 469.371 150.357L472.668 151.218C473.224 151.363 473.137 152.178 472.563 152.202L469.158 152.343C468.762 152.36 468.542 152.808 468.771 153.131L470.743 155.912C471.075 156.38 470.485 156.947 470.03 156.596L467.33 154.516C467.016 154.274 466.559 154.476 466.527 154.871L466.251 158.268C466.205 158.84 465.387 158.895 465.264 158.334L464.534 155.006C464.449 154.619 463.969 154.48 463.69 154.762L461.295 157.186C460.892 157.595 460.23 157.112 460.496 156.603L462.077 153.583C462.26 153.232 461.982 152.817 461.587 152.854L458.194 153.172C457.622 153.226 457.426 152.431 457.956 152.212L461.109 150.914C461.475 150.763 461.528 150.267 461.203 150.041L458.399 148.104C457.926 147.777 458.287 147.041 458.834 147.215L462.082 148.247C462.46 148.367 462.821 148.021 462.716 147.639L461.814 144.353C461.662 143.799 462.411 143.467 462.718 143.953L464.542 146.83C464.755 147.165 465.254 147.132 465.419 146.772L466.84 143.674ZM45.3275 25.9418C45.8067 24.8983 47.3792 25.3533 47.2269 26.4916L46.266 33.6674C46.1608 34.4534 46.9692 35.0431 47.6859 34.7035L54.2279 31.6039C55.266 31.1121 56.1781 32.4723 55.3295 33.2465L49.9818 38.1254C49.3959 38.6599 49.6354 39.6309 50.4027 39.8314L57.4066 41.6615C58.5179 41.9519 58.3431 43.5805 57.1957 43.6283L49.9623 43.9281C49.1699 43.961 48.729 44.8594 49.1879 45.5063L53.3764 51.4106C54.041 52.3474 52.8603 53.482 51.9506 52.7807L46.2172 48.3607C45.5891 47.8767 44.6742 48.2814 44.6098 49.0717L44.0238 56.2875C43.9308 57.4323 42.2965 57.543 42.0502 56.4213L40.4984 49.35C40.3285 48.5755 39.3683 48.297 38.8109 48.8607L33.723 54.0121C32.9158 54.829 31.5927 53.8628 32.1254 52.8451L35.4828 46.4311C35.8504 45.7284 35.2929 44.8981 34.5033 44.9721L27.2953 45.6479C26.1519 45.7546 25.7596 44.1641 26.8217 43.727L33.516 40.9721C34.2494 40.6702 34.3569 39.6749 33.7045 39.224L27.7484 35.1088C26.8035 34.4558 27.525 32.985 28.6195 33.3324L35.5189 35.5248C36.2748 35.765 36.9965 35.0718 36.7865 34.307L34.8695 27.3266C34.5654 26.219 36.0629 25.5561 36.6781 26.5258L40.5551 32.64C40.9797 33.3099 41.9773 33.2427 42.308 32.5219L45.3275 25.9418ZM431.24 18.5883C431.479 18.0663 432.266 18.2944 432.19 18.8637L431.548 23.6547C431.496 24.0475 431.899 24.3426 432.257 24.1732L436.626 22.1029C437.145 21.8572 437.601 22.5372 437.177 22.9242L433.606 26.182C433.313 26.4493 433.433 26.9343 433.817 27.0346L438.494 28.2572C439.049 28.4025 438.962 29.2165 438.388 29.2406L433.558 29.4408C433.162 29.4572 432.941 29.9065 433.17 30.2299L435.968 34.1723C436.3 34.6407 435.709 35.2084 435.254 34.8578L431.426 31.9066C431.112 31.6645 430.655 31.8669 430.622 32.2621L430.231 37.0795C430.184 37.6518 429.368 37.7075 429.245 37.1469L428.208 32.4242C428.123 32.0374 427.643 31.8985 427.365 32.1801L423.967 35.6195C423.564 36.0282 422.902 35.5454 423.168 35.0365L425.411 30.7533C425.594 30.4021 425.315 29.9868 424.92 30.0238L420.108 30.475C419.536 30.5286 419.34 29.7337 419.87 29.515L424.341 27.6752C424.708 27.5242 424.761 27.0266 424.435 26.8012L420.457 24.0531C419.985 23.7265 420.347 22.9915 420.894 23.1654L425.5 24.6293C425.878 24.7494 426.239 24.4023 426.134 24.0199L424.854 19.3588C424.702 18.8049 425.452 18.4733 425.759 18.9584L428.347 23.0414C428.559 23.3762 429.059 23.3422 429.224 22.9818L431.24 18.5883Z" fill="#F1D85F" fill-opacity="0.35" style="mix-blend-mode:color"/>
<defs>
<filter id="filter0_n_217_437" x="0" y="0" width="500" height="250" filterUnits="userSpaceOnUse" color-interpolation-filters="sRGB">
<feFlood flood-opacity="0" result="BackgroundImageFix"/>
<feBlend mode="normal" in="SourceGraphic" in2="BackgroundImageFix" result="shape"/>
<feTurbulence type="fractalNoise" baseFrequency="0.027855152264237404 0.027855152264237404" stitchTiles="stitch" numOctaves="3" result="noise" seed="3347" />
<feColorMatrix in="noise" type="luminanceToAlpha" result="alphaNoise" />
<feComponentTransfer in="alphaNoise" result="coloredNoise1">
<feFuncA type="discrete" tableValues="1 1 1 1 1 1 1 1 1 1 1 1 1 1 1 1 1 1 1 1 1 1 1 1 1 1 1 1 1 1 1 1 1 1 1 1 1 1 1 1 1 1 1 1 1 1 1 1 1 1 0 0 0 0 0 0 0 0 0 0 0 0 0 0 0 0 0 0 0 0 0 0 0 0 0 0 0 0 0 0 0 0 0 0 0 0 0 0 0 0 0 0 0 0 0 0 0 0 0 0 "/>
</feComponentTransfer>
<feComposite operator="in" in2="shape" in="coloredNoise1" result="noise1Clipped" />
<feComponentTransfer in="alphaNoise" result="coloredNoise2">
<feFuncA type="discrete" tableValues="0 0 0 0 0 0 0 0 0 0 0 0 0 0 0 0 0 0 0 0 0 0 0 0 0 0 0 0 0 0 0 0 0 0 0 0 0 0 0 0 0 0 0 0 0 0 0 0 0 0 1 1 1 1 1 1 1 1 1 1 1 1 1 1 1 1 1 1 1 1 1 1 1 1 1 1 1 1 1 1 1 1 1 1 1 1 1 1 1 1 1 1 1 1 1 1 1 1 1 1 "/>
</feComponentTransfer>
<feComposite operator="in" in2="shape" in="coloredNoise2" result="noise2Clipped" />
<feFlood flood-color="rgba(31, 54, 71, 0.25)" result="color1Flood" />
<feComposite operator="in" in2="noise1Clipped" in="color1Flood" result="color1" />
<feFlood flood-color="rgba(19, 80, 100, 0.1)" result="color2Flood" />
<feComposite operator="in" in2="noise2Clipped" in="color2Flood" result="color2" />
<feMerge result="effect1_noise_217_437">
<feMergeNode in="shape" />
<feMergeNode in="color1" />
<feMergeNode in="color2" />
</feMerge>
</filter>
<clipPath id="paint0_diamond_217_437_clip_path"><rect width="500" height="250"/></clipPath><filter id="filter1_d_217_437" x="211" y="53" width="78.3975" height="196.652" filterUnits="userSpaceOnUse" color-interpolation-filters="sRGB">
<feFlood flood-opacity="0" result="BackgroundImageFix"/>
<feColorMatrix in="SourceAlpha" type="matrix" values="0 0 0 0 0 0 0 0 0 0 0 0 0 0 0 0 0 0 127 0" result="hardAlpha"/>
<feOffset/>
<feGaussianBlur stdDeviation="5"/>
<feComposite in2="hardAlpha" operator="out"/>
<feColorMatrix type="matrix" values="0 0 0 0 0.741176 0 0 0 0 0.160784 0 0 0 0 0.0823529 0 0 0 1 0"/>
<feBlend mode="normal" in2="BackgroundImageFix" result="effect1_dropShadow_217_437"/>
<feBlend mode="normal" in="SourceGraphic" in2="effect1_dropShadow_217_437" result="shape"/>
</filter>
<linearGradient id="paint0_diamond_217_437" x1="0" y1="0" x2="500" y2="500" gradientUnits="userSpaceOnUse">
<stop stop-color="#641349"/>
<stop offset="1" stop-color="#1F3647"/>
</linearGradient>
<linearGradient id="paint1_linear_217_437" x1="250.199" y1="63" x2="250.199" y2="239.652" gradientUnits="userSpaceOnUse">
<stop stop-color="#F3F7F9" stop-opacity="0.5"/>
<stop offset="1" stop-color="#E1ECF3" stop-opacity="0.5"/>
</linearGradient>
<linearGradient id="paint2_linear_217_437" x1="250.266" y1="93.5483" x2="250.266" y2="235.273" gradientUnits="userSpaceOnUse">
<stop stop-color="#F1775F"/>
<stop offset="1" stop-color="#BD2915"/>
</linearGradient>
</defs>
</svg>
