<svg width="500" height="315" viewBox="0 0 500 315" fill="none" xmlns="http://www.w3.org/2000/svg">
<g filter="url(#filter0_n_217_437)">
<g clip-path="url(#paint0_diamond_217_437_clip_path)" data-figma-skip-parse="true"><g transform="matrix(0.0055 -0.212 0.584071 0.0151528 244.5 218)"><rect x="0" y="0" width="1035.41" height="440.595" fill="url(#paint0_diamond_217_437)" opacity="1" shape-rendering="crispEdges"/><rect x="0" y="0" width="1035.41" height="440.595" transform="scale(1 -1)" fill="url(#paint0_diamond_217_437)" opacity="1" shape-rendering="crispEdges"/><rect x="0" y="0" width="1035.41" height="440.595" transform="scale(-1 1)" fill="url(#paint0_diamond_217_437)" opacity="1" shape-rendering="crispEdges"/><rect x="0" y="0" width="1035.41" height="440.595" transform="scale(-1)" fill="url(#paint0_diamond_217_437)" opacity="1" shape-rendering="crispEdges"/></g></g><rect y="6" width="500" height="250" data-figma-gradient-fill="{&#34;type&#34;:&#34;GRADIENT_DIAMOND&#34;,&#34;stops&#34;:[{&#34;color&#34;:{&#34;r&#34;:0.39272224903106689,&#34;g&#34;:0.072684906423091888,&#34;b&#34;:0.28604313731193542,&#34;a&#34;:1.0},&#34;position&#34;:0.0},{&#34;color&#34;:{&#34;r&#34;:0.12000000476837158,&#34;g&#34;:0.21333332359790802,&#34;b&#34;:0.28000000119209290,&#34;a&#34;:1.0},&#34;position&#34;:1.0}],&#34;stopsVar&#34;:[{&#34;color&#34;:{&#34;r&#34;:0.39272224903106689,&#34;g&#34;:0.072684906423091888,&#34;b&#34;:0.28604313731193542,&#34;a&#34;:1.0},&#34;position&#34;:0.0},{&#34;color&#34;:{&#34;r&#34;:0.12000000476837158,&#34;g&#34;:0.21333332359790802,&#34;b&#34;:0.28000000119209290,&#34;a&#34;:1.0},&#34;position&#34;:1.0}],&#34;transform&#34;:{&#34;m00&#34;:11.000006675720215,&#34;m01&#34;:1168.14160156250,&#34;m02&#34;:-345.07083129882812,&#34;m10&#34;:-424.0,&#34;m11&#34;:30.305580139160156,&#34;m12&#34;:414.84722900390625},&#34;opacity&#34;:1.0,&#34;blendMode&#34;:&#34;NORMAL&#34;,&#34;visible&#34;:true}"/>
</g>
<path d="M210.093 58.6514C211.31 53.3505 217.844 51.4025 221.766 55.1709L258.752 90.71C260.858 92.7333 263.998 93.2371 266.631 91.9736L312.875 69.7793C317.778 67.4261 323.375 71.3196 322.874 76.7353L318.148 127.812C317.88 130.719 319.444 133.488 322.073 134.759L368.258 157.076C373.155 159.443 373.6 166.246 369.054 169.23L326.175 197.382C323.734 198.984 322.545 201.934 323.19 204.781L334.537 254.805C334.629 255.208 334.684 255.607 334.706 256H304.151L276.787 247.033C274.012 246.124 270.964 247.033 269.141 249.313L263.794 256H213.367L207.176 239.377C206.156 236.641 203.545 234.824 200.625 234.82L149.331 234.752C143.892 234.745 140.539 228.809 143.34 224.147L169.759 180.18C171.263 177.677 171.055 174.502 169.237 172.217L137.309 132.071C133.923 127.814 136.474 121.491 141.865 120.774L192.712 114.017C195.607 113.632 197.959 111.49 198.612 108.645L210.093 58.6514Z" fill="#F1A85F" style="mix-blend-mode:soft-light"/>
<path d="M279.241 38.9209C280.955 41.2849 283.958 42.3362 286.772 41.5586L365.536 19.7988C370.778 18.3505 375.598 23.1726 374.146 28.4141L352.336 107.164C351.556 109.978 352.607 112.981 354.97 114.697L421.091 162.71C425.491 165.906 424.726 172.68 419.723 174.813L344.556 206.861C341.869 208.007 340.176 210.699 340.308 213.616L342.223 256H170.413L166.291 233.168C165.772 230.294 163.524 228.044 160.65 227.523L80.246 212.954C74.8943 211.984 72.6445 205.549 76.2265 201.456L130.045 139.968C131.968 137.77 132.325 134.609 130.94 132.038L92.2001 60.0908C89.6218 55.3021 93.2504 49.5314 98.6835 49.7803L180.312 53.5195C183.229 53.6531 185.923 51.9618 187.07 49.2764L205.554 6H255.368L279.241 38.9209Z" fill="#BD2915" fill-opacity="0.2" style="mix-blend-mode:soft-light"/>
<path d="M267.987 157.086C272.11 153.538 278.527 155.841 279.452 161.201L283.71 185.871C284.207 188.748 286.437 191.016 289.307 191.558L313.905 196.212C319.249 197.223 321.449 203.675 317.836 207.74L301.203 226.451C299.263 228.633 298.882 231.791 300.246 234.373L311.678 256H200.273L203.56 244.482C204.361 241.674 203.334 238.663 200.984 236.929L180.841 222.064C176.465 218.835 177.282 212.066 182.302 209.971L205.405 200.331C208.1 199.206 209.814 196.526 209.705 193.608L208.769 168.591C208.565 163.156 214.366 159.575 219.133 162.193L241.076 174.246C243.636 175.652 246.799 175.322 249.013 173.417L267.987 157.086Z" fill="#BD2915" fill-opacity="0.2" style="mix-blend-mode:screen"/>
<g filter="url(#filter1_d_217_437)">
<g filter="url(#filter2_d_217_437)">
<path d="M250.199 69C260.278 69.0003 268.448 77.1705 268.448 87.249V193.661C275.123 199.012 279.397 207.234 279.397 216.454C279.397 232.58 266.325 245.652 250.199 245.652C234.073 245.652 221 232.58 221 216.454C221 207.234 225.275 199.012 231.949 193.661V87.249C231.949 77.1704 240.121 69 250.199 69Z" fill="url(#paint1_linear_217_437)" shape-rendering="crispEdges"/>
</g>
<g filter="url(#filter3_d_217_437)">
<path d="M250.265 74.8407C258.098 74.8407 264.448 81.1909 264.448 89.0243V199.204C270.065 203.483 273.691 210.242 273.691 217.849C273.691 230.786 263.203 241.273 250.266 241.273C237.328 241.273 226.84 230.786 226.84 217.849C226.84 210.243 230.465 203.484 236.081 199.205V89.0243C236.081 81.191 242.431 74.8408 250.265 74.8407Z" fill="url(#paint2_linear_217_437)"/>
</g>
</g>
<path d="M78.5873 150.485C79.0663 149.441 80.6402 149.896 80.4877 151.035L78.8568 163.209C78.7518 163.995 79.5601 164.585 80.2767 164.246L91.3764 158.986C92.4144 158.494 93.3275 159.854 92.4789 160.628L83.4037 168.907C82.8182 169.441 83.0577 170.412 83.8246 170.613L95.7094 173.718C96.8207 174.009 96.6452 175.637 95.4975 175.685L83.225 176.194C82.4327 176.227 81.9919 177.124 82.4506 177.771L89.558 187.789C90.2227 188.726 89.042 189.861 88.1322 189.16L78.4037 181.661C77.7756 181.176 76.8605 181.581 76.7963 182.371L75.8021 194.615C75.709 195.76 74.0746 195.869 73.8285 194.747L71.1967 182.749C71.0266 181.975 70.0655 181.697 69.5082 182.261L60.8764 191C60.0693 191.818 58.7466 190.852 59.2787 189.834L64.975 178.952C65.3428 178.249 64.7852 177.418 63.9955 177.492L51.766 178.638C50.6224 178.745 50.2302 177.154 51.2924 176.717L62.6508 172.042C63.384 171.741 63.4913 170.746 62.8392 170.295L52.7338 163.312C51.7888 162.659 52.5101 161.189 53.6049 161.537L65.3119 165.256C66.0675 165.496 66.7882 164.803 66.5785 164.038L63.3266 152.193C63.0227 151.085 64.5202 150.423 65.1351 151.393L71.7113 161.767C72.136 162.437 73.1345 162.37 73.4652 161.649L78.5873 150.485ZM466.84 149.674C467.08 149.152 467.866 149.38 467.79 149.949L467.338 153.327C467.286 153.72 467.69 154.015 468.048 153.845L471.127 152.385C471.646 152.139 472.103 152.819 471.679 153.206L469.161 155.503C468.868 155.771 468.988 156.257 469.371 156.357L472.668 157.218C473.224 157.363 473.137 158.178 472.563 158.202L469.158 158.343C468.762 158.36 468.542 158.808 468.771 159.131L470.743 161.912C471.075 162.38 470.485 162.947 470.03 162.596L467.33 160.516C467.016 160.274 466.559 160.476 466.527 160.871L466.251 164.268C466.205 164.84 465.387 164.895 465.264 164.334L464.534 161.006C464.449 160.619 463.969 160.48 463.69 160.762L461.295 163.186C460.892 163.595 460.23 163.112 460.496 162.603L462.077 159.583C462.26 159.232 461.982 158.817 461.587 158.854L458.194 159.172C457.622 159.226 457.426 158.431 457.956 158.212L461.109 156.914C461.475 156.763 461.528 156.267 461.203 156.041L458.399 154.104C457.926 153.777 458.287 153.041 458.834 153.215L462.082 154.247C462.46 154.367 462.821 154.021 462.716 153.639L461.814 150.353C461.662 149.799 462.411 149.467 462.718 149.953L464.542 152.83C464.755 153.165 465.254 153.132 465.419 152.772L466.84 149.674ZM45.3275 31.9418C45.8067 30.8983 47.3792 31.3533 47.2269 32.4916L46.266 39.6674C46.1608 40.4534 46.9692 41.0431 47.6859 40.7035L54.2279 37.6039C55.266 37.1121 56.1781 38.4723 55.3295 39.2465L49.9818 44.1254C49.3959 44.6599 49.6354 45.6309 50.4027 45.8314L57.4066 47.6615C58.5179 47.9519 58.3431 49.5805 57.1957 49.6283L49.9623 49.9281C49.1699 49.961 48.729 50.8594 49.1879 51.5063L53.3764 57.4106C54.041 58.3474 52.8603 59.482 51.9506 58.7807L46.2172 54.3607C45.5891 53.8767 44.6742 54.2814 44.6098 55.0717L44.0238 62.2875C43.9308 63.4323 42.2965 63.543 42.0502 62.4213L40.4984 55.35C40.3285 54.5755 39.3683 54.297 38.8109 54.8607L33.723 60.0121C32.9158 60.829 31.5927 59.8628 32.1254 58.8451L35.4828 52.4311C35.8504 51.7284 35.2929 50.8981 34.5033 50.9721L27.2953 51.6479C26.1519 51.7546 25.7596 50.1641 26.8217 49.727L33.516 46.9721C34.2494 46.6702 34.3569 45.6749 33.7045 45.224L27.7484 41.1088C26.8035 40.4558 27.525 38.985 28.6195 39.3324L35.5189 41.5248C36.2748 41.765 36.9965 41.0718 36.7865 40.307L34.8695 33.3266C34.5654 32.219 36.0629 31.5561 36.6781 32.5258L40.5551 38.64C40.9797 39.3099 41.9773 39.2427 42.308 38.5219L45.3275 31.9418ZM431.24 24.5883C431.479 24.0663 432.266 24.2944 432.19 24.8637L431.548 29.6547C431.496 30.0475 431.899 30.3426 432.257 30.1732L436.626 28.1029C437.145 27.8572 437.601 28.5372 437.177 28.9242L433.606 32.182C433.313 32.4493 433.433 32.9343 433.817 33.0346L438.494 34.2572C439.049 34.4025 438.962 35.2165 438.388 35.2406L433.558 35.4408C433.162 35.4572 432.941 35.9065 433.17 36.2299L435.968 40.1723C436.3 40.6407 435.709 41.2084 435.254 40.8578L431.426 37.9066C431.112 37.6645 430.655 37.8669 430.622 38.2621L430.231 43.0795C430.184 43.6518 429.368 43.7075 429.245 43.1469L428.208 38.4242C428.123 38.0374 427.643 37.8985 427.365 38.1801L423.967 41.6195C423.564 42.0282 422.902 41.5454 423.168 41.0365L425.411 36.7533C425.594 36.4021 425.315 35.9868 424.92 36.0238L420.108 36.475C419.536 36.5286 419.34 35.7337 419.87 35.515L424.341 33.6752C424.708 33.5242 424.761 33.0266 424.435 32.8012L420.457 30.0531C419.985 29.7265 420.347 28.9915 420.894 29.1654L425.5 30.6293C425.878 30.7494 426.239 30.4023 426.134 30.0199L424.854 25.3588C424.702 24.8049 425.452 24.4733 425.759 24.9584L428.347 29.0414C428.559 29.3762 429.059 29.3422 429.224 28.9818L431.24 24.5883Z" fill="#F1D85F" fill-opacity="0.35" style="mix-blend-mode:color"/>
<defs>
<filter id="filter0_n_217_437" x="0" y="6" width="500" height="250" filterUnits="userSpaceOnUse" color-interpolation-filters="sRGB">
<feFlood flood-opacity="0" result="BackgroundImageFix"/>
<feBlend mode="normal" in="SourceGraphic" in2="BackgroundImageFix" result="shape"/>
<feTurbulence type="fractalNoise" baseFrequency="0.027855152264237404 0.027855152264237404" stitchTiles="stitch" numOctaves="3" result="noise" seed="3347" />
<feColorMatrix in="noise" type="luminanceToAlpha" result="alphaNoise" />
<feComponentTransfer in="alphaNoise" result="coloredNoise1">
<feFuncA type="discrete" tableValues="1 1 1 1 1 1 1 1 1 1 1 1 1 1 1 1 1 1 1 1 1 1 1 1 1 1 1 1 1 1 1 1 1 1 1 1 1 1 1 1 1 1 1 1 1 1 1 1 1 1 0 0 0 0 0 0 0 0 0 0 0 0 0 0 0 0 0 0 0 0 0 0 0 0 0 0 0 0 0 0 0 0 0 0 0 0 0 0 0 0 0 0 0 0 0 0 0 0 0 0 "/>
</feComponentTransfer>
<feComposite operator="in" in2="shape" in="coloredNoise1" result="noise1Clipped" />
<feComponentTransfer in="alphaNoise" result="coloredNoise2">
<feFuncA type="discrete" tableValues="0 0 0 0 0 0 0 0 0 0 0 0 0 0 0 0 0 0 0 0 0 0 0 0 0 0 0 0 0 0 0 0 0 0 0 0 0 0 0 0 0 0 0 0 0 0 0 0 0 0 1 1 1 1 1 1 1 1 1 1 1 1 1 1 1 1 1 1 1 1 1 1 1 1 1 1 1 1 1 1 1 1 1 1 1 1 1 1 1 1 1 1 1 1 1 1 1 1 1 1 "/>
</feComponentTransfer>
<feComposite operator="in" in2="shape" in="coloredNoise2" result="noise2Clipped" />
<feFlood flood-color="rgba(31, 54, 71, 0.25)" result="color1Flood" />
<feComposite operator="in" in2="noise1Clipped" in="color1Flood" result="color1" />
<feFlood flood-color="rgba(19, 80, 100, 0.1)" result="color2Flood" />
<feComposite operator="in" in2="noise2Clipped" in="color2Flood" result="color2" />
<feMerge result="effect1_noise_217_437">
<feMergeNode in="shape" />
<feMergeNode in="color1" />
<feMergeNode in="color2" />
</feMerge>
</filter>
<clipPath id="paint0_diamond_217_437_clip_path"><rect y="6" width="500" height="250"/></clipPath><filter id="filter1_d_217_437" x="211" y="59" width="78.3975" height="196.652" filterUnits="userSpaceOnUse" color-interpolation-filters="sRGB">
<feFlood flood-opacity="0" result="BackgroundImageFix"/>
<feColorMatrix in="SourceAlpha" type="matrix" values="0 0 0 0 0 0 0 0 0 0 0 0 0 0 0 0 0 0 127 0" result="hardAlpha"/>
<feOffset/>
<feGaussianBlur stdDeviation="5"/>
<feComposite in2="hardAlpha" operator="out"/>
<feColorMatrix type="matrix" values="0 0 0 0 0 0 0 0 0 0 0 0 0 0 0 0 0 0 0.25 0"/>
<feBlend mode="normal" in2="BackgroundImageFix" result="effect1_dropShadow_217_437"/>
<feBlend mode="normal" in="SourceGraphic" in2="effect1_dropShadow_217_437" result="shape"/>
</filter>
<filter id="filter2_d_217_437" x="152" y="0" width="196.397" height="314.652" filterUnits="userSpaceOnUse" color-interpolation-filters="sRGB">
<feFlood flood-opacity="0" result="BackgroundImageFix"/>
<feColorMatrix in="SourceAlpha" type="matrix" values="0 0 0 0 0 0 0 0 0 0 0 0 0 0 0 0 0 0 127 0" result="hardAlpha"/>
<feOffset/>
<feGaussianBlur stdDeviation="34.5"/>
<feComposite in2="hardAlpha" operator="out"/>
<feColorMatrix type="matrix" values="0 0 0 0 0.741176 0 0 0 0 0.160784 0 0 0 0 0.0823529 0 0 0 1 0"/>
<feBlend mode="normal" in2="BackgroundImageFix" result="effect1_dropShadow_217_437"/>
<feBlend mode="normal" in="SourceGraphic" in2="effect1_dropShadow_217_437" result="shape"/>
</filter>
<filter id="filter3_d_217_437" x="157.84" y="5.8407" width="184.852" height="304.433" filterUnits="userSpaceOnUse" color-interpolation-filters="sRGB">
<feFlood flood-opacity="0" result="BackgroundImageFix"/>
<feColorMatrix in="SourceAlpha" type="matrix" values="0 0 0 0 0 0 0 0 0 0 0 0 0 0 0 0 0 0 127 0" result="hardAlpha"/>
<feOffset/>
<feGaussianBlur stdDeviation="34.5"/>
<feComposite in2="hardAlpha" operator="out"/>
<feColorMatrix type="matrix" values="0 0 0 0 0.741176 0 0 0 0 0.160784 0 0 0 0 0.0823529 0 0 0 1 0"/>
<feBlend mode="normal" in2="BackgroundImageFix" result="effect1_dropShadow_217_437"/>
<feBlend mode="normal" in="SourceGraphic" in2="effect1_dropShadow_217_437" result="shape"/>
</filter>
<linearGradient id="paint0_diamond_217_437" x1="0" y1="0" x2="500" y2="500" gradientUnits="userSpaceOnUse">
<stop stop-color="#641349"/>
<stop offset="1" stop-color="#1F3647"/>
</linearGradient>
<linearGradient id="paint1_linear_217_437" x1="250.199" y1="69" x2="250.199" y2="245.652" gradientUnits="userSpaceOnUse">
<stop stop-color="#F3F7F9" stop-opacity="0.5"/>
<stop offset="1" stop-color="#E1ECF3" stop-opacity="0.5"/>
</linearGradient>
<linearGradient id="paint2_linear_217_437" x1="250.266" y1="99.5483" x2="250.266" y2="241.273" gradientUnits="userSpaceOnUse">
<stop stop-color="#F1775F"/>
<stop offset="1" stop-color="#BD2915"/>
</linearGradient>
</defs>
</svg>
