<svg width="100" height="100" viewBox="0 0 100 100" fill="none" xmlns="http://www.w3.org/2000/svg">
<rect width="100" height="100" fill="#0077CC"/>
<path d="M55.4472 14C58.2087 14 60.4472 16.2386 60.4472 19V47.5537L78.2324 78.7754C80.1309 82.1086 77.7237 86.25 73.8877 86.25H27.0068C23.171 86.2498 20.7638 82.1085 22.6621 78.7754L40.4472 47.5537V19C40.4472 16.2386 42.6859 14.0001 45.4472 14H55.4472Z" fill="#0077CC"/>
<path d="M60.4472 19L62.9472 19V19L60.4472 19ZM60.4472 47.5537H57.9472V48.2158L58.275 48.7911L60.4472 47.5537ZM78.2324 78.7754L80.4047 77.5381L80.4047 77.538L78.2324 78.7754ZM27.0068 86.25L27.0067 88.75H27.0068V86.25ZM22.6621 78.7754L20.4898 77.538L20.4897 77.5381L22.6621 78.7754ZM40.4472 47.5537L42.6195 48.7911L42.9472 48.2158V47.5537H40.4472ZM40.4472 19L37.9472 19V19H40.4472ZM45.4472 14L45.4472 11.5L45.4472 11.5L45.4472 14ZM55.4472 14V16.5C56.8279 16.5 57.9472 17.6193 57.9472 19L60.4472 19L62.9472 19C62.9472 14.8579 59.5894 11.5 55.4472 11.5V14ZM60.4472 19H57.9472V47.5537H60.4472H62.9472V19H60.4472ZM60.4472 47.5537L58.275 48.7911L76.0601 80.0128L78.2324 78.7754L80.4047 77.538L62.6195 46.3163L60.4472 47.5537ZM78.2324 78.7754L76.0601 80.0127C77.0093 81.6793 75.8057 83.75 73.8877 83.75V86.25V88.75C79.6417 88.75 83.2525 82.5379 80.4047 77.5381L78.2324 78.7754ZM73.8877 86.25V83.75H27.0068V86.25V88.75H73.8877V86.25ZM27.0068 86.25L27.0069 83.75C25.0889 83.7499 23.8854 81.6791 24.8345 80.0126L22.6621 78.7754L20.4897 77.5381C17.6421 82.5379 21.2531 88.7497 27.0067 88.75L27.0068 86.25ZM22.6621 78.7754L24.8344 80.0128L42.6195 48.7911L40.4472 47.5537L38.275 46.3163L20.4898 77.538L22.6621 78.7754ZM40.4472 47.5537H42.9472V19H40.4472H37.9472V47.5537H40.4472ZM40.4472 19L42.9472 19C42.9472 17.6194 44.0665 16.5 45.4473 16.5L45.4472 14L45.4472 11.5C41.3052 11.5001 37.9472 14.8578 37.9472 19L40.4472 19ZM45.4472 14V16.5H55.4472V14V11.5H45.4472V14Z" fill="white"/>
<mask id="path-4-inside-1_152_32" fill="white">
<path d="M58.202 49.5005C58.3677 49.5005 58.5323 49.5107 58.6952 49.5269L76.0614 80.0132C77.0102 81.6796 75.8063 83.7503 73.8885 83.7505H27.0077C25.0901 83.7502 23.8864 81.6799 24.8358 80.0132L42.2166 49.5005H58.202Z"/>
</mask>
<path d="M58.202 49.5005C58.3677 49.5005 58.5323 49.5107 58.6952 49.5269L76.0614 80.0132C77.0102 81.6796 75.8063 83.7503 73.8885 83.7505H27.0077C25.0901 83.7502 23.8864 81.6799 24.8358 80.0132L42.2166 49.5005H58.202Z" fill="white"/>
<path d="M58.6952 49.5269L61.3019 48.042L60.5341 46.6941L58.9905 46.5414L58.6952 49.5269ZM76.0614 80.0132L78.6684 78.5288L78.6681 78.5283L76.0614 80.0132ZM73.8885 83.7505L73.8885 86.7505L73.8889 86.7505L73.8885 83.7505ZM27.0077 83.7505L27.0073 86.7505H27.0077V83.7505ZM24.8358 80.0132L22.229 78.5283L22.229 78.5284L24.8358 80.0132ZM42.2166 49.5005V46.5005H40.473L39.6099 48.0156L42.2166 49.5005ZM58.202 49.5005V52.5005C58.2454 52.5005 58.3083 52.5032 58.3998 52.5123L58.6952 49.5269L58.9905 46.5414C58.7563 46.5183 58.49 46.5005 58.202 46.5005V49.5005ZM58.6952 49.5269L56.0884 51.0118L73.4546 81.4981L76.0614 80.0132L78.6681 78.5283L61.3019 48.042L58.6952 49.5269ZM76.0614 80.0132L73.4544 81.4976C73.2642 81.1635 73.5054 80.7505 73.8882 80.7505L73.8885 83.7505L73.8889 86.7505C78.1072 86.75 80.7563 82.1956 78.6684 78.5288L76.0614 80.0132ZM73.8885 83.7505V80.7505H27.0077V83.7505V86.7505H73.8885V83.7505ZM27.0077 83.7505L27.0081 80.7505C27.3915 80.7505 27.6325 81.1646 27.4426 81.498L24.8358 80.0132L22.229 78.5284C20.1403 82.1952 22.7887 86.7499 27.0073 86.7505L27.0077 83.7505ZM24.8358 80.0132L27.4425 81.4981L44.8234 50.9854L42.2166 49.5005L39.6099 48.0156L22.229 78.5283L24.8358 80.0132ZM42.2166 49.5005V52.5005H58.202V49.5005V46.5005H42.2166V49.5005Z" fill="#0077CC" mask="url(#path-4-inside-1_152_32)"/>
</svg>
