<svg width="809" height="628" viewBox="0 0 809 628" fill="none" xmlns="http://www.w3.org/2000/svg">
<rect x="5" y="5" width="799" height="618" fill="white" stroke="white" stroke-width="10"/>
<g clip-path="url(#clip0_754_95)">
<path d="M799 10H684V125H799V10Z" fill="#0077CC"/>
<path d="M747.764 26.1001C750.94 26.1001 753.514 28.6745 753.514 31.8501V64.6869L773.967 100.592C776.15 104.425 773.382 109.188 768.971 109.188H715.058C710.646 109.187 707.878 104.425 710.061 100.592L730.514 64.6869V31.8501C730.514 28.6745 733.089 26.1002 736.264 26.1001H747.764Z" fill="#0077CC"/>
<path d="M753.514 64.6869H750.639V65.4483L751.016 66.1099L753.514 64.6869ZM730.514 64.6869L733.012 66.1099L733.389 65.4483V64.6869H730.514ZM747.764 26.1001V28.9751C749.352 28.9751 750.639 30.2623 750.639 31.8501H753.514H756.389C756.389 27.0867 752.528 23.2251 747.764 23.2251V26.1001ZM753.514 31.8501H750.639V64.6869H753.514H756.389V31.8501H753.514ZM753.514 64.6869L751.016 66.1099L771.469 102.015L773.967 100.592L776.465 99.1689L756.012 63.2638L753.514 64.6869ZM773.967 100.592L771.469 102.015C772.56 103.931 771.176 106.313 768.971 106.313V109.188V112.063C775.588 112.063 779.74 104.919 776.465 99.1689L773.967 100.592ZM768.971 109.188V106.313H715.058V109.188L715.057 112.063H768.971V109.188ZM715.058 109.188V106.313C712.852 106.312 711.468 103.931 712.559 102.015L710.061 100.592L707.563 99.1688C704.288 104.919 708.441 112.062 715.057 112.063L715.058 109.188ZM710.061 100.592L712.559 102.015L733.012 66.1099L730.514 64.6869L728.016 63.2638L707.563 99.1688L710.061 100.592ZM730.514 64.6869H733.389V31.8501H730.514H727.639V64.6869H730.514ZM730.514 31.8501H733.389C733.389 30.2624 734.676 28.9751 736.264 28.9751L736.264 26.1001V23.2251C731.501 23.2252 727.639 27.0866 727.639 31.8501H730.514ZM736.264 26.1001L736.264 28.9751H747.764V26.1001V23.2251H736.264V26.1001Z" fill="white"/>
<path d="M750.932 66.9255C751.123 66.9255 751.312 66.9373 751.5 66.9559L771.471 102.015C772.562 103.932 771.177 106.313 768.972 106.313H715.059C712.854 106.313 711.469 103.932 712.561 102.015L732.549 66.9255H750.932Z" fill="white"/>
<mask id="mask0_754_95" style="mask-type:luminance" maskUnits="userSpaceOnUse" x="712" y="66" width="60" height="41">
<path d="M750.932 66.9255C751.123 66.9255 751.312 66.9373 751.5 66.9559L771.471 102.015C772.562 103.932 771.177 106.313 768.972 106.313H715.059C712.854 106.313 711.469 103.932 712.561 102.015L732.549 66.9255H750.932Z" fill="white"/>
</mask>
<g mask="url(#mask0_754_95)">
<path d="M751.5 66.9559L754.497 65.2483L753.614 63.6982L751.839 63.5226L751.5 66.9559ZM732.549 66.9256V63.4756H730.544L729.552 65.2179L732.549 66.9256ZM750.932 66.9256V70.3756C750.982 70.3756 751.055 70.3787 751.16 70.3892L751.5 66.9559L751.839 63.5226C751.57 63.4961 751.264 63.4756 750.932 63.4756V66.9256ZM751.5 66.9559L748.502 68.6636L768.473 103.723L771.471 102.015L774.469 100.308L754.497 65.2483L751.5 66.9559ZM771.471 102.015L768.473 103.723C768.254 103.339 768.531 102.863 768.972 102.863L768.972 106.313V109.763C773.823 109.763 776.87 104.525 774.469 100.308L771.471 102.015ZM768.972 106.313L768.972 102.863H715.059V106.313L715.059 109.763H768.972V106.313ZM715.059 106.313V102.863C715.5 102.863 715.778 103.339 715.559 103.723L712.561 102.015L709.564 100.308C707.162 104.524 710.207 109.762 715.059 109.763L715.059 106.313ZM712.561 102.015L715.559 103.723L735.547 68.6332L732.549 66.9256L729.552 65.2179L709.564 100.308L712.561 102.015ZM732.549 66.9256V70.3756H750.932V66.9256V63.4756H732.549V66.9256Z" fill="#0077CC"/>
</g>
</g>
<path d="M262.075 45V23.8875H254.425V18.825H275.913V23.8875H268.263V45H262.075ZM293.665 45V32.175C293.665 31.075 293.39 30.2 292.84 29.55C292.29 28.9 291.565 28.575 290.665 28.575C289.64 28.575 288.69 28.925 287.815 29.625C286.965 30.3 286.065 31.475 285.115 33.15L284.29 28.2375C285.24 26.5875 286.39 25.425 287.74 24.75C289.09 24.05 290.465 23.7 291.865 23.7C293.465 23.7 294.827 24.0375 295.952 24.7125C297.102 25.3875 297.977 26.3375 298.577 27.5625C299.202 28.7625 299.515 30.175 299.515 31.8V45H293.665ZM279.752 45V17.2125H285.602V45H279.752ZM314.154 45.45C311.904 45.45 309.967 45.0125 308.342 44.1375C306.742 43.2625 305.504 42.0125 304.629 40.3875C303.754 38.7625 303.317 36.825 303.317 34.575C303.317 32.3 303.754 30.35 304.629 28.725C305.504 27.1 306.767 25.8625 308.417 25.0125C310.092 24.1375 312.104 23.7 314.454 23.7C318.129 23.7 320.792 24.75 322.442 26.85C324.117 28.925 324.817 31.7875 324.542 35.4375H307.967L308.004 31.425H318.579C318.504 30.475 318.079 29.7125 317.304 29.1375C316.529 28.5375 315.567 28.2375 314.417 28.2375C312.617 28.2375 311.292 28.8 310.442 29.925C309.592 31.05 309.167 32.6875 309.167 34.8375C309.167 35.9125 309.354 36.9 309.729 37.8C310.104 38.7 310.654 39.425 311.379 39.975C312.129 40.5 313.054 40.7625 314.154 40.7625C315.329 40.7625 316.317 40.475 317.117 39.9C317.942 39.325 318.442 38.6 318.617 37.725H324.467C324.217 40.1 323.167 41.9875 321.317 43.3875C319.492 44.7625 317.104 45.45 314.154 45.45ZM362.896 45.45C360.746 45.45 358.896 45.05 357.346 44.25C355.821 43.425 354.646 42.275 353.821 40.8C353.021 39.3 352.621 37.5375 352.621 35.5125H358.696C358.696 37.0875 359.034 38.3 359.709 39.15C360.409 39.975 361.471 40.3875 362.896 40.3875C364.021 40.3875 364.909 40.15 365.559 39.675C366.234 39.175 366.571 38.475 366.571 37.575C366.571 36.9 366.321 36.375 365.821 36C365.346 35.6 364.696 35.275 363.871 35.025C363.071 34.75 362.184 34.5 361.209 34.275C360.259 34.025 359.296 33.725 358.321 33.375C357.371 33.025 356.484 32.5625 355.659 31.9875C354.859 31.4125 354.209 30.6625 353.709 29.7375C353.234 28.8125 352.996 27.6375 352.996 26.2125C352.996 24.7375 353.396 23.4125 354.196 22.2375C355.021 21.0625 356.159 20.125 357.609 19.425C359.059 18.725 360.759 18.375 362.709 18.375C364.484 18.375 366.134 18.725 367.659 19.425C369.184 20.1 370.421 21.0875 371.371 22.3875C372.321 23.6875 372.821 25.2875 372.871 27.1875H366.684C366.634 26.3375 366.409 25.6375 366.009 25.0875C365.634 24.5375 365.146 24.125 364.546 23.85C363.971 23.575 363.359 23.4375 362.709 23.4375C361.784 23.4375 360.996 23.6625 360.346 24.1125C359.696 24.5375 359.371 25.175 359.371 26.025C359.371 26.675 359.609 27.1875 360.084 27.5625C360.584 27.9375 361.234 28.25 362.034 28.5C362.859 28.725 363.746 28.95 364.696 29.175C365.671 29.4 366.634 29.6875 367.584 30.0375C368.559 30.3625 369.446 30.825 370.246 31.425C371.071 32.025 371.721 32.825 372.196 33.825C372.696 34.8 372.946 36.05 372.946 37.575C372.946 39.1 372.509 40.4625 371.634 41.6625C370.784 42.8375 369.596 43.7625 368.071 44.4375C366.571 45.1125 364.846 45.45 362.896 45.45ZM387.436 45.45C385.236 45.45 383.336 45.0125 381.736 44.1375C380.161 43.2625 378.948 42.0125 378.098 40.3875C377.273 38.7625 376.861 36.825 376.861 34.575C376.861 32.275 377.298 30.3125 378.173 28.6875C379.073 27.0625 380.323 25.825 381.923 24.975C383.523 24.125 385.411 23.7 387.586 23.7C389.486 23.7 391.161 24.0375 392.611 24.7125C394.086 25.3875 395.248 26.3375 396.098 27.5625C396.973 28.7625 397.448 30.2 397.523 31.875H391.673C391.473 30.725 391.023 29.875 390.323 29.325C389.648 28.75 388.736 28.4625 387.586 28.4625C386.636 28.4625 385.786 28.7 385.036 29.175C384.311 29.65 383.736 30.3375 383.311 31.2375C382.911 32.1375 382.711 33.25 382.711 34.575C382.711 36.55 383.161 38.075 384.061 39.15C384.986 40.225 386.111 40.7625 387.436 40.7625C388.211 40.7625 388.886 40.625 389.461 40.35C390.061 40.075 390.561 39.6875 390.961 39.1875C391.361 38.6625 391.636 38.075 391.786 37.425H397.636C397.486 39.05 396.961 40.4625 396.061 41.6625C395.161 42.8625 393.973 43.8 392.498 44.475C391.023 45.125 389.336 45.45 387.436 45.45ZM408.6 45V24.15H414.45V45H408.6ZM401.85 45V40.275H421.275V45H401.85ZM404.475 28.875V24.15H411.525V28.875H404.475ZM408.375 21.375V15.9H414.6V21.375H408.375ZM436.103 45.45C433.853 45.45 431.915 45.0125 430.29 44.1375C428.69 43.2625 427.453 42.0125 426.578 40.3875C425.703 38.7625 425.265 36.825 425.265 34.575C425.265 32.3 425.703 30.35 426.578 28.725C427.453 27.1 428.715 25.8625 430.365 25.0125C432.04 24.1375 434.053 23.7 436.403 23.7C440.078 23.7 442.74 24.75 444.39 26.85C446.065 28.925 446.765 31.7875 446.49 35.4375H429.915L429.953 31.425H440.528C440.453 30.475 440.028 29.7125 439.253 29.1375C438.478 28.5375 437.515 28.2375 436.365 28.2375C434.565 28.2375 433.24 28.8 432.39 29.925C431.54 31.05 431.115 32.6875 431.115 34.8375C431.115 35.9125 431.303 36.9 431.678 37.8C432.053 38.7 432.603 39.425 433.328 39.975C434.078 40.5 435.003 40.7625 436.103 40.7625C437.278 40.7625 438.265 40.475 439.065 39.9C439.89 39.325 440.39 38.6 440.565 37.725H446.415C446.165 40.1 445.115 41.9875 443.265 43.3875C441.44 44.7625 439.053 45.45 436.103 45.45ZM464.392 45V32.1375C464.392 31.0625 464.117 30.2 463.567 29.55C463.017 28.9 462.292 28.575 461.392 28.575C460.367 28.575 459.417 28.925 458.542 29.625C457.692 30.3 456.792 31.475 455.842 33.15L455.017 28.2C455.967 26.575 457.117 25.425 458.467 24.75C459.817 24.05 461.192 23.7 462.592 23.7C464.192 23.7 465.555 24.0375 466.68 24.7125C467.83 25.3875 468.705 26.325 469.305 27.525C469.93 28.725 470.242 30.1375 470.242 31.7625V45H464.392ZM450.48 45V24.15H456.142L456.33 27.8625V45H450.48ZM484.994 45.45C482.794 45.45 480.894 45.0125 479.294 44.1375C477.719 43.2625 476.507 42.0125 475.657 40.3875C474.832 38.7625 474.419 36.825 474.419 34.575C474.419 32.275 474.857 30.3125 475.732 28.6875C476.632 27.0625 477.882 25.825 479.482 24.975C481.082 24.125 482.969 23.7 485.144 23.7C487.044 23.7 488.719 24.0375 490.169 24.7125C491.644 25.3875 492.807 26.3375 493.657 27.5625C494.532 28.7625 495.007 30.2 495.082 31.875H489.232C489.032 30.725 488.582 29.875 487.882 29.325C487.207 28.75 486.294 28.4625 485.144 28.4625C484.194 28.4625 483.344 28.7 482.594 29.175C481.869 29.65 481.294 30.3375 480.869 31.2375C480.469 32.1375 480.269 33.25 480.269 34.575C480.269 36.55 480.719 38.075 481.619 39.15C482.544 40.225 483.669 40.7625 484.994 40.7625C485.769 40.7625 486.444 40.625 487.019 40.35C487.619 40.075 488.119 39.6875 488.519 39.1875C488.919 38.6625 489.194 38.075 489.344 37.425H495.194C495.044 39.05 494.519 40.4625 493.619 41.6625C492.719 42.8625 491.532 43.8 490.057 44.475C488.582 45.125 486.894 45.45 484.994 45.45ZM509.271 45.45C507.021 45.45 505.084 45.0125 503.459 44.1375C501.859 43.2625 500.621 42.0125 499.746 40.3875C498.871 38.7625 498.434 36.825 498.434 34.575C498.434 32.3 498.871 30.35 499.746 28.725C500.621 27.1 501.884 25.8625 503.534 25.0125C505.209 24.1375 507.221 23.7 509.571 23.7C513.246 23.7 515.909 24.75 517.559 26.85C519.234 28.925 519.934 31.7875 519.659 35.4375H503.084L503.121 31.425H513.696C513.621 30.475 513.196 29.7125 512.421 29.1375C511.646 28.5375 510.684 28.2375 509.534 28.2375C507.734 28.2375 506.409 28.8 505.559 29.925C504.709 31.05 504.284 32.6875 504.284 34.8375C504.284 35.9125 504.471 36.9 504.846 37.8C505.221 38.7 505.771 39.425 506.496 39.975C507.246 40.5 508.171 40.7625 509.271 40.7625C510.446 40.7625 511.434 40.475 512.234 39.9C513.059 39.325 513.559 38.6 513.734 37.725H519.584C519.334 40.1 518.284 41.9875 516.434 43.3875C514.609 44.7625 512.221 45.45 509.271 45.45ZM552.351 36.7875V31.725H558.313C559.513 31.725 560.476 31.3625 561.201 30.6375C561.926 29.8875 562.288 28.9125 562.288 27.7125C562.288 26.5625 561.926 25.6375 561.201 24.9375C560.476 24.2375 559.513 23.8875 558.313 23.8875H552.351V18.825H558.351C560.426 18.825 562.238 19.1875 563.788 19.9125C565.338 20.6375 566.538 21.675 567.388 23.025C568.238 24.35 568.663 25.9125 568.663 27.7125C568.663 29.5375 568.238 31.1375 567.388 32.5125C566.538 33.8625 565.338 34.9125 563.788 35.6625C562.263 36.4125 560.451 36.7875 558.351 36.7875H552.351ZM547.926 45V18.825H554.113V45H547.926ZM586.715 34.575V31.7625C586.715 30.8125 586.465 30.05 585.965 29.475C585.465 28.875 584.715 28.575 583.715 28.575C582.59 28.575 581.528 28.95 580.528 29.7C579.528 30.45 578.578 31.75 577.678 33.6L577.078 28.6875C577.728 27.5875 578.44 26.675 579.215 25.95C579.99 25.2 580.84 24.6375 581.765 24.2625C582.715 23.8875 583.753 23.7 584.878 23.7C587.103 23.7 588.94 24.3875 590.39 25.7625C591.84 27.1125 592.565 29.1125 592.565 31.7625V34.575H586.715ZM572.803 45V24.15H578.428L578.653 27.9V45H572.803ZM606.83 45.45C604.58 45.45 602.643 45.0125 601.018 44.1375C599.418 43.2625 598.18 42.0125 597.305 40.3875C596.43 38.7625 595.993 36.825 595.993 34.575C595.993 32.3 596.43 30.35 597.305 28.725C598.18 27.1 599.443 25.8625 601.093 25.0125C602.768 24.1375 604.78 23.7 607.13 23.7C610.805 23.7 613.468 24.75 615.118 26.85C616.793 28.925 617.493 31.7875 617.218 35.4375H600.643L600.68 31.425H611.255C611.18 30.475 610.755 29.7125 609.98 29.1375C609.205 28.5375 608.243 28.2375 607.093 28.2375C605.293 28.2375 603.968 28.8 603.118 29.925C602.268 31.05 601.843 32.6875 601.843 34.8375C601.843 35.9125 602.03 36.9 602.405 37.8C602.78 38.7 603.33 39.425 604.055 39.975C604.805 40.5 605.73 40.7625 606.83 40.7625C608.005 40.7625 608.993 40.475 609.793 39.9C610.618 39.325 611.118 38.6 611.293 37.725H617.143C616.893 40.1 615.843 41.9875 613.993 43.3875C612.168 44.7625 609.78 45.45 606.83 45.45ZM631.557 45.45C629.607 45.45 627.895 45.1375 626.42 44.5125C624.945 43.8625 623.795 42.95 622.97 41.775C622.17 40.575 621.757 39.1625 621.732 37.5375H627.17C627.12 38.6875 627.482 39.5875 628.257 40.2375C629.057 40.8875 630.145 41.2125 631.52 41.2125C632.52 41.2125 633.32 41.05 633.92 40.725C634.545 40.375 634.857 39.9 634.857 39.3C634.857 38.775 634.62 38.3625 634.145 38.0625C633.695 37.7375 633.095 37.4875 632.345 37.3125C631.595 37.1125 630.77 36.925 629.87 36.75C628.97 36.55 628.057 36.3125 627.132 36.0375C626.232 35.7625 625.407 35.4 624.657 34.95C623.907 34.475 623.295 33.8625 622.82 33.1125C622.37 32.3375 622.145 31.375 622.145 30.225C622.145 28.9 622.52 27.75 623.27 26.775C624.02 25.8 625.057 25.05 626.382 24.525C627.732 23.975 629.282 23.7 631.032 23.7C633.707 23.7 635.87 24.325 637.52 25.575C639.195 26.8 640.12 28.525 640.295 30.75H634.895C634.845 29.825 634.47 29.125 633.77 28.65C633.07 28.175 632.17 27.9375 631.07 27.9375C630.145 27.9375 629.407 28.1 628.857 28.425C628.307 28.75 628.032 29.2375 628.032 29.8875C628.032 30.4125 628.257 30.825 628.707 31.125C629.182 31.4 629.795 31.625 630.545 31.8C631.295 31.975 632.12 32.1375 633.02 32.2875C633.945 32.4375 634.857 32.65 635.757 32.925C636.657 33.175 637.482 33.525 638.232 33.975C638.982 34.425 639.582 35.025 640.032 35.775C640.507 36.525 640.745 37.4875 640.745 38.6625C640.745 40.7875 639.907 42.45 638.232 43.65C636.582 44.85 634.357 45.45 631.557 45.45ZM655.947 45.45C653.997 45.45 652.284 45.1375 650.809 44.5125C649.334 43.8625 648.184 42.95 647.359 41.775C646.559 40.575 646.147 39.1625 646.122 37.5375H651.559C651.509 38.6875 651.872 39.5875 652.647 40.2375C653.447 40.8875 654.534 41.2125 655.909 41.2125C656.909 41.2125 657.709 41.05 658.309 40.725C658.934 40.375 659.247 39.9 659.247 39.3C659.247 38.775 659.009 38.3625 658.534 38.0625C658.084 37.7375 657.484 37.4875 656.734 37.3125C655.984 37.1125 655.159 36.925 654.259 36.75C653.359 36.55 652.447 36.3125 651.522 36.0375C650.622 35.7625 649.797 35.4 649.047 34.95C648.297 34.475 647.684 33.8625 647.209 33.1125C646.759 32.3375 646.534 31.375 646.534 30.225C646.534 28.9 646.909 27.75 647.659 26.775C648.409 25.8 649.447 25.05 650.772 24.525C652.122 23.975 653.672 23.7 655.422 23.7C658.097 23.7 660.259 24.325 661.909 25.575C663.584 26.8 664.509 28.525 664.684 30.75H659.284C659.234 29.825 658.859 29.125 658.159 28.65C657.459 28.175 656.559 27.9375 655.459 27.9375C654.534 27.9375 653.797 28.1 653.247 28.425C652.697 28.75 652.422 29.2375 652.422 29.8875C652.422 30.4125 652.647 30.825 653.097 31.125C653.572 31.4 654.184 31.625 654.934 31.8C655.684 31.975 656.509 32.1375 657.409 32.2875C658.334 32.4375 659.247 32.65 660.147 32.925C661.047 33.175 661.872 33.525 662.622 33.975C663.372 34.425 663.972 35.025 664.422 35.775C664.897 36.525 665.134 37.4875 665.134 38.6625C665.134 40.7875 664.297 42.45 662.622 43.65C660.972 44.85 658.747 45.45 655.947 45.45Z" fill="#0077CC"/>
<path d="M394.903 112.819C396.363 109.82 400.637 109.82 402.097 112.819L414.772 138.861L443.103 120.997C446.116 119.097 449.923 121.787 449.138 125.262L443.296 151.115L478.118 146.585C481.997 146.08 484.22 150.869 481.332 153.506L460.176 172.822L491.668 181.648C495.562 182.74 495.562 188.26 491.668 189.352L460.176 198.178L481.332 217.494C484.22 220.131 481.996 224.92 478.118 224.415L443.296 219.885L449.138 245.738C449.923 249.213 446.116 251.903 443.103 250.003L414.772 232.139L402.097 258.181C400.637 261.18 396.363 261.18 394.903 258.181L382.228 232.139L353.897 250.003C350.884 251.903 347.077 249.213 347.862 245.738L353.704 219.885L318.882 224.415C315.004 224.92 312.78 220.131 315.668 217.494L336.824 198.178L305.332 189.352C301.438 188.26 301.438 182.74 305.332 181.648L336.824 172.822L315.668 153.506C312.78 150.869 315.004 146.08 318.882 146.585L353.704 151.115L347.862 125.262C347.077 121.787 350.884 119.097 353.897 120.997L382.228 138.861L394.903 112.819Z" fill="#F1D85F" stroke="#F1A85F" stroke-width="4"/>
<path d="M360.145 181.364C360.038 180.464 359.606 179.766 358.849 179.268C358.091 178.771 357.162 178.523 356.061 178.523C355.256 178.523 354.552 178.653 353.948 178.913C353.35 179.174 352.883 179.532 352.545 179.988C352.214 180.443 352.048 180.961 352.048 181.541C352.048 182.027 352.164 182.444 352.395 182.793C352.631 183.136 352.933 183.423 353.3 183.654C353.667 183.879 354.052 184.065 354.454 184.213C354.857 184.355 355.227 184.471 355.564 184.56L357.411 185.057C357.884 185.181 358.411 185.353 358.991 185.572C359.577 185.791 360.136 186.09 360.669 186.468C361.207 186.841 361.651 187.321 362 187.907C362.35 188.493 362.524 189.212 362.524 190.064C362.524 191.046 362.267 191.934 361.752 192.727C361.243 193.52 360.497 194.151 359.515 194.618C358.538 195.086 357.351 195.32 355.955 195.32C354.652 195.32 353.525 195.109 352.572 194.689C351.625 194.269 350.879 193.683 350.335 192.931C349.796 192.18 349.491 191.307 349.42 190.312H351.693C351.752 190.999 351.983 191.567 352.386 192.017C352.794 192.461 353.309 192.792 353.93 193.011C354.558 193.224 355.232 193.331 355.955 193.331C356.795 193.331 357.55 193.195 358.218 192.923C358.887 192.644 359.417 192.26 359.808 191.768C360.198 191.271 360.393 190.691 360.393 190.028C360.393 189.425 360.225 188.933 359.887 188.555C359.55 188.176 359.106 187.868 358.556 187.631C358.005 187.395 357.411 187.187 356.771 187.01L354.534 186.371C353.114 185.962 351.989 185.379 351.161 184.622C350.332 183.864 349.918 182.873 349.918 181.648C349.918 180.63 350.193 179.742 350.743 178.984C351.3 178.221 352.045 177.629 352.98 177.209C353.922 176.783 354.972 176.57 356.132 176.57C357.304 176.57 358.346 176.78 359.257 177.2C360.169 177.614 360.891 178.182 361.423 178.904C361.962 179.627 362.246 180.446 362.276 181.364H360.145ZM371.79 181.364V183.139H364.724V181.364H371.79ZM366.783 178.097H368.878V191.094C368.878 191.686 368.964 192.129 369.136 192.425C369.313 192.715 369.538 192.911 369.811 193.011C370.089 193.106 370.382 193.153 370.69 193.153C370.92 193.153 371.11 193.142 371.258 193.118C371.406 193.088 371.524 193.065 371.613 193.047L372.039 194.929C371.897 194.982 371.699 195.036 371.444 195.089C371.19 195.148 370.867 195.178 370.476 195.178C369.885 195.178 369.305 195.05 368.736 194.796C368.174 194.541 367.707 194.154 367.334 193.633C366.967 193.112 366.783 192.455 366.783 191.662V178.097ZM374.942 195V181.364H377.037V195H374.942ZM376.007 179.091C375.599 179.091 375.247 178.952 374.951 178.674C374.661 178.395 374.516 178.061 374.516 177.67C374.516 177.28 374.661 176.945 374.951 176.667C375.247 176.389 375.599 176.25 376.007 176.25C376.416 176.25 376.765 176.389 377.055 176.667C377.351 176.945 377.499 177.28 377.499 177.67C377.499 178.061 377.351 178.395 377.055 178.674C376.765 178.952 376.416 179.091 376.007 179.091ZM380.875 195V181.364H382.899V183.494H383.076C383.36 182.766 383.819 182.201 384.452 181.799C385.086 181.39 385.846 181.186 386.734 181.186C387.634 181.186 388.382 181.39 388.98 181.799C389.584 182.201 390.054 182.766 390.392 183.494H390.534C390.883 182.79 391.407 182.231 392.105 181.816C392.804 181.396 393.641 181.186 394.618 181.186C395.837 181.186 396.834 181.568 397.609 182.331C398.385 183.089 398.772 184.27 398.772 185.874V195H396.677V185.874C396.677 184.867 396.402 184.148 395.852 183.716C395.301 183.284 394.653 183.068 393.907 183.068C392.949 183.068 392.206 183.358 391.679 183.938C391.152 184.512 390.889 185.24 390.889 186.122V195H388.758V185.661C388.758 184.885 388.507 184.261 388.004 183.787C387.5 183.308 386.852 183.068 386.059 183.068C385.515 183.068 385.006 183.213 384.532 183.503C384.065 183.793 383.686 184.196 383.396 184.711C383.112 185.22 382.97 185.808 382.97 186.477V195H380.875ZM411.197 189.425V181.364H413.292V195H411.197V192.692H411.055C410.735 193.384 410.238 193.973 409.563 194.458C408.889 194.938 408.036 195.178 407.007 195.178C406.154 195.178 405.397 194.991 404.734 194.618C404.071 194.239 403.55 193.671 403.171 192.914C402.793 192.15 402.603 191.188 402.603 190.028V181.364H404.698V189.886C404.698 190.881 404.977 191.674 405.533 192.266C406.095 192.857 406.811 193.153 407.681 193.153C408.202 193.153 408.732 193.02 409.27 192.754C409.815 192.488 410.271 192.079 410.638 191.529C411.01 190.978 411.197 190.277 411.197 189.425ZM419.225 176.818V195H417.13V176.818H419.225ZM431.656 189.425V181.364H433.751V195H431.656V192.692H431.514C431.194 193.384 430.697 193.973 430.022 194.458C429.348 194.938 428.495 195.178 427.466 195.178C426.613 195.178 425.856 194.991 425.193 194.618C424.53 194.239 424.009 193.671 423.63 192.914C423.252 192.15 423.062 191.188 423.062 190.028V181.364H425.157V189.886C425.157 190.881 425.435 191.674 425.992 192.266C426.554 192.857 427.27 193.153 428.14 193.153C428.661 193.153 429.191 193.02 429.729 192.754C430.274 192.488 430.73 192.079 431.097 191.529C431.469 190.978 431.656 190.277 431.656 189.425ZM447.248 184.418L445.366 184.95C445.247 184.637 445.073 184.332 444.842 184.036C444.617 183.734 444.309 183.485 443.918 183.29C443.528 183.095 443.028 182.997 442.418 182.997C441.584 182.997 440.888 183.19 440.332 183.574C439.781 183.953 439.506 184.435 439.506 185.021C439.506 185.542 439.696 185.953 440.074 186.255C440.453 186.557 441.045 186.809 441.85 187.01L443.874 187.507C445.093 187.803 446.002 188.256 446.6 188.865C447.197 189.469 447.496 190.247 447.496 191.2C447.496 191.982 447.271 192.68 446.821 193.295C446.378 193.911 445.756 194.396 444.957 194.751C444.158 195.107 443.229 195.284 442.169 195.284C440.779 195.284 439.627 194.982 438.716 194.379C437.805 193.775 437.227 192.893 436.985 191.733L438.973 191.236C439.163 191.97 439.521 192.52 440.048 192.887C440.58 193.254 441.276 193.438 442.134 193.438C443.111 193.438 443.886 193.23 444.46 192.816C445.04 192.396 445.33 191.893 445.33 191.307C445.33 190.833 445.164 190.437 444.833 190.117C444.501 189.792 443.992 189.549 443.306 189.389L441.033 188.857C439.784 188.561 438.867 188.102 438.281 187.48C437.701 186.853 437.411 186.069 437.411 185.128C437.411 184.358 437.627 183.678 438.059 183.086C438.497 182.494 439.092 182.029 439.843 181.692C440.601 181.355 441.459 181.186 442.418 181.186C443.767 181.186 444.827 181.482 445.596 182.074C446.372 182.666 446.922 183.447 447.248 184.418Z" fill="black"/>
<rect x="668" y="341" width="133" height="57" rx="5" fill="#5FB4F1" stroke="#0077CC" stroke-width="4"/>
<path d="M683.202 379V360.818H689.345C690.766 360.818 691.932 361.061 692.843 361.546C693.754 362.026 694.429 362.685 694.867 363.526C695.305 364.366 695.524 365.322 695.524 366.393C695.524 367.465 695.305 368.415 694.867 369.243C694.429 370.072 693.757 370.723 692.852 371.196C691.946 371.664 690.789 371.898 689.381 371.898H684.409V369.909H689.31C690.28 369.909 691.062 369.767 691.653 369.483C692.251 369.199 692.683 368.796 692.95 368.276C693.222 367.749 693.358 367.121 693.358 366.393C693.358 365.665 693.222 365.029 692.95 364.485C692.677 363.94 692.242 363.52 691.645 363.224C691.047 362.922 690.257 362.771 689.274 362.771H685.403V379H683.202ZM691.76 370.832L696.234 379H693.678L689.274 370.832H691.76ZM704.48 379.284C703.166 379.284 702.032 378.994 701.079 378.414C700.132 377.828 699.402 377.011 698.887 375.964C698.378 374.91 698.123 373.685 698.123 372.288C698.123 370.892 698.378 369.661 698.887 368.595C699.402 367.524 700.118 366.689 701.035 366.092C701.958 365.488 703.036 365.186 704.267 365.186C704.977 365.186 705.678 365.304 706.371 365.541C707.063 365.778 707.693 366.163 708.262 366.695C708.83 367.222 709.283 367.92 709.62 368.79C709.957 369.661 710.126 370.732 710.126 372.004V372.892H699.615V371.081H707.995C707.995 370.312 707.841 369.625 707.534 369.021C707.232 368.418 706.8 367.941 706.237 367.592C705.681 367.243 705.024 367.068 704.267 367.068C703.432 367.068 702.71 367.275 702.1 367.69C701.497 368.098 701.032 368.631 700.707 369.288C700.381 369.945 700.218 370.649 700.218 371.401V372.608C700.218 373.638 700.396 374.511 700.751 375.227C701.112 375.937 701.612 376.479 702.251 376.852C702.891 377.219 703.633 377.402 704.48 377.402C705.03 377.402 705.527 377.325 705.971 377.171C706.421 377.011 706.809 376.775 707.134 376.461C707.46 376.141 707.711 375.745 707.889 375.271L709.913 375.839C709.7 376.526 709.342 377.13 708.839 377.651C708.336 378.165 707.714 378.568 706.974 378.858C706.235 379.142 705.403 379.284 704.48 379.284ZM718.853 379.284C717.574 379.284 716.474 378.982 715.55 378.379C714.627 377.775 713.917 376.943 713.42 375.884C712.922 374.824 712.674 373.614 712.674 372.253C712.674 370.868 712.928 369.646 713.437 368.586C713.952 367.521 714.668 366.689 715.586 366.092C716.509 365.488 717.586 365.186 718.817 365.186C719.776 365.186 720.64 365.364 721.41 365.719C722.179 366.074 722.809 366.571 723.301 367.21C723.792 367.849 724.097 368.595 724.215 369.447H722.12C721.96 368.826 721.605 368.276 721.055 367.796C720.51 367.311 719.776 367.068 718.853 367.068C718.036 367.068 717.32 367.281 716.704 367.707C716.095 368.128 715.618 368.722 715.275 369.492C714.938 370.255 714.769 371.152 714.769 372.182C714.769 373.235 714.935 374.153 715.266 374.934C715.604 375.715 716.077 376.322 716.687 376.754C717.302 377.186 718.024 377.402 718.853 377.402C719.397 377.402 719.892 377.307 720.335 377.118C720.779 376.929 721.155 376.656 721.463 376.301C721.771 375.946 721.99 375.52 722.12 375.023H724.215C724.097 375.828 723.804 376.553 723.336 377.198C722.875 377.837 722.262 378.346 721.498 378.725C720.741 379.098 719.859 379.284 718.853 379.284ZM732.995 379.284C731.681 379.284 730.548 378.994 729.595 378.414C728.648 377.828 727.917 377.011 727.402 375.964C726.893 374.91 726.639 373.685 726.639 372.288C726.639 370.892 726.893 369.661 727.402 368.595C727.917 367.524 728.633 366.689 729.551 366.092C730.474 365.488 731.551 365.186 732.782 365.186C733.492 365.186 734.194 365.304 734.886 365.541C735.579 365.778 736.209 366.163 736.777 366.695C737.345 367.222 737.798 367.92 738.136 368.79C738.473 369.661 738.642 370.732 738.642 372.004V372.892H728.13V371.081H736.511C736.511 370.312 736.357 369.625 736.049 369.021C735.747 368.418 735.315 367.941 734.753 367.592C734.197 367.243 733.54 367.068 732.782 367.068C731.948 367.068 731.226 367.275 730.616 367.69C730.012 368.098 729.548 368.631 729.222 369.288C728.897 369.945 728.734 370.649 728.734 371.401V372.608C728.734 373.638 728.911 374.511 729.267 375.227C729.628 375.937 730.128 376.479 730.767 376.852C731.406 377.219 732.149 377.402 732.995 377.402C733.546 377.402 734.043 377.325 734.487 377.171C734.937 377.011 735.324 376.775 735.65 376.461C735.975 376.141 736.227 375.745 736.404 375.271L738.429 375.839C738.215 376.526 737.857 377.13 737.354 377.651C736.851 378.165 736.23 378.568 735.49 378.858C734.75 379.142 733.919 379.284 732.995 379.284ZM741.829 384.114V365.364H743.853V367.53H744.101C744.255 367.293 744.468 366.991 744.741 366.624C745.019 366.251 745.415 365.92 745.93 365.63C746.451 365.334 747.155 365.186 748.043 365.186C749.191 365.186 750.204 365.473 751.079 366.047C751.955 366.621 752.639 367.435 753.13 368.489C753.621 369.542 753.867 370.785 753.867 372.217C753.867 373.661 753.621 374.913 753.13 375.973C752.639 377.026 751.958 377.843 751.088 378.423C750.218 378.997 749.215 379.284 748.079 379.284C747.203 379.284 746.501 379.139 745.975 378.849C745.448 378.553 745.043 378.219 744.758 377.846C744.474 377.467 744.255 377.153 744.101 376.905H743.924V384.114H741.829ZM743.888 372.182C743.888 373.212 744.039 374.12 744.341 374.907C744.643 375.689 745.084 376.301 745.664 376.745C746.244 377.183 746.954 377.402 747.795 377.402C748.671 377.402 749.402 377.171 749.987 376.71C750.579 376.242 751.023 375.615 751.319 374.827C751.621 374.034 751.772 373.152 751.772 372.182C751.772 371.223 751.624 370.359 751.328 369.589C751.038 368.814 750.597 368.202 750.005 367.752C749.419 367.296 748.682 367.068 747.795 367.068C746.942 367.068 746.226 367.284 745.646 367.716C745.066 368.142 744.628 368.74 744.332 369.51C744.036 370.273 743.888 371.164 743.888 372.182ZM762.994 365.364V367.139H755.927V365.364H762.994ZM757.986 362.097H760.082V375.094C760.082 375.686 760.167 376.129 760.339 376.425C760.517 376.715 760.742 376.911 761.014 377.011C761.292 377.106 761.585 377.153 761.893 377.153C762.123 377.153 762.313 377.142 762.461 377.118C762.609 377.088 762.727 377.065 762.816 377.047L763.242 378.929C763.1 378.982 762.902 379.036 762.647 379.089C762.393 379.148 762.07 379.178 761.68 379.178C761.088 379.178 760.508 379.05 759.94 378.796C759.377 378.541 758.91 378.154 758.537 377.633C758.17 377.112 757.986 376.455 757.986 375.662V362.097ZM771.538 379.284C770.307 379.284 769.227 378.991 768.298 378.405C767.375 377.819 766.653 377 766.132 375.946C765.617 374.893 765.359 373.661 765.359 372.253C765.359 370.832 765.617 369.592 766.132 368.533C766.653 367.474 767.375 366.651 768.298 366.065C769.227 365.479 770.307 365.186 771.538 365.186C772.77 365.186 773.847 365.479 774.77 366.065C775.699 366.651 776.421 367.474 776.936 368.533C777.457 369.592 777.717 370.832 777.717 372.253C777.717 373.661 777.457 374.893 776.936 375.946C776.421 377 775.699 377.819 774.77 378.405C773.847 378.991 772.77 379.284 771.538 379.284ZM771.538 377.402C772.474 377.402 773.243 377.162 773.847 376.683C774.45 376.203 774.897 375.573 775.187 374.792C775.477 374.011 775.622 373.164 775.622 372.253C775.622 371.341 775.477 370.492 775.187 369.705C774.897 368.918 774.45 368.281 773.847 367.796C773.243 367.311 772.474 367.068 771.538 367.068C770.603 367.068 769.834 367.311 769.23 367.796C768.627 368.281 768.18 368.918 767.89 369.705C767.6 370.492 767.455 371.341 767.455 372.253C767.455 373.164 767.6 374.011 767.89 374.792C768.18 375.573 768.627 376.203 769.23 376.683C769.834 377.162 770.603 377.402 771.538 377.402ZM780.916 379V365.364H782.94V367.423H783.082C783.33 366.749 783.78 366.201 784.431 365.781C785.082 365.361 785.816 365.151 786.633 365.151C786.787 365.151 786.979 365.154 787.21 365.159C787.441 365.165 787.615 365.174 787.734 365.186V367.317C787.663 367.299 787.5 367.272 787.246 367.237C786.997 367.195 786.734 367.175 786.455 367.175C785.793 367.175 785.201 367.314 784.68 367.592C784.165 367.864 783.757 368.243 783.455 368.728C783.159 369.208 783.011 369.755 783.011 370.371V379H780.916Z" fill="black"/>
<rect x="303" y="563" width="191" height="57" rx="5" fill="#F1775F" stroke="#BD2915" stroke-width="4"/>
<path d="M328.832 588.5H326.631C326.5 587.867 326.273 587.31 325.947 586.831C325.627 586.352 325.237 585.949 324.775 585.624C324.319 585.292 323.813 585.044 323.257 584.878C322.701 584.712 322.121 584.629 321.517 584.629C320.416 584.629 319.419 584.907 318.525 585.464C317.637 586.02 316.93 586.84 316.403 587.923C315.883 589.006 315.622 590.335 315.622 591.909C315.622 593.483 315.883 594.812 316.403 595.895C316.93 596.978 317.637 597.798 318.525 598.354C319.419 598.911 320.416 599.189 321.517 599.189C322.121 599.189 322.701 599.106 323.257 598.94C323.813 598.775 324.319 598.529 324.775 598.203C325.237 597.872 325.627 597.467 325.947 596.987C326.273 596.502 326.5 595.946 326.631 595.318H328.832C328.667 596.247 328.365 597.079 327.927 597.813C327.489 598.547 326.944 599.171 326.293 599.686C325.642 600.195 324.911 600.583 324.1 600.849C323.296 601.115 322.434 601.249 321.517 601.249C319.966 601.249 318.587 600.87 317.38 600.112C316.173 599.355 315.223 598.277 314.53 596.881C313.838 595.484 313.491 593.827 313.491 591.909C313.491 589.991 313.838 588.334 314.53 586.938C315.223 585.541 316.173 584.464 317.38 583.706C318.587 582.948 319.966 582.57 321.517 582.57C322.434 582.57 323.296 582.703 324.1 582.969C324.911 583.235 325.642 583.626 326.293 584.141C326.944 584.65 327.489 585.271 327.927 586.005C328.365 586.733 328.667 587.565 328.832 588.5ZM337.646 601.284C336.415 601.284 335.335 600.991 334.405 600.405C333.482 599.819 332.76 599 332.239 597.946C331.724 596.893 331.467 595.661 331.467 594.253C331.467 592.832 331.724 591.592 332.239 590.533C332.76 589.474 333.482 588.651 334.405 588.065C335.335 587.479 336.415 587.186 337.646 587.186C338.877 587.186 339.954 587.479 340.877 588.065C341.807 588.651 342.529 589.474 343.044 590.533C343.564 591.592 343.825 592.832 343.825 594.253C343.825 595.661 343.564 596.893 343.044 597.946C342.529 599 341.807 599.819 340.877 600.405C339.954 600.991 338.877 601.284 337.646 601.284ZM337.646 599.402C338.581 599.402 339.35 599.162 339.954 598.683C340.558 598.203 341.005 597.573 341.295 596.792C341.585 596.011 341.73 595.164 341.73 594.253C341.73 593.341 341.585 592.492 341.295 591.705C341.005 590.918 340.558 590.281 339.954 589.796C339.35 589.311 338.581 589.068 337.646 589.068C336.711 589.068 335.941 589.311 335.338 589.796C334.734 590.281 334.287 590.918 333.997 591.705C333.707 592.492 333.562 593.341 333.562 594.253C333.562 595.164 333.707 596.011 333.997 596.792C334.287 597.573 334.734 598.203 335.338 598.683C335.941 599.162 336.711 599.402 337.646 599.402ZM349.118 592.797V601H347.023V587.364H349.047V589.494H349.225C349.544 588.802 350.03 588.246 350.681 587.825C351.332 587.399 352.172 587.186 353.202 587.186C354.125 587.186 354.933 587.375 355.626 587.754C356.318 588.127 356.857 588.695 357.241 589.459C357.626 590.216 357.819 591.175 357.819 592.335V601H355.723V592.477C355.723 591.406 355.445 590.571 354.889 589.974C354.333 589.37 353.569 589.068 352.598 589.068C351.93 589.068 351.332 589.213 350.805 589.503C350.284 589.793 349.873 590.216 349.571 590.773C349.269 591.329 349.118 592.004 349.118 592.797ZM367.578 587.364V589.139H360.511V587.364H367.578ZM362.57 584.097H364.666V597.094C364.666 597.686 364.751 598.129 364.923 598.425C365.101 598.715 365.325 598.911 365.598 599.011C365.876 599.106 366.169 599.153 366.477 599.153C366.707 599.153 366.897 599.142 367.045 599.118C367.193 599.088 367.311 599.065 367.4 599.047L367.826 600.929C367.684 600.982 367.486 601.036 367.231 601.089C366.977 601.148 366.654 601.178 366.264 601.178C365.672 601.178 365.092 601.05 364.524 600.796C363.961 600.541 363.494 600.154 363.121 599.633C362.754 599.112 362.57 598.455 362.57 597.662V584.097ZM370.729 601V587.364H372.753V589.423H372.895C373.144 588.749 373.594 588.201 374.245 587.781C374.896 587.361 375.63 587.151 376.446 587.151C376.6 587.151 376.793 587.154 377.024 587.159C377.254 587.165 377.429 587.174 377.547 587.186V589.317C377.476 589.299 377.314 589.272 377.059 589.237C376.81 589.195 376.547 589.175 376.269 589.175C375.606 589.175 375.014 589.314 374.493 589.592C373.978 589.864 373.57 590.243 373.268 590.728C372.972 591.208 372.824 591.755 372.824 592.371V601H370.729ZM385.156 601.284C383.925 601.284 382.844 600.991 381.915 600.405C380.992 599.819 380.27 599 379.749 597.946C379.234 596.893 378.977 595.661 378.977 594.253C378.977 592.832 379.234 591.592 379.749 590.533C380.27 589.474 380.992 588.651 381.915 588.065C382.844 587.479 383.925 587.186 385.156 587.186C386.387 587.186 387.464 587.479 388.387 588.065C389.316 588.651 390.038 589.474 390.553 590.533C391.074 591.592 391.335 592.832 391.335 594.253C391.335 595.661 391.074 596.893 390.553 597.946C390.038 599 389.316 599.819 388.387 600.405C387.464 600.991 386.387 601.284 385.156 601.284ZM385.156 599.402C386.091 599.402 386.86 599.162 387.464 598.683C388.068 598.203 388.514 597.573 388.804 596.792C389.094 596.011 389.239 595.164 389.239 594.253C389.239 593.341 389.094 592.492 388.804 591.705C388.514 590.918 388.068 590.281 387.464 589.796C386.86 589.311 386.091 589.068 385.156 589.068C384.22 589.068 383.451 589.311 382.847 589.796C382.244 590.281 381.797 590.918 381.507 591.705C381.217 592.492 381.072 593.341 381.072 594.253C381.072 595.164 381.217 596.011 381.507 596.792C381.797 597.573 382.244 598.203 382.847 598.683C383.451 599.162 384.22 599.402 385.156 599.402ZM396.628 582.818V601H394.533V582.818H396.628ZM422.411 588.5H420.21C420.08 587.867 419.852 587.31 419.526 586.831C419.207 586.352 418.816 585.949 418.354 585.624C417.899 585.292 417.393 585.044 416.836 584.878C416.28 584.712 415.7 584.629 415.096 584.629C413.995 584.629 412.998 584.907 412.104 585.464C411.217 586.02 410.509 586.84 409.983 587.923C409.462 589.006 409.201 590.335 409.201 591.909C409.201 593.483 409.462 594.812 409.983 595.895C410.509 596.978 411.217 597.798 412.104 598.354C412.998 598.911 413.995 599.189 415.096 599.189C415.7 599.189 416.28 599.106 416.836 598.94C417.393 598.775 417.899 598.529 418.354 598.203C418.816 597.872 419.207 597.467 419.526 596.987C419.852 596.502 420.08 595.946 420.21 595.318H422.411C422.246 596.247 421.944 597.079 421.506 597.813C421.068 598.547 420.523 599.171 419.872 599.686C419.221 600.195 418.49 600.583 417.68 600.849C416.875 601.115 416.014 601.249 415.096 601.249C413.545 601.249 412.166 600.87 410.959 600.112C409.752 599.355 408.802 598.277 408.109 596.881C407.417 595.484 407.071 593.827 407.071 591.909C407.071 589.991 407.417 588.334 408.109 586.938C408.802 585.541 409.752 584.464 410.959 583.706C412.166 582.948 413.545 582.57 415.096 582.57C416.014 582.57 416.875 582.703 417.68 582.969C418.49 583.235 419.221 583.626 419.872 584.141C420.523 584.65 421.068 585.271 421.506 586.005C421.944 586.733 422.246 587.565 422.411 588.5ZM431.403 601.284C430.089 601.284 428.955 600.994 428.002 600.414C427.055 599.828 426.324 599.011 425.809 597.964C425.3 596.91 425.046 595.685 425.046 594.288C425.046 592.892 425.3 591.661 425.809 590.595C426.324 589.524 427.041 588.689 427.958 588.092C428.881 587.488 429.958 587.186 431.189 587.186C431.9 587.186 432.601 587.304 433.294 587.541C433.986 587.778 434.616 588.163 435.184 588.695C435.753 589.222 436.205 589.92 436.543 590.79C436.88 591.661 437.049 592.732 437.049 594.004V594.892H426.537V593.081H434.918C434.918 592.312 434.764 591.625 434.456 591.021C434.155 590.418 433.723 589.941 433.16 589.592C432.604 589.243 431.947 589.068 431.189 589.068C430.355 589.068 429.633 589.275 429.023 589.69C428.42 590.098 427.955 590.631 427.629 591.288C427.304 591.945 427.141 592.649 427.141 593.401V594.608C427.141 595.638 427.319 596.511 427.674 597.227C428.035 597.937 428.535 598.479 429.174 598.852C429.813 599.219 430.556 599.402 431.403 599.402C431.953 599.402 432.45 599.325 432.894 599.171C433.344 599.011 433.731 598.775 434.057 598.461C434.383 598.141 434.634 597.745 434.812 597.271L436.836 597.839C436.623 598.526 436.265 599.13 435.762 599.651C435.258 600.165 434.637 600.568 433.897 600.858C433.157 601.142 432.326 601.284 431.403 601.284ZM442.331 592.797V601H440.236V587.364H442.26V589.494H442.438C442.757 588.802 443.243 588.246 443.894 587.825C444.545 587.399 445.385 587.186 446.415 587.186C447.338 587.186 448.146 587.375 448.839 587.754C449.531 588.127 450.07 588.695 450.454 589.459C450.839 590.216 451.031 591.175 451.031 592.335V601H448.936V592.477C448.936 591.406 448.658 590.571 448.102 589.974C447.545 589.37 446.782 589.068 445.811 589.068C445.142 589.068 444.545 589.213 444.018 589.503C443.497 589.793 443.086 590.216 442.784 590.773C442.482 591.329 442.331 592.004 442.331 592.797ZM460.79 587.364V589.139H453.724V587.364H460.79ZM455.783 584.097H457.878V597.094C457.878 597.686 457.964 598.129 458.136 598.425C458.313 598.715 458.538 598.911 458.811 599.011C459.089 599.106 459.382 599.153 459.69 599.153C459.92 599.153 460.11 599.142 460.258 599.118C460.406 599.088 460.524 599.065 460.613 599.047L461.039 600.929C460.897 600.982 460.699 601.036 460.444 601.089C460.19 601.148 459.867 601.178 459.476 601.178C458.885 601.178 458.305 601.05 457.736 600.796C457.174 600.541 456.707 600.154 456.334 599.633C455.967 599.112 455.783 598.455 455.783 597.662V584.097ZM469.513 601.284C468.199 601.284 467.066 600.994 466.113 600.414C465.166 599.828 464.435 599.011 463.92 597.964C463.411 596.91 463.156 595.685 463.156 594.288C463.156 592.892 463.411 591.661 463.92 590.595C464.435 589.524 465.151 588.689 466.068 588.092C466.992 587.488 468.069 587.186 469.3 587.186C470.01 587.186 470.711 587.304 471.404 587.541C472.096 587.778 472.727 588.163 473.295 588.695C473.863 589.222 474.316 589.92 474.653 590.79C474.991 591.661 475.159 592.732 475.159 594.004V594.892H464.648V593.081H473.028C473.028 592.312 472.875 591.625 472.567 591.021C472.265 590.418 471.833 589.941 471.271 589.592C470.714 589.243 470.057 589.068 469.3 589.068C468.465 589.068 467.743 589.275 467.134 589.69C466.53 590.098 466.065 590.631 465.74 591.288C465.414 591.945 465.252 592.649 465.252 593.401V594.608C465.252 595.638 465.429 596.511 465.784 597.227C466.145 597.937 466.645 598.479 467.285 598.852C467.924 599.219 468.667 599.402 469.513 599.402C470.063 599.402 470.56 599.325 471.004 599.171C471.454 599.011 471.842 598.775 472.167 598.461C472.493 598.141 472.744 597.745 472.922 597.271L474.946 597.839C474.733 598.526 474.375 599.13 473.872 599.651C473.369 600.165 472.747 600.568 472.008 600.858C471.268 601.142 470.436 601.284 469.513 601.284ZM478.346 601V587.364H480.37V589.423H480.513C480.761 588.749 481.211 588.201 481.862 587.781C482.513 587.361 483.247 587.151 484.064 587.151C484.218 587.151 484.41 587.154 484.641 587.159C484.872 587.165 485.046 587.174 485.165 587.186V589.317C485.093 589.299 484.931 589.272 484.676 589.237C484.428 589.195 484.164 589.175 483.886 589.175C483.223 589.175 482.631 589.314 482.111 589.592C481.596 589.864 481.187 590.243 480.885 590.728C480.589 591.208 480.441 591.755 480.441 592.371V601H478.346Z" fill="black"/>
<rect x="10" y="489" width="133" height="57" rx="5" fill="#5FB4F1" stroke="#0077CC" stroke-width="4"/>
<path d="M33.2017 527V508.818H44.1747V510.771H35.4034V516.915H43.6065V518.868H35.4034V525.047H44.3168V527H33.2017ZM53.9315 513.364V515.139H46.5806V513.364H53.9315ZM48.7823 527V511.482C48.7823 510.7 48.9658 510.049 49.3327 509.528C49.6997 509.008 50.1761 508.617 50.7621 508.357C51.348 508.096 51.9665 507.966 52.6175 507.966C53.1325 507.966 53.5527 508.007 53.8782 508.09C54.2037 508.173 54.4464 508.25 54.6062 508.321L54.0025 510.132C53.896 510.097 53.748 510.052 53.5586 509.999C53.3751 509.946 53.1325 509.919 52.8306 509.919C52.1381 509.919 51.638 510.094 51.3303 510.443C51.0284 510.792 50.8775 511.304 50.8775 511.979V527H48.7823ZM62.9403 513.364V515.139H55.5894V513.364H62.9403ZM57.7911 527V511.482C57.7911 510.7 57.9746 510.049 58.3415 509.528C58.7085 509.008 59.1849 508.617 59.7709 508.357C60.3568 508.096 60.9753 507.966 61.6263 507.966C62.1412 507.966 62.5615 508.007 62.887 508.09C63.2125 508.173 63.4552 508.25 63.615 508.321L63.0113 510.132C62.9047 510.097 62.7568 510.052 62.5674 509.999C62.3839 509.946 62.1412 509.919 61.8394 509.919C61.1469 509.919 60.6468 510.094 60.339 510.443C60.0372 510.792 59.8863 511.304 59.8863 511.979V527H57.7911ZM71.0324 527.284C69.7185 527.284 68.5851 526.994 67.6322 526.414C66.6852 525.828 65.9543 525.011 65.4394 523.964C64.9304 522.91 64.6759 521.685 64.6759 520.288C64.6759 518.892 64.9304 517.661 65.4394 516.595C65.9543 515.524 66.6704 514.689 67.5878 514.092C68.5111 513.488 69.5883 513.186 70.8193 513.186C71.5296 513.186 72.2309 513.304 72.9234 513.541C73.6159 513.778 74.2462 514.163 74.8144 514.695C75.3825 515.222 75.8353 515.92 76.1727 516.79C76.51 517.661 76.6787 518.732 76.6787 520.004V520.892H66.1673V519.081H74.548C74.548 518.312 74.3941 517.625 74.0864 517.021C73.7845 516.418 73.3525 515.941 72.7902 515.592C72.2339 515.243 71.5769 515.068 70.8193 515.068C69.9848 515.068 69.2628 515.275 68.6531 515.69C68.0494 516.098 67.5848 516.631 67.2593 517.288C66.9338 517.945 66.771 518.649 66.771 519.401V520.608C66.771 521.638 66.9486 522.511 67.3037 523.227C67.6647 523.937 68.1649 524.479 68.8041 524.852C69.4433 525.219 70.1861 525.402 71.0324 525.402C71.5828 525.402 72.08 525.325 72.5239 525.171C72.9737 525.011 73.3614 524.775 73.6869 524.461C74.0124 524.141 74.2639 523.745 74.4415 523.271L76.4656 523.839C76.2526 524.526 75.8945 525.13 75.3914 525.651C74.8883 526.165 74.2669 526.568 73.5271 526.858C72.7873 527.142 71.9557 527.284 71.0324 527.284ZM85.4056 527.284C84.1272 527.284 83.0264 526.982 82.1031 526.379C81.1798 525.775 80.4695 524.943 79.9724 523.884C79.4752 522.824 79.2267 521.614 79.2267 520.253C79.2267 518.868 79.4811 517.646 79.9901 516.586C80.5051 515.521 81.2212 514.689 82.1386 514.092C83.0619 513.488 84.1391 513.186 85.3701 513.186C86.3289 513.186 87.193 513.364 87.9624 513.719C88.7319 514.074 89.3622 514.571 89.8534 515.21C90.3447 515.849 90.6495 516.595 90.7678 517.447H88.6727C88.5129 516.826 88.1578 516.276 87.6073 515.796C87.0628 515.311 86.3289 515.068 85.4056 515.068C84.5889 515.068 83.8727 515.281 83.2572 515.707C82.6476 516.128 82.1711 516.722 81.8279 517.492C81.4905 518.255 81.3218 519.152 81.3218 520.182C81.3218 521.235 81.4875 522.153 81.819 522.934C82.1563 523.715 82.6298 524.322 83.2394 524.754C83.855 525.186 84.577 525.402 85.4056 525.402C85.9501 525.402 86.4443 525.307 86.8882 525.118C87.3321 524.929 87.7079 524.656 88.0157 524.301C88.3235 523.946 88.5425 523.52 88.6727 523.023H90.7678C90.6495 523.828 90.3565 524.553 89.8889 525.198C89.4273 525.837 88.8147 526.346 88.0512 526.725C87.2936 527.098 86.4118 527.284 85.4056 527.284ZM99.7611 513.364V515.139H92.6943V513.364H99.7611ZM94.754 510.097H96.8492V523.094C96.8492 523.686 96.935 524.129 97.1066 524.425C97.2842 524.715 97.5091 524.911 97.7813 525.011C98.0595 525.106 98.3525 525.153 98.6602 525.153C98.8911 525.153 99.0805 525.142 99.2284 525.118C99.3764 525.088 99.4948 525.065 99.5835 525.047L100.01 526.929C99.8676 526.982 99.6694 527.036 99.4149 527.089C99.1604 527.148 98.8378 527.178 98.4472 527.178C97.8553 527.178 97.2753 527.05 96.7071 526.796C96.1449 526.541 95.6773 526.154 95.3044 525.633C94.9375 525.112 94.754 524.455 94.754 523.662V510.097ZM108.306 527.284C107.075 527.284 105.995 526.991 105.066 526.405C104.142 525.819 103.42 525 102.899 523.946C102.384 522.893 102.127 521.661 102.127 520.253C102.127 518.832 102.384 517.592 102.899 516.533C103.42 515.474 104.142 514.651 105.066 514.065C105.995 513.479 107.075 513.186 108.306 513.186C109.537 513.186 110.614 513.479 111.538 514.065C112.467 514.651 113.189 515.474 113.704 516.533C114.225 517.592 114.485 518.832 114.485 520.253C114.485 521.661 114.225 522.893 113.704 523.946C113.189 525 112.467 525.819 111.538 526.405C110.614 526.991 109.537 527.284 108.306 527.284ZM108.306 525.402C109.241 525.402 110.011 525.162 110.614 524.683C111.218 524.203 111.665 523.573 111.955 522.792C112.245 522.011 112.39 521.164 112.39 520.253C112.39 519.341 112.245 518.492 111.955 517.705C111.665 516.918 111.218 516.281 110.614 515.796C110.011 515.311 109.241 515.068 108.306 515.068C107.371 515.068 106.601 515.311 105.998 515.796C105.394 516.281 104.947 516.918 104.657 517.705C104.367 518.492 104.222 519.341 104.222 520.253C104.222 521.164 104.367 522.011 104.657 522.792C104.947 523.573 105.394 524.203 105.998 524.683C106.601 525.162 107.371 525.402 108.306 525.402ZM117.683 527V513.364H119.707V515.423H119.849C120.098 514.749 120.548 514.201 121.199 513.781C121.85 513.361 122.584 513.151 123.401 513.151C123.554 513.151 123.747 513.154 123.978 513.159C124.208 513.165 124.383 513.174 124.501 513.186V515.317C124.43 515.299 124.268 515.272 124.013 515.237C123.765 515.195 123.501 515.175 123.223 515.175C122.56 515.175 121.968 515.314 121.447 515.592C120.933 515.864 120.524 516.243 120.222 516.728C119.926 517.208 119.778 517.755 119.778 518.371V527H117.683Z" fill="black"/>
<path d="M80.2041 223.786C81.6741 223.177 83.3259 223.177 84.7959 223.786L133 243.753C134.47 244.362 135.638 245.53 136.247 247L156.214 295.204C156.823 296.674 156.823 298.326 156.214 299.796L136.247 348C135.638 349.47 134.47 350.638 133 351.247L84.7959 371.214C83.3259 371.823 81.6741 371.823 80.2041 371.214L32 351.247C30.5299 350.638 29.3619 349.47 28.7529 348L8.78613 299.796C8.17729 298.326 8.1773 296.674 8.78613 295.204L28.7529 247C29.3619 245.53 30.5299 244.362 32 243.753L80.2041 223.786Z" fill="#F693D1" stroke="#F15FBB" stroke-width="4"/>
<path d="M27.2017 307V288.818H33.3452C34.7656 288.818 35.9316 289.061 36.843 289.546C37.7545 290.026 38.4292 290.685 38.8672 291.526C39.3052 292.366 39.5241 293.322 39.5241 294.393C39.5241 295.465 39.3052 296.415 38.8672 297.243C38.4292 298.072 37.7575 298.723 36.8519 299.196C35.9464 299.664 34.7893 299.898 33.3807 299.898H28.4091V297.909H33.3097C34.2803 297.909 35.0616 297.767 35.6534 297.483C36.2512 297.199 36.6832 296.796 36.9496 296.276C37.2218 295.749 37.358 295.121 37.358 294.393C37.358 293.665 37.2218 293.029 36.9496 292.485C36.6773 291.94 36.2423 291.52 35.6445 291.224C35.0468 290.922 34.2566 290.771 33.2741 290.771H29.4034V307H27.2017ZM35.7599 298.832L40.2344 307H37.6776L33.2741 298.832H35.7599ZM48.4797 307.284C47.1657 307.284 46.0323 306.994 45.0795 306.414C44.1325 305.828 43.4015 305.011 42.8866 303.964C42.3776 302.91 42.1231 301.685 42.1231 300.288C42.1231 298.892 42.3776 297.661 42.8866 296.595C43.4015 295.524 44.1177 294.689 45.0351 294.092C45.9584 293.488 47.0355 293.186 48.2666 293.186C48.9768 293.186 49.6782 293.304 50.3706 293.541C51.0631 293.778 51.6934 294.163 52.2616 294.695C52.8298 295.222 53.2826 295.92 53.6199 296.79C53.9573 297.661 54.126 298.732 54.126 300.004V300.892H43.6146V299.081H51.9953C51.9953 298.312 51.8414 297.625 51.5336 297.021C51.2318 296.418 50.7997 295.941 50.2375 295.592C49.6811 295.243 49.0242 295.068 48.2666 295.068C47.4321 295.068 46.71 295.275 46.1004 295.69C45.4967 296.098 45.0321 296.631 44.7066 297.288C44.3811 297.945 44.2183 298.649 44.2183 299.401V300.608C44.2183 301.638 44.3959 302.511 44.751 303.227C45.112 303.937 45.6121 304.479 46.2513 304.852C46.8905 305.219 47.6333 305.402 48.4797 305.402C49.0301 305.402 49.5273 305.325 49.9711 305.171C50.421 305.011 50.8086 304.775 51.1341 304.461C51.4597 304.141 51.7112 303.745 51.8888 303.271L53.9129 303.839C53.6998 304.526 53.3418 305.13 52.8387 305.651C52.3356 306.165 51.7142 306.568 50.9743 306.858C50.2345 307.142 49.403 307.284 48.4797 307.284ZM66.9722 296.418L65.0901 296.95C64.9717 296.637 64.7971 296.332 64.5663 296.036C64.3414 295.734 64.0336 295.485 63.643 295.29C63.2524 295.095 62.7523 294.997 62.1427 294.997C61.3081 294.997 60.6127 295.19 60.0564 295.574C59.5059 295.953 59.2307 296.435 59.2307 297.021C59.2307 297.542 59.4201 297.953 59.7989 298.255C60.1777 298.557 60.7696 298.809 61.5745 299.01L63.5986 299.507C64.8179 299.803 65.7264 300.256 66.3241 300.865C66.9219 301.469 67.2208 302.247 67.2208 303.2C67.2208 303.982 66.9959 304.68 66.5461 305.295C66.1022 305.911 65.4807 306.396 64.6817 306.751C63.8827 307.107 62.9535 307.284 61.8941 307.284C60.5032 307.284 59.3521 306.982 58.4406 306.379C57.5291 305.775 56.9521 304.893 56.7094 303.733L58.6981 303.236C58.8875 303.97 59.2455 304.52 59.7723 304.887C60.305 305.254 61.0004 305.438 61.8586 305.438C62.8351 305.438 63.6105 305.23 64.1846 304.816C64.7646 304.396 65.0546 303.893 65.0546 303.307C65.0546 302.833 64.8889 302.437 64.5574 302.117C64.226 301.792 63.717 301.549 63.0305 301.389L60.7577 300.857C59.5089 300.561 58.5915 300.102 58.0056 299.48C57.4256 298.853 57.1356 298.069 57.1356 297.128C57.1356 296.358 57.3516 295.678 57.7836 295.086C58.2216 294.494 58.8164 294.029 59.5681 293.692C60.3257 293.355 61.1839 293.186 62.1427 293.186C63.4921 293.186 64.5515 293.482 65.3209 294.074C66.0963 294.666 66.6467 295.447 66.9722 296.418ZM70.3746 312.114V293.364H72.3988V295.53H72.6474C72.8013 295.293 73.0143 294.991 73.2866 294.624C73.5647 294.251 73.9613 293.92 74.4762 293.63C74.997 293.334 75.7013 293.186 76.5891 293.186C77.7373 293.186 78.7494 293.473 79.6254 294.047C80.5013 294.621 81.1849 295.435 81.6761 296.489C82.1674 297.542 82.413 298.785 82.413 300.217C82.413 301.661 82.1674 302.913 81.6761 303.973C81.1849 305.026 80.5043 305.843 79.6342 306.423C78.7642 306.997 77.761 307.284 76.6246 307.284C75.7487 307.284 75.0473 307.139 74.5206 306.849C73.9938 306.553 73.5884 306.219 73.3043 305.846C73.0202 305.467 72.8013 305.153 72.6474 304.905H72.4698V312.114H70.3746ZM72.4343 300.182C72.4343 301.212 72.5852 302.12 72.8871 302.907C73.1889 303.689 73.6299 304.301 74.2099 304.745C74.7899 305.183 75.5001 305.402 76.3406 305.402C77.2165 305.402 77.9474 305.171 78.5334 304.71C79.1252 304.242 79.5691 303.615 79.8651 302.827C80.1669 302.034 80.3178 301.152 80.3178 300.182C80.3178 299.223 80.1699 298.359 79.8739 297.589C79.5839 296.814 79.143 296.202 78.5511 295.752C77.9652 295.296 77.2283 295.068 76.3406 295.068C75.4883 295.068 74.7721 295.284 74.1921 295.716C73.6121 296.142 73.1741 296.74 72.8782 297.51C72.5823 298.273 72.4343 299.164 72.4343 300.182ZM91.1488 307.284C89.9177 307.284 88.8376 306.991 87.9084 306.405C86.9851 305.819 86.263 305 85.7422 303.946C85.2273 302.893 84.9698 301.661 84.9698 300.253C84.9698 298.832 85.2273 297.592 85.7422 296.533C86.263 295.474 86.9851 294.651 87.9084 294.065C88.8376 293.479 89.9177 293.186 91.1488 293.186C92.3799 293.186 93.457 293.479 94.3803 294.065C95.3095 294.651 96.0316 295.474 96.5465 296.533C97.0674 297.592 97.3278 298.832 97.3278 300.253C97.3278 301.661 97.0674 302.893 96.5465 303.946C96.0316 305 95.3095 305.819 94.3803 306.405C93.457 306.991 92.3799 307.284 91.1488 307.284ZM91.1488 305.402C92.0839 305.402 92.8533 305.162 93.457 304.683C94.0607 304.203 94.5076 303.573 94.7976 302.792C95.0876 302.011 95.2326 301.164 95.2326 300.253C95.2326 299.341 95.0876 298.492 94.7976 297.705C94.5076 296.918 94.0607 296.281 93.457 295.796C92.8533 295.311 92.0839 295.068 91.1488 295.068C90.2137 295.068 89.4442 295.311 88.8406 295.796C88.2369 296.281 87.79 296.918 87.5 297.705C87.21 298.492 87.065 299.341 87.065 300.253C87.065 301.164 87.21 302.011 87.5 302.792C87.79 303.573 88.2369 304.203 88.8406 304.683C89.4442 305.162 90.2137 305.402 91.1488 305.402ZM102.621 298.797V307H100.526V293.364H102.55V295.494H102.728C103.047 294.802 103.533 294.246 104.184 293.825C104.835 293.399 105.675 293.186 106.705 293.186C107.628 293.186 108.436 293.375 109.129 293.754C109.821 294.127 110.36 294.695 110.744 295.459C111.129 296.216 111.321 297.175 111.321 298.335V307H109.226V298.477C109.226 297.406 108.948 296.571 108.392 295.974C107.835 295.37 107.072 295.068 106.101 295.068C105.432 295.068 104.835 295.213 104.308 295.503C103.787 295.793 103.376 296.216 103.074 296.773C102.772 297.329 102.621 298.004 102.621 298.797ZM124.809 296.418L122.927 296.95C122.809 296.637 122.634 296.332 122.403 296.036C122.178 295.734 121.871 295.485 121.48 295.29C121.089 295.095 120.589 294.997 119.98 294.997C119.145 294.997 118.45 295.19 117.893 295.574C117.343 295.953 117.068 296.435 117.068 297.021C117.068 297.542 117.257 297.953 117.636 298.255C118.015 298.557 118.606 298.809 119.411 299.01L121.436 299.507C122.655 299.803 123.563 300.256 124.161 300.865C124.759 301.469 125.058 302.247 125.058 303.2C125.058 303.982 124.833 304.68 124.383 305.295C123.939 305.911 123.318 306.396 122.519 306.751C121.72 307.107 120.79 307.284 119.731 307.284C118.34 307.284 117.189 306.982 116.278 306.379C115.366 305.775 114.789 304.893 114.546 303.733L116.535 303.236C116.724 303.97 117.082 304.52 117.609 304.887C118.142 305.254 118.837 305.438 119.695 305.438C120.672 305.438 121.447 305.23 122.021 304.816C122.602 304.396 122.892 303.893 122.892 303.307C122.892 302.833 122.726 302.437 122.394 302.117C122.063 301.792 121.554 301.549 120.867 301.389L118.595 300.857C117.346 300.561 116.428 300.102 115.843 299.48C115.262 298.853 114.972 298.069 114.972 297.128C114.972 296.358 115.189 295.678 115.621 295.086C116.059 294.494 116.653 294.029 117.405 293.692C118.163 293.355 119.021 293.186 119.98 293.186C121.329 293.186 122.388 293.482 123.158 294.074C123.933 294.666 124.484 295.447 124.809 296.418ZM133.929 307.284C132.615 307.284 131.482 306.994 130.529 306.414C129.582 305.828 128.851 305.011 128.336 303.964C127.827 302.91 127.572 301.685 127.572 300.288C127.572 298.892 127.827 297.661 128.336 296.595C128.851 295.524 129.567 294.689 130.484 294.092C131.408 293.488 132.485 293.186 133.716 293.186C134.426 293.186 135.127 293.304 135.82 293.541C136.512 293.778 137.143 294.163 137.711 294.695C138.279 295.222 138.732 295.92 139.069 296.79C139.407 297.661 139.575 298.732 139.575 300.004V300.892H129.064V299.081H137.445C137.445 298.312 137.291 297.625 136.983 297.021C136.681 296.418 136.249 295.941 135.687 295.592C135.13 295.243 134.473 295.068 133.716 295.068C132.881 295.068 132.159 295.275 131.55 295.69C130.946 296.098 130.481 296.631 130.156 297.288C129.83 297.945 129.668 298.649 129.668 299.401V300.608C129.668 301.638 129.845 302.511 130.2 303.227C130.561 303.937 131.061 304.479 131.701 304.852C132.34 305.219 133.083 305.402 133.929 305.402C134.479 305.402 134.976 305.325 135.42 305.171C135.87 305.011 136.258 304.775 136.583 304.461C136.909 304.141 137.16 303.745 137.338 303.271L139.362 303.839C139.149 304.526 138.791 305.13 138.288 305.651C137.785 306.165 137.163 306.568 136.424 306.858C135.684 307.142 134.852 307.284 133.929 307.284Z" fill="black"/>
<path d="M499.796 184.194C501.767 184.194 503.738 184.194 521.179 184.194C538.619 184.194 571.47 184.194 591.021 184.851C615.892 185.687 625.514 190.147 632.97 193.954C647.423 201.336 662.356 214.357 671.629 221.813C683.517 231.371 694.858 245.186 702.817 255.464C709.286 263.819 712.149 270.103 717.286 278.236C721.695 285.217 725.429 292.68 726.922 297.493C727.42 298.663 728.077 299.648 728.579 300.649C729.082 301.649 729.411 302.635 729.749 306.636" stroke="#1F3647" stroke-width="5" stroke-linecap="round"/>
<path d="M711.831 302.654C713.812 303.311 723.04 312.529 728.908 319.398C730.435 321.186 732.725 322.554 734.054 323.554C734.059 320.254 736.04 316.272 738.524 313.953C739.694 312.947 740.679 312.29 743.686 309.623" stroke="#1F3647" stroke-width="5" stroke-linecap="round"/>
<path d="M721.785 412.156C718.5 418.726 709.909 435.579 698.636 456.972C693.236 467.217 688.955 472.84 683.012 482.919C679.299 489.216 673.127 497.268 666.631 505.441C660.136 513.614 653.237 521.498 642.128 530.651C631.019 539.805 615.907 549.988 607.466 555.399C595.568 563.024 588.432 564.781 582.111 566.613C574.49 568.821 568.503 570.097 563.526 571.59C558.32 573.152 553.91 575.074 549.42 576.403C546.941 577.065 544.602 577.732 542.616 578.394C541.616 578.728 540.63 579.056 538.619 579.395" stroke="#1F3647" stroke-width="5" stroke-linecap="round"/>
<path d="M535.632 564.463C530.366 573.024 521.367 587.677 521.527 589.504C522.014 590.017 523.328 589.688 528.44 589.519C533.552 589.35 542.421 589.35 551.56 589.35" stroke="#1F3647" stroke-width="5" stroke-linecap="round"/>
<path d="M288.756 589.35C285.451 590.674 279.499 593.312 265.438 598.289C259.829 600.274 251.426 600.937 242.268 601.614C233.11 602.291 223.255 602.291 213.743 601.634C195.3 600.36 183.267 597.323 177.309 595.502C164.184 591.489 152.079 587.379 144.11 584.382C139.23 582.547 135.474 580.072 130.661 575.926C129.491 575.085 128.506 574.756 127.67 574.094C126.833 573.432 126.176 572.447 125.5 571.431" stroke="#1F3647" stroke-width="5" stroke-linecap="round"/>
<path d="M119.527 583.376C119.527 578.12 119.527 571.799 121.991 566.981C124.454 565.777 129.382 567.091 132.577 567.932C135.773 568.773 137.087 569.101 139.436 569.44" stroke="#1F3647" stroke-width="5" stroke-linecap="round"/>
<path d="M78.7126 473.875C78.7126 473.218 78.7126 464.996 78.5484 452.229C78.4642 445.685 77.7172 431.528 77.8814 411.957C78.7126 400.887 79.0411 397.234 79.5389 394.263C79.7081 392.277 79.7081 389.32 79.7081 386.274" stroke="#1F3647" stroke-width="5" stroke-linecap="round"/>
<path d="M71.7441 391.251C71.7441 390.594 72.7297 387.628 75.0441 383.646C75.9975 382.006 78.0156 382.292 79.5188 382.785C81.0219 383.278 82.3359 384.263 83.5056 385.264C84.6753 386.264 85.6608 387.249 87.6716 388.265" stroke="#1F3647" stroke-width="5" stroke-linecap="round"/>
<path d="M133.463 236.953C137.435 231.657 142.064 227.018 161.57 216.427C168.252 212.799 176.766 210.792 188.881 207.796C216.627 200.934 234.324 198.13 236.972 197.966C246.23 197.134 258.216 196.806 260.699 196.144C261.869 195.811 262.854 195.482 266.856 195.144" stroke="#1F3647" stroke-width="5" stroke-linecap="round"/>
<path d="M263.87 179.216C272.122 189.45 282.107 202.092 282.953 205.751C281.151 206.751 278.483 207.746 275.999 208.906C274.83 209.409 273.844 209.737 270.838 212.067" stroke="#1F3647" stroke-width="5" stroke-linecap="round"/>
<path d="M230.363 404V377.825H250.125V382.887H236.55V387.95H245.438V393.012H236.55V404H230.363ZM264.765 404.45C262.515 404.45 260.577 404.012 258.952 403.137C257.352 402.262 256.115 401.012 255.24 399.387C254.365 397.762 253.927 395.825 253.927 393.575C253.927 391.3 254.365 389.35 255.24 387.725C256.115 386.1 257.377 384.862 259.027 384.012C260.702 383.137 262.715 382.7 265.065 382.7C268.74 382.7 271.402 383.75 273.052 385.85C274.727 387.925 275.427 390.787 275.152 394.437H258.577L258.615 390.425H269.19C269.115 389.475 268.69 388.712 267.915 388.137C267.14 387.537 266.177 387.237 265.027 387.237C263.227 387.237 261.902 387.8 261.052 388.925C260.202 390.05 259.777 391.687 259.777 393.837C259.777 394.912 259.965 395.9 260.34 396.8C260.715 397.7 261.265 398.425 261.99 398.975C262.74 399.5 263.665 399.762 264.765 399.762C265.94 399.762 266.927 399.475 267.727 398.9C268.552 398.325 269.052 397.6 269.227 396.725H275.077C274.827 399.1 273.777 400.987 271.927 402.387C270.102 403.762 267.715 404.45 264.765 404.45ZM289.154 404.45C286.904 404.45 284.967 404.012 283.342 403.137C281.742 402.262 280.504 401.012 279.629 399.387C278.754 397.762 278.317 395.825 278.317 393.575C278.317 391.3 278.754 389.35 279.629 387.725C280.504 386.1 281.767 384.862 283.417 384.012C285.092 383.137 287.104 382.7 289.454 382.7C293.129 382.7 295.792 383.75 297.442 385.85C299.117 387.925 299.817 390.787 299.542 394.437H282.967L283.004 390.425H293.579C293.504 389.475 293.079 388.712 292.304 388.137C291.529 387.537 290.567 387.237 289.417 387.237C287.617 387.237 286.292 387.8 285.442 388.925C284.592 390.05 284.167 391.687 284.167 393.837C284.167 394.912 284.354 395.9 284.729 396.8C285.104 397.7 285.654 398.425 286.379 398.975C287.129 399.5 288.054 399.762 289.154 399.762C290.329 399.762 291.317 399.475 292.117 398.9C292.942 398.325 293.442 397.6 293.617 396.725H299.467C299.217 399.1 298.167 400.987 296.317 402.387C294.492 403.762 292.104 404.45 289.154 404.45ZM311.931 382.7C313.131 382.7 314.256 382.925 315.306 383.375C316.356 383.8 317.231 384.387 317.931 385.137V376.25H323.744V404H318.119L318.006 401.9C317.306 402.675 316.431 403.3 315.381 403.775C314.331 404.225 313.181 404.45 311.931 404.45C310.131 404.45 308.531 403.962 307.131 402.987C305.731 402.013 304.631 400.7 303.831 399.05C303.031 397.4 302.631 395.575 302.631 393.575C302.631 391.55 303.031 389.712 303.831 388.062C304.631 386.412 305.731 385.112 307.131 384.162C308.531 383.187 310.131 382.7 311.931 382.7ZM313.431 399.65C314.481 399.65 315.406 399.325 316.206 398.675C317.006 398 317.581 397.125 317.931 396.05V391.062C317.581 389.962 317.006 389.1 316.206 388.475C315.406 387.825 314.481 387.5 313.431 387.5C312.481 387.5 311.631 387.775 310.881 388.325C310.131 388.85 309.544 389.575 309.119 390.5C308.694 391.4 308.481 392.425 308.481 393.575C308.481 394.7 308.694 395.725 309.119 396.65C309.544 397.55 310.131 398.275 310.881 398.825C311.631 399.375 312.481 399.65 313.431 399.65ZM339.471 382.7C341.296 382.7 342.896 383.187 344.271 384.162C345.671 385.112 346.771 386.412 347.571 388.062C348.371 389.712 348.771 391.55 348.771 393.575C348.771 395.575 348.371 397.4 347.571 399.05C346.771 400.7 345.671 402.013 344.271 402.987C342.896 403.962 341.296 404.45 339.471 404.45C338.246 404.45 337.109 404.225 336.059 403.775C335.009 403.3 334.121 402.675 333.396 401.9L333.284 404H327.659V376.25H333.471V385.137C334.196 384.387 335.071 383.8 336.096 383.375C337.146 382.925 338.271 382.7 339.471 382.7ZM337.971 399.65C338.946 399.65 339.796 399.375 340.521 398.825C341.271 398.275 341.859 397.55 342.284 396.65C342.709 395.725 342.921 394.7 342.921 393.575C342.921 392.425 342.709 391.4 342.284 390.5C341.859 389.575 341.271 388.85 340.521 388.325C339.796 387.775 338.946 387.5 337.971 387.5C336.921 387.5 335.996 387.825 335.196 388.475C334.396 389.1 333.821 389.962 333.471 391.062V396.05C333.821 397.125 334.396 398 335.196 398.675C335.996 399.325 336.921 399.65 337.971 399.65ZM366.186 404L365.998 400.25V389.975C365.998 389 365.636 388.237 364.911 387.687C364.186 387.112 363.186 386.825 361.911 386.825C360.686 386.825 359.686 387.087 358.911 387.612C358.161 388.112 357.723 388.825 357.598 389.75H351.936C352.061 388.275 352.561 387.012 353.436 385.962C354.311 384.912 355.486 384.112 356.961 383.562C358.461 382.987 360.198 382.7 362.173 382.7C364.123 382.7 365.823 383 367.273 383.6C368.723 384.175 369.836 385.037 370.611 386.187C371.411 387.312 371.811 388.7 371.811 390.35V404H366.186ZM359.511 404.45C358.136 404.45 356.923 404.187 355.873 403.662C354.823 403.112 354.011 402.362 353.436 401.412C352.861 400.462 352.573 399.387 352.573 398.187C352.573 396.037 353.398 394.375 355.048 393.2C356.723 392 359.023 391.4 361.948 391.4H366.561V395.45L361.798 395.487C360.723 395.487 359.861 395.687 359.211 396.087C358.586 396.462 358.273 397.037 358.273 397.812C358.273 398.362 358.498 398.837 358.948 399.237C359.423 399.637 360.086 399.837 360.936 399.837C362.111 399.837 363.148 399.55 364.048 398.975C364.973 398.375 365.736 397.562 366.336 396.537L366.973 400.475C366.348 401.85 365.386 402.862 364.086 403.512C362.811 404.137 361.286 404.45 359.511 404.45ZM386.825 404.45C384.625 404.45 382.725 404.012 381.125 403.137C379.55 402.262 378.338 401.012 377.488 399.387C376.663 397.762 376.25 395.825 376.25 393.575C376.25 391.275 376.688 389.312 377.563 387.687C378.463 386.062 379.713 384.825 381.313 383.975C382.913 383.125 384.8 382.7 386.975 382.7C388.875 382.7 390.55 383.037 392 383.712C393.475 384.387 394.638 385.337 395.488 386.562C396.363 387.762 396.838 389.2 396.913 390.875H391.063C390.863 389.725 390.413 388.875 389.713 388.325C389.038 387.75 388.125 387.462 386.975 387.462C386.025 387.462 385.175 387.7 384.425 388.175C383.7 388.65 383.125 389.337 382.7 390.237C382.3 391.137 382.1 392.25 382.1 393.575C382.1 395.55 382.55 397.075 383.45 398.15C384.375 399.225 385.5 399.762 386.825 399.762C387.6 399.762 388.275 399.625 388.85 399.35C389.45 399.075 389.95 398.687 390.35 398.187C390.75 397.662 391.025 397.075 391.175 396.425H397.025C396.875 398.05 396.35 399.462 395.45 400.662C394.55 401.862 393.363 402.8 391.888 403.475C390.413 404.125 388.725 404.45 386.825 404.45ZM400.34 404V376.25H406.19V385.175L405.815 391.437L409.79 386.6L413.09 383.15H420.515L406.19 397.4V404H400.34ZM414.065 404L407.428 392L412.79 389.9L420.853 404H414.065ZM450.619 404V377.825H456.807V398.937H469.482V404H450.619ZM484.084 404.45C481.859 404.45 479.946 404.012 478.346 403.137C476.746 402.262 475.509 401.012 474.634 399.387C473.784 397.762 473.359 395.825 473.359 393.575C473.359 391.3 473.784 389.362 474.634 387.762C475.509 386.137 476.746 384.887 478.346 384.012C479.946 383.137 481.859 382.7 484.084 382.7C487.434 382.7 490.046 383.662 491.921 385.587C493.821 387.512 494.771 390.175 494.771 393.575C494.771 395.825 494.346 397.762 493.496 399.387C492.646 401.012 491.421 402.262 489.821 403.137C488.221 404.012 486.309 404.45 484.084 404.45ZM484.084 399.725C485.584 399.725 486.759 399.175 487.609 398.075C488.484 396.975 488.921 395.475 488.921 393.575C488.921 391.65 488.484 390.15 487.609 389.075C486.759 387.975 485.584 387.425 484.084 387.425C482.559 387.425 481.359 387.975 480.484 389.075C479.634 390.15 479.209 391.65 479.209 393.575C479.209 395.475 479.634 396.975 480.484 398.075C481.359 399.175 482.559 399.725 484.084 399.725ZM508.474 404.45C506.249 404.45 504.336 404.012 502.736 403.137C501.136 402.262 499.899 401.012 499.024 399.387C498.174 397.762 497.749 395.825 497.749 393.575C497.749 391.3 498.174 389.362 499.024 387.762C499.899 386.137 501.136 384.887 502.736 384.012C504.336 383.137 506.249 382.7 508.474 382.7C511.824 382.7 514.436 383.662 516.311 385.587C518.211 387.512 519.161 390.175 519.161 393.575C519.161 395.825 518.736 397.762 517.886 399.387C517.036 401.012 515.811 402.262 514.211 403.137C512.611 404.012 510.699 404.45 508.474 404.45ZM508.474 399.725C509.974 399.725 511.149 399.175 511.999 398.075C512.874 396.975 513.311 395.475 513.311 393.575C513.311 391.65 512.874 390.15 511.999 389.075C511.149 387.975 509.974 387.425 508.474 387.425C506.949 387.425 505.749 387.975 504.874 389.075C504.024 390.15 503.599 391.65 503.599 393.575C503.599 395.475 504.024 396.975 504.874 398.075C505.749 399.175 506.949 399.725 508.474 399.725ZM534.588 382.7C536.413 382.7 538.013 383.187 539.388 384.162C540.788 385.112 541.888 386.412 542.688 388.062C543.488 389.712 543.888 391.55 543.888 393.575C543.888 395.575 543.488 397.4 542.688 399.05C541.888 400.7 540.788 402.013 539.388 402.987C538.013 403.962 536.413 404.45 534.588 404.45C533.388 404.45 532.276 404.237 531.251 403.812C530.226 403.362 529.351 402.762 528.626 402.012V410.675H522.776V383.15H528.438L528.551 385.175C529.276 384.4 530.151 383.8 531.176 383.375C532.226 382.925 533.363 382.7 534.588 382.7ZM533.088 399.65C534.063 399.65 534.913 399.375 535.638 398.825C536.388 398.275 536.976 397.55 537.401 396.65C537.826 395.725 538.038 394.7 538.038 393.575C538.038 392.425 537.826 391.4 537.401 390.5C536.976 389.575 536.388 388.85 535.638 388.325C534.913 387.775 534.063 387.5 533.088 387.5C532.063 387.5 531.151 387.812 530.351 388.437C529.551 389.062 528.976 389.9 528.626 390.95V396.162C528.976 397.212 529.551 398.062 530.351 398.712C531.151 399.337 532.063 399.65 533.088 399.65ZM557.778 404.45C555.828 404.45 554.115 404.137 552.64 403.512C551.165 402.862 550.015 401.95 549.19 400.775C548.39 399.575 547.978 398.162 547.953 396.537H553.39C553.34 397.687 553.703 398.587 554.478 399.237C555.278 399.887 556.365 400.212 557.74 400.212C558.74 400.212 559.54 400.05 560.14 399.725C560.765 399.375 561.078 398.9 561.078 398.3C561.078 397.775 560.84 397.362 560.365 397.062C559.915 396.737 559.315 396.487 558.565 396.312C557.815 396.112 556.99 395.925 556.09 395.75C555.19 395.55 554.278 395.312 553.353 395.037C552.453 394.762 551.628 394.4 550.878 393.95C550.128 393.475 549.515 392.862 549.04 392.112C548.59 391.337 548.365 390.375 548.365 389.225C548.365 387.9 548.74 386.75 549.49 385.775C550.24 384.8 551.278 384.05 552.603 383.525C553.953 382.975 555.503 382.7 557.253 382.7C559.928 382.7 562.09 383.325 563.74 384.575C565.415 385.8 566.34 387.525 566.515 389.75H561.115C561.065 388.825 560.69 388.125 559.99 387.65C559.29 387.175 558.39 386.937 557.29 386.937C556.365 386.937 555.628 387.1 555.078 387.425C554.528 387.75 554.253 388.237 554.253 388.887C554.253 389.412 554.478 389.825 554.928 390.125C555.403 390.4 556.015 390.625 556.765 390.8C557.515 390.975 558.34 391.137 559.24 391.287C560.165 391.437 561.078 391.65 561.978 391.925C562.878 392.175 563.703 392.525 564.453 392.975C565.203 393.425 565.803 394.025 566.253 394.775C566.728 395.525 566.965 396.487 566.965 397.662C566.965 399.787 566.128 401.45 564.453 402.65C562.803 403.85 560.578 404.45 557.778 404.45Z" fill="black"/>
<defs>
<clipPath id="clip0_754_95">
<rect width="115" height="115" fill="white" transform="translate(684 10)"/>
</clipPath>
</defs>
</svg>
