<svg width="685" height="317" viewBox="0 0 685 317" fill="none" xmlns="http://www.w3.org/2000/svg">
<rect x="5" y="5" width="675" height="307" fill="white" stroke="white" stroke-width="10"/>
<path d="M425 168H602M425 203H602" stroke="#1F3647" stroke-width="5"/>
<circle cx="573" cy="186" r="50" fill="url(#paint0_radial_805_262)"/>
<circle cx="454" cy="186" r="50" fill="url(#paint1_radial_805_262)"/>
<path d="M485.543 256.909C485.543 258.827 485.196 260.484 484.504 261.881C483.811 263.277 482.862 264.355 481.654 265.112C480.447 265.87 479.068 266.249 477.517 266.249C475.966 266.249 474.587 265.87 473.38 265.112C472.173 264.355 471.223 263.277 470.53 261.881C469.838 260.484 469.491 258.827 469.491 256.909C469.491 254.991 469.838 253.334 470.53 251.938C471.223 250.541 472.173 249.464 473.38 248.706C474.587 247.948 475.966 247.57 477.517 247.57C479.068 247.57 480.447 247.948 481.654 248.706C482.862 249.464 483.811 250.541 484.504 251.938C485.196 253.334 485.543 254.991 485.543 256.909ZM483.412 256.909C483.412 255.335 483.149 254.006 482.622 252.923C482.101 251.84 481.394 251.02 480.5 250.464C479.612 249.907 478.618 249.629 477.517 249.629C476.416 249.629 475.419 249.907 474.525 250.464C473.637 251.02 472.93 251.84 472.403 252.923C471.883 254.006 471.622 255.335 471.622 256.909C471.622 258.483 471.883 259.812 472.403 260.895C472.93 261.978 473.637 262.798 474.525 263.354C475.419 263.911 476.416 264.189 477.517 264.189C478.618 264.189 479.612 263.911 480.5 263.354C481.394 262.798 482.101 261.978 482.622 260.895C483.149 259.812 483.412 258.483 483.412 256.909ZM490.523 252.364L493.79 257.939L497.057 252.364H499.472L495.069 259.182L499.472 266H497.057L493.79 260.709L490.523 266H488.108L492.441 259.182L488.108 252.364H490.523ZM503.811 271.114C503.456 271.114 503.139 271.084 502.861 271.025C502.583 270.972 502.391 270.918 502.284 270.865L502.817 269.018C503.326 269.149 503.775 269.196 504.166 269.161C504.557 269.125 504.903 268.95 505.205 268.637C505.513 268.329 505.794 267.829 506.048 267.136L506.439 266.071L501.396 252.364H503.669L507.433 263.23H507.575L511.339 252.364H513.612L507.824 267.989C507.563 268.693 507.241 269.276 506.856 269.738C506.471 270.205 506.025 270.551 505.516 270.776C505.012 271.001 504.444 271.114 503.811 271.114ZM521.394 271.398C520.381 271.398 519.511 271.268 518.783 271.007C518.055 270.753 517.449 270.415 516.964 269.995C516.484 269.581 516.102 269.137 515.818 268.663L517.487 267.491C517.677 267.74 517.916 268.024 518.206 268.344C518.496 268.669 518.893 268.95 519.396 269.187C519.905 269.43 520.571 269.551 521.394 269.551C522.494 269.551 523.403 269.285 524.119 268.752C524.835 268.219 525.193 267.385 525.193 266.249V263.479H525.016C524.862 263.727 524.643 264.035 524.359 264.402C524.081 264.763 523.678 265.086 523.151 265.37C522.631 265.648 521.926 265.787 521.038 265.787C519.938 265.787 518.949 265.527 518.073 265.006C517.203 264.485 516.514 263.727 516.005 262.733C515.502 261.739 515.25 260.531 515.25 259.111C515.25 257.714 515.496 256.498 515.987 255.462C516.478 254.42 517.162 253.615 518.038 253.047C518.914 252.473 519.926 252.186 521.074 252.186C521.962 252.186 522.666 252.334 523.187 252.63C523.714 252.92 524.116 253.251 524.394 253.624C524.678 253.991 524.897 254.293 525.051 254.53H525.264V252.364H527.288V266.391C527.288 267.562 527.022 268.515 526.489 269.249C525.963 269.989 525.252 270.531 524.359 270.874C523.471 271.223 522.483 271.398 521.394 271.398ZM521.323 263.905C522.163 263.905 522.873 263.712 523.453 263.328C524.033 262.943 524.474 262.39 524.776 261.668C525.078 260.946 525.229 260.081 525.229 259.075C525.229 258.093 525.081 257.226 524.785 256.474C524.489 255.722 524.051 255.134 523.471 254.707C522.891 254.281 522.175 254.068 521.323 254.068C520.435 254.068 519.695 254.293 519.103 254.743C518.517 255.193 518.076 255.796 517.78 256.554C517.49 257.312 517.345 258.152 517.345 259.075C517.345 260.022 517.493 260.86 517.789 261.588C518.091 262.31 518.535 262.878 519.121 263.292C519.713 263.701 520.447 263.905 521.323 263.905ZM536.841 266.284C535.527 266.284 534.394 265.994 533.441 265.414C532.494 264.828 531.763 264.011 531.248 262.964C530.739 261.91 530.484 260.685 530.484 259.288C530.484 257.892 530.739 256.661 531.248 255.595C531.763 254.524 532.479 253.689 533.396 253.092C534.32 252.488 535.397 252.186 536.628 252.186C537.338 252.186 538.04 252.304 538.732 252.541C539.424 252.778 540.055 253.163 540.623 253.695C541.191 254.222 541.644 254.92 541.981 255.79C542.319 256.661 542.487 257.732 542.487 259.004V259.892H531.976V258.081H540.357C540.357 257.312 540.203 256.625 539.895 256.021C539.593 255.418 539.161 254.941 538.599 254.592C538.042 254.243 537.386 254.068 536.628 254.068C535.793 254.068 535.071 254.275 534.462 254.69C533.858 255.098 533.393 255.631 533.068 256.288C532.742 256.945 532.58 257.649 532.58 258.401V259.608C532.58 260.638 532.757 261.511 533.112 262.227C533.473 262.937 533.973 263.479 534.613 263.852C535.252 264.219 535.995 264.402 536.841 264.402C537.391 264.402 537.889 264.325 538.332 264.171C538.782 264.011 539.17 263.775 539.495 263.461C539.821 263.141 540.073 262.745 540.25 262.271L542.274 262.839C542.061 263.526 541.703 264.13 541.2 264.651C540.697 265.165 540.075 265.568 539.336 265.858C538.596 266.142 537.764 266.284 536.841 266.284ZM547.77 257.797V266H545.674V252.364H547.699V254.494H547.876C548.196 253.802 548.681 253.246 549.332 252.825C549.983 252.399 550.824 252.186 551.853 252.186C552.777 252.186 553.585 252.375 554.277 252.754C554.97 253.127 555.508 253.695 555.893 254.459C556.278 255.216 556.47 256.175 556.47 257.335V266H554.375V257.477C554.375 256.406 554.097 255.571 553.54 254.974C552.984 254.37 552.22 254.068 551.25 254.068C550.581 254.068 549.983 254.213 549.456 254.503C548.936 254.793 548.524 255.216 548.222 255.773C547.921 256.329 547.77 257.004 547.77 257.797Z" fill="black"/>
<path d="M516.07 285.727C516.07 287.313 515.769 288.663 515.168 289.776C514.572 290.888 513.757 291.738 512.725 292.325C511.698 292.908 510.542 293.199 509.259 293.199C507.966 293.199 506.806 292.905 505.779 292.318C504.751 291.731 503.939 290.881 503.343 289.768C502.746 288.656 502.448 287.309 502.448 285.727C502.448 284.141 502.746 282.792 503.343 281.679C503.939 280.566 504.751 279.719 505.779 279.136C506.806 278.549 507.966 278.256 509.259 278.256C510.542 278.256 511.698 278.549 512.725 279.136C513.757 279.719 514.572 280.566 515.168 281.679C515.769 282.792 516.07 284.141 516.07 285.727ZM512.952 285.727C512.952 284.7 512.798 283.833 512.491 283.128C512.188 282.422 511.759 281.887 511.205 281.523C510.651 281.158 510.002 280.976 509.259 280.976C508.516 280.976 507.867 281.158 507.313 281.523C506.759 281.887 506.328 282.422 506.02 283.128C505.717 283.833 505.566 284.7 505.566 285.727C505.566 286.755 505.717 287.621 506.02 288.327C506.328 289.032 506.759 289.567 507.313 289.932C507.867 290.296 508.516 290.479 509.259 290.479C510.002 290.479 510.651 290.296 511.205 289.932C511.759 289.567 512.188 289.032 512.491 288.327C512.798 287.621 512.952 286.755 512.952 285.727ZM517.958 295.5V293.93L521.416 291.168C521.682 290.95 521.911 290.753 522.105 290.578C522.299 290.403 522.451 290.225 522.56 290.045C522.669 289.866 522.723 289.667 522.723 289.449C522.723 289.108 522.584 288.845 522.304 288.661C522.025 288.476 521.686 288.384 521.289 288.384C520.862 288.384 520.519 288.488 520.259 288.696C520.003 288.9 519.875 289.196 519.875 289.584H517.78C517.78 288.675 518.111 287.962 518.774 287.446C519.437 286.925 520.285 286.665 521.317 286.665C522.022 286.665 522.636 286.788 523.156 287.034C523.677 287.276 524.08 287.605 524.364 288.021C524.653 288.438 524.797 288.904 524.797 289.42C524.797 289.837 524.709 290.225 524.534 290.585C524.364 290.94 524.099 291.291 523.739 291.636C523.384 291.977 522.924 292.335 522.361 292.709L521.097 293.646V293.724H524.896V295.5H517.958Z" fill="black"/>
<circle cx="179" cy="194" r="75" fill="url(#paint2_radial_805_262)"/>
<circle cx="298" cy="194" r="75" fill="url(#paint3_radial_805_262)"/>
<path d="M31 176H208M31 211H208M208 194H252.5" stroke="#1F3647" stroke-width="5"/>
<circle cx="179" cy="194" r="50" fill="url(#paint4_radial_805_262)"/>
<circle cx="298" cy="194" r="50" fill="url(#paint5_radial_805_262)"/>
<circle cx="60" cy="194" r="50" fill="url(#paint6_radial_805_262)"/>
<path d="M157.543 263.909C157.543 265.827 157.196 267.484 156.504 268.881C155.811 270.277 154.862 271.355 153.654 272.112C152.447 272.87 151.068 273.249 149.517 273.249C147.966 273.249 146.587 272.87 145.38 272.112C144.173 271.355 143.223 270.277 142.53 268.881C141.838 267.484 141.491 265.827 141.491 263.909C141.491 261.991 141.838 260.334 142.53 258.938C143.223 257.541 144.173 256.464 145.38 255.706C146.587 254.948 147.966 254.57 149.517 254.57C151.068 254.57 152.447 254.948 153.654 255.706C154.862 256.464 155.811 257.541 156.504 258.938C157.196 260.334 157.543 261.991 157.543 263.909ZM155.412 263.909C155.412 262.335 155.149 261.006 154.622 259.923C154.101 258.84 153.394 258.02 152.5 257.464C151.612 256.907 150.618 256.629 149.517 256.629C148.416 256.629 147.419 256.907 146.525 257.464C145.637 258.02 144.93 258.84 144.403 259.923C143.883 261.006 143.622 262.335 143.622 263.909C143.622 265.483 143.883 266.812 144.403 267.895C144.93 268.978 145.637 269.798 146.525 270.354C147.419 270.911 148.416 271.189 149.517 271.189C150.618 271.189 151.612 270.911 152.5 270.354C153.394 269.798 154.101 268.978 154.622 267.895C155.149 266.812 155.412 265.483 155.412 263.909ZM160.57 273V271.402L168.311 261.459V261.317H160.819V259.364H171.01V261.033L163.482 270.905V271.047H171.259V273H160.57ZM179.635 273.284C178.404 273.284 177.324 272.991 176.395 272.405C175.471 271.819 174.749 271 174.229 269.946C173.714 268.893 173.456 267.661 173.456 266.253C173.456 264.832 173.714 263.592 174.229 262.533C174.749 261.474 175.471 260.651 176.395 260.065C177.324 259.479 178.404 259.186 179.635 259.186C180.866 259.186 181.943 259.479 182.867 260.065C183.796 260.651 184.518 261.474 185.033 262.533C185.554 263.592 185.814 264.832 185.814 266.253C185.814 267.661 185.554 268.893 185.033 269.946C184.518 271 183.796 271.819 182.867 272.405C181.943 272.991 180.866 273.284 179.635 273.284ZM179.635 271.402C180.57 271.402 181.34 271.162 181.943 270.683C182.547 270.203 182.994 269.573 183.284 268.792C183.574 268.011 183.719 267.164 183.719 266.253C183.719 265.341 183.574 264.492 183.284 263.705C182.994 262.918 182.547 262.281 181.943 261.796C181.34 261.311 180.57 261.068 179.635 261.068C178.7 261.068 177.931 261.311 177.327 261.796C176.723 262.281 176.276 262.918 175.986 263.705C175.696 264.492 175.551 265.341 175.551 266.253C175.551 267.164 175.696 268.011 175.986 268.792C176.276 269.573 176.723 270.203 177.327 270.683C177.931 271.162 178.7 271.402 179.635 271.402ZM191.108 264.797V273H189.012V259.364H191.036V261.494H191.214C191.534 260.802 192.019 260.246 192.67 259.825C193.321 259.399 194.161 259.186 195.191 259.186C196.115 259.186 196.922 259.375 197.615 259.754C198.307 260.127 198.846 260.695 199.231 261.459C199.615 262.216 199.808 263.175 199.808 264.335V273H197.713V264.477C197.713 263.406 197.434 262.571 196.878 261.974C196.322 261.37 195.558 261.068 194.588 261.068C193.919 261.068 193.321 261.213 192.794 261.503C192.273 261.793 191.862 262.216 191.56 262.773C191.258 263.329 191.108 264.004 191.108 264.797ZM209.354 273.284C208.04 273.284 206.906 272.994 205.953 272.414C205.007 271.828 204.276 271.011 203.761 269.964C203.252 268.91 202.997 267.685 202.997 266.288C202.997 264.892 203.252 263.661 203.761 262.595C204.276 261.524 204.992 260.689 205.909 260.092C206.832 259.488 207.91 259.186 209.141 259.186C209.851 259.186 210.552 259.304 211.245 259.541C211.937 259.778 212.567 260.163 213.136 260.695C213.704 261.222 214.157 261.92 214.494 262.79C214.831 263.661 215 264.732 215 266.004V266.892H204.489V265.081H212.869C212.869 264.312 212.715 263.625 212.408 263.021C212.106 262.418 211.674 261.941 211.112 261.592C210.555 261.243 209.898 261.068 209.141 261.068C208.306 261.068 207.584 261.275 206.974 261.69C206.371 262.098 205.906 262.631 205.581 263.288C205.255 263.945 205.092 264.649 205.092 265.401V266.608C205.092 267.638 205.27 268.511 205.625 269.227C205.986 269.937 206.486 270.479 207.125 270.852C207.765 271.219 208.507 271.402 209.354 271.402C209.904 271.402 210.401 271.325 210.845 271.171C211.295 271.011 211.683 270.775 212.008 270.461C212.334 270.141 212.585 269.745 212.763 269.271L214.787 269.839C214.574 270.526 214.216 271.13 213.713 271.651C213.21 272.165 212.588 272.568 211.848 272.858C211.109 273.142 210.277 273.284 209.354 273.284Z" fill="black"/>
<path d="M180.885 289.727C180.885 291.313 180.584 292.663 179.983 293.776C179.386 294.888 178.572 295.738 177.539 296.325C176.512 296.908 175.357 297.199 174.074 297.199C172.781 297.199 171.621 296.905 170.593 296.318C169.566 295.731 168.754 294.881 168.157 293.768C167.561 292.656 167.262 291.309 167.262 289.727C167.262 288.141 167.561 286.792 168.157 285.679C168.754 284.566 169.566 283.719 170.593 283.136C171.621 282.549 172.781 282.256 174.074 282.256C175.357 282.256 176.512 282.549 177.539 283.136C178.572 283.719 179.386 284.566 179.983 285.679C180.584 286.792 180.885 288.141 180.885 289.727ZM177.767 289.727C177.767 288.7 177.613 287.833 177.305 287.128C177.002 286.422 176.574 285.887 176.02 285.523C175.466 285.158 174.817 284.976 174.074 284.976C173.33 284.976 172.681 285.158 172.127 285.523C171.574 285.887 171.143 286.422 170.835 287.128C170.532 287.833 170.38 288.7 170.38 289.727C170.38 290.755 170.532 291.621 170.835 292.327C171.143 293.032 171.574 293.567 172.127 293.932C172.681 294.296 173.33 294.479 174.074 294.479C174.817 294.479 175.466 294.296 176.02 293.932C176.574 293.567 177.002 293.032 177.305 292.327C177.613 291.621 177.767 290.755 177.767 289.727ZM186.288 299.614C185.573 299.614 184.936 299.502 184.377 299.28C183.823 299.057 183.383 298.747 183.056 298.349C182.729 297.956 182.559 297.497 182.545 296.972H184.775C184.799 297.237 184.952 297.443 185.237 297.589C185.525 297.736 185.876 297.81 186.288 297.81C186.714 297.81 187.076 297.724 187.374 297.554C187.673 297.388 187.822 297.154 187.822 296.851C187.822 296.567 187.67 296.332 187.367 296.148C187.069 295.958 186.655 295.864 186.124 295.864H185.123V294.251H186.124C186.565 294.251 186.92 294.164 187.19 293.989C187.46 293.809 187.594 293.579 187.594 293.3C187.594 293.025 187.476 292.805 187.239 292.639C187.007 292.469 186.7 292.384 186.316 292.384C185.914 292.384 185.57 292.464 185.286 292.625C185.002 292.786 184.853 292.999 184.839 293.264H182.744C182.753 292.748 182.916 292.296 183.234 291.908C183.556 291.515 183.987 291.209 184.526 290.991C185.066 290.774 185.67 290.665 186.337 290.665C187.014 290.665 187.606 290.776 188.113 290.999C188.62 291.221 189.013 291.522 189.292 291.901C189.576 292.279 189.718 292.701 189.718 293.165C189.718 293.676 189.54 294.086 189.185 294.393C188.835 294.701 188.411 294.888 187.914 294.955V295.026C188.601 295.092 189.136 295.3 189.519 295.651C189.903 296.001 190.094 296.451 190.094 297C190.094 297.511 189.929 297.964 189.597 298.357C189.271 298.75 188.821 299.057 188.248 299.28C187.675 299.502 187.022 299.614 186.288 299.614Z" fill="black"/>
<g clip-path="url(#clip0_805_262)">
<path d="M675 10H615V70H675V10Z" fill="#0077CC"/>
<path d="M648.268 18.3999C649.925 18.3999 651.268 19.7431 651.268 21.3999V38.5321L661.939 57.2651C663.079 59.2651 661.634 61.7499 659.333 61.7499H631.204C628.903 61.7498 627.458 59.265 628.597 57.2651L639.268 38.5321V21.3999C639.268 19.7431 640.612 18.4 642.268 18.3999H648.268Z" fill="#0077CC"/>
<path d="M651.268 38.5321H649.768V38.9294L649.965 39.2746L651.268 38.5321ZM639.268 38.5321L640.572 39.2746L640.768 38.9294V38.5321H639.268ZM648.268 18.3999V19.8999C649.097 19.8999 649.768 20.5715 649.768 21.3999H651.268H652.768C652.768 18.9146 650.754 16.8999 648.268 16.8999V18.3999ZM651.268 21.3999H649.768V38.5321H651.268H652.768V21.3999H651.268ZM651.268 38.5321L649.965 39.2746L660.636 58.0076L661.939 57.2651L663.243 56.5228L652.572 37.7897L651.268 38.5321ZM661.939 57.2651L660.636 58.0076C661.206 59.0075 660.483 60.2499 659.333 60.2499V61.7499V63.2499C662.785 63.2499 664.952 59.5226 663.243 56.5228L661.939 57.2651ZM659.333 61.7499V60.2499H631.204V61.7499L631.204 63.2499H659.333V61.7499ZM631.204 61.7499V60.2499C630.053 60.2498 629.331 59.0074 629.901 58.0075L628.597 57.2651L627.294 56.5227C625.585 59.5226 627.752 63.2497 631.204 63.2499L631.204 61.7499ZM628.597 57.2651L629.901 58.0075L640.572 39.2746L639.268 38.5321L637.965 37.7897L627.294 56.5227L628.597 57.2651ZM639.268 38.5321H640.768V21.3999H639.268H637.768V38.5321H639.268ZM639.268 21.3999H640.768C640.768 20.5715 641.44 19.8999 642.268 19.8999L642.268 18.3999V16.8999C639.783 16.9 637.768 18.9146 637.768 21.3999H639.268ZM642.268 18.3999L642.268 19.8999H648.268V18.3999V16.8999H642.268V18.3999Z" fill="white"/>
<path d="M649.921 39.7002C650.021 39.7002 650.119 39.7063 650.217 39.716L660.637 58.0078C661.206 59.0077 660.484 60.2501 659.333 60.2502H631.205C630.054 60.25 629.332 59.0078 629.901 58.0078L640.33 39.7002H649.921Z" fill="white"/>
<mask id="mask0_805_262" style="mask-type:luminance" maskUnits="userSpaceOnUse" x="629" y="39" width="32" height="22">
<path d="M649.921 39.7002C650.021 39.7002 650.119 39.7063 650.217 39.716L660.637 58.0078C661.206 59.0077 660.484 60.2501 659.333 60.2502H631.205C630.054 60.25 629.332 59.0078 629.901 58.0078L640.33 39.7002H649.921Z" fill="white"/>
</mask>
<g mask="url(#mask0_805_262)">
<path d="M650.217 39.716L651.781 38.825L651.32 38.0163L650.394 37.9247L650.217 39.716ZM640.33 39.7001V37.9001H639.284L638.766 38.8092L640.33 39.7001ZM649.921 39.7001V41.5001C649.947 41.5001 649.985 41.5018 650.04 41.5072L650.217 39.716L650.394 37.9247C650.254 37.9108 650.094 37.9001 649.921 37.9001V39.7001ZM650.217 39.716L648.653 40.6069L659.073 58.8987L660.637 58.0078L662.201 57.1171L651.781 38.825L650.217 39.716ZM660.637 58.0078L659.073 58.8987C658.959 58.6982 659.103 58.4501 659.333 58.4501L659.333 60.2501V62.0501C661.864 62.0498 663.454 59.3172 662.201 57.1171L660.637 58.0078ZM659.333 60.2501L659.333 58.4501H631.205V60.2501L631.204 62.0501H659.333V60.2501ZM631.205 60.2501V58.4501C631.435 58.4501 631.579 58.6986 631.466 58.8986L629.901 58.0078L628.337 57.1168C627.084 59.3169 628.673 62.0498 631.204 62.0501L631.205 60.2501ZM629.901 58.0078L631.466 58.8986L641.894 40.5911L640.33 39.7001L638.766 38.8092L628.337 57.1168L629.901 58.0078ZM640.33 39.7001V41.5001H649.921V39.7001V37.9001H640.33V39.7001Z" fill="#0077CC"/>
</g>
</g>
<path d="M408.356 27V16.866H404.684V14.436H414.998V16.866H411.326V27H408.356ZM423.519 27V20.844C423.519 20.316 423.387 19.896 423.123 19.584C422.859 19.272 422.511 19.116 422.079 19.116C421.587 19.116 421.131 19.284 420.711 19.62C420.303 19.944 419.871 20.508 419.415 21.312L419.019 18.954C419.475 18.162 420.027 17.604 420.675 17.28C421.323 16.944 421.983 16.776 422.655 16.776C423.423 16.776 424.077 16.938 424.617 17.262C425.169 17.586 425.589 18.042 425.877 18.63C426.177 19.206 426.327 19.884 426.327 20.664V27H423.519ZM416.841 27V13.662H419.649V27H416.841ZM433.354 27.216C432.274 27.216 431.344 27.006 430.564 26.586C429.796 26.166 429.202 25.566 428.782 24.786C428.362 24.006 428.152 23.076 428.152 21.996C428.152 20.904 428.362 19.968 428.782 19.188C429.202 18.408 429.808 17.814 430.6 17.406C431.404 16.986 432.37 16.776 433.498 16.776C435.262 16.776 436.54 17.28 437.332 18.288C438.136 19.284 438.472 20.658 438.34 22.41H430.384L430.402 20.484H435.478C435.442 20.028 435.238 19.662 434.866 19.386C434.494 19.098 434.032 18.954 433.48 18.954C432.616 18.954 431.98 19.224 431.572 19.764C431.164 20.304 430.96 21.09 430.96 22.122C430.96 22.638 431.05 23.112 431.23 23.544C431.41 23.976 431.674 24.324 432.022 24.588C432.382 24.84 432.826 24.966 433.354 24.966C433.918 24.966 434.392 24.828 434.776 24.552C435.172 24.276 435.412 23.928 435.496 23.508H438.304C438.184 24.648 437.68 25.554 436.792 26.226C435.916 26.886 434.77 27.216 433.354 27.216ZM456.75 27.216C455.718 27.216 454.83 27.024 454.086 26.64C453.354 26.244 452.79 25.692 452.394 24.984C452.01 24.264 451.818 23.418 451.818 22.446H454.734C454.734 23.202 454.896 23.784 455.22 24.192C455.556 24.588 456.066 24.786 456.75 24.786C457.29 24.786 457.716 24.672 458.028 24.444C458.352 24.204 458.514 23.868 458.514 23.436C458.514 23.112 458.394 22.86 458.154 22.68C457.926 22.488 457.614 22.332 457.218 22.212C456.834 22.08 456.408 21.96 455.94 21.852C455.484 21.732 455.022 21.588 454.554 21.42C454.098 21.252 453.672 21.03 453.276 20.754C452.892 20.478 452.58 20.118 452.34 19.674C452.112 19.23 451.998 18.666 451.998 17.982C451.998 17.274 452.19 16.638 452.574 16.074C452.97 15.51 453.516 15.06 454.212 14.724C454.908 14.388 455.724 14.22 456.66 14.22C457.512 14.22 458.304 14.388 459.036 14.724C459.768 15.048 460.362 15.522 460.818 16.146C461.274 16.77 461.514 17.538 461.538 18.45H458.568C458.544 18.042 458.436 17.706 458.244 17.442C458.064 17.178 457.83 16.98 457.542 16.848C457.266 16.716 456.972 16.65 456.66 16.65C456.216 16.65 455.838 16.758 455.526 16.974C455.214 17.178 455.058 17.484 455.058 17.892C455.058 18.204 455.172 18.45 455.4 18.63C455.64 18.81 455.952 18.96 456.336 19.08C456.732 19.188 457.158 19.296 457.614 19.404C458.082 19.512 458.544 19.65 459 19.818C459.468 19.974 459.894 20.196 460.278 20.484C460.674 20.772 460.986 21.156 461.214 21.636C461.454 22.104 461.574 22.704 461.574 23.436C461.574 24.168 461.364 24.822 460.944 25.398C460.536 25.962 459.966 26.406 459.234 26.73C458.514 27.054 457.686 27.216 456.75 27.216ZM468.529 27.216C467.473 27.216 466.561 27.006 465.793 26.586C465.037 26.166 464.455 25.566 464.047 24.786C463.651 24.006 463.453 23.076 463.453 21.996C463.453 20.892 463.663 19.95 464.083 19.17C464.515 18.39 465.115 17.796 465.883 17.388C466.651 16.98 467.557 16.776 468.601 16.776C469.513 16.776 470.317 16.938 471.013 17.262C471.721 17.586 472.279 18.042 472.687 18.63C473.107 19.206 473.335 19.896 473.371 20.7H470.563C470.467 20.148 470.251 19.74 469.915 19.476C469.591 19.2 469.153 19.062 468.601 19.062C468.145 19.062 467.737 19.176 467.377 19.404C467.029 19.632 466.753 19.962 466.549 20.394C466.357 20.826 466.261 21.36 466.261 21.996C466.261 22.944 466.477 23.676 466.909 24.192C467.353 24.708 467.893 24.966 468.529 24.966C468.901 24.966 469.225 24.9 469.501 24.768C469.789 24.636 470.029 24.45 470.221 24.21C470.413 23.958 470.545 23.676 470.617 23.364H473.425C473.353 24.144 473.101 24.822 472.669 25.398C472.237 25.974 471.667 26.424 470.959 26.748C470.251 27.06 469.441 27.216 468.529 27.216ZM478.688 27V16.992H481.496V27H478.688ZM475.448 27V24.732H484.772V27H475.448ZM476.708 19.26V16.992H480.092V19.26H476.708ZM478.58 15.66V13.032H481.568V15.66H478.58ZM491.889 27.216C490.809 27.216 489.879 27.006 489.099 26.586C488.331 26.166 487.737 25.566 487.317 24.786C486.897 24.006 486.687 23.076 486.687 21.996C486.687 20.904 486.897 19.968 487.317 19.188C487.737 18.408 488.343 17.814 489.135 17.406C489.939 16.986 490.905 16.776 492.033 16.776C493.797 16.776 495.075 17.28 495.867 18.288C496.671 19.284 497.007 20.658 496.875 22.41H488.919L488.937 20.484H494.013C493.977 20.028 493.773 19.662 493.401 19.386C493.029 19.098 492.567 18.954 492.015 18.954C491.151 18.954 490.515 19.224 490.107 19.764C489.699 20.304 489.495 21.09 489.495 22.122C489.495 22.638 489.585 23.112 489.765 23.544C489.945 23.976 490.209 24.324 490.557 24.588C490.917 24.84 491.361 24.966 491.889 24.966C492.453 24.966 492.927 24.828 493.311 24.552C493.707 24.276 493.947 23.928 494.031 23.508H496.839C496.719 24.648 496.215 25.554 495.327 26.226C494.451 26.886 493.305 27.216 491.889 27.216ZM505.468 27V20.826C505.468 20.31 505.336 19.896 505.072 19.584C504.808 19.272 504.46 19.116 504.028 19.116C503.536 19.116 503.08 19.284 502.66 19.62C502.252 19.944 501.82 20.508 501.364 21.312L500.968 18.936C501.424 18.156 501.976 17.604 502.624 17.28C503.272 16.944 503.932 16.776 504.604 16.776C505.372 16.776 506.026 16.938 506.566 17.262C507.118 17.586 507.538 18.036 507.826 18.612C508.126 19.188 508.276 19.866 508.276 20.646V27H505.468ZM498.79 27V16.992H501.508L501.598 18.774V27H498.79ZM515.357 27.216C514.301 27.216 513.389 27.006 512.621 26.586C511.865 26.166 511.283 25.566 510.875 24.786C510.479 24.006 510.281 23.076 510.281 21.996C510.281 20.892 510.491 19.95 510.911 19.17C511.343 18.39 511.943 17.796 512.711 17.388C513.479 16.98 514.385 16.776 515.429 16.776C516.341 16.776 517.145 16.938 517.841 17.262C518.549 17.586 519.107 18.042 519.515 18.63C519.935 19.206 520.163 19.896 520.199 20.7H517.391C517.295 20.148 517.079 19.74 516.743 19.476C516.419 19.2 515.981 19.062 515.429 19.062C514.973 19.062 514.565 19.176 514.205 19.404C513.857 19.632 513.581 19.962 513.377 20.394C513.185 20.826 513.089 21.36 513.089 21.996C513.089 22.944 513.305 23.676 513.737 24.192C514.181 24.708 514.721 24.966 515.357 24.966C515.729 24.966 516.053 24.9 516.329 24.768C516.617 24.636 516.857 24.45 517.049 24.21C517.241 23.958 517.373 23.676 517.445 23.364H520.253C520.181 24.144 519.929 24.822 519.497 25.398C519.065 25.974 518.495 26.424 517.787 26.748C517.079 27.06 516.269 27.216 515.357 27.216ZM527.01 27.216C525.93 27.216 525 27.006 524.22 26.586C523.452 26.166 522.858 25.566 522.438 24.786C522.018 24.006 521.808 23.076 521.808 21.996C521.808 20.904 522.018 19.968 522.438 19.188C522.858 18.408 523.464 17.814 524.256 17.406C525.06 16.986 526.026 16.776 527.154 16.776C528.918 16.776 530.196 17.28 530.988 18.288C531.792 19.284 532.128 20.658 531.996 22.41H524.04L524.058 20.484H529.134C529.098 20.028 528.894 19.662 528.522 19.386C528.15 19.098 527.688 18.954 527.136 18.954C526.272 18.954 525.636 19.224 525.228 19.764C524.82 20.304 524.616 21.09 524.616 22.122C524.616 22.638 524.706 23.112 524.886 23.544C525.066 23.976 525.33 24.324 525.678 24.588C526.038 24.84 526.482 24.966 527.01 24.966C527.574 24.966 528.048 24.828 528.432 24.552C528.828 24.276 529.068 23.928 529.152 23.508H531.96C531.84 24.648 531.336 25.554 530.448 26.226C529.572 26.886 528.426 27.216 527.01 27.216ZM547.688 23.058V20.628H550.55C551.126 20.628 551.588 20.454 551.936 20.106C552.284 19.746 552.458 19.278 552.458 18.702C552.458 18.15 552.284 17.706 551.936 17.37C551.588 17.034 551.126 16.866 550.55 16.866H547.688V14.436H550.568C551.564 14.436 552.434 14.61 553.178 14.958C553.922 15.306 554.498 15.804 554.906 16.452C555.314 17.088 555.518 17.838 555.518 18.702C555.518 19.578 555.314 20.346 554.906 21.006C554.498 21.654 553.922 22.158 553.178 22.518C552.446 22.878 551.576 23.058 550.568 23.058H547.688ZM545.564 27V14.436H548.534V27H545.564ZM564.183 21.996V20.646C564.183 20.19 564.063 19.824 563.823 19.548C563.583 19.26 563.223 19.116 562.743 19.116C562.203 19.116 561.693 19.296 561.213 19.656C560.733 20.016 560.277 20.64 559.845 21.528L559.557 19.17C559.869 18.642 560.211 18.204 560.583 17.856C560.955 17.496 561.363 17.226 561.807 17.046C562.263 16.866 562.761 16.776 563.301 16.776C564.369 16.776 565.251 17.106 565.947 17.766C566.643 18.414 566.991 19.374 566.991 20.646V21.996H564.183ZM557.505 27V16.992H560.205L560.313 18.792V27H557.505ZM573.838 27.216C572.758 27.216 571.828 27.006 571.048 26.586C570.28 26.166 569.686 25.566 569.266 24.786C568.846 24.006 568.636 23.076 568.636 21.996C568.636 20.904 568.846 19.968 569.266 19.188C569.686 18.408 570.292 17.814 571.084 17.406C571.888 16.986 572.854 16.776 573.982 16.776C575.746 16.776 577.024 17.28 577.816 18.288C578.62 19.284 578.956 20.658 578.824 22.41H570.868L570.886 20.484H575.962C575.926 20.028 575.722 19.662 575.35 19.386C574.978 19.098 574.516 18.954 573.964 18.954C573.1 18.954 572.464 19.224 572.056 19.764C571.648 20.304 571.444 21.09 571.444 22.122C571.444 22.638 571.534 23.112 571.714 23.544C571.894 23.976 572.158 24.324 572.506 24.588C572.866 24.84 573.31 24.966 573.838 24.966C574.402 24.966 574.876 24.828 575.26 24.552C575.656 24.276 575.896 23.928 575.98 23.508H578.788C578.668 24.648 578.164 25.554 577.276 26.226C576.4 26.886 575.254 27.216 573.838 27.216ZM585.707 27.216C584.771 27.216 583.949 27.066 583.241 26.766C582.533 26.454 581.981 26.016 581.585 25.452C581.201 24.876 581.003 24.198 580.991 23.418H583.601C583.577 23.97 583.751 24.402 584.123 24.714C584.507 25.026 585.029 25.182 585.689 25.182C586.169 25.182 586.553 25.104 586.841 24.948C587.141 24.78 587.291 24.552 587.291 24.264C587.291 24.012 587.177 23.814 586.949 23.67C586.733 23.514 586.445 23.394 586.085 23.31C585.725 23.214 585.329 23.124 584.897 23.04C584.465 22.944 584.027 22.83 583.583 22.698C583.151 22.566 582.755 22.392 582.395 22.176C582.035 21.948 581.741 21.654 581.513 21.294C581.297 20.922 581.189 20.46 581.189 19.908C581.189 19.272 581.369 18.72 581.729 18.252C582.089 17.784 582.587 17.424 583.223 17.172C583.871 16.908 584.615 16.776 585.455 16.776C586.739 16.776 587.777 17.076 588.569 17.676C589.373 18.264 589.817 19.092 589.901 20.16H587.309C587.285 19.716 587.105 19.38 586.769 19.152C586.433 18.924 586.001 18.81 585.473 18.81C585.029 18.81 584.675 18.888 584.411 19.044C584.147 19.2 584.015 19.434 584.015 19.746C584.015 19.998 584.123 20.196 584.339 20.34C584.567 20.472 584.861 20.58 585.221 20.664C585.581 20.748 585.977 20.826 586.409 20.898C586.853 20.97 587.291 21.072 587.723 21.204C588.155 21.324 588.551 21.492 588.911 21.708C589.271 21.924 589.559 22.212 589.775 22.572C590.003 22.932 590.117 23.394 590.117 23.958C590.117 24.978 589.715 25.776 588.911 26.352C588.119 26.928 587.051 27.216 585.707 27.216ZM597.415 27.216C596.479 27.216 595.657 27.066 594.949 26.766C594.241 26.454 593.689 26.016 593.293 25.452C592.909 24.876 592.711 24.198 592.699 23.418H595.309C595.285 23.97 595.459 24.402 595.831 24.714C596.215 25.026 596.737 25.182 597.397 25.182C597.877 25.182 598.261 25.104 598.549 24.948C598.849 24.78 598.999 24.552 598.999 24.264C598.999 24.012 598.885 23.814 598.657 23.67C598.441 23.514 598.153 23.394 597.793 23.31C597.433 23.214 597.037 23.124 596.604 23.04C596.173 22.944 595.735 22.83 595.291 22.698C594.859 22.566 594.463 22.392 594.103 22.176C593.743 21.948 593.449 21.654 593.221 21.294C593.005 20.922 592.897 20.46 592.897 19.908C592.897 19.272 593.077 18.72 593.437 18.252C593.797 17.784 594.295 17.424 594.931 17.172C595.579 16.908 596.323 16.776 597.163 16.776C598.447 16.776 599.485 17.076 600.277 17.676C601.081 18.264 601.525 19.092 601.609 20.16H599.017C598.993 19.716 598.813 19.38 598.477 19.152C598.141 18.924 597.709 18.81 597.181 18.81C596.737 18.81 596.383 18.888 596.119 19.044C595.855 19.2 595.723 19.434 595.723 19.746C595.723 19.998 595.831 20.196 596.047 20.34C596.275 20.472 596.569 20.58 596.929 20.664C597.289 20.748 597.685 20.826 598.117 20.898C598.561 20.97 598.999 21.072 599.431 21.204C599.863 21.324 600.259 21.492 600.619 21.708C600.979 21.924 601.267 22.212 601.482 22.572C601.711 22.932 601.825 23.394 601.825 23.958C601.825 24.978 601.423 25.776 600.619 26.352C599.827 26.928 598.759 27.216 597.415 27.216Z" fill="#0077CC"/>
<path d="M96.3966 87.324C94.7046 87.324 93.2376 86.928 91.9956 86.136C90.7716 85.326 89.8176 84.192 89.1336 82.734C88.4676 81.258 88.1346 79.539 88.1346 77.577C88.1346 75.597 88.4766 73.878 89.1606 72.42C89.8446 70.962 90.8166 69.837 92.0766 69.045C93.3366 68.235 94.8306 67.83 96.5586 67.83C97.9086 67.83 99.1506 68.091 100.285 68.613C101.419 69.135 102.346 69.891 103.066 70.881C103.804 71.871 104.209 73.077 104.281 74.499H99.4206C99.3306 73.581 99.0426 72.852 98.5566 72.312C98.0706 71.754 97.4046 71.475 96.5586 71.475C95.8386 71.475 95.1816 71.709 94.5876 72.177C94.0116 72.627 93.5526 73.311 93.2106 74.229C92.8866 75.129 92.7246 76.245 92.7246 77.577C92.7246 78.891 92.8866 80.007 93.2106 80.925C93.5346 81.825 93.9666 82.509 94.5066 82.977C95.0646 83.445 95.6946 83.679 96.3966 83.679C96.9906 83.679 97.5036 83.562 97.9356 83.328C98.3856 83.076 98.7456 82.716 99.0156 82.248C99.3036 81.78 99.4746 81.213 99.5286 80.547H104.389C104.245 81.933 103.831 83.139 103.147 84.165C102.481 85.173 101.581 85.956 100.447 86.514C99.3126 87.054 97.9626 87.324 96.3966 87.324ZM113.768 87.324C112.166 87.324 110.789 87.009 109.637 86.379C108.485 85.749 107.594 84.849 106.964 83.679C106.352 82.509 106.046 81.114 106.046 79.494C106.046 77.856 106.352 76.461 106.964 75.309C107.594 74.139 108.485 73.239 109.637 72.609C110.789 71.979 112.166 71.664 113.768 71.664C116.18 71.664 118.061 72.357 119.411 73.743C120.779 75.129 121.463 77.046 121.463 79.494C121.463 81.114 121.157 82.509 120.545 83.679C119.933 84.849 119.051 85.749 117.899 86.379C116.747 87.009 115.37 87.324 113.768 87.324ZM113.768 83.922C114.848 83.922 115.694 83.526 116.306 82.734C116.936 81.942 117.251 80.862 117.251 79.494C117.251 78.108 116.936 77.028 116.306 76.254C115.694 75.462 114.848 75.066 113.768 75.066C112.67 75.066 111.806 75.462 111.176 76.254C110.564 77.028 110.258 78.108 110.258 79.494C110.258 80.862 110.564 81.942 111.176 82.734C111.806 83.526 112.67 83.922 113.768 83.922ZM135.163 87V76.416C135.163 76.002 135.109 75.678 135.001 75.444C134.893 75.192 134.686 75.066 134.38 75.066C133.984 75.066 133.624 75.363 133.3 75.957C132.994 76.533 132.742 77.55 132.544 79.008L132.274 76.983C132.166 75.345 132.436 74.049 133.084 73.095C133.732 72.141 134.605 71.664 135.703 71.664C136.639 71.664 137.413 72.033 138.025 72.771C138.637 73.491 138.943 74.553 138.943 75.957V87H135.163ZM123.715 87V71.988H127.387L127.468 74.769V87H123.715ZM129.439 87V76.416C129.439 75.948 129.367 75.606 129.223 75.39C129.097 75.174 128.899 75.066 128.629 75.066C128.161 75.066 127.792 75.39 127.522 76.038C127.252 76.686 127.018 77.676 126.82 79.008L126.847 76.821C126.775 75.777 126.892 74.868 127.198 74.094C127.504 73.32 127.909 72.726 128.413 72.312C128.935 71.88 129.493 71.664 130.087 71.664C131.041 71.664 131.797 72.06 132.355 72.852C132.913 73.626 133.192 74.643 133.192 75.903V87H129.439ZM152.723 87V76.416C152.723 76.002 152.669 75.678 152.561 75.444C152.453 75.192 152.246 75.066 151.94 75.066C151.544 75.066 151.184 75.363 150.86 75.957C150.554 76.533 150.302 77.55 150.104 79.008L149.834 76.983C149.726 75.345 149.996 74.049 150.644 73.095C151.292 72.141 152.165 71.664 153.263 71.664C154.199 71.664 154.973 72.033 155.585 72.771C156.197 73.491 156.503 74.553 156.503 75.957V87H152.723ZM141.275 87V71.988H144.947L145.028 74.769V87H141.275ZM146.999 87V76.416C146.999 75.948 146.927 75.606 146.783 75.39C146.657 75.174 146.459 75.066 146.189 75.066C145.721 75.066 145.352 75.39 145.082 76.038C144.812 76.686 144.578 77.676 144.38 79.008L144.407 76.821C144.335 75.777 144.452 74.868 144.758 74.094C145.064 73.32 145.469 72.726 145.973 72.312C146.495 71.88 147.053 71.664 147.647 71.664C148.601 71.664 149.357 72.06 149.915 72.852C150.473 73.626 150.752 74.643 150.752 75.903V87H146.999ZM166.45 87.324C164.848 87.324 163.471 87.009 162.319 86.379C161.167 85.749 160.276 84.849 159.646 83.679C159.034 82.509 158.728 81.114 158.728 79.494C158.728 77.856 159.034 76.461 159.646 75.309C160.276 74.139 161.167 73.239 162.319 72.609C163.471 71.979 164.848 71.664 166.45 71.664C168.862 71.664 170.743 72.357 172.093 73.743C173.461 75.129 174.145 77.046 174.145 79.494C174.145 81.114 173.839 82.509 173.227 83.679C172.615 84.849 171.733 85.749 170.581 86.379C169.429 87.009 168.052 87.324 166.45 87.324ZM166.45 83.922C167.53 83.922 168.376 83.526 168.988 82.734C169.618 81.942 169.933 80.862 169.933 79.494C169.933 78.108 169.618 77.028 168.988 76.254C168.376 75.462 167.53 75.066 166.45 75.066C165.352 75.066 164.488 75.462 163.858 76.254C163.246 77.028 162.94 78.108 162.94 79.494C162.94 80.862 163.246 81.942 163.858 82.734C164.488 83.526 165.352 83.922 166.45 83.922ZM186.953 87V77.739C186.953 76.965 186.755 76.344 186.359 75.876C185.963 75.408 185.441 75.174 184.793 75.174C184.055 75.174 183.371 75.426 182.741 75.93C182.129 76.416 181.481 77.262 180.797 78.468L180.203 74.904C180.887 73.734 181.715 72.906 182.687 72.42C183.659 71.916 184.649 71.664 185.657 71.664C186.809 71.664 187.79 71.907 188.6 72.393C189.428 72.879 190.058 73.554 190.49 74.418C190.94 75.282 191.165 76.299 191.165 77.469V87H186.953ZM176.936 87V71.988H181.013L181.148 74.661V87H176.936ZM213.866 83.382V79.737H224.963V83.382H213.866ZM215.783 68.154H222.452L227.231 87H222.695L220.238 76.308L219.104 71.286L217.943 76.308L215.432 87H211.031L215.783 68.154ZM234.586 87V67.02H238.798V87H234.586ZM229.726 87V83.598H243.712V87H229.726ZM231.616 70.422V67.02H236.692V70.422H231.616ZM252.147 87V67.02H256.359V87H252.147ZM247.287 87V83.598H261.273V87H247.287ZM249.177 70.422V67.02H254.253V70.422H249.177ZM271.813 87.324C270.211 87.324 268.834 87.009 267.682 86.379C266.53 85.749 265.639 84.849 265.009 83.679C264.397 82.509 264.091 81.114 264.091 79.494C264.091 77.856 264.397 76.461 265.009 75.309C265.639 74.139 266.53 73.239 267.682 72.609C268.834 71.979 270.211 71.664 271.813 71.664C274.225 71.664 276.106 72.357 277.456 73.743C278.824 75.129 279.508 77.046 279.508 79.494C279.508 81.114 279.202 82.509 278.59 83.679C277.978 84.849 277.096 85.749 275.944 86.379C274.792 87.009 273.415 87.324 271.813 87.324ZM271.813 83.922C272.893 83.922 273.739 83.526 274.351 82.734C274.981 81.942 275.296 80.862 275.296 79.494C275.296 78.108 274.981 77.028 274.351 76.254C273.739 75.462 272.893 75.066 271.813 75.066C270.715 75.066 269.851 75.462 269.221 76.254C268.609 77.028 268.303 78.108 268.303 79.494C268.303 80.862 268.609 81.942 269.221 82.734C269.851 83.526 270.715 83.922 271.813 83.922ZM290.589 87C289.581 87 288.69 86.775 287.916 86.325C287.16 85.857 286.575 85.218 286.161 84.408C285.747 83.58 285.54 82.644 285.54 81.6V69.477L289.752 67.587V81.6C289.752 82.068 289.815 82.455 289.941 82.761C290.085 83.049 290.337 83.265 290.697 83.409C291.075 83.535 291.597 83.598 292.263 83.598H296.07V87H290.589ZM282.57 75.39V71.988H293.397V75.39H282.57ZM310.147 79.494V77.469C310.147 76.785 309.967 76.236 309.607 75.822C309.247 75.39 308.707 75.174 307.987 75.174C307.177 75.174 306.412 75.444 305.692 75.984C304.972 76.524 304.288 77.46 303.64 78.792L303.208 75.255C303.676 74.463 304.189 73.806 304.747 73.284C305.305 72.744 305.917 72.339 306.583 72.069C307.267 71.799 308.014 71.664 308.824 71.664C310.426 71.664 311.749 72.159 312.793 73.149C313.837 74.121 314.359 75.561 314.359 77.469V79.494H310.147ZM300.13 87V71.988H304.18L304.342 74.688V87H300.13ZM324.495 87.324C322.893 87.324 321.516 87.009 320.364 86.379C319.212 85.749 318.321 84.849 317.691 83.679C317.079 82.509 316.773 81.114 316.773 79.494C316.773 77.856 317.079 76.461 317.691 75.309C318.321 74.139 319.212 73.239 320.364 72.609C321.516 71.979 322.893 71.664 324.495 71.664C326.907 71.664 328.788 72.357 330.138 73.743C331.506 75.129 332.19 77.046 332.19 79.494C332.19 81.114 331.884 82.509 331.272 83.679C330.66 84.849 329.778 85.749 328.626 86.379C327.474 87.009 326.097 87.324 324.495 87.324ZM324.495 83.922C325.575 83.922 326.421 83.526 327.033 82.734C327.663 81.942 327.978 80.862 327.978 79.494C327.978 78.108 327.663 77.028 327.033 76.254C326.421 75.462 325.575 75.066 324.495 75.066C323.397 75.066 322.533 75.462 321.903 76.254C321.291 77.028 320.985 78.108 320.985 79.494C320.985 80.862 321.291 81.942 321.903 82.734C322.533 83.526 323.397 83.922 324.495 83.922ZM343.297 71.664C344.611 71.664 345.763 72.015 346.753 72.717C347.761 73.401 348.553 74.337 349.129 75.525C349.705 76.713 349.993 78.036 349.993 79.494C349.993 80.934 349.705 82.248 349.129 83.436C348.553 84.624 347.761 85.569 346.753 86.271C345.763 86.973 344.611 87.324 343.297 87.324C342.433 87.324 341.632 87.171 340.894 86.865C340.156 86.541 339.526 86.109 339.004 85.569V91.806H334.792V71.988H338.869L338.95 73.446C339.472 72.888 340.102 72.456 340.84 72.15C341.596 71.826 342.415 71.664 343.297 71.664ZM342.217 83.868C342.919 83.868 343.531 83.67 344.053 83.274C344.593 82.878 345.016 82.356 345.322 81.708C345.628 81.042 345.781 80.304 345.781 79.494C345.781 78.666 345.628 77.928 345.322 77.28C345.016 76.614 344.593 76.092 344.053 75.714C343.531 75.318 342.919 75.12 342.217 75.12C341.479 75.12 340.822 75.345 340.246 75.795C339.67 76.245 339.256 76.848 339.004 77.604V81.357C339.256 82.113 339.67 82.725 340.246 83.193C340.822 83.643 341.479 83.868 342.217 83.868ZM359.751 87.324C358.131 87.324 356.736 87.009 355.566 86.379C354.414 85.749 353.523 84.849 352.893 83.679C352.263 82.509 351.948 81.114 351.948 79.494C351.948 77.856 352.263 76.452 352.893 75.282C353.523 74.112 354.432 73.221 355.62 72.609C356.826 71.979 358.275 71.664 359.967 71.664C362.613 71.664 364.53 72.42 365.718 73.932C366.924 75.426 367.428 77.487 367.23 80.115H355.296L355.323 77.226H362.937C362.883 76.542 362.577 75.993 362.019 75.579C361.461 75.147 360.768 74.931 359.94 74.931C358.644 74.931 357.69 75.336 357.078 76.146C356.466 76.956 356.16 78.135 356.16 79.683C356.16 80.457 356.295 81.168 356.565 81.816C356.835 82.464 357.231 82.986 357.753 83.382C358.293 83.76 358.959 83.949 359.751 83.949C360.597 83.949 361.308 83.742 361.884 83.328C362.478 82.914 362.838 82.392 362.964 81.762H367.176C366.996 83.472 366.24 84.831 364.908 85.839C363.594 86.829 361.875 87.324 359.751 87.324ZM377.554 87.324C376.15 87.324 374.917 87.099 373.855 86.649C372.793 86.181 371.965 85.524 371.371 84.678C370.795 83.814 370.498 82.797 370.48 81.627H374.395C374.359 82.455 374.62 83.103 375.178 83.571C375.754 84.039 376.537 84.273 377.527 84.273C378.247 84.273 378.823 84.156 379.255 83.922C379.705 83.67 379.93 83.328 379.93 82.896C379.93 82.518 379.759 82.221 379.417 82.005C379.093 81.771 378.661 81.591 378.121 81.465C377.581 81.321 376.987 81.186 376.339 81.06C375.691 80.916 375.034 80.745 374.368 80.547C373.72 80.349 373.126 80.088 372.586 79.764C372.046 79.422 371.605 78.981 371.263 78.441C370.939 77.883 370.777 77.19 370.777 76.362C370.777 75.408 371.047 74.58 371.587 73.878C372.127 73.176 372.874 72.636 373.828 72.258C374.8 71.862 375.916 71.664 377.176 71.664C379.102 71.664 380.659 72.114 381.847 73.014C383.053 73.896 383.719 75.138 383.845 76.74H379.957C379.921 76.074 379.651 75.57 379.147 75.228C378.643 74.886 377.995 74.715 377.203 74.715C376.537 74.715 376.006 74.832 375.61 75.066C375.214 75.3 375.016 75.651 375.016 76.119C375.016 76.497 375.178 76.794 375.502 77.01C375.844 77.208 376.285 77.37 376.825 77.496C377.365 77.622 377.959 77.739 378.607 77.847C379.273 77.955 379.93 78.108 380.578 78.306C381.226 78.486 381.82 78.738 382.36 79.062C382.9 79.386 383.332 79.818 383.656 80.358C383.998 80.898 384.169 81.591 384.169 82.437C384.169 83.967 383.566 85.164 382.36 86.028C381.172 86.892 379.57 87.324 377.554 87.324ZM412.297 87.324C410.695 87.324 409.318 87.009 408.166 86.379C407.014 85.749 406.123 84.849 405.493 83.679C404.881 82.509 404.575 81.114 404.575 79.494C404.575 77.856 404.881 76.461 405.493 75.309C406.123 74.139 407.014 73.239 408.166 72.609C409.318 71.979 410.695 71.664 412.297 71.664C414.709 71.664 416.59 72.357 417.94 73.743C419.308 75.129 419.992 77.046 419.992 79.494C419.992 81.114 419.686 82.509 419.074 83.679C418.462 84.849 417.58 85.749 416.428 86.379C415.276 87.009 413.899 87.324 412.297 87.324ZM412.297 83.922C413.377 83.922 414.223 83.526 414.835 82.734C415.465 81.942 415.78 80.862 415.78 79.494C415.78 78.108 415.465 77.028 414.835 76.254C414.223 75.462 413.377 75.066 412.297 75.066C411.199 75.066 410.335 75.462 409.705 76.254C409.093 77.028 408.787 78.108 408.787 79.494C408.787 80.862 409.093 81.942 409.705 82.734C410.335 83.526 411.199 83.922 412.297 83.922ZM427.212 87V70.503C427.212 69.441 427.446 68.514 427.914 67.722C428.382 66.912 429.021 66.282 429.831 65.832C430.641 65.364 431.55 65.13 432.558 65.13H437.229V68.532H434.232C433.728 68.532 433.26 68.577 432.828 68.667C432.396 68.757 432.054 68.946 431.802 69.234C431.55 69.504 431.424 69.927 431.424 70.503V87H427.212ZM424.242 75.39V71.988H435.069V75.39H424.242ZM422.919 87V83.598H436.905V87H422.919ZM465.006 87.324C463.35 87.324 461.892 86.937 460.632 86.163C459.39 85.371 458.418 84.246 457.716 82.788C457.032 81.33 456.69 79.593 456.69 77.577C456.69 75.543 457.032 73.797 457.716 72.339C458.418 70.881 459.39 69.765 460.632 68.991C461.892 68.217 463.35 67.83 465.006 67.83C466.662 67.83 468.111 68.217 469.353 68.991C470.595 69.765 471.558 70.881 472.242 72.339C472.944 73.779 473.295 75.525 473.295 77.577C473.295 79.593 472.944 81.33 472.242 82.788C471.558 84.246 470.595 85.371 469.353 86.163C468.111 86.937 466.662 87.324 465.006 87.324ZM465.006 83.679C465.708 83.679 466.338 83.445 466.896 82.977C467.454 82.491 467.895 81.798 468.219 80.898C468.543 79.98 468.705 78.873 468.705 77.577C468.705 76.263 468.543 75.156 468.219 74.256C467.895 73.338 467.454 72.645 466.896 72.177C466.338 71.709 465.708 71.475 465.006 71.475C464.304 71.475 463.665 71.718 463.089 72.204C462.531 72.672 462.09 73.365 461.766 74.283C461.442 75.183 461.28 76.281 461.28 77.577C461.28 78.873 461.442 79.98 461.766 80.898C462.09 81.798 462.531 82.491 463.089 82.977C463.665 83.445 464.304 83.679 465.006 83.679ZM485.078 79.278L490.046 87H485.348L484.538 85.785L482.459 82.356L480.38 85.785L479.57 87H475.007L479.921 79.359L475.196 71.988H479.867L480.434 72.825L482.513 76.281L484.592 72.825L485.159 71.988H489.749L485.078 79.278ZM498.723 77.199L500.073 81.06L501.45 77.199L503.637 71.988H507.93L501.288 87.729C500.838 88.809 500.316 89.664 499.722 90.294C499.146 90.942 498.489 91.41 497.751 91.698C497.013 91.986 496.167 92.13 495.213 92.13H492.432V88.728H494.754C495.258 88.728 495.681 88.611 496.023 88.377C496.383 88.143 496.689 87.828 496.941 87.432C497.211 87.054 497.454 86.622 497.67 86.136L497.94 85.515L492.27 71.988H496.59L498.723 77.199ZM520.955 73.554L521.036 71.988H525.086V85.002C525.086 87.324 524.456 89.088 523.196 90.294C521.954 91.518 520.001 92.13 517.337 92.13C515.915 92.13 514.682 91.95 513.638 91.59C512.612 91.248 511.811 90.717 511.235 89.997C510.677 89.295 510.389 88.404 510.371 87.324H514.799C514.889 87.828 515.15 88.188 515.582 88.404C516.032 88.62 516.707 88.728 517.607 88.728C518.723 88.728 519.542 88.431 520.064 87.837C520.604 87.261 520.874 86.46 520.874 85.434V84.543C520.37 85.137 519.758 85.596 519.038 85.92C518.336 86.244 517.562 86.406 516.716 86.406C515.456 86.406 514.34 86.082 513.368 85.434C512.396 84.768 511.631 83.877 511.073 82.761C510.515 81.645 510.236 80.421 510.236 79.089C510.236 77.541 510.533 76.218 511.127 75.12C511.721 74.004 512.531 73.158 513.557 72.582C514.583 71.988 515.726 71.691 516.986 71.691C517.796 71.691 518.543 71.862 519.227 72.204C519.911 72.546 520.487 72.996 520.955 73.554ZM517.796 83.166C518.516 83.166 519.146 82.923 519.686 82.437C520.244 81.951 520.64 81.321 520.874 80.547V77.523C520.64 76.731 520.244 76.101 519.686 75.633C519.146 75.165 518.516 74.931 517.796 74.931C517.148 74.931 516.572 75.12 516.068 75.498C515.564 75.858 515.168 76.344 514.88 76.956C514.592 77.568 514.448 78.252 514.448 79.008C514.448 79.764 514.592 80.457 514.88 81.087C515.168 81.717 515.564 82.221 516.068 82.599C516.572 82.977 517.148 83.166 517.796 83.166ZM535.356 87.324C533.736 87.324 532.341 87.009 531.171 86.379C530.019 85.749 529.128 84.849 528.498 83.679C527.868 82.509 527.553 81.114 527.553 79.494C527.553 77.856 527.868 76.452 528.498 75.282C529.128 74.112 530.037 73.221 531.225 72.609C532.431 71.979 533.88 71.664 535.572 71.664C538.218 71.664 540.135 72.42 541.323 73.932C542.529 75.426 543.033 77.487 542.835 80.115H530.901L530.928 77.226H538.542C538.488 76.542 538.182 75.993 537.624 75.579C537.066 75.147 536.373 74.931 535.545 74.931C534.249 74.931 533.295 75.336 532.683 76.146C532.071 76.956 531.765 78.135 531.765 79.683C531.765 80.457 531.9 81.168 532.17 81.816C532.44 82.464 532.836 82.986 533.358 83.382C533.898 83.76 534.564 83.949 535.356 83.949C536.202 83.949 536.913 83.742 537.489 83.328C538.083 82.914 538.443 82.392 538.569 81.762H542.781C542.601 83.472 541.845 84.831 540.513 85.839C539.199 86.829 537.48 87.324 535.356 87.324ZM555.725 87V77.739C555.725 76.965 555.527 76.344 555.131 75.876C554.735 75.408 554.213 75.174 553.565 75.174C552.827 75.174 552.143 75.426 551.513 75.93C550.901 76.416 550.253 77.262 549.569 78.468L548.975 74.904C549.659 73.734 550.487 72.906 551.459 72.42C552.431 71.916 553.421 71.664 554.429 71.664C555.581 71.664 556.562 71.907 557.372 72.393C558.2 72.879 558.83 73.554 559.262 74.418C559.712 75.282 559.937 76.299 559.937 77.469V87H555.725ZM545.708 87V71.988H549.785L549.92 74.661V87H545.708Z" fill="black"/>
<defs>
<radialGradient id="paint0_radial_805_262" cx="0" cy="0" r="1" gradientUnits="userSpaceOnUse" gradientTransform="translate(590.5 169) rotate(136.081) scale(74.9667)">
<stop stop-color="#F1775F"/>
<stop offset="1" stop-color="#BD2915"/>
</radialGradient>
<radialGradient id="paint1_radial_805_262" cx="0" cy="0" r="1" gradientUnits="userSpaceOnUse" gradientTransform="translate(471.5 169) rotate(136.081) scale(74.9667)">
<stop stop-color="#F1775F"/>
<stop offset="1" stop-color="#BD2915"/>
</radialGradient>
<radialGradient id="paint2_radial_805_262" cx="0" cy="0" r="1" gradientUnits="userSpaceOnUse" gradientTransform="translate(179 194) rotate(90) scale(75)">
<stop stop-color="#BD5B15"/>
<stop offset="1" stop-color="#F19C5F" stop-opacity="0"/>
</radialGradient>
<radialGradient id="paint3_radial_805_262" cx="0" cy="0" r="1" gradientUnits="userSpaceOnUse" gradientTransform="translate(298 194) rotate(90) scale(75)">
<stop stop-color="#0077CC"/>
<stop offset="1" stop-color="#5FB4F1" stop-opacity="0"/>
</radialGradient>
<radialGradient id="paint4_radial_805_262" cx="0" cy="0" r="1" gradientUnits="userSpaceOnUse" gradientTransform="translate(196.5 177) rotate(136.081) scale(74.9667)">
<stop stop-color="#F1775F"/>
<stop offset="1" stop-color="#BD2915"/>
</radialGradient>
<radialGradient id="paint5_radial_805_262" cx="0" cy="0" r="1" gradientUnits="userSpaceOnUse" gradientTransform="translate(315.5 177) rotate(136.081) scale(74.9667)">
<stop stop-color="#F1775F"/>
<stop offset="1" stop-color="#BD2915"/>
</radialGradient>
<radialGradient id="paint6_radial_805_262" cx="0" cy="0" r="1" gradientUnits="userSpaceOnUse" gradientTransform="translate(77.5 177) rotate(136.081) scale(74.9667)">
<stop stop-color="#F1775F"/>
<stop offset="1" stop-color="#BD2915"/>
</radialGradient>
<clipPath id="clip0_805_262">
<rect width="60" height="60" fill="white" transform="translate(615 10)"/>
</clipPath>
</defs>
</svg>
