<svg width="900" height="601" viewBox="0 0 900 601" fill="none" xmlns="http://www.w3.org/2000/svg">
<rect x="5" y="5" width="890" height="591" fill="white" stroke="white" stroke-width="10"/>
<g clip-path="url(#clip0_860_28)">
<path d="M890 10H775V125H890V10Z" fill="#0077CC"/>
<path d="M838.764 26.1C841.94 26.1 844.514 28.6744 844.514 31.85V64.6867L864.967 100.592C867.15 104.425 864.382 109.187 859.971 109.187H806.058C801.646 109.187 798.878 104.425 801.061 100.592L821.514 64.6867V31.85C821.514 28.6744 824.089 26.1001 827.264 26.1H838.764Z" fill="#0077CC"/>
<path d="M844.514 64.6867H841.639V65.4481L842.016 66.1097L844.514 64.6867ZM821.514 64.6867L824.012 66.1097L824.389 65.4481V64.6867H821.514ZM838.764 26.1V28.975C840.352 28.975 841.639 30.2622 841.639 31.85H844.514H847.389C847.389 27.0866 843.528 23.225 838.764 23.225V26.1ZM844.514 31.85H841.639V64.6867H844.514H847.389V31.85H844.514ZM844.514 64.6867L842.016 66.1097L862.469 102.015L864.967 100.592L867.465 99.1688L847.012 63.2637L844.514 64.6867ZM864.967 100.592L862.469 102.015C863.56 103.931 862.176 106.312 859.971 106.312V109.187V112.062C866.588 112.062 870.74 104.919 867.465 99.1688L864.967 100.592ZM859.971 109.187V106.312H806.058V109.187L806.057 112.062H859.971V109.187ZM806.058 109.187V106.312C803.852 106.312 802.468 103.931 803.559 102.014L801.061 100.592L798.563 99.1687C795.288 104.918 799.441 112.062 806.057 112.062L806.058 109.187ZM801.061 100.592L803.559 102.014L824.012 66.1097L821.514 64.6867L819.016 63.2637L798.563 99.1687L801.061 100.592ZM821.514 64.6867H824.389V31.85H821.514H818.639V64.6867H821.514ZM821.514 31.85H824.389C824.389 30.2623 825.676 28.975 827.264 28.975L827.264 26.1V23.225C822.501 23.2251 818.639 27.0864 818.639 31.85H821.514ZM827.264 26.1L827.264 28.975H838.764V26.1V23.225H827.264V26.1Z" fill="white"/>
<path d="M841.932 66.9255C842.123 66.9255 842.312 66.9373 842.5 66.9559L862.471 102.015C863.562 103.932 862.177 106.313 859.972 106.313H806.059C803.854 106.313 802.469 103.932 803.561 102.015L823.549 66.9255H841.932Z" fill="white"/>
<mask id="mask0_860_28" style="mask-type:luminance" maskUnits="userSpaceOnUse" x="803" y="66" width="60" height="41">
<path d="M841.932 66.9255C842.123 66.9255 842.312 66.9373 842.5 66.9559L862.471 102.015C863.562 103.932 862.177 106.313 859.972 106.313H806.059C803.854 106.313 802.469 103.932 803.561 102.015L823.549 66.9255H841.932Z" fill="white"/>
</mask>
<g mask="url(#mask0_860_28)">
<path d="M842.5 66.9559L845.497 65.2483L844.614 63.6982L842.839 63.5226L842.5 66.9559ZM823.549 66.9256V63.4756H821.544L820.552 65.2179L823.549 66.9256ZM841.932 66.9256V70.3756C841.982 70.3756 842.055 70.3787 842.16 70.3892L842.5 66.9559L842.839 63.5226C842.57 63.4961 842.264 63.4756 841.932 63.4756V66.9256ZM842.5 66.9559L839.502 68.6636L859.473 103.723L862.471 102.015L865.469 100.308L845.497 65.2483L842.5 66.9559ZM862.471 102.015L859.473 103.723C859.254 103.339 859.531 102.863 859.972 102.863L859.972 106.313V109.763C864.823 109.763 867.87 104.525 865.469 100.308L862.471 102.015ZM859.972 106.313L859.972 102.863H806.059V106.313L806.059 109.763H859.972V106.313ZM806.059 106.313V102.863C806.5 102.863 806.778 103.339 806.559 103.723L803.561 102.015L800.564 100.308C798.162 104.524 801.207 109.762 806.059 109.763L806.059 106.313ZM803.561 102.015L806.559 103.723L826.547 68.6332L823.549 66.9256L820.552 65.2179L800.564 100.308L803.561 102.015ZM823.549 66.9256V70.3756H841.932V66.9256V63.4756H823.549V66.9256Z" fill="#0077CC"/>
</g>
</g>
<path d="M353.075 45V23.8875H345.425V18.825H366.913V23.8875H359.263V45H353.075ZM384.665 45V32.175C384.665 31.075 384.39 30.2 383.84 29.55C383.29 28.9 382.565 28.575 381.665 28.575C380.64 28.575 379.69 28.925 378.815 29.625C377.965 30.3 377.065 31.475 376.115 33.15L375.29 28.2375C376.24 26.5875 377.39 25.425 378.74 24.75C380.09 24.05 381.465 23.7 382.865 23.7C384.465 23.7 385.827 24.0375 386.952 24.7125C388.102 25.3875 388.977 26.3375 389.577 27.5625C390.202 28.7625 390.515 30.175 390.515 31.8V45H384.665ZM370.752 45V17.2125H376.602V45H370.752ZM405.154 45.45C402.904 45.45 400.967 45.0125 399.342 44.1375C397.742 43.2625 396.504 42.0125 395.629 40.3875C394.754 38.7625 394.317 36.825 394.317 34.575C394.317 32.3 394.754 30.35 395.629 28.725C396.504 27.1 397.767 25.8625 399.417 25.0125C401.092 24.1375 403.104 23.7 405.454 23.7C409.129 23.7 411.792 24.75 413.442 26.85C415.117 28.925 415.817 31.7875 415.542 35.4375H398.967L399.004 31.425H409.579C409.504 30.475 409.079 29.7125 408.304 29.1375C407.529 28.5375 406.567 28.2375 405.417 28.2375C403.617 28.2375 402.292 28.8 401.442 29.925C400.592 31.05 400.167 32.6875 400.167 34.8375C400.167 35.9125 400.354 36.9 400.729 37.8C401.104 38.7 401.654 39.425 402.379 39.975C403.129 40.5 404.054 40.7625 405.154 40.7625C406.329 40.7625 407.317 40.475 408.117 39.9C408.942 39.325 409.442 38.6 409.617 37.725H415.467C415.217 40.1 414.167 41.9875 412.317 43.3875C410.492 44.7625 408.104 45.45 405.154 45.45ZM453.896 45.45C451.746 45.45 449.896 45.05 448.346 44.25C446.821 43.425 445.646 42.275 444.821 40.8C444.021 39.3 443.621 37.5375 443.621 35.5125H449.696C449.696 37.0875 450.034 38.3 450.709 39.15C451.409 39.975 452.471 40.3875 453.896 40.3875C455.021 40.3875 455.909 40.15 456.559 39.675C457.234 39.175 457.571 38.475 457.571 37.575C457.571 36.9 457.321 36.375 456.821 36C456.346 35.6 455.696 35.275 454.871 35.025C454.071 34.75 453.184 34.5 452.209 34.275C451.259 34.025 450.296 33.725 449.321 33.375C448.371 33.025 447.484 32.5625 446.659 31.9875C445.859 31.4125 445.209 30.6625 444.709 29.7375C444.234 28.8125 443.996 27.6375 443.996 26.2125C443.996 24.7375 444.396 23.4125 445.196 22.2375C446.021 21.0625 447.159 20.125 448.609 19.425C450.059 18.725 451.759 18.375 453.709 18.375C455.484 18.375 457.134 18.725 458.659 19.425C460.184 20.1 461.421 21.0875 462.371 22.3875C463.321 23.6875 463.821 25.2875 463.871 27.1875H457.684C457.634 26.3375 457.409 25.6375 457.009 25.0875C456.634 24.5375 456.146 24.125 455.546 23.85C454.971 23.575 454.359 23.4375 453.709 23.4375C452.784 23.4375 451.996 23.6625 451.346 24.1125C450.696 24.5375 450.371 25.175 450.371 26.025C450.371 26.675 450.609 27.1875 451.084 27.5625C451.584 27.9375 452.234 28.25 453.034 28.5C453.859 28.725 454.746 28.95 455.696 29.175C456.671 29.4 457.634 29.6875 458.584 30.0375C459.559 30.3625 460.446 30.825 461.246 31.425C462.071 32.025 462.721 32.825 463.196 33.825C463.696 34.8 463.946 36.05 463.946 37.575C463.946 39.1 463.509 40.4625 462.634 41.6625C461.784 42.8375 460.596 43.7625 459.071 44.4375C457.571 45.1125 455.846 45.45 453.896 45.45ZM478.436 45.45C476.236 45.45 474.336 45.0125 472.736 44.1375C471.161 43.2625 469.948 42.0125 469.098 40.3875C468.273 38.7625 467.861 36.825 467.861 34.575C467.861 32.275 468.298 30.3125 469.173 28.6875C470.073 27.0625 471.323 25.825 472.923 24.975C474.523 24.125 476.411 23.7 478.586 23.7C480.486 23.7 482.161 24.0375 483.611 24.7125C485.086 25.3875 486.248 26.3375 487.098 27.5625C487.973 28.7625 488.448 30.2 488.523 31.875H482.673C482.473 30.725 482.023 29.875 481.323 29.325C480.648 28.75 479.736 28.4625 478.586 28.4625C477.636 28.4625 476.786 28.7 476.036 29.175C475.311 29.65 474.736 30.3375 474.311 31.2375C473.911 32.1375 473.711 33.25 473.711 34.575C473.711 36.55 474.161 38.075 475.061 39.15C475.986 40.225 477.111 40.7625 478.436 40.7625C479.211 40.7625 479.886 40.625 480.461 40.35C481.061 40.075 481.561 39.6875 481.961 39.1875C482.361 38.6625 482.636 38.075 482.786 37.425H488.636C488.486 39.05 487.961 40.4625 487.061 41.6625C486.161 42.8625 484.973 43.8 483.498 44.475C482.023 45.125 480.336 45.45 478.436 45.45ZM499.6 45V24.15H505.45V45H499.6ZM492.85 45V40.275H512.275V45H492.85ZM495.475 28.875V24.15H502.525V28.875H495.475ZM499.375 21.375V15.9H505.6V21.375H499.375ZM527.103 45.45C524.853 45.45 522.915 45.0125 521.29 44.1375C519.69 43.2625 518.453 42.0125 517.578 40.3875C516.703 38.7625 516.265 36.825 516.265 34.575C516.265 32.3 516.703 30.35 517.578 28.725C518.453 27.1 519.715 25.8625 521.365 25.0125C523.04 24.1375 525.053 23.7 527.403 23.7C531.078 23.7 533.74 24.75 535.39 26.85C537.065 28.925 537.765 31.7875 537.49 35.4375H520.915L520.953 31.425H531.528C531.453 30.475 531.028 29.7125 530.253 29.1375C529.478 28.5375 528.515 28.2375 527.365 28.2375C525.565 28.2375 524.24 28.8 523.39 29.925C522.54 31.05 522.115 32.6875 522.115 34.8375C522.115 35.9125 522.303 36.9 522.678 37.8C523.053 38.7 523.603 39.425 524.328 39.975C525.078 40.5 526.003 40.7625 527.103 40.7625C528.278 40.7625 529.265 40.475 530.065 39.9C530.89 39.325 531.39 38.6 531.565 37.725H537.415C537.165 40.1 536.115 41.9875 534.265 43.3875C532.44 44.7625 530.053 45.45 527.103 45.45ZM555.392 45V32.1375C555.392 31.0625 555.117 30.2 554.567 29.55C554.017 28.9 553.292 28.575 552.392 28.575C551.367 28.575 550.417 28.925 549.542 29.625C548.692 30.3 547.792 31.475 546.842 33.15L546.017 28.2C546.967 26.575 548.117 25.425 549.467 24.75C550.817 24.05 552.192 23.7 553.592 23.7C555.192 23.7 556.555 24.0375 557.68 24.7125C558.83 25.3875 559.705 26.325 560.305 27.525C560.93 28.725 561.242 30.1375 561.242 31.7625V45H555.392ZM541.48 45V24.15H547.142L547.33 27.8625V45H541.48ZM575.994 45.45C573.794 45.45 571.894 45.0125 570.294 44.1375C568.719 43.2625 567.507 42.0125 566.657 40.3875C565.832 38.7625 565.419 36.825 565.419 34.575C565.419 32.275 565.857 30.3125 566.732 28.6875C567.632 27.0625 568.882 25.825 570.482 24.975C572.082 24.125 573.969 23.7 576.144 23.7C578.044 23.7 579.719 24.0375 581.169 24.7125C582.644 25.3875 583.807 26.3375 584.657 27.5625C585.532 28.7625 586.007 30.2 586.082 31.875H580.232C580.032 30.725 579.582 29.875 578.882 29.325C578.207 28.75 577.294 28.4625 576.144 28.4625C575.194 28.4625 574.344 28.7 573.594 29.175C572.869 29.65 572.294 30.3375 571.869 31.2375C571.469 32.1375 571.269 33.25 571.269 34.575C571.269 36.55 571.719 38.075 572.619 39.15C573.544 40.225 574.669 40.7625 575.994 40.7625C576.769 40.7625 577.444 40.625 578.019 40.35C578.619 40.075 579.119 39.6875 579.519 39.1875C579.919 38.6625 580.194 38.075 580.344 37.425H586.194C586.044 39.05 585.519 40.4625 584.619 41.6625C583.719 42.8625 582.532 43.8 581.057 44.475C579.582 45.125 577.894 45.45 575.994 45.45ZM600.271 45.45C598.021 45.45 596.084 45.0125 594.459 44.1375C592.859 43.2625 591.621 42.0125 590.746 40.3875C589.871 38.7625 589.434 36.825 589.434 34.575C589.434 32.3 589.871 30.35 590.746 28.725C591.621 27.1 592.884 25.8625 594.534 25.0125C596.209 24.1375 598.221 23.7 600.571 23.7C604.246 23.7 606.909 24.75 608.559 26.85C610.234 28.925 610.934 31.7875 610.659 35.4375H594.084L594.121 31.425H604.696C604.621 30.475 604.196 29.7125 603.421 29.1375C602.646 28.5375 601.684 28.2375 600.534 28.2375C598.734 28.2375 597.409 28.8 596.559 29.925C595.709 31.05 595.284 32.6875 595.284 34.8375C595.284 35.9125 595.471 36.9 595.846 37.8C596.221 38.7 596.771 39.425 597.496 39.975C598.246 40.5 599.171 40.7625 600.271 40.7625C601.446 40.7625 602.434 40.475 603.234 39.9C604.059 39.325 604.559 38.6 604.734 37.725H610.584C610.334 40.1 609.284 41.9875 607.434 43.3875C605.609 44.7625 603.221 45.45 600.271 45.45ZM643.351 36.7875V31.725H649.313C650.513 31.725 651.476 31.3625 652.201 30.6375C652.926 29.8875 653.288 28.9125 653.288 27.7125C653.288 26.5625 652.926 25.6375 652.201 24.9375C651.476 24.2375 650.513 23.8875 649.313 23.8875H643.351V18.825H649.351C651.426 18.825 653.238 19.1875 654.788 19.9125C656.338 20.6375 657.538 21.675 658.388 23.025C659.238 24.35 659.663 25.9125 659.663 27.7125C659.663 29.5375 659.238 31.1375 658.388 32.5125C657.538 33.8625 656.338 34.9125 654.788 35.6625C653.263 36.4125 651.451 36.7875 649.351 36.7875H643.351ZM638.926 45V18.825H645.113V45H638.926ZM677.715 34.575V31.7625C677.715 30.8125 677.465 30.05 676.965 29.475C676.465 28.875 675.715 28.575 674.715 28.575C673.59 28.575 672.528 28.95 671.528 29.7C670.528 30.45 669.578 31.75 668.678 33.6L668.078 28.6875C668.728 27.5875 669.44 26.675 670.215 25.95C670.99 25.2 671.84 24.6375 672.765 24.2625C673.715 23.8875 674.753 23.7 675.878 23.7C678.103 23.7 679.94 24.3875 681.39 25.7625C682.84 27.1125 683.565 29.1125 683.565 31.7625V34.575H677.715ZM663.803 45V24.15H669.428L669.653 27.9V45H663.803ZM697.83 45.45C695.58 45.45 693.643 45.0125 692.018 44.1375C690.418 43.2625 689.18 42.0125 688.305 40.3875C687.43 38.7625 686.993 36.825 686.993 34.575C686.993 32.3 687.43 30.35 688.305 28.725C689.18 27.1 690.443 25.8625 692.093 25.0125C693.768 24.1375 695.78 23.7 698.13 23.7C701.805 23.7 704.468 24.75 706.118 26.85C707.793 28.925 708.493 31.7875 708.218 35.4375H691.643L691.68 31.425H702.255C702.18 30.475 701.755 29.7125 700.98 29.1375C700.205 28.5375 699.243 28.2375 698.093 28.2375C696.293 28.2375 694.968 28.8 694.118 29.925C693.268 31.05 692.843 32.6875 692.843 34.8375C692.843 35.9125 693.03 36.9 693.405 37.8C693.78 38.7 694.33 39.425 695.055 39.975C695.805 40.5 696.73 40.7625 697.83 40.7625C699.005 40.7625 699.993 40.475 700.793 39.9C701.618 39.325 702.118 38.6 702.293 37.725H708.143C707.893 40.1 706.843 41.9875 704.993 43.3875C703.168 44.7625 700.78 45.45 697.83 45.45ZM722.557 45.45C720.607 45.45 718.895 45.1375 717.42 44.5125C715.945 43.8625 714.795 42.95 713.97 41.775C713.17 40.575 712.757 39.1625 712.732 37.5375H718.17C718.12 38.6875 718.482 39.5875 719.257 40.2375C720.057 40.8875 721.145 41.2125 722.52 41.2125C723.52 41.2125 724.32 41.05 724.92 40.725C725.545 40.375 725.857 39.9 725.857 39.3C725.857 38.775 725.62 38.3625 725.145 38.0625C724.695 37.7375 724.095 37.4875 723.345 37.3125C722.595 37.1125 721.77 36.925 720.87 36.75C719.97 36.55 719.057 36.3125 718.132 36.0375C717.232 35.7625 716.407 35.4 715.657 34.95C714.907 34.475 714.295 33.8625 713.82 33.1125C713.37 32.3375 713.145 31.375 713.145 30.225C713.145 28.9 713.52 27.75 714.27 26.775C715.02 25.8 716.057 25.05 717.382 24.525C718.732 23.975 720.282 23.7 722.032 23.7C724.707 23.7 726.87 24.325 728.52 25.575C730.195 26.8 731.12 28.525 731.295 30.75H725.895C725.845 29.825 725.47 29.125 724.77 28.65C724.07 28.175 723.17 27.9375 722.07 27.9375C721.145 27.9375 720.407 28.1 719.857 28.425C719.307 28.75 719.032 29.2375 719.032 29.8875C719.032 30.4125 719.257 30.825 719.707 31.125C720.182 31.4 720.795 31.625 721.545 31.8C722.295 31.975 723.12 32.1375 724.02 32.2875C724.945 32.4375 725.857 32.65 726.757 32.925C727.657 33.175 728.482 33.525 729.232 33.975C729.982 34.425 730.582 35.025 731.032 35.775C731.507 36.525 731.745 37.4875 731.745 38.6625C731.745 40.7875 730.907 42.45 729.232 43.65C727.582 44.85 725.357 45.45 722.557 45.45ZM746.947 45.45C744.997 45.45 743.284 45.1375 741.809 44.5125C740.334 43.8625 739.184 42.95 738.359 41.775C737.559 40.575 737.147 39.1625 737.122 37.5375H742.559C742.509 38.6875 742.872 39.5875 743.647 40.2375C744.447 40.8875 745.534 41.2125 746.909 41.2125C747.909 41.2125 748.709 41.05 749.309 40.725C749.934 40.375 750.247 39.9 750.247 39.3C750.247 38.775 750.009 38.3625 749.534 38.0625C749.084 37.7375 748.484 37.4875 747.734 37.3125C746.984 37.1125 746.159 36.925 745.259 36.75C744.359 36.55 743.447 36.3125 742.522 36.0375C741.622 35.7625 740.797 35.4 740.047 34.95C739.297 34.475 738.684 33.8625 738.209 33.1125C737.759 32.3375 737.534 31.375 737.534 30.225C737.534 28.9 737.909 27.75 738.659 26.775C739.409 25.8 740.447 25.05 741.772 24.525C743.122 23.975 744.672 23.7 746.422 23.7C749.097 23.7 751.259 24.325 752.909 25.575C754.584 26.8 755.509 28.525 755.684 30.75H750.284C750.234 29.825 749.859 29.125 749.159 28.65C748.459 28.175 747.559 27.9375 746.459 27.9375C745.534 27.9375 744.797 28.1 744.247 28.425C743.697 28.75 743.422 29.2375 743.422 29.8875C743.422 30.4125 743.647 30.825 744.097 31.125C744.572 31.4 745.184 31.625 745.934 31.8C746.684 31.975 747.509 32.1375 748.409 32.2875C749.334 32.4375 750.247 32.65 751.147 32.925C752.047 33.175 752.872 33.525 753.622 33.975C754.372 34.425 754.972 35.025 755.422 35.775C755.897 36.525 756.134 37.4875 756.134 38.6625C756.134 40.7875 755.297 42.45 753.622 43.65C751.972 44.85 749.747 45.45 746.947 45.45Z" fill="#0077CC"/>
<circle cx="277" cy="391" r="125" fill="url(#paint0_radial_860_28)"/>
<circle cx="277" cy="391" r="200" stroke="#1F3647" stroke-width="10"/>
<circle cx="633" cy="391" r="125" fill="url(#paint1_radial_860_28)"/>
<circle cx="633" cy="391" r="200" stroke="#1F3647" stroke-width="10"/>
<circle cx="452" cy="302" r="50" fill="url(#paint2_radial_860_28)"/>
<circle cx="452" cy="482" r="50" fill="url(#paint3_radial_860_28)"/>
<path d="M288.3 426V356.2H304.8V426H288.3ZM248.3 426V356.2H264.8V426H248.3ZM263.1 396.7V383.2H289.9V396.7H263.1Z" fill="black"/>
<path d="M644.3 426V356.2H660.8V426H644.3ZM604.3 426V356.2H620.8V426H604.3ZM619.1 396.7V383.2H645.9V396.7H619.1Z" fill="black"/>
<path d="M12.55 115V80.1H23.05L32.8 104.8L32.25 92.1V80.1H40V115H29.5L19.65 90.75L20.3 103V115H12.55ZM58.7695 115.6C55.8029 115.6 53.2529 115.017 51.1195 113.85C48.9862 112.683 47.3362 111.017 46.1695 108.85C45.0362 106.683 44.4695 104.1 44.4695 101.1C44.4695 98.0667 45.0362 95.4833 46.1695 93.35C47.3362 91.1833 48.9862 89.5167 51.1195 88.35C53.2529 87.1833 55.8029 86.6 58.7695 86.6C63.2362 86.6 66.7195 87.8833 69.2195 90.45C71.7529 93.0167 73.0195 96.5667 73.0195 101.1C73.0195 104.1 72.4529 106.683 71.3195 108.85C70.1862 111.017 68.5529 112.683 66.4195 113.85C64.2862 115.017 61.7362 115.6 58.7695 115.6ZM58.7695 109.3C60.7695 109.3 62.3362 108.567 63.4695 107.1C64.6362 105.633 65.2195 103.633 65.2195 101.1C65.2195 98.5333 64.6362 96.5333 63.4695 95.1C62.3362 93.6333 60.7695 92.9 58.7695 92.9C56.7362 92.9 55.1362 93.6333 53.9695 95.1C52.8362 96.5333 52.2695 98.5333 52.2695 101.1C52.2695 103.633 52.8362 105.633 53.9695 107.1C55.1362 108.567 56.7362 109.3 58.7695 109.3ZM96.7391 115V97.85C96.7391 96.4167 96.3724 95.2667 95.6391 94.4C94.9057 93.5333 93.9391 93.1 92.7391 93.1C91.3724 93.1 90.1057 93.5667 88.9391 94.5C87.8057 95.4 86.6057 96.9667 85.3391 99.2L84.2391 92.6C85.5057 90.4333 87.0391 88.9 88.8391 88C90.6391 87.0667 92.4724 86.6 94.3391 86.6C96.4724 86.6 98.2891 87.05 99.7891 87.95C101.322 88.85 102.489 90.1 103.289 91.7C104.122 93.3 104.539 95.1833 104.539 97.35V115H96.7391ZM78.1891 115V87.2H85.7391L85.9891 92.15V115H78.1891ZM115.409 103V96.25H132.159V103H115.409ZM148.978 104.05V97.3H156.928C158.528 97.3 159.811 96.8167 160.778 95.85C161.745 94.85 162.228 93.55 162.228 91.95C162.228 90.4167 161.745 89.1833 160.778 88.25C159.811 87.3167 158.528 86.85 156.928 86.85H148.978V80.1H156.978C159.745 80.1 162.161 80.5833 164.228 81.55C166.295 82.5167 167.895 83.9 169.028 85.7C170.161 87.4667 170.728 89.55 170.728 91.95C170.728 94.3833 170.161 96.5167 169.028 98.35C167.895 100.15 166.295 101.55 164.228 102.55C162.195 103.55 159.778 104.05 156.978 104.05H148.978ZM143.078 115V80.1H151.328V115H143.078ZM188.848 115.6C185.881 115.6 183.331 115.017 181.198 113.85C179.064 112.683 177.414 111.017 176.248 108.85C175.114 106.683 174.548 104.1 174.548 101.1C174.548 98.0667 175.114 95.4833 176.248 93.35C177.414 91.1833 179.064 89.5167 181.198 88.35C183.331 87.1833 185.881 86.6 188.848 86.6C193.314 86.6 196.798 87.8833 199.298 90.45C201.831 93.0167 203.098 96.5667 203.098 101.1C203.098 104.1 202.531 106.683 201.398 108.85C200.264 111.017 198.631 112.683 196.498 113.85C194.364 115.017 191.814 115.6 188.848 115.6ZM188.848 109.3C190.848 109.3 192.414 108.567 193.548 107.1C194.714 105.633 195.298 103.633 195.298 101.1C195.298 98.5333 194.714 96.5333 193.548 95.1C192.414 93.6333 190.848 92.9 188.848 92.9C186.814 92.9 185.214 93.6333 184.048 95.1C182.914 96.5333 182.348 98.5333 182.348 101.1C182.348 103.633 182.914 105.633 184.048 107.1C185.214 108.567 186.814 109.3 188.848 109.3ZM217.467 115V78H225.267V115H217.467ZM208.467 115V108.7H234.367V115H208.467ZM211.967 84.3V78H221.367V84.3H211.967ZM259.287 115L259.037 110V96.3C259.037 95 258.553 93.9833 257.587 93.25C256.62 92.4833 255.287 92.1 253.587 92.1C251.953 92.1 250.62 92.45 249.587 93.15C248.587 93.8167 248.003 94.7667 247.837 96H240.287C240.453 94.0333 241.12 92.35 242.287 90.95C243.453 89.55 245.02 88.4833 246.987 87.75C248.987 86.9833 251.303 86.6 253.937 86.6C256.537 86.6 258.803 87 260.737 87.8C262.67 88.5667 264.153 89.7167 265.187 91.25C266.253 92.75 266.787 94.6 266.787 96.8V115H259.287ZM250.387 115.6C248.553 115.6 246.937 115.25 245.537 114.55C244.137 113.817 243.053 112.817 242.287 111.55C241.52 110.283 241.137 108.85 241.137 107.25C241.137 104.383 242.237 102.167 244.437 100.6C246.67 99 249.737 98.2 253.637 98.2H259.787V103.6L253.437 103.65C252.003 103.65 250.853 103.917 249.987 104.45C249.153 104.95 248.737 105.717 248.737 106.75C248.737 107.483 249.037 108.117 249.637 108.65C250.27 109.183 251.153 109.45 252.287 109.45C253.853 109.45 255.237 109.067 256.437 108.3C257.67 107.5 258.687 106.417 259.487 105.05L260.337 110.3C259.503 112.133 258.22 113.483 256.487 114.35C254.787 115.183 252.753 115.6 250.387 115.6ZM292.356 101.1V97.35C292.356 96.0833 292.023 95.0667 291.356 94.3C290.69 93.5 289.69 93.1 288.356 93.1C286.856 93.1 285.44 93.6 284.106 94.6C282.773 95.6 281.506 97.3333 280.306 99.8L279.506 93.25C280.373 91.7833 281.323 90.5667 282.356 89.6C283.39 88.6 284.523 87.85 285.756 87.35C287.023 86.85 288.406 86.6 289.906 86.6C292.873 86.6 295.323 87.5167 297.256 89.35C299.19 91.15 300.156 93.8167 300.156 97.35V101.1H292.356ZM273.806 115V87.2H281.306L281.606 92.2V115H273.806ZM351.795 115.6C348.662 115.6 345.945 114.867 343.645 113.4C341.379 111.9 339.612 109.8 338.345 107.1C337.112 104.367 336.495 101.183 336.495 97.55C336.495 93.8833 337.129 90.7 338.395 88C339.662 85.3 341.462 83.2167 343.795 81.75C346.129 80.25 348.895 79.5 352.095 79.5C354.595 79.5 356.895 79.9833 358.995 80.95C361.095 81.9167 362.812 83.3167 364.145 85.15C365.512 86.9833 366.262 89.2167 366.395 91.85H357.395C357.229 90.15 356.695 88.8 355.795 87.8C354.895 86.7667 353.662 86.25 352.095 86.25C350.762 86.25 349.545 86.6833 348.445 87.55C347.379 88.3833 346.529 89.65 345.895 91.35C345.295 93.0167 344.995 95.0833 344.995 97.55C344.995 99.9833 345.295 102.05 345.895 103.75C346.495 105.417 347.295 106.683 348.295 107.55C349.329 108.417 350.495 108.85 351.795 108.85C352.895 108.85 353.845 108.633 354.645 108.2C355.479 107.733 356.145 107.067 356.645 106.2C357.179 105.333 357.495 104.283 357.595 103.05H366.595C366.329 105.617 365.562 107.85 364.295 109.75C363.062 111.617 361.395 113.067 359.295 114.1C357.195 115.1 354.695 115.6 351.795 115.6ZM383.965 115.6C380.998 115.6 378.448 115.017 376.315 113.85C374.182 112.683 372.532 111.017 371.365 108.85C370.232 106.683 369.665 104.1 369.665 101.1C369.665 98.0667 370.232 95.4833 371.365 93.35C372.532 91.1833 374.182 89.5167 376.315 88.35C378.448 87.1833 380.998 86.6 383.965 86.6C388.432 86.6 391.915 87.8833 394.415 90.45C396.948 93.0167 398.215 96.5667 398.215 101.1C398.215 104.1 397.648 106.683 396.515 108.85C395.382 111.017 393.748 112.683 391.615 113.85C389.482 115.017 386.932 115.6 383.965 115.6ZM383.965 109.3C385.965 109.3 387.532 108.567 388.665 107.1C389.832 105.633 390.415 103.633 390.415 101.1C390.415 98.5333 389.832 96.5333 388.665 95.1C387.532 93.6333 385.965 92.9 383.965 92.9C381.932 92.9 380.332 93.6333 379.165 95.1C378.032 96.5333 377.465 98.5333 377.465 101.1C377.465 103.633 378.032 105.633 379.165 107.1C380.332 108.567 381.932 109.3 383.965 109.3ZM411.984 115L402.084 87.2H410.234L414.884 101.3L416.584 108.2L418.384 101.3L422.934 87.2H430.834L420.984 115H411.984ZM454.404 115L454.154 110V96.3C454.154 95 453.671 93.9833 452.704 93.25C451.737 92.4833 450.404 92.1 448.704 92.1C447.071 92.1 445.737 92.45 444.704 93.15C443.704 93.8167 443.121 94.7667 442.954 96H435.404C435.571 94.0333 436.237 92.35 437.404 90.95C438.571 89.55 440.137 88.4833 442.104 87.75C444.104 86.9833 446.421 86.6 449.054 86.6C451.654 86.6 453.921 87 455.854 87.8C457.787 88.5667 459.271 89.7167 460.304 91.25C461.371 92.75 461.904 94.6 461.904 96.8V115H454.404ZM445.504 115.6C443.671 115.6 442.054 115.25 440.654 114.55C439.254 113.817 438.171 112.817 437.404 111.55C436.637 110.283 436.254 108.85 436.254 107.25C436.254 104.383 437.354 102.167 439.554 100.6C441.787 99 444.854 98.2 448.754 98.2H454.904V103.6L448.554 103.65C447.121 103.65 445.971 103.917 445.104 104.45C444.271 104.95 443.854 105.717 443.854 106.75C443.854 107.483 444.154 108.117 444.754 108.65C445.387 109.183 446.271 109.45 447.404 109.45C448.971 109.45 450.354 109.067 451.554 108.3C452.787 107.5 453.804 106.417 454.604 105.05L455.454 110.3C454.621 112.133 453.337 113.483 451.604 114.35C449.904 115.183 447.871 115.6 445.504 115.6ZM477.623 115V78H485.423V115H477.623ZM468.623 115V108.7H494.523V115H468.623ZM472.123 84.3V78H481.523V84.3H472.123ZM514.293 115.6C511.293 115.6 508.71 115.017 506.543 113.85C504.41 112.683 502.76 111.017 501.593 108.85C500.426 106.683 499.843 104.1 499.843 101.1C499.843 98.0667 500.426 95.4667 501.593 93.3C502.76 91.1333 504.443 89.4833 506.643 88.35C508.876 87.1833 511.56 86.6 514.693 86.6C519.593 86.6 523.143 88 525.343 90.8C527.576 93.5667 528.51 97.3833 528.143 102.25H506.043L506.093 96.9H520.193C520.093 95.6333 519.526 94.6167 518.493 93.85C517.46 93.05 516.176 92.65 514.643 92.65C512.243 92.65 510.476 93.4 509.343 94.9C508.21 96.4 507.643 98.5833 507.643 101.45C507.643 102.883 507.893 104.2 508.393 105.4C508.893 106.6 509.626 107.567 510.593 108.3C511.593 109 512.826 109.35 514.293 109.35C515.86 109.35 517.176 108.967 518.243 108.2C519.343 107.433 520.01 106.467 520.243 105.3H528.043C527.71 108.467 526.31 110.983 523.843 112.85C521.41 114.683 518.226 115.6 514.293 115.6ZM552.013 115V97.85C552.013 96.4167 551.646 95.2667 550.913 94.4C550.179 93.5333 549.213 93.1 548.013 93.1C546.646 93.1 545.379 93.5667 544.213 94.5C543.079 95.4 541.879 96.9667 540.613 99.2L539.513 92.6C540.779 90.4333 542.313 88.9 544.113 88C545.913 87.0667 547.746 86.6 549.613 86.6C551.746 86.6 553.563 87.05 555.063 87.95C556.596 88.85 557.763 90.1 558.562 91.7C559.396 93.3 559.813 95.1833 559.813 97.35V115H552.013ZM533.463 115V87.2H541.013L541.263 92.15V115H533.463ZM581.332 115C579.465 115 577.815 114.583 576.382 113.75C574.982 112.883 573.899 111.7 573.132 110.2C572.365 108.667 571.982 106.933 571.982 105V82.55L579.782 79.05V105C579.782 105.867 579.899 106.583 580.132 107.15C580.399 107.683 580.865 108.083 581.532 108.35C582.232 108.583 583.199 108.7 584.432 108.7H591.482V115H581.332ZM566.482 93.5V87.2H586.532V93.5H566.482ZM652.521 96.75C653.854 97.2167 654.954 97.8333 655.821 98.6C656.688 99.3333 657.338 100.233 657.771 101.3C658.238 102.333 658.471 103.517 658.471 104.85C658.471 106.917 657.938 108.717 656.871 110.25C655.804 111.783 654.304 112.967 652.371 113.8C650.438 114.6 648.171 115 645.571 115H631.071V80.1H645.071C649.104 80.1 652.204 80.95 654.371 82.65C656.571 84.3167 657.671 86.4833 657.671 89.15C657.671 90.3833 657.454 91.4833 657.021 92.45C656.588 93.3833 655.988 94.2167 655.221 94.95C654.454 95.65 653.554 96.25 652.521 96.75ZM644.571 86.85H639.321V94.05H644.571C645.938 94.05 647.038 93.7167 647.871 93.05C648.738 92.35 649.171 91.4667 649.171 90.4C649.171 89.3333 648.738 88.4833 647.871 87.85C647.004 87.1833 645.904 86.85 644.571 86.85ZM639.321 108.25H645.321C646.721 108.25 647.838 107.917 648.671 107.25C649.538 106.583 649.971 105.683 649.971 104.55C649.971 103.383 649.554 102.467 648.721 101.8C647.888 101.133 646.738 100.8 645.271 100.8H639.321V108.25ZM676.641 115.6C673.674 115.6 671.124 115.017 668.991 113.85C666.857 112.683 665.207 111.017 664.041 108.85C662.907 106.683 662.341 104.1 662.341 101.1C662.341 98.0667 662.907 95.4833 664.041 93.35C665.207 91.1833 666.857 89.5167 668.991 88.35C671.124 87.1833 673.674 86.6 676.641 86.6C681.107 86.6 684.591 87.8833 687.091 90.45C689.624 93.0167 690.891 96.5667 690.891 101.1C690.891 104.1 690.324 106.683 689.191 108.85C688.057 111.017 686.424 112.683 684.291 113.85C682.157 115.017 679.607 115.6 676.641 115.6ZM676.641 109.3C678.641 109.3 680.207 108.567 681.341 107.1C682.507 105.633 683.091 103.633 683.091 101.1C683.091 98.5333 682.507 96.5333 681.341 95.1C680.207 93.6333 678.641 92.9 676.641 92.9C674.607 92.9 673.007 93.6333 671.841 95.1C670.707 96.5333 670.141 98.5333 670.141 101.1C670.141 103.633 670.707 105.633 671.841 107.1C673.007 108.567 674.607 109.3 676.641 109.3ZM714.61 115V97.85C714.61 96.4167 714.243 95.2667 713.51 94.4C712.777 93.5333 711.81 93.1 710.61 93.1C709.243 93.1 707.977 93.5667 706.81 94.5C705.677 95.4 704.477 96.9667 703.21 99.2L702.11 92.6C703.377 90.4333 704.91 88.9 706.71 88C708.51 87.0667 710.343 86.6 712.21 86.6C714.343 86.6 716.16 87.05 717.66 87.95C719.193 88.85 720.36 90.1 721.16 91.7C721.993 93.3 722.41 95.1833 722.41 97.35V115H714.61ZM696.06 115V87.2H703.61L703.86 92.15V115H696.06ZM739.78 86.6C741.38 86.6 742.88 86.9 744.28 87.5C745.68 88.0667 746.846 88.85 747.78 89.85V78H755.53V115H748.03L747.88 112.2C746.946 113.233 745.78 114.067 744.38 114.7C742.98 115.3 741.446 115.6 739.78 115.6C737.38 115.6 735.246 114.95 733.38 113.65C731.513 112.35 730.046 110.6 728.98 108.4C727.913 106.2 727.38 103.767 727.38 101.1C727.38 98.4 727.913 95.95 728.98 93.75C730.046 91.55 731.513 89.8167 733.38 88.55C735.246 87.25 737.38 86.6 739.78 86.6ZM741.78 109.2C743.18 109.2 744.413 108.767 745.48 107.9C746.546 107 747.313 105.833 747.78 104.4V97.75C747.313 96.2833 746.546 95.1333 745.48 94.3C744.413 93.4333 743.18 93 741.78 93C740.513 93 739.38 93.3667 738.38 94.1C737.38 94.8 736.596 95.7667 736.03 97C735.463 98.2 735.18 99.5667 735.18 101.1C735.18 102.6 735.463 103.967 736.03 105.2C736.596 106.4 737.38 107.367 738.38 108.1C739.38 108.833 740.513 109.2 741.78 109.2Z" fill="black"/>
<defs>
<radialGradient id="paint0_radial_860_28" cx="0" cy="0" r="1" gradientUnits="userSpaceOnUse" gradientTransform="translate(320.75 348.5) rotate(136.081) scale(187.417)">
<stop stop-color="white"/>
<stop offset="1" stop-color="#E0E0E0"/>
</radialGradient>
<radialGradient id="paint1_radial_860_28" cx="0" cy="0" r="1" gradientUnits="userSpaceOnUse" gradientTransform="translate(676.75 348.5) rotate(136.081) scale(187.417)">
<stop stop-color="white"/>
<stop offset="1" stop-color="#E0E0E0"/>
</radialGradient>
<radialGradient id="paint2_radial_860_28" cx="0" cy="0" r="1" gradientUnits="userSpaceOnUse" gradientTransform="translate(469.5 285) rotate(136.081) scale(74.9667)">
<stop stop-color="#5FB4F1"/>
<stop offset="1" stop-color="#0077CC"/>
</radialGradient>
<radialGradient id="paint3_radial_860_28" cx="0" cy="0" r="1" gradientUnits="userSpaceOnUse" gradientTransform="translate(469.5 465) rotate(136.081) scale(74.9667)">
<stop stop-color="#5FB4F1"/>
<stop offset="1" stop-color="#0077CC"/>
</radialGradient>
<clipPath id="clip0_860_28">
<rect width="115" height="115" fill="white" transform="translate(775 10)"/>
</clipPath>
</defs>
</svg>
