<svg width="672" height="487" viewBox="0 0 672 487" fill="none" xmlns="http://www.w3.org/2000/svg">
<rect x="5" y="5" width="662" height="477" fill="white" stroke="white" stroke-width="10"/>
<g clip-path="url(#clip0_824_63)">
<path d="M662 10H582V90H662V10Z" fill="#0077CC"/>
<path d="M626.358 21.2C628.567 21.2 630.358 22.9908 630.358 25.2V48.0429L644.586 73.0203C646.105 75.6868 644.179 79 641.11 79H603.605C600.537 78.9998 598.611 75.6868 600.13 73.0203L614.358 48.0429V25.2C614.358 22.9908 616.149 21.2 618.358 21.2H626.358Z" fill="#0077CC"/>
<path d="M630.358 48.0429H628.358V48.5726L628.62 49.0328L630.358 48.0429ZM614.358 48.0429L616.096 49.0328L616.358 48.5726V48.0429H614.358ZM626.358 21.2V23.2C627.462 23.2 628.358 24.0954 628.358 25.2H630.358H632.358C632.358 21.8863 629.672 19.2 626.358 19.2V21.2ZM630.358 25.2H628.358V48.0429H630.358H632.358V25.2H630.358ZM630.358 48.0429L628.62 49.0328L642.848 74.0102L644.586 73.0203L646.324 72.0304L632.096 47.053L630.358 48.0429ZM644.586 73.0203L642.848 74.0102C643.607 75.3435 642.645 77 641.11 77V79V81C645.713 81 648.602 76.0303 646.324 72.0304L644.586 73.0203ZM641.11 79V77H603.605V79L603.605 81H641.11V79ZM603.605 79V77C602.071 76.9999 601.108 75.3432 601.868 74.01L600.13 73.0203L598.392 72.0304C596.114 76.0302 599.002 80.9997 603.605 81L603.605 79ZM600.13 73.0203L601.868 74.01L616.096 49.0328L614.358 48.0429L612.62 47.053L598.392 72.0304L600.13 73.0203ZM614.358 48.0429H616.358V25.2H614.358H612.358V48.0429H614.358ZM614.358 25.2H616.358C616.358 24.0955 617.253 23.2 618.358 23.2L618.358 21.2V19.2C615.044 19.2 612.358 21.8862 612.358 25.2H614.358ZM618.358 21.2L618.358 23.2H626.358V21.2V19.2H618.358V21.2Z" fill="white"/>
<path d="M628.562 49.6003C628.694 49.6003 628.826 49.6085 628.956 49.6215L642.849 74.0105C643.608 75.3436 642.645 77.0002 641.111 77.0003H603.606C602.072 77.0001 601.109 75.3439 601.869 74.0105L615.773 49.6003H628.562Z" fill="white"/>
<mask id="mask0_824_63" style="mask-type:luminance" maskUnits="userSpaceOnUse" x="601" y="49" width="43" height="29">
<path d="M628.562 49.6003C628.694 49.6003 628.826 49.6085 628.956 49.6215L642.849 74.0105C643.608 75.3436 642.645 77.0002 641.111 77.0003H603.606C602.072 77.0001 601.109 75.3439 601.869 74.0105L615.773 49.6003H628.562Z" fill="white"/>
</mask>
<g mask="url(#mask0_824_63)">
<path d="M628.956 49.6216L631.042 48.4336L630.427 47.3553L629.192 47.2332L628.956 49.6216ZM615.773 49.6004V47.2004H614.378L613.688 48.4125L615.773 49.6004ZM628.562 49.6004V52.0004C628.596 52.0004 628.647 52.0026 628.72 52.0099L628.956 49.6216L629.192 47.2332C629.005 47.2147 628.792 47.2004 628.562 47.2004V49.6004ZM628.956 49.6216L626.871 50.8095L640.764 75.1985L642.849 74.0106L644.935 72.8231L631.042 48.4336L628.956 49.6216ZM642.849 74.0106L640.764 75.1985C640.612 74.9312 640.804 74.6004 641.111 74.6004L641.111 77.0004V79.4004C644.485 79.4 646.605 75.7565 644.935 72.8231L642.849 74.0106ZM641.111 77.0004L641.111 74.6004H603.606V77.0004L603.606 79.4004H641.111V77.0004ZM603.606 77.0004V74.6004C603.913 74.6004 604.106 74.9317 603.954 75.1984L601.869 74.0106L599.783 72.8227C598.112 75.7561 600.231 79.4 603.606 79.4004L603.606 77.0004ZM601.869 74.0106L603.954 75.1984L617.859 50.7884L615.773 49.6004L613.688 48.4125L599.783 72.8227L601.869 74.0106ZM615.773 49.6004V52.0004H628.562V49.6004V47.2004H615.773V49.6004Z" fill="#0077CC"/>
</g>
</g>
<path d="M247.018 37V20.673H241.102V16.758H257.719V20.673H251.803V37H247.018ZM271.447 37V27.082C271.447 26.2313 271.235 25.5547 270.809 25.052C270.384 24.5493 269.823 24.298 269.127 24.298C268.335 24.298 267.6 24.5687 266.923 25.11C266.266 25.632 265.57 26.5407 264.835 27.836L264.197 24.037C264.932 22.761 265.821 21.862 266.865 21.34C267.909 20.7987 268.973 20.528 270.055 20.528C271.293 20.528 272.346 20.789 273.216 21.311C274.106 21.833 274.782 22.5677 275.246 23.515C275.73 24.443 275.971 25.5353 275.971 26.792V37H271.447ZM260.688 37V15.511H265.212V37H260.688ZM287.293 37.348C285.553 37.348 284.054 37.0097 282.798 36.333C281.56 35.6563 280.603 34.6897 279.927 33.433C279.25 32.1763 278.912 30.678 278.912 28.938C278.912 27.1787 279.25 25.6707 279.927 24.414C280.603 23.1573 281.58 22.2003 282.856 21.543C284.151 20.8663 285.707 20.528 287.525 20.528C290.367 20.528 292.426 21.34 293.702 22.964C294.997 24.5687 295.538 26.7823 295.326 29.605H282.508L282.537 26.502H290.715C290.657 25.7673 290.328 25.1777 289.729 24.733C289.129 24.269 288.385 24.037 287.496 24.037C286.104 24.037 285.079 24.472 284.422 25.342C283.764 26.212 283.436 27.4783 283.436 29.141C283.436 29.9723 283.581 30.736 283.871 31.432C284.161 32.128 284.586 32.6887 285.147 33.114C285.727 33.52 286.442 33.723 287.293 33.723C288.201 33.723 288.965 33.5007 289.584 33.056C290.222 32.6113 290.608 32.0507 290.744 31.374H295.268C295.074 33.2107 294.262 34.6703 292.832 35.753C291.42 36.8163 289.574 37.348 287.293 37.348ZM324.986 37.348C323.324 37.348 321.893 37.0387 320.694 36.42C319.515 35.782 318.606 34.8927 317.968 33.752C317.35 32.592 317.04 31.229 317.04 29.663H321.738C321.738 30.881 321.999 31.8187 322.521 32.476C323.063 33.114 323.884 33.433 324.986 33.433C325.856 33.433 326.543 33.2493 327.045 32.882C327.567 32.4953 327.828 31.954 327.828 31.258C327.828 30.736 327.635 30.33 327.248 30.04C326.881 29.7307 326.378 29.4793 325.74 29.286C325.122 29.0733 324.435 28.88 323.681 28.706C322.947 28.5127 322.202 28.2807 321.448 28.01C320.714 27.7393 320.027 27.3817 319.389 26.937C318.771 26.4923 318.268 25.9123 317.881 25.197C317.514 24.4817 317.33 23.573 317.33 22.471C317.33 21.3303 317.64 20.3057 318.258 19.397C318.896 18.4883 319.776 17.7633 320.897 17.222C322.019 16.6807 323.333 16.41 324.841 16.41C326.214 16.41 327.49 16.6807 328.669 17.222C329.849 17.744 330.806 18.5077 331.54 19.513C332.275 20.5183 332.662 21.7557 332.7 23.225H327.915C327.877 22.5677 327.703 22.0263 327.393 21.601C327.103 21.1757 326.726 20.8567 326.262 20.644C325.818 20.4313 325.344 20.325 324.841 20.325C324.126 20.325 323.517 20.499 323.014 20.847C322.512 21.1757 322.26 21.6687 322.26 22.326C322.26 22.8287 322.444 23.225 322.811 23.515C323.198 23.805 323.701 24.0467 324.319 24.24C324.957 24.414 325.644 24.588 326.378 24.762C327.132 24.936 327.877 25.1583 328.611 25.429C329.365 25.6803 330.052 26.038 330.67 26.502C331.308 26.966 331.811 27.5847 332.178 28.358C332.565 29.112 332.758 30.0787 332.758 31.258C332.758 32.4373 332.42 33.491 331.743 34.419C331.086 35.3277 330.168 36.043 328.988 36.565C327.828 37.087 326.494 37.348 324.986 37.348ZM343.964 37.348C342.262 37.348 340.793 37.0097 339.556 36.333C338.338 35.6563 337.4 34.6897 336.743 33.433C336.105 32.1763 335.786 30.678 335.786 28.938C335.786 27.1593 336.124 25.6417 336.801 24.385C337.497 23.1283 338.463 22.1713 339.701 21.514C340.938 20.8567 342.398 20.528 344.08 20.528C345.549 20.528 346.844 20.789 347.966 21.311C349.106 21.833 350.005 22.5677 350.663 23.515C351.339 24.443 351.707 25.5547 351.765 26.85H347.241C347.086 25.9607 346.738 25.3033 346.197 24.878C345.675 24.4333 344.969 24.211 344.08 24.211C343.345 24.211 342.688 24.3947 342.108 24.762C341.547 25.1293 341.102 25.661 340.774 26.357C340.464 27.053 340.31 27.9133 340.31 28.938C340.31 30.4653 340.658 31.6447 341.354 32.476C342.069 33.3073 342.939 33.723 343.964 33.723C344.563 33.723 345.085 33.6167 345.53 33.404C345.994 33.1913 346.38 32.8917 346.69 32.505C346.999 32.099 347.212 31.6447 347.328 31.142H351.852C351.736 32.3987 351.33 33.491 350.634 34.419C349.938 35.347 349.019 36.072 347.879 36.594C346.738 37.0967 345.433 37.348 343.964 37.348ZM360.331 37V20.876H364.855V37H360.331ZM355.111 37V33.346H370.133V37H355.111ZM357.141 24.53V20.876H362.593V24.53H357.141ZM360.157 18.73V14.496H364.971V18.73H360.157ZM381.599 37.348C379.859 37.348 378.361 37.0097 377.104 36.333C375.867 35.6563 374.91 34.6897 374.233 33.433C373.557 32.1763 373.218 30.678 373.218 28.938C373.218 27.1787 373.557 25.6707 374.233 24.414C374.91 23.1573 375.886 22.2003 377.162 21.543C378.458 20.8663 380.014 20.528 381.831 20.528C384.673 20.528 386.732 21.34 388.008 22.964C389.304 24.5687 389.845 26.7823 389.632 29.605H376.814L376.843 26.502H385.021C384.963 25.7673 384.635 25.1777 384.035 24.733C383.436 24.269 382.692 24.037 381.802 24.037C380.41 24.037 379.386 24.472 378.728 25.342C378.071 26.212 377.742 27.4783 377.742 29.141C377.742 29.9723 377.887 30.736 378.177 31.432C378.467 32.128 378.893 32.6887 379.453 33.114C380.033 33.52 380.749 33.723 381.599 33.723C382.508 33.723 383.272 33.5007 383.89 33.056C384.528 32.6113 384.915 32.0507 385.05 31.374H389.574C389.381 33.2107 388.569 34.6703 387.138 35.753C385.727 36.8163 383.881 37.348 381.599 37.348ZM403.477 37V27.053C403.477 26.2217 403.264 25.5547 402.839 25.052C402.413 24.5493 401.853 24.298 401.157 24.298C400.364 24.298 399.629 24.5687 398.953 25.11C398.295 25.632 397.599 26.5407 396.865 27.836L396.227 24.008C396.961 22.7513 397.851 21.862 398.895 21.34C399.939 20.7987 401.002 20.528 402.085 20.528C403.322 20.528 404.376 20.789 405.246 21.311C406.135 21.833 406.812 22.558 407.276 23.486C407.759 24.414 408.001 25.5063 408.001 26.763V37H403.477ZM392.718 37V20.876H397.097L397.242 23.747V37H392.718ZM419.409 37.348C417.708 37.348 416.238 37.0097 415.001 36.333C413.783 35.6563 412.845 34.6897 412.188 33.433C411.55 32.1763 411.231 30.678 411.231 28.938C411.231 27.1593 411.569 25.6417 412.246 24.385C412.942 23.1283 413.909 22.1713 415.146 21.514C416.383 20.8567 417.843 20.528 419.525 20.528C420.994 20.528 422.29 20.789 423.411 21.311C424.552 21.833 425.451 22.5677 426.108 23.515C426.785 24.443 427.152 25.5547 427.21 26.85H422.686C422.531 25.9607 422.183 25.3033 421.642 24.878C421.12 24.4333 420.414 24.211 419.525 24.211C418.79 24.211 418.133 24.3947 417.553 24.762C416.992 25.1293 416.548 25.661 416.219 26.357C415.91 27.053 415.755 27.9133 415.755 28.938C415.755 30.4653 416.103 31.6447 416.799 32.476C417.514 33.3073 418.384 33.723 419.409 33.723C420.008 33.723 420.53 33.6167 420.975 33.404C421.439 33.1913 421.826 32.8917 422.135 32.505C422.444 32.099 422.657 31.6447 422.773 31.142H427.297C427.181 32.3987 426.775 33.491 426.079 34.419C425.383 35.347 424.465 36.072 423.324 36.594C422.183 37.0967 420.878 37.348 419.409 37.348ZM438.183 37.348C436.443 37.348 434.945 37.0097 433.688 36.333C432.451 35.6563 431.494 34.6897 430.817 33.433C430.141 32.1763 429.802 30.678 429.802 28.938C429.802 27.1787 430.141 25.6707 430.817 24.414C431.494 23.1573 432.47 22.2003 433.746 21.543C435.042 20.8663 436.598 20.528 438.415 20.528C441.257 20.528 443.316 21.34 444.592 22.964C445.888 24.5687 446.429 26.7823 446.216 29.605H433.398L433.427 26.502H441.605C441.547 25.7673 441.219 25.1777 440.619 24.733C440.02 24.269 439.276 24.037 438.386 24.037C436.994 24.037 435.97 24.472 435.312 25.342C434.655 26.212 434.326 27.4783 434.326 29.141C434.326 29.9723 434.471 30.736 434.761 31.432C435.051 32.128 435.477 32.6887 436.037 33.114C436.617 33.52 437.333 33.723 438.183 33.723C439.092 33.723 439.856 33.5007 440.474 33.056C441.112 32.6113 441.499 32.0507 441.634 31.374H446.158C445.965 33.2107 445.153 34.6703 443.722 35.753C442.311 36.8163 440.465 37.348 438.183 37.348ZM471.498 30.649V26.734H476.109C477.037 26.734 477.781 26.4537 478.342 25.893C478.903 25.313 479.183 24.559 479.183 23.631C479.183 22.7417 478.903 22.0263 478.342 21.485C477.781 20.9437 477.037 20.673 476.109 20.673H471.498V16.758H476.138C477.743 16.758 479.144 17.0383 480.343 17.599C481.542 18.1597 482.47 18.962 483.127 20.006C483.784 21.0307 484.113 22.239 484.113 23.631C484.113 25.0423 483.784 26.2797 483.127 27.343C482.47 28.387 481.542 29.199 480.343 29.779C479.164 30.359 477.762 30.649 476.138 30.649H471.498ZM468.076 37V16.758H472.861V37H468.076ZM498.073 28.938V26.763C498.073 26.0283 497.88 25.4387 497.493 24.994C497.107 24.53 496.527 24.298 495.753 24.298C494.883 24.298 494.062 24.588 493.288 25.168C492.515 25.748 491.78 26.7533 491.084 28.184L490.62 24.385C491.123 23.5343 491.674 22.8287 492.273 22.268C492.873 21.688 493.53 21.253 494.245 20.963C494.98 20.673 495.782 20.528 496.652 20.528C498.373 20.528 499.794 21.0597 500.915 22.123C502.037 23.167 502.597 24.7137 502.597 26.763V28.938H498.073ZM487.314 37V20.876H491.664L491.838 23.776V37H487.314ZM513.629 37.348C511.889 37.348 510.39 37.0097 509.134 36.333C507.896 35.6563 506.939 34.6897 506.263 33.433C505.586 32.1763 505.248 30.678 505.248 28.938C505.248 27.1787 505.586 25.6707 506.263 24.414C506.939 23.1573 507.916 22.2003 509.192 21.543C510.487 20.8663 512.043 20.528 513.861 20.528C516.703 20.528 518.762 21.34 520.038 22.964C521.333 24.5687 521.874 26.7823 521.662 29.605H508.844L508.873 26.502H517.051C516.993 25.7673 516.664 25.1777 516.065 24.733C515.465 24.269 514.721 24.037 513.832 24.037C512.44 24.037 511.415 24.472 510.758 25.342C510.1 26.212 509.772 27.4783 509.772 29.141C509.772 29.9723 509.917 30.736 510.207 31.432C510.497 32.128 510.922 32.6887 511.483 33.114C512.063 33.52 512.778 33.723 513.629 33.723C514.537 33.723 515.301 33.5007 515.92 33.056C516.558 32.6113 516.944 32.0507 517.08 31.374H521.604C521.41 33.2107 520.598 34.6703 519.168 35.753C517.756 36.8163 515.91 37.348 513.629 37.348ZM532.751 37.348C531.243 37.348 529.919 37.1063 528.778 36.623C527.637 36.1203 526.748 35.4147 526.11 34.506C525.491 33.578 525.172 32.4857 525.153 31.229H529.358C529.319 32.1183 529.6 32.8143 530.199 33.317C530.818 33.8197 531.659 34.071 532.722 34.071C533.495 34.071 534.114 33.9453 534.578 33.694C535.061 33.4233 535.303 33.056 535.303 32.592C535.303 32.186 535.119 31.867 534.752 31.635C534.404 31.3837 533.94 31.1903 533.36 31.055C532.78 30.9003 532.142 30.7553 531.446 30.62C530.75 30.4653 530.044 30.2817 529.329 30.069C528.633 29.8563 527.995 29.576 527.415 29.228C526.835 28.8607 526.361 28.387 525.994 27.807C525.646 27.2077 525.472 26.4633 525.472 25.574C525.472 24.5493 525.762 23.66 526.342 22.906C526.922 22.152 527.724 21.572 528.749 21.166C529.793 20.7407 530.992 20.528 532.345 20.528C534.414 20.528 536.086 21.0113 537.362 21.978C538.657 22.9253 539.373 24.2593 539.508 25.98H535.332C535.293 25.2647 535.003 24.7233 534.462 24.356C533.921 23.9887 533.225 23.805 532.374 23.805C531.659 23.805 531.088 23.9307 530.663 24.182C530.238 24.4333 530.025 24.8103 530.025 25.313C530.025 25.719 530.199 26.038 530.547 26.27C530.914 26.4827 531.388 26.6567 531.968 26.792C532.548 26.9273 533.186 27.053 533.882 27.169C534.597 27.285 535.303 27.4493 535.999 27.662C536.695 27.8553 537.333 28.126 537.913 28.474C538.493 28.822 538.957 29.286 539.305 29.866C539.672 30.446 539.856 31.1903 539.856 32.099C539.856 33.7423 539.208 35.028 537.913 35.956C536.637 36.884 534.916 37.348 532.751 37.348ZM551.612 37.348C550.104 37.348 548.78 37.1063 547.639 36.623C546.499 36.1203 545.609 35.4147 544.971 34.506C544.353 33.578 544.034 32.4857 544.014 31.229H548.219C548.181 32.1183 548.461 32.8143 549.06 33.317C549.679 33.8197 550.52 34.071 551.583 34.071C552.357 34.071 552.975 33.9453 553.439 33.694C553.923 33.4233 554.164 33.056 554.164 32.592C554.164 32.186 553.981 31.867 553.613 31.635C553.265 31.3837 552.801 31.1903 552.221 31.055C551.641 30.9003 551.003 30.7553 550.307 30.62C549.611 30.4653 548.906 30.2817 548.19 30.069C547.494 29.8563 546.856 29.576 546.276 29.228C545.696 28.8607 545.223 28.387 544.855 27.807C544.507 27.2077 544.333 26.4633 544.333 25.574C544.333 24.5493 544.623 23.66 545.203 22.906C545.783 22.152 546.586 21.572 547.61 21.166C548.654 20.7407 549.853 20.528 551.206 20.528C553.275 20.528 554.947 21.0113 556.223 21.978C557.519 22.9253 558.234 24.2593 558.369 25.98H554.193C554.155 25.2647 553.865 24.7233 553.323 24.356C552.782 23.9887 552.086 23.805 551.235 23.805C550.52 23.805 549.95 23.9307 549.524 24.182C549.099 24.4333 548.886 24.8103 548.886 25.313C548.886 25.719 549.06 26.038 549.408 26.27C549.776 26.4827 550.249 26.6567 550.829 26.792C551.409 26.9273 552.047 27.053 552.743 27.169C553.459 27.285 554.164 27.4493 554.86 27.662C555.556 27.8553 556.194 28.126 556.774 28.474C557.354 28.822 557.818 29.286 558.166 29.866C558.534 30.446 558.717 31.1903 558.717 32.099C558.717 33.7423 558.07 35.028 556.774 35.956C555.498 36.884 553.778 37.348 551.612 37.348Z" fill="#0077CC"/>
<path d="M472 177C554.843 177 622 244.157 622 327C622 409.843 554.843 477 472 477C416.43 477 367.919 446.781 342 401.881C316.081 446.781 267.57 477 212 477C129.157 477 62 409.843 62 327C62 244.157 129.157 177 212 177C267.57 177 316.081 207.218 342 252.118C367.919 207.218 416.43 177 472 177Z" fill="url(#paint0_linear_824_63)"/>
<path d="M202 327H482" stroke="#1F3647" stroke-width="5" stroke-linecap="round"/>
<path d="M360.414 215.772H358.422C358.365 215.445 358.26 215.156 358.107 214.903C357.955 214.648 357.765 214.431 357.537 214.254C357.31 214.076 357.051 213.943 356.76 213.854C356.472 213.762 356.161 213.716 355.827 213.716C355.234 213.716 354.709 213.865 354.251 214.163C353.793 214.458 353.434 214.891 353.175 215.463C352.915 216.031 352.786 216.725 352.786 217.545C352.786 218.38 352.915 219.083 353.175 219.655C353.438 220.223 353.796 220.653 354.251 220.944C354.709 221.232 355.233 221.375 355.822 221.375C356.149 221.375 356.454 221.333 356.738 221.248C357.026 221.159 357.283 221.029 357.511 220.859C357.741 220.688 357.935 220.479 358.091 220.23C358.251 219.982 358.361 219.697 358.422 219.378L360.414 219.388C360.339 219.907 360.178 220.393 359.929 220.848C359.684 221.303 359.363 221.704 358.965 222.052C358.567 222.396 358.102 222.666 357.569 222.862C357.037 223.053 356.445 223.149 355.795 223.149C354.837 223.149 353.981 222.927 353.228 222.483C352.475 222.039 351.882 221.398 351.449 220.56C351.016 219.722 350.799 218.717 350.799 217.545C350.799 216.37 351.017 215.365 351.454 214.531C351.891 213.692 352.486 213.051 353.239 212.608C353.991 212.164 354.844 211.942 355.795 211.942C356.403 211.942 356.967 212.027 357.489 212.197C358.011 212.368 358.477 212.618 358.885 212.949C359.293 213.275 359.629 213.676 359.892 214.152C360.158 214.625 360.332 215.164 360.414 215.772ZM365.707 223.16C364.908 223.16 364.216 222.984 363.63 222.632C363.044 222.281 362.589 221.789 362.266 221.157C361.946 220.525 361.787 219.786 361.787 218.941C361.787 218.096 361.946 217.355 362.266 216.72C362.589 216.084 363.044 215.591 363.63 215.239C364.216 214.887 364.908 214.712 365.707 214.712C366.506 214.712 367.199 214.887 367.785 215.239C368.37 215.591 368.823 216.084 369.143 216.72C369.466 217.355 369.628 218.096 369.628 218.941C369.628 219.786 369.466 220.525 369.143 221.157C368.823 221.789 368.37 222.281 367.785 222.632C367.199 222.984 366.506 223.16 365.707 223.16ZM365.718 221.615C366.151 221.615 366.513 221.496 366.804 221.258C367.096 221.017 367.312 220.694 367.454 220.289C367.6 219.884 367.673 219.433 367.673 218.936C367.673 218.435 367.6 217.982 367.454 217.577C367.312 217.169 367.096 216.844 366.804 216.603C366.513 216.361 366.151 216.24 365.718 216.24C365.274 216.24 364.905 216.361 364.61 216.603C364.319 216.844 364.1 217.169 363.955 217.577C363.813 217.982 363.742 218.435 363.742 218.936C363.742 219.433 363.813 219.884 363.955 220.289C364.1 220.694 364.319 221.017 364.61 221.258C364.905 221.496 365.274 221.615 365.718 221.615ZM378.294 214.818L375.38 223H373.25L370.336 214.818H372.392L374.272 220.896H374.358L376.243 214.818H378.294ZM381.748 223.165C381.23 223.165 380.763 223.073 380.348 222.888C379.936 222.7 379.609 222.423 379.367 222.057C379.13 221.691 379.011 221.24 379.011 220.704C379.011 220.243 379.096 219.861 379.266 219.559C379.437 219.257 379.669 219.016 379.964 218.835C380.259 218.653 380.591 218.517 380.96 218.424C381.333 218.328 381.718 218.259 382.116 218.217C382.595 218.167 382.984 218.123 383.283 218.083C383.581 218.041 383.797 217.977 383.932 217.892C384.071 217.803 384.14 217.666 384.14 217.482V217.45C384.14 217.048 384.021 216.738 383.783 216.517C383.545 216.297 383.203 216.187 382.755 216.187C382.283 216.187 381.908 216.29 381.631 216.496C381.358 216.702 381.173 216.945 381.077 217.226L379.277 216.97C379.419 216.473 379.653 216.058 379.98 215.724C380.307 215.386 380.706 215.134 381.179 214.967C381.651 214.797 382.173 214.712 382.745 214.712C383.139 214.712 383.531 214.758 383.922 214.85C384.312 214.942 384.669 215.095 384.992 215.308C385.316 215.518 385.575 215.804 385.77 216.166C385.969 216.528 386.068 216.981 386.068 217.524V223H384.215V221.876H384.151C384.034 222.103 383.869 222.316 383.655 222.515C383.446 222.711 383.181 222.869 382.862 222.989C382.546 223.107 382.175 223.165 381.748 223.165ZM382.249 221.748C382.636 221.748 382.972 221.672 383.256 221.519C383.54 221.363 383.758 221.157 383.911 220.901C384.067 220.646 384.146 220.367 384.146 220.065V219.101C384.085 219.151 383.982 219.197 383.837 219.239C383.695 219.282 383.535 219.319 383.357 219.351C383.18 219.383 383.004 219.412 382.83 219.436C382.656 219.461 382.505 219.483 382.377 219.5C382.089 219.539 381.832 219.603 381.605 219.692C381.377 219.781 381.198 219.905 381.067 220.065C380.935 220.221 380.87 220.424 380.87 220.672C380.87 221.027 380.999 221.295 381.258 221.477C381.518 221.658 381.848 221.748 382.249 221.748ZM389.936 212.091V223H388.007V212.091H389.936ZM395.541 223.16C394.72 223.16 394.012 222.989 393.415 222.648C392.822 222.304 392.366 221.817 392.046 221.189C391.727 220.557 391.567 219.813 391.567 218.957C391.567 218.115 391.727 217.377 392.046 216.741C392.369 216.102 392.82 215.605 393.399 215.25C393.978 214.891 394.658 214.712 395.439 214.712C395.944 214.712 396.42 214.793 396.867 214.957C397.318 215.116 397.716 215.365 398.06 215.702C398.408 216.04 398.682 216.469 398.881 216.991C399.079 217.51 399.179 218.128 399.179 218.845V219.436H392.472V218.137H397.33C397.327 217.767 397.247 217.439 397.091 217.151C396.934 216.86 396.716 216.631 396.436 216.464C396.159 216.297 395.835 216.214 395.466 216.214C395.072 216.214 394.726 216.31 394.427 216.501C394.129 216.69 393.896 216.938 393.73 217.247C393.566 217.553 393.483 217.888 393.479 218.254V219.388C393.479 219.864 393.566 220.273 393.74 220.614C393.914 220.951 394.157 221.21 394.47 221.391C394.782 221.569 395.148 221.658 395.567 221.658C395.848 221.658 396.102 221.619 396.329 221.54C396.556 221.459 396.753 221.34 396.92 221.184C397.087 221.027 397.213 220.834 397.298 220.603L399.099 220.805C398.985 221.281 398.769 221.697 398.449 222.052C398.133 222.403 397.728 222.677 397.235 222.872C396.741 223.064 396.176 223.16 395.541 223.16ZM402.738 218.206V223H400.81V214.818H402.653V216.208H402.749C402.937 215.75 403.237 215.386 403.649 215.116C404.065 214.847 404.578 214.712 405.189 214.712C405.753 214.712 406.245 214.832 406.664 215.074C407.087 215.315 407.413 215.665 407.644 216.123C407.879 216.581 407.994 217.137 407.991 217.79V223H406.062V218.089C406.062 217.542 405.92 217.114 405.636 216.805C405.356 216.496 404.967 216.342 404.47 216.342C404.132 216.342 403.832 216.416 403.569 216.565C403.31 216.711 403.106 216.922 402.957 217.199C402.811 217.476 402.738 217.812 402.738 218.206ZM414.036 214.818V216.31H409.333V214.818H414.036ZM410.494 212.858H412.422V220.539C412.422 220.798 412.461 220.997 412.54 221.136C412.621 221.271 412.728 221.363 412.859 221.413C412.991 221.462 413.136 221.487 413.296 221.487C413.417 221.487 413.527 221.478 413.626 221.461C413.729 221.443 413.807 221.427 413.861 221.413L414.185 222.92C414.082 222.956 413.935 222.995 413.743 223.037C413.555 223.08 413.324 223.105 413.051 223.112C412.568 223.126 412.133 223.053 411.746 222.893C411.359 222.73 411.052 222.478 410.824 222.137C410.601 221.796 410.491 221.37 410.494 220.859V212.858ZM419.455 223V212.091H423.546C424.384 212.091 425.087 212.237 425.655 212.528C426.227 212.819 426.658 213.227 426.95 213.753C427.244 214.275 427.392 214.884 427.392 215.58C427.392 216.279 427.243 216.887 426.944 217.402C426.65 217.913 426.214 218.309 425.639 218.589C425.064 218.866 424.357 219.005 423.519 219.005H420.605V217.364H423.253C423.743 217.364 424.144 217.297 424.457 217.162C424.769 217.023 425 216.823 425.149 216.56C425.302 216.294 425.378 215.967 425.378 215.58C425.378 215.193 425.302 214.863 425.149 214.589C424.996 214.312 424.764 214.103 424.451 213.961C424.139 213.815 423.736 213.742 423.242 213.742H421.431V223H419.455ZM425.091 218.057L427.791 223H425.586L422.933 218.057H425.091ZM431.48 223.165C430.961 223.165 430.494 223.073 430.079 222.888C429.667 222.7 429.34 222.423 429.099 222.057C428.861 221.691 428.742 221.24 428.742 220.704C428.742 220.243 428.827 219.861 428.998 219.559C429.168 219.257 429.401 219.016 429.695 218.835C429.99 218.653 430.322 218.517 430.692 218.424C431.064 218.328 431.45 218.259 431.847 218.217C432.327 218.167 432.716 218.123 433.014 218.083C433.312 218.041 433.529 217.977 433.664 217.892C433.802 217.803 433.872 217.666 433.872 217.482V217.45C433.872 217.048 433.753 216.738 433.515 216.517C433.277 216.297 432.934 216.187 432.487 216.187C432.014 216.187 431.64 216.29 431.363 216.496C431.089 216.702 430.905 216.945 430.809 217.226L429.008 216.97C429.15 216.473 429.385 216.058 429.711 215.724C430.038 215.386 430.438 215.134 430.91 214.967C431.382 214.797 431.904 214.712 432.476 214.712C432.87 214.712 433.263 214.758 433.653 214.85C434.044 214.942 434.401 215.095 434.724 215.308C435.047 215.518 435.306 215.804 435.502 216.166C435.7 216.528 435.8 216.981 435.8 217.524V223H433.946V221.876H433.882C433.765 222.103 433.6 222.316 433.387 222.515C433.177 222.711 432.913 222.869 432.593 222.989C432.277 223.107 431.906 223.165 431.48 223.165ZM431.981 221.748C432.368 221.748 432.703 221.672 432.987 221.519C433.271 221.363 433.49 221.157 433.643 220.901C433.799 220.646 433.877 220.367 433.877 220.065V219.101C433.817 219.151 433.714 219.197 433.568 219.239C433.426 219.282 433.266 219.319 433.089 219.351C432.911 219.383 432.735 219.412 432.561 219.436C432.387 219.461 432.236 219.483 432.108 219.5C431.821 219.539 431.563 219.603 431.336 219.692C431.109 219.781 430.93 219.905 430.798 220.065C430.667 220.221 430.601 220.424 430.601 220.672C430.601 221.027 430.731 221.295 430.99 221.477C431.249 221.658 431.579 221.748 431.981 221.748ZM440.775 223.144C440.132 223.144 439.557 222.979 439.049 222.648C438.541 222.318 438.14 221.839 437.845 221.21C437.551 220.582 437.403 219.818 437.403 218.92C437.403 218.011 437.552 217.244 437.851 216.619C438.153 215.99 438.559 215.516 439.07 215.196C439.582 214.873 440.152 214.712 440.78 214.712C441.26 214.712 441.654 214.793 441.963 214.957C442.272 215.116 442.517 215.31 442.698 215.537C442.879 215.761 443.019 215.972 443.119 216.171H443.199V212.091H445.132V223H443.236V221.711H443.119C443.019 221.91 442.876 222.121 442.687 222.345C442.499 222.565 442.251 222.753 441.942 222.909C441.633 223.066 441.244 223.144 440.775 223.144ZM441.313 221.562C441.721 221.562 442.069 221.452 442.357 221.232C442.645 221.008 442.863 220.697 443.012 220.299C443.161 219.902 443.236 219.438 443.236 218.909C443.236 218.38 443.161 217.92 443.012 217.529C442.867 217.139 442.65 216.835 442.362 216.619C442.078 216.402 441.729 216.294 441.313 216.294C440.883 216.294 440.525 216.406 440.237 216.629C439.949 216.853 439.733 217.162 439.587 217.556C439.442 217.95 439.369 218.401 439.369 218.909C439.369 219.42 439.442 219.877 439.587 220.278C439.736 220.676 439.955 220.99 440.242 221.221C440.534 221.448 440.89 221.562 441.313 221.562ZM447.187 223V214.818H449.115V223H447.187ZM448.157 213.657C447.851 213.657 447.588 213.556 447.368 213.353C447.148 213.147 447.038 212.901 447.038 212.613C447.038 212.322 447.148 212.075 447.368 211.873C447.588 211.667 447.851 211.564 448.157 211.564C448.465 211.564 448.728 211.667 448.945 211.873C449.165 212.075 449.275 212.322 449.275 212.613C449.275 212.901 449.165 213.147 448.945 213.353C448.728 213.556 448.465 213.657 448.157 213.657ZM456.313 219.559V214.818H458.241V223H456.372V221.546H456.286C456.102 222.004 455.798 222.379 455.376 222.67C454.956 222.961 454.44 223.107 453.825 223.107C453.289 223.107 452.815 222.988 452.403 222.75C451.995 222.508 451.675 222.158 451.444 221.7C451.214 221.239 451.098 220.681 451.098 220.028V214.818H453.026V219.729C453.026 220.248 453.169 220.66 453.453 220.965C453.737 221.271 454.11 221.423 454.571 221.423C454.855 221.423 455.131 221.354 455.397 221.216C455.663 221.077 455.882 220.871 456.052 220.598C456.226 220.321 456.313 219.974 456.313 219.559ZM466.691 216.981L464.933 217.173C464.883 216.995 464.796 216.828 464.672 216.672C464.551 216.516 464.388 216.39 464.182 216.294C463.976 216.198 463.724 216.15 463.426 216.15C463.024 216.15 462.687 216.237 462.413 216.411C462.144 216.585 462.01 216.81 462.014 217.087C462.01 217.325 462.097 217.519 462.275 217.668C462.456 217.817 462.754 217.94 463.17 218.036L464.565 218.334C465.34 218.501 465.915 218.765 466.291 219.127C466.671 219.49 466.863 219.964 466.867 220.55C466.863 221.065 466.712 221.519 466.414 221.913C466.119 222.304 465.709 222.609 465.183 222.83C464.658 223.05 464.054 223.16 463.372 223.16C462.371 223.16 461.565 222.95 460.954 222.531C460.343 222.109 459.979 221.521 459.862 220.768L461.742 220.587C461.828 220.956 462.009 221.235 462.286 221.423C462.563 221.612 462.923 221.706 463.367 221.706C463.825 221.706 464.193 221.612 464.47 221.423C464.75 221.235 464.89 221.002 464.89 220.725C464.89 220.491 464.8 220.298 464.619 220.145C464.441 219.992 464.164 219.875 463.788 219.793L462.392 219.5C461.607 219.337 461.027 219.062 460.65 218.675C460.274 218.284 460.087 217.79 460.091 217.194C460.087 216.69 460.224 216.253 460.501 215.884C460.782 215.511 461.171 215.223 461.668 215.021C462.168 214.815 462.745 214.712 463.399 214.712C464.358 214.712 465.112 214.916 465.663 215.324C466.217 215.733 466.559 216.285 466.691 216.981Z" fill="#1F3647"/>
<path d="M212.773 440H209.076V429.091H212.847C213.93 429.091 214.861 429.309 215.638 429.746C216.42 430.179 217.02 430.803 217.439 431.616C217.858 432.429 218.067 433.402 218.067 434.535C218.067 435.671 217.856 436.648 217.434 437.464C217.015 438.281 216.409 438.908 215.617 439.345C214.829 439.782 213.881 440 212.773 440ZM211.052 438.29H212.677C213.437 438.29 214.071 438.152 214.578 437.875C215.086 437.594 215.468 437.177 215.724 436.623C215.979 436.065 216.107 435.369 216.107 434.535C216.107 433.7 215.979 433.008 215.724 432.457C215.468 431.903 215.09 431.49 214.589 431.216C214.092 430.939 213.474 430.801 212.735 430.801H211.052V438.29ZM219.86 440V431.818H221.788V440H219.86ZM220.829 430.657C220.524 430.657 220.261 430.556 220.041 430.353C219.821 430.147 219.711 429.901 219.711 429.613C219.711 429.322 219.821 429.075 220.041 428.873C220.261 428.667 220.524 428.564 220.829 428.564C221.138 428.564 221.401 428.667 221.618 428.873C221.838 429.075 221.948 429.322 221.948 429.613C221.948 429.901 221.838 430.147 221.618 430.353C221.401 430.556 221.138 430.657 220.829 430.657ZM226.125 440.165C225.607 440.165 225.14 440.073 224.725 439.888C224.313 439.7 223.986 439.423 223.744 439.057C223.506 438.691 223.388 438.24 223.388 437.704C223.388 437.243 223.473 436.861 223.643 436.559C223.814 436.257 224.046 436.016 224.341 435.835C224.636 435.653 224.968 435.517 225.337 435.424C225.71 435.328 226.095 435.259 226.493 435.217C226.972 435.167 227.361 435.123 227.66 435.083C227.958 435.041 228.174 434.977 228.309 434.892C228.448 434.803 228.517 434.666 228.517 434.482V434.45C228.517 434.048 228.398 433.738 228.16 433.517C227.922 433.297 227.58 433.187 227.132 433.187C226.66 433.187 226.285 433.29 226.008 433.496C225.735 433.702 225.55 433.945 225.454 434.226L223.654 433.97C223.796 433.473 224.03 433.058 224.357 432.724C224.684 432.386 225.083 432.134 225.555 431.967C226.028 431.797 226.55 431.712 227.122 431.712C227.516 431.712 227.908 431.758 228.299 431.85C228.689 431.942 229.046 432.095 229.369 432.308C229.693 432.518 229.952 432.804 230.147 433.166C230.346 433.528 230.445 433.981 230.445 434.524V440H228.592V438.876H228.528C228.411 439.103 228.245 439.316 228.032 439.515C227.823 439.711 227.558 439.869 227.239 439.989C226.923 440.107 226.552 440.165 226.125 440.165ZM226.626 438.748C227.013 438.748 227.349 438.672 227.633 438.519C227.917 438.363 228.135 438.157 228.288 437.901C228.444 437.646 228.522 437.367 228.522 437.065V436.101C228.462 436.151 228.359 436.197 228.214 436.239C228.071 436.282 227.912 436.319 227.734 436.351C227.557 436.383 227.381 436.412 227.207 436.436C227.033 436.461 226.882 436.483 226.754 436.5C226.466 436.539 226.209 436.603 225.982 436.692C225.754 436.781 225.575 436.905 225.444 437.065C225.312 437.221 225.247 437.424 225.247 437.672C225.247 438.027 225.376 438.295 225.635 438.477C225.895 438.658 226.225 438.748 226.626 438.748ZM232.384 440V431.818H234.227V433.208H234.323C234.494 432.74 234.776 432.374 235.17 432.111C235.564 431.845 236.035 431.712 236.582 431.712C237.136 431.712 237.603 431.847 237.983 432.116C238.366 432.383 238.636 432.747 238.792 433.208H238.878C239.059 432.754 239.364 432.392 239.794 432.122C240.227 431.848 240.74 431.712 241.333 431.712C242.086 431.712 242.7 431.95 243.176 432.425C243.652 432.901 243.89 433.596 243.89 434.508V440H241.956V434.806C241.956 434.299 241.821 433.928 241.552 433.693C241.282 433.455 240.951 433.336 240.561 433.336C240.096 433.336 239.732 433.482 239.469 433.773C239.21 434.061 239.08 434.435 239.08 434.897V440H237.189V434.727C237.189 434.304 237.061 433.967 236.805 433.714C236.553 433.462 236.223 433.336 235.815 433.336C235.538 433.336 235.286 433.407 235.058 433.549C234.831 433.688 234.65 433.885 234.515 434.141C234.38 434.393 234.313 434.687 234.313 435.025V440H232.384ZM249.468 440.16C248.648 440.16 247.94 439.989 247.343 439.648C246.75 439.304 246.294 438.817 245.974 438.189C245.654 437.557 245.495 436.813 245.495 435.957C245.495 435.115 245.654 434.377 245.974 433.741C246.297 433.102 246.748 432.605 247.327 432.25C247.906 431.891 248.586 431.712 249.367 431.712C249.871 431.712 250.347 431.793 250.795 431.957C251.246 432.116 251.643 432.365 251.988 432.702C252.336 433.04 252.609 433.469 252.808 433.991C253.007 434.51 253.107 435.128 253.107 435.845V436.436H246.4V435.137H251.258C251.255 434.767 251.175 434.439 251.018 434.151C250.862 433.86 250.644 433.631 250.363 433.464C250.086 433.297 249.763 433.214 249.394 433.214C249 433.214 248.653 433.31 248.355 433.501C248.057 433.69 247.824 433.938 247.657 434.247C247.494 434.553 247.411 434.888 247.407 435.254V436.388C247.407 436.864 247.494 437.273 247.668 437.614C247.842 437.951 248.085 438.21 248.398 438.391C248.71 438.569 249.076 438.658 249.495 438.658C249.776 438.658 250.029 438.619 250.257 438.54C250.484 438.459 250.681 438.34 250.848 438.184C251.015 438.027 251.141 437.834 251.226 437.603L253.027 437.805C252.913 438.281 252.696 438.697 252.377 439.052C252.061 439.403 251.656 439.677 251.162 439.872C250.669 440.064 250.104 440.16 249.468 440.16ZM258.823 431.818V433.31H254.12V431.818H258.823ZM255.281 429.858H257.209V437.539C257.209 437.798 257.248 437.997 257.327 438.136C257.408 438.271 257.515 438.363 257.646 438.413C257.778 438.462 257.923 438.487 258.083 438.487C258.204 438.487 258.314 438.478 258.413 438.461C258.516 438.443 258.594 438.427 258.648 438.413L258.973 439.92C258.87 439.956 258.722 439.995 258.53 440.037C258.342 440.08 258.111 440.105 257.838 440.112C257.355 440.126 256.92 440.053 256.533 439.893C256.146 439.73 255.839 439.478 255.611 439.137C255.388 438.796 255.278 438.37 255.281 437.859V429.858ZM263.97 440.16C263.15 440.16 262.442 439.989 261.845 439.648C261.252 439.304 260.796 438.817 260.476 438.189C260.156 437.557 259.997 436.813 259.997 435.957C259.997 435.115 260.156 434.377 260.476 433.741C260.799 433.102 261.25 432.605 261.829 432.25C262.408 431.891 263.088 431.712 263.869 431.712C264.373 431.712 264.849 431.793 265.297 431.957C265.748 432.116 266.145 432.365 266.49 432.702C266.838 433.04 267.111 433.469 267.31 433.991C267.509 434.51 267.608 435.128 267.608 435.845V436.436H260.902V435.137H265.76C265.757 434.767 265.677 434.439 265.52 434.151C265.364 433.86 265.146 433.631 264.865 433.464C264.588 433.297 264.265 433.214 263.896 433.214C263.502 433.214 263.155 433.31 262.857 433.501C262.559 433.69 262.326 433.938 262.159 434.247C261.996 434.553 261.912 434.888 261.909 435.254V436.388C261.909 436.864 261.996 437.273 262.17 437.614C262.344 437.951 262.587 438.21 262.9 438.391C263.212 438.569 263.578 438.658 263.997 438.658C264.278 438.658 264.531 438.619 264.759 438.54C264.986 438.459 265.183 438.34 265.35 438.184C265.517 438.027 265.643 437.834 265.728 437.603L267.529 437.805C267.415 438.281 267.198 438.697 266.879 439.052C266.563 439.403 266.158 439.677 265.664 439.872C265.171 440.064 264.606 440.16 263.97 440.16ZM269.24 440V431.818H271.109V433.182H271.195C271.344 432.71 271.6 432.346 271.962 432.09C272.328 431.831 272.745 431.701 273.214 431.701C273.32 431.701 273.439 431.706 273.57 431.717C273.705 431.724 273.817 431.737 273.906 431.754V433.528C273.824 433.5 273.695 433.475 273.517 433.453C273.343 433.429 273.174 433.416 273.011 433.416C272.66 433.416 272.343 433.493 272.063 433.645C271.786 433.794 271.568 434.002 271.408 434.268C271.248 434.535 271.168 434.842 271.168 435.19V440H269.24Z" fill="#1F3647"/>
<path d="M342 327V214" stroke="#1F3647" stroke-width="5" stroke-linecap="round" stroke-dasharray="10 10"/>
<path d="M482 327V214" stroke="#1F3647" stroke-width="5" stroke-linecap="round" stroke-dasharray="10 10"/>
<path d="M202 440V327" stroke="#1F3647" stroke-width="5" stroke-linecap="round" stroke-dasharray="10 10"/>
<path d="M482 440V327" stroke="#1F3647" stroke-width="5" stroke-linecap="round" stroke-dasharray="10 10"/>
<path d="M102.62 123.42C100.427 123.42 98.525 122.907 96.915 121.88C95.3283 120.83 94.0917 119.36 93.205 117.47C92.3417 115.557 91.91 113.328 91.91 110.785C91.91 108.218 92.3533 105.99 93.24 104.1C94.1267 102.21 95.3867 100.752 97.02 99.725C98.6533 98.675 100.59 98.15 102.83 98.15C104.58 98.15 106.19 98.4883 107.66 99.165C109.13 99.8417 110.332 100.822 111.265 102.105C112.222 103.388 112.747 104.952 112.84 106.795H106.54C106.423 105.605 106.05 104.66 105.42 103.96C104.79 103.237 103.927 102.875 102.83 102.875C101.897 102.875 101.045 103.178 100.275 103.785C99.5283 104.368 98.9333 105.255 98.49 106.445C98.07 107.612 97.86 109.058 97.86 110.785C97.86 112.488 98.07 113.935 98.49 115.125C98.91 116.292 99.47 117.178 100.17 117.785C100.893 118.392 101.71 118.695 102.62 118.695C103.39 118.695 104.055 118.543 104.615 118.24C105.198 117.913 105.665 117.447 106.015 116.84C106.388 116.233 106.61 115.498 106.68 114.635H112.98C112.793 116.432 112.257 117.995 111.37 119.325C110.507 120.632 109.34 121.647 107.87 122.37C106.4 123.07 104.65 123.42 102.62 123.42ZM125.139 123.42C123.062 123.42 121.277 123.012 119.784 122.195C118.29 121.378 117.135 120.212 116.319 118.695C115.525 117.178 115.129 115.37 115.129 113.27C115.129 111.147 115.525 109.338 116.319 107.845C117.135 106.328 118.29 105.162 119.784 104.345C121.277 103.528 123.062 103.12 125.139 103.12C128.265 103.12 130.704 104.018 132.454 105.815C134.227 107.612 135.114 110.097 135.114 113.27C135.114 115.37 134.717 117.178 133.924 118.695C133.13 120.212 131.987 121.378 130.494 122.195C129 123.012 127.215 123.42 125.139 123.42ZM125.139 119.01C126.539 119.01 127.635 118.497 128.429 117.47C129.245 116.443 129.654 115.043 129.654 113.27C129.654 111.473 129.245 110.073 128.429 109.07C127.635 108.043 126.539 107.53 125.139 107.53C123.715 107.53 122.595 108.043 121.779 109.07C120.985 110.073 120.589 111.473 120.589 113.27C120.589 115.043 120.985 116.443 121.779 117.47C122.595 118.497 123.715 119.01 125.139 119.01ZM144.752 123L137.822 103.54H143.527L146.782 113.41L147.972 118.24L149.232 113.41L152.417 103.54H157.947L151.052 123H144.752ZM174.446 123L174.271 119.5V109.91C174.271 109 173.933 108.288 173.256 107.775C172.579 107.238 171.646 106.97 170.456 106.97C169.313 106.97 168.379 107.215 167.656 107.705C166.956 108.172 166.548 108.837 166.431 109.7H161.146C161.263 108.323 161.729 107.145 162.546 106.165C163.363 105.185 164.459 104.438 165.836 103.925C167.236 103.388 168.858 103.12 170.701 103.12C172.521 103.12 174.108 103.4 175.461 103.96C176.814 104.497 177.853 105.302 178.576 106.375C179.323 107.425 179.696 108.72 179.696 110.26V123H174.446ZM168.216 123.42C166.933 123.42 165.801 123.175 164.821 122.685C163.841 122.172 163.083 121.472 162.546 120.585C162.009 119.698 161.741 118.695 161.741 117.575C161.741 115.568 162.511 114.017 164.051 112.92C165.614 111.8 167.761 111.24 170.491 111.24H174.796V115.02L170.351 115.055C169.348 115.055 168.543 115.242 167.936 115.615C167.353 115.965 167.061 116.502 167.061 117.225C167.061 117.738 167.271 118.182 167.691 118.555C168.134 118.928 168.753 119.115 169.546 119.115C170.643 119.115 171.611 118.847 172.451 118.31C173.314 117.75 174.026 116.992 174.586 116.035L175.181 119.71C174.598 120.993 173.699 121.938 172.486 122.545C171.296 123.128 169.873 123.42 168.216 123.42ZM190.7 123V97.1H196.16V123H190.7ZM184.4 123V118.59H202.53V123H184.4ZM186.85 101.51V97.1H193.43V101.51H186.85ZM216.368 123.42C214.268 123.42 212.46 123.012 210.943 122.195C209.45 121.378 208.295 120.212 207.478 118.695C206.662 117.178 206.253 115.37 206.253 113.27C206.253 111.147 206.662 109.327 207.478 107.81C208.295 106.293 209.473 105.138 211.013 104.345C212.577 103.528 214.455 103.12 216.648 103.12C220.078 103.12 222.563 104.1 224.103 106.06C225.667 107.997 226.32 110.668 226.063 114.075H210.593L210.628 110.33H220.498C220.428 109.443 220.032 108.732 219.308 108.195C218.585 107.635 217.687 107.355 216.613 107.355C214.933 107.355 213.697 107.88 212.903 108.93C212.11 109.98 211.713 111.508 211.713 113.515C211.713 114.518 211.888 115.44 212.238 116.28C212.588 117.12 213.102 117.797 213.778 118.31C214.478 118.8 215.342 119.045 216.368 119.045C217.465 119.045 218.387 118.777 219.133 118.24C219.903 117.703 220.37 117.027 220.533 116.21H225.993C225.76 118.427 224.78 120.188 223.053 121.495C221.35 122.778 219.122 123.42 216.368 123.42ZM242.772 123V110.995C242.772 109.992 242.515 109.187 242.002 108.58C241.489 107.973 240.812 107.67 239.972 107.67C239.015 107.67 238.129 107.997 237.312 108.65C236.519 109.28 235.679 110.377 234.792 111.94L234.022 107.32C234.909 105.803 235.982 104.73 237.242 104.1C238.502 103.447 239.785 103.12 241.092 103.12C242.585 103.12 243.857 103.435 244.907 104.065C245.98 104.695 246.797 105.57 247.357 106.69C247.94 107.81 248.232 109.128 248.232 110.645V123H242.772ZM229.787 123V103.54H235.072L235.247 107.005V123H229.787ZM263.296 123C261.989 123 260.834 122.708 259.831 122.125C258.851 121.518 258.092 120.69 257.556 119.64C257.019 118.567 256.751 117.353 256.751 116V100.285L262.211 97.835V116C262.211 116.607 262.292 117.108 262.456 117.505C262.642 117.878 262.969 118.158 263.436 118.345C263.926 118.508 264.602 118.59 265.466 118.59H270.401V123H263.296ZM252.901 107.95V103.54H266.936V107.95H252.901ZM300.423 118.31V113.585H314.808V118.31H300.423ZM302.908 98.57H311.553L317.748 123H311.868L308.683 109.14L307.213 102.63L305.708 109.14L302.453 123H296.748L302.908 98.57ZM331.587 123C330.28 123 329.125 122.708 328.122 122.125C327.142 121.518 326.383 120.69 325.847 119.64C325.31 118.567 325.042 117.353 325.042 116V100.285L330.502 97.835V116C330.502 116.607 330.583 117.108 330.747 117.505C330.933 117.878 331.26 118.158 331.727 118.345C332.217 118.508 332.893 118.59 333.757 118.59H338.692V123H331.587ZM321.192 107.95V103.54H335.227V107.95H321.192ZM352.775 123.42C350.699 123.42 348.914 123.012 347.42 122.195C345.927 121.378 344.772 120.212 343.955 118.695C343.162 117.178 342.765 115.37 342.765 113.27C342.765 111.147 343.162 109.338 343.955 107.845C344.772 106.328 345.927 105.162 347.42 104.345C348.914 103.528 350.699 103.12 352.775 103.12C355.902 103.12 358.34 104.018 360.09 105.815C361.864 107.612 362.75 110.097 362.75 113.27C362.75 115.37 362.354 117.178 361.56 118.695C360.767 120.212 359.624 121.378 358.13 122.195C356.637 123.012 354.852 123.42 352.775 123.42ZM352.775 119.01C354.175 119.01 355.272 118.497 356.065 117.47C356.882 116.443 357.29 115.043 357.29 113.27C357.29 111.473 356.882 110.073 356.065 109.07C355.272 108.043 354.175 107.53 352.775 107.53C351.352 107.53 350.232 108.043 349.415 109.07C348.622 110.073 348.225 111.473 348.225 113.27C348.225 115.043 348.622 116.443 349.415 117.47C350.232 118.497 351.352 119.01 352.775 119.01ZM380.509 123V109.28C380.509 108.743 380.439 108.323 380.299 108.02C380.159 107.693 379.891 107.53 379.494 107.53C378.981 107.53 378.514 107.915 378.094 108.685C377.697 109.432 377.371 110.75 377.114 112.64L376.764 110.015C376.624 107.892 376.974 106.212 377.814 104.975C378.654 103.738 379.786 103.12 381.209 103.12C382.422 103.12 383.426 103.598 384.219 104.555C385.012 105.488 385.409 106.865 385.409 108.685V123H380.509ZM365.669 123V103.54H370.429L370.534 107.145V123H365.669ZM373.089 123V109.28C373.089 108.673 372.996 108.23 372.809 107.95C372.646 107.67 372.389 107.53 372.039 107.53C371.432 107.53 370.954 107.95 370.604 108.79C370.254 109.63 369.951 110.913 369.694 112.64L369.729 109.805C369.636 108.452 369.787 107.273 370.184 106.27C370.581 105.267 371.106 104.497 371.759 103.96C372.436 103.4 373.159 103.12 373.929 103.12C375.166 103.12 376.146 103.633 376.869 104.66C377.592 105.663 377.954 106.982 377.954 108.615V123H373.089ZM395.573 123V103.54H401.033V123H395.573ZM389.273 123V118.59H407.403V123H389.273ZM391.723 107.95V103.54H398.303V107.95H391.723ZM395.363 100.95V95.84H401.173V100.95H395.363ZM421.346 123.42C419.293 123.42 417.52 123.012 416.026 122.195C414.556 121.378 413.425 120.212 412.631 118.695C411.861 117.178 411.476 115.37 411.476 113.27C411.476 111.123 411.885 109.292 412.701 107.775C413.541 106.258 414.708 105.103 416.201 104.31C417.695 103.517 419.456 103.12 421.486 103.12C423.26 103.12 424.823 103.435 426.176 104.065C427.553 104.695 428.638 105.582 429.431 106.725C430.248 107.845 430.691 109.187 430.761 110.75H425.301C425.115 109.677 424.695 108.883 424.041 108.37C423.411 107.833 422.56 107.565 421.486 107.565C420.6 107.565 419.806 107.787 419.106 108.23C418.43 108.673 417.893 109.315 417.496 110.155C417.123 110.995 416.936 112.033 416.936 113.27C416.936 115.113 417.356 116.537 418.196 117.54C419.06 118.543 420.11 119.045 421.346 119.045C422.07 119.045 422.7 118.917 423.236 118.66C423.796 118.403 424.263 118.042 424.636 117.575C425.01 117.085 425.266 116.537 425.406 115.93H430.866C430.726 117.447 430.236 118.765 429.396 119.885C428.556 121.005 427.448 121.88 426.071 122.51C424.695 123.117 423.12 123.42 421.346 123.42ZM461.554 113.865V109.14H467.049C467.749 109.14 468.355 109.012 468.869 108.755C469.405 108.498 469.814 108.137 470.094 107.67C470.397 107.203 470.549 106.678 470.549 106.095C470.549 105.535 470.409 105.045 470.129 104.625C469.872 104.205 469.51 103.878 469.044 103.645C468.577 103.412 468.04 103.295 467.434 103.295H461.554V98.57H467.434C469.207 98.57 470.77 98.8733 472.124 99.48C473.5 100.063 474.574 100.915 475.344 102.035C476.114 103.155 476.499 104.508 476.499 106.095C476.499 107.052 476.265 107.997 475.799 108.93C475.355 109.84 474.702 110.668 473.839 111.415C472.999 112.162 471.972 112.757 470.759 113.2C469.569 113.643 468.215 113.865 466.699 113.865H461.554ZM457.389 123V98.57H463.164V123H457.389ZM470.689 123C470.689 121.973 470.502 120.935 470.129 119.885C469.755 118.812 469.207 117.797 468.484 116.84C467.784 115.86 466.909 114.973 465.859 114.18C464.809 113.387 463.595 112.745 462.219 112.255L468.624 110.96C469.977 111.637 471.155 112.442 472.159 113.375C473.162 114.308 473.99 115.312 474.644 116.385C475.32 117.458 475.822 118.567 476.149 119.71C476.475 120.83 476.639 121.927 476.639 123H470.689ZM493.137 123L492.962 119.5V109.91C492.962 109 492.624 108.288 491.947 107.775C491.271 107.238 490.337 106.97 489.147 106.97C488.004 106.97 487.071 107.215 486.347 107.705C485.647 108.172 485.239 108.837 485.122 109.7H479.837C479.954 108.323 480.421 107.145 481.237 106.165C482.054 105.185 483.151 104.438 484.527 103.925C485.927 103.388 487.549 103.12 489.392 103.12C491.212 103.12 492.799 103.4 494.152 103.96C495.506 104.497 496.544 105.302 497.267 106.375C498.014 107.425 498.387 108.72 498.387 110.26V123H493.137ZM486.907 123.42C485.624 123.42 484.492 123.175 483.512 122.685C482.532 122.172 481.774 121.472 481.237 120.585C480.701 119.698 480.432 118.695 480.432 117.575C480.432 115.568 481.202 114.017 482.742 112.92C484.306 111.8 486.452 111.24 489.182 111.24H493.487V115.02L489.042 115.055C488.039 115.055 487.234 115.242 486.627 115.615C486.044 115.965 485.752 116.502 485.752 117.225C485.752 117.738 485.962 118.182 486.382 118.555C486.826 118.928 487.444 119.115 488.237 119.115C489.334 119.115 490.302 118.847 491.142 118.31C492.006 117.75 492.717 116.992 493.277 116.035L493.872 119.71C493.289 120.993 492.391 121.938 491.177 122.545C489.987 123.128 488.564 123.42 486.907 123.42ZM510.791 103.12C511.911 103.12 512.961 103.33 513.941 103.75C514.921 104.147 515.738 104.695 516.391 105.395V97.1H521.816V123H516.566L516.461 121.04C515.808 121.763 514.991 122.347 514.011 122.79C513.031 123.21 511.958 123.42 510.791 123.42C509.111 123.42 507.618 122.965 506.311 122.055C505.004 121.145 503.978 119.92 503.231 118.38C502.484 116.84 502.111 115.137 502.111 113.27C502.111 111.38 502.484 109.665 503.231 108.125C503.978 106.585 505.004 105.372 506.311 104.485C507.618 103.575 509.111 103.12 510.791 103.12ZM512.191 118.94C513.171 118.94 514.034 118.637 514.781 118.03C515.528 117.4 516.064 116.583 516.391 115.58V110.925C516.064 109.898 515.528 109.093 514.781 108.51C514.034 107.903 513.171 107.6 512.191 107.6C511.304 107.6 510.511 107.857 509.811 108.37C509.111 108.86 508.563 109.537 508.166 110.4C507.769 111.24 507.571 112.197 507.571 113.27C507.571 114.32 507.769 115.277 508.166 116.14C508.563 116.98 509.111 117.657 509.811 118.17C510.511 118.683 511.304 118.94 512.191 118.94ZM532.155 123V103.54H537.615V123H532.155ZM525.855 123V118.59H543.985V123H525.855ZM528.305 107.95V103.54H534.885V107.95H528.305ZM531.945 100.95V95.84H537.755V100.95H531.945ZM553.518 103.54V115.545C553.518 116.548 553.775 117.353 554.288 117.96C554.802 118.567 555.478 118.87 556.318 118.87C557.275 118.87 558.15 118.555 558.943 117.925C559.76 117.272 560.612 116.163 561.498 114.6L562.268 119.22C561.382 120.737 560.308 121.822 559.048 122.475C557.788 123.105 556.505 123.42 555.198 123.42C553.705 123.42 552.422 123.105 551.348 122.475C550.298 121.845 549.482 120.97 548.898 119.85C548.338 118.73 548.058 117.412 548.058 115.895V103.54H553.518ZM566.503 103.54V123H561.218L561.043 119.535V103.54H566.503ZM580.902 123.42C579.082 123.42 577.484 123.128 576.107 122.545C574.73 121.938 573.657 121.087 572.887 119.99C572.14 118.87 571.755 117.552 571.732 116.035H576.807C576.76 117.108 577.099 117.948 577.822 118.555C578.569 119.162 579.584 119.465 580.867 119.465C581.8 119.465 582.547 119.313 583.107 119.01C583.69 118.683 583.982 118.24 583.982 117.68C583.982 117.19 583.76 116.805 583.317 116.525C582.897 116.222 582.337 115.988 581.637 115.825C580.937 115.638 580.167 115.463 579.327 115.3C578.487 115.113 577.635 114.892 576.772 114.635C575.932 114.378 575.162 114.04 574.462 113.62C573.762 113.177 573.19 112.605 572.747 111.905C572.327 111.182 572.117 110.283 572.117 109.21C572.117 107.973 572.467 106.9 573.167 105.99C573.867 105.08 574.835 104.38 576.072 103.89C577.332 103.377 578.779 103.12 580.412 103.12C582.909 103.12 584.927 103.703 586.467 104.87C588.03 106.013 588.894 107.623 589.057 109.7H584.017C583.97 108.837 583.62 108.183 582.967 107.74C582.314 107.297 581.474 107.075 580.447 107.075C579.584 107.075 578.895 107.227 578.382 107.53C577.869 107.833 577.612 108.288 577.612 108.895C577.612 109.385 577.822 109.77 578.242 110.05C578.685 110.307 579.257 110.517 579.957 110.68C580.657 110.843 581.427 110.995 582.267 111.135C583.13 111.275 583.982 111.473 584.822 111.73C585.662 111.963 586.432 112.29 587.132 112.71C587.832 113.13 588.392 113.69 588.812 114.39C589.255 115.09 589.477 115.988 589.477 117.085C589.477 119.068 588.695 120.62 587.132 121.74C585.592 122.86 583.515 123.42 580.902 123.42Z" fill="black"/>
<defs>
<linearGradient id="paint0_linear_824_63" x1="71" y1="327" x2="622" y2="327" gradientUnits="userSpaceOnUse">
<stop stop-color="#15BD85"/>
<stop offset="1" stop-color="#D2FFD2"/>
</linearGradient>
<clipPath id="clip0_824_63">
<rect width="80" height="80" fill="white" transform="translate(582 10)"/>
</clipPath>
</defs>
</svg>
