<svg width="500" height="250" viewBox="0 0 500 250" fill="none" xmlns="http://www.w3.org/2000/svg">
<rect width="500" height="250" fill="#1F3647"/>
<path d="M500 24.5791L464.473 84.2344C463.033 86.6524 463.872 89.7822 466.328 91.1562L500 109.993V176.006L466.328 194.844C463.872 196.218 463.033 199.348 464.473 201.766L493.198 250H24.8018L53.5273 201.766C54.9672 199.348 54.128 196.218 51.6719 194.844L0 165.937V120.062L51.6719 91.1562C54.128 89.7822 54.9672 86.6524 53.5273 84.2344L3.76562 0.678711C3.63302 0.456033 3.52107 0.229013 3.42676 0H500V24.5791Z" fill="url(#paint0_radial_654_2136)" style="mix-blend-mode:screen"/>
<path d="M355.064 25.8682C355.026 28.6824 357.318 30.9737 360.132 30.9355L420.269 30.1211C424.177 30.0684 426.632 34.3199 424.632 37.6787L393.858 89.3516C392.418 91.7696 393.257 94.8993 395.713 96.2734L448.2 125.637C451.612 127.545 451.612 132.455 448.2 134.363L395.713 163.727C393.257 165.101 392.418 168.23 393.858 170.648L424.632 222.321C426.632 225.68 424.177 229.932 420.269 229.879L360.132 229.064C357.318 229.026 355.026 231.318 355.064 234.132L355.279 250H156.721L156.936 234.132C156.974 231.318 154.682 229.026 151.868 229.064L91.7314 229.879C87.8226 229.932 85.368 225.68 87.3682 222.321L118.142 170.648C119.582 168.23 118.743 165.101 116.287 163.727L63.7998 134.363C60.3883 132.455 60.3884 127.545 63.7998 125.637L116.287 96.2734C118.743 94.8993 119.582 91.7696 118.142 89.3516L87.3682 37.6787C85.368 34.3199 87.8226 30.0684 91.7314 30.1211L151.868 30.9355C154.682 30.9737 156.974 28.6824 156.936 25.8682L156.585 0H355.415L355.064 25.8682Z" fill="url(#paint1_radial_654_2136)" style="mix-blend-mode:screen"/>
<path d="M251.636 32.8C253.545 29.3882 258.455 29.3882 260.364 32.8L271.609 52.9018C272.983 55.358 276.113 56.1966 278.531 54.7565L298.321 42.9707C301.68 40.9703 305.932 43.4252 305.879 47.3343L305.567 70.3657C305.529 73.1799 307.82 75.4711 310.634 75.433L333.666 75.121C337.575 75.0681 340.03 79.3201 338.029 82.679L326.243 102.469C324.803 104.887 325.642 108.017 328.098 109.391L348.2 120.636C351.612 122.545 351.612 127.455 348.2 129.364L328.098 140.609C325.642 141.983 324.803 145.113 326.243 147.531L338.029 167.321C340.03 170.68 337.575 174.932 333.666 174.879L310.634 174.567C307.82 174.529 305.529 176.82 305.567 179.634L305.879 202.666C305.932 206.575 301.68 209.03 298.321 207.029L278.531 195.243C276.113 193.803 272.983 194.642 271.609 197.098L260.364 217.2C258.455 220.612 253.545 220.612 251.636 217.2L240.391 197.098C239.017 194.642 235.887 193.803 233.469 195.243L213.679 207.029C210.32 209.03 206.068 206.575 206.121 202.666L206.433 179.634C206.471 176.82 204.18 174.529 201.366 174.567L178.334 174.879C174.425 174.932 171.97 170.68 173.971 167.321L185.757 147.531C187.197 145.113 186.358 141.983 183.902 140.609L163.8 129.364C160.388 127.455 160.388 122.545 163.8 120.636L183.902 109.391C186.358 108.017 187.197 104.887 185.757 102.469L173.971 82.679C171.97 79.3201 174.425 75.0681 178.334 75.121L201.366 75.433C204.18 75.4711 206.471 73.1799 206.433 70.3657L206.121 47.3343C206.068 43.4252 210.32 40.9703 213.679 42.9707L233.469 54.7565C235.887 56.1966 239.017 55.358 240.391 52.9018L251.636 32.8Z" fill="url(#paint2_radial_654_2136)" style="mix-blend-mode:plus-lighter"/>
<rect width="500" height="250" fill="#E6E0A3" style="mix-blend-mode:color"/>
<g filter="url(#filter0_n_654_2136)">
<path d="M272.991 68.0278C272.991 68.0278 274.057 67.8839 274.551 68.2505C275.015 68.595 275.216 69.5685 275.22 69.5864C275.22 69.5864 275.249 71.5849 275.249 73.7671C269.375 75.727 265.119 81.2224 265.003 87.728C260.244 90.2425 257 95.2423 257 101C257 102.379 257.187 103.716 257.536 104.985C253.033 107.573 250 112.432 250 118C250 121.681 251.328 125.052 253.529 127.663C251.932 130.047 251 132.914 251 136C251 144.161 257.518 150.8 265.633 150.995C265.179 153.172 264.671 155.483 264.081 158.028C261.778 167.958 260.666 173.623 257.175 183.201C255.239 188.514 254.257 191.572 251.606 196.567C249.885 199.809 248.879 201.629 246.704 204.586C244.804 207.171 243.743 208.678 241.359 210.825C238.363 213.521 236.246 214.536 232.67 216.394C229.487 218.048 227.618 218.853 224.205 219.958C216.372 222.496 211.492 222.105 203.264 222.409C193.773 222.759 188.406 222.245 178.982 221.072C165.348 219.375 144.675 213.275 144.675 213.275L139.775 208.82C139.775 208.82 134.503 194.583 131.978 185.206C129.595 176.358 128.093 171.366 127.076 162.26C125.937 152.058 125.734 146.151 127.076 135.973C127.632 131.761 127.82 129.337 129.081 125.28C130.353 121.189 131.287 118.901 133.536 115.255C135.455 112.145 136.74 110.484 139.328 107.904C143.874 103.371 147.541 102.13 153.141 98.9927C163.346 93.2749 169.711 91.2369 180.764 87.4087C194.024 82.8163 201.842 81.4237 215.517 78.2749C237.69 73.1693 272.849 68.0486 272.991 68.0278Z" fill="url(#paint3_linear_654_2136)"/>
</g>
<path d="M104.831 246.591C105.662 247.846 106.004 248.591 106.688 250.001H93.4651C93.4384 249.933 93.4115 249.863 93.3845 249.793C92.5517 247.619 92.0711 246.421 91.9571 246.131C91.8462 245.849 91.5306 244.346 91.362 242.265C91.2899 241.375 91.2459 241.13 91.3221 240.818C91.642 239.511 91.7453 238.666 91.7897 238.159C91.8374 237.614 91.9418 236.919 91.999 236.467C92.0795 235.83 92.2171 235.156 92.3249 234.76C92.4257 234.39 92.5114 233.952 92.6152 233.458C92.7341 232.892 92.5218 231.741 92.9495 231.812C93.1012 231.837 93.301 231.956 93.4796 232.115C93.8001 232.4 94.1293 232.653 94.4094 232.974C94.6895 233.294 95.0973 233.653 95.4354 233.998C95.7452 234.315 96.4126 234.817 96.8464 235.24C97.2237 235.608 97.6977 236.015 97.9884 236.354C98.3209 236.741 98.7486 237.313 99.042 237.82C99.3717 238.39 99.9107 239.135 100.712 240.411C101.246 241.263 102.182 242.788 102.738 243.646C103.294 244.503 103.479 244.676 103.588 244.834C103.899 245.283 104.336 245.844 104.831 246.591Z" fill="#96D62A"/>
<path d="M113.932 242.235C112.479 244.945 111.89 246.577 110.591 249.364C110.488 249.585 110.388 249.796 110.29 250H118.196C119.168 247.811 120.163 245.992 121.539 243.475L121.729 243.126C125.838 235.609 134.205 225.082 134.205 225.082L273.66 70.0323L241.135 103.448L145.343 203.473L134.205 215.28L122.398 229.76C122.398 229.76 116.716 237.047 113.932 242.235Z" fill="#299F6B"/>
<path d="M144.097 121.039C143.983 121.153 143.87 121.267 143.469 124.002C143.069 126.738 142.385 132.091 142.033 138.664C141.681 145.238 141.681 152.869 141.795 157.142C141.928 162.109 142.485 163.6 142.829 165.207C143.185 166.874 145.347 172.533 147.877 180.181C149.258 184.358 150.075 186.149 150.71 187.935C151.255 189.465 152.374 190.981 153.413 192.767C153.644 193.173 153.872 193.515 154.103 193.862C154.335 194.208 154.562 194.55 155.487 195.593" stroke="#299F6B" stroke-width="3" stroke-linecap="round"/>
<path d="M155.833 196.628C157.199 197.084 160.181 198.343 164.886 200.238C173.005 203.508 176.984 203.296 180.782 204.045C183.789 204.638 188.591 205.713 193.649 206.517C198.067 207.219 201.49 207.556 206.208 207.73C207.944 207.794 212.628 208.018 219.294 207.904C224.902 207.808 226.237 206.527 228.479 205.606C230.379 204.684 233.589 203.31 235.558 202.154C235.905 201.923 236.247 201.695 237.289 201.115" stroke="#299F6B" stroke-width="3" stroke-linecap="round"/>
<path d="M174.126 111.72C174.126 112.176 174.126 112.631 174.126 117.251C174.126 121.871 174.126 130.641 174.24 135.672C174.354 140.703 174.582 141.728 175.61 144.42C180.185 156.394 180.037 157.646 180.764 159.587C181.433 161.369 182.417 164.968 182.992 165.602C184.703 167.487 185.04 162.327 186.552 163.493" stroke="#299F6B" stroke-width="3" stroke-linecap="round"/>
<path d="M184.997 166.888C186.333 166.888 190.12 166.311 192.125 166.311C194.749 166.311 197.465 166.137 200.404 166.311C203.691 166.506 206.901 166.827 215.396 166.888C219.344 166.916 222.088 166.372 225.307 166.027C232.311 165.275 235.894 163.728 238.488 163.15C240.046 162.689 241.082 162.344 241.77 162.114C242.117 161.999 242.459 161.885 243.501 161.767" stroke="#299F6B" stroke-width="3" stroke-linecap="round"/>
<path d="M240.049 82.9527C240.878 82.9527 241.549 83.6243 241.549 84.4527C241.549 85.6158 241.712 87.6691 241.966 89.6861C242.227 91.7525 242.556 93.5395 242.833 94.275C243.051 94.8571 243.372 95.4585 243.758 96.1451C244.126 96.7986 244.569 97.5554 244.919 98.3179C245.008 98.5104 245.118 98.6425 245.188 98.6988C245.392 98.8637 245.855 99.0064 246.954 98.8707C247.463 98.8077 248.023 98.6981 248.645 98.566C249.247 98.4382 249.925 98.2859 250.585 98.1656C252.108 97.8881 254.397 97.2469 256.65 97.0582C256.962 97.0066 257.268 96.9608 257.562 96.9185C257.28 97.9191 257.099 98.962 257.031 100.036L257.023 100.038L256.958 100.043C254.854 100.21 253.109 100.755 251.124 101.117C250.52 101.227 249.918 101.362 249.267 101.501C248.637 101.634 247.97 101.768 247.322 101.848C246.105 101.998 244.527 102.023 243.301 101.032C242.795 100.622 242.428 100.081 242.193 99.5699C241.908 98.9503 241.55 98.3371 241.144 97.6158C240.757 96.9275 240.332 96.1489 240.024 95.3297C239.605 94.2134 239.244 92.0801 238.99 90.0621C238.729 87.9946 238.549 85.7989 238.549 84.4527C238.549 83.6243 239.221 82.9527 240.049 82.9527Z" fill="#299F6B"/>
<path d="M208.61 97.2701C209.438 97.2701 210.11 97.9417 210.11 98.7701C210.11 101.895 210.789 110.764 211.46 114.176C211.61 114.938 211.997 115.757 212.504 116.628C212.755 117.057 213.016 117.469 213.279 117.885C213.532 118.288 213.797 118.71 214.011 119.106C214.337 119.708 214.763 120.333 215.253 121.015C215.724 121.67 216.277 122.409 216.757 123.129C217.61 124.409 218.878 125.882 220.22 126.917C220.688 127.277 221.395 127.647 222.461 128.067C223.519 128.484 224.837 128.916 226.481 129.436C228.777 130.163 230.904 130.409 235.254 130.695C239.234 130.957 242.667 130.942 245.21 130.836C247.813 130.726 249.366 130.525 249.658 130.452C250.627 130.209 251.538 129.978 252.375 129.722C251.878 130.798 251.504 131.941 251.273 133.136C250.973 133.213 250.677 133.289 250.385 133.362C249.758 133.519 247.917 133.725 245.336 133.834C242.695 133.945 239.154 133.958 235.057 133.688C230.703 133.401 228.252 133.144 225.576 132.296C223.939 131.778 222.528 131.318 221.362 130.858C220.204 130.402 219.189 129.91 218.388 129.293C216.731 128.015 215.251 126.278 214.261 124.794C213.82 124.132 213.338 123.491 212.817 122.766C212.315 122.068 211.793 121.313 211.372 120.533C211.212 120.238 211.002 119.898 210.741 119.484C210.489 119.084 210.195 118.622 209.914 118.139C209.357 117.185 208.766 116.017 208.517 114.755C207.798 111.102 207.11 102.03 207.11 98.7701C207.11 97.9417 207.781 97.2701 208.61 97.2701Z" fill="#299F6B"/>
<path d="M92.9492 231.812C93.1009 231.837 93.3009 231.956 93.4795 232.115C93.7999 232.399 94.1291 232.654 94.4092 232.974C94.6892 233.294 95.0975 233.653 95.4355 233.998C95.7455 234.315 96.4129 234.816 96.8467 235.24C97.224 235.608 97.6976 236.015 97.9883 236.354C98.3208 236.741 98.7486 237.314 99.042 237.821C99.3717 238.39 99.9102 239.135 100.711 240.411C101.246 241.264 102.181 242.789 102.737 243.646C103.293 244.502 103.479 244.675 103.588 244.833C103.899 245.282 104.336 245.845 104.83 246.591C105.661 247.846 106.004 248.591 106.688 250.001H93.4648C93.4381 249.933 93.4118 249.863 93.3848 249.792C92.552 247.619 92.0711 246.421 91.957 246.131C91.8461 245.849 91.5309 244.346 91.3623 242.265C91.2902 241.375 91.2462 241.13 91.3223 240.819C91.6421 239.511 91.7456 238.666 91.79 238.158C91.8377 237.614 91.9418 236.919 91.999 236.467C92.0796 235.83 92.2174 235.156 92.3252 234.76C92.426 234.39 92.5114 233.952 92.6152 233.458C92.7341 232.893 92.5217 231.741 92.9492 231.812ZM272.991 68.0276C273.003 68.0261 274.059 67.8861 274.551 68.2503C275.012 68.5932 275.213 69.5579 275.219 69.5862C275.219 69.5862 275.248 71.5847 275.248 73.7669C269.374 75.727 265.118 81.2226 265.002 87.7278C261.331 89.6675 258.564 93.0866 257.489 97.1907C257.464 97.2858 257.44 97.3811 257.417 97.4768C257.311 97.9157 257.224 98.3618 257.158 98.8147C257.15 98.8738 257.143 98.9332 257.135 98.9925C257.047 99.649 256.999 100.319 256.999 100.999C256.999 102.379 257.186 103.716 257.535 104.985C253.032 107.573 249.999 112.432 249.999 117.999C249.999 121.681 251.327 125.052 253.527 127.662C253.088 128.318 252.702 129.011 252.369 129.734C252.133 130.246 251.926 130.774 251.748 131.315C251.264 132.789 250.999 134.363 250.999 135.999C250.999 144.161 257.518 150.799 265.632 150.994C265.177 153.172 264.67 155.483 264.08 158.028C261.777 167.958 260.664 173.623 257.174 183.2C255.238 188.513 254.256 191.572 251.604 196.567C249.883 199.808 248.878 201.629 246.704 204.586C244.804 207.171 243.742 208.678 241.357 210.824C238.362 213.52 236.245 214.535 232.669 216.394C229.487 218.048 227.616 218.853 224.204 219.958C216.371 222.495 211.491 222.105 203.264 222.408C193.773 222.759 188.406 222.244 178.981 221.072C165.947 219.449 146.481 213.803 144.793 213.309L134.205 225.081C134.205 225.081 125.838 235.609 121.729 243.126L121.538 243.476C120.162 245.992 119.167 247.812 118.195 250H110.29C110.387 249.796 110.488 249.584 110.591 249.364C111.89 246.577 112.479 244.945 113.933 242.236C116.709 237.062 122.366 229.8 122.397 229.76L134.205 215.28L140.056 209.076L139.773 208.82C139.744 208.739 134.495 194.556 131.977 185.205C129.594 176.358 128.092 171.366 127.075 162.26C125.936 152.058 125.732 146.15 127.075 135.973C127.631 131.761 127.819 129.337 129.08 125.28C130.351 121.189 131.287 118.901 133.536 115.255C135.455 112.144 136.74 110.484 139.328 107.904C143.873 103.371 147.54 102.13 153.14 98.9925C163.345 93.2746 169.71 91.2367 180.764 87.4085C194.023 82.8162 201.841 81.4234 215.516 78.2747C237.69 73.1688 272.853 68.0478 272.991 68.0276Z" fill="url(#paint4_radial_654_2136)" fill-opacity="0.5" style="mix-blend-mode:luminosity"/>
<defs>
<filter id="filter0_n_654_2136" x="126.144" y="68" width="149.105" height="154.517" filterUnits="userSpaceOnUse" color-interpolation-filters="sRGB">
<feFlood flood-opacity="0" result="BackgroundImageFix"/>
<feBlend mode="normal" in="SourceGraphic" in2="BackgroundImageFix" result="shape"/>
<feTurbulence type="fractalNoise" baseFrequency="0.011507479473948479 0.011507479473948479" stitchTiles="stitch" numOctaves="3" result="noise" seed="432" />
<feColorMatrix in="noise" type="luminanceToAlpha" result="alphaNoise" />
<feComponentTransfer in="alphaNoise" result="coloredNoise1">
<feFuncA type="discrete" tableValues="0 0 0 0 0 1 1 1 1 1 1 1 1 1 1 1 1 1 1 1 1 1 1 1 1 1 1 1 1 1 1 1 1 1 1 1 1 1 1 1 1 1 1 1 1 0 0 0 0 0 0 0 0 0 0 0 0 0 0 0 0 0 0 0 0 0 0 0 0 0 0 0 0 0 0 0 0 0 0 0 0 0 0 0 0 0 0 0 0 0 0 0 0 0 0 0 0 0 0 0 "/>
</feComponentTransfer>
<feComposite operator="in" in2="shape" in="coloredNoise1" result="noise1Clipped" />
<feComponentTransfer in="alphaNoise" result="coloredNoise2">
<feFuncA type="discrete" tableValues="0 0 0 0 0 0 0 0 0 0 0 0 0 0 0 0 0 0 0 0 0 0 0 0 0 0 0 0 0 0 0 0 0 0 0 0 0 0 0 0 0 0 0 0 0 0 0 0 0 0 0 0 0 0 0 1 1 1 1 1 1 1 1 1 1 1 1 1 1 1 1 1 1 1 1 1 1 1 1 1 1 1 1 1 1 1 1 1 1 1 1 1 1 1 1 0 0 0 0 0 "/>
</feComponentTransfer>
<feComposite operator="in" in2="shape" in="coloredNoise2" result="noise2Clipped" />
<feFlood flood-color="rgba(21, 189, 133, 0.1)" result="color1Flood" />
<feComposite operator="in" in2="noise1Clipped" in="color1Flood" result="color1" />
<feFlood flood-color="rgba(41, 159, 107, 0.1)" result="color2Flood" />
<feComposite operator="in" in2="noise2Clipped" in="color2Flood" result="color2" />
<feMerge result="effect1_noise_654_2136">
<feMergeNode in="shape" />
<feMergeNode in="color1" />
<feMergeNode in="color2" />
</feMerge>
</filter>
<radialGradient id="paint0_radial_654_2136" cx="0" cy="0" r="1" gradientUnits="userSpaceOnUse" gradientTransform="translate(259 143) rotate(90) scale(300)">
<stop stop-color="#8B4537" stop-opacity="0"/>
<stop offset="0.4375" stop-color="#8B4537"/>
<stop offset="0.6875" stop-color="#25120F"/>
<stop offset="0.985577" stop-color="#25120F" stop-opacity="0"/>
</radialGradient>
<radialGradient id="paint1_radial_654_2136" cx="0" cy="0" r="1" gradientUnits="userSpaceOnUse" gradientTransform="translate(256 130) rotate(90) scale(200)">
<stop stop-color="white" stop-opacity="0"/>
<stop offset="0.346154" stop-color="#F1775F"/>
<stop offset="0.673077" stop-color="#8B4537"/>
<stop offset="1" stop-color="#8B4537" stop-opacity="0"/>
</radialGradient>
<radialGradient id="paint2_radial_654_2136" cx="0" cy="0" r="1" gradientUnits="userSpaceOnUse" gradientTransform="translate(256 125) rotate(90) scale(94)">
<stop stop-color="white"/>
<stop offset="0.5" stop-color="#F1D85F"/>
<stop offset="1" stop-color="#F1D85F" stop-opacity="0"/>
</radialGradient>
<linearGradient id="paint3_linear_654_2136" x1="143.116" y1="210.602" x2="275.442" y2="68.0276" gradientUnits="userSpaceOnUse">
<stop stop-color="#A4DF20"/>
<stop offset="1" stop-color="#98BF40"/>
</linearGradient>
<radialGradient id="paint4_radial_654_2136" cx="0" cy="0" r="1" gradientUnits="userSpaceOnUse" gradientTransform="translate(256.5 114) rotate(145.267) scale(144.801 143.302)">
<stop stop-color="white"/>
<stop offset="1" stop-color="#78660D"/>
</radialGradient>
</defs>
</svg>
