<svg width="500" height="261" viewBox="0 0 500 261" fill="none" xmlns="http://www.w3.org/2000/svg">
<g filter="url(#filter0_n_654_2136)">
<rect y="7" width="500" height="250" fill="url(#paint0_radial_654_2136)"/>
</g>
<g filter="url(#filter1_d_654_2136)">
<g filter="url(#filter2_n_654_2136)">
<path d="M345.991 24.0283C345.991 24.0283 347.057 23.8844 347.551 24.2509C348.015 24.5955 348.216 25.569 348.22 25.5869C348.22 25.5869 348.249 27.5853 348.249 29.7675C342.375 31.7274 338.119 37.2228 338.003 43.7285C333.244 46.2429 330 51.2427 330 56.9999C330 58.3799 330.187 59.7161 330.536 60.9853C326.033 63.5736 323 68.4329 323 73.9999C323 77.6816 324.328 81.0527 326.529 83.663C324.932 86.0472 324 88.9148 324 91.9999C324 100.162 330.518 106.8 338.633 106.995C338.179 109.173 337.671 111.483 337.081 114.028C334.778 123.958 333.666 129.623 330.175 139.201C328.239 144.514 327.257 147.573 324.606 152.567C322.885 155.809 321.879 157.63 319.704 160.587C317.804 163.172 316.743 164.679 314.359 166.825C311.363 169.521 309.246 170.536 305.67 172.394C302.487 174.048 300.618 174.854 297.205 175.959C289.372 178.496 284.492 178.106 276.264 178.409C266.773 178.759 261.406 178.245 251.982 177.072C238.348 175.375 217.675 169.275 217.675 169.275L212.775 164.82C212.775 164.82 207.503 150.583 204.978 141.206C202.595 132.358 201.093 127.367 200.076 118.261C198.937 108.058 198.734 102.151 200.076 91.9736C200.632 87.7614 200.82 85.3375 202.081 81.2802C203.353 77.1892 204.287 74.9019 206.536 71.2558C208.455 68.1451 209.74 66.4848 212.328 63.9042C216.874 59.3719 220.541 58.1307 226.141 54.9931C236.346 49.2754 242.711 47.2373 253.764 43.4091C267.024 38.8167 274.842 37.4241 288.517 34.2753C310.69 29.1697 345.849 24.049 345.991 24.0283Z" fill="url(#paint1_linear_654_2136)"/>
</g>
<path d="M229.6 179.604H231.571C231.541 179.694 231.458 179.959 231.428 180.047C231.369 180.224 231.28 180.401 231.162 180.578C230.926 180.932 230.644 181.259 230.47 181.639C230.307 181.993 230.078 182.394 229.762 182.745C229.217 183.349 228.861 183.817 228.362 184.365C227.919 184.852 227.499 185.26 227.154 185.514C226.771 185.794 226.076 186.402 225.4 186.929C224.193 187.868 222.478 189.237 222.041 189.537C221.525 189.889 220.64 190.423 219.949 190.833C219.55 191.069 219.076 191.355 218.519 191.643C217.748 192.043 216.757 192.466 216.31 192.674C215.895 192.867 215.456 193.185 214.82 193.367C214.512 193.455 213.197 193.999 210.842 194.564C208.579 195.107 207.328 195.428 207.026 195.503C206.732 195.576 205.201 195.694 203.115 195.591C202.223 195.546 201.975 195.558 201.676 195.442C200.421 194.955 199.597 194.743 199.1 194.633C198.566 194.515 197.89 194.321 197.449 194.205C196.828 194.043 196.178 193.819 195.799 193.66C195.445 193.512 195.023 193.37 194.546 193.203C194.001 193.012 192.831 193.073 192.957 192.658C193.002 192.511 193.146 192.328 193.327 192.171C193.651 191.891 193.945 191.597 194.299 191.361C194.653 191.125 195.062 190.768 195.448 190.477C195.803 190.211 196.387 189.615 196.863 189.239C197.277 188.913 197.742 188.496 198.116 188.252C198.543 187.973 199.166 187.623 199.707 187.398C200.315 187.145 201.123 186.708 202.493 186.079C203.407 185.66 205.041 184.931 205.963 184.491C206.885 184.051 207.081 183.89 207.252 183.802C207.737 183.552 208.351 183.192 209.155 182.799C210.508 182.138 211.291 181.895 212.778 181.4C213.486 181.165 214.156 181.051 215.065 180.662C216.578 180.016 216.909 179.768 219.288 179.589C220.256 179.516 221.51 179.516 222.228 179.531C222.945 179.546 223.12 179.575 224.485 179.589C225.85 179.604 228.33 179.604 229.6 179.604Z" fill="#96D62A"/>
<path d="M183.656 222.447L183.912 224.401C183.818 224.383 183.546 224.335 183.454 224.317C183.271 224.282 183.083 224.217 182.893 224.123C182.511 223.935 182.15 223.698 181.751 223.574C181.379 223.459 180.951 223.283 180.563 223.016C179.893 222.554 179.382 222.263 178.774 221.839C178.234 221.462 177.774 221.099 177.478 220.79C177.15 220.447 176.458 219.837 175.847 219.235C174.759 218.161 173.178 216.638 172.825 216.243C172.408 215.778 171.764 214.97 171.268 214.338C170.982 213.973 170.637 213.54 170.278 213.025C169.782 212.313 169.234 211.385 168.969 210.969C168.724 210.583 168.351 210.189 168.088 209.582C167.961 209.288 167.251 208.054 166.384 205.793C165.552 203.62 165.071 202.421 164.957 202.132C164.846 201.85 164.531 200.347 164.362 198.265C164.29 197.375 164.246 197.13 164.322 196.819C164.642 195.511 164.745 194.667 164.79 194.159C164.837 193.615 164.942 192.919 164.999 192.467C165.079 191.83 165.217 191.157 165.325 190.761C165.426 190.39 165.511 189.953 165.615 189.459C165.734 188.893 165.522 187.741 165.949 187.812C166.101 187.837 166.301 187.956 166.48 188.115C166.8 188.4 167.129 188.654 167.409 188.974C167.689 189.295 168.097 189.653 168.435 189.999C168.745 190.315 169.413 190.817 169.846 191.24C170.224 191.609 170.698 192.015 170.988 192.354C171.321 192.742 171.749 193.314 172.042 193.821C172.372 194.391 172.911 195.135 173.711 196.412C174.246 197.264 175.182 198.789 175.738 199.646C176.294 200.503 176.479 200.676 176.588 200.834C176.899 201.283 177.336 201.845 177.83 202.591C178.662 203.847 179.004 204.591 179.688 206.002C180.013 206.672 180.214 207.322 180.717 208.173C181.554 209.589 181.843 209.885 182.33 212.221C182.529 213.171 182.692 214.414 182.77 215.128C182.848 215.841 182.842 216.018 183.005 217.374C183.168 218.729 183.49 221.188 183.656 222.447Z" fill="#96D62A"/>
<path d="M180.509 234.594C181.208 235.49 181.657 236.066 182.7 236.552C183.274 236.82 183.626 236.977 184.259 236.998C184.976 237.022 185.379 236.827 186.041 236.552C186.911 236.192 187.492 235.976 188.046 235.216C188.532 234.549 188.539 234.017 188.715 233.211C188.864 232.526 188.937 231.429 188.937 231.429C188.937 231.429 187.416 228.96 186.932 227.196C186.196 224.511 186.562 222.827 186.932 220.067C187.062 219.103 187.181 218.569 187.378 217.617C188.059 214.329 188.656 212.521 189.828 209.374C191.33 205.343 192.527 203.154 194.539 199.476L194.729 199.127C198.838 191.609 207.205 181.082 207.205 181.082L346.66 26.0327L314.135 59.4485L218.343 159.473L207.205 171.28L195.398 185.76C195.398 185.76 189.716 193.048 186.932 198.236C185.479 200.945 184.89 202.578 183.591 205.364C182.456 207.798 181.681 209.104 180.695 211.602C179.786 213.905 178.69 217.617 178.69 217.617C178.69 217.617 177.364 225.404 178.69 230.092C179.2 231.895 179.319 233.071 180.472 234.548L180.509 234.594Z" fill="#299F6B"/>
<path d="M217.097 77.0395C216.983 77.1534 216.87 77.2673 216.469 80.0026C216.069 82.738 215.385 88.0914 215.033 94.6648C214.681 101.238 214.681 108.87 214.795 113.143C214.928 118.109 215.485 119.601 215.829 121.207C216.185 122.875 218.347 128.533 220.877 136.182C222.258 140.359 223.075 142.15 223.71 143.936C224.255 145.466 225.374 146.982 226.413 148.768C226.644 149.173 226.872 149.515 227.103 149.862C227.335 150.209 227.562 150.551 228.487 151.593" stroke="#299F6B" stroke-width="3" stroke-linecap="round"/>
<path d="M228.833 152.628C230.199 153.084 233.181 154.344 237.886 156.239C246.005 159.509 249.984 159.297 253.782 160.046C256.789 160.639 261.591 161.713 266.649 162.517C271.067 163.22 274.49 163.556 279.208 163.73C280.944 163.795 285.628 164.019 292.294 163.905C297.902 163.809 299.237 162.528 301.479 161.606C303.379 160.684 306.589 159.311 308.558 158.154C308.905 157.923 309.247 157.695 310.289 157.115" stroke="#299F6B" stroke-width="3" stroke-linecap="round"/>
<path d="M247.126 67.7205C247.126 68.1761 247.126 68.6317 247.126 73.2516C247.126 77.8715 247.126 86.6419 247.24 91.6725C247.354 96.7031 247.582 97.7282 248.61 100.42C253.185 112.395 253.037 113.647 253.764 115.587C254.433 117.369 255.417 120.969 255.992 121.602C257.703 123.487 258.04 118.327 259.552 119.494" stroke="#299F6B" stroke-width="3" stroke-linecap="round"/>
<path d="M257.997 122.888C259.334 122.888 263.121 122.312 265.126 122.312C267.749 122.312 270.465 122.138 273.404 122.312C276.692 122.507 279.902 122.828 288.396 122.888C292.345 122.916 295.089 122.372 298.307 122.027C305.312 121.276 308.895 119.728 311.489 119.15C313.047 118.689 314.082 118.344 314.771 118.115C315.118 117.999 315.46 117.885 316.502 117.768" stroke="#299F6B" stroke-width="3" stroke-linecap="round"/>
<path d="M313.05 38.9531C313.878 38.9531 314.55 39.6247 314.55 40.4531C314.55 41.6162 314.712 43.6695 314.967 45.6865C315.228 47.7529 315.557 49.5399 315.833 50.2754C316.052 50.8575 316.373 51.4589 316.759 52.1455C317.126 52.799 317.57 53.5558 317.92 54.3184C318.008 54.5108 318.119 54.6429 318.188 54.6992C318.393 54.8641 318.855 55.0068 319.954 54.8711C320.464 54.8081 321.023 54.6985 321.646 54.5664C322.248 54.4386 322.926 54.2863 323.586 54.166C325.109 53.8885 327.398 53.2474 329.65 53.0586C329.963 53.007 330.269 52.9613 330.562 52.9189C330.28 53.9195 330.099 54.9624 330.031 56.0361L330.023 56.0381L329.959 56.043C327.854 56.2105 326.11 56.7552 324.124 57.1172C323.52 57.2272 322.918 57.3629 322.268 57.501C321.637 57.6347 320.97 57.7686 320.322 57.8486C319.106 57.9989 317.528 58.0233 316.302 57.0322C315.795 56.6226 315.428 56.0817 315.193 55.5703C314.909 54.9507 314.55 54.3375 314.145 53.6162C313.757 52.9279 313.332 52.1493 313.024 51.3301C312.605 50.2138 312.245 48.0805 311.99 46.0625C311.729 43.9951 311.55 41.7993 311.55 40.4531C311.55 39.6247 312.221 38.9531 313.05 38.9531Z" fill="#299F6B"/>
<path d="M281.61 53.2705C282.439 53.2705 283.11 53.9421 283.11 54.7705C283.11 57.8957 283.789 66.7649 284.461 70.1768C284.611 70.9385 284.997 71.7574 285.505 72.6279C285.755 73.0573 286.017 73.4691 286.279 73.8857C286.533 74.2883 286.798 74.7102 287.012 75.1064C287.337 75.7082 287.764 76.3339 288.254 77.0156C288.725 77.6707 289.278 78.4097 289.758 79.1299C290.611 80.4094 291.879 81.8823 293.221 82.917C293.688 83.2773 294.395 83.6471 295.462 84.0674C296.52 84.4842 297.838 84.916 299.481 85.4365C301.778 86.1637 303.905 86.409 308.255 86.6953C312.235 86.9573 315.668 86.9428 318.211 86.8359C320.814 86.7265 322.367 86.525 322.658 86.4521C323.628 86.2098 324.538 85.9785 325.375 85.7227C324.879 86.7983 324.504 87.9418 324.273 89.1367C323.973 89.2131 323.677 89.2894 323.386 89.3623C322.759 89.519 320.918 89.7255 318.337 89.834C315.696 89.945 312.154 89.9581 308.058 89.6885C303.703 89.4019 301.252 89.1443 298.576 88.2969C296.94 87.7786 295.529 87.318 294.362 86.8584C293.205 86.4022 292.189 85.9101 291.389 85.293C289.732 84.0153 288.252 82.2788 287.262 80.7939C286.82 80.1321 286.338 79.491 285.817 78.7666C285.316 78.0688 284.794 77.3136 284.372 76.5332C284.213 76.2385 284.002 75.8987 283.741 75.4844C283.489 75.084 283.196 74.6227 282.914 74.1396C282.357 73.1851 281.766 72.0177 281.518 70.7559C280.798 67.1024 280.11 58.0309 280.11 54.7705C280.11 53.9421 280.782 53.2705 281.61 53.2705Z" fill="#299F6B"/>
</g>
<path d="M335.082 30.5122C335.645 28.5991 338.355 28.5991 338.918 30.5122L343.9 47.4233C344.298 48.7715 345.925 49.3003 347.039 48.443L361.009 37.69C362.59 36.4735 364.782 38.0663 364.114 39.9453L358.204 56.555C357.733 57.8792 358.739 59.2635 360.144 59.2246L377.767 58.7369C379.76 58.6818 380.598 61.2589 378.952 62.3861L364.408 72.3501C363.249 73.1444 363.249 74.8556 364.408 75.6499L378.952 85.6139C380.598 86.7411 379.76 89.3182 377.767 89.2631L360.144 88.7754C358.739 88.7365 357.733 90.1208 358.204 91.445L364.114 108.055C364.782 109.934 362.59 111.526 361.009 110.31L347.039 99.557C345.925 98.6997 344.298 99.2285 343.9 100.577L338.918 117.488C338.355 119.401 335.645 119.401 335.082 117.488L330.1 100.577C329.702 99.2285 328.075 98.6997 326.961 99.557L312.991 110.31C311.41 111.526 309.218 109.934 309.886 108.055L315.796 91.445C316.267 90.1208 315.261 88.7365 313.856 88.7754L296.233 89.2631C294.24 89.3182 293.402 86.7411 295.048 85.6139L309.592 75.6499C310.751 74.8556 310.751 73.1444 309.592 72.3501L295.048 62.3861C293.402 61.2589 294.24 58.6818 296.233 58.7369L313.856 59.2246C315.261 59.2635 316.267 57.8792 315.796 56.555L309.886 39.9453C309.218 38.0663 311.41 36.4735 312.991 37.69L326.961 48.443C328.075 49.3003 329.702 48.7715 330.1 47.4233L335.082 30.5122Z" fill="#F1775F" style="mix-blend-mode:color-dodge"/>
<path d="M12.0811 152.512C12.6448 150.599 15.3552 150.599 15.9189 152.512L28.626 195.647C29.0232 196.995 30.6508 197.524 31.7646 196.667L67.3984 169.239C68.9788 168.023 71.1712 169.615 70.5029 171.494L55.4297 213.86C54.9585 215.185 55.9641 216.569 57.3691 216.53L102.319 215.286C104.313 215.231 105.15 217.808 103.505 218.936L66.4082 244.35C65.2488 245.144 65.249 246.855 66.4082 247.649L80.0566 257H0V193.522L12.0811 152.512Z" fill="#0077CC" style="mix-blend-mode:color-dodge"/>
<path d="M19.0869 15.9648C19.4841 17.313 21.1118 17.8425 22.2256 16.9854L32.5137 9.06641C34.0941 7.8505 36.2857 9.44342 35.6172 11.3223L31.2656 23.5527C30.7945 24.8769 31.8002 26.2614 33.2051 26.2227L46.1826 25.8633C48.1762 25.8082 49.0134 28.3855 47.3682 29.5127L36.6582 36.8496C35.4987 37.644 35.4987 39.356 36.6582 40.1504L47.3682 47.4873C49.0134 48.6145 48.1762 51.1918 46.1826 51.1367L33.2051 50.7773C31.8002 50.7386 30.7945 52.1231 31.2656 53.4473L35.6172 65.6777C36.2857 67.5566 34.0941 69.1495 32.5137 67.9336L22.2256 60.0146C21.1118 59.1575 19.4841 59.687 19.0869 61.0352L15.4189 73.4883C14.8552 75.401 12.1448 75.401 11.5811 73.4883L7.91309 61.0352C7.51591 59.687 5.88822 59.1575 4.77441 60.0146L0 63.6895V13.3096L4.77441 16.9854C5.88822 17.8425 7.51591 17.313 7.91309 15.9648L10.5537 7H16.4463L19.0869 15.9648Z" fill="#4583B0" style="mix-blend-mode:color-dodge"/>
<path d="M94.5815 96.5122C95.1451 94.5991 97.8549 94.5991 98.4185 96.5122L102.087 108.965C102.484 110.314 104.112 110.842 105.225 109.985L115.513 102.067C117.094 100.85 119.286 102.443 118.617 104.322L114.266 116.553C113.795 117.877 114.8 119.262 116.205 119.223L129.183 118.864C131.176 118.808 132.014 121.386 130.368 122.513L119.658 129.85C118.499 130.644 118.499 132.356 119.658 133.15L130.368 140.487C132.014 141.614 131.176 144.192 129.183 144.136L116.205 143.777C114.8 143.738 113.795 145.123 114.266 146.447L118.617 158.678C119.286 160.557 117.094 162.15 115.513 160.933L105.225 153.015C104.112 152.158 102.484 152.686 102.087 154.035L98.4185 166.488C97.8549 168.401 95.1451 168.401 94.5815 166.488L90.9129 154.035C90.5157 152.686 88.8883 152.158 87.7745 153.015L77.4868 160.933C75.9063 162.15 73.7141 160.557 74.3826 158.678L78.7343 146.447C79.2055 145.123 78.1997 143.738 76.7947 143.777L63.8175 144.136C61.8238 144.192 60.9865 141.614 62.6318 140.487L73.3417 133.15C74.5012 132.356 74.5012 130.644 73.3417 129.85L62.6318 122.513C60.9865 121.386 61.8238 118.808 63.8175 118.864L76.7947 119.223C78.1997 119.262 79.2055 117.877 78.7343 116.553L74.3826 104.322C73.7141 102.443 75.9063 100.85 77.4868 102.067L87.7745 109.985C88.8883 110.842 90.5157 110.314 90.9129 108.965L94.5815 96.5122Z" fill="#70A4DB" style="mix-blend-mode:color-dodge"/>
<path d="M400.123 21.04C398.945 24.3506 401.459 27.8111 404.972 27.7139L462.692 26.1172C467.676 25.9793 469.77 32.4222 465.657 35.2402L418.02 67.875C415.122 69.861 415.122 74.1391 418.02 76.125L465.657 108.76C469.77 111.578 467.676 118.021 462.692 117.883L404.972 116.286C401.459 116.189 398.945 119.649 400.123 122.96L419.478 177.362C421.15 182.06 415.669 186.041 411.718 183L365.96 147.78C363.175 145.637 359.106 146.96 358.113 150.33L341.796 205.72C340.387 210.502 333.613 210.502 332.204 205.72L315.886 150.33C314.893 146.96 310.824 145.637 308.04 147.78L262.281 183C258.33 186.041 252.85 182.06 254.521 177.362L273.877 122.96C275.055 119.65 272.541 116.189 269.028 116.286L211.308 117.883C206.324 118.021 204.229 111.578 208.343 108.76L255.979 76.125C258.878 74.139 258.878 69.861 255.979 67.875L208.343 35.2402C204.229 32.4223 206.324 25.9793 211.308 26.1172L269.028 27.7139C272.541 27.8109 275.055 24.3505 273.877 21.04L268.882 7H405.118L400.123 21.04ZM338.919 30.5117C338.355 28.599 335.645 28.599 335.081 30.5117L330.1 47.4229C329.702 48.7711 328.075 49.3006 326.961 48.4434L312.99 37.6895C311.41 36.4736 309.218 38.0665 309.887 39.9453L315.796 56.5547C316.267 57.8789 315.261 59.2634 313.856 59.2246L296.233 58.7373C294.24 58.6822 293.403 61.2585 295.048 62.3857L309.592 72.3496C310.751 73.1439 310.751 74.8549 309.592 75.6494L295.048 85.6143C293.403 86.7415 294.24 89.3178 296.233 89.2627L313.856 88.7754C315.261 88.7366 316.267 90.1212 315.796 91.4453L309.887 108.055C309.218 109.934 311.41 111.526 312.99 110.31L326.961 99.5566C328.075 98.6995 329.702 99.2283 330.1 100.576L335.081 117.487C335.645 119.4 338.355 119.4 338.919 117.487L343.9 100.577C344.298 99.229 345.925 98.6994 347.039 99.5566L361.01 110.31C362.59 111.526 364.782 109.934 364.113 108.055L358.204 91.4453C357.733 90.1211 358.739 88.7365 360.143 88.7754L377.767 89.2627C379.76 89.3177 380.597 86.7415 378.952 85.6143L364.408 75.6494C363.249 74.8549 363.249 73.1439 364.408 72.3496L378.952 62.3857C380.597 61.2585 379.76 58.6823 377.767 58.7373L360.143 59.2246C358.739 59.2635 357.733 57.8789 358.204 56.5547L364.113 39.9453C364.782 38.0666 362.59 36.4738 361.01 37.6895L347.039 48.4434C345.925 49.3006 344.298 48.7711 343.9 47.4229L338.919 30.5117Z" fill="#BD2915" style="mix-blend-mode:color-dodge"/>
<defs>
<filter id="filter0_n_654_2136" x="0" y="7" width="500" height="250" filterUnits="userSpaceOnUse" color-interpolation-filters="sRGB">
<feFlood flood-opacity="0" result="BackgroundImageFix"/>
<feBlend mode="normal" in="SourceGraphic" in2="BackgroundImageFix" result="shape"/>
<feTurbulence type="fractalNoise" baseFrequency="0.010384215973317623 0.010384215973317623" stitchTiles="stitch" numOctaves="3" result="noise" seed="6768" />
<feColorMatrix in="noise" type="luminanceToAlpha" result="alphaNoise" />
<feComponentTransfer in="alphaNoise" result="coloredNoise1">
<feFuncA type="discrete" tableValues="0 0 0 0 0 0 0 0 0 0 0 0 0 0 0 0 0 1 1 1 1 1 1 1 1 1 1 1 1 1 1 1 1 0 0 0 0 0 0 0 0 0 0 0 0 0 0 0 0 0 0 0 0 0 0 0 0 0 0 0 0 0 0 0 0 0 0 0 0 0 0 0 0 0 0 0 0 0 0 0 0 0 0 0 0 0 0 0 0 0 0 0 0 0 0 0 0 0 0 0 "/>
</feComponentTransfer>
<feComposite operator="in" in2="shape" in="coloredNoise1" result="noise1Clipped" />
<feComponentTransfer in="alphaNoise" result="coloredNoise2">
<feFuncA type="discrete" tableValues="0 0 0 0 0 0 0 0 0 0 0 0 0 0 0 0 0 0 0 0 0 0 0 0 0 0 0 0 0 0 0 0 0 0 0 0 0 0 0 0 0 0 0 0 0 0 0 0 0 0 0 0 0 0 0 0 0 0 0 0 0 0 0 0 0 0 0 1 1 1 1 1 1 1 1 1 1 1 1 1 1 1 1 0 0 0 0 0 0 0 0 0 0 0 0 0 0 0 0 0 "/>
</feComponentTransfer>
<feComposite operator="in" in2="shape" in="coloredNoise2" result="noise2Clipped" />
<feFlood flood-color="rgba(241, 216, 95, 0.05)" result="color1Flood" />
<feComposite operator="in" in2="noise1Clipped" in="color1Flood" result="color1" />
<feFlood flood-color="rgba(255, 255, 255, 0.05)" result="color2Flood" />
<feComposite operator="in" in2="noise2Clipped" in="color2Flood" result="color2" />
<feMerge result="effect1_noise_654_2136">
<feMergeNode in="shape" />
<feMergeNode in="color1" />
<feMergeNode in="color2" />
</feMerge>
</filter>
<filter id="filter1_d_654_2136" x="141.182" y="0.900427" width="230.167" height="259.2" filterUnits="userSpaceOnUse" color-interpolation-filters="sRGB">
<feFlood flood-opacity="0" result="BackgroundImageFix"/>
<feColorMatrix in="SourceAlpha" type="matrix" values="0 0 0 0 0 0 0 0 0 0 0 0 0 0 0 0 0 0 127 0" result="hardAlpha"/>
<feOffset/>
<feGaussianBlur stdDeviation="11.55"/>
<feComposite in2="hardAlpha" operator="out"/>
<feColorMatrix type="matrix" values="0 0 0 0 0.878431 0 0 0 0 0.619608 0 0 0 0 0.584314 0 0 0 1 0"/>
<feBlend mode="normal" in2="BackgroundImageFix" result="effect1_dropShadow_654_2136"/>
<feBlend mode="normal" in="SourceGraphic" in2="effect1_dropShadow_654_2136" result="shape"/>
</filter>
<filter id="filter2_n_654_2136" x="199.144" y="24.0004" width="149.105" height="154.517" filterUnits="userSpaceOnUse" color-interpolation-filters="sRGB">
<feFlood flood-opacity="0" result="BackgroundImageFix"/>
<feBlend mode="normal" in="SourceGraphic" in2="BackgroundImageFix" result="shape"/>
<feTurbulence type="fractalNoise" baseFrequency="0.011507479473948479 0.011507479473948479" stitchTiles="stitch" numOctaves="3" result="noise" seed="432" />
<feColorMatrix in="noise" type="luminanceToAlpha" result="alphaNoise" />
<feComponentTransfer in="alphaNoise" result="coloredNoise1">
<feFuncA type="discrete" tableValues="0 0 0 0 0 1 1 1 1 1 1 1 1 1 1 1 1 1 1 1 1 1 1 1 1 1 1 1 1 1 1 1 1 1 1 1 1 1 1 1 1 1 1 1 1 0 0 0 0 0 0 0 0 0 0 0 0 0 0 0 0 0 0 0 0 0 0 0 0 0 0 0 0 0 0 0 0 0 0 0 0 0 0 0 0 0 0 0 0 0 0 0 0 0 0 0 0 0 0 0 "/>
</feComponentTransfer>
<feComposite operator="in" in2="shape" in="coloredNoise1" result="noise1Clipped" />
<feComponentTransfer in="alphaNoise" result="coloredNoise2">
<feFuncA type="discrete" tableValues="0 0 0 0 0 0 0 0 0 0 0 0 0 0 0 0 0 0 0 0 0 0 0 0 0 0 0 0 0 0 0 0 0 0 0 0 0 0 0 0 0 0 0 0 0 0 0 0 0 0 0 0 0 0 0 1 1 1 1 1 1 1 1 1 1 1 1 1 1 1 1 1 1 1 1 1 1 1 1 1 1 1 1 1 1 1 1 1 1 1 1 1 1 1 1 0 0 0 0 0 "/>
</feComponentTransfer>
<feComposite operator="in" in2="shape" in="coloredNoise2" result="noise2Clipped" />
<feFlood flood-color="rgba(21, 189, 133, 0.1)" result="color1Flood" />
<feComposite operator="in" in2="noise1Clipped" in="color1Flood" result="color1" />
<feFlood flood-color="rgba(41, 159, 107, 0.1)" result="color2Flood" />
<feComposite operator="in" in2="noise2Clipped" in="color2Flood" result="color2" />
<feMerge result="effect1_noise_654_2136">
<feMergeNode in="shape" />
<feMergeNode in="color1" />
<feMergeNode in="color2" />
</feMerge>
</filter>
<radialGradient id="paint0_radial_654_2136" cx="0" cy="0" r="1" gradientUnits="userSpaceOnUse" gradientTransform="translate(327 80.5) rotate(151.642) scale(371.593 338.975)">
<stop stop-color="white"/>
<stop offset="0.269231" stop-color="#FFFFC3"/>
<stop offset="0.413314" stop-color="#E09E95"/>
<stop offset="0.657662" stop-color="#5C525B"/>
<stop offset="1" stop-color="#1F3647"/>
</radialGradient>
<linearGradient id="paint1_linear_654_2136" x1="216.116" y1="166.602" x2="348.442" y2="24.0281" gradientUnits="userSpaceOnUse">
<stop stop-color="#A4DF20"/>
<stop offset="1" stop-color="#98BF40"/>
</linearGradient>
</defs>
</svg>
