<svg width="500" height="250" viewBox="0 0 500 250" fill="none" xmlns="http://www.w3.org/2000/svg">
<rect width="500" height="250" fill="#1F3647"/>
<path d="M500 24.5791L464.473 84.2344C463.033 86.6524 463.872 89.7822 466.328 91.1562L500 109.993V176.006L466.328 194.844C463.872 196.218 463.033 199.348 464.473 201.766L493.198 250H24.8018L53.5273 201.766C54.9672 199.348 54.128 196.218 51.6719 194.844L0 165.937V120.062L51.6719 91.1562C54.128 89.7822 54.9672 86.6524 53.5273 84.2344L3.76562 0.678711C3.63302 0.456033 3.52107 0.229013 3.42676 0H500V24.5791Z" fill="url(#paint0_radial_353_800)" style="mix-blend-mode:screen"/>
<path d="M355.064 25.8682C355.026 28.6824 357.318 30.9737 360.132 30.9355L420.269 30.1211C424.177 30.0684 426.632 34.3199 424.632 37.6787L393.858 89.3516C392.418 91.7696 393.257 94.8993 395.713 96.2734L448.2 125.637C451.612 127.545 451.612 132.455 448.2 134.363L395.713 163.727C393.257 165.101 392.418 168.23 393.858 170.648L424.632 222.321C426.632 225.68 424.177 229.932 420.269 229.879L360.132 229.064C357.318 229.026 355.026 231.318 355.064 234.132L355.279 250H156.721L156.936 234.132C156.974 231.318 154.682 229.026 151.868 229.064L91.7314 229.879C87.8226 229.932 85.368 225.68 87.3682 222.321L118.142 170.648C119.582 168.23 118.743 165.101 116.287 163.727L63.7998 134.363C60.3883 132.455 60.3884 127.545 63.7998 125.637L116.287 96.2734C118.743 94.8993 119.582 91.7696 118.142 89.3516L87.3682 37.6787C85.368 34.3199 87.8226 30.0684 91.7314 30.1211L151.868 30.9355C154.682 30.9737 156.974 28.6824 156.936 25.8682L156.585 0H355.415L355.064 25.8682Z" fill="url(#paint1_radial_353_800)" style="mix-blend-mode:screen"/>
<path d="M251.636 32.8C253.545 29.3882 258.455 29.3882 260.364 32.8L271.609 52.9018C272.983 55.358 276.113 56.1966 278.531 54.7565L298.321 42.9707C301.68 40.9703 305.932 43.4252 305.879 47.3343L305.567 70.3657C305.529 73.1799 307.82 75.4711 310.634 75.433L333.666 75.121C337.575 75.0681 340.03 79.3201 338.029 82.679L326.243 102.469C324.803 104.887 325.642 108.017 328.098 109.391L348.2 120.636C351.612 122.545 351.612 127.455 348.2 129.364L328.098 140.609C325.642 141.983 324.803 145.113 326.243 147.531L338.029 167.321C340.03 170.68 337.575 174.932 333.666 174.879L310.634 174.567C307.82 174.529 305.529 176.82 305.567 179.634L305.879 202.666C305.932 206.575 301.68 209.03 298.321 207.029L278.531 195.243C276.113 193.803 272.983 194.642 271.609 197.098L260.364 217.2C258.455 220.612 253.545 220.612 251.636 217.2L240.391 197.098C239.017 194.642 235.887 193.803 233.469 195.243L213.679 207.029C210.32 209.03 206.068 206.575 206.121 202.666L206.433 179.634C206.471 176.82 204.18 174.529 201.366 174.567L178.334 174.879C174.425 174.932 171.97 170.68 173.971 167.321L185.757 147.531C187.197 145.113 186.358 141.983 183.902 140.609L163.8 129.364C160.388 127.455 160.388 122.545 163.8 120.636L183.902 109.391C186.358 108.017 187.197 104.887 185.757 102.469L173.971 82.679C171.97 79.3201 174.425 75.0681 178.334 75.121L201.366 75.433C204.18 75.4711 206.471 73.1799 206.433 70.3657L206.121 47.3343C206.068 43.4252 210.32 40.9703 213.679 42.9707L233.469 54.7565C235.887 56.1966 239.017 55.358 240.391 52.9018L251.636 32.8Z" fill="url(#paint2_radial_353_800)" style="mix-blend-mode:plus-lighter"/>
<path d="M244 112L268 120.5M288 120.5L271 114" stroke="#1F3647" stroke-width="5"/>
<circle cx="209" cy="93" r="50" fill="url(#paint3_radial_353_800)"/>
<circle cx="144" cy="157" r="50" fill="url(#paint4_radial_353_800)"/>
<circle cx="325" cy="130" r="50" fill="url(#paint5_radial_353_800)"/>
<circle cx="381" cy="86" r="25" fill="url(#paint6_radial_353_800)"/>
<defs>
<radialGradient id="paint0_radial_353_800" cx="0" cy="0" r="1" gradientUnits="userSpaceOnUse" gradientTransform="translate(259 143) rotate(90) scale(300)">
<stop stop-color="#8B4537" stop-opacity="0"/>
<stop offset="0.4375" stop-color="#8B4537"/>
<stop offset="0.6875" stop-color="#25120F"/>
<stop offset="0.985577" stop-color="#25120F" stop-opacity="0"/>
</radialGradient>
<radialGradient id="paint1_radial_353_800" cx="0" cy="0" r="1" gradientUnits="userSpaceOnUse" gradientTransform="translate(256 130) rotate(90) scale(200)">
<stop stop-color="white" stop-opacity="0"/>
<stop offset="0.346154" stop-color="#F1775F"/>
<stop offset="0.673077" stop-color="#8B4537"/>
<stop offset="1" stop-color="#8B4537" stop-opacity="0"/>
</radialGradient>
<radialGradient id="paint2_radial_353_800" cx="0" cy="0" r="1" gradientUnits="userSpaceOnUse" gradientTransform="translate(256 125) rotate(90) scale(94)">
<stop stop-color="white"/>
<stop offset="0.5" stop-color="#F1D85F"/>
<stop offset="1" stop-color="#F1D85F" stop-opacity="0"/>
</radialGradient>
<radialGradient id="paint3_radial_353_800" cx="0" cy="0" r="1" gradientUnits="userSpaceOnUse" gradientTransform="translate(226.5 76) rotate(136.081) scale(74.9667)">
<stop stop-color="#6B6B6B"/>
<stop offset="1" stop-color="#1A1A1A"/>
</radialGradient>
<radialGradient id="paint4_radial_353_800" cx="0" cy="0" r="1" gradientUnits="userSpaceOnUse" gradientTransform="translate(161.5 140) rotate(136.081) scale(74.9667)">
<stop stop-color="#F1775F"/>
<stop offset="1" stop-color="#BD2915"/>
</radialGradient>
<radialGradient id="paint5_radial_353_800" cx="0" cy="0" r="1" gradientUnits="userSpaceOnUse" gradientTransform="translate(342.5 113) rotate(136.081) scale(74.9667)">
<stop stop-color="#6B6B6B"/>
<stop offset="1" stop-color="#1A1A1A"/>
</radialGradient>
<radialGradient id="paint6_radial_353_800" cx="0" cy="0" r="1" gradientUnits="userSpaceOnUse" gradientTransform="translate(389.75 77.5) rotate(136.081) scale(37.4833)">
<stop stop-color="white"/>
<stop offset="1" stop-color="#E0E0E0"/>
</radialGradient>
</defs>
</svg>
