<svg width="500" height="250" viewBox="0 0 500 250" fill="none" xmlns="http://www.w3.org/2000/svg">
<rect width="500" height="250" fill="#BD2915"/>
<path d="M500 64.6436V185.355L473.224 250H26.7764L0 185.355V64.6436L26.7764 0H473.224L500 64.6436Z" fill="#F1775F"/>
<path d="M496.829 117.347C498.859 122.247 498.859 127.753 496.829 132.653L448.222 250H51.7762L3.16973 132.653C1.14004 127.753 1.14004 122.247 3.16973 117.347L51.7762 0H448.222L496.829 117.347Z" fill="#BD2915"/>
<path d="M471.829 117.347C473.859 122.247 473.859 127.753 471.829 132.653L423.223 250H76.7762L28.1697 132.653C26.14 127.753 26.14 122.247 28.1697 117.347L76.7762 0H423.223L471.829 117.347Z" fill="#F1775F"/>
<path d="M446.829 117.347C448.859 122.247 448.859 127.753 446.829 132.653L398.223 250H101.776L53.1697 132.653C51.14 127.753 51.14 122.247 53.1697 117.347L101.776 0H398.223L446.829 117.347Z" fill="#BD2915"/>
<path d="M369.644 0C372.863 2.17823 375.404 5.26556 376.914 8.91016L421.829 117.347C423.859 122.247 423.859 127.753 421.829 132.653L376.914 241.09C375.404 244.734 372.863 247.822 369.644 250H130.355C127.136 247.822 124.595 244.735 123.086 241.09L78.1697 132.653C76.14 127.753 76.14 122.247 78.1697 117.347L123.086 8.91016C124.595 5.26544 127.136 2.17824 130.355 0H369.644Z" fill="#F1775F"/>
<path d="M348.412 15.7637C353.312 17.7936 357.206 21.6873 359.236 26.5879L396.829 117.347C398.859 122.247 398.859 127.753 396.829 132.653L359.236 223.412C357.206 228.313 353.312 232.206 348.412 234.236L310.355 250H189.644L151.588 234.236C146.687 232.206 142.793 228.313 140.763 223.412L103.17 132.653C101.14 127.753 101.14 122.247 103.17 117.347L140.763 26.5879C142.793 21.6873 146.687 17.7936 151.588 15.7637L189.644 0H310.355L348.412 15.7637Z" fill="#BD2915"/>
<path d="M242.346 3.17025C247.247 1.14037 252.753 1.14037 257.654 3.17025L330.735 33.4414C335.635 35.4713 339.529 39.3648 341.559 44.2653L371.83 117.346C373.86 122.247 373.86 127.753 371.83 132.654L341.559 205.735C339.529 210.635 335.635 214.529 330.735 216.559L257.654 246.83C252.753 248.86 247.247 248.86 242.346 246.83L169.265 216.559C164.365 214.529 160.471 210.635 158.441 205.735L128.17 132.654C126.14 127.753 126.14 122.247 128.17 117.346L158.441 44.2653C160.471 39.3648 164.365 35.4713 169.265 33.4414L242.346 3.17025Z" fill="#F1775F"/>
<path d="M242.346 28.1703C247.247 26.1404 252.753 26.1404 257.654 28.1703L313.057 51.1191C317.958 53.1489 321.851 57.0424 323.881 61.943L346.83 117.346C348.86 122.247 348.86 127.753 346.83 132.654L323.881 188.057C321.851 192.958 317.958 196.851 313.057 198.881L257.654 221.83C252.753 223.86 247.247 223.86 242.346 221.83L186.943 198.881C182.042 196.851 178.149 192.958 176.119 188.057L153.17 132.654C151.14 127.753 151.14 122.247 153.17 117.346L176.119 61.943C178.149 57.0424 182.042 53.1489 186.943 51.1191L242.346 28.1703Z" fill="#BD2915"/>
<path d="M242.346 53.1703C247.247 51.1404 252.753 51.1404 257.654 53.1703L295.379 68.7967C300.28 70.8266 304.173 74.7201 306.203 79.6207L321.83 117.346C323.86 122.247 323.86 127.753 321.83 132.654L306.203 170.379C304.173 175.28 300.28 179.173 295.379 181.203L257.654 196.83C252.753 198.86 247.247 198.86 242.346 196.83L204.621 181.203C199.72 179.173 195.827 175.28 193.797 170.379L178.17 132.654C176.14 127.753 176.14 122.247 178.17 117.346L193.797 79.6207C195.827 74.7201 199.72 70.8266 204.621 68.7967L242.346 53.1703Z" fill="#F1775F"/>
<g filter="url(#filter0_d_904_37)">
<path d="M70.6328 167.793C69.2521 170.185 70.0714 173.243 72.4629 174.623L111.434 197.123C113.825 198.504 116.883 197.685 118.264 195.293C119.645 192.902 118.825 189.844 116.434 188.463L81.793 168.463L101.793 133.822C103.174 131.431 102.354 128.373 99.9629 126.992C97.5714 125.611 94.5135 126.431 93.1328 128.822L70.6328 167.793ZM417.367 82.2067C418.748 79.8152 417.928 76.7573 415.537 75.3765L376.566 52.8765C374.174 51.4958 371.116 52.3152 369.736 54.7067C368.355 57.0981 369.174 60.1561 371.566 61.5368L406.207 81.5368L386.207 116.178C384.826 118.569 385.645 121.627 388.037 123.008C390.428 124.389 393.486 123.569 394.867 121.178L417.367 82.2067ZM74.9629 170.293L76.257 175.123L414.331 84.5363L413.037 79.7067L411.743 74.877L73.6688 165.464L74.9629 170.293Z" fill="#1F3647"/>
</g>
<defs>
<filter id="filter0_d_904_37" x="67.9619" y="50.2058" width="356.076" height="153.588" filterUnits="userSpaceOnUse" color-interpolation-filters="sRGB">
<feFlood flood-opacity="0" result="BackgroundImageFix"/>
<feColorMatrix in="SourceAlpha" type="matrix" values="0 0 0 0 0 0 0 0 0 0 0 0 0 0 0 0 0 0 127 0" result="hardAlpha"/>
<feOffset dx="2" dy="2"/>
<feGaussianBlur stdDeviation="2"/>
<feComposite in2="hardAlpha" operator="out"/>
<feColorMatrix type="matrix" values="0 0 0 0 0 0 0 0 0 0 0 0 0 0 0 0 0 0 0.25 0"/>
<feBlend mode="normal" in2="BackgroundImageFix" result="effect1_dropShadow_904_37"/>
<feBlend mode="normal" in="SourceGraphic" in2="effect1_dropShadow_904_37" result="shape"/>
</filter>
</defs>
</svg>
