<svg width="500" height="250" viewBox="0 0 500 250" fill="none" xmlns="http://www.w3.org/2000/svg">
<rect width="500" height="250" fill="url(#paint0_linear_519_1334)"/>
<path d="M443.891 40.2148C442.567 42.9175 443.914 46.1682 446.761 47.1436L500 65.3838V184.615L446.761 202.856C443.914 203.832 442.567 207.083 443.891 209.785L463.581 250H34.4189L54.1094 209.785C55.4326 207.083 54.086 203.832 51.2393 202.856L0 185.301V64.6982L51.2393 47.1436C54.086 46.1682 55.4326 42.9175 54.1094 40.2148L34.4189 0H463.581L443.891 40.2148Z" fill="#947D0C" style="mix-blend-mode:overlay"/>
<path d="M398.621 58.9658C397.298 61.6684 398.644 64.92 401.49 65.8955L500 99.6455V150.354L401.49 184.104C398.644 185.08 397.298 188.332 398.621 191.034L427.492 250H70.5078L99.3789 191.034C100.702 188.332 99.3564 185.08 96.5098 184.104L0 151.038V98.9609L96.5098 65.8955C99.3564 64.92 100.702 61.6684 99.3789 58.9658L70.5078 0H427.492L398.621 58.9658Z" fill="#CCAA00" style="mix-blend-mode:overlay"/>
<path d="M354.351 77.7178C353.028 80.4203 354.374 83.671 357.22 84.6465L461.195 120.27C465.7 121.813 465.7 128.187 461.195 129.73L357.22 165.354C354.374 166.329 353.028 169.58 354.351 172.282L392.403 250H339.456L297.282 229.351C294.579 228.028 291.329 229.374 290.353 232.221L284.261 250H215.739L209.647 232.221C208.672 229.374 205.421 228.028 202.718 229.351L160.545 250H107.597L145.65 172.282C146.973 169.58 145.626 166.329 142.78 165.354L38.8054 129.73C34.2999 128.187 34.2999 121.813 38.8054 120.27L142.78 84.6465C145.627 83.671 146.972 80.4203 145.649 77.7178L107.597 0H160.545L202.718 20.6494C205.421 21.9724 208.672 20.626 209.647 17.7793L215.739 0H284.261L290.353 17.7793C291.329 20.6261 294.58 21.9727 297.283 20.6494L339.457 0H392.403L354.351 77.7178Z" fill="#F1C862" style="mix-blend-mode:color-burn"/>
<path d="M245.27 13.8057C246.814 9.2998 253.186 9.2998 254.73 13.8057L271.602 63.0495C272.577 65.8963 275.828 67.2428 278.531 65.9195L325.282 43.0291C329.559 40.9346 334.065 45.4407 331.971 49.7184L309.08 96.4693C307.757 99.1719 309.104 102.423 311.95 103.398L361.194 120.27C365.7 121.814 365.7 128.186 361.194 129.73L311.95 146.602C309.104 147.577 307.757 150.828 309.08 153.531L331.971 200.282C334.065 204.559 329.559 209.065 325.282 206.971L278.531 184.08C275.828 182.757 272.577 184.104 271.602 186.95L254.73 236.194C253.186 240.7 246.814 240.7 245.27 236.194L228.398 186.95C227.423 184.104 224.172 182.757 221.469 184.08L174.718 206.971C170.441 209.065 165.935 204.559 168.029 200.282L190.92 153.531C192.243 150.828 190.896 147.577 188.05 146.602L138.806 129.73C134.3 128.186 134.3 121.814 138.806 120.27L188.05 103.398C190.896 102.423 192.243 99.1719 190.92 96.4693L168.029 49.7184C165.935 45.4406 170.441 40.9346 174.718 43.0291L221.469 65.9195C224.172 67.2428 227.423 65.8963 228.398 63.0495L245.27 13.8057Z" fill="#F1D85F" style="mix-blend-mode:color-burn"/>
<g filter="url(#filter0_d_519_1334)">
<g filter="url(#filter1_n_519_1334)">
<rect x="175" y="50" width="150" height="150" rx="15" fill="url(#paint1_linear_519_1334)" fill-opacity="0.5"/>
<rect x="177.5" y="52.5" width="145" height="145" rx="12.5" stroke="#FFD2D2" stroke-width="5"/>
</g>
<path d="M235.109 142V109.273H243.994V122.504H244.442L254.286 109.273H264.641L253.582 123.847L264.896 142H254.286L246.935 129.727L243.994 133.562V142H235.109Z" fill="black"/>
<path d="M212.199 163V152.091H216.087C216.936 152.091 217.639 152.245 218.196 152.554C218.754 152.863 219.171 153.286 219.448 153.822C219.725 154.355 219.864 154.955 219.864 155.623C219.864 156.294 219.723 156.897 219.443 157.434C219.166 157.966 218.747 158.389 218.186 158.701C217.628 159.01 216.927 159.165 216.082 159.165H213.408V157.769H215.933C216.469 157.769 216.904 157.677 217.238 157.492C217.571 157.304 217.816 157.048 217.973 156.725C218.129 156.402 218.207 156.034 218.207 155.623C218.207 155.211 218.129 154.845 217.973 154.525C217.816 154.206 217.57 153.955 217.232 153.774C216.898 153.593 216.458 153.502 215.911 153.502H213.844V163H212.199ZM225.009 163.165C224.242 163.165 223.573 162.989 223.001 162.638C222.429 162.286 221.985 161.794 221.669 161.162C221.353 160.53 221.195 159.792 221.195 158.946C221.195 158.098 221.353 157.355 221.669 156.72C221.985 156.084 222.429 155.591 223.001 155.239C223.573 154.887 224.242 154.712 225.009 154.712C225.776 154.712 226.446 154.887 227.017 155.239C227.589 155.591 228.033 156.084 228.349 156.72C228.665 157.355 228.823 158.098 228.823 158.946C228.823 159.792 228.665 160.53 228.349 161.162C228.033 161.794 227.589 162.286 227.017 162.638C226.446 162.989 225.776 163.165 225.009 163.165ZM225.015 161.828C225.512 161.828 225.924 161.697 226.25 161.434C226.577 161.171 226.819 160.821 226.975 160.385C227.135 159.948 227.214 159.467 227.214 158.941C227.214 158.419 227.135 157.94 226.975 157.503C226.819 157.062 226.577 156.709 226.25 156.443C225.924 156.176 225.512 156.043 225.015 156.043C224.514 156.043 224.098 156.176 223.768 156.443C223.441 156.709 223.198 157.062 223.038 157.503C222.882 157.94 222.804 158.419 222.804 158.941C222.804 159.467 222.882 159.948 223.038 160.385C223.198 160.821 223.441 161.171 223.768 161.434C224.098 161.697 224.514 161.828 225.015 161.828ZM234.42 154.818V156.097H229.951V154.818H234.42ZM231.15 152.858H232.742V160.598C232.742 160.907 232.788 161.139 232.881 161.295C232.973 161.448 233.092 161.553 233.238 161.61C233.387 161.663 233.548 161.69 233.722 161.69C233.85 161.69 233.962 161.681 234.058 161.663C234.154 161.645 234.228 161.631 234.282 161.62L234.569 162.936C234.477 162.972 234.346 163.007 234.175 163.043C234.005 163.082 233.792 163.103 233.536 163.107C233.117 163.114 232.726 163.039 232.364 162.883C232.002 162.727 231.709 162.485 231.485 162.158C231.261 161.832 231.15 161.422 231.15 160.928V152.858ZM238.563 163.181C238.045 163.181 237.576 163.085 237.157 162.893C236.738 162.698 236.406 162.416 236.161 162.047C235.919 161.677 235.798 161.224 235.798 160.688C235.798 160.227 235.887 159.847 236.065 159.548C236.242 159.25 236.482 159.014 236.784 158.84C237.086 158.666 237.423 158.534 237.796 158.446C238.169 158.357 238.549 158.289 238.936 158.243C239.426 158.186 239.824 158.14 240.129 158.105C240.434 158.066 240.656 158.004 240.795 157.918C240.933 157.833 241.003 157.695 241.003 157.503V157.466C241.003 157 240.871 156.64 240.608 156.384C240.349 156.129 239.962 156.001 239.447 156.001C238.911 156.001 238.488 156.12 238.18 156.358C237.874 156.592 237.663 156.853 237.546 157.141L236.049 156.8C236.226 156.303 236.486 155.901 236.827 155.596C237.171 155.287 237.567 155.063 238.014 154.925C238.462 154.783 238.932 154.712 239.426 154.712C239.753 154.712 240.099 154.751 240.465 154.829C240.834 154.903 241.178 155.042 241.498 155.244C241.821 155.447 242.086 155.736 242.292 156.113C242.498 156.485 242.601 156.97 242.601 157.567V163H241.045V161.881H240.981C240.878 162.087 240.724 162.29 240.518 162.489C240.312 162.687 240.047 162.853 239.724 162.984C239.401 163.115 239.014 163.181 238.563 163.181ZM238.909 161.903C239.35 161.903 239.726 161.816 240.039 161.642C240.355 161.468 240.594 161.24 240.758 160.96C240.925 160.676 241.008 160.372 241.008 160.049V158.994C240.951 159.051 240.841 159.104 240.678 159.154C240.518 159.2 240.335 159.241 240.129 159.277C239.923 159.309 239.722 159.339 239.527 159.367C239.332 159.392 239.169 159.413 239.037 159.431C238.728 159.47 238.446 159.536 238.19 159.628C237.938 159.721 237.736 159.854 237.583 160.028C237.434 160.198 237.359 160.425 237.359 160.71C237.359 161.104 237.505 161.402 237.796 161.604C238.087 161.803 238.458 161.903 238.909 161.903ZM250.853 156.816L249.41 157.071C249.349 156.887 249.253 156.711 249.122 156.544C248.994 156.377 248.82 156.24 248.6 156.134C248.38 156.027 248.104 155.974 247.774 155.974C247.323 155.974 246.947 156.075 246.645 156.278C246.343 156.477 246.192 156.734 246.192 157.05C246.192 157.324 246.293 157.544 246.496 157.711C246.698 157.877 247.025 158.014 247.476 158.121L248.776 158.419C249.528 158.593 250.09 158.861 250.459 159.223C250.828 159.586 251.013 160.056 251.013 160.635C251.013 161.125 250.871 161.562 250.587 161.945C250.306 162.325 249.914 162.624 249.41 162.84C248.909 163.057 248.328 163.165 247.668 163.165C246.752 163.165 246.004 162.97 245.425 162.579C244.846 162.185 244.491 161.626 244.36 160.901L245.899 160.667C245.995 161.068 246.192 161.372 246.491 161.578C246.789 161.78 247.178 161.881 247.657 161.881C248.179 161.881 248.596 161.773 248.909 161.556C249.221 161.336 249.378 161.068 249.378 160.752C249.378 160.496 249.282 160.282 249.09 160.108C248.902 159.934 248.612 159.802 248.222 159.713L246.837 159.41C246.073 159.236 245.509 158.959 245.143 158.579C244.781 158.199 244.6 157.718 244.6 157.135C244.6 156.652 244.734 156.23 245.004 155.868C245.274 155.505 245.647 155.223 246.123 155.021C246.599 154.815 247.144 154.712 247.758 154.712C248.642 154.712 249.339 154.903 249.846 155.287C250.354 155.667 250.69 156.176 250.853 156.816ZM258.895 156.816L257.452 157.071C257.391 156.887 257.295 156.711 257.164 156.544C257.036 156.377 256.862 156.24 256.642 156.134C256.422 156.027 256.146 155.974 255.816 155.974C255.365 155.974 254.989 156.075 254.687 156.278C254.385 156.477 254.234 156.734 254.234 157.05C254.234 157.324 254.335 157.544 254.538 157.711C254.74 157.877 255.067 158.014 255.518 158.121L256.818 158.419C257.57 158.593 258.132 158.861 258.501 159.223C258.87 159.586 259.055 160.056 259.055 160.635C259.055 161.125 258.913 161.562 258.629 161.945C258.348 162.325 257.956 162.624 257.452 162.84C256.951 163.057 256.37 163.165 255.71 163.165C254.794 163.165 254.046 162.97 253.467 162.579C252.888 162.185 252.533 161.626 252.402 160.901L253.941 160.667C254.037 161.068 254.234 161.372 254.532 161.578C254.831 161.78 255.22 161.881 255.699 161.881C256.221 161.881 256.638 161.773 256.951 161.556C257.263 161.336 257.42 161.068 257.42 160.752C257.42 160.496 257.324 160.282 257.132 160.108C256.944 159.934 256.654 159.802 256.264 159.713L254.879 159.41C254.115 159.236 253.551 158.959 253.185 158.579C252.823 158.199 252.642 157.718 252.642 157.135C252.642 156.652 252.776 156.23 253.046 155.868C253.316 155.505 253.689 155.223 254.165 155.021C254.641 154.815 255.186 154.712 255.8 154.712C256.684 154.712 257.381 154.903 257.888 155.287C258.396 155.667 258.732 156.176 258.895 156.816ZM260.806 163V154.818H262.399V163H260.806ZM261.61 153.556C261.333 153.556 261.095 153.463 260.897 153.279C260.701 153.091 260.604 152.867 260.604 152.608C260.604 152.345 260.701 152.121 260.897 151.936C261.095 151.748 261.333 151.654 261.61 151.654C261.887 151.654 262.123 151.748 262.319 151.936C262.518 152.121 262.617 152.345 262.617 152.608C262.617 152.867 262.518 153.091 262.319 153.279C262.123 153.463 261.887 153.556 261.61 153.556ZM269.724 159.607V154.818H271.322V163H269.756V161.583H269.671C269.483 162.02 269.181 162.384 268.765 162.675C268.354 162.963 267.84 163.107 267.226 163.107C266.7 163.107 266.235 162.991 265.83 162.76C265.429 162.526 265.113 162.18 264.882 161.722C264.655 161.263 264.541 160.697 264.541 160.022V154.818H266.134V159.831C266.134 160.388 266.289 160.832 266.597 161.162C266.906 161.493 267.308 161.658 267.801 161.658C268.1 161.658 268.396 161.583 268.691 161.434C268.989 161.285 269.236 161.059 269.431 160.757C269.63 160.456 269.728 160.072 269.724 159.607ZM273.462 163V154.818H274.991V156.15H275.092C275.263 155.699 275.541 155.347 275.929 155.095C276.316 154.839 276.779 154.712 277.319 154.712C277.866 154.712 278.324 154.839 278.693 155.095C279.066 155.351 279.341 155.702 279.519 156.15H279.604C279.799 155.713 280.11 155.365 280.536 155.106C280.962 154.843 281.47 154.712 282.06 154.712C282.802 154.712 283.407 154.944 283.876 155.409C284.348 155.875 284.584 156.576 284.584 157.513V163H282.992V157.663C282.992 157.109 282.841 156.707 282.539 156.459C282.237 156.21 281.877 156.086 281.458 156.086C280.939 156.086 280.536 156.246 280.248 156.565C279.961 156.881 279.817 157.288 279.817 157.785V163H278.23V157.561C278.23 157.118 278.091 156.761 277.814 156.491C277.537 156.221 277.177 156.086 276.733 156.086C276.431 156.086 276.152 156.166 275.897 156.326C275.644 156.482 275.44 156.7 275.284 156.981C275.131 157.261 275.055 157.586 275.055 157.956V163H273.462Z" fill="black"/>
<path d="M191.357 69.8182V88H190.788V70.4219H190.682L186.776 73.0142V72.3395L190.575 69.8182H191.357ZM202.318 69.5696C203.094 69.5696 203.807 69.7442 204.458 70.0934C205.115 70.4367 205.686 70.9575 206.171 71.6559C206.663 72.3484 207.041 73.2243 207.308 74.2837C207.58 75.3432 207.716 76.589 207.716 78.0213C207.716 79.2464 207.63 80.4627 207.459 81.6701C207.287 82.8775 206.994 83.9783 206.58 84.9727C206.166 85.967 205.597 86.763 204.875 87.3608C204.153 87.9527 203.242 88.2486 202.141 88.2486C201.241 88.2486 200.457 88.0444 199.788 87.636C199.119 87.2217 198.59 86.6535 198.199 85.9315C197.809 85.2035 197.584 84.366 197.524 83.419H198.093C198.181 84.6619 198.581 85.6829 199.291 86.4819C200.001 87.2809 200.951 87.6804 202.141 87.6804C203.792 87.6804 205.038 86.8281 205.878 85.1236C206.725 83.419 207.148 80.9687 207.148 77.7727H207.077C206.888 78.3764 206.559 78.915 206.092 79.3885C205.624 79.8561 205.071 80.226 204.431 80.4982C203.792 80.7646 203.123 80.8977 202.425 80.8977C201.466 80.8977 200.59 80.6491 199.797 80.152C199.01 79.6548 198.38 78.9772 197.906 78.119C197.439 77.2608 197.205 76.2931 197.205 75.2159C197.205 74.2098 197.418 73.2776 197.844 72.4194C198.276 71.5612 198.874 70.8717 199.637 70.3509C200.407 69.83 201.3 69.5696 202.318 69.5696ZM202.318 70.1378C201.443 70.1378 200.661 70.3656 199.975 70.8214C199.294 71.2771 198.755 71.8897 198.359 72.6591C197.968 73.4285 197.773 74.2808 197.773 75.2159C197.773 76.1747 197.98 77.0418 198.394 77.8171C198.815 78.5865 199.377 79.1991 200.081 79.6548C200.791 80.1046 201.585 80.3295 202.46 80.3295C203.153 80.3295 203.795 80.1875 204.387 79.9034C204.979 79.6134 205.482 79.2169 205.896 78.7138C206.316 78.2107 206.615 77.6396 206.793 77.0004C206.976 76.3552 207 75.6776 206.864 74.9673C206.663 73.902 206.346 73.0112 205.914 72.2951C205.488 71.579 204.967 71.0404 204.351 70.6793C203.742 70.3183 203.064 70.1378 202.318 70.1378Z" fill="black"/>
</g>
<defs>
<filter id="filter0_d_519_1334" x="135" y="10" width="230" height="230" filterUnits="userSpaceOnUse" color-interpolation-filters="sRGB">
<feFlood flood-opacity="0" result="BackgroundImageFix"/>
<feColorMatrix in="SourceAlpha" type="matrix" values="0 0 0 0 0 0 0 0 0 0 0 0 0 0 0 0 0 0 127 0" result="hardAlpha"/>
<feOffset/>
<feGaussianBlur stdDeviation="20"/>
<feComposite in2="hardAlpha" operator="out"/>
<feColorMatrix type="matrix" values="0 0 0 0 1 0 0 0 0 0.96 0 0 0 0 0.76 0 0 0 1 0"/>
<feBlend mode="normal" in2="BackgroundImageFix" result="effect1_dropShadow_519_1334"/>
<feBlend mode="normal" in="SourceGraphic" in2="effect1_dropShadow_519_1334" result="shape"/>
</filter>
<filter id="filter1_n_519_1334" x="175" y="50" width="150" height="150" filterUnits="userSpaceOnUse" color-interpolation-filters="sRGB">
<feFlood flood-opacity="0" result="BackgroundImageFix"/>
<feBlend mode="normal" in="SourceGraphic" in2="BackgroundImageFix" result="shape"/>
<feTurbulence type="fractalNoise" baseFrequency="0.0099999997764825821 0.0099999997764825821" stitchTiles="stitch" numOctaves="3" result="noise" seed="3850" />
<feComponentTransfer in="noise" result="coloredNoise1">
<feFuncR type="linear" slope="2" intercept="-0.5" />
<feFuncG type="linear" slope="2" intercept="-0.5" />
<feFuncB type="linear" slope="2" intercept="-0.5" />
<feFuncA type="discrete" tableValues="1 1 1 1 1 1 1 1 1 1 1 1 1 1 1 1 1 1 1 1 1 1 1 1 1 1 1 1 1 1 1 1 1 1 1 1 1 1 1 1 1 1 1 1 1 1 1 1 1 1 1 0 0 0 0 0 0 0 0 0 0 0 0 0 0 0 0 0 0 0 0 0 0 0 0 0 0 0 0 0 0 0 0 0 0 0 0 0 0 0 0 0 0 0 0 0 0 0 0 0 "/>
</feComponentTransfer>
<feComposite operator="in" in2="shape" in="coloredNoise1" result="noise1Clipped" />
<feComponentTransfer in="noise1Clipped" result="color1">
<feFuncA type="table" tableValues="0 0.15" />
</feComponentTransfer>
<feMerge result="effect1_noise_519_1334">
<feMergeNode in="shape" />
<feMergeNode in="color1" />
</feMerge>
</filter>
<linearGradient id="paint0_linear_519_1334" x1="250" y1="0" x2="250" y2="250" gradientUnits="userSpaceOnUse">
<stop stop-color="#FFD2D2"/>
<stop offset="1" stop-color="#F15F5F"/>
</linearGradient>
<linearGradient id="paint1_linear_519_1334" x1="250" y1="50" x2="250" y2="200" gradientUnits="userSpaceOnUse">
<stop stop-color="#F9F8F8"/>
<stop offset="1" stop-color="#FFE6E6"/>
</linearGradient>
</defs>
</svg>
