<svg width="500" height="250" viewBox="0 0 500 250" fill="none" xmlns="http://www.w3.org/2000/svg">
<rect width="500" height="250" fill="#36471F"/>
<path d="M435.727 48.4629C435.218 49.5332 435.747 50.809 436.863 51.2061L500 73.6572V180.342L436.863 202.794C435.747 203.191 435.218 204.467 435.727 205.537L456.862 250H43.1377L64.2734 205.537C64.7819 204.467 64.2532 203.191 63.1367 202.794L0 180.342V73.6572L63.1367 51.2061C64.2532 50.809 64.7819 49.5332 64.2734 48.4629L41.2363 0H458.764L435.727 48.4629Z" fill="url(#paint0_radial_666_2183)"/>
<path d="M386.533 67.5967C386.024 68.667 386.552 69.9427 387.669 70.3398L500 110.285V143.714L387.669 183.66C386.552 184.057 386.024 185.333 386.533 186.403L416.764 250H77.2363L107.467 186.403C107.976 185.333 107.448 184.057 106.331 183.66L0 145.848V108.151L106.331 70.3398C107.448 69.9427 107.976 68.667 107.467 67.5967L75.335 0H418.665L386.533 67.5967Z" fill="url(#paint1_radial_666_2183)"/>
<path d="M349.339 84.7305C348.83 85.8007 349.358 87.0764 350.474 87.4736L450.701 123.115C452.474 123.746 452.474 126.254 450.701 126.885L350.474 162.526C349.358 162.924 348.83 164.199 349.339 165.27L389.615 250H362.875L296.268 218.339C295.198 217.83 293.922 218.359 293.525 219.476L282.671 250H229.328L218.473 219.476C218.076 218.359 216.801 217.83 215.73 218.339L149.125 250H122.385L162.661 165.27C163.17 164.199 162.641 162.923 161.524 162.526L61.2986 126.885C59.5255 126.254 59.5255 123.746 61.2986 123.115L161.524 87.4736C162.641 87.0765 163.17 85.8008 162.661 84.7305L122.385 0H149.125L215.73 31.6611C216.801 32.1699 218.076 31.6411 218.473 30.5244L229.328 0H282.671L293.525 30.5244C293.922 31.641 295.198 32.1697 296.268 31.6611L362.875 0H389.615L349.339 84.7305Z" fill="url(#paint2_radial_666_2183)"/>
<path d="M248.116 30.299C248.746 28.5258 251.254 28.5258 251.884 30.299L268.392 76.7188C268.789 77.8354 270.065 78.3638 271.135 77.855L315.631 56.7038C317.331 55.8959 319.104 57.669 318.296 59.3687L297.145 103.865C296.636 104.935 297.165 106.211 298.281 106.608L344.701 123.116C346.474 123.746 346.474 126.254 344.701 126.884L298.281 143.392C297.165 143.789 296.636 145.065 297.145 146.135L318.296 190.631C319.104 192.331 317.331 194.104 315.631 193.296L271.135 172.145C270.065 171.636 268.789 172.165 268.392 173.281L251.884 219.701C251.254 221.474 248.746 221.474 248.116 219.701L231.608 173.281C231.211 172.165 229.935 171.636 228.865 172.145L184.369 193.296C182.669 194.104 180.896 192.331 181.704 190.631L202.855 146.135C203.364 145.065 202.835 143.789 201.719 143.392L155.299 126.884C153.526 126.254 153.526 123.746 155.299 123.116L201.719 106.608C202.835 106.211 203.364 104.935 202.855 103.865L181.704 59.3687C180.896 57.669 182.669 55.8959 184.369 56.7038L228.865 77.855C229.935 78.3638 231.211 77.8354 231.608 76.7188L248.116 30.299Z" fill="url(#paint3_radial_666_2183)"/>
<g filter="url(#filter0_d_666_2183)">
<path d="M269.333 42L214 125H255.5H297L241.667 208" stroke="#F1D85F" stroke-width="50" stroke-linecap="round" stroke-linejoin="round"/>
</g>
<defs>
<filter id="filter0_d_666_2183" x="179" y="6.99731" width="153" height="236.005" filterUnits="userSpaceOnUse" color-interpolation-filters="sRGB">
<feFlood flood-opacity="0" result="BackgroundImageFix"/>
<feColorMatrix in="SourceAlpha" type="matrix" values="0 0 0 0 0 0 0 0 0 0 0 0 0 0 0 0 0 0 127 0" result="hardAlpha"/>
<feOffset/>
<feGaussianBlur stdDeviation="5"/>
<feComposite in2="hardAlpha" operator="out"/>
<feColorMatrix type="matrix" values="0 0 0 0 0 0 0 0 0 0 0 0 0 0 0 0 0 0 0.25 0"/>
<feBlend mode="normal" in2="BackgroundImageFix" result="effect1_dropShadow_666_2183"/>
<feBlend mode="normal" in="SourceGraphic" in2="effect1_dropShadow_666_2183" result="shape"/>
</filter>
<radialGradient id="paint0_radial_666_2183" cx="0" cy="0" r="1" gradientUnits="userSpaceOnUse" gradientTransform="translate(250 127) rotate(-90) scale(368)">
<stop stop-color="#623524"/>
<stop offset="1" stop-color="#F1D85F" stop-opacity="0"/>
</radialGradient>
<radialGradient id="paint1_radial_666_2183" cx="0" cy="0" r="1" gradientUnits="userSpaceOnUse" gradientTransform="translate(247 127) rotate(-90) scale(276)">
<stop stop-color="#946B1F"/>
<stop offset="1" stop-color="#F1D85F" stop-opacity="0"/>
</radialGradient>
<radialGradient id="paint2_radial_666_2183" cx="0" cy="0" r="1" gradientUnits="userSpaceOnUse" gradientTransform="translate(256 125) rotate(-90) scale(184 184)">
<stop stop-color="#F7D110"/>
<stop offset="1" stop-color="#F1D85F" stop-opacity="0"/>
</radialGradient>
<radialGradient id="paint3_radial_666_2183" cx="0" cy="0" r="1" gradientUnits="userSpaceOnUse" gradientTransform="translate(250 125) rotate(-90) scale(92)">
<stop stop-color="#EFE3A9"/>
<stop offset="1" stop-color="#F1D85F" stop-opacity="0"/>
</radialGradient>
</defs>
</svg>
