<svg width="500" height="250" viewBox="0 0 500 250" fill="none" xmlns="http://www.w3.org/2000/svg">
<rect width="500" height="250" fill="#8515BD"/>
<path d="M435.727 48.4629C435.218 49.5332 435.747 50.809 436.863 51.2061L500 73.6572V180.342L436.863 202.794C435.747 203.191 435.218 204.467 435.727 205.537L456.862 250H43.1377L64.2734 205.537C64.7819 204.467 64.2532 203.191 63.1367 202.794L0 180.342V73.6572L63.1367 51.2061C64.2532 50.809 64.7819 49.5332 64.2734 48.4629L41.2363 0H458.764L435.727 48.4629Z" fill="url(#paint0_radial_729_49)"/>
<path d="M386.533 67.5967C386.024 68.667 386.552 69.9427 387.669 70.3398L500 110.285V143.714L387.669 183.66C386.552 184.057 386.024 185.333 386.533 186.403L416.764 250H77.2363L107.467 186.403C107.976 185.333 107.448 184.057 106.331 183.66L0 145.848V108.151L106.331 70.3398C107.448 69.9427 107.976 68.667 107.467 67.5967L75.335 0H418.665L386.533 67.5967Z" fill="url(#paint1_radial_729_49)"/>
<path d="M349.339 84.7305C348.83 85.8007 349.358 87.0764 350.475 87.4736L450.701 123.115C452.474 123.746 452.474 126.254 450.701 126.885L350.475 162.526C349.358 162.924 348.83 164.199 349.339 165.27L389.615 250H362.875L296.269 218.339C295.198 217.83 293.922 218.359 293.525 219.476L282.671 250H229.328L218.474 219.476C218.077 218.359 216.801 217.83 215.73 218.339L149.125 250H122.385L162.661 165.27C163.17 164.199 162.641 162.923 161.524 162.526L61.2988 126.885C59.5257 126.254 59.5257 123.746 61.2988 123.115L161.524 87.4736C162.641 87.0765 163.17 85.8008 162.661 84.7305L122.385 0H149.125L215.73 31.6611C216.801 32.1699 218.077 31.6411 218.474 30.5244L229.328 0H282.671L293.525 30.5244C293.922 31.641 295.198 32.1697 296.269 31.6611L362.875 0H389.615L349.339 84.7305Z" fill="url(#paint2_radial_729_49)"/>
<path d="M248.116 30.299C248.746 28.5258 251.254 28.5258 251.884 30.299L268.392 76.7188C268.789 77.8354 270.065 78.3638 271.135 77.855L315.631 56.7038C317.331 55.8959 319.104 57.669 318.296 59.3687L297.145 103.865C296.636 104.935 297.165 106.211 298.281 106.608L344.701 123.116C346.474 123.746 346.474 126.254 344.701 126.884L298.281 143.392C297.165 143.789 296.636 145.065 297.145 146.135L318.296 190.631C319.104 192.331 317.331 194.104 315.631 193.296L271.135 172.145C270.065 171.636 268.789 172.165 268.392 173.281L251.884 219.701C251.254 221.474 248.746 221.474 248.116 219.701L231.608 173.281C231.211 172.165 229.935 171.636 228.865 172.145L184.369 193.296C182.669 194.104 180.896 192.331 181.704 190.631L202.855 146.135C203.364 145.065 202.835 143.789 201.719 143.392L155.299 126.884C153.526 126.254 153.526 123.746 155.299 123.116L201.719 106.608C202.835 106.211 203.364 104.935 202.855 103.865L181.704 59.3687C180.896 57.669 182.669 55.8959 184.369 56.7038L228.865 77.855C229.935 78.3638 231.211 77.8354 231.608 76.7188L248.116 30.299Z" fill="url(#paint3_radial_729_49)"/>
<path d="M152.964 204.404C140.814 206.572 135.816 204.391 134.12 204.11L154.627 204.036C161.036 202.348 167.772 197.463 176.645 188.99C181.257 184.586 186.342 171.261 189.061 165.985C191.779 160.71 194.029 155.085 199.548 139.25C205.066 123.415 213.785 97.5403 219.823 80.6954C228.449 56.6319 233.548 47.3253 236.242 43.2131C238.467 39.815 241.219 37.6521 244.053 36.0925C249.766 32.948 259.926 35.3596 271.73 39.3311C276.906 41.0727 283.235 45.8509 290.049 51.1008C293.814 54.0017 297.451 63.4159 303.404 80.9724C306.646 90.5328 308.794 101.904 312.348 113.746C315.902 125.588 320.402 137.682 324.408 146.865C334.377 169.719 338.947 172.283 347.022 180.508C351.627 185.198 352.415 187.1 359.03 192.77C373.118 204.846 373.055 202.735 381.71 203.165C383.581 203.306 395.109 202.875 396.83 203.165L154.627 204.036C154.071 204.183 153.516 204.305 152.964 204.404Z" fill="#15BD85" fill-opacity="0.33"/>
<path d="M134.12 204.11C135.816 204.391 140.814 206.572 152.964 204.404C159.882 203.17 167.002 198.199 176.645 188.99C181.257 184.586 186.342 171.261 189.061 165.985C191.779 160.71 194.029 155.085 199.548 139.25C205.066 123.415 213.785 97.5403 219.823 80.6954C228.449 56.6319 233.548 47.3253 236.242 43.2131C238.467 39.815 241.219 37.6521 244.053 36.0925C249.766 32.948 259.926 35.3596 271.73 39.3311C276.906 41.0727 283.235 45.8509 290.049 51.1008C293.814 54.0017 297.451 63.4159 303.404 80.9724C306.646 90.5328 308.794 101.904 312.348 113.746C315.902 125.588 320.402 137.682 324.408 146.865C334.377 169.719 338.947 172.283 347.022 180.508C351.627 185.198 352.415 187.1 359.03 192.77C373.118 204.846 373.055 202.735 381.71 203.165C383.581 203.306 395.109 202.875 396.83 203.165L134.12 204.11Z" stroke="#15BD85" stroke-width="3" stroke-linecap="round"/>
<path d="M119 17V204C119 205.105 119.895 206 121 206H402.5" stroke="#1F3647" stroke-width="5" stroke-linecap="round"/>
<path d="M257.1 99L257.25 98.85H258.15C262.583 99.0167 266.883 99.0333 271.05 98.9C271.95 98.8667 272.45 98.95 272.55 99.15C272.617 99.25 272.583 99.6333 272.45 100.3C272.25 101.1 272.067 101.533 271.9 101.6C271.767 101.633 271.467 101.65 271 101.65C269.8 101.65 269.017 101.7 268.65 101.8C268.45 101.833 268.333 101.917 268.3 102.05C268.133 102.383 267.067 106.467 265.1 114.3C263.1 122.3 262.033 126.483 261.9 126.85C261.167 128.817 259.733 130.517 257.6 131.95C256.633 132.583 255.667 133.067 254.7 133.4C251.567 134.467 248.817 134.4 246.45 133.2C245.25 132.6 244.383 131.767 243.85 130.7C243.55 130.133 243.4 129.45 243.4 128.65C243.4 127.783 243.5 127.117 243.7 126.65C243.967 126.083 244.283 125.617 244.65 125.25C245.617 124.283 246.733 123.9 248 124.1C249 124.3 249.667 124.833 250 125.7C250.067 125.867 250.1 126.15 250.1 126.55C250.1 127.35 249.883 128.083 249.45 128.75C248.85 129.583 248.133 130.117 247.3 130.35L247.1 130.45L247.9 131.05C248.667 131.483 249.6 131.7 250.7 131.7C251.433 131.7 252.083 131.567 252.65 131.3C254.317 130.533 255.567 129.183 256.4 127.25C256.533 126.95 256.65 126.633 256.75 126.3C256.75 126.267 257.8 122.133 259.9 113.9C261.867 105.967 262.833 101.983 262.8 101.95C262.567 101.783 261.317 101.683 259.05 101.65C257.483 101.65 256.633 101.533 256.5 101.3C256.467 101.2 256.517 100.817 256.65 100.15C256.817 99.5167 256.967 99.1333 257.1 99Z" fill="#1F3647"/>
<path d="M99.44 132.1L99.4 132.04V126.6V121.16L99.46 121.08C99.5133 121.04 99.5667 121.02 99.62 121.02L104.18 121.6C104.247 121.6 104.3 121.627 104.34 121.68L104.4 121.74V122.08C104.4 122.32 104.387 122.46 104.36 122.5C104.32 122.567 104.153 122.587 103.86 122.56C103.473 122.507 103.093 122.473 102.72 122.46C102.173 122.447 101.727 122.513 101.38 122.66C101.167 122.78 100.987 122.96 100.84 123.2C100.747 123.387 100.673 123.633 100.62 123.94C100.553 124.313 100.527 125.087 100.54 126.26C100.54 127.487 100.58 128.133 100.66 128.2L105.62 129.46C105.633 129.46 105.64 129.12 105.64 128.44C105.627 127.707 105.613 127.3 105.6 127.22C105.493 126.633 105.213 126.213 104.76 125.96C104.52 125.84 104.18 125.72 103.74 125.6C103.58 125.56 103.46 125.52 103.38 125.48C103.327 125.44 103.3 125.287 103.3 125.02C103.3 124.753 103.347 124.6 103.44 124.56L103.5 124.52L106.2 125.2C107.973 125.627 108.9 125.86 108.98 125.9C109.06 125.927 109.1 126.08 109.1 126.36C109.1 126.64 109.053 126.8 108.96 126.84C108.92 126.867 108.8 126.86 108.6 126.82C107.867 126.633 107.373 126.613 107.12 126.76C106.973 126.867 106.867 127.093 106.8 127.44C106.787 127.507 106.773 127.92 106.76 128.68V129.74L109.24 130.38C110.853 130.78 111.693 130.98 111.76 130.98C111.827 130.9 111.867 130.413 111.88 129.52C111.88 128.987 111.893 128.693 111.92 128.64C111.92 128.587 111.953 128.56 112.02 128.56C112.06 128.533 112.213 128.553 112.48 128.62C112.76 128.7 112.913 128.753 112.94 128.78L113 128.84V129.2C112.933 130.893 112.927 132.733 112.98 134.72C112.993 135.147 112.96 135.387 112.88 135.44C112.84 135.467 112.687 135.453 112.42 135.4C112.127 135.333 111.96 135.267 111.92 135.2C111.893 135.133 111.88 134.893 111.88 134.48C111.867 133.733 111.813 133.313 111.72 133.22C111.693 133.18 109.84 132.7 106.16 131.78C102.48 130.86 100.633 130.407 100.62 130.42C100.593 130.447 100.58 130.493 100.58 130.56C100.54 130.72 100.52 131.113 100.52 131.74C100.52 132.087 100.48 132.28 100.4 132.32C100.36 132.347 100.207 132.333 99.94 132.28C99.66 132.213 99.4933 132.153 99.44 132.1ZM104.2 117.488C104.133 117.022 104.153 116.562 104.26 116.108C104.487 115.068 105.067 114.322 106 113.868C107.067 113.335 108.26 113.362 109.58 113.948C109.82 114.055 110.053 114.175 110.28 114.308C111.547 115.068 112.427 116.122 112.92 117.468C113.04 117.815 113.127 118.168 113.18 118.528C113.233 118.808 113.24 119.162 113.2 119.588C113.187 119.628 113.18 119.662 113.18 119.688C113.06 120.448 112.753 121.088 112.26 121.608C111.807 122.048 111.273 122.335 110.66 122.468C109.46 122.748 108.227 122.482 106.96 121.668C106.213 121.188 105.6 120.588 105.12 119.868C104.587 119.082 104.28 118.288 104.2 117.488ZM105.12 116.808C105.053 117.328 105.153 117.828 105.42 118.308C105.833 119.068 106.54 119.622 107.54 119.968C108.153 120.195 108.827 120.375 109.56 120.508C110.747 120.748 111.553 120.582 111.98 120.008C112.007 119.968 112.033 119.928 112.06 119.888C112.167 119.715 112.227 119.528 112.24 119.328C112.373 118.595 112.153 117.895 111.58 117.228C111.46 117.082 111.327 116.948 111.18 116.828C110.7 116.428 109.947 116.102 108.92 115.848C108.853 115.822 108.78 115.802 108.7 115.788C107.86 115.575 107.233 115.468 106.82 115.468C106.487 115.468 106.227 115.508 106.04 115.588C105.747 115.695 105.513 115.895 105.34 116.188C105.22 116.362 105.147 116.568 105.12 116.808ZM104.18 111.081C104.153 110.841 104.16 110.568 104.2 110.261C104.347 109.635 104.653 109.188 105.12 108.921L105.22 108.861L105.08 108.741C104.8 108.461 104.587 108.168 104.44 107.861C104.267 107.515 104.18 107.128 104.18 106.701C104.18 106.461 104.193 106.295 104.22 106.201C104.287 105.961 104.4 105.728 104.56 105.501C104.933 105.048 105.44 104.848 106.08 104.901C106.12 104.901 106.153 104.901 106.18 104.901C106.833 104.981 107.273 105.261 107.5 105.741C107.673 106.115 107.687 106.468 107.54 106.801C107.353 107.188 107.013 107.335 106.52 107.241C106.253 107.188 106.007 107.061 105.78 106.861C105.62 106.688 105.507 106.495 105.44 106.281L105.38 106.141L105.32 106.201C105.067 106.508 105.027 106.895 105.2 107.361C105.387 107.828 105.82 108.255 106.5 108.641L106.74 108.801L109.6 109.501C111.52 109.995 112.52 110.261 112.6 110.301C113 110.488 113.207 110.801 113.22 111.241C113.22 111.455 113.16 111.641 113.04 111.801C113.013 111.868 112.94 111.928 112.82 111.981C112.687 112.048 112.487 112.055 112.22 112.001C111.913 111.935 110.953 111.701 109.34 111.301C107.273 110.781 106.2 110.515 106.12 110.501C105.467 110.408 105.127 110.535 105.1 110.881C105.1 110.921 105.1 110.961 105.1 111.001C105.18 111.401 105.833 111.755 107.06 112.061C107.22 112.115 107.307 112.141 107.32 112.141C107.4 112.288 107.44 112.448 107.44 112.621V113.001L107.38 113.061C107.327 113.115 107.187 113.115 106.96 113.061C106.027 112.808 105.327 112.495 104.86 112.121C104.5 111.828 104.273 111.481 104.18 111.081ZM104.18 98.598V97.778C104.327 96.8046 104.733 96.198 105.4 95.958C105.8 95.8246 106.207 95.858 106.62 96.058C106.793 96.1513 106.92 96.238 107 96.318C107.333 96.678 107.467 97.0646 107.4 97.478C107.373 97.678 107.3 97.8513 107.18 97.998C107.047 98.1313 106.887 98.2113 106.7 98.238C106.3 98.3046 105.92 98.1713 105.56 97.838C105.467 97.7446 105.393 97.6446 105.34 97.538C105.313 97.498 105.293 97.4713 105.28 97.458C105.24 97.458 105.187 97.638 105.12 97.998C105 98.878 105.3 99.6713 106.02 100.378C106.527 100.845 107.313 101.218 108.38 101.498C108.473 101.511 108.567 101.531 108.66 101.558C109.727 101.825 110.473 101.931 110.9 101.878C111.607 101.785 112.047 101.405 112.22 100.738C112.3 100.458 112.3 100.045 112.22 99.498C112.1 98.658 111.813 97.9446 111.36 97.358C111.2 97.1046 111.007 96.8913 110.78 96.718C110.607 96.5713 110.553 96.4513 110.62 96.358C110.647 96.318 110.713 96.2446 110.82 96.138C111.02 95.9513 111.147 95.8646 111.2 95.878C111.347 95.9313 111.593 96.1646 111.94 96.578C111.993 96.6446 112.04 96.7046 112.08 96.758C112.8 97.7046 113.18 98.8446 113.22 100.178C113.233 101.058 113.033 101.805 112.62 102.418C112.433 102.725 112.167 102.998 111.82 103.238C111.447 103.491 111.033 103.665 110.58 103.758C109.34 104.011 108.087 103.711 106.82 102.858C106.673 102.765 106.533 102.665 106.4 102.558C106.107 102.331 105.787 102.011 105.44 101.598C104.68 100.651 104.26 99.6513 104.18 98.598ZM104.18 89.9456V89.1456C104.327 88.1856 104.767 87.5723 105.5 87.3056C105.767 87.2256 106.04 87.2123 106.32 87.2656C107.347 87.4923 108.02 88.2323 108.34 89.4856C108.5 90.0456 108.6 90.9723 108.64 92.2656V92.9056L108.76 92.9456C108.987 92.999 109.333 93.0656 109.8 93.1456C110.227 93.199 110.607 93.199 110.94 93.1456C111.327 93.0656 111.64 92.899 111.88 92.6456C112.16 92.339 112.293 91.9256 112.28 91.4056C112.213 90.339 111.907 89.439 111.36 88.7056C111.2 88.4523 111.007 88.239 110.78 88.0656C110.607 87.919 110.553 87.799 110.62 87.7056C110.647 87.6656 110.713 87.5923 110.82 87.4856C111.02 87.299 111.147 87.2123 111.2 87.2256C111.267 87.239 111.44 87.3856 111.72 87.6656C112.52 88.5056 113 89.5856 113.16 90.9056C113.24 91.359 113.253 91.759 113.2 92.1056C113.067 93.359 112.433 94.2323 111.3 94.7256C111.1 94.819 110.887 94.8923 110.66 94.9456C110.327 95.039 109.907 95.0856 109.4 95.0856C108.613 95.0723 107.893 94.899 107.24 94.5656C106.747 94.3256 106.293 93.999 105.88 93.5856C105.693 93.3856 105.487 93.139 105.26 92.8456C104.66 92.0323 104.307 91.1523 104.2 90.2056C104.187 90.139 104.18 90.0523 104.18 89.9456ZM105.12 89.4056C105.027 89.899 105.12 90.419 105.4 90.9656C105.76 91.7523 106.453 92.299 107.48 92.6056C107.587 92.6323 107.647 92.6523 107.66 92.6656C107.687 92.6656 107.7 92.4456 107.7 92.0056C107.687 91.139 107.627 90.4856 107.52 90.0456C107.333 89.139 106.947 88.6056 106.36 88.4456C106.147 88.3923 105.96 88.399 105.8 88.4656C105.453 88.5856 105.227 88.899 105.12 89.4056Z" fill="#1F3647"/>
<path d="M233.96 213.52L234.02 213.46H239.96C243.96 213.46 245.993 213.5 246.06 213.58C246.087 213.647 245.973 214.447 245.72 215.98C245.453 217.553 245.313 218.347 245.3 218.36C245.247 218.427 245.087 218.46 244.82 218.46C244.54 218.46 244.387 218.42 244.36 218.34C244.333 218.287 244.34 218.12 244.38 217.84C244.58 216.627 244.62 215.813 244.5 215.4C244.38 215 243.96 214.74 243.24 214.62C243.12 214.607 242.733 214.6 242.08 214.6C241.32 214.587 240.907 214.62 240.84 214.7C240.813 214.727 240.347 216.573 239.44 220.24L238.06 225.74L238.12 225.78C238.293 225.847 238.953 225.88 240.1 225.88H240.72L240.8 225.94C240.84 225.993 240.86 226.04 240.86 226.08L240.68 226.88C240.64 226.96 240.507 226.993 240.28 226.98C240.2 226.98 240.007 226.98 239.7 226.98C236.913 226.927 234.74 226.933 233.18 227H232.88L232.82 226.94C232.753 226.873 232.747 226.72 232.8 226.48C232.8 226.453 232.807 226.427 232.82 226.4C232.887 226.107 232.947 225.947 233 225.92C233.04 225.893 233.273 225.88 233.7 225.88C234.593 225.88 235.173 225.86 235.44 225.82C235.653 225.807 235.8 225.76 235.88 225.68C235.907 225.64 236.373 223.793 237.28 220.14C238.2 216.473 238.66 214.633 238.66 214.62C238.607 214.593 238.193 214.58 237.42 214.58C236.807 214.593 236.433 214.613 236.3 214.64C235.527 214.76 234.96 215.04 234.6 215.48C234.253 215.907 233.88 216.713 233.48 217.9C233.373 218.193 233.32 218.347 233.32 218.36C233.267 218.427 233.107 218.46 232.84 218.46C232.573 218.46 232.413 218.413 232.36 218.32L232.34 218.26L233.1 215.92C233.633 214.36 233.92 213.56 233.96 213.52ZM248.32 213.82C248.586 213.753 248.84 213.773 249.08 213.88C249.44 214.053 249.6 214.36 249.56 214.8C249.546 214.867 249.533 214.927 249.52 214.98C249.373 215.487 249.04 215.827 248.52 216C248.493 216 248.466 216.007 248.44 216.02C248.053 216.127 247.726 216.047 247.46 215.78C247.153 215.46 247.12 215.073 247.36 214.62C247.546 214.193 247.866 213.927 248.32 213.82ZM246.54 218.2C246.726 218.16 246.966 218.153 247.26 218.18C248.033 218.327 248.52 218.747 248.72 219.44C248.786 219.72 248.786 220.013 248.72 220.32L247.82 222.76C247.22 224.333 246.913 225.153 246.9 225.22C246.74 225.74 246.733 226.073 246.88 226.22C246.92 226.247 246.993 226.26 247.1 226.26C247.246 226.26 247.34 226.253 247.38 226.24C247.953 226.04 248.393 225.447 248.7 224.46C248.726 224.407 248.746 224.347 248.76 224.28C248.826 224.08 248.893 223.973 248.96 223.96C249 223.947 249.12 223.94 249.32 223.94C249.573 223.94 249.713 223.953 249.74 223.98C249.806 224.033 249.82 224.147 249.78 224.32C249.526 225.2 249.126 225.913 248.58 226.46C248.206 226.807 247.826 227.04 247.44 227.16C247.306 227.187 247.126 227.2 246.9 227.2C246.66 227.2 246.486 227.187 246.38 227.16C245.953 227.053 245.633 226.86 245.42 226.58C245.26 226.393 245.153 226.18 245.1 225.94C245.033 225.647 245.033 225.347 245.1 225.04L246.02 222.58C246.633 220.94 246.96 220.04 247 219.88C247.053 219.653 247.053 219.453 247 219.28C246.933 219.12 246.786 219.067 246.56 219.12C246.16 219.2 245.8 219.507 245.48 220.04C245.28 220.373 245.12 220.78 245 221.26C244.96 221.34 244.933 221.387 244.92 221.4C244.893 221.427 244.753 221.44 244.5 221.44H244.12L244.06 221.38C243.993 221.327 244 221.187 244.08 220.96C244.413 219.84 244.953 219.033 245.7 218.54C245.766 218.5 245.84 218.46 245.92 218.42C246.16 218.287 246.366 218.213 246.54 218.2ZM252.934 218.18C253.174 218.153 253.448 218.16 253.754 218.2C254.514 218.373 255.008 218.787 255.234 219.44L255.274 219.56L255.494 219.36C255.748 219.107 255.981 218.913 256.194 218.78C256.861 218.353 257.594 218.147 258.394 218.16C259.154 218.2 259.734 218.413 260.134 218.8C260.348 219 260.514 219.273 260.634 219.62L260.654 219.74L260.914 219.48C261.181 219.187 261.454 218.953 261.734 218.78C262.401 218.353 263.134 218.147 263.934 218.16C264.694 218.2 265.274 218.413 265.674 218.8C266.194 219.307 266.374 220.047 266.214 221.02C266.081 221.793 265.714 222.967 265.114 224.54C264.888 225.167 264.774 225.607 264.774 225.86C264.774 226.127 264.861 226.267 265.034 226.28C265.061 226.28 265.094 226.28 265.134 226.28C265.414 226.253 265.674 226.113 265.914 225.86C266.301 225.473 266.581 224.947 266.754 224.28C266.821 224.08 266.888 223.973 266.954 223.96C266.994 223.947 267.114 223.94 267.314 223.94C267.568 223.94 267.714 223.953 267.754 223.98C267.781 224.007 267.794 224.06 267.794 224.14C267.794 224.433 267.608 224.913 267.234 225.58C267.194 225.647 267.154 225.713 267.114 225.78C266.674 226.46 266.148 226.907 265.534 227.12C264.988 227.293 264.454 227.247 263.934 226.98C263.748 226.887 263.608 226.787 263.514 226.68C263.394 226.56 263.301 226.433 263.234 226.3C263.101 226.047 263.041 225.78 263.054 225.5C263.054 225.22 263.134 224.86 263.294 224.42C264.148 222.153 264.534 220.687 264.454 220.02C264.414 219.633 264.288 219.373 264.074 219.24C263.928 219.12 263.668 219.08 263.294 219.12C262.308 219.24 261.461 219.88 260.754 221.04L260.634 221.26L259.974 223.86C259.561 225.567 259.321 226.48 259.254 226.6C259.068 227 258.754 227.207 258.314 227.22C258.101 227.22 257.914 227.16 257.754 227.04C257.688 227.013 257.628 226.94 257.574 226.82C257.508 226.673 257.508 226.453 257.574 226.16C257.628 225.893 257.821 225.087 258.154 223.74C258.608 221.953 258.841 221.02 258.854 220.94C258.961 220.393 258.954 219.967 258.834 219.66C258.728 219.287 258.468 219.1 258.054 219.1C256.934 219.1 255.988 219.747 255.214 221.04L255.094 221.26L254.434 223.86C254.021 225.567 253.781 226.48 253.714 226.6C253.528 227 253.214 227.207 252.774 227.22C252.561 227.22 252.374 227.16 252.214 227.04C252.148 227.013 252.088 226.94 252.034 226.82C251.968 226.687 251.961 226.487 252.014 226.22C252.081 225.913 252.314 224.953 252.714 223.34C253.234 221.273 253.501 220.2 253.514 220.12C253.608 219.467 253.481 219.127 253.134 219.1C253.094 219.1 253.054 219.1 253.014 219.1C252.628 219.18 252.281 219.8 251.974 220.96L251.874 221.32C251.728 221.4 251.568 221.44 251.394 221.44H251.014L250.954 221.38C250.901 221.327 250.901 221.187 250.954 220.96C251.221 220.04 251.534 219.347 251.894 218.88C252.174 218.52 252.521 218.287 252.934 218.18ZM273.953 218.18H274.753C275.713 218.327 276.326 218.767 276.593 219.5C276.673 219.767 276.686 220.04 276.633 220.32C276.406 221.347 275.666 222.02 274.413 222.34C273.853 222.5 272.926 222.6 271.633 222.64H270.993L270.953 222.76C270.899 222.987 270.833 223.333 270.753 223.8C270.699 224.227 270.699 224.607 270.753 224.94C270.833 225.327 270.999 225.64 271.253 225.88C271.559 226.16 271.973 226.293 272.493 226.28C273.559 226.213 274.459 225.907 275.193 225.36C275.446 225.2 275.659 225.007 275.833 224.78C275.979 224.607 276.099 224.553 276.193 224.62C276.233 224.647 276.306 224.713 276.413 224.82C276.599 225.02 276.686 225.147 276.673 225.2C276.659 225.267 276.513 225.44 276.233 225.72C275.393 226.52 274.313 227 272.993 227.16C272.539 227.24 272.139 227.253 271.793 227.2C270.539 227.067 269.666 226.433 269.173 225.3C269.079 225.1 269.006 224.887 268.953 224.66C268.859 224.327 268.813 223.907 268.813 223.4C268.826 222.613 268.999 221.893 269.333 221.24C269.573 220.747 269.899 220.293 270.313 219.88C270.513 219.693 270.759 219.487 271.053 219.26C271.866 218.66 272.746 218.307 273.693 218.2C273.759 218.187 273.846 218.18 273.953 218.18ZM274.493 219.12C273.999 219.027 273.479 219.12 272.933 219.4C272.146 219.76 271.599 220.453 271.293 221.48C271.266 221.587 271.246 221.647 271.233 221.66C271.233 221.687 271.453 221.7 271.893 221.7C272.759 221.687 273.413 221.627 273.853 221.52C274.759 221.333 275.293 220.947 275.453 220.36C275.506 220.147 275.499 219.96 275.433 219.8C275.313 219.453 274.999 219.227 274.493 219.12Z" fill="#1F3647"/>
<defs>
<radialGradient id="paint0_radial_729_49" cx="0" cy="0" r="1" gradientUnits="userSpaceOnUse" gradientTransform="translate(250 127) rotate(-90) scale(368)">
<stop stop-color="#623524"/>
<stop offset="1" stop-color="#5FD8F1" stop-opacity="0"/>
</radialGradient>
<radialGradient id="paint1_radial_729_49" cx="0" cy="0" r="1" gradientUnits="userSpaceOnUse" gradientTransform="translate(247 127) rotate(-90) scale(276)">
<stop stop-color="#D0FDFD"/>
<stop offset="1" stop-color="#5FD8F1" stop-opacity="0"/>
</radialGradient>
<radialGradient id="paint2_radial_729_49" cx="0" cy="0" r="1" gradientUnits="userSpaceOnUse" gradientTransform="translate(256 125) rotate(-90) scale(184 184)">
<stop stop-color="#10D1F7"/>
<stop offset="1" stop-color="#5FD8F1" stop-opacity="0"/>
</radialGradient>
<radialGradient id="paint3_radial_729_49" cx="0" cy="0" r="1" gradientUnits="userSpaceOnUse" gradientTransform="translate(250 125) rotate(-90) scale(92)">
<stop stop-color="#A9E3EF"/>
<stop offset="1" stop-color="#5FD8F1" stop-opacity="0"/>
</radialGradient>
</defs>
</svg>
