<svg width="500" height="250" viewBox="0 0 500 250" fill="none" xmlns="http://www.w3.org/2000/svg">
<rect width="500" height="250" fill="#1F3647"/>
<path d="M500 24.5791L464.473 84.2344C463.033 86.6524 463.872 89.7822 466.328 91.1562L500 109.993V176.006L466.328 194.844C463.872 196.218 463.033 199.348 464.473 201.766L493.198 250H24.8018L53.5273 201.766C54.9672 199.348 54.128 196.218 51.6719 194.844L0 165.937V120.062L51.6719 91.1562C54.128 89.7822 54.9672 86.6524 53.5273 84.2344L3.76562 0.678711C3.63302 0.456033 3.52107 0.229013 3.42676 0H500V24.5791Z" fill="url(#paint0_radial_673_56)" style="mix-blend-mode:screen"/>
<path d="M355.064 25.8682C355.026 28.6824 357.318 30.9737 360.132 30.9355L420.269 30.1211C424.177 30.0684 426.632 34.3199 424.632 37.6787L393.858 89.3516C392.418 91.7696 393.257 94.8993 395.713 96.2734L448.2 125.637C451.612 127.545 451.612 132.455 448.2 134.363L395.713 163.727C393.257 165.101 392.418 168.23 393.858 170.648L424.632 222.321C426.632 225.68 424.177 229.932 420.269 229.879L360.132 229.064C357.318 229.026 355.026 231.318 355.064 234.132L355.279 250H156.721L156.936 234.132C156.974 231.318 154.682 229.026 151.868 229.064L91.7314 229.879C87.8226 229.932 85.368 225.68 87.3682 222.321L118.142 170.648C119.582 168.23 118.743 165.101 116.287 163.727L63.7998 134.363C60.3883 132.455 60.3884 127.545 63.7998 125.637L116.287 96.2734C118.743 94.8993 119.582 91.7696 118.142 89.3516L87.3682 37.6787C85.368 34.3199 87.8226 30.0684 91.7314 30.1211L151.868 30.9355C154.682 30.9737 156.974 28.6824 156.936 25.8682L156.585 0H355.415L355.064 25.8682Z" fill="url(#paint1_radial_673_56)" style="mix-blend-mode:screen"/>
<path d="M251.636 32.8C253.545 29.3882 258.455 29.3882 260.364 32.8L271.609 52.9018C272.983 55.358 276.113 56.1966 278.531 54.7565L298.321 42.9707C301.68 40.9703 305.932 43.4252 305.879 47.3343L305.567 70.3657C305.529 73.1799 307.82 75.4711 310.634 75.433L333.666 75.121C337.575 75.0681 340.03 79.3201 338.029 82.679L326.243 102.469C324.803 104.887 325.642 108.017 328.098 109.391L348.2 120.636C351.612 122.545 351.612 127.455 348.2 129.364L328.098 140.609C325.642 141.983 324.803 145.113 326.243 147.531L338.029 167.321C340.03 170.68 337.575 174.932 333.666 174.879L310.634 174.567C307.82 174.529 305.529 176.82 305.567 179.634L305.879 202.666C305.932 206.575 301.68 209.03 298.321 207.029L278.531 195.243C276.113 193.803 272.983 194.642 271.609 197.098L260.364 217.2C258.455 220.612 253.545 220.612 251.636 217.2L240.391 197.098C239.017 194.642 235.887 193.803 233.469 195.243L213.679 207.029C210.32 209.03 206.068 206.575 206.121 202.666L206.433 179.634C206.471 176.82 204.18 174.529 201.366 174.567L178.334 174.879C174.425 174.932 171.97 170.68 173.971 167.321L185.757 147.531C187.197 145.113 186.358 141.983 183.902 140.609L163.8 129.364C160.388 127.455 160.388 122.545 163.8 120.636L183.902 109.391C186.358 108.017 187.197 104.887 185.757 102.469L173.971 82.679C171.97 79.3201 174.425 75.0681 178.334 75.121L201.366 75.433C204.18 75.4711 206.471 73.1799 206.433 70.3657L206.121 47.3343C206.068 43.4252 210.32 40.9703 213.679 42.9707L233.469 54.7565C235.887 56.1966 239.017 55.358 240.391 52.9018L251.636 32.8Z" fill="url(#paint2_radial_673_56)" style="mix-blend-mode:plus-lighter"/>
<rect width="500" height="250" fill="#DCA3E6" style="mix-blend-mode:color"/>
<circle cx="149.6" cy="124.6" r="70.6" fill="url(#paint3_radial_673_56)"/>
<path d="M149.6 120.85C147.529 120.85 145.85 122.529 145.85 124.6C145.85 126.671 147.529 128.35 149.6 128.35V124.6V120.85ZM246.385 127.252C247.85 125.787 247.85 123.413 246.385 121.948L222.52 98.0835C221.056 96.619 218.681 96.619 217.217 98.0835C215.752 99.5479 215.752 101.922 217.217 103.387L238.43 124.6L217.217 145.813C215.752 147.278 215.752 149.652 217.217 151.116C218.681 152.581 221.056 152.581 222.52 151.116L246.385 127.252ZM149.6 124.6V128.35H243.733V124.6V120.85H149.6V124.6Z" fill="#1F3647"/>
<circle cx="361.4" cy="124.6" r="70.6" fill="url(#paint4_radial_673_56)"/>
<path d="M361.4 128.35C363.471 128.35 365.15 126.671 365.15 124.6C365.15 122.529 363.471 120.85 361.4 120.85V124.6V128.35ZM264.615 121.948C263.15 123.413 263.15 125.787 264.615 127.252L288.48 151.117C289.944 152.581 292.319 152.581 293.783 151.117C295.248 149.652 295.248 147.278 293.783 145.813L272.57 124.6L293.783 103.387C295.248 101.922 295.248 99.548 293.783 98.0835C292.319 96.619 289.944 96.619 288.48 98.0835L264.615 121.948ZM361.4 124.6V120.85L267.267 120.85V124.6V128.35H361.4V124.6Z" fill="#1F3647"/>
<path d="M149.6 54C180.277 54 206.383 73.5668 216.122 100.9C216.078 99.8863 216.444 98.8572 217.218 98.083C218.682 96.6192 221.056 96.619 222.521 98.083L246.386 121.948C247.85 123.413 247.849 125.787 246.386 127.251L222.521 151.116C221.056 152.58 218.682 152.58 217.218 151.116C216.443 150.342 216.077 149.313 216.122 148.299C206.384 175.633 180.277 195.2 149.6 195.2C110.609 195.2 79.0002 163.592 79 124.601C79 85.6094 110.608 54.0002 149.6 54ZM361.4 54C400.392 54 432 85.6085 432 124.6C432 163.591 400.392 195.2 361.4 195.2C330.723 195.2 304.615 175.633 294.877 148.299C294.922 149.313 294.557 150.342 293.783 151.116C292.319 152.58 289.945 152.58 288.48 151.116L264.615 127.251C263.151 125.787 263.151 123.413 264.615 121.948L288.48 98.083C289.945 96.6191 292.319 96.6189 293.783 98.083C294.557 98.8573 294.921 99.8863 294.877 100.9C304.616 73.5665 330.723 54 361.4 54ZM220.102 128.35C219.775 134.587 218.638 140.61 216.796 146.315C216.92 146.139 217.06 145.97 217.218 145.812L234.681 128.35H220.102ZM293.783 145.812C293.94 145.97 294.08 146.138 294.203 146.314C292.361 140.609 291.226 134.587 290.899 128.35H276.32L293.783 145.812ZM216.796 102.884C218.638 108.589 219.775 114.612 220.102 120.85H234.681L217.218 103.387C217.06 103.229 216.92 103.06 216.796 102.884ZM294.204 102.884C294.08 103.06 293.941 103.229 293.783 103.387L276.32 120.85H290.899C291.226 114.612 292.362 108.589 294.204 102.884Z" fill="url(#paint5_radial_673_56)" fill-opacity="0.5" style="mix-blend-mode:luminosity"/>
<defs>
<radialGradient id="paint0_radial_673_56" cx="0" cy="0" r="1" gradientUnits="userSpaceOnUse" gradientTransform="translate(259 143) rotate(90) scale(300)">
<stop stop-color="#8B4537" stop-opacity="0"/>
<stop offset="0.4375" stop-color="#8B4537"/>
<stop offset="0.6875" stop-color="#25120F"/>
<stop offset="0.985577" stop-color="#25120F" stop-opacity="0"/>
</radialGradient>
<radialGradient id="paint1_radial_673_56" cx="0" cy="0" r="1" gradientUnits="userSpaceOnUse" gradientTransform="translate(256 130) rotate(90) scale(200)">
<stop stop-color="white" stop-opacity="0"/>
<stop offset="0.346154" stop-color="#F1775F"/>
<stop offset="0.673077" stop-color="#8B4537"/>
<stop offset="1" stop-color="#8B4537" stop-opacity="0"/>
</radialGradient>
<radialGradient id="paint2_radial_673_56" cx="0" cy="0" r="1" gradientUnits="userSpaceOnUse" gradientTransform="translate(256 125) rotate(90) scale(94)">
<stop stop-color="white"/>
<stop offset="0.5" stop-color="#F1D85F"/>
<stop offset="1" stop-color="#F1D85F" stop-opacity="0"/>
</radialGradient>
<radialGradient id="paint3_radial_673_56" cx="0" cy="0" r="1" gradientUnits="userSpaceOnUse" gradientTransform="translate(174.31 100.596) rotate(136.081) scale(105.853)">
<stop stop-color="#5FB4F1"/>
<stop offset="1" stop-color="#0077CC"/>
</radialGradient>
<radialGradient id="paint4_radial_673_56" cx="0" cy="0" r="1" gradientUnits="userSpaceOnUse" gradientTransform="translate(386.11 100.596) rotate(136.081) scale(105.853)">
<stop stop-color="#F1775F"/>
<stop offset="1" stop-color="#BD2915"/>
</radialGradient>
<radialGradient id="paint5_radial_673_56" cx="0" cy="0" r="1" gradientUnits="userSpaceOnUse" gradientTransform="translate(256 124.5) rotate(90) scale(139.5 139.435)">
<stop stop-color="white"/>
<stop offset="1" stop-color="#2F2F2F"/>
</radialGradient>
</defs>
</svg>
