<svg width="500" height="250" viewBox="0 0 500 250" fill="none" xmlns="http://www.w3.org/2000/svg">
<rect width="500" height="250" fill="#BD2915"/>
<path d="M480.153 1.75C480.284 5.03677 482.024 8.04878 484.805 9.80566L500 19.4053V250H0V19.4053L15.1953 9.80566C17.9762 8.04878 19.7156 5.03677 19.8467 1.75L19.916 0H480.084L480.153 1.75Z" fill="#F1775F"/>
<path d="M447.244 20.75C447.375 24.0367 449.115 27.0488 451.896 28.8057L500 59.1963V146.664L477.75 175.436C475.738 178.038 475.134 181.463 476.135 184.597L497.028 250H2.97168L23.8652 184.597C24.8662 181.463 24.2623 178.038 22.25 175.436L0 146.664V59.1963L48.1045 28.8057C50.8853 27.0488 52.6248 24.0367 52.7559 20.75L53.583 0H446.417L447.244 20.75Z" fill="#BD2915"/>
<path d="M414.335 39.75C414.466 43.0367 416.205 46.0488 418.986 47.8057L486.905 90.7148C491.89 93.8644 493.082 100.621 489.474 105.286L440.327 168.837C438.315 171.439 437.711 174.865 438.712 177.998L461.715 250H38.285L61.287 177.998C62.288 174.865 61.684 171.439 59.6717 168.837L10.5252 105.286C6.91776 100.621 8.1092 93.8644 13.0946 90.7148L81.0135 47.8057C83.7941 46.0487 85.5329 43.0366 85.6639 39.75L87.2489 0H412.75L414.335 39.75Z" fill="#F1775F"/>
<path d="M381.427 58.75C381.558 62.0366 383.296 65.0488 386.077 66.8057L437.665 99.3975C442.65 102.547 443.841 109.304 440.234 113.969L402.904 162.238C400.892 164.84 400.288 168.266 401.289 171.399L419.858 229.525C421.653 235.143 418.222 241.085 412.46 242.34L377.277 250H122.722L87.5389 242.34C81.7772 241.085 78.3462 235.143 80.1405 229.525L98.7098 171.399C99.7108 168.266 99.1069 164.84 97.0946 162.238L59.7655 113.969C56.158 109.304 57.3494 102.547 62.3348 99.3975L113.922 66.8057C116.703 65.0488 118.442 62.0368 118.573 58.75L120.915 0H379.084L381.427 58.75Z" fill="#BD2915"/>
<path d="M285.455 28.9883C287.668 31.4218 290.937 32.6115 294.196 32.1699L335.521 26.5703C341.365 25.7786 346.621 30.1889 346.856 36.0811L348.517 77.75C348.648 81.0366 350.387 84.0487 353.168 85.8057L388.425 108.079C393.41 111.229 394.601 117.987 390.994 122.651L365.482 155.64C363.47 158.242 362.866 161.667 363.867 164.801L376.557 204.525C378.352 210.143 374.921 216.085 369.159 217.34L328.411 226.211C325.197 226.911 322.532 229.147 321.285 232.19L313.987 250H186.013L178.714 232.19C177.466 229.147 174.803 226.911 171.589 226.211L130.841 217.34C125.079 216.085 121.648 210.143 123.442 204.525L136.133 164.801C137.134 161.667 136.53 158.242 134.517 155.64L109.006 122.651C105.398 117.987 106.59 111.229 111.575 108.079L146.831 85.8057C149.612 84.0488 151.351 81.0368 151.482 77.75L153.143 36.0811C153.378 30.1888 158.635 25.7785 164.478 26.5703L205.804 32.1699C209.063 32.6114 212.331 31.4216 214.544 28.9883L240.906 0H259.094L285.455 28.9883Z" fill="#F1775F"/>
<path d="M242.602 48.1354C246.569 43.7727 253.431 43.7727 257.398 48.1354L272.459 64.6964C274.672 67.13 277.94 68.3196 281.2 67.8779L303.382 64.8721C309.226 64.0803 314.482 68.4909 314.717 74.3832L315.609 96.7503C315.74 100.037 317.479 103.049 320.26 104.806L339.184 116.762C344.17 119.912 345.361 126.669 341.754 131.334L328.059 149.041C326.047 151.643 325.443 155.069 326.444 158.202L333.256 179.525C335.051 185.142 331.62 191.085 325.858 192.339L303.985 197.102C300.771 197.801 298.107 200.037 296.86 203.081L288.372 223.794C286.136 229.251 279.688 231.598 274.467 228.855L254.651 218.444C251.739 216.914 248.261 216.914 245.349 218.444L225.533 228.855C220.312 231.598 213.864 229.251 211.628 223.794L203.14 203.081C201.893 200.037 199.229 197.801 196.015 197.102L174.142 192.339C168.38 191.085 164.949 185.142 166.744 179.525L173.556 158.202C174.557 155.069 173.953 151.643 171.941 149.041L158.246 131.334C154.639 126.669 155.83 119.912 160.816 116.762L179.74 104.806C182.521 103.049 184.26 100.037 184.391 96.7503L185.283 74.3832C185.518 68.4909 190.774 64.0803 196.618 64.8721L218.8 67.8779C222.06 68.3196 225.328 67.13 227.541 64.6964L242.602 48.1354Z" fill="#BD2915"/>
<path d="M208.718 95.0769C209.494 93.2137 211.315 92 213.333 92H250H286.667C288.685 92 290.506 93.2137 291.282 95.0769L327.115 181.077C328.488 184.37 326.068 188 322.5 188H177.5C173.932 188 171.512 184.37 172.885 181.077L208.718 95.0769Z" fill="url(#paint0_linear_640_2025)"/>
<g filter="url(#filter0_i_640_2025)">
<path d="M218.344 159V122.636H228.216V137.338H228.713L239.651 122.636H251.156L238.869 138.83L251.44 159H239.651L231.483 145.364L228.216 149.625V159H218.344ZM265.365 169.795C262.631 169.795 260.287 169.405 258.334 168.624C256.393 167.854 254.883 166.789 253.806 165.428C252.741 164.078 252.143 162.527 252.013 160.776H261.459C261.554 161.356 261.79 161.823 262.169 162.178C262.548 162.533 263.033 162.788 263.625 162.942C264.229 163.107 264.904 163.19 265.649 163.19C266.916 163.19 267.963 162.883 268.792 162.267C269.633 161.652 270.053 160.539 270.053 158.929V154.312H269.769C269.414 155.236 268.869 156.023 268.135 156.674C267.401 157.313 266.519 157.804 265.49 158.148C264.46 158.479 263.329 158.645 262.098 158.645C260.157 158.645 258.369 158.195 256.736 157.295C255.114 156.396 253.812 154.969 252.83 153.016C251.859 151.063 251.374 148.512 251.374 145.364C251.374 142.073 251.883 139.398 252.901 137.338C253.931 135.278 255.256 133.769 256.878 132.81C258.512 131.852 260.228 131.372 262.027 131.372C263.377 131.372 264.56 131.609 265.578 132.082C266.596 132.544 267.449 133.165 268.135 133.947C268.822 134.716 269.343 135.562 269.698 136.486H269.911V131.727H279.712V158.929C279.712 161.237 279.114 163.196 277.919 164.806C276.735 166.428 275.066 167.665 272.911 168.517C270.757 169.369 268.242 169.795 265.365 169.795ZM265.72 151.685C266.62 151.685 267.389 151.436 268.029 150.939C268.68 150.43 269.177 149.708 269.52 148.773C269.875 147.826 270.053 146.689 270.053 145.364C270.053 144.014 269.875 142.86 269.52 141.901C269.177 140.931 268.68 140.191 268.029 139.682C267.389 139.161 266.62 138.901 265.72 138.901C264.821 138.901 264.051 139.161 263.412 139.682C262.785 140.191 262.299 140.931 261.956 141.901C261.625 142.86 261.459 144.014 261.459 145.364C261.459 146.713 261.625 147.861 261.956 148.808C262.299 149.743 262.785 150.46 263.412 150.957C264.051 151.442 264.821 151.685 265.72 151.685Z" fill="#666666"/>
</g>
<path d="M265 78C265 86.2843 258.284 93 250 93C241.716 93 235 86.2843 235 78C235 69.7157 241.716 63 250 63C258.284 63 265 69.7157 265 78ZM239.755 78C239.755 83.658 244.342 88.2447 250 88.2447C255.658 88.2447 260.245 83.658 260.245 78C260.245 72.342 255.658 67.7553 250 67.7553C244.342 67.7553 239.755 72.342 239.755 78Z" fill="#6B6B6B"/>
<defs>
<filter id="filter0_i_640_2025" x="218.344" y="122.636" width="65.3682" height="51.1591" filterUnits="userSpaceOnUse" color-interpolation-filters="sRGB">
<feFlood flood-opacity="0" result="BackgroundImageFix"/>
<feBlend mode="normal" in="SourceGraphic" in2="BackgroundImageFix" result="shape"/>
<feColorMatrix in="SourceAlpha" type="matrix" values="0 0 0 0 0 0 0 0 0 0 0 0 0 0 0 0 0 0 127 0" result="hardAlpha"/>
<feOffset dx="4" dy="4"/>
<feGaussianBlur stdDeviation="2"/>
<feComposite in2="hardAlpha" operator="arithmetic" k2="-1" k3="1"/>
<feColorMatrix type="matrix" values="0 0 0 0 0 0 0 0 0 0 0 0 0 0 0 0 0 0 0.25 0"/>
<feBlend mode="normal" in2="shape" result="effect1_innerShadow_640_2025"/>
</filter>
<linearGradient id="paint0_linear_640_2025" x1="250" y1="92" x2="250" y2="188" gradientUnits="userSpaceOnUse">
<stop stop-color="#6B6B6B"/>
<stop offset="1" stop-color="#1A1A1A"/>
</linearGradient>
</defs>
</svg>
