<svg width="500" height="250" viewBox="0 0 500 250" fill="none" xmlns="http://www.w3.org/2000/svg">
<rect width="500" height="250" fill="url(#paint0_linear_645_2062)"/>
<path d="M102.37 54.693C102.574 54.6205 103.185 54.7741 104.203 55.1538C105.6 55.5049 106.858 56.0378 107.977 56.7523C110.754 58.5023 112.461 60.9421 113.097 64.0716C113.458 65.8329 113.448 68.0885 113.066 70.8383C112.786 73.1809 112.15 75.4647 111.158 77.6899C109.201 83.0133 106.283 88.7139 102.404 94.7915C98.8309 100.389 94.9107 104.662 90.6429 107.611C85.8798 111.053 80.8138 112.378 75.4452 111.585C70.7166 110.953 67.3579 108.809 65.3691 105.154C64.9046 104.295 64.5711 103.407 64.3686 102.49C63.7754 99.9276 63.8667 96.9809 64.6424 93.6495C65.579 89.678 67.6449 84.6603 70.8399 78.5963C75.231 70.4821 79.7138 64.4635 84.2884 60.5406C87.0273 58.2595 89.7871 56.6334 92.5679 55.6621C95.9455 54.5316 99.2129 54.2085 102.37 54.693ZM103.477 59.5185C102.619 58.9935 101.55 58.6937 100.269 58.6192C97.1553 58.455 94.3018 59.4698 91.7085 61.6637C91.3005 62.0561 90.9217 62.4558 90.5719 62.8628C88.7208 65.0577 85.1839 71.0048 79.9613 80.704C77.3498 85.6774 75.3363 89.6256 73.9208 92.5487C72.6367 95.1955 71.7971 97.3044 71.4021 98.8755C71.1242 99.9811 70.9848 100.781 70.9842 101.276C71.1275 102.921 71.6204 104.282 72.463 105.36C74.2499 107.603 76.9413 108.218 80.537 107.204C83.4049 106.379 85.7718 104.716 87.6379 102.215C89.6495 99.6275 93.2449 93.4477 98.424 83.6756C103.88 73.54 106.639 67.3663 106.7 65.1545C106.673 63.5392 106.231 62.2216 105.374 61.2018C104.88 60.459 104.248 59.8979 103.477 59.5185ZM114.61 107.419C116.007 107.523 117.156 107.997 118.057 108.842C119.656 110.358 119.966 112.199 118.988 114.366C118.375 115.573 117.443 116.576 116.19 117.375C113.685 118.972 111.349 119.158 109.182 117.933C108.543 117.525 107.998 116.985 107.547 116.315C106.342 114.466 106.563 112.48 108.21 110.357C109.362 108.976 110.825 108.076 112.601 107.656C113.387 107.483 114.057 107.404 114.61 107.419ZM177.467 73.5741L178.275 73.6843L178.362 73.7063C179.002 73.8672 179.358 74.1733 179.43 74.6245C179.43 74.8719 175.148 83.0445 166.584 99.1422C157.89 115.269 153.535 123.361 153.52 123.42C153.418 123.58 153.789 123.827 154.633 124.163C155.491 124.441 156.902 124.857 158.866 125.413C161.135 125.984 162.306 126.495 162.378 126.946C162.451 127.15 162.195 127.797 161.611 128.887C160.955 130.022 160.554 130.632 160.408 130.719L160.081 130.915L158.684 130.564C152.357 128.664 144.887 126.755 136.274 124.837C134.281 124.398 133.22 123.945 133.089 123.48C133.075 123.29 133.33 122.643 133.856 121.538C134.498 120.462 134.899 119.851 135.059 119.706L135.474 119.532L138.791 120.366C142.355 121.2 144.479 121.487 145.163 121.226C145.425 121.168 148.795 115.024 155.273 102.794L165.076 84.4717L163.788 84.7973C160.906 85.4338 158.192 85.5247 155.645 85.0702C154.511 84.9086 153.856 84.5585 153.682 84.0198L153.661 83.736L154.405 82.2527C155.105 80.944 155.623 80.2389 155.958 80.1375C156.016 80.1521 156.525 80.2183 157.485 80.336C159.682 80.7027 162.083 80.6259 164.689 80.1055C168.954 79.1362 172.915 77.1624 176.572 74.1841C176.805 73.9952 177.103 73.7919 177.467 73.5741ZM215.326 83.0926L217.617 83.5759L217.704 83.5979C219.668 84.1535 221.421 85.058 222.961 86.3116C225.2 88.2355 226.659 90.6749 227.339 93.6299C227.932 96.1919 227.863 98.9276 227.132 101.837C226.751 103.35 226.24 104.768 225.598 106.091C224.285 108.855 222.288 111.26 219.607 113.309C218.748 114.021 217.029 115.073 214.452 116.467C211.379 117.86 207.426 119.31 202.593 120.817C201.006 121.222 199.565 121.664 198.269 122.142C194.397 123.272 190.676 125.152 187.108 127.781C187.049 128.261 187.099 128.552 187.259 128.654C188.365 128.932 190.663 129.881 194.153 131.501C198.807 133.661 201.92 134.815 203.491 134.962C206.212 135.214 208.789 134.067 211.223 131.524C211.82 130.87 212.36 130.201 212.841 129.518C213.264 128.82 213.628 128.479 213.934 128.493C214.123 128.479 214.741 128.604 215.788 128.867L217.709 129.35L217.905 129.678C218.035 129.896 218.071 130.122 218.013 130.354C217.736 130.965 217.021 132.085 215.869 133.713C211.875 139.267 207.454 142.331 202.607 142.907C202.04 142.95 201.508 142.971 201.014 142.97C200.519 142.969 199.748 142.837 198.7 142.574C197.653 142.311 196.882 142.055 196.388 141.807C194.861 140.99 193.153 139.54 191.264 137.456C188.779 134.79 186.693 133.121 185.006 132.449C183.886 131.982 182.86 132.126 181.927 132.882C181.374 133.361 180.572 134.459 179.522 136.175C178.997 137.032 178.582 137.454 178.276 137.439C178.029 137.439 177.381 137.307 176.334 137.043L174.501 136.583L174.305 136.255C174.145 135.905 174.328 135.302 174.853 134.444C178.791 127.639 184.772 122.554 192.794 119.188C194.25 118.564 195.714 118.035 197.184 117.601C204.812 115.312 210.434 112.023 214.049 107.735C215.113 106.456 216.403 104.275 217.921 101.192C218.826 99.3157 219.476 97.5921 219.871 96.021C220.28 94.3917 220.377 93.0239 220.16 91.9177C219.784 90.2146 218.811 88.9181 217.24 88.0284C216.426 87.5762 215.291 87.2909 213.836 87.1725C212.541 87.1562 211.529 87.2422 210.802 87.4304C207.934 88.0086 205.16 89.5693 202.479 92.1123C201.372 93.0713 200.038 94.5611 198.478 96.5817C195.562 100.551 194.584 103.089 195.543 104.196C195.834 104.516 196.459 104.612 197.42 104.482C199.501 104.325 201.548 102.829 203.56 99.9937C203.662 99.8338 203.756 99.703 203.844 99.6012C205.287 97.5513 205.828 95.7694 205.466 94.2555C205.264 93.5858 205.286 93.1274 205.534 92.8804C206.335 92.4012 207.347 91.9442 208.57 91.5093C208.977 91.3643 209.275 91.532 209.464 92.0125C209.711 92.5076 209.862 93.2573 209.919 94.2614C210.12 96.4154 209.338 98.7864 207.574 101.374C204.585 105.634 201.206 108.002 197.436 108.477C197.116 108.52 196.767 108.556 196.388 108.584C195.21 108.597 194.148 108.392 193.202 107.969C191.065 106.875 190.114 104.996 190.35 102.334C190.468 101.126 190.827 99.9476 191.425 98.7988C192.826 95.9339 194.837 93.2226 197.46 90.6649C202.211 85.7963 207.395 83.2639 213.012 83.0677C213.827 83.0251 214.598 83.0334 215.326 83.0926ZM251.329 92.2376C251.606 92.1215 252.101 92.3696 252.813 92.9817C254.674 94.4394 256.549 95.5915 258.44 96.4381C263.414 98.5548 268.914 99.1952 274.939 98.3592C275.696 98.302 276.133 98.2881 276.249 98.3173C276.598 98.4051 276.765 98.7255 276.75 99.2784L275.131 102.027L275.109 102.114C274.57 102.535 273.216 103.123 271.047 103.877C268.863 104.689 266.563 105.224 264.147 105.483C261.789 105.756 259.562 105.753 257.467 105.474C255.78 105.297 253.947 104.836 251.968 104.091C251.241 103.785 250.849 103.624 250.79 103.609C250.674 103.58 249.478 105.63 247.202 109.76L243.832 116.151C243.818 116.209 244.145 116.137 244.815 115.934C246.707 115.297 248.731 115.001 250.884 115.047C252.412 115.122 254.078 115.51 255.881 116.211C258.572 117.568 260.483 119.564 261.614 122.2C262.122 123.626 262.432 125.097 262.547 126.61C262.804 130.511 261.707 134.504 259.257 138.589C255.946 144.129 251.204 147.979 245.031 150.139C241.755 151.357 238.509 151.841 235.294 151.589C233.577 151.528 232.107 151.221 230.886 150.666C228.398 149.732 226.552 148.216 225.347 146.118C224.81 145.055 224.404 143.964 224.129 142.843C223.797 140.965 223.924 138.862 224.509 136.535C225.328 133.524 226.596 131.553 228.315 130.624C229.116 130.145 229.96 129.863 230.848 129.777C231.998 129.633 233.096 129.816 234.143 130.327C235.219 130.968 235.837 131.835 235.995 132.927C236.256 134.106 235.956 135.299 235.096 136.505C234.512 137.349 233.82 138.01 233.019 138.489C232.014 139.041 230.988 139.308 229.94 139.292C229.504 139.306 229.256 139.306 229.198 139.291L229.154 139.837L229.132 139.924C229.056 142.442 229.999 144.349 231.962 145.647C234.506 147.339 237.504 147.474 240.955 146.052C242.323 145.53 243.532 144.782 244.581 143.809C246.344 142.21 248.393 139.23 250.727 134.867C253.017 130.679 254.404 127.625 254.886 125.705C255.179 124.541 255.224 123.501 255.021 122.584C254.761 121.157 254.013 120.196 252.777 119.699C251.759 119.32 250.755 119.129 249.766 119.128C248.238 119.053 246.826 119.255 245.53 119.733C243.565 120.415 241.773 121.387 240.156 122.651C239.545 123.116 239.173 123.363 239.042 123.392C238.969 123.435 238.409 123.325 237.362 123.062C236.14 122.755 235.464 122.368 235.333 121.903L235.334 121.531L242.927 107.2C248.238 97.3994 250.885 92.528 250.871 92.5862C251.06 92.3245 251.213 92.2083 251.329 92.2376ZM306.47 106.101C307.198 106.16 307.882 106.27 308.522 106.431C311.838 107.265 314.376 108.862 316.133 111.222C317.063 112.446 317.759 113.982 318.223 115.83C318.555 117.708 318.479 119.607 317.997 121.527C317.368 124.029 316.047 126.451 314.036 128.791C310.99 132.294 307.152 134.639 302.523 135.826L301.628 136.065L301.846 136.305C302.485 136.961 303.03 137.871 303.479 139.036C303.914 140.259 304.196 141.474 304.326 142.682C304.355 142.813 304.39 143.41 304.432 144.472C304.357 146.248 303.962 148.066 303.246 149.928C301.538 154.015 298.587 157.263 294.393 159.673C289.325 162.606 284.005 163.588 278.433 162.621C277.894 162.547 277.363 162.445 276.84 162.313C274.919 161.83 273.16 160.955 271.561 159.686C270.5 158.739 269.664 157.756 269.054 156.736C268.082 154.945 267.612 152.878 267.644 150.535C267.733 149.196 268.121 147.654 268.807 145.909C269.507 144.353 270.44 143.226 271.605 142.529C273.572 141.353 275.449 141.269 277.237 142.275C278.197 142.888 278.771 143.681 278.959 144.657C279.292 146.04 278.824 147.407 277.556 148.758C276.492 150.038 275.123 150.683 273.45 150.696L272.773 150.804L272.794 151.459C272.834 154.005 273.894 155.942 275.973 157.269C277.558 158.348 279.609 158.802 282.127 158.631C285.314 158.504 288.015 157.111 290.231 154.451C291.047 153.419 292.09 151.732 293.359 149.391C296.101 144.389 297.263 140.999 296.843 139.224C296.742 138.889 296.611 138.547 296.452 138.197C296.103 137.615 295.587 137.083 294.904 136.602C294.584 136.397 293.442 136.018 291.479 135.462L288.533 134.628L288.402 134.41C288.359 134.337 288.301 134.199 288.228 133.995C288.374 133.413 288.98 132.235 290.045 130.461C290.249 130.141 290.787 130.091 291.66 130.311C291.951 130.384 292.562 130.537 293.493 130.772C295.879 131.371 297.639 131.628 298.774 131.543C300.987 131.356 302.996 130.5 304.802 128.975C306.012 127.856 307.39 125.821 308.936 122.869C310.191 120.586 310.994 118.746 311.345 117.349C311.769 115.662 311.662 114.243 311.023 113.092C310.427 112.262 309.722 111.621 308.908 111.169C307.934 110.614 306.574 110.241 304.828 110.05C302.616 109.989 300.454 110.342 298.343 111.111C296.64 111.734 295.111 112.649 293.756 113.855C291.92 115.497 290.761 117.278 290.278 119.198C289.971 120.42 290.203 121.097 290.974 121.229C292.167 121.405 293.266 120.97 294.272 119.924C294.476 119.604 294.636 119.211 294.753 118.746C294.929 118.048 294.864 117.32 294.56 116.563C294.415 115.908 294.459 115.486 294.692 115.297C295.493 114.818 296.505 114.361 297.728 113.926C298.063 113.824 298.383 114.029 298.688 114.538C299.138 115.456 299.348 116.467 299.317 117.573C299.359 118.636 299.132 119.661 298.636 120.65C297.338 123.108 295.284 124.633 292.475 125.226C291.441 125.399 290.452 125.398 289.506 125.222C286.625 124.621 285.187 122.837 285.191 119.868C285.162 119.49 285.273 118.806 285.521 117.817C285.755 116.886 286.004 116.144 286.266 115.591C287.462 113.541 288.949 111.811 290.726 110.402C292.198 109.225 293.756 108.318 295.401 107.68C299.085 106.069 302.775 105.543 306.47 106.101ZM319.692 158.981C321.089 159.085 322.238 159.559 323.139 160.405C324.738 161.92 325.048 163.761 324.07 165.928C323.457 167.135 322.525 168.138 321.272 168.937C318.767 170.534 316.431 170.72 314.265 169.495C313.625 169.087 313.08 168.548 312.63 167.878C311.424 166.028 311.645 164.042 313.292 161.919C314.444 160.539 315.908 159.638 317.684 159.219C318.47 159.045 319.139 158.966 319.692 158.981ZM346.457 165.71C347.854 165.814 349.003 166.289 349.904 167.134C351.502 168.649 351.813 170.491 350.835 172.658C350.222 173.865 349.289 174.868 348.037 175.666C345.532 177.264 343.196 177.45 341.029 176.224C340.39 175.816 339.845 175.277 339.394 174.607C338.189 172.757 338.41 170.771 340.057 168.649C341.209 167.268 342.672 166.368 344.448 165.948C345.234 165.774 345.904 165.695 346.457 165.71ZM373.221 172.44C374.618 172.543 375.767 173.018 376.668 173.863C378.267 175.379 378.578 177.22 377.6 179.387C376.987 180.594 376.054 181.597 374.802 182.395C372.296 183.993 369.961 184.179 367.794 182.954C367.154 182.545 366.609 182.006 366.159 181.336C364.954 179.486 365.175 177.5 366.822 175.378C367.973 173.997 369.437 173.097 371.213 172.677C371.999 172.504 372.668 172.424 373.221 172.44ZM399.986 179.169C401.383 179.273 402.532 179.747 403.433 180.592C405.032 182.108 405.342 183.949 404.364 186.116C403.751 187.323 402.819 188.326 401.566 189.125C399.061 190.722 396.725 190.908 394.559 189.683C393.919 189.275 393.374 188.735 392.924 188.065C391.718 186.216 391.939 184.23 393.587 182.107C394.738 180.726 396.202 179.826 397.978 179.406C398.764 179.233 399.433 179.154 399.986 179.169ZM426.751 185.898C428.148 186.002 429.297 186.476 430.198 187.322C431.796 188.837 432.107 190.678 431.129 192.845C430.516 194.052 429.583 195.055 428.331 195.854C425.826 197.451 423.49 197.637 421.323 196.412C420.684 196.004 420.139 195.465 419.688 194.795C418.483 192.945 418.704 190.959 420.351 188.836C421.503 187.456 422.966 186.555 424.742 186.136C425.528 185.962 426.198 185.883 426.751 185.898Z" fill="url(#paint1_linear_645_2062)"/>
<path d="M106 155C131.987 155 153.342 174.826 155.769 200.177C157.164 200.06 158.575 200 160 200C187.614 200 210 222.386 210 250H30C30 231.078 40.5112 214.612 56.0127 206.12C56.0045 205.748 56 205.374 56 205C56 177.386 78.3858 155 106 155ZM15 112C42.6142 112 65 134.386 65 162C65 189.614 42.6142 212 15 212C9.77386 212 4.73529 211.197 0 209.71V114.289C4.73521 112.802 9.77397 112 15 112ZM456.661 0C458.817 5.58522 460 11.6544 460 18C460 27.3018 457.457 36.0083 453.032 43.4678C463.435 52.6304 470 66.0477 470 81C470 82.951 469.887 84.8758 469.67 86.7686C476.635 83.0871 484.573 81 493 81C495.376 81 497.713 81.1659 500 81.4863V180.513C497.713 180.833 495.376 181 493 181C465.386 181 443 158.614 443 131C443 129.049 443.112 127.123 443.329 125.23C436.364 128.912 428.426 131 420 131C392.386 131 370 108.614 370 81C370 71.6981 372.542 62.9908 376.967 55.5312C373.959 52.8822 371.273 49.8778 368.974 46.583C360.172 54.3117 348.634 59 336 59C308.386 59 286 36.6142 286 9C286 5.92734 286.278 2.91955 286.809 0H456.661ZM49.1914 0C49.7221 2.91955 50 5.92734 50 9C50 36.6142 27.6142 59 0 59V0H49.1914Z" fill="#F7A1A1"/>
<path d="M56 140C83.6142 140 106 162.386 106 190C106 212.6 91.0052 231.697 70.4219 237.888C68.971 242.22 66.9433 246.288 64.4297 250H0V177.594C2.72246 176.181 5.59064 175.01 8.57715 174.111C15.2166 154.286 33.94 140 56 140ZM500 125.404C493.114 128.978 485.294 131 477 131C449.386 131 427 108.614 427 81C427 66.861 432.87 54.0945 442.305 45C439.819 42.6039 437.58 39.9538 435.632 37.0898C432.627 61.8317 411.553 81 386 81C358.386 81 336 58.6142 336 31C336 19.29 340.027 8.52126 346.77 0H425.229C425.975 0.94355 426.689 1.91423 427.367 2.91113C427.486 1.93153 427.637 0.961285 427.812 0H500V125.404Z" fill="#F15F5F"/>
<defs>
<linearGradient id="paint0_linear_645_2062" x1="250" y1="0" x2="250" y2="250" gradientUnits="userSpaceOnUse">
<stop stop-color="white"/>
<stop offset="1" stop-color="#FFD2D2"/>
</linearGradient>
<linearGradient id="paint1_linear_645_2062" x1="270.772" y1="84.5049" x2="290.643" y2="138.175" gradientUnits="userSpaceOnUse">
<stop stop-color="#F15F5F"/>
<stop offset="1" stop-color="#D21313"/>
</linearGradient>
</defs>
</svg>
