<svg width="500" height="270" viewBox="0 0 500 270" fill="none" xmlns="http://www.w3.org/2000/svg">
<rect x="0.000488281" y="11.0001" width="500" height="250" fill="url(#paint0_linear_413_1030)"/>
<path d="M377.905 185.308C380.069 185.199 382.056 186.497 382.828 188.521L406.382 250.312C407.153 252.337 406.533 254.627 404.847 255.986L398.626 261H291.329C290.066 259.752 289.541 257.9 290.018 256.138L307.282 192.302C307.848 190.211 309.696 188.722 311.859 188.613L377.905 185.308ZM144.817 111.1C146.698 110.025 149.057 110.283 150.66 111.739L206.482 162.445C208.085 163.902 208.569 166.224 207.68 168.199L176.706 236.959C175.816 238.934 173.756 240.111 171.603 239.875L96.6377 231.665C94.4846 231.429 92.7272 229.834 92.2861 227.713L76.9297 153.88C76.4889 151.759 77.4634 149.596 79.3438 148.521L144.817 111.1ZM223.362 21.123C224.235 19.1412 226.286 17.9466 228.44 18.1641L279.693 23.3438C281.848 23.5617 283.618 25.1422 284.077 27.2588L294.988 77.6025C295.447 79.7195 294.491 81.8918 292.619 82.9824L248.111 108.917C246.24 110.008 243.879 109.769 242.264 108.326L203.844 74.0107C202.229 72.5678 201.726 70.2487 202.599 68.2666L223.362 21.123ZM365.816 18.6035C366.895 16.7252 369.061 15.7545 371.181 16.1992L421.595 26.7803C423.715 27.2252 425.307 28.9852 425.539 31.1387L431.055 82.3555C431.287 84.5091 430.106 86.567 428.129 87.4531L381.123 108.526C379.147 109.412 376.825 108.924 375.371 107.318L340.804 69.126C339.35 67.52 339.097 65.1598 340.175 63.2812L365.816 18.6035ZM67.7451 44.5664C67.9768 46.7199 66.7958 48.778 64.8193 49.6641L10.6143 73.9639C8.63783 74.8498 6.31581 74.3626 4.8623 72.7568L0 67.3838V11H64.1299L67.7451 44.5664Z" fill="#0077CC"/>
<g filter="url(#filter0_d_413_1030)">
<path d="M226.42 96.3075C228.45 96.3098 229.394 96.3947 230.483 96.7235C231.613 97.0647 232.64 97.5487 233.759 98.873C234.781 100.083 236.046 101.559 236.354 102.562C236.656 103.544 237.063 104.701 237.447 105.726C237.786 106.631 238.125 107.594 238.652 108.437C239.218 109.342 239.815 110.246 240.272 111.453C240.872 113.035 241.004 114.242 241.325 115.443C241.627 116.573 241.966 117.463 242.229 118.418C242.531 119.51 243.66 120.468 243.094 123.203C242.829 124.481 242.871 126.233 242.871 126.757C243.435 127.661 243.963 128.486 244.754 129.203C245.545 129.92 246.363 130.719 246.711 131.727C247.05 132.709 247.15 134.676 247.426 136.209C247.65 137.458 247.991 138.914 248.103 139.861C248.328 141.765 248.05 144.566 247.837 145.51C247.424 147.336 247.775 150.04 247.612 151.122C247.425 152.371 247.539 153.909 247.161 155.528C246.897 156.659 246.502 157.804 246.37 158.918C246.219 160.198 245.818 161.229 245.616 162.419C245.391 163.745 245.207 165.528 244.75 166.523C244.334 167.428 243.284 168.056 242.528 169.801C242.382 170.139 242.532 170.362 242.721 170.552C243.435 171.269 244.238 172.142 244.224 174.113C244.185 180.081 244.07 181.206 243.544 182.303L243.542 182.307C243.196 183.028 242.82 183.81 242.787 184.494C242.773 184.775 242.817 185.04 242.945 185.276C243.434 186.181 243.745 187.096 244.074 189.875C244.262 191.46 243.937 192.927 243.847 193.939C243.732 195.219 243.243 196.246 243.169 197.444C243.055 199.287 243.036 202.328 242.679 204.257C242.454 205.469 242.305 207.101 241.394 207.986C239.964 209.377 239.416 210.187 238.571 210.885C237.479 211.786 236.553 212.021 235.673 212.389C234.768 212.767 233.726 213.536 232.735 214.197C231.83 214.8 230.874 215.13 230.023 215.59C229.118 216.079 228.095 216.505 227.086 216.682C225.797 216.906 224.131 216.76 219.849 217.17C217.89 217.357 216.253 217.547 215.299 217.81C214.206 218.112 213.303 218.394 211.456 218.526C208.828 218.714 204.943 218.571 203.662 218.449C201.684 218.262 198.869 218.573 197.674 218.677C196.357 218.791 195.481 219.372 194.128 219.354C191.16 219.315 190.25 219.037 189.314 218.713C188.222 218.335 187.223 219.093 183.397 218.224C181.896 217.882 180.885 217.202 180.316 216.225C179.79 215.32 178.98 214.464 179 213.206C179.039 210.724 179.309 207.557 179.378 202.127C179.415 199.178 179.351 194.032 179.453 191.308C179.566 188.283 179.815 187.758 179.83 185.883C179.867 181.252 179.975 178.046 180.094 177.511C180.395 176.154 180.829 174.83 180.998 173.747C181.223 172.304 181.213 170.185 181.487 168.812C181.752 167.492 182.226 166.324 182.315 165.349C182.429 164.102 182.583 162.878 182.843 161.77C183.107 160.641 183.407 159.587 183.709 158.381C183.891 157.653 183.95 156.639 184.058 155.61C184.13 154.933 184.223 154.249 184.387 153.637C184.688 152.507 185.027 151.617 185.291 150.662C185.593 149.57 186.15 148.703 186.421 147.725C186.722 146.632 187.237 145.753 187.55 144.787C187.928 143.618 188.158 142.021 188.719 140.984C189.208 140.079 189.562 139.193 189.809 138.234C190.111 137.065 190.558 136.011 191.205 135.071C192.38 133.364 193.714 131.261 194.557 130.138C195.461 128.931 196.163 127.698 196.815 126.75C197.649 125.538 199.186 123.764 200.016 122.644C200.884 121.475 201.455 120.31 202.804 118.388C203.595 117.259 204.514 116.218 205.175 115.226C205.778 114.322 206.897 113.438 207.773 112.1C208.34 111.235 209.203 110.45 210.147 109.35C211.052 108.298 211.989 107.588 212.858 106.829C213.763 106.038 214.839 105.162 215.984 104.155C216.926 103.327 217.843 102.742 218.733 101.934C220.791 100.064 224.08 97.2288 224.604 97.1542C225.061 96.8514 225.285 96.7595 225.512 96.6454C225.739 96.5313 225.962 96.3821 226.42 96.3075ZM267.205 97.5771C269.613 96.5704 274.232 97.5056 275.059 97.953C275.86 98.3859 276.711 98.746 277.573 99.2274C278.571 99.7847 279.399 100.193 280.226 100.641C281.082 101.103 282.086 101.433 282.914 101.915C283.774 102.415 284.976 103.153 286.015 103.775C286.856 104.279 287.597 105.357 288.289 106.255C288.896 107.043 289.527 107.907 290.354 108.701C291.078 109.395 291.8 110.044 292.217 110.802C292.633 111.559 293.181 112.248 294.006 113.247C294.683 114.068 295.178 114.935 295.73 115.763C296.623 117.101 298.414 118.519 299.38 119.276C300.194 119.916 300.552 120.929 301.07 121.757C301.553 122.529 301.863 123.41 302.345 124.409C302.789 125.332 303.31 126.233 304.031 127.816C304.87 129.658 305.513 130.437 305.859 131.265C306.205 132.092 306.616 132.917 306.858 133.779C307.205 135.016 307.58 136.568 308.098 137.466C308.552 138.255 308.891 139.118 309.544 139.98C310.28 140.952 310.817 142.148 311.233 143.183C311.835 144.676 311.784 145.733 312.06 146.56C312.357 147.45 312.611 148.42 313.058 149.248C313.509 150.082 313.508 151.789 313.714 152.968C313.864 153.827 314.401 154.62 314.747 155.482C315.134 156.445 315.161 157.308 315.367 158.136C315.577 158.982 315.918 159.788 316.365 160.616C316.816 161.451 316.951 162.612 317.193 163.681C317.613 165.537 317.642 166.816 317.813 167.884C318.016 169.148 318.055 170.123 318.226 170.951C318.396 171.768 318.469 172.603 318.641 173.602C318.81 174.593 319.019 175.703 319.123 176.531C319.424 178.915 319.432 182.938 319.536 184.452C319.613 185.568 319.846 186.931 319.95 189.1C320.051 191.202 320.259 194.1 320.363 198.736C320.403 200.518 320.672 201.471 320.776 202.746C320.87 203.894 321.086 204.848 321.122 212.538C321.13 214.152 321.019 214.357 320.882 214.564C320.316 215.419 319.3 215.53 318.301 215.635C316.079 215.867 312.48 215.944 311.651 216.22C310.779 216.511 309.791 216.563 308.792 216.668C307.901 216.761 307.104 217.184 306.276 217.46C305.404 217.751 304.144 217.804 302.902 218.046C301.543 218.31 300.697 218.287 299.835 218.493C299.317 218.617 298.493 218.701 297.564 218.735L297.475 218.738C296.657 218.769 292.992 218.907 287.708 218.874C283.209 218.846 278.787 218.565 277.959 218.323C277.093 218.07 276.1 217.944 275.272 217.497C274.495 217.077 273.62 216.911 272.792 216.601C271.821 216.238 270.453 215.948 269.279 215.601C268.188 215.28 267.211 214.915 266.384 214.74C265.456 214.544 264.525 213.88 263.731 213.123C262.968 212.394 262.251 211.743 261.424 211.262C260.564 210.761 259.361 209.615 258.562 208.576C258.007 207.854 257.633 206.923 257.321 205.924C257.042 205.029 257.08 201.028 256.908 197.904C256.655 193.286 257.216 192.455 257.458 191.627C257.692 190.826 257.836 189.974 258.112 189.146C258.488 188.02 258.183 186.324 257.907 185.426C257.637 184.546 257.563 183.566 257.459 181.332C257.386 179.77 257.15 178.126 257.046 175.923C256.983 174.588 256.666 172.417 256.461 170.957C256.339 170.093 256.046 168.486 255.875 166.69C255.527 163.048 255.632 161.797 255.461 160.829C255.357 159.933 255.219 157.469 255.253 154.473C255.287 153.387 255.356 153.182 255.633 152.765L256.162 152.292C255.895 151.807 255.579 151.336 255.182 150.936C254.529 150.28 254.114 149.456 253.736 148.628C253.359 147.8 253.48 146.936 253.082 145.179C252.739 143.666 252.255 142.181 252.153 140.874C252.049 139.531 251.714 138.162 251.739 136.599C251.775 134.364 252.068 133.58 252.982 129.742C253.358 128.163 253.48 127.332 253.773 126.511C254.12 125.542 254.505 124.423 255.359 123.444C255.663 123.096 256.049 122.792 256.449 122.476L256.46 122.469V122.173C256.46 121.147 256.323 119.077 256.081 117.942C255.585 115.613 256.526 114.6 256.94 113.668C257.457 112.506 258.179 111.636 258.731 110.5C259.508 108.901 259.696 107.572 260.178 106.503C260.598 105.569 261.143 104.815 261.591 103.987C262.053 103.131 262.384 102.128 262.865 101.3C263.365 100.44 263.967 99.6474 264.724 99.0253C265.493 98.3939 266.377 97.9233 267.205 97.5771Z" fill="url(#paint1_linear_413_1030)"/>
<path d="M226.42 95.808C228.462 95.8102 229.467 95.8947 230.628 96.2455C231.828 96.6079 232.946 97.1373 234.141 98.5511C234.649 99.1519 235.232 99.8364 235.725 100.496C236.209 101.144 236.652 101.825 236.833 102.416C237.131 103.385 237.533 104.531 237.916 105.551C238.261 106.474 238.582 107.382 239.077 108.173C239.635 109.067 240.262 110.014 240.741 111.276C241.349 112.881 241.512 114.202 241.809 115.315C241.956 115.866 242.113 116.361 242.268 116.843C242.422 117.322 242.576 117.795 242.711 118.285C242.946 119.134 244.181 120.418 243.583 123.305C243.352 124.426 243.367 125.948 243.371 126.61C243.906 127.466 244.39 128.198 245.09 128.833C245.873 129.544 246.789 130.42 247.184 131.565C247.373 132.113 247.488 132.905 247.588 133.7C247.692 134.52 247.784 135.371 247.918 136.12C248.135 137.321 248.487 138.84 248.601 139.803C248.833 141.771 248.549 144.63 248.326 145.62C248.134 146.469 248.116 147.547 248.131 148.588C248.139 149.092 248.155 149.61 248.159 150.041C248.162 150.475 248.155 150.883 248.108 151.197C248.019 151.791 248.001 152.449 247.958 153.215C247.915 153.966 247.847 154.79 247.648 155.643C247.514 156.216 247.343 156.808 247.2 157.357C247.053 157.918 246.928 158.455 246.867 158.977C246.787 159.651 246.642 160.257 246.497 160.827C246.35 161.403 246.206 161.934 246.11 162.503C246.006 163.118 245.891 163.968 245.763 164.684C245.631 165.422 245.462 166.172 245.205 166.733C244.96 167.264 244.525 167.721 244.151 168.168C243.757 168.638 243.339 169.189 242.988 169.999C242.972 170.036 242.97 170.056 242.97 170.06C242.97 170.063 242.97 170.064 242.971 170.067C242.977 170.082 242.998 170.121 243.076 170.2C243.436 170.562 243.863 171.006 244.189 171.632C244.518 172.266 244.732 173.058 244.725 174.117C244.705 177.096 244.667 178.89 244.566 180.077C244.463 181.28 244.293 181.9 243.996 182.519C243.634 183.272 243.314 183.956 243.287 184.519C243.276 184.732 243.312 184.901 243.386 185.039C243.92 186.026 244.239 187.015 244.571 189.817C244.766 191.47 244.428 193.056 244.345 193.985C244.284 194.672 244.122 195.288 243.978 195.848C243.831 196.419 243.702 196.93 243.668 197.475C243.558 199.263 243.536 202.38 243.171 204.348C243.066 204.918 242.963 205.679 242.778 206.373C242.59 207.075 242.295 207.81 241.744 208.346C241.041 209.029 240.556 209.569 240.134 210.033C239.715 210.494 239.344 210.896 238.89 211.271C237.723 212.234 236.69 212.505 235.866 212.85C235.02 213.204 234.044 213.927 233.013 214.614C232.529 214.936 232.037 215.181 231.572 215.4C231.097 215.623 230.671 215.809 230.262 216.03C229.331 216.533 228.254 216.985 227.172 217.174C226.486 217.294 225.704 217.315 224.61 217.357C223.502 217.4 222.025 217.465 219.897 217.668C217.924 217.857 216.336 218.044 215.432 218.293C214.336 218.596 213.392 218.889 211.493 219.025C208.833 219.215 204.92 219.071 203.616 218.948C201.696 218.766 198.942 219.069 197.717 219.175C197.117 219.227 196.621 219.384 196.051 219.546C195.49 219.706 194.874 219.865 194.122 219.855C191.111 219.815 190.147 219.529 189.152 219.185C188.955 219.117 188.752 219.095 188.475 219.099C188.165 219.103 187.88 219.133 187.401 219.152C186.496 219.187 185.245 219.156 183.287 218.711C181.691 218.349 180.542 217.605 179.885 216.477C179.762 216.266 179.622 216.056 179.469 215.824C179.32 215.597 179.16 215.35 179.016 215.089C178.726 214.561 178.489 213.945 178.5 213.199C178.52 211.948 178.599 210.522 178.679 208.749C178.76 206.972 178.844 204.828 178.878 202.12C178.915 199.2 178.853 194.018 178.955 191.289C179.012 189.762 179.103 188.862 179.181 188.113C179.259 187.37 179.323 186.789 179.331 185.878C179.349 183.561 179.385 181.597 179.432 180.145C179.455 179.419 179.481 178.818 179.509 178.364C179.536 177.926 179.566 177.583 179.606 177.403C179.759 176.712 179.948 176.029 180.113 175.4C180.28 174.763 180.424 174.183 180.504 173.67C180.613 172.976 180.665 172.113 180.725 171.22C180.784 170.345 180.853 169.438 180.998 168.714C181.134 168.03 181.326 167.385 181.486 166.816C181.65 166.233 181.778 165.739 181.818 165.303C181.933 164.049 182.089 162.798 182.356 161.657C182.62 160.528 182.929 159.44 183.224 158.26C183.395 157.578 183.449 156.63 183.562 155.558C183.634 154.875 183.731 154.159 183.905 153.508C184.059 152.93 184.222 152.415 184.377 151.931C184.534 151.444 184.681 150.994 184.809 150.529C184.971 149.942 185.201 149.422 185.411 148.949C185.625 148.466 185.816 148.039 185.939 147.592C186.1 147.01 186.316 146.49 186.523 146.011C186.733 145.523 186.927 145.088 187.075 144.633C187.258 144.067 187.401 143.413 187.583 142.711C187.758 142.035 187.967 141.324 188.279 140.747C188.75 139.876 189.089 139.026 189.326 138.11C189.639 136.895 190.108 135.785 190.793 134.788C191.947 133.113 193.31 130.969 194.158 129.838C194.599 129.25 194.992 128.652 195.36 128.077C195.724 127.509 196.072 126.95 196.404 126.467C196.833 125.843 197.438 125.082 198.029 124.349C198.626 123.608 199.208 122.896 199.616 122.347C200.035 121.782 200.383 121.217 200.805 120.535C201.226 119.856 201.712 119.074 202.395 118.101C202.8 117.524 203.237 116.97 203.646 116.448C204.059 115.92 204.441 115.427 204.759 114.95C205.089 114.455 205.556 113.971 206.005 113.486C206.468 112.987 206.942 112.458 207.356 111.827C207.663 111.358 208.044 110.921 208.451 110.476C208.865 110.024 209.303 109.567 209.768 109.026C210.704 107.937 211.69 107.187 212.53 106.453C212.986 106.055 213.486 105.634 214.009 105.192C214.534 104.748 215.086 104.279 215.655 103.78C216.141 103.353 216.62 102.989 217.075 102.641C217.534 102.29 217.97 101.953 218.397 101.565C219.429 100.626 220.772 99.4445 221.924 98.4867C222.499 98.0085 223.033 97.5819 223.458 97.2679C223.671 97.1115 223.863 96.9773 224.025 96.8783C224.105 96.8289 224.186 96.784 224.261 96.7484C224.299 96.7305 224.347 96.7094 224.401 96.6917C224.842 96.4048 225.083 96.3015 225.288 96.1986C225.487 96.0981 225.79 95.9045 226.34 95.8148L226.38 95.808H226.42ZM267.012 97.1156C268.339 96.5609 270.203 96.5565 271.777 96.722C272.577 96.8061 273.327 96.9371 273.934 97.0765C274.522 97.2116 275.025 97.3659 275.297 97.513C275.686 97.7231 276.088 97.9163 276.512 98.1224C276.933 98.3267 277.373 98.5428 277.818 98.7914C278.819 99.3507 279.61 99.738 280.465 100.201C280.87 100.419 281.312 100.608 281.781 100.812C282.24 101.011 282.723 101.225 283.166 101.483C284.029 101.985 285.242 102.729 286.272 103.346C286.763 103.641 287.202 104.086 287.589 104.543C287.976 104.999 288.351 105.516 288.685 105.949C289.303 106.75 289.908 107.578 290.702 108.339C291.398 109.007 292.193 109.719 292.656 110.561C293.046 111.271 293.564 111.925 294.392 112.928C295.091 113.774 295.62 114.694 296.147 115.485C296.986 116.744 298.707 118.112 299.69 118.883C300.169 119.259 300.5 119.735 300.768 120.193C300.902 120.421 301.026 120.656 301.143 120.872C301.262 121.094 301.375 121.3 301.495 121.492C301.755 121.907 301.964 122.346 302.165 122.792C302.369 123.247 302.558 123.7 302.795 124.192C303.215 125.062 303.77 126.036 304.487 127.609C304.896 128.508 305.258 129.147 305.562 129.668C305.86 130.179 306.131 130.619 306.321 131.072C306.649 131.856 307.087 132.743 307.34 133.644C307.518 134.276 307.694 134.955 307.893 135.602C308.093 136.251 308.303 136.818 308.532 137.216C308.764 137.62 308.979 138.064 309.189 138.462C309.406 138.874 309.64 139.278 309.943 139.678C310.722 140.706 311.279 141.955 311.698 142.996C312.016 143.788 312.162 144.463 312.262 145.035C312.366 145.628 312.412 146.035 312.535 146.402C312.846 147.336 313.079 148.232 313.499 149.009C313.775 149.521 313.894 150.249 313.975 150.918C314.062 151.636 314.106 152.307 314.207 152.882C314.269 153.242 314.417 153.606 314.609 154.01C314.791 154.394 315.031 154.847 315.211 155.296C315.423 155.822 315.534 156.316 315.618 156.769C315.704 157.238 315.755 157.62 315.853 158.015C316.051 158.81 316.373 159.577 316.806 160.378C317.064 160.856 317.223 161.408 317.346 161.949C317.408 162.221 317.464 162.5 317.517 162.771C317.571 163.044 317.624 163.311 317.682 163.57C317.897 164.52 318.012 165.323 318.094 166.019C318.178 166.727 318.224 167.283 318.308 167.804C318.412 168.45 318.474 169.022 318.53 169.525C318.587 170.033 318.637 170.462 318.717 170.849C318.806 171.275 318.867 171.703 318.928 172.139C318.989 172.579 319.049 173.028 319.133 173.518C319.301 174.494 319.513 175.627 319.62 176.469C319.773 177.686 319.851 179.308 319.904 180.8C319.957 182.308 319.984 183.671 320.036 184.417C320.073 184.962 320.149 185.564 320.231 186.327C320.312 187.084 320.397 187.979 320.45 189.077C320.55 191.168 320.759 194.08 320.864 198.725C320.883 199.59 320.958 200.254 321.042 200.863C321.124 201.466 321.222 202.05 321.276 202.705C321.37 203.859 321.586 204.829 321.623 212.535C321.626 213.345 321.602 213.834 321.551 214.156C321.525 214.321 321.49 214.455 321.443 214.573C321.394 214.693 321.339 214.779 321.299 214.839C320.581 215.924 319.295 216.034 318.353 216.132C317.229 216.25 315.756 216.327 314.486 216.41C313.846 216.451 313.257 216.493 312.778 216.541C312.282 216.592 311.957 216.645 311.81 216.694C310.87 217.007 309.804 217.065 308.845 217.165C308.46 217.206 308.083 217.318 307.683 217.464C307.312 217.6 306.85 217.796 306.435 217.934C305.95 218.096 305.374 218.186 304.797 218.266C304.205 218.348 303.602 218.419 302.999 218.536C302.297 218.673 301.727 218.735 301.237 218.788C300.741 218.842 300.346 218.886 299.952 218.98C299.385 219.115 298.522 219.2 297.583 219.235C296.984 219.257 293.227 219.408 287.706 219.373C285.448 219.359 283.209 219.282 281.428 219.177C280.538 219.125 279.76 219.066 279.149 219.004C278.556 218.944 278.078 218.878 277.82 218.802C277.39 218.676 276.979 218.597 276.477 218.467C276.004 218.345 275.502 218.19 275.035 217.937C274.688 217.75 274.311 217.614 273.9 217.484C273.503 217.358 273.046 217.23 272.617 217.069C272.157 216.897 271.595 216.739 270.985 216.577C270.384 216.419 269.734 216.257 269.138 216.081C267.993 215.744 267.087 215.399 266.282 215.229C265.216 215.004 264.201 214.262 263.386 213.485C262.622 212.756 261.944 212.142 261.172 211.694C260.237 211.15 258.989 209.95 258.167 208.88C257.556 208.087 257.162 207.086 256.845 206.073C256.755 205.784 256.702 205.308 256.665 204.768C256.625 204.208 256.598 203.518 256.575 202.766C256.527 201.254 256.495 199.485 256.41 197.931C256.282 195.604 256.357 194.203 256.503 193.267C256.649 192.338 256.876 191.837 256.978 191.487C257.091 191.101 257.182 190.704 257.284 190.28C257.384 189.862 257.493 189.423 257.638 188.988C257.794 188.521 257.817 187.896 257.756 187.247C257.696 186.607 257.559 185.992 257.43 185.573C257.138 184.621 257.064 183.571 256.96 181.355C256.925 180.588 256.849 179.799 256.767 178.913C256.686 178.031 256.599 177.06 256.546 175.947C256.485 174.641 256.174 172.5 255.966 171.027C255.848 170.19 255.55 168.546 255.377 166.738C255.202 164.906 255.142 163.673 255.103 162.779C255.064 161.87 255.048 161.358 254.969 160.915L254.966 160.901L254.965 160.886C254.859 159.961 254.72 157.475 254.754 154.467V154.456C254.771 153.916 254.797 153.547 254.866 153.253C254.941 152.932 255.063 152.719 255.216 152.488L255.252 152.434L255.3 152.391L255.524 152.19C255.32 151.86 255.092 151.553 254.829 151.288C254.107 150.563 253.661 149.666 253.282 148.834C253.058 148.343 252.988 147.849 252.921 147.313C252.854 146.769 252.788 146.139 252.595 145.289C252.424 144.534 252.224 143.815 252.042 143.068C251.863 142.338 251.709 141.608 251.655 140.912C251.604 140.259 251.499 139.61 251.403 138.885C251.308 138.172 251.226 137.409 251.24 136.59C251.277 134.287 251.589 133.435 252.497 129.626C252.86 128.101 252.998 127.197 253.303 126.342C253.645 125.386 254.059 124.177 254.984 123.116C255.273 122.785 255.622 122.495 255.96 122.226V122.173C255.96 121.165 255.825 119.133 255.593 118.046C255.327 116.795 255.442 115.867 255.697 115.119C255.822 114.753 255.976 114.439 256.12 114.167C256.27 113.883 256.39 113.677 256.484 113.464C256.758 112.848 257.085 112.314 257.399 111.809C257.717 111.298 258.02 110.821 258.282 110.282C258.653 109.517 258.885 108.814 259.087 108.156C259.286 107.51 259.466 106.869 259.723 106.297C259.946 105.803 260.198 105.361 260.446 104.948C260.697 104.527 260.935 104.149 261.152 103.748C261.371 103.344 261.56 102.901 261.763 102.433C261.963 101.974 262.176 101.491 262.433 101.048C262.953 100.155 263.59 99.3094 264.408 98.638C265.225 97.9667 266.156 97.4738 267.012 97.1156ZM181.978 168.91C181.848 169.559 181.783 170.399 181.723 171.287C181.664 172.158 181.609 173.076 181.493 173.825C181.404 174.394 181.246 175.019 181.08 175.654C180.911 176.297 180.731 176.953 180.583 177.619C180.563 177.708 180.535 177.967 180.507 178.425C180.48 178.866 180.454 179.456 180.431 180.177C180.385 181.619 180.348 183.574 180.33 185.887C180.322 186.85 180.254 187.472 180.176 188.216C180.099 188.954 180.01 189.83 179.954 191.327C179.852 194.047 179.916 199.157 179.878 202.133C179.844 204.855 179.759 207.012 179.678 208.795C179.597 210.583 179.52 211.983 179.5 213.214C179.492 213.726 179.651 214.168 179.892 214.608C180.014 214.83 180.155 215.047 180.304 215.274C180.45 215.495 180.609 215.733 180.75 215.974C181.23 216.799 182.102 217.416 183.508 217.736C185.375 218.16 186.538 218.185 187.362 218.153C187.747 218.138 188.157 218.103 188.46 218.099C188.798 218.094 189.13 218.12 189.479 218.241C190.355 218.544 191.211 218.816 194.134 218.855C194.734 218.863 195.234 218.739 195.778 218.584C196.313 218.432 196.914 218.241 197.631 218.179C198.798 218.078 201.675 217.759 203.71 217.952C204.97 218.071 208.826 218.213 211.421 218.028C213.215 217.9 214.078 217.63 215.167 217.329C216.172 217.052 217.856 216.859 219.802 216.673C221.956 216.467 223.454 216.4 224.572 216.357C225.702 216.313 226.398 216.294 227 216.189C227.938 216.025 228.909 215.625 229.787 215.151C230.228 214.912 230.705 214.703 231.147 214.495C231.599 214.283 232.038 214.062 232.458 213.782C233.41 213.147 234.516 212.33 235.48 211.927C236.415 211.536 237.236 211.339 238.253 210.499C238.645 210.176 238.971 209.825 239.394 209.36C239.815 208.897 240.319 208.336 241.046 207.628C241.405 207.279 241.64 206.754 241.811 206.116C241.984 205.47 242.069 204.808 242.188 204.165C242.538 202.276 242.553 199.311 242.67 197.413C242.711 196.76 242.865 196.16 243.009 195.598C243.157 195.026 243.296 194.488 243.349 193.896C243.447 192.8 243.758 191.45 243.579 189.934C243.256 187.205 242.956 186.354 242.518 185.538C242.462 185.59 242.416 185.633 242.378 185.67C242.076 186.043 241.83 186.418 241.494 186.866L241.475 186.889L241.455 186.911C240.576 187.825 239.64 188.835 238.937 189.639C238.577 190.051 238.258 190.475 237.866 190.964C237.48 191.446 237.042 191.966 236.476 192.523C234.088 194.874 233.269 195.567 232.129 196.248C231.672 196.522 231.22 196.753 230.788 196.967C230.35 197.184 229.941 197.381 229.542 197.596C229.108 197.831 228.667 198.042 228.244 198.245C227.816 198.451 227.405 198.648 227.008 198.863C226.12 199.343 225.238 199.642 224.217 199.988C223.265 200.311 222.493 200.508 221.855 200.655C221.202 200.805 220.737 200.894 220.329 201.013C219.235 201.332 218.297 201.694 217.245 202.031C216.828 202.164 216.428 202.327 216.011 202.504C215.599 202.679 215.162 202.87 214.699 203.043C213.866 203.355 213.019 203.714 212.228 204.142C211.356 204.613 210.493 204.979 209.577 205.206C208.73 205.417 207.452 205.717 206.259 205.818C205.047 205.92 204.106 206.188 203.28 206.463C202.802 206.622 202.319 206.718 201.827 206.815C201.373 206.904 200.899 206.995 200.366 207.139C199.467 207.382 198.637 207.658 197.79 207.941C197.327 208.095 196.827 208.184 196.367 208.269C195.892 208.356 195.452 208.439 195.045 208.575C194.169 208.867 193.352 209.096 192.533 209.411C191.603 209.77 190.622 210.106 189.322 210.827C188.841 211.093 188.387 211.331 187.931 211.572C187.474 211.813 187.012 212.057 186.508 212.338C186.054 212.592 185.605 212.812 185.175 213.021C184.742 213.231 184.331 213.428 183.934 213.643C183.475 213.891 183.032 214.097 182.666 214.365C182.304 214.628 182.141 214.866 182.121 215.112C182.106 215.294 182.111 215.472 182.149 215.611C182.185 215.744 182.237 215.798 182.287 215.826C182.293 215.828 182.32 215.839 182.375 215.853C182.442 215.87 182.53 215.887 182.638 215.904C182.854 215.937 183.127 215.963 183.426 215.985C184.024 216.027 184.698 216.045 185.177 216.045C185.453 216.046 185.677 216.269 185.677 216.545C185.677 216.821 185.453 217.045 185.177 217.045C184.679 217.045 183.981 217.027 183.355 216.983C183.043 216.96 182.74 216.931 182.487 216.892C182.258 216.857 181.992 216.804 181.809 216.704C181.445 216.506 181.266 216.174 181.184 215.871C181.104 215.575 181.105 215.267 181.125 215.029C181.181 214.348 181.632 213.881 182.077 213.557C182.516 213.237 183.072 212.973 183.458 212.764C183.879 212.537 184.313 212.328 184.739 212.121C185.168 211.913 185.595 211.703 186.021 211.465C186.536 211.177 187.007 210.928 187.464 210.687C187.923 210.445 188.367 210.212 188.836 209.952C190.211 209.189 191.268 208.827 192.173 208.478C193.018 208.152 193.915 207.897 194.729 207.625C195.213 207.464 195.723 207.37 196.186 207.285C196.663 207.198 197.091 207.12 197.474 206.993C198.318 206.711 199.174 206.426 200.105 206.174C200.247 206.136 200.386 206.1 200.52 206.068C200.477 206.021 200.441 205.981 200.412 205.952C200.34 205.881 200.265 205.821 200.161 205.731C200.067 205.65 199.947 205.544 199.845 205.415L199.816 205.378L199.794 205.336C199.608 204.979 199.34 204.638 199.022 204.225C198.715 203.825 198.371 203.369 198.101 202.829C197.682 201.992 197.211 201.135 196.61 200.385C195.768 199.335 194.664 198.077 193.817 197.175C192.681 195.967 192.099 195.106 191.507 194.231L191.207 193.78C190.581 192.822 190.064 191.888 189.458 190.288C189.26 189.765 189.108 189.271 188.964 188.834C188.818 188.39 188.678 187.996 188.494 187.626C188.049 186.734 187.478 185.79 186.845 184.915C186.083 183.862 185.636 182.9 185.125 181.98C184.72 181.25 184.4 180.497 184.131 179.821L183.879 179.173L183.865 179.137C183.515 178.229 183.061 177.076 182.79 175.941C182.596 175.131 182.281 174.223 182.181 173.272C182.112 172.607 182.032 170.706 181.982 168.888C181.98 168.895 181.979 168.903 181.978 168.91ZM256.013 153.097C255.916 153.248 255.872 153.342 255.839 153.482C255.797 153.665 255.771 153.939 255.753 154.477L255.754 154.478C255.72 157.461 255.858 159.903 255.958 160.771H255.958C256.046 161.289 256.065 161.882 256.102 162.735C256.14 163.619 256.2 164.833 256.373 166.643C256.543 168.424 256.831 169.996 256.957 170.887C257.16 172.334 257.481 174.534 257.545 175.899C257.597 176.988 257.681 177.941 257.762 178.822C257.843 179.699 257.921 180.514 257.958 181.309C258.064 183.561 258.138 184.472 258.386 185.279C258.533 185.757 258.685 186.44 258.752 187.154C258.819 187.858 258.807 188.645 258.587 189.304C258.457 189.696 258.356 190.098 258.256 190.513C258.158 190.922 258.059 191.352 257.938 191.767C257.798 192.245 257.624 192.574 257.492 193.421C257.36 194.262 257.282 195.586 257.408 197.876C257.494 199.446 257.528 201.242 257.575 202.735C257.598 203.485 257.625 204.158 257.663 204.698C257.702 205.256 257.75 205.616 257.799 205.775C258.107 206.759 258.46 207.621 258.959 208.271C259.735 209.279 260.89 210.373 261.675 210.829C262.559 211.344 263.313 212.032 264.077 212.761C264.85 213.499 265.699 214.084 266.488 214.25C267.338 214.43 268.385 214.816 269.421 215.121C269.999 215.292 270.621 215.447 271.24 215.611C271.85 215.772 272.456 215.941 272.967 216.132C273.365 216.281 273.761 216.391 274.202 216.531C274.629 216.666 275.079 216.824 275.51 217.057C275.871 217.252 276.28 217.383 276.727 217.498C277.145 217.606 277.664 217.715 278.1 217.842C278.256 217.888 278.641 217.948 279.25 218.009C279.841 218.069 280.605 218.127 281.487 218.179C283.249 218.283 285.471 218.36 287.711 218.373C293.21 218.407 296.951 218.258 297.546 218.236C298.466 218.202 299.25 218.119 299.719 218.007C300.186 217.896 300.647 217.847 301.129 217.794C301.617 217.741 302.15 217.683 302.807 217.555C303.446 217.431 304.094 217.354 304.661 217.276C305.242 217.195 305.733 217.115 306.12 216.986C306.533 216.848 306.882 216.693 307.339 216.526C307.768 216.369 308.235 216.223 308.741 216.17C309.78 216.062 310.688 216.014 311.494 215.745C311.761 215.656 312.196 215.596 312.676 215.547C313.175 215.497 313.78 215.453 314.421 215.411C315.713 215.328 317.151 215.252 318.249 215.137C319.305 215.027 320.051 214.913 320.465 214.287C320.494 214.244 320.505 214.226 320.515 214.201C320.527 214.171 320.545 214.113 320.563 214C320.6 213.764 320.626 213.343 320.623 212.54C320.586 204.869 320.372 203.928 320.279 202.786C320.228 202.167 320.139 201.636 320.051 200.998C319.964 200.367 319.884 199.663 319.864 198.747C319.76 194.12 319.552 191.236 319.451 189.124C319.399 188.053 319.316 187.181 319.236 186.435C319.157 185.696 319.078 185.057 319.039 184.487C318.986 183.719 318.956 182.312 318.904 180.835C318.851 179.342 318.775 177.761 318.627 176.594C318.525 175.781 318.32 174.691 318.148 173.687C318.061 173.178 317.998 172.709 317.938 172.277C317.877 171.841 317.819 171.443 317.738 171.052C317.647 170.612 317.592 170.138 317.536 169.636C317.479 169.128 317.42 168.58 317.321 167.962C317.233 167.416 317.179 166.798 317.101 166.136C317.021 165.461 316.911 164.696 316.707 163.79C316.644 163.515 316.589 163.235 316.536 162.964C316.482 162.691 316.43 162.427 316.372 162.171C316.254 161.656 316.119 161.21 315.926 160.854C315.663 160.367 315.434 159.882 315.244 159.39C315.241 161.391 315.235 163.053 315.213 164.3V164.315L315.208 164.408C315.108 166.608 315.039 168.124 314.867 169.705C314.813 170.574 314.721 171.251 314.638 171.858C314.554 172.471 314.48 173.001 314.456 173.602C314.352 176.129 314.297 177.172 313.991 178.321C313.851 178.844 313.712 179.322 313.57 179.807C313.428 180.293 313.282 180.788 313.129 181.354C312.887 182.253 312.65 183.098 312.331 184.097C312.068 184.919 311.836 185.821 311.489 186.652C311.136 187.495 310.708 188.339 310.237 189.327C310.043 189.733 309.9 190.127 309.75 190.541C309.603 190.951 309.449 191.385 309.242 191.835C309.042 192.269 308.803 192.691 308.588 193.085C308.369 193.489 308.168 193.877 308.016 194.283C307.839 194.756 307.539 195.192 307.271 195.627C306.992 196.08 306.693 196.607 306.434 197.341C305.963 198.678 305.382 199.547 304.828 200.378C304.257 201.234 303.577 201.995 302.971 202.728C302.374 203.451 301.659 204.38 300.669 204.935C300.771 204.95 300.872 204.964 300.971 204.98C301.645 205.09 302.307 205.24 302.744 205.423C303.626 205.792 304.586 206.174 305.396 206.444C305.819 206.585 306.296 206.666 306.805 206.748C307.295 206.828 307.829 206.91 308.29 207.064C308.745 207.216 309.182 207.416 309.588 207.603C310.004 207.794 310.387 207.969 310.77 208.097L313.25 208.924C313.706 209.076 314.143 209.277 314.549 209.463C314.965 209.654 315.347 209.83 315.731 209.957C316.592 210.245 317.455 210.675 318.261 211.045C318.726 211.259 319.151 211.527 319.481 211.724L319.615 211.804L319.679 211.946C319.862 212.346 319.998 212.724 320.073 213.061C320.145 213.384 320.173 213.725 320.086 214.018L320.062 214.101L320.01 214.171C319.873 214.358 319.686 214.457 319.483 214.519C319.293 214.577 319.046 214.615 318.732 214.651C318.458 214.682 318.21 214.484 318.179 214.209C318.149 213.935 318.346 213.687 318.621 213.657C318.879 213.627 319.038 213.597 319.138 213.573C319.135 213.499 319.124 213.402 319.096 213.278C319.048 213.061 318.959 212.799 318.83 212.499C318.516 212.31 318.195 212.114 317.844 211.953C316.995 211.563 316.208 211.171 315.415 210.907C314.97 210.758 314.538 210.559 314.132 210.372C313.718 210.182 313.329 210.004 312.934 209.872L310.454 209.046C310.009 208.898 309.577 208.698 309.171 208.512C308.757 208.322 308.368 208.144 307.973 208.012C307.606 207.89 307.161 207.818 306.645 207.735C306.148 207.654 305.592 207.563 305.08 207.392C304.234 207.11 303.247 206.718 302.358 206.346C302.034 206.21 301.468 206.074 300.81 205.966C300.198 205.866 299.544 205.798 299 205.775C298.427 205.993 297.732 206.151 296.809 206.145C291.172 206.109 290.279 205.834 289.371 205.532C288.581 205.268 287.64 205.018 286.771 204.439C286.377 204.176 285.976 203.953 285.564 203.731C285.157 203.512 284.729 203.289 284.312 203.041C283.411 202.505 282.917 201.556 282.503 200.733C282.263 200.253 282.008 199.606 281.853 198.925C281.7 198.253 281.631 197.497 281.816 196.827C282.096 195.813 282.375 194.976 282.651 194.149C282.937 193.29 283.217 192.541 283.281 191.785C283.364 190.8 283.373 189.531 283.326 188.403C283.302 187.84 283.266 187.317 283.218 186.889C283.169 186.449 283.113 186.143 283.062 185.991C282.933 185.602 282.767 185.228 282.585 184.812C282.407 184.403 282.217 183.959 282.061 183.469C281.541 181.841 280.858 179.792 280.582 178.963C280.441 178.543 280.327 178.053 280.217 177.674C280.099 177.267 279.968 176.906 279.77 176.59C279.537 176.218 279.241 175.892 278.816 175.402C278.399 174.92 277.893 174.317 277.297 173.434C276.905 172.853 276.523 172.329 276.141 171.906C275.757 171.48 275.397 171.184 275.058 171.028C274.705 170.866 274.233 170.762 273.667 170.642C273.128 170.527 272.51 170.398 271.973 170.173C271.562 170.001 271.167 169.867 270.714 169.69C270.282 169.521 269.835 169.327 269.42 169.068C269.038 168.828 268.595 168.634 268.1 168.397C267.625 168.169 267.11 167.905 266.678 167.546C265.836 166.845 265.085 166.095 264.652 165.167C264.382 164.589 264.165 163.89 263.955 163.323C263.731 162.718 263.508 162.234 263.217 161.915C262.684 161.33 262.251 160.794 261.902 160.394C261.539 159.978 261.238 159.674 260.899 159.448C259.948 158.811 258.528 157.71 257.738 156.195C257.506 155.749 257.244 155.335 256.98 154.907C256.72 154.485 256.456 154.049 256.246 153.59C256.17 153.426 256.093 153.261 256.013 153.097ZM183.992 159.281C183.757 160.184 183.537 161.001 183.33 161.885C183.082 162.941 182.932 164.117 182.819 165.332L182.926 166.001L182.932 166.04V166.08C182.932 168.1 183.072 172.175 183.175 173.168C183.266 174.037 183.535 174.757 183.762 175.708C184.015 176.766 184.441 177.85 184.798 178.777L184.812 178.814C185.131 179.642 185.498 180.591 186 181.494C186.549 182.485 186.94 183.34 187.656 184.328C188.32 185.247 188.919 186.238 189.388 187.18C189.606 187.618 189.766 188.069 189.915 188.522C190.066 188.982 190.205 189.438 190.393 189.934C191.052 191.674 191.588 192.565 192.31 193.632L192.336 193.671C192.92 194.534 193.466 195.342 194.546 196.491C195.41 197.409 196.53 198.687 197.389 199.759C198.059 200.594 198.568 201.529 198.996 202.382C199.218 202.826 199.507 203.215 199.815 203.616C200.1 203.986 200.414 204.385 200.648 204.815C200.685 204.857 200.736 204.906 200.813 204.972C200.892 205.04 201.011 205.139 201.117 205.243C201.346 205.471 201.406 205.589 201.674 205.756L201.782 205.802C202.218 205.715 202.597 205.636 202.963 205.514C203.828 205.226 204.852 204.932 206.175 204.821C207.28 204.728 208.491 204.446 209.335 204.237C210.149 204.034 210.933 203.705 211.752 203.262C212.598 202.805 213.49 202.428 214.348 202.107C214.786 201.943 215.194 201.764 215.621 201.583C216.042 201.405 216.477 201.227 216.94 201.078C217.906 200.769 218.958 200.371 220.049 200.053C220.493 199.924 221.03 199.82 221.631 199.681C222.248 199.539 222.985 199.351 223.897 199.041C224.93 198.691 225.73 198.417 226.533 197.983C226.954 197.755 227.388 197.547 227.811 197.344C228.238 197.139 228.656 196.938 229.067 196.716C229.486 196.49 229.921 196.281 230.343 196.072C230.77 195.86 231.194 195.643 231.617 195.39C232.642 194.776 233.387 194.161 235.775 191.81C236.302 191.291 236.712 190.805 237.085 190.339C237.453 189.881 237.805 189.414 238.184 188.981C238.894 188.169 239.829 187.159 240.708 186.245C240.994 185.863 241.306 185.402 241.622 185.016L241.637 184.997L241.655 184.98C241.846 184.787 241.986 184.697 242.302 184.298C242.388 183.539 242.786 182.729 243.094 182.086C243.323 181.609 243.473 181.117 243.569 179.993C243.666 178.851 243.705 177.098 243.725 174.11C243.731 173.198 243.549 172.568 243.302 172.093C243.052 171.612 242.72 171.259 242.367 170.905C242.281 170.818 242.172 170.696 242.089 170.538C241.987 170.601 241.882 170.664 241.774 170.717L241.75 170.728L241.726 170.738C240.871 171.058 240.019 171.342 239.175 171.623L239.153 171.63L239.129 171.636C238.631 171.75 238.069 171.794 237.55 171.843C237.014 171.894 236.5 171.953 236.02 172.087C235.755 172.162 235.295 172.228 234.738 172.289C234.168 172.352 233.459 172.412 232.674 172.465C231.105 172.571 229.216 172.65 227.496 172.668C224.213 172.703 221.899 172.571 221.375 172.525C220.191 172.419 219.293 172.395 217.145 172.027C216.392 171.898 215.803 171.72 215.304 171.569C214.797 171.415 214.413 171.299 214.014 171.257C212.962 171.147 212.018 170.948 211.103 170.505C210.615 170.269 210.059 170.13 209.406 169.985C208.767 169.843 208.038 169.695 207.287 169.437C206.281 169.092 205.233 168.766 203.765 168.726C201.827 168.673 200.543 168.649 199.643 168.592C198.743 168.535 198.163 168.444 197.65 168.23C196.836 167.89 196.007 167.534 195.181 167.181L195.077 167.136C194.439 166.863 193.818 166.541 193.252 166.25C192.677 165.955 192.167 165.697 191.717 165.526C190.683 165.132 189.788 164.618 188.977 164.245C188.111 163.847 187.241 163.372 186.453 162.643C185.5 161.762 184.855 160.912 184.321 159.993C184.189 159.767 184.081 159.526 183.992 159.281ZM271.672 97.7171C270.128 97.5548 268.479 97.5864 267.398 98.0384C266.599 98.3724 265.762 98.8204 265.042 99.4115C264.345 99.9843 263.778 100.724 263.297 101.551C263.073 101.936 262.881 102.368 262.68 102.831C262.483 103.285 262.274 103.773 262.031 104.224C261.8 104.651 261.542 105.065 261.304 105.461C261.062 105.865 260.832 106.267 260.634 106.707C260.41 107.205 260.254 107.764 260.043 108.45C259.837 109.123 259.586 109.884 259.181 110.718C258.891 111.314 258.558 111.84 258.248 112.338C257.934 112.842 257.641 113.325 257.398 113.87C257.285 114.124 257.131 114.393 257.003 114.634C256.869 114.888 256.743 115.148 256.643 115.442C256.448 116.016 256.341 116.76 256.571 117.837C256.771 118.778 256.898 120.305 256.942 121.415C257.149 121.225 257.341 121.024 257.511 120.799C257.877 120.316 258.229 119.773 258.55 119.282C258.855 118.816 259.163 118.349 259.415 118.098C259.61 117.903 259.927 117.904 260.122 118.1C260.316 118.296 260.315 118.612 260.12 118.807C259.96 118.966 259.719 119.323 259.387 119.829C259.073 120.31 258.7 120.887 258.308 121.404C257.846 122.013 257.268 122.468 256.77 122.861C256.358 123.186 256.007 123.463 255.737 123.773C254.955 124.67 254.595 125.699 254.245 126.679C253.963 127.467 253.859 128.226 253.47 129.858C252.549 133.724 252.275 134.442 252.24 136.607C252.228 137.351 252.302 138.056 252.394 138.753C252.485 139.439 252.598 140.146 252.652 140.835C252.699 141.447 252.838 142.113 253.013 142.83C253.184 143.53 253.398 144.311 253.57 145.068C253.776 145.975 253.848 146.656 253.914 147.19C253.98 147.731 254.039 148.084 254.192 148.42C254.568 149.245 254.952 149.996 255.537 150.583C255.979 151.028 256.32 151.542 256.6 152.05C256.81 152.431 256.99 152.817 257.154 153.172C257.336 153.569 257.571 153.959 257.832 154.382C258.088 154.798 258.372 155.248 258.625 155.733C259.294 157.017 260.537 158.002 261.455 158.617C261.906 158.919 262.277 159.304 262.655 159.736C263.046 160.184 263.424 160.658 263.957 161.243C264.389 161.718 264.667 162.368 264.892 162.976C265.131 163.621 265.311 164.214 265.558 164.744C265.895 165.466 266.505 166.1 267.319 166.778C267.646 167.05 268.061 167.269 268.532 167.494C268.983 167.711 269.506 167.942 269.951 168.22C270.286 168.43 270.665 168.597 271.079 168.758C271.472 168.912 271.943 169.077 272.359 169.251C272.793 169.433 273.313 169.544 273.875 169.663C274.408 169.777 275 169.9 275.475 170.118C275.991 170.356 276.458 170.764 276.884 171.236C277.313 171.711 277.726 172.281 278.126 172.874C278.691 173.711 279.168 174.28 279.572 174.746C279.968 175.204 280.333 175.604 280.618 176.06C280.889 176.493 281.051 176.959 281.178 177.397C281.313 177.863 281.395 178.24 281.531 178.647C281.807 179.474 282.491 181.53 283.013 183.165C283.152 183.602 283.324 184.003 283.502 184.412C283.678 184.816 283.865 185.235 284.011 185.674C284.098 185.936 284.162 186.334 284.211 186.779C284.262 187.236 284.302 187.782 284.326 188.361C284.374 189.517 284.366 190.831 284.278 191.869C284.201 192.775 283.865 193.668 283.599 194.465C283.323 195.293 283.053 196.107 282.781 197.092C282.659 197.534 282.691 198.104 282.828 198.703C282.963 199.294 283.187 199.866 283.397 200.285C283.828 201.144 284.21 201.817 284.824 202.182C285.216 202.415 285.615 202.623 286.039 202.851C286.457 203.076 286.892 203.317 287.326 203.607C288.052 204.091 288.821 204.295 289.687 204.583C290.434 204.832 291.191 205.109 296.816 205.145C297.663 205.15 298.259 205 298.734 204.807C298.975 204.709 299.191 204.598 299.405 204.482C299.609 204.37 299.837 204.24 300.053 204.131C300.901 203.707 301.519 202.914 302.201 202.09C302.84 201.317 303.463 200.623 303.996 199.824C304.545 198.999 305.065 198.219 305.491 197.009C305.783 196.181 306.121 195.586 306.419 195.103C306.728 194.602 306.947 194.285 307.08 193.931C307.258 193.456 307.487 193.017 307.709 192.608C307.937 192.19 308.153 191.811 308.333 191.417C308.519 191.013 308.66 190.62 308.81 190.202C308.959 189.789 309.117 189.353 309.334 188.897C309.82 187.88 310.226 187.079 310.566 186.266C310.892 185.487 311.089 184.694 311.377 183.792C311.69 182.815 311.923 181.986 312.164 181.093C312.32 180.515 312.468 180.011 312.61 179.526C312.752 179.04 312.889 178.573 313.025 178.063C313.297 177.042 313.352 176.119 313.457 173.561C313.484 172.904 313.565 172.328 313.648 171.722C313.732 171.114 313.82 170.461 313.871 169.621L313.872 169.609L313.873 169.597C314.041 168.052 314.109 166.569 314.21 164.362L314.213 164.283C314.248 162.324 314.247 159.333 314.247 155.583C314.088 155.204 313.901 154.85 313.706 154.439C313.505 154.017 313.309 153.553 313.222 153.054C313.117 152.45 313.059 151.677 312.982 151.038C312.899 150.351 312.794 149.807 312.62 149.485C312.145 148.606 311.868 147.563 311.586 146.718C311.433 146.257 311.367 145.721 311.277 145.207C311.183 144.671 311.053 144.071 310.77 143.369C310.356 142.342 309.84 141.197 309.146 140.282C308.796 139.82 308.534 139.362 308.305 138.929C308.069 138.483 307.888 138.1 307.666 137.715C307.377 137.215 307.14 136.557 306.937 135.897C306.733 135.235 306.547 134.519 306.377 133.914C306.147 133.092 305.762 132.327 305.399 131.457C305.242 131.083 305.018 130.719 304.699 130.172C304.385 129.636 304.006 128.965 303.577 128.023C302.851 126.43 302.364 125.6 301.894 124.625C301.65 124.118 301.444 123.629 301.252 123.202C301.057 122.765 300.87 122.378 300.647 122.022C300.508 121.8 300.381 121.568 300.262 121.346C300.141 121.12 300.028 120.907 299.906 120.699C299.662 120.283 299.407 119.932 299.072 119.669C298.124 118.926 296.261 117.458 295.315 116.039C294.739 115.175 294.277 114.359 293.622 113.565C292.8 112.57 292.222 111.847 291.78 111.042C291.41 110.369 290.761 109.782 290.009 109.061C289.148 108.235 288.49 107.333 287.893 106.559C287.535 106.094 287.194 105.622 286.827 105.19C286.461 104.758 286.108 104.413 285.758 104.203C284.711 103.576 283.519 102.846 282.663 102.347C282.278 102.123 281.846 101.93 281.382 101.729C280.928 101.532 280.441 101.324 279.99 101.08C279.19 100.648 278.324 100.219 277.331 99.6634C276.913 99.4304 276.496 99.226 276.076 99.0218C275.659 98.8195 275.234 98.6158 274.822 98.3929C274.68 98.3164 274.295 98.1857 273.709 98.0511C273.142 97.9208 272.432 97.797 271.672 97.7171ZM226.467 96.808C226.127 96.8681 225.983 96.9685 225.737 97.0921C225.498 97.2119 225.307 97.2895 224.881 97.5716L224.787 97.6341L224.702 97.6458C224.698 97.6473 224.694 97.6494 224.689 97.6517C224.657 97.6667 224.611 97.6921 224.547 97.7308C224.421 97.8084 224.254 97.9236 224.052 98.0726C223.649 98.3697 223.134 98.7827 222.564 99.2562C221.426 100.202 220.095 101.373 219.07 102.304C218.607 102.724 218.14 103.085 217.683 103.435C217.222 103.788 216.771 104.13 216.315 104.531C215.738 105.037 215.18 105.511 214.655 105.955C214.128 106.401 213.637 106.814 213.188 107.206C212.29 107.992 211.401 108.66 210.527 109.677C210.048 110.234 209.583 110.72 209.188 111.152C208.786 111.591 208.452 111.979 208.192 112.375C207.729 113.081 207.206 113.663 206.739 114.166C206.259 114.683 205.865 115.094 205.591 115.504C205.249 116.018 204.843 116.541 204.433 117.064C204.02 117.592 203.6 118.124 203.213 118.675C202.548 119.624 202.074 120.386 201.656 121.062C201.238 121.736 200.867 122.338 200.418 122.943C199.995 123.513 199.394 124.248 198.807 124.976C198.213 125.713 197.632 126.446 197.228 127.034C196.908 127.498 196.578 128.03 196.203 128.617C195.831 129.197 195.421 129.82 194.958 130.438C194.121 131.553 192.814 133.617 191.618 135.355C191.01 136.238 190.584 137.236 190.294 138.36C190.036 139.361 189.666 140.285 189.159 141.223C188.91 141.683 188.724 142.289 188.55 142.962C188.383 143.61 188.222 144.339 188.027 144.942C187.861 145.453 187.642 145.941 187.441 146.407C187.236 146.881 187.044 147.347 186.903 147.858C186.756 148.39 186.532 148.886 186.325 149.354C186.113 149.831 185.913 150.29 185.773 150.795C185.638 151.285 185.484 151.758 185.33 152.237C185.175 152.719 185.018 153.214 184.871 153.766C184.72 154.33 184.631 154.97 184.561 155.63L184.621 157.193L184.622 157.202V157.211C184.622 157.725 184.755 158.751 185.185 159.491C185.673 160.329 186.257 161.1 187.132 161.91C187.809 162.535 188.571 162.958 189.395 163.336C190.332 163.767 191.065 164.208 192.073 164.591C192.583 164.786 193.145 165.072 193.709 165.362C194.283 165.656 194.872 165.961 195.47 166.217L195.575 166.261C196.402 166.615 197.227 166.969 198.036 167.307C198.389 167.455 198.83 167.539 199.706 167.594C200.582 167.649 201.835 167.673 203.792 167.727C205.413 167.771 206.574 168.136 207.612 168.492C208.298 168.727 208.96 168.861 209.624 169.008C210.273 169.153 210.934 169.312 211.539 169.605C212.31 169.978 213.128 170.16 214.118 170.263C214.629 170.316 215.107 170.464 215.594 170.612C216.09 170.762 216.628 170.924 217.314 171.041C219.411 171.401 220.257 171.421 221.464 171.529C221.947 171.572 224.226 171.703 227.485 171.668C229.185 171.65 231.055 171.572 232.607 171.467C233.383 171.415 234.077 171.357 234.628 171.296C235.193 171.234 235.575 171.173 235.75 171.124C236.325 170.963 236.919 170.898 237.456 170.847C238 170.795 238.471 170.758 238.884 170.665C239.713 170.389 240.53 170.117 241.348 169.811C241.52 169.723 241.698 169.606 241.911 169.464L241.986 169.414L242.074 169.394L242.178 169.368C242.56 168.56 242.997 167.989 243.384 167.527C243.827 166.998 244.125 166.688 244.296 166.315C244.496 165.88 244.648 165.241 244.779 164.508C244.914 163.753 245.003 163.046 245.124 162.335C245.229 161.716 245.386 161.135 245.528 160.579C245.635 160.157 245.735 159.741 245.809 159.304L245.938 158.415C246.014 157.973 246.12 157.533 246.232 157.104C246.385 156.519 246.544 155.973 246.674 155.415C246.853 154.649 246.918 153.894 246.959 153.159C247 152.439 247.02 151.703 247.119 151.048C247.153 150.821 247.162 150.484 247.159 150.049C247.155 149.613 247.139 149.138 247.131 148.603C247.116 147.566 247.129 146.379 247.35 145.401C247.552 144.505 247.825 141.76 247.608 139.92C247.498 138.989 247.168 137.596 246.934 136.298C246.793 135.515 246.696 134.616 246.596 133.825C246.493 133.008 246.388 132.324 246.239 131.891C245.938 131.019 245.217 130.299 244.418 129.575C243.57 128.805 243.009 127.924 242.447 127.022C242.145 126.537 241.811 126.103 241.468 125.667C241.13 125.237 240.775 124.795 240.459 124.323C239.863 123.428 239.232 122.484 238.832 121.527L238.824 121.51L238.818 121.493C238.683 121.087 238.475 120.665 238.221 120.231L238.213 120.217L238.207 120.203C238.19 120.172 238.174 120.138 238.162 120.113C238.148 120.086 238.137 120.063 238.127 120.044C238.122 120.034 238.116 120.025 238.112 120.018C237.856 119.992 237.658 119.777 237.662 119.516C237.666 119.24 237.893 119.02 238.169 119.024C238.473 119.029 238.703 119.156 238.862 119.347C238.981 119.49 239.068 119.69 239.1 119.754C239.361 120.204 239.595 120.672 239.756 121.148C240.113 121.998 240.683 122.856 241.292 123.768C241.579 124.2 241.905 124.604 242.254 125.048C242.298 125.104 242.341 125.162 242.385 125.219C242.409 124.542 242.467 123.764 242.604 123.102C243.139 120.518 242.116 119.886 241.748 118.551C241.619 118.086 241.472 117.636 241.316 117.15C241.16 116.666 240.997 116.15 240.843 115.573C240.499 114.283 240.396 113.188 239.805 111.63C239.368 110.479 238.802 109.619 238.229 108.703C237.668 107.807 237.311 106.788 236.979 105.902C236.593 104.871 236.183 103.705 235.877 102.71C235.751 102.299 235.405 101.739 234.924 101.095C234.453 100.464 233.892 99.8052 233.377 99.1966C232.335 97.9624 231.399 97.5224 230.339 97.2025C229.331 96.8979 228.452 96.8115 226.467 96.808Z" fill="#1F3647"/>
<g filter="url(#filter1_n_413_1030)">
<path d="M237.96 51.5268C238.397 51.3401 238.709 51.2782 238.833 51.2782C239.145 51.2782 239.146 51.8429 239.145 52.0315C239.082 52.4058 239.02 53.0944 238.486 53.9077C237.891 54.6592 237.107 55.4034 237.239 56.1592C237.272 56.3478 237.384 56.595 237.553 56.5945C237.896 56.5936 238.514 56.4843 239.211 55.935C239.962 55.3421 240.647 54.6498 241.619 54.435C243.167 54.0926 245.401 54.2183 246.153 54.814C246.904 55.4097 247.601 56.1318 247.84 56.9097C248.09 57.725 248.109 59.1754 248.903 59.1575C249.028 59.1547 249.112 58.9748 249.153 58.7804C249.34 57.9013 249.105 56.7596 249.623 55.9969C250.154 55.2146 250.289 53.9027 251.285 53.8102C252.285 53.7173 253.086 53.8178 253.47 53.9059C254.285 54.0926 255.34 54.0912 256.097 54.5006C256.848 54.9068 257.486 55.3266 258.224 55.6883C258.413 55.7812 258.736 55.8124 258.785 55.5898C258.908 55.0269 258.867 54.3936 258.72 53.9331C258.469 53.1507 257.78 51.4213 258.598 51.0277C258.725 50.9667 258.932 51.0054 259.067 51.1553L259.092 51.1826C259.366 51.4878 259.669 51.8254 259.817 52.2191C260.098 52.9706 260.706 53.6607 260.786 54.4706C260.972 56.3703 260.847 59.3479 260.596 60.0994C260.346 60.8508 259.652 61.3174 259.125 62.1633C258.657 62.9147 258.254 63.6344 258.157 64.5714C257.97 66.3745 257.961 69.3046 257.406 70.0435C256.841 70.795 256.144 71.4991 255.717 72.295C255.28 73.1103 254.889 73.9621 254.812 74.9865C254.717 76.2361 254.412 77.0999 254.436 78.2399C254.468 79.7612 254.697 81.1093 254.949 82.5925L254.969 82.7092C255.156 83.8086 255.286 85.0523 255.376 86.274C255.531 88.3942 255.236 91.7491 255.376 94.1252C255.531 96.7811 255.355 100.615 255.155 101.69C254.968 102.695 255.432 104.075 255.124 109.485C254.968 112.219 254.941 115.102 255.188 115.981C255.407 116.763 255.478 117.547 255.751 118.452C256.034 119.39 256.922 121.6 256.029 122.547C255.467 123.142 255.094 123.892 254.78 124.642C254.466 125.394 253.931 126.078 253.685 126.926C253.404 127.897 253.014 128.743 252.935 129.553C252.841 130.524 252.56 131.387 252.341 132.179C252.113 133.004 252.06 135.561 252.106 137.783L251.743 138.012C251.544 138.062 251.056 138.191 250.697 138.311C250.338 138.43 250.049 138.66 249.95 138.759L248.604 139.955C248.006 140.553 248.061 140.134 247.87 138.302C247.775 137.394 247.507 136.652 247.275 135.894C247.024 135.079 246.989 134.171 246.681 132.985C246.461 132.141 246.18 131.342 245.742 130.641C245.272 129.889 244.714 129.272 244.335 128.546C243.959 127.826 242.741 127.162 243.18 125.103L243.197 125.025C243.422 123.969 243.855 121.941 243.335 120.697C243.02 119.945 242.925 118.529 242.584 117.507C242.334 116.756 242.093 112.994 242.053 110.115C242.022 107.864 242.142 106.19 242.179 105.526C242.274 103.809 242.296 99.5445 242.241 96.4527C242.21 94.7341 242.328 93.432 242.367 92.7996C242.461 91.2386 242.483 88.6072 242.428 84.8537C242.397 82.7204 242.537 78.8127 242.366 76.7736C242.146 74.1647 242.579 73.2503 241.771 71.4113C241.332 70.4122 240.481 69.9148 240.176 69.0998C239.895 68.3483 239.481 67.4954 239.426 66.4374C239.332 64.5958 239.032 63.8724 238.675 63.0958C238.33 62.3443 237.633 61.7557 237.331 61.0319C237.016 60.2804 236.293 59.5893 236.205 58.7804C236.018 57.072 236.194 54.4911 236.551 53.7145C236.896 52.963 237.142 51.8762 237.96 51.5268Z" fill="url(#paint2_linear_413_1030)"/>
<path d="M237.96 51.5268C238.397 51.3401 238.709 51.2782 238.833 51.2782C239.145 51.2782 239.146 51.8429 239.145 52.0315C239.082 52.4058 239.02 53.0944 238.486 53.9077C237.891 54.6592 237.107 55.4034 237.239 56.1592C237.272 56.3478 237.384 56.595 237.553 56.5945C237.896 56.5936 238.514 56.4843 239.211 55.935C239.962 55.3421 240.647 54.6498 241.619 54.435C243.167 54.0926 245.401 54.2183 246.153 54.814C246.904 55.4097 247.601 56.1318 247.84 56.9097C248.09 57.725 248.109 59.1754 248.903 59.1575C249.028 59.1547 249.112 58.9748 249.153 58.7804C249.34 57.9013 249.105 56.7596 249.623 55.9969C250.154 55.2146 250.289 53.9027 251.285 53.8102C252.285 53.7173 253.086 53.8178 253.47 53.9059C254.285 54.0926 255.34 54.0912 256.097 54.5006C256.848 54.9068 257.486 55.3266 258.224 55.6883C258.413 55.7812 258.736 55.8124 258.785 55.5898C258.908 55.0269 258.867 54.3936 258.72 53.9331C258.469 53.1507 257.78 51.4213 258.598 51.0277C258.725 50.9667 258.932 51.0054 259.067 51.1553L259.092 51.1826C259.366 51.4878 259.669 51.8254 259.817 52.2191C260.098 52.9706 260.706 53.6607 260.786 54.4706C260.972 56.3703 260.847 59.3479 260.596 60.0994C260.346 60.8508 259.652 61.3174 259.125 62.1633C258.657 62.9147 258.254 63.6344 258.157 64.5714C257.97 66.3745 257.961 69.3046 257.406 70.0435C256.841 70.795 256.144 71.4991 255.717 72.295C255.28 73.1103 254.889 73.9621 254.812 74.9865C254.717 76.2361 254.412 77.0999 254.436 78.2399C254.468 79.7612 254.697 81.1093 254.949 82.5925L254.969 82.7092C255.156 83.8086 255.286 85.0523 255.376 86.274C255.531 88.3942 255.236 91.7491 255.376 94.1252C255.531 96.7811 255.355 100.615 255.155 101.69C254.968 102.695 255.432 104.075 255.124 109.485C254.968 112.219 254.941 115.102 255.188 115.981C255.407 116.763 255.478 117.547 255.751 118.452C256.034 119.39 256.922 121.6 256.029 122.547C255.467 123.142 255.094 123.892 254.78 124.642C254.466 125.394 253.931 126.078 253.685 126.926C253.404 127.897 253.014 128.743 252.935 129.553C252.841 130.524 252.56 131.387 252.341 132.179C252.113 133.004 252.06 135.561 252.106 137.783L251.743 138.012C251.544 138.062 251.056 138.191 250.697 138.311C250.338 138.43 250.049 138.66 249.95 138.759L248.604 139.955C248.006 140.553 248.061 140.134 247.87 138.302C247.775 137.394 247.507 136.652 247.275 135.894C247.024 135.079 246.989 134.171 246.681 132.985C246.461 132.141 246.18 131.342 245.742 130.641C245.272 129.889 244.714 129.272 244.335 128.546C243.959 127.826 242.741 127.162 243.18 125.103L243.197 125.025C243.422 123.969 243.855 121.941 243.335 120.697C243.02 119.945 242.925 118.529 242.584 117.507C242.334 116.756 242.093 112.994 242.053 110.115C242.022 107.864 242.142 106.19 242.179 105.526C242.274 103.809 242.296 99.5445 242.241 96.4527C242.21 94.7341 242.328 93.432 242.367 92.7996C242.461 91.2386 242.483 88.6072 242.428 84.8537C242.397 82.7204 242.537 78.8127 242.366 76.7736C242.146 74.1647 242.579 73.2503 241.771 71.4113C241.332 70.4122 240.481 69.9148 240.176 69.0998C239.895 68.3483 239.481 67.4954 239.426 66.4374C239.332 64.5958 239.032 63.8724 238.675 63.0958C238.33 62.3443 237.633 61.7557 237.331 61.0319C237.016 60.2804 236.293 59.5893 236.205 58.7804C236.018 57.072 236.194 54.4911 236.551 53.7145C236.896 52.963 237.142 51.8762 237.96 51.5268Z" stroke="#1F3647" stroke-linecap="round"/>
</g>
</g>
<defs>
<filter id="filter0_d_413_1030" x="128.5" y="0.499268" width="243.123" height="269.356" filterUnits="userSpaceOnUse" color-interpolation-filters="sRGB">
<feFlood flood-opacity="0" result="BackgroundImageFix"/>
<feColorMatrix in="SourceAlpha" type="matrix" values="0 0 0 0 0 0 0 0 0 0 0 0 0 0 0 0 0 0 127 0" result="hardAlpha"/>
<feOffset/>
<feGaussianBlur stdDeviation="25"/>
<feComposite in2="hardAlpha" operator="out"/>
<feColorMatrix type="matrix" values="0 0 0 0 0.822435 0 0 0 0 0.926014 0 0 0 0 1 0 0 0 1 0"/>
<feBlend mode="normal" in2="BackgroundImageFix" result="effect1_dropShadow_413_1030"/>
<feBlend mode="normal" in="SourceGraphic" in2="effect1_dropShadow_413_1030" result="shape"/>
</filter>
<filter id="filter1_n_413_1030" x="235.629" y="50.4993" width="25.7456" height="90.2102" filterUnits="userSpaceOnUse" color-interpolation-filters="sRGB">
<feFlood flood-opacity="0" result="BackgroundImageFix"/>
<feBlend mode="normal" in="SourceGraphic" in2="BackgroundImageFix" result="shape"/>
<feTurbulence type="fractalNoise" baseFrequency="0.0099999997764825821 0.0099999997764825821" stitchTiles="stitch" numOctaves="3" result="noise" seed="3052" />
<feColorMatrix in="noise" type="luminanceToAlpha" result="alphaNoise" />
<feComponentTransfer in="alphaNoise" result="coloredNoise1">
<feFuncA type="discrete" tableValues="0 0 0 0 0 0 0 1 1 1 1 1 1 1 1 1 1 1 1 1 1 1 1 1 1 1 1 1 1 1 1 1 1 1 1 1 1 1 1 1 1 1 0 0 0 0 0 0 0 0 0 0 0 0 0 0 0 0 0 0 0 0 0 0 0 0 0 0 0 0 0 0 0 0 0 0 0 0 0 0 0 0 0 0 0 0 0 0 0 0 0 0 0 0 0 0 0 0 0 0 "/>
</feComponentTransfer>
<feComposite operator="in" in2="shape" in="coloredNoise1" result="noise1Clipped" />
<feFlood flood-color="rgba(0, 0, 0, 0.125)" result="color1Flood" />
<feComposite operator="in" in2="noise1Clipped" in="color1Flood" result="color1" />
<feMerge result="effect1_noise_413_1030">
<feMergeNode in="shape" />
<feMergeNode in="color1" />
</feMerge>
</filter>
<linearGradient id="paint0_linear_413_1030" x1="250" y1="11.0001" x2="250" y2="261" gradientUnits="userSpaceOnUse">
<stop stop-color="#5FB4F1"/>
<stop offset="1" stop-color="#4583B0"/>
</linearGradient>
<linearGradient id="paint1_linear_413_1030" x1="250.061" y1="96.3075" x2="250.061" y2="219.355" gradientUnits="userSpaceOnUse">
<stop stop-color="#F1775F"/>
<stop offset="1" stop-color="#CB5C46"/>
</linearGradient>
<linearGradient id="paint2_linear_413_1030" x1="248.502" y1="51" x2="248.502" y2="140.21" gradientUnits="userSpaceOnUse">
<stop stop-color="#D9D9D9"/>
<stop offset="1" stop-color="#B7B7B7"/>
</linearGradient>
</defs>
</svg>
